<?xml version="1.0" encoding="UTF-8"?>
<svg width="133.1mm" height="133.1mm" version="1.1" viewBox="0 0 133.1 133.1" xmlns="http://www.w3.org/2000/svg" xmlns:xlink="http://www.w3.org/1999/xlink">
 <title>Area-CN-05</title>
 <defs>
  <linearGradient id="linearGradient2" x1="63.285" x2="183.43" y1="136.53" y2="136.53" gradientUnits="userSpaceOnUse">
   <stop stop-color="#099" offset=".30471"/>
   <stop stop-color="#019858" stop-opacity=".32394" offset="1"/>
  </linearGradient>
 </defs>
 <g transform="translate(-57.427 -70.189)">
  <rect transform="translate(.18899 .37797)" x="68.636" y="128.49" width="3.7962" height=".61664" fill="#099"/>
  <g transform="translate(.18899 .37798)">
   <path d="m116.48 192.43v-4.1937l-2.5914-0.47748c-11.886-2.1902-24.481-10.123-31.696-19.964-4.9747-6.7854-7.6727-12.997-9.7457-22.439l-0.24519-1.1167h-4.2127c-3.4668 0-4.2563-0.11373-4.4592-0.64234-0.13557-0.35328-0.24649-3.5381-0.24649-7.0774 0-7.977-0.1756-7.7113 5.0973-7.7113h3.821l0.25318-1.1167c1.4552-6.4188 3.1009-11.074 5.4691-15.471 7.2031-13.373 21.037-23.855 34.945-26.477 1.4276-0.26914 2.8241-0.77522 3.1033-1.1246 0.31824-0.39826 0.50761-1.9492 0.50761-4.1572v-3.5219l1.884-0.25824c2.4069-0.3299 6.0935-0.32871 10.021 0.0032l3.0933 0.26148 0.23016 8.1465 3.2487 0.70544c19.922 4.3261 35.875 20.553 39.986 40.675l0.47706 2.335 3.3214 6e-3c1.8268 3e-3 3.5459 0.14882 3.8202 0.32313 0.69806 0.44344 1.0916 6.4183 0.73552 11.167l-0.29496 3.9343h-7.5341l-0.49216 2.5016c-2.387 12.133-9.8 23.847-19.906 31.455-5.9278 4.4625-14.175 8.1951-21.026 9.5165l-2.538 0.4895v7.9144l-1.269 0.2538c-0.69795 0.13959-4.0786 0.2538-7.5125 0.2538h-6.2435z" fill="url(#linearGradient2)" fill-rule="evenodd" stroke-width="0" style="paint-order:stroke fill markers"/>
   <g fill="#fff" fill-rule="evenodd" stroke-width="0">
    <path d="m69.354 121.8c4.0456-14.599 14.054-27.124 27.572-34.506 3.0206-1.6494 8.3436-3.7676 12.001-4.7755l2.7403-0.75516v1.2315c0 1.2247-0.019 1.2371-3.4546 2.2656-16.707 5.0011-30.112 18.304-35.558 35.289l-1.2415 3.8713-2.7867 6e-3z" style="paint-order:stroke fill markers"/>
    <path d="m175.43 121.88c-1.8883-7.3283-6.9382-16.077-12.848-22.259-6.3073-6.5976-13.052-10.871-22.003-13.94-4.1768-1.4321-4.5452-1.6355-4.6553-2.5693-0.0658-0.55775 0.0324-1.0141 0.21816-1.0141 0.91445 0 7.8742 2.534 11.035 4.0179 11.352 5.3288 21.294 15.271 26.613 26.615 1.6298 3.4757 3.2688 7.9783 3.8121 10.472 0.2427 1.1143 0.18474 1.2284-0.62369 1.2284-0.78339 0-0.9708-0.30875-1.5487-2.5513z" style="paint-order:stroke fill markers"/>
    <path d="m135.86 190.29c0.01-1.1167 0.45364-1.4 3.585-2.288 4.1964-1.19 12.248-5.2088 16.076-8.0241 6.6345-4.8793 12.586-11.966 16.338-19.454 1.6275-3.2479 4.0608-9.829 4.0608-10.983 0-0.32984 0.37353-0.54546 0.94494-0.54546 0.51971 0 0.94494 0.19107 0.94494 0.4246 0 0.96666-2.788 8.6801-4.1789 11.561-3.753 7.7749-10.785 16.156-17.633 21.016-4.2427 3.011-10.108 6.006-14.904 7.611-4.5505 1.5227-5.2417 1.6126-5.2336 0.68111z" style="paint-order:stroke fill markers"/>
    <path d="m107.81 190.39c-10.179-3.1218-18.08-7.9941-25.303-15.604-6.2819-6.6189-10.424-14.03-13.303-23.801l-0.58462-1.9844h1.477c1.4221 0 1.492 0.0597 1.8822 1.6064 2.3882 9.4672 8.8246 19.786 16.493 26.442 5.4886 4.7637 11.406 8.1079 18.609 10.517 4.2432 1.4193 4.4031 1.512 4.5173 2.6198 0.14238 1.3805 0.0598 1.385-3.788 0.20499z" style="paint-order:stroke fill markers"/>
   </g>
   <g fill="#1afd9c">
    <rect x="114.09" y="171.71" width="3" height="25"/>
    <rect x="130.43" y="171.71" width="3" height="25"/>
    <rect x="159.29" y="101.81" width="3" height="55"/>
    <rect x="85.287" y="101.81" width="3" height="55"/>
    <rect transform="rotate(-60)" x="-93.144" y="152.26" width="3" height="35"/>
   </g>
   <path d="m118.71 202.39c-0.62367-0.0893-2.4946-0.34305-4.1577-0.56394-13.703-1.82-27.202-8.5581-37.356-18.647-9.3613-9.3013-15.523-20.749-18.455-34.287-0.74081-3.4204-0.85069-5.0374-0.85733-12.617-0.0067-7.6126 0.0983-9.1869 0.84433-12.662 5.8336-27.176 25.424-46.759 52.611-52.594 3.4161-0.73309 5.1267-0.85411 12.284-0.86906 9.4142-0.0197 13.48 0.57356 20.95 3.0568 10.138 3.3703 18.067 8.3129 25.953 16.179 6.0874 6.0717 9.685 11.095 13.144 18.352 11.02 23.119 7.8563 50.018-8.2463 70.115-9.7512 12.17-24.712 20.984-40.11 23.633-4.2646 0.73346-14.068 1.2673-16.605 0.90422zm11.481-10.221 1.1812-0.23624v-7.3617l2.3624-0.48691c6.9607-1.4347 13.718-4.5156 19.56-8.919 9.4341-7.11 15.74-16.948 18.324-28.589l0.65035-2.9293h7.0351l0.2748-3.6654c0.24275-3.2379-3e-3 -10.622-0.3651-10.985-0.0742-0.0742-1.6762-0.23475-3.56-0.3568l-3.4251-0.2219-0.60904-2.6855c-2.1491-9.4764-6.3696-17.073-13.376-24.075-6.5617-6.5577-13.633-10.593-22.457-12.814l-4.2258-1.0639-0.37798-7.444-2.2679-0.24246c-3.0932-0.33069-7.9-0.36783-10.3-0.0796l-1.9844 0.23835v7.4398l-1.0394 0.2366c-12.129 2.7609-20.057 7.0486-27.253 14.741-6.2942 6.7274-10.862 15.539-12.424 23.969l-0.31521 1.7009-3.8924 0.21331c-2.7886 0.15282-3.9897 0.36718-4.2357 0.75595-0.37938 0.59956-0.47921 12.136-0.11671 13.488 0.21776 0.81258 0.40233 0.85045 4.1454 0.85045h3.9175l0.23409 1.0394c1.2875 5.7166 2.6177 9.5554 4.7875 13.816 3.1082 6.1032 6.9643 10.945 12.06 15.144 6.1556 5.0722 12.35 8.1681 20.069 10.03l4.0627 0.98023 7.9e-4 3.6223c2.7e-4 1.9922 0.11398 3.7357 0.25257 3.8743 0.31898 0.31897 11.724 0.33247 13.308 0.0158zm-18.096-2.4215c0-0.8929-0.19561-1.5813-0.47247-1.6628-7.6823-2.26-12.78-4.5796-18.231-8.2951-4.1185-2.8075-9.785-8.4082-12.858-12.708-2.9965-4.1935-6.1986-10.652-7.5434-15.214l-1.0863-3.6853h-1.8345c-2.1571 0-2.1514-0.33212-0.10213 5.9132 2.7282 8.3142 7.1943 15.509 13.575 21.87 7.0355 7.0136 14.677 11.552 24.19 14.366 4.2606 1.2606 4.3626 1.2469 4.3626-0.58416zm28.742 7e-3c17.065-5.5767 30.503-19.038 36.119-36.182 1.6464-5.0261 1.6479-5.3905 0.022-5.3905-1.2149 0-1.2796 0.0753-1.7076 1.9844-0.69533 3.1019-3.5103 9.6602-5.7081 13.299-6.7643 11.199-17.682 19.832-29.686 23.475-3.5632 1.0814-4.3467 1.6366-4.3467 3.0803 0 1.1936 0.99186 1.1439 5.3072-0.26632zm-68.457-67.18c1.3051-5.3317 5.2329-13.398 8.909-18.296 3.0762-4.0988 8.5935-9.3625 12.702-12.118 4.1466-2.7812 10.035-5.5946 14.543-6.9491l3.5615-1.07v-1.6447c0-1.3885-0.10303-1.6144-0.66145-1.4502-0.36381 0.107-1.7455 0.46874-3.0704 0.80386-13.593 3.438-26.827 13.828-34.295 26.923-2.5042 4.3915-6.158 14.364-5.596 15.273 0.11006 0.17808 0.93528 0.32379 1.8338 0.32379h1.6337zm105.86 1.044c0-1.4838-2.376-8.2103-4.3408-12.289-5.3158-11.035-14.584-20.306-25.708-25.718-3.9651-1.9289-11.358-4.4772-12.13-4.181-0.57828 0.22191-0.70544 1.638-0.21627 2.4087 0.16749 0.26389 1.398 0.79443 2.7345 1.179 13.875 3.9921 25.545 13.533 32.414 26.5 1.5138 2.8576 3.5526 8.0987 4.8156 12.379 0.0767 0.25986 0.65502 0.47247 1.2852 0.47247 0.89152 0 1.1458-0.16676 1.1458-0.75143z" fill-rule="evenodd" stop-color="#000000" stroke-miterlimit="10" stroke-width="4.2857" style="paint-order:stroke fill markers"/>
   <rect transform="matrix(-.5 -.86603 -.86603 .5 0 0)" x="-216.91" y="-62.111" width="3" height="35" fill="#1afd9c"/>
   <g transform="matrix(.6345 0 0 .6345 57.165 35.181)" fill="#1afd9c">
    <g transform="translate(1.7199 29.684)">
     <path d="m74.807 90.815-17.994 10.389v16.828l4.8912-2.1053v-11.898l22.885-13.213zm-13.103 25.112v4.2106l41.576 17.895 41.576-17.895v-4.2106l-40.076-17.25v7.1675h4.316l-5.8162 10.073-5.8157-10.073h4.316v-7.1675zm83.152 0 4.8912 2.1053v-16.828l-17.994-10.389h-9.7829l22.886 13.213zm4.8912 2.1053-4.8912 2.1053v31.898l-41.576 24.004-41.576-24.004v-31.898l-4.8912-2.1053v36.828l46.467 26.828 46.467-26.828zm-88.154-1.9761c-0.0378 0-1.0342 0.4188-2.2143 0.93069-1.324 0.57426-2.1461 0.97652-2.1461 1.0501 0 0.0737 0.82011 0.47189 2.1503 1.0444 1.1825 0.50895 2.1789 0.92653 2.2143 0.92811 0.03547 2e-3 0.06459-0.88719 0.06459-1.9751 0-1.0879-0.03093-1.9782-0.06873-1.9782zm83.425 0.0155c-0.0852-0.0218-0.10852 0.40216-0.10852 1.9658 0 1.8622 0.01 1.9898 0.15038 1.9384 0.52314-0.19115 4.4902-1.9064 4.4902-1.9415 0-0.0407-4.3022-1.9039-4.532-1.9627z"/>
     <rect transform="matrix(-1 0 0 1 206.56 -3.125e-7)" x="79.19" y="66" width="5.3965" height="24.829"/>
     <rect x="79.19" y="66" width="5.3965" height="24.829"/>
     <rect transform="matrix(-.5 .86603 .86603 .5 206.56 -3.125e-7)" x="116.05" y="-27.812" width="3.4495" height="15.871"/>
     <rect transform="rotate(60)" x="116.05" y="-27.812" width="3.4495" height="15.871"/>
     <path transform="matrix(-.8162 0 0 .8162 189.3 8.9461)" d="m78.998 57.581 7.1254 12.342h-14.251z"/>
     <path transform="matrix(.8162 0 0 .8162 17.256 8.9461)" d="m78.998 57.581 7.1254 12.342h-14.251z"/>
     <rect transform="matrix(1.5761 0 0 1.5761 -92.113 -85.727)" x="150.35" y="127.86" width="3.1" height="2.8568"/>
     <rect transform="matrix(1.5761 0 0 1.5761 -92.113 -85.727)" x="94.497" y="127.87" width="3.1" height="2.8568"/>
    </g>
    <g>
     <path d="m103.5 85.628v42.8h2e-3l1.4981-2.1838 1.4986 2.1838h2e-3v-42.8z"/>
     <path d="m106.5 209v-33h-2e-3l-1.4981 1.6838-1.4986-1.6838h-2e-3v33z"/>
    </g>
   </g>
   <path d="m121.75 143.12q0 1.8175-0.51364 3.3189-0.51365 1.4619-1.857 2.5287-1.3434 1.0273-3.714 1.62-2.3312 0.59267-5.9662 0.59267t-6.0057-0.59267q-2.3312-0.59266-3.6745-1.62-1.3434-1.0668-1.8965-2.5287-0.51364-1.5014-0.51364-3.3189v-13.473q0-1.8175 0.51364-3.2794 0.55316-1.5014 1.8965-2.5682 1.3434-1.0668 3.6745-1.6595 2.3707-0.59267 6.0057-0.59267t5.9662 0.59267q2.3707 0.59267 3.714 1.6595 1.3434 1.0668 1.857 2.5682 0.51364 1.4619 0.51364 3.2794zm-15.212-1.4224q0 0.79023 0.55315 1.3434 0.59267 0.51365 2.6077 0.51365 2.0151 0 2.5682-0.51365 0.59266-0.55315 0.59266-1.3434v-10.628q0-0.75071-0.59266-1.2644-0.55316-0.55315-2.5682-0.55315-2.0151 0-2.6077 0.55315-0.55315 0.51365-0.55315 1.2644zm33.663 8.89h-12.565q-0.75071 0-1.1063-0.31609-0.31609-0.3556-0.31609-1.1063v-4.6228q0-0.75071 0.31609-1.0668 0.3556-0.3556 1.1063-0.3556h10.194q0.47414 0 0.75071-0.19755 0.31609-0.23707 0.31609-0.7112v-1.5409q0-0.47414-0.31609-0.67169-0.27657-0.23707-0.75071-0.23707h-9.7988q-0.75071 0-1.1063-0.31609-0.31609-0.3556-0.31609-1.1063v-14.777q0-0.75071 0.31609-1.0668 0.3556-0.3556 1.1063-0.3556h17.029q0.75072 0 1.0668 0.3556 0.3556 0.31609 0.3556 1.0668v4.7018q0 0.75071-0.3556 1.1063-0.31608 0.31609-1.0668 0.31609h-9.4827v2.5682h5.413q3.2004 0 5.0574 1.5804 1.857 1.5804 1.857 4.7018v5.492q0 3.0028-2.0941 4.7808-2.0546 1.778-5.6106 1.778z" stroke="#fff" stroke-width="1.5" style="paint-order:normal" aria-label="05"/>
   <path d="m121.62 119.34h-3.0988c-1.0583 0-1.8457-0.21167-2.3622-0.635-0.508-0.42333-0.762-1.0753-0.762-1.9558v-3.9497c0-0.88053 0.254-1.5325 0.762-1.9558 0.51647-0.4318 1.3039-0.6477 2.3622-0.6477h3.0988c0.16087 0 0.27517 0.0381 0.3429 0.1143 0.0762 0.0677 0.1143 0.18203 0.1143 0.3429v1.5367c0 0.16087-0.0381 0.2794-0.1143 0.3556-0.0677 0.0677-0.18203 0.1016-0.3429 0.1016h-2.5527c-0.26246 0-0.4572 0.055-0.5842 0.1651-0.127 0.1016-0.1905 0.25823-0.1905 0.4699v3.0226c0 0.21167 0.0635 0.3683 0.1905 0.4699 0.127 0.0931 0.32174 0.1397 0.5842 0.1397h2.5527c0.16087 0 0.27517 0.0381 0.3429 0.1143 0.0762 0.0677 0.1143 0.18203 0.1143 0.3429v1.5113c0 0.16087-0.0381 0.2794-0.1143 0.3556-0.0677 0.0677-0.18203 0.10159-0.3429 0.1016zm6.2711 0h-1.905c-0.16086 0-0.2794-0.0339-0.3556-0.1016-0.0677-0.0762-0.1016-0.19473-0.1016-0.3556v-8.2296c0-0.16087 0.0339-0.27517 0.1016-0.3429 0.0762-0.0762 0.19474-0.1143 0.3556-0.1143h1.3208c0.16087 0 0.29634 0.0254 0.4064 0.0762 0.11854 0.0508 0.23284 0.1397 0.3429 0.2667l2.4638 2.8194v-2.7051c0-0.16087 0.0339-0.27517 0.1016-0.3429 0.0762-0.0762 0.19474-0.1143 0.3556-0.1143h1.905c0.16087 0 0.27517 0.0381 0.3429 0.1143 0.0762 0.0677 0.1143 0.18203 0.1143 0.3429v8.2296c0 0.16087-0.0381 0.2794-0.1143 0.3556-0.0677 0.0677-0.18203 0.1016-0.3429 0.1016h-1.905c-0.16086 0-0.2794-0.0339-0.3556-0.1016-0.0677-0.0762-0.1016-0.19473-0.1016-0.3556v-1.5621l-2.1717-2.6289v4.191c0 0.16087-0.0381 0.2794-0.1143 0.3556-0.0677 0.0677-0.18203 0.1016-0.3429 0.1016z" stroke="#fff" stroke-width="1.5" style="paint-order:stroke fill markers;white-space:pre" aria-label="CN"/>
  </g>
 </g>
</svg>
