<?xml version="1.0" encoding="UTF-8"?>
<!-- Created with Inkscape (http://www.inkscape.org/) -->
<svg width="133.01mm" height="131.63mm" version="1.1" viewBox="0 0 133.01 131.63" xmlns="http://www.w3.org/2000/svg" xmlns:cc="http://creativecommons.org/ns#" xmlns:dc="http://purl.org/dc/elements/1.1/" xmlns:rdf="http://www.w3.org/1999/02/22-rdf-syntax-ns#">
 <title>area-FR-mem</title>
 <defs>
  <clipPath id="clipPath14641">
   <path d="m105.97 213.67-1.8126-5.6931-0.50397-0.24767c-0.27719-0.13619-1.6462-0.80437-3.0423-1.4848-12.063-5.8789-21.778-15.923-27.365-28.292l-0.58972-1.3054-12.658-4.0374 0.0022-37.3 12.784-4.0613 0.30985-0.72524c2.7129-6.3498 7.4916-13.21 12.704-18.236 4.8422-4.6699 9.8383-8.0909 16.182-11.081 1.0366-0.48852 1.9384-0.97805 2.004-1.0878 0.0656-0.1098 0.99156-2.941 2.0576-6.2916l1.9382-6.092h37.332l4.1067 12.856 2.4658 1.2042c3.9169 1.9128 7.474 4.1701 11.04 7.0059 2.1934 1.7444 6.9461 6.5332 8.8193 8.8865 2.7875 3.5018 5.5259 7.9042 7.2582 11.669 0.43112 0.93687 0.81035 1.7299 0.84273 1.7623 0.05 0.05 9.6625 3.1398 12.182 3.9156l0.83401 0.25683v18.685c0 10.276-0.0286 18.684-0.0634 18.684-0.20521 0-12.766 4.0713-12.85 4.1649-0.056 0.0627-0.45323 0.8646-0.88275 1.782-4.1033 8.7642-10.055 16.145-17.635 21.869-3.301 2.4927-6.4905 4.4188-10.383 6.2701l-2.2871 1.0878-1.0012 3.1185c-0.55062 1.7152-1.3788 4.3097-1.8404 5.7656l-0.83928 2.6471h-37.296zm38.798-2.9254c1.0251-3.2244 1.9037-5.9226 1.9523-5.996 0.0486-0.0733 1.0674-0.57197 2.2641-1.1079 6.1035-2.7336 11.392-6.4573 16.325-11.494 4.6701-4.7685 8.2677-10.074 10.896-16.068 0.3175-0.7242 0.62131-1.3615 0.67514-1.4163 0.0538-0.0548 2.8066-0.96356 6.1173-2.0196 3.3107-1.056 6.2318-1.99 6.4914-2.0756l0.472-0.15555-0.0736-32.926-13.069-4.1789-0.26891-0.66643c-0.62167-1.5406-2.3154-4.8627-3.4086-6.6858-5.6768-9.4668-14.008-16.959-23.962-21.547-0.98417-0.45367-1.8124-0.84544-1.8405-0.87061-0.0281-0.0252-0.98407-2.9708-2.1244-6.5459l-2.0732-6.5002h-33.422l-2.0075 6.3095c-1.1041 3.4702-2.0599 6.3952-2.124 6.4999-0.0641 0.10471-0.60602 0.4035-1.2043 0.66399-10.113 4.4028-18.965 12.145-24.731 21.628-1.0008 1.6461-2.956 5.4544-3.5574 6.9292l-0.34144 0.83732-1.9663 0.62372c-1.0815 0.34304-4.0059 1.2717-6.4988 2.0636l-4.5325 1.4399-4.76e-4 33.386 4.6777 1.4926c2.5728 0.82092 5.5249 1.7638 6.5604 2.0954 1.539 0.49277 1.9152 0.66816 2.0611 0.96083 0.0982 0.19691 0.66334 1.3697 1.2559 2.6062 1.7612 3.6748 3.985 7.1515 6.7896 10.614 1.7588 2.1716 5.7116 6.0978 7.8821 7.829 3.9018 3.1123 8.4114 5.8335 12.603 7.6052 0.78233 0.33067 1.039 0.517 1.1814 0.85759 0.10003 0.23932 0.98465 2.9644 1.9658 6.0557l1.7839 5.6205h33.389z"/>
  </clipPath>
 </defs>
 <g transform="translate(-59.923 -87.732)">
  <g fill-rule="evenodd">
   <path d="m109.44 219.25c-0.0485-0.0835-0.46855-1.3733-0.93352-2.8661s-1.3407-4.2285-1.946-6.0794l-1.1006-3.3652-3.256-1.5968c-6.2061-3.0436-10.392-6.0381-15.333-10.968-4.9172-4.9064-7.6292-8.6421-10.745-14.8-0.87173-1.7232-1.7029-3.2292-1.847-3.3468-0.14414-0.1176-2.5691-0.95313-5.3889-1.8568-2.8197-0.90361-5.8285-1.8705-6.6861-2.1487l-1.5593-0.50576 0.10274-34.59 13.491-4.2799 0.99361-2.1113c3.2236-6.8498 6.2851-11.264 11.412-16.456 4.9203-4.9822 9.6159-8.2919 16.551-11.666l2.2198-1.08 0.52252-1.6342c0.2874-0.8988 1.2575-3.9191 2.1558-6.7118l1.6333-5.0777 34.625 0.10274 0.65818 2.0105c0.36202 1.1058 1.3401 4.1366 2.1736 6.7352l1.5154 4.7247 3.2716 1.6475c6.2549 3.1499 9.9897 5.8502 14.945 10.805 5.0119 5.0119 7.4858 8.4355 10.753 14.881l1.9319 3.8113 13.439 4.2786 0.1028 34.16-5.8819 1.8956c-3.235 1.0426-6.289 2.0458-6.7866 2.2293-0.90195 0.33268-0.91027 0.34472-2.7142 3.925-1.9802 3.9301-2.8815 5.4302-4.9966 8.316-5.8034 7.9179-13.188 14.016-21.899 18.085l-2.7692 1.2934-1.7171 5.3395c-0.94441 2.9367-1.8319 5.7014-1.9722 6.1437l-0.25508 0.8042-17.311 0.0514c-9.5212 0.0283-17.351-0.017-17.399-0.1005z" fill="#fff" stop-color="#000000" style="paint-order:stroke fill markers"/>
   <path d="m102.86 207.01c-5.2689-2.6213-10.119-6.2084-14.584-10.787-4.6725-4.7906-7.841-9.3589-10.845-15.636-1.7747-3.7084-0.87328-3.1313-9.1367-5.8492l-5.5315-1.8193-0.0114-35.221 2.3142-0.81343c1.2728-0.44738 4.1204-1.4238 6.328-2.1699l4.0138-1.3565 1.4789-3.2484c5.3768-11.81 13.844-20.957 24.913-26.912l3.1965-1.7199 0.23001 53.317c0.12651 29.325 0.13792 53.314 0.0255 53.31-0.11249-4e-3 -1.1883-0.49644-2.3906-1.0946z" fill="#002395" stop-color="#000000" stroke="#002395" stroke-linejoin="round" stroke-width="1.0609" style="paint-order:stroke fill markers"/>
   <path d="m147.54 154.08 0.31922-50.396 1.0209 0.43543c1.8204 0.77649 5.3452 2.7717 7.697 4.357 8.3466 5.6262 15.445 14.001 19.328 22.804l1.0328 2.3412 12.878 4.1942-0.0341 16.473-0.034 16.473-13.011 4.128-1.5496 3.1865c-5.3747 11.052-14.923 20.393-26.12 25.55l-1.8479 0.85117z" fill="#ed2939" stop-color="#000000" stroke="#ed2939" stroke-linejoin="round" stroke-width="1.0026" style="paint-order:stroke fill markers"/>
  </g>
  <g transform="matrix(1.7131 0 0 1.7131 -18.285 -44.049)" stroke="#000" stroke-width=".21167">
   <path d="m84.099 89.863c-0.30616-1.2888-1.2811-3.4423-2.2262-4.9172-0.46077-0.71906-0.58582-1.0704-0.40268-1.1315 0.62376-0.20792 1.52-1.1745 1.52-1.6393 0-0.74559-0.58649-1.2231-1.3217-1.0761-0.808 0.1616-0.68393-0.29033 0.17192-0.62624 0.85185-0.33434 1.9442-0.01597 2.2503 0.65586 0.13055 0.28653 0.30204 0.52097 0.38108 0.52097 0.079 0 0.25053-0.23444 0.38109-0.52097 0.3061-0.67183 1.3985-0.9902 2.2503-0.65586 0.85586 0.33592 0.97993 0.78784 0.17193 0.62624-0.73518-0.14704-1.3217 0.33046-1.3217 1.0761 0 0.46478 0.89623 1.4313 1.52 1.6393 0.18314 0.06105 0.0581 0.41244-0.40269 1.1315-0.94511 1.4749-1.92 3.6283-2.2262 4.9172-0.14371 0.60498-0.31146 1.1-0.37278 1.1-0.0613 0-0.22906-0.49498-0.37277-1.1z"/>
   <path d="m85.18 85.749 0.58515-1.1931-0.54106-0.56474c-0.29758-0.31061-0.54105-0.67859-0.54105-0.81774s-0.0952-0.253-0.21167-0.253c-0.11641 0-0.21166 0.11385-0.21166 0.253s-0.24348 0.50713-0.54106 0.81774l-0.54105 0.56474 0.58515 1.1931c0.32183 0.6562 0.64071 1.1931 0.70862 1.1931 0.0679 0 0.3868-0.53689 0.70863-1.1931z" fill="#fff"/>
  </g>
  <path d="m169.78 152.91c2.208-0.52449 5.8971-2.1947 8.4238-3.8138 1.2318-0.78937 1.8338-1.0036 1.9384-0.68985 0.3562 1.0686 2.012 2.604 2.8083 2.604 1.2773 0 2.0953-1.0047 1.8434-2.2642-0.27684-1.3842 0.49737-1.1717 1.0728 0.29453 0.57278 1.4593 0.0274 3.3307-1.1236 3.8551-0.49088 0.22365-0.8925 0.51744-0.8925 0.65284 0 0.13534 0.40162 0.4292 0.8925 0.65287 1.1509 0.52439 1.6964 2.3958 1.1236 3.8551-0.57548 1.4662-1.3497 1.6788-1.0728 0.29454 0.25189-1.2595-0.56613-2.2642-1.8434-2.2642-0.79624 0-2.4521 1.5354-2.8083 2.604-0.10458 0.31375-0.70656 0.0995-1.9384-0.68986-2.5267-1.6191-6.2158-3.2893-8.4238-3.8138-1.0364-0.2462-1.8844-0.53358-1.8844-0.63863 0-0.10501 0.84798-0.39241 1.8844-0.63861z" fill="#fff"/>
  <path d="m176.83 154.76 2.044 1.0024 0.96748-0.92692c0.53211-0.5098 1.1625-0.9269 1.4009-0.9269 0.23839 0 0.43343-0.16309 0.43343-0.36262 0-0.19942-0.19504-0.3626-0.43343-0.3626-0.23838 0-0.86879-0.41712-1.4009-0.92692l-0.96748-0.9269-2.044 1.0024c-1.1242 0.55134-2.0439 1.0976-2.0439 1.214 0 0.11633 0.91977 0.66265 2.0439 1.214z" fill="#ed2939"/>
  <path d="m82.576 154.19c-2.208 0.5245-5.8971 2.1947-8.4238 3.8138-1.2319 0.78937-1.8338 1.0036-1.9384 0.68985-0.3562-1.0686-2.012-2.604-2.8083-2.604-1.2773 0-2.0953 1.0047-1.8434 2.2642 0.27684 1.3842-0.49737 1.1717-1.0728-0.29452-0.57278-1.4593-0.02736-3.3307 1.1236-3.8551 0.49088-0.22365 0.8925-0.51744 0.8925-0.65284 0-0.13534-0.40162-0.4292-0.8925-0.65287-1.1509-0.52439-1.6964-2.3958-1.1236-3.8551 0.57548-1.4662 1.3497-1.6788 1.0728-0.29454-0.25189 1.2595 0.56613 2.2642 1.8434 2.2642 0.79624 0 2.4521-1.5354 2.8083-2.604 0.10459-0.31374 0.70656-0.0995 1.9384 0.68987 2.5267 1.6191 6.2158 3.2893 8.4238 3.8138 1.0364 0.24619 1.8844 0.53357 1.8844 0.63863 0 0.10501-0.84798 0.39241-1.8844 0.6386z" fill="#fff"/>
  <path d="m75.527 152.33-2.0439-1.0024-0.96748 0.92692c-0.53211 0.50979-1.1625 0.92689-1.4009 0.92689-0.23838 0-0.43343 0.16309-0.43343 0.36263 0 0.19942 0.19504 0.3626 0.43343 0.3626s0.8688 0.41712 1.4009 0.92692l0.96748 0.92689 2.0439-1.0024c1.1242-0.55135 2.0439-1.0976 2.0439-1.214s-0.91978-0.66265-2.0439-1.214z" fill="#002395"/>
  <g transform="matrix(1.7131 0 0 -1.7131 -18.285 352.33)" stroke="#000" stroke-width=".21167">
   <path d="m84.099 89.863c-0.30616-1.2888-1.2811-3.4423-2.2262-4.9172-0.46077-0.71906-0.58582-1.0704-0.40268-1.1315 0.62376-0.20792 1.52-1.1745 1.52-1.6393 0-0.74559-0.58649-1.2231-1.3217-1.0761-0.808 0.1616-0.68393-0.29033 0.17192-0.62624 0.85185-0.33434 1.9442-0.01597 2.2503 0.65586 0.13055 0.28653 0.30204 0.52097 0.38108 0.52097 0.079 0 0.25053-0.23444 0.38109-0.52097 0.3061-0.67183 1.3985-0.9902 2.2503-0.65586 0.85586 0.33592 0.97993 0.78784 0.17193 0.62624-0.73518-0.14704-1.3217 0.33046-1.3217 1.0761 0 0.46478 0.89623 1.4313 1.52 1.6393 0.18314 0.06105 0.0581 0.41244-0.40269 1.1315-0.94511 1.4749-1.92 3.6283-2.2262 4.9172-0.14371 0.60498-0.31146 1.1-0.37278 1.1-0.0613 0-0.22906-0.49498-0.37277-1.1z"/>
   <path d="m85.18 85.749 0.58515-1.1931-0.54106-0.56474c-0.29758-0.31061-0.54105-0.67859-0.54105-0.81774s-0.0952-0.253-0.21167-0.253c-0.11641 0-0.21166 0.11385-0.21166 0.253s-0.24348 0.50713-0.54106 0.81774l-0.54105 0.56474 0.58515 1.1931c0.32183 0.6562 0.64071 1.1931 0.70862 1.1931 0.0679 0 0.3868-0.53689 0.70863-1.1931z" fill="#fff"/>
  </g>
  <text x="116.27962" y="184.78223" font-family="'MS UI Gothic'" font-size="79.318px" letter-spacing="0px" stroke="#ffffff" stroke-width="2" style="line-height:1.25;paint-order:stroke fill markers" xml:space="preserve"><tspan x="116.27962" y="184.78223" font-family="bungee" font-size="79.318px" stroke="#ffffff" stroke-width="2" style="paint-order:stroke fill markers"/></text>
  <g stroke="#fff" stroke-width="2" style="paint-order:stroke fill markers" aria-label="ם">
   <path d="m117.22 166.18v-12.596q0-1.8696 1.4256-3.4821l2.9914-3.4588h-1.4957q-3.3886 0-3.3886-2.9914 0-2.1968 1.4256-3.7859h0.60762q0.39729 1.6359 2.2201 1.6359h6.5202q5.3751 0 6.9642 1.5658 1.6125 1.5658 1.6125 6.8006v16.312zm6.0061-19.537-2.8745 4.1598q-1.0283 1.4957-1.0283 3.6223v6.9876h14.746v-6.3099q0-4.8609-0.88806-6.6604-0.86469-1.7995-3.9495-1.7995z"/>
  </g>
  <g transform="matrix(.33842 0 0 .33842 9.7168 145.49)" fill-rule="evenodd">
   <g transform="matrix(.67059 0 0 .67059 754.8 67.567)">
    <path d="m-677.03 9.8706c4.1751 5.1792-7.5 7.2403-1.2054 12.143 2.6846 1.6646 8.9556-1.9388 3.4465-6.3674-0.71182-0.37916 2.4779-2.9974-2.2411-5.7752z"/>
    <path d="m-670.07 22.15c-1.0445 0.09831-2.0511 0.74291-3.0015 2.3876-1.192 2.7574 4.0496 7.5398 7.577 1.6604 0.2496-0.71754 3.7508 1.5805 5.6878-3.2341-3.3206 3.4884-6.7169-0.67575-9.8003-0.81385-0.15082-0.0068-0.31395-0.01409-0.46315-5e-5z"/>
    <path d="m-682.98 22.199c-3.0834 0.13753-6.4805 4.3179-9.8004 0.82889 1.936 4.815 5.4748 2.5177 5.7243 3.2352 3.5263 5.8801 8.7317 1.0987 7.5403-1.659-1.0858-1.8799-2.2576-2.459-3.4642-2.4052z"/>
    <path d="m-676.03 25.553c-2.7164 12.337-7.7682 21.07-13.267 27.35 2.2857-0.62659 4.8708-2.4033 7.3553-3.9622-1.5196 3.235-3.0572 6.0362-4.5768 8.8907 0.90717-0.30742 3.7976-3.1901 7.7076-7.417 0.61237 5.8116 1.4474 8.558 2.6851 12.499 0.98603-3.9342 1.7009-6.6209 2.4837-12.6 2.3567 2.6739 4.6284 5.3618 7.8173 7.6556l-4.4639-9.1964c2.3117 1.478 4.8844 3.4098 7.336 4.2346-5.8122-6.5936-10.731-15.115-13.077-27.454z"/>
   </g>
   <g transform="matrix(.67059 0 0 .67059 753.77 67.567)">
    <path d="m-616.46 22.199c-3.0834 0.13753-6.4805 4.3179-9.8004 0.82889 1.936 4.815 5.4748 2.5177 5.7243 3.2352 3.5263 5.8801 8.7317 1.0987 7.5403-1.659-1.0858-1.8799-2.2576-2.459-3.4642-2.4052z"/>
    <path d="m-610.51 9.8706c4.1751 5.1792-7.5 7.2403-1.2054 12.143 2.6846 1.6646 8.9556-1.9388 3.4465-6.3674-0.71182-0.37916 2.4779-2.9974-2.2411-5.7752z"/>
    <path d="m-603.55 22.15c-1.0445 0.09831-2.0511 0.74291-3.0015 2.3876-1.192 2.7574 4.0496 7.5398 7.577 1.6604 0.2496-0.71754 3.7508 1.5805 5.6878-3.2341-3.3206 3.4884-6.7169-0.67575-9.8003-0.81385-0.15082-0.0068-0.31395-0.01409-0.46315-5e-5z"/>
    <path d="m-609.51 25.553c-2.7164 12.337-7.7682 21.07-13.267 27.35 2.2857-0.62659 4.8708-2.4033 7.3553-3.9622-1.5196 3.235-3.0572 6.0362-4.5768 8.8907 0.90717-0.30742 3.7976-3.1901 7.7076-7.417 0.61237 5.8116 1.4474 8.558 2.6851 12.499 0.98603-3.9342 1.7009-6.6209 2.4837-12.6 2.3567 2.6739 4.6284 5.3618 7.8173 7.6556l-4.4639-9.1964c2.3117 1.478 4.8844 3.4098 7.336 4.2346-5.8122-6.5936-10.731-15.115-13.077-27.454z"/>
   </g>
   <g transform="matrix(.67059 0 0 .67059 756.62 60.999)">
    <path d="m-549.77 19.664c4.1751 5.1792-7.5 7.2403-1.2054 12.143 2.6846 1.6646 8.9556-1.9388 3.4465-6.3674-0.71182-0.37916 2.4779-2.9974-2.2411-5.7752z"/>
    <path d="m-542.81 31.943c-1.0445 0.09831-2.0511 0.74291-3.0015 2.3876-1.192 2.7574 4.0496 7.5398 7.577 1.6604 0.2496-0.71754 3.7508 1.5805 5.6878-3.2341-3.3206 3.4884-6.7169-0.67575-9.8003-0.81385-0.15082-0.0068-0.31395-0.01409-0.46315-5e-5z"/>
    <path d="m-555.72 31.992c-3.0834 0.13753-6.4805 4.3179-9.8004 0.82889 1.936 4.815 5.4748 2.5177 5.7243 3.2352 3.5263 5.8801 8.7317 1.0987 7.5403-1.659-1.0858-1.8799-2.2576-2.459-3.4642-2.4052z"/>
    <path d="m-548.77 35.346c-2.7164 12.337-7.7682 21.07-13.267 27.35 2.2857-0.62659 4.8708-2.4033 7.3553-3.9622-1.5196 3.235-3.0572 6.0362-4.5768 8.8907 0.90717-0.30742 3.7976-3.1901 7.7076-7.417 0.61237 5.8116 1.4474 8.558 2.6851 12.499 0.98603-3.9342 1.7009-6.6209 2.4837-12.6 2.3567 2.6739 4.6284 5.3618 7.8173 7.6556l-4.4639-9.1964c2.3117 1.478 4.8844 3.4098 7.336 4.2346-5.8122-6.5936-10.731-15.115-13.077-27.454z"/>
   </g>
   <g transform="matrix(.67059 0 0 .67059 776.59 98.155)">
    <path d="m-677.03 9.8706c4.1751 5.1792-7.5 7.2403-1.2054 12.143 2.6846 1.6646 8.9556-1.9388 3.4465-6.3674-0.71182-0.37916 2.4779-2.9974-2.2411-5.7752z"/>
    <path d="m-670.07 22.15c-1.0445 0.09831-2.0511 0.74291-3.0015 2.3876-1.192 2.7574 4.0496 7.5398 7.577 1.6604 0.2496-0.71754 3.7508 1.5805 5.6878-3.2341-3.3206 3.4884-6.7169-0.67575-9.8003-0.81385-0.15082-0.0068-0.31395-0.01409-0.46315-5e-5z"/>
    <path d="m-682.98 22.199c-3.0834 0.13753-6.4805 4.3179-9.8004 0.82889 1.936 4.815 5.4748 2.5177 5.7243 3.2352 3.5263 5.8801 8.7317 1.0987 7.5403-1.659-1.0858-1.8799-2.2576-2.459-3.4642-2.4052z"/>
    <path d="m-676.03 25.553c-2.7164 12.337-7.7682 21.07-13.267 27.35 2.2857-0.62659 4.8708-2.4033 7.3553-3.9622-1.5196 3.235-3.0572 6.0362-4.5768 8.8907 0.90717-0.30742 3.7976-3.1901 7.7076-7.417 0.61237 5.8116 1.4474 8.558 2.6851 12.499 0.98603-3.9342 1.7009-6.6209 2.4837-12.6 2.3567 2.6739 4.6284 5.3618 7.8173 7.6556l-4.4639-9.1964c2.3117 1.478 4.8844 3.4098 7.336 4.2346-5.8122-6.5936-10.731-15.115-13.077-27.454z"/>
   </g>
   <g transform="matrix(.67059 0 0 .67059 775.56 98.155)">
    <path d="m-616.46 22.199c-3.0834 0.13753-6.4805 4.3179-9.8004 0.82889 1.936 4.815 5.4748 2.5177 5.7243 3.2352 3.5263 5.8801 8.7317 1.0987 7.5403-1.659-1.0858-1.8799-2.2576-2.459-3.4642-2.4052z"/>
    <path d="m-610.51 9.8706c4.1751 5.1792-7.5 7.2403-1.2054 12.143 2.6846 1.6646 8.9556-1.9388 3.4465-6.3674-0.71182-0.37916 2.4779-2.9974-2.2411-5.7752z"/>
    <path d="m-603.55 22.15c-1.0445 0.09831-2.0511 0.74291-3.0015 2.3876-1.192 2.7574 4.0496 7.5398 7.577 1.6604 0.2496-0.71754 3.7508 1.5805 5.6878-3.2341-3.3206 3.4884-6.7169-0.67575-9.8003-0.81385-0.15082-0.0068-0.31395-0.01409-0.46315-5e-5z"/>
    <path d="m-609.51 25.553c-2.7164 12.337-7.7682 21.07-13.267 27.35 2.2857-0.62659 4.8708-2.4033 7.3553-3.9622-1.5196 3.235-3.0572 6.0362-4.5768 8.8907 0.90717-0.30742 3.7976-3.1901 7.7076-7.417 0.61237 5.8116 1.4474 8.558 2.6851 12.499 0.98603-3.9342 1.7009-6.6209 2.4837-12.6 2.3567 2.6739 4.6284 5.3618 7.8173 7.6556l-4.4639-9.1964c2.3117 1.478 4.8844 3.4098 7.336 4.2346-5.8122-6.5936-10.731-15.115-13.077-27.454z"/>
   </g>
  </g>
  <g transform="matrix(-.33842 0 0 -.33842 243.14 161.72)" fill-rule="evenodd">
   <g transform="matrix(.67059 0 0 .67059 754.8 67.567)">
    <path d="m-677.03 9.8706c4.1751 5.1792-7.5 7.2403-1.2054 12.143 2.6846 1.6646 8.9556-1.9388 3.4465-6.3674-0.71182-0.37916 2.4779-2.9974-2.2411-5.7752z"/>
    <path d="m-670.07 22.15c-1.0445 0.09831-2.0511 0.74291-3.0015 2.3876-1.192 2.7574 4.0496 7.5398 7.577 1.6604 0.2496-0.71754 3.7508 1.5805 5.6878-3.2341-3.3206 3.4884-6.7169-0.67575-9.8003-0.81385-0.15082-0.0068-0.31395-0.01409-0.46315-5e-5z"/>
    <path d="m-682.98 22.199c-3.0834 0.13753-6.4805 4.3179-9.8004 0.82889 1.936 4.815 5.4748 2.5177 5.7243 3.2352 3.5263 5.8801 8.7317 1.0987 7.5403-1.659-1.0858-1.8799-2.2576-2.459-3.4642-2.4052z"/>
    <path d="m-676.03 25.553c-2.7164 12.337-7.7682 21.07-13.267 27.35 2.2857-0.62659 4.8708-2.4033 7.3553-3.9622-1.5196 3.235-3.0572 6.0362-4.5768 8.8907 0.90717-0.30742 3.7976-3.1901 7.7076-7.417 0.61237 5.8116 1.4474 8.558 2.6851 12.499 0.98603-3.9342 1.7009-6.6209 2.4837-12.6 2.3567 2.6739 4.6284 5.3618 7.8173 7.6556l-4.4639-9.1964c2.3117 1.478 4.8844 3.4098 7.336 4.2346-5.8122-6.5936-10.731-15.115-13.077-27.454z"/>
   </g>
   <g transform="matrix(.67059 0 0 .67059 753.77 67.567)">
    <path d="m-616.46 22.199c-3.0834 0.13753-6.4805 4.3179-9.8004 0.82889 1.936 4.815 5.4748 2.5177 5.7243 3.2352 3.5263 5.8801 8.7317 1.0987 7.5403-1.659-1.0858-1.8799-2.2576-2.459-3.4642-2.4052z"/>
    <path d="m-610.51 9.8706c4.1751 5.1792-7.5 7.2403-1.2054 12.143 2.6846 1.6646 8.9556-1.9388 3.4465-6.3674-0.71182-0.37916 2.4779-2.9974-2.2411-5.7752z"/>
    <path d="m-603.55 22.15c-1.0445 0.09831-2.0511 0.74291-3.0015 2.3876-1.192 2.7574 4.0496 7.5398 7.577 1.6604 0.2496-0.71754 3.7508 1.5805 5.6878-3.2341-3.3206 3.4884-6.7169-0.67575-9.8003-0.81385-0.15082-0.0068-0.31395-0.01409-0.46315-5e-5z"/>
    <path d="m-609.51 25.553c-2.7164 12.337-7.7682 21.07-13.267 27.35 2.2857-0.62659 4.8708-2.4033 7.3553-3.9622-1.5196 3.235-3.0572 6.0362-4.5768 8.8907 0.90717-0.30742 3.7976-3.1901 7.7076-7.417 0.61237 5.8116 1.4474 8.558 2.6851 12.499 0.98603-3.9342 1.7009-6.6209 2.4837-12.6 2.3567 2.6739 4.6284 5.3618 7.8173 7.6556l-4.4639-9.1964c2.3117 1.478 4.8844 3.4098 7.336 4.2346-5.8122-6.5936-10.731-15.115-13.077-27.454z"/>
   </g>
   <g transform="matrix(.67059 0 0 .67059 756.62 60.999)">
    <path d="m-549.77 19.664c4.1751 5.1792-7.5 7.2403-1.2054 12.143 2.6846 1.6646 8.9556-1.9388 3.4465-6.3674-0.71182-0.37916 2.4779-2.9974-2.2411-5.7752z"/>
    <path d="m-542.81 31.943c-1.0445 0.09831-2.0511 0.74291-3.0015 2.3876-1.192 2.7574 4.0496 7.5398 7.577 1.6604 0.2496-0.71754 3.7508 1.5805 5.6878-3.2341-3.3206 3.4884-6.7169-0.67575-9.8003-0.81385-0.15082-0.0068-0.31395-0.01409-0.46315-5e-5z"/>
    <path d="m-555.72 31.992c-3.0834 0.13753-6.4805 4.3179-9.8004 0.82889 1.936 4.815 5.4748 2.5177 5.7243 3.2352 3.5263 5.8801 8.7317 1.0987 7.5403-1.659-1.0858-1.8799-2.2576-2.459-3.4642-2.4052z"/>
    <path d="m-548.77 35.346c-2.7164 12.337-7.7682 21.07-13.267 27.35 2.2857-0.62659 4.8708-2.4033 7.3553-3.9622-1.5196 3.235-3.0572 6.0362-4.5768 8.8907 0.90717-0.30742 3.7976-3.1901 7.7076-7.417 0.61237 5.8116 1.4474 8.558 2.6851 12.499 0.98603-3.9342 1.7009-6.6209 2.4837-12.6 2.3567 2.6739 4.6284 5.3618 7.8173 7.6556l-4.4639-9.1964c2.3117 1.478 4.8844 3.4098 7.336 4.2346-5.8122-6.5936-10.731-15.115-13.077-27.454z"/>
   </g>
   <g transform="matrix(.67059 0 0 .67059 776.59 98.155)">
    <path d="m-677.03 9.8706c4.1751 5.1792-7.5 7.2403-1.2054 12.143 2.6846 1.6646 8.9556-1.9388 3.4465-6.3674-0.71182-0.37916 2.4779-2.9974-2.2411-5.7752z"/>
    <path d="m-670.07 22.15c-1.0445 0.09831-2.0511 0.74291-3.0015 2.3876-1.192 2.7574 4.0496 7.5398 7.577 1.6604 0.2496-0.71754 3.7508 1.5805 5.6878-3.2341-3.3206 3.4884-6.7169-0.67575-9.8003-0.81385-0.15082-0.0068-0.31395-0.01409-0.46315-5e-5z"/>
    <path d="m-682.98 22.199c-3.0834 0.13753-6.4805 4.3179-9.8004 0.82889 1.936 4.815 5.4748 2.5177 5.7243 3.2352 3.5263 5.8801 8.7317 1.0987 7.5403-1.659-1.0858-1.8799-2.2576-2.459-3.4642-2.4052z"/>
    <path d="m-676.03 25.553c-2.7164 12.337-7.7682 21.07-13.267 27.35 2.2857-0.62659 4.8708-2.4033 7.3553-3.9622-1.5196 3.235-3.0572 6.0362-4.5768 8.8907 0.90717-0.30742 3.7976-3.1901 7.7076-7.417 0.61237 5.8116 1.4474 8.558 2.6851 12.499 0.98603-3.9342 1.7009-6.6209 2.4837-12.6 2.3567 2.6739 4.6284 5.3618 7.8173 7.6556l-4.4639-9.1964c2.3117 1.478 4.8844 3.4098 7.336 4.2346-5.8122-6.5936-10.731-15.115-13.077-27.454z"/>
   </g>
   <g transform="matrix(.67059 0 0 .67059 775.56 98.155)">
    <path d="m-616.46 22.199c-3.0834 0.13753-6.4805 4.3179-9.8004 0.82889 1.936 4.815 5.4748 2.5177 5.7243 3.2352 3.5263 5.8801 8.7317 1.0987 7.5403-1.659-1.0858-1.8799-2.2576-2.459-3.4642-2.4052z"/>
    <path d="m-610.51 9.8706c4.1751 5.1792-7.5 7.2403-1.2054 12.143 2.6846 1.6646 8.9556-1.9388 3.4465-6.3674-0.71182-0.37916 2.4779-2.9974-2.2411-5.7752z"/>
    <path d="m-603.55 22.15c-1.0445 0.09831-2.0511 0.74291-3.0015 2.3876-1.192 2.7574 4.0496 7.5398 7.577 1.6604 0.2496-0.71754 3.7508 1.5805 5.6878-3.2341-3.3206 3.4884-6.7169-0.67575-9.8003-0.81385-0.15082-0.0068-0.31395-0.01409-0.46315-5e-5z"/>
    <path d="m-609.51 25.553c-2.7164 12.337-7.7682 21.07-13.267 27.35 2.2857-0.62659 4.8708-2.4033 7.3553-3.9622-1.5196 3.235-3.0572 6.0362-4.5768 8.8907 0.90717-0.30742 3.7976-3.1901 7.7076-7.417 0.61237 5.8116 1.4474 8.558 2.6851 12.499 0.98603-3.9342 1.7009-6.6209 2.4837-12.6 2.3567 2.6739 4.6284 5.3618 7.8173 7.6556l-4.4639-9.1964c2.3117 1.478 4.8844 3.4098 7.336 4.2346-5.8122-6.5936-10.731-15.115-13.077-27.454z"/>
   </g>
  </g>
  <rect x="105.75" y="85.722" width="41.391" height="130.88" clip-path="url(#clipPath14641)" fill="#fff" stroke-width=".12267"/>
  <path d="m105.97 213.67-1.8126-5.6931-0.50397-0.24767c-0.27719-0.13619-1.6462-0.80437-3.0423-1.4848-12.063-5.8789-21.778-15.923-27.365-28.292l-0.58972-1.3054-12.658-4.0374 0.0022-37.3 12.784-4.0613 0.30985-0.72524c2.7129-6.3498 7.4916-13.21 12.704-18.236 4.8422-4.6699 9.8383-8.0909 16.182-11.081 1.0366-0.48852 1.9384-0.97805 2.004-1.0878 0.0656-0.1098 0.99156-2.941 2.0576-6.2916l1.9382-6.092h37.332l4.1067 12.856 2.4658 1.2042c3.9169 1.9128 7.474 4.1701 11.04 7.0059 2.1934 1.7444 6.9461 6.5332 8.8193 8.8865 2.7875 3.5018 5.5259 7.9042 7.2582 11.669 0.43112 0.93687 0.81035 1.7299 0.84273 1.7623 0.05 0.05 9.6625 3.1398 12.182 3.9156l0.83401 0.25683v18.685c0 10.276-0.0286 18.684-0.0634 18.684-0.20521 0-12.766 4.0713-12.85 4.1649-0.056 0.0627-0.45323 0.8646-0.88275 1.782-4.1033 8.7642-10.055 16.145-17.635 21.869-3.301 2.4927-6.4905 4.4188-10.383 6.2701l-2.2871 1.0878-1.0012 3.1185c-0.55062 1.7152-1.3788 4.3097-1.8404 5.7656l-0.83928 2.6471h-37.296zm38.798-2.9254c1.0251-3.2244 1.9037-5.9226 1.9523-5.996 0.0486-0.0733 1.0674-0.57197 2.2641-1.1079 6.1035-2.7336 11.392-6.4573 16.325-11.494 4.6701-4.7685 8.2677-10.074 10.896-16.068 0.3175-0.7242 0.62131-1.3615 0.67514-1.4163 0.0538-0.0548 2.8066-0.96356 6.1173-2.0196 3.3107-1.056 6.2318-1.99 6.4914-2.0756l0.472-0.15555-0.0736-32.926-13.069-4.1789-0.26891-0.66643c-0.62167-1.5406-2.3154-4.8627-3.4086-6.6858-5.6768-9.4668-14.008-16.959-23.962-21.547-0.98417-0.45367-1.8124-0.84544-1.8405-0.87061-0.0281-0.0252-0.98407-2.9708-2.1244-6.5459l-2.0732-6.5002h-33.422l-2.0075 6.3095c-1.1041 3.4702-2.0599 6.3952-2.124 6.4999-0.0641 0.10471-0.60602 0.4035-1.2043 0.66399-10.113 4.4028-18.965 12.145-24.731 21.628-1.0009 1.6461-2.956 5.4544-3.5574 6.9292l-0.34144 0.83732-1.9663 0.62372c-1.0815 0.34304-4.0059 1.2717-6.4988 2.0636l-4.5325 1.4399-4.76e-4 33.386 4.6777 1.4926c2.5728 0.82092 5.5249 1.7638 6.5604 2.0954 1.5389 0.49277 1.9152 0.66816 2.0611 0.96083 0.09816 0.19691 0.66333 1.3697 1.2559 2.6062 1.7611 3.6748 3.985 7.1515 6.7897 10.614 1.7588 2.1716 5.7116 6.0978 7.8821 7.829 3.9018 3.1123 8.4114 5.8335 12.603 7.6052 0.78233 0.33067 1.039 0.517 1.1814 0.85759 0.10003 0.23932 0.98465 2.9644 1.9658 6.0557l1.7839 5.6205h33.389z"/>
 </g>
 <metadata>
  <rdf:RDF>
   <cc:Work rdf:about="">
    <dc:title>area-FR-mem</dc:title>
   </cc:Work>
  </rdf:RDF>
 </metadata>
</svg>
