<?xml version="1.0" encoding="UTF-8" standalone="no"?>
<svg
   xmlns:dc="http://purl.org/dc/elements/1.1/"
   xmlns:cc="http://creativecommons.org/ns#"
   xmlns:rdf="http://www.w3.org/1999/02/22-rdf-syntax-ns#"
   xmlns:svg="http://www.w3.org/2000/svg"
   xmlns="http://www.w3.org/2000/svg"
   width="123.80465mm"
   height="124.025mm"
   viewBox="0 0 123.80465 124.025"
   version="1.1"
   id="svg2155">
  <title
     id="title2744">Area-PL-34</title>
  <defs
     id="defs2149">
    <clipPath
       id="clipPath4771">
      <rect
         transform="scale(1,-1)"
         x="-559.35999"
         y="-127.14"
         width="1607.1"
         height="110.98"
         stop-color="#000000"
         style="fill:none;stroke:#0000ff;stroke-width:0.62427998;stroke-linejoin:round;paint-order:stroke fill markers"
         id="rect2994" />
    </clipPath>
  </defs>
  <metadata
     id="metadata2152">
    <rdf:RDF>
      <cc:Work
         rdf:about="">
        <dc:format>image/svg+xml</dc:format>
        <dc:type
           rdf:resource="http://purl.org/dc/dcmitype/StillImage" />
        <dc:title>Area-PL-34</dc:title>
      </cc:Work>
    </rdf:RDF>
  </metadata>
  <g
     id="layer1"
     transform="translate(-244.25839,-69.433926)">
    <path
       style="fill:#dc143c;fill-opacity:1;stroke:none;stroke-width:2.69410825;stroke-linecap:round;stroke-linejoin:miter;stroke-miterlimit:4;stroke-dasharray:none;stroke-opacity:1;paint-order:stroke fill markers"
       d="m 293.04204,182.85721 -0.84891,-0.0671 -0.34181,-1.11287 c -0.18799,-0.61208 -0.73545,-2.75317 -1.21658,-4.75796 l -0.87477,-3.64508 -2.24509,-1.18174 c -7.70832,-4.0574 -12.04593,-7.59768 -16.64399,-13.58452 -1.66536,-2.16835 -2.99186,-4.2661 -4.90913,-7.76339 -0.81082,-1.47901 -1.49799,-2.7146 -1.52705,-2.74578 -0.0291,-0.0312 -1.63135,-0.45277 -3.56063,-0.93689 -4.08211,-1.02433 -5.51161,-1.49446 -5.8232,-1.91512 -0.16474,-0.22239 -0.23491,-1.64482 -0.26356,-5.34267 -0.0532,-6.86277 0.0506,-21.49152 0.15519,-21.87333 0.11036,-0.40299 2.30212,-1.03498 8.28214,-2.38814 l 1.30379,-0.29502 1.34417,-2.65375 c 2.85776,-5.64195 5.92116,-9.76855 9.96781,-13.427317 3.57361,-3.231078 6.8283,-5.464093 11.9634,-8.207992 l 1.98274,-1.059461 0.59703,-2.44288 c 1.05252,-4.306653 1.72905,-6.491831 2.13576,-6.898544 0.37993,-0.379931 0.49556,-0.386405 8.14094,-0.455827 4.26554,-0.03873 10.36758,-0.01106 13.56008,0.06149 l 5.80453,0.131915 0.43948,1.461005 c 0.24171,0.803553 0.7289,2.673354 1.08263,4.155113 0.35373,1.481759 0.72166,2.986316 0.81763,3.34346 0.16353,0.608592 0.33509,0.733478 2.73347,1.989759 3.12653,1.637692 5.27221,2.957282 7.43723,4.573887 6.0722,4.534072 9.82938,9.052322 13.98113,16.813202 l 1.22705,2.29373 0.91283,0.25547 c 0.50205,0.1405 2.35822,0.62465 4.12482,1.07589 1.7666,0.45123 3.51663,0.99163 3.88895,1.20089 l 0.67694,0.38046 0.13226,2.62597 c 0.0727,1.44429 0.0911,7.54286 0.0407,13.55237 -0.0785,9.36744 -0.12979,10.96467 -0.35976,11.19465 -0.14754,0.14754 -2.32001,0.77617 -4.82773,1.39696 l -4.55947,1.12872 -0.51308,0.96757 c -3.99406,7.53201 -5.86266,10.20905 -10.08374,14.44645 -3.36862,3.38165 -6.83265,5.87923 -12.03369,8.67632 l -2.6941,1.44888 -0.97291,3.8801 c -0.5351,2.13405 -1.15208,4.2668 -1.37106,4.73945 -0.3763,0.8122 -0.44501,0.86578 -1.25234,0.97644 -0.87444,0.11985 -24.27634,0.10647 -25.81014,-0.0148 z"
       id="path2872" />
    <path
       style="fill:#dc143c;fill-opacity:1;stroke:#dc143c;stroke-width:2.6304121;stroke-linecap:round;stroke-linejoin:miter;stroke-miterlimit:4;stroke-dasharray:none;stroke-opacity:1;paint-order:stroke fill markers"
       d="m 293.14464,191.32463 c -1.73607,-0.0614 -3.16979,-0.12489 -3.18604,-0.14114 -0.21059,-0.21055 -1.74021,-6.08607 -2.77813,-10.67132 -0.064,-0.28281 -0.71817,-0.71434 -2.49747,-1.64752 -6.75337,-3.54191 -10.45403,-6.12789 -14.47974,-10.11828 -4.38693,-4.34843 -7.16086,-8.16361 -10.86566,-14.94427 l -1.67672,-3.06881 -4.55486,-1.1711 c -5.09219,-1.30925 -6.20354,-1.71229 -6.4969,-2.35617 -0.21286,-0.46717 -0.29475,-29.885 -0.0867,-31.14349 0.0973,-0.5884 0.18532,-0.67607 0.91871,-0.91477 0.94923,-0.30895 5.67918,-1.50107 8.35863,-2.10668 1.02612,-0.23192 1.88908,-0.4475 1.91769,-0.47907 0.0286,-0.0316 0.54426,-1.04378 1.14587,-2.24939 3.16322,-6.33895 6.06025,-10.482586 10.24171,-14.648774 4.68297,-4.665871 8.52915,-7.459697 15.18388,-11.029431 1.3985,-0.750185 2.60567,-1.422622 2.6826,-1.494304 0.0769,-0.07168 0.61045,-1.977069 1.18561,-4.234193 1.1997,-4.708076 1.61531,-6.031086 2.08794,-6.646595 l 0.33663,-0.438402 11.4524,-0.06074 c 6.29882,-0.03341 13.44511,-0.0048 15.88066,0.06365 l 4.42827,0.124395 0.43284,1.426915 c 0.23806,0.784804 0.86735,3.2419 1.39842,5.460214 0.7395,3.088971 1.0497,4.102329 1.3249,4.328131 0.19764,0.162158 1.56391,0.919483 3.03617,1.682945 3.37299,1.749115 5.70981,3.200955 8.4207,5.231677 7.09922,5.318006 11.58593,10.763532 16.42076,19.929912 0.59842,1.13453 1.22642,2.13685 1.39558,2.22738 0.16916,0.0905 1.88945,0.56153 3.82288,1.04665 4.56898,1.14644 6.24667,1.68498 6.84042,2.19576 l 0.48367,0.4161 -0.007,14.7016 c -0.004,8.08587 -0.0687,15.22678 -0.1437,15.86868 l -0.13645,1.16709 -1.96063,0.54141 c -1.07834,0.29778 -3.57111,0.92462 -5.53947,1.39298 l -3.57885,0.85156 -0.51599,1.03484 c -2.9737,5.9638 -5.52992,9.94558 -8.87793,13.82897 -4.89348,5.67602 -10.017,9.62101 -17.52623,13.49482 -1.53912,0.79399 -2.38614,1.33371 -2.47984,1.58015 -0.0783,0.20584 -0.55143,1.98484 -1.05149,3.95333 -1.14784,4.51854 -1.66289,6.14889 -2.08598,6.60302 -0.31385,0.33688 -0.60609,0.36718 -4.59204,0.47605 -4.97874,0.13599 -19.72447,0.0973 -24.27888,-0.0638 z m 26.47744,-7.73195 c 0.90398,-0.25096 1.68233,-1.08857 2.15198,-2.31585 0.20596,-0.53821 0.74854,-2.46258 1.20573,-4.27639 l 0.83126,-3.29783 2.28172,-1.22606 c 2.97711,-1.59971 6.93591,-4.2429 9.15537,-6.11282 4.49531,-3.78734 8.6332,-9.05342 11.60027,-14.76307 l 1.27089,-2.44562 3.46386,-0.84104 c 1.90511,-0.46257 3.97665,-1.01496 4.60341,-1.22752 1.01665,-0.3448 1.18688,-0.47161 1.57825,-1.17561 l 0.43868,-0.78913 V 131.29437 117.467 l -0.70145,-0.59387 c -0.38579,-0.32662 -1.04609,-0.75744 -1.46733,-0.95736 -0.90124,-0.42773 -7.3217,-2.10994 -7.62128,-1.99683 -0.11865,0.0448 -0.56924,-0.63787 -1.06616,-1.61531 -1.9954,-3.92494 -4.70358,-7.97581 -7.2952,-10.91207 -3.40945,-3.862845 -9.11662,-8.180975 -14.11497,-10.679608 -0.77158,-0.385709 -1.57163,-0.848362 -1.77787,-1.02812 -0.28579,-0.249095 -0.58467,-1.181868 -1.25661,-3.921727 -0.89043,-3.630807 -1.4067,-5.262911 -1.86156,-5.885077 -0.24267,-0.331929 -0.59834,-0.340232 -14.57395,-0.340232 h -14.32521 l -0.52011,0.613763 c -0.28605,0.33757 -0.67,0.902611 -0.85322,1.255648 -0.28029,0.540074 -1.76665,5.763358 -2.17469,7.642109 -0.10724,0.493789 -0.32236,0.675092 -1.64425,1.38575 -5.52963,2.972763 -9.34615,5.723975 -13.09364,9.438807 -3.34435,3.315197 -5.64485,6.479347 -8.34926,11.483727 -1.03138,1.90854 -1.5318,2.66607 -1.80085,2.72615 -3.05241,0.68166 -7.72036,1.95141 -8.26382,2.24788 -0.44568,0.24313 -0.82933,0.63843 -1.05217,1.0841 -0.34149,0.68299 -0.35072,1.05217 -0.35072,14.02887 v 13.32742 l 0.4185,0.8501 c 0.23271,0.4727 0.66089,0.99931 0.96448,1.18621 0.71405,0.43957 3.12083,1.19642 6.06986,1.90876 1.30205,0.31451 2.46126,0.66031 2.57601,0.76844 0.11476,0.10812 0.81821,1.30107 1.56324,2.65099 1.71578,3.10883 2.56326,4.43449 4.37257,6.83972 4.49536,5.97595 9.44718,10.06909 16.7403,13.83739 l 1.66576,0.8607 0.98358,3.97075 c 0.54096,2.18391 1.11987,4.25799 1.28647,4.60906 0.34933,0.73617 0.97559,1.20107 1.85093,1.37405 1.08368,0.21414 26.31129,0.18201 27.0912,-0.0345 z"
       id="path2874" />
    <path
       style="fill:none;fill-opacity:1;stroke:none;stroke-width:3.96875;stroke-linecap:round;stroke-linejoin:miter;stroke-miterlimit:4;stroke-dasharray:none;stroke-opacity:1;paint-order:stroke fill markers"
       d="m 256.09423,139.1346 c -0.10055,-1.45984 -0.0988,-6.76396 0.004,-11.78694 0.17169,-8.40164 0.22463,-9.15302 0.66129,-9.38672 0.26106,-0.13971 2.33411,-0.71754 4.60677,-1.28405 2.27267,-0.56651 4.16356,-1.07144 4.202,-1.12205 0.0384,-0.0506 0.6993,-1.28265 1.46861,-2.73786 2.33273,-4.41256 4.68188,-7.71232 7.73218,-10.86104 3.36247,-3.470976 6.74481,-6.057487 11.77806,-9.006818 l 3.65338,-2.140771 0.73476,-2.754021 c 1.3034,-4.885367 1.52625,-5.544198 2.05379,-6.071733 0.50127,-0.501278 0.95908,-0.518746 13.5951,-0.518746 h 13.07636 l 0.26803,0.859896 c 0.14742,0.472942 0.52307,1.812396 0.83477,2.976562 0.3117,1.164167 0.79317,2.895151 1.06993,3.846632 l 0.50321,1.729966 3.3789,1.918281 c 4.86192,2.760225 8.0057,5.081647 11.17799,8.254032 3.1701,3.1702 5.30038,6.05727 8.02883,10.88113 l 1.89916,3.35767 3.57187,0.98673 c 4.69706,1.29756 5.47083,1.61413 5.65886,2.31521 0.0851,0.31736 0.15638,5.66694 0.15836,11.88796 l 0.004,11.31093 h -49.96878 -49.96842 z"
       id="path2927" />
    <path
       style="fill:#ffffff;fill-opacity:1;stroke:none;stroke-width:4.11131859;stroke-linecap:round;stroke-linejoin:miter;stroke-miterlimit:4;stroke-dasharray:none;stroke-opacity:1;paint-order:stroke fill markers"
       d="m 254.66955,139.79981 c -0.10341,-1.52322 -0.10164,-7.05764 0.004,-12.29871 0.17658,-8.76644 0.23102,-9.55044 0.68012,-9.79428 0.2685,-0.14578 2.40059,-0.7487 4.73798,-1.33981 2.33739,-0.59111 4.28214,-1.11796 4.32167,-1.17077 0.0395,-0.0528 0.71922,-1.33834 1.51044,-2.85673 2.39917,-4.60415 4.81523,-8.04718 7.9524,-11.33262 3.45823,-3.621678 6.9369,-6.320492 12.1135,-9.397878 l 3.75744,-2.233721 0.75569,-2.873597 c 1.34051,-5.097484 1.56971,-5.784921 2.11227,-6.335361 0.51556,-0.523043 0.9864,-0.541269 13.98231,-0.541269 h 13.44877 l 0.27568,0.897231 c 0.15162,0.493477 0.53796,1.891088 0.85854,3.105801 0.32057,1.214714 0.81575,3.020856 1.1004,4.013649 l 0.51754,1.805078 3.47513,2.001571 c 5.0004,2.880071 8.23371,5.302287 11.49635,8.612406 3.26039,3.30785 5.45135,6.32028 8.2575,11.35358 l 1.95325,3.50346 3.6736,1.02958 c 4.83084,1.35389 5.62664,1.68421 5.82002,2.41573 0.0875,0.33114 0.16084,5.91299 0.16288,12.40411 l 0.004,11.80205 h -51.39181 -51.39156 z"
       id="path2931" />
    <path
       style="fill:#000000;fill-opacity:1;stroke:none;stroke-width:2.6304121;stroke-linecap:round;stroke-linejoin:miter;stroke-miterlimit:4;stroke-dasharray:none;stroke-opacity:1;paint-order:stroke fill markers"
       d="m 299.08967,69.434283 c -2.69897,0.0026 -4.8311,0.02002 -5.79356,0.05667 l -3.74612,0.142405 -0.59577,0.699431 c -0.9876,1.159031 -1.44607,2.377283 -2.59381,6.893559 l -1.09709,4.316224 -1.91423,1.025412 c -6.65596,3.565109 -11.12483,6.803476 -15.77983,11.434534 -4.05139,4.030567 -7.40737,8.797342 -10.39991,14.772332 -0.66378,1.32531 -1.00174,1.81846 -1.29327,1.88662 -3.2938,0.77008 -9.02466,2.24697 -9.57794,2.46835 -0.90577,0.36242 -1.7171,1.2739 -1.89922,2.13317 -0.0771,0.36374 -0.14046,7.64519 -0.14046,16.18087 0,16.74509 -0.0264,16.25539 0.93192,17.39423 0.80616,0.95807 2.6929,1.6202 9.1764,3.22155 l 1.86677,0.46112 1.10339,2.04356 c 6.78591,12.56367 13.77702,19.57978 25.72685,25.81936 1.4772,0.77132 2.17964,1.23596 2.23246,1.47636 0.59881,2.72567 2.24743,9.01516 2.54391,9.70436 0.48361,1.12417 1.22641,1.61785 2.69311,1.78975 0.58986,0.0691 7.93808,0.11536 16.32909,0.10269 17.03468,-0.0257 15.78994,0.0673 16.88951,-1.26663 0.71632,-0.86902 1.13328,-2.03295 2.16078,-6.0338 0.48301,-1.88075 0.95347,-3.711 1.04527,-4.06726 0.15562,-0.60398 0.3028,-0.71867 2.17724,-1.69142 7.14204,-3.70637 12.86169,-8.13773 17.57877,-13.61904 3.35582,-3.89952 5.33541,-6.83606 7.94997,-11.79394 l 1.46183,-2.77157 2.89993,-0.67327 c 4.62024,-1.07271 7.50771,-1.93606 7.98872,-2.38795 0.23455,-0.22035 0.56648,-0.76345 0.73769,-1.20705 0.2901,-0.75159 0.31097,-1.90994 0.31097,-17.00334 v -16.19734 l -0.78904,-0.70621 c -6.02709,-2.05854 0,0 -6.02709,-2.05854 -4.26045,-1.15817 -3.99239,-1.0955 -4.26045,-1.15817 -0.27332,-0.0654 -0.54753,-0.14659 -0.60934,-0.18067 -0.0618,-0.0341 -0.76613,-1.26601 -1.565,-2.73766 -3.6229,-6.67395 -6.13218,-10.169583 -10.2333,-14.255023 -4.54356,-4.52619 -9.89156,-8.330443 -15.90042,-11.310533 l -1.50591,-0.746415 -1.09031,-4.402926 c -0.59976,-2.421472 -1.34245,-5.073523 -1.65025,-5.893335 l -0.55945,-1.490407 -1.49089,-0.107531 c -1.99956,-0.144506 -15.19502,-0.270453 -23.29192,-0.262529 z m -8.59515,2.211151 h 14.68998 c 8.07925,0 15.28599,0.05073 16.01522,0.112374 1.15704,0.09781 1.33719,0.158926 1.4134,0.481949 0.39259,1.664082 2.57743,9.939279 2.7207,10.304495 0.14046,0.358035 0.83822,0.817282 3.04282,2.003356 5.31355,2.858694 8.61998,5.108363 12.44832,8.469217 4.62668,4.061709 7.94677,8.376485 11.90243,15.469335 2.20949,3.96183 1.7819,3.54151 4.25083,4.17915 4.76338,1.23022 7.78639,2.15262 8.41061,2.56571 l 0.65777,0.43496 v 12.85859 c 0,13.63562 -0.1094,18.54589 -0.42237,18.96891 -0.11415,0.1543 -2.37423,0.80168 -5.59641,1.60278 l -5.40557,1.34413 -0.88592,1.76843 c -3.29413,6.57545 -6.67517,11.37213 -11.27081,15.99004 -4.22206,4.24251 -7.91628,6.90957 -14.29667,10.32145 -1.20561,0.64469 -2.36586,1.34414 -2.57831,1.55434 -0.2834,0.28041 -0.64237,1.363 -1.34752,4.06484 -1.41642,5.42716 -1.78832,6.52054 -2.34338,6.88435 -0.43308,0.28387 -1.45597,0.30665 -14.32816,0.31872 -7.62376,0.007 -14.70781,-0.0154 -15.74252,-0.0499 l -1.8813,-0.063 -0.43642,-1.44051 c -0.23997,-0.79246 -0.87403,-3.21164 -1.40903,-5.37555 -0.53501,-2.1639 -1.09322,-4.06773 -1.24096,-4.23097 -0.14774,-0.16325 -1.27155,-0.83448 -2.49692,-1.49138 -6.83465,-3.66384 -10.34985,-6.16532 -14.51077,-10.32625 -4.13142,-4.13142 -6.85797,-7.91399 -10.58592,-14.68563 -0.88668,-1.61061 -1.74611,-2.96838 -1.90987,-3.01763 -0.16377,-0.0492 -1.99459,-0.53253 -4.06823,-1.07385 -4.2825,-1.11791 -6.07606,-1.69934 -6.47506,-2.09829 -0.24657,-0.24652 -0.28102,-1.96503 -0.32259,-16.01474 -0.0369,-12.48128 -7.4e-4,-15.79972 0.17534,-16.03169 0.26673,-0.35156 1.91552,-0.83415 7.12121,-2.08473 l 3.91807,-0.94161 1.2894,-2.54246 c 2.96546,-5.84782 5.6572,-9.73515 9.43602,-13.627279 5.13313,-5.287052 8.86707,-8.012935 16.98154,-12.396492 1.74724,-0.943886 1.49302,-0.46866 2.68632,-5.015171 1.12541,-4.287833 1.64174,-5.959302 2.04598,-6.61989 z m 1.75051,7.891362 -0.5362,0.650994 c -0.87501,1.061541 -1.08096,1.653926 -2.92802,8.417873 -0.23826,0.872511 -0.3083,0.948806 -1.51801,1.650735 -5.89082,3.418126 -8.23969,5.030859 -11.44955,7.861329 -3.8378,3.384193 -6.69948,7.011623 -9.63074,12.208073 -2.20987,3.91761 -1.93096,3.62478 -3.90112,4.09535 -2.97424,0.7104 -6.53742,1.75872 -6.99285,2.05712 -1.07506,0.70441 -1.02946,0.0844 -1.08354,14.78977 l -0.0494,13.41512 0.57543,0.96051 c 0.53009,0.8847 0.67399,0.99841 1.83092,1.44245 0.69071,0.26511 2.62409,0.84186 4.29636,1.28164 1.74308,0.45841 3.16462,0.92807 3.3315,1.10049 0.1601,0.16542 1.05719,1.64199 1.99319,3.28162 5.14831,9.01849 10.97839,14.72371 19.9609,19.53272 2.66262,1.42549 2.38995,1.08235 3.01424,3.7902 0.52444,2.27476 1.51308,5.77478 1.77376,6.27889 0.14837,0.28691 0.57177,0.64211 0.99248,0.83312 0.69998,0.31779 1.34925,0.33342 14.15136,0.33712 15.30022,0.004 14.17877,0.11819 15.18453,-1.5403 0.48176,-0.79442 1.11346,-2.87049 2.36615,-7.77899 0.15206,-0.59584 0.32045,-0.72905 2.29834,-1.81058 2.81021,-1.53664 6.63951,-4.0639 8.81989,-5.82116 4.54207,-3.66064 9.17621,-9.50091 12.18773,-15.35987 l 1.13972,-2.21745 1.92925,-0.46112 c 3.05031,-0.72895 6.43895,-1.66821 6.92407,-1.91907 0.24454,-0.12646 0.62151,-0.54427 0.83748,-0.92854 l 0.39234,-0.69846 v -13.76775 -13.76774 l -0.61612,-0.54056 c -0.33886,-0.29753 -0.87116,-0.67395 -1.18331,-0.83602 -0.65038,-0.33767 -4.50765,-1.46161 -6.55208,-1.90939 -0.75937,-0.16632 -1.47224,-0.3751 -1.58389,-0.46354 -0.11165,-0.0884 -0.81632,-1.28147 -1.56597,-2.65145 -1.58604,-2.89845 -3.69122,-6.0792 -5.56832,-8.41303 -3.32471,-4.133646 -9.10041,-8.729358 -14.736,-11.725634 -1.14532,-0.608931 -2.20307,-1.291106 -2.35017,-1.515595 -0.14709,-0.224488 -0.69249,-2.033832 -1.21189,-4.020759 -1.23386,-4.720102 -1.55662,-5.53634 -2.24748,-5.684086 -0.28918,-0.06184 -6.7735,-0.121792 -14.41002,-0.133202 z m 14.61733,1.780546 c 6.46565,0.0068 12.86293,0.06383 12.96369,0.164686 0.0571,0.05717 0.61281,2.103135 1.23466,4.546784 0.7311,2.872988 1.24155,4.550184 1.44487,4.746347 0.17295,0.166848 1.49825,0.947909 2.94498,1.735497 5.1144,2.784245 8.68737,5.438275 12.19305,9.056764 2.9538,3.04884 5.04933,6.01906 7.83954,11.11242 0.71328,1.30205 1.35225,2.42406 1.41968,2.49306 0.0674,0.069 1.50224,0.48587 3.18861,0.9266 3.8766,1.01313 5.69478,1.60992 5.99021,1.96605 0.18834,0.22703 0.2325,2.76578 0.2325,13.39914 0,11.43376 -0.0338,13.15052 -0.26301,13.36717 -0.35718,0.33755 -1.40918,0.65962 -5.51165,1.68706 -1.92209,0.48138 -3.55162,0.93601 -3.62116,1.0104 -0.0695,0.0744 -0.81538,1.39792 -1.658,2.9411 -3.08556,5.65092 -5.34738,8.70138 -9.24178,12.46575 -3.34848,3.23669 -6.21023,5.27182 -11.31344,8.04588 -2.33739,1.27059 -2.50504,1.39666 -2.65919,1.99609 -1.88054,7.31265 -2.18834,8.24749 -2.82049,8.56706 -0.34241,0.1731 -3.26053,0.21779 -13.32745,0.20392 -7.08896,-0.01 -13.01217,-0.0506 -13.16228,-0.0911 -0.27084,-0.0731 -1.07634,-2.78311 -1.92102,-6.46199 -0.71659,-3.12105 -0.38966,-2.69243 -3.20072,-4.19174 -5.2574,-2.80408 -8.45876,-5.0833 -11.7111,-8.33698 -3.5887,-3.59017 -5.63105,-6.3658 -8.75258,-11.89565 l -1.76649,-3.12952 -3.27968,-0.84377 c -1.80363,-0.46404 -3.75519,-0.9979 -4.33705,-1.18623 -1.83357,-0.59346 -1.70696,-0.0973 -1.8067,-7.09554 -0.0479,-3.35977 -0.0281,-9.33223 0.0446,-13.27223 l 0.13223,-7.16336 0.58028,-0.24266 c 0.82863,-0.34623 2.90807,-0.90929 6.04155,-1.63621 l 2.71829,-0.63065 0.67473,-1.31409 c 3.03548,-5.91118 5.15615,-9.02459 8.52588,-12.51565 3.37421,-3.4957 7.49866,-6.550466 12.71957,-9.421491 1.44673,-0.795568 2.65535,-1.46395 2.68583,-1.485564 0.0305,-0.02162 0.4039,-1.404416 0.83021,-3.07236 0.88573,-3.465385 1.02205,-3.932296 1.51463,-5.199233 0.32011,-0.823357 0.43094,-0.938736 1.06222,-1.108724 0.37268,-0.100351 6.90636,-0.143908 13.37202,-0.137076 z"
       id="path2876" />
    <path
       id="path3017"
       style="fill:#dc143c;fill-rule:evenodd;stroke:#ff0000;stroke-width:0.43900004;stroke-linejoin:round;paint-order:stroke fill markers"
       stop-color="#000000"
       d="m 343.64993,134.94167 a 37.615003,39.313003 0 0 0 -18.807,-34.046 37.615003,39.313003 0 0 0 -37.615,0 37.615003,39.313003 0 0 0 -18.80701,34.046 h 37.61501 z" />
    <path
       transform="matrix(0.069148,0,0,-0.50063003,288.87337,198.05584)"
       d="M 250,310 102.78,55 l 294.45,-8e-6 z"
       clip-path="url(#clipPath4771)"
       stop-color="#000000"
       style="fill:#ffffff;fill-rule:evenodd;paint-order:stroke fill markers"
       id="path3025" />
    <g
       id="g4995"
       transform="matrix(0.26458333,0,0,0.26458333,239.9253,69.264277)">
      <circle
         r="18.886761"
         id="circle3021"
         style="fill:#ffffff;fill-rule:evenodd;stroke-width:2.81086445;paint-order:stroke fill markers"
         stop-color="#000000"
         cy="217.02638"
         cx="136.91978" />
      <circle
         r="18.886761"
         id="circle3021-9"
         style="fill:#ffffff;fill-rule:evenodd;stroke-width:2.81086445;paint-order:stroke fill markers"
         stop-color="#000000"
         cy="217.02638"
         cx="363.75735" />
    </g>
    <circle
       cx="284.78717"
       cy="112.06175"
       stop-color="#000000"
       style="fill:#ffffff;fill-rule:evenodd;stroke-width:0.71325958;paint-order:stroke fill markers"
       id="circle3021-5"
       r="4.7925339" />
    <circle
       cx="327.53427"
       cy="112.06175"
       stop-color="#000000"
       style="fill:#ffffff;fill-rule:evenodd;stroke-width:0.71325958;paint-order:stroke fill markers"
       id="circle3021-4"
       r="4.7925339" />
    <g
       id="g4374"
       transform="matrix(0.26458333,0,0,0.26458333,241.07321,72.439277)">
      <circle
         r="17.395403"
         id="circle3021-7"
         style="fill:#ffffff;fill-rule:evenodd;stroke-width:2.58890986;paint-order:stroke fill markers"
         stop-color="#000000"
         cy="179.75424"
         cx="212" />
      <circle
         r="17.395403"
         id="circle3021-44"
         style="fill:#ffffff;fill-rule:evenodd;stroke-width:2.58890986;paint-order:stroke fill markers"
         stop-color="#000000"
         cy="179.75424"
         cx="280" />
    </g>
    <circle
       cx="306.16071"
       cy="103.33051"
       stop-color="#000000"
       style="fill:#ffffff;fill-rule:evenodd;stroke-width:0.92124563;paint-order:stroke fill markers"
       id="circle3021-8"
       r="6.1900339" />
    <g
       transform="translate(0.52916665)"
       id="text4803-0"
       style="font-style:normal;font-variant:normal;font-weight:normal;font-stretch:normal;font-size:41.98699188px;line-height:1.25;font-family:Arial;-inkscape-font-specification:Arial;font-variant-ligatures:normal;font-variant-caps:normal;font-variant-numeric:normal;font-feature-settings:normal;text-align:start;letter-spacing:0px;word-spacing:0px;writing-mode:lr-tb;text-anchor:start;fill:#ffffff;fill-opacity:1;stroke:#000000;stroke-width:2.24930501"
       aria-label="34">
      <path
         id="path842"
         style="font-style:normal;font-variant:normal;font-weight:900;font-stretch:normal;font-family:Arial;-inkscape-font-specification:'Arial Heavy';fill:#ffffff;stroke:#000000;stroke-width:2.24930501"
         d="m 285.84899,131.56138 -7.89306,-1.4146 q 0.98407,-3.77227 3.77226,-5.78141 2.8087,-2.00914 7.93407,-2.00914 5.88392,0 8.50811,2.19365 2.62418,2.19366 2.62418,5.5149 0,1.94763 -1.06607,3.52625 -1.06608,1.57861 -3.21873,2.76769 1.74262,0.43053 2.66519,1.00458 1.4966,0.92256 2.31666,2.43967 0.84056,1.49661 0.84056,3.58776 0,2.62418 -1.3736,5.04335 -1.37359,2.39868 -3.95678,3.71077 -2.58318,1.29159 -6.78598,1.29159 -4.10029,0 -6.47846,-0.96357 -2.35767,-0.96357 -3.89528,-2.8087 -1.51711,-1.86563 -2.33717,-4.67433 l 8.3441,-1.10708 q 0.49203,2.52168 1.51711,3.50575 1.04557,0.96357 2.64468,0.96357 1.68112,0 2.7882,-1.23009 1.12758,-1.23009 1.12758,-3.28023 0,-2.09115 -1.08657,-3.23923 -1.06608,-1.14809 -2.91121,-1.14809 -0.98407,0 -2.70619,0.49204 l 0.43053,-5.96593 q 0.69705,0.10251 1.08657,0.10251 1.64012,0 2.7267,-1.04557 1.10708,-1.04558 1.10708,-2.48068 0,-1.3736 -0.82006,-2.19366 -0.82006,-0.82005 -2.25516,-0.82005 -1.47611,0 -2.39867,0.90206 -0.92257,0.88156 -1.25059,3.11622 z" />
      <path
         id="path844"
         style="font-style:normal;font-variant:normal;font-weight:900;font-stretch:normal;font-family:Arial;-inkscape-font-specification:'Arial Heavy';fill:#ffffff;stroke:#000000;stroke-width:2.24930501"
         d="m 322.26461,147.3065 h -15.21208 v -6.86799 l 15.21208,-18.08228 h 7.27802 v 18.47181 h 3.77227 v 6.47846 h -3.77227 v 5.6174 h -7.27802 z m 0,-6.47846 v -9.45117 l -8.03657,9.45117 z" />
    </g>
  </g>
</svg>
