<?xml version="1.0" encoding="UTF-8"?>
<!-- Created with Inkscape (http://www.inkscape.org/) -->
<svg width="133.1mm" height="133.1mm" version="1.1" viewBox="0 0 133.1 133.1" xmlns="http://www.w3.org/2000/svg" xmlns:cc="http://creativecommons.org/ns#" xmlns:dc="http://purl.org/dc/elements/1.1/" xmlns:rdf="http://www.w3.org/1999/02/22-rdf-syntax-ns#" xmlns:xlink="http://www.w3.org/1999/xlink">
 <title>Area-PT9</title>
 <defs>
  <g id="star" transform="scale(168.75)">
   <!-- =3/4 of 225 --></g>
  <g transform="scale(168.75)">
   <!-- =3/4 of 225 -->
   <!-- =3/4 of 225 -->
   <!-- =3/4 of 225 -->
   <!-- =3/4 of 225 -->
   <!-- =3/4 of 225 -->
   <!-- =3/4 of 225 --></g>
  <g id="s"></g>
  <clipPath id="b-8">
   <path d="m-224 0h448v400h-448z"/>
  </clipPath>
  <clipPath id="o3-0">
   <circle cx="-199" cy="-118" r="324.5"/>
  </clipPath>
  <clipPath id="o2-8">
   <circle cx="-212" cy="-100" r="324.5"/>
  </clipPath>
  <clipPath id="o1-8">
   <circle cy="-38" r="576"/>
  </clipPath>
  <clipPath id="o6-9">
   <circle cx="-182" cy="-96" r="324.5"/>
  </clipPath>
  <clipPath id="o7-7">
   <circle cx="-213" cy="-91" r="324.5"/>
  </clipPath>
  <clipPath id="o8-1">
   <circle cx="-234" cy="-64" r="324.5"/>
  </clipPath>
  <g id="s-1">
   <g id="B-5">
    <path id="A-6" transform="translate(0-1) rotate(18)" d="M0 0v1h.5z" fill="#ffde23"/>
    <use transform="scale(-1 1)" xlink:href="#A-6"/>
   </g>
   <g id="C-7">
    <use transform="rotate(72)" xlink:href="#B-5"/>
    <use transform="rotate(216)" xlink:href="#B-5"/>
   </g>
   <use transform="rotate(72)" xlink:href="#C-7"/>
  </g>
 </defs>
 <metadata>
  <rdf:RDF>
   <cc:Work rdf:about="">
    <dc:format>image/svg+xml</dc:format>
    <dc:type rdf:resource="http://purl.org/dc/dcmitype/StillImage"/>
    <dc:title>Area-PT9</dc:title>
   </cc:Work>
  </rdf:RDF>
 </metadata>
 <g transform="translate(-57.427 -70.189)">
  <g transform="translate(.18899 .37798)">
   <circle cx="123.79" cy="136.34" r="60.665" fill="#fff" fill-rule="evenodd" stop-color="#000000"/>
   <circle cx="123.79" cy="136.36" r="51.405" fill="#0f7562" stop-color="#000000"/>
   <g transform="matrix(.048785 0 0 .048785 123.79 137.29)" clip-path="url(#b-8)" fill="#fff">
    <circle cx="-209" cy="-7" r="324.5"/>
    <circle cx="209" cy="-7" r="324.5"/>
   </g>
   <circle cx="134.71" cy="135.39" r="15.831" fill="#0f7562" stroke-width=".048785"/>
   <circle cx="112.86" cy="135.39" r="15.831" fill="#0f7562" stroke-width=".048785"/>
   <g transform="matrix(.048785 0 0 .048785 123.79 137.29)" clip-path="url(#o1-8)" fill="#fff">
    <path d="m-500 285.5h291v32h-291zm0 65h1e3v16h-1e3zm0 49h1e3v25h-1e3zm0 50h1e3v32h-1e3zm0 48h1e3v50h-1e3zm1e3 -212h-291v32h291z"/>
   </g>
   <circle transform="matrix(.048785 0 0 .048785 123.79 137.29)" cx="199" cy="-118" r="324.5" clip-path="url(#o3-0)" fill="#0f7562"/>
   <circle cx="123.79" cy="120.41" r="6.342" fill="#0f7562" stroke-width=".048785"/>
   <circle transform="matrix(.048785 0 0 .048785 123.79 137.29)" cx="212" cy="-100" r="324.5" clip-path="url(#o2-8)" fill="#fff"/>
   <g id="h" transform="matrix(.048785 0 0 .048785 123.79 137.29)">
    <circle cx="-379" cy="307" r="381.5" clip-path="url(#o8-1)" fill="#fff"/>
    <circle cx="-370" cy="343" r="381.5" clip-path="url(#o7-7)" fill="#0f7562"/>
    <circle cx="-485" cy="21" r="130" fill="#0f7562"/>
    <g clip-path="url(#o8-1)" fill="#fff">
     <circle cx="-339" cy="372" r="381.5" clip-path="url(#o6-9)"/>
     <path d="m-100 50 60 50h50v100h-60z"/>
    </g>
    <use transform="matrix(59.798 -41.871 41.871 59.798 -260.69 -410.3)" width="100%" height="100%" xlink:href="#s-1"/>
    <use transform="matrix(30.851 -66.16 66.16 30.851 -411.92 -230.08)" width="100%" height="100%" xlink:href="#s-1"/>
   </g>
   <use transform="matrix(-1 0 0 1 247.57 2.7248e-6)" width="100%" height="100%" xlink:href="#h"/>
   <use transform="matrix(5.1468 0 0 5.1468 123.79 114.86)" width="100%" height="100%" xlink:href="#s-1"/>
   <g transform="translate(-.14267 -.19596)">
    <g transform="translate(.18899 .37798)">
     <g transform="matrix(.99914 0 0 .9981 .049238 .13294)" fill-rule="evenodd">
      <path d="m120.17 202.4c-24.78-1.171-47.435-17.015-57.277-40.059-2.1025-4.9225-3.5025-9.6436-4.4737-15.086-0.8132-4.5573-1.0133-14.198-0.39544-19.052 3.2625-25.633 20.726-46.787 45.353-54.94 10.801-3.5758 23.562-4.173 34.928-1.6344 20.531 4.5859 38.106 19.216 46.394 38.62 2.4558 5.7496 4.313 12.757 4.9601 18.716 0.36382 3.3503 0.36396 11.294 2.3e-4 14.646-2.2935 21.138-15.364 40.594-34.119 50.79-11.032 5.9974-22.558 8.604-35.37 7.9985zm10.813-5.7312c10.725-1.2546 20.596-5.1987 29.44-11.763 3.2755-2.4314 9.5556-8.7115 11.987-11.987 8.0427-10.835 12.165-23.247 12.165-36.63 0-16.028-5.9414-30.761-17.024-42.214-9.1968-9.5041-20.475-15.496-33.426-17.759-4.2455-0.74187-12.072-1.0119-16.395-0.56566-13.807 1.4253-26.25 7.2016-36.15 16.781-9.5041 9.1968-15.496 20.475-17.759 33.426-0.74187 4.2455-1.0119 12.072-0.56566 16.395 1.1521 11.16 5.1788 21.485 11.921 30.566 2.432 3.2755 8.712 9.5555 11.988 11.987 12.73 9.4514 28.164 13.594 43.82 11.763z" stop-color="#000000"/>
      <path d="m116.71 191.04c-15.997-2.151-30.131-11.028-39.101-24.557-2.1061-3.1765-4.961-9.0338-6.1507-12.619-7.9441-23.941 1.0239-49.778 22.133-63.767 3.1783-2.1063 9.0356-4.9608 12.619-6.15 23.947-7.9461 49.763 1.0149 63.766 22.133 2.125 3.2048 4.9634 9.0415 6.1845 12.717 3.9079 11.764 3.6981 25.157-0.57318 36.594-7.255 19.427-24.61 33.122-45.237 35.699-3.7888 0.47326-9.9179 0.45094-13.641-0.0497zm3.7418-12.004c0-4.8035-0.0789-6.3112-0.33409-6.3825-0.18375-0.0513-1.2963-0.23675-2.4722-0.41217-2.9009-0.43269-8.0619-2.1793-10.824-3.6632-10.385-5.5786-17.789-16.088-19.18-27.224l-0.19948-1.598-12.773-0.1435 0.16971 2.0077c0.09334 1.1042 0.42467 3.2413 0.73628 4.749 3.3403 16.162 14.818 29.734 30.31 35.842 3.833 1.5112 10.391 3.0354 13.297 3.0903l1.2695 0.024zm13.429 5.464c19.03-3.9224 34.193-19.086 38.13-38.131 0.31161-1.5077 0.64275-3.6425 0.73586-4.744l0.1693-2.0028h-6.3284c-4.8348 0-6.3504 0.0788-6.4217 0.33409-0.0513 0.18375-0.23676 1.2963-0.41217 2.4722-0.43269 2.9009-2.1793 8.0619-3.6632 10.824-4.5208 8.416-11.896 14.658-20.804 17.608-1.764 0.5841-4.1694 1.2055-5.3454 1.3809-1.176 0.17542-2.2885 0.36089-2.4722 0.41217-0.25524 0.0712-0.33409 1.5868-0.33409 6.4217v6.3284l2.0028-0.1693c1.1015-0.0931 3.2364-0.42356 4.744-0.73431zm-4.4731-21.469c2.4912-0.52992 4.5849-1.2747 6.9031-2.4557 2.6162-1.3328 3.9418-2.281 6.2369-4.4611 9.3951-8.9244 11.269-22.584 4.6641-33.994-1.7083-2.951-6.3173-7.5623-9.2534-9.258-9.0486-5.2259-19.287-5.2258-28.33 5.3e-4 -2.946 1.7026-7.5515 6.3081-9.2541 9.2541-6.2351 10.788-4.9135 23.817 3.3081 32.612 4.7982 5.133 9.9468 7.7285 17.438 8.7908 1.4569 0.20659 6.3864-0.0837 8.2873-0.48809zm-41.766-31.823c0.48223-3.8632 2.2436-9.103 4.2844-12.745 5.4617-9.748 16.049-16.992 26.794-18.333l1.598-0.19948 0.0717-6.3467 0.0716-6.3467h-1.0474c-3.3988 0-10.734 1.8632-15.428 3.9187-5.7405 2.514-10.183 5.5928-14.955 10.365-4.7718 4.7719-7.8506 9.214-10.365 14.955-2.0556 4.6936-3.9187 12.029-3.9187 15.428v1.0474l12.693-0.1434zm85.104-0.27116c-0.0931-1.1015-0.42425-3.2364-0.73586-4.744-4.0657-19.671-19.951-35.028-39.758-38.435-1.6683-0.28694-3.5046-0.5217-4.0807-0.5217h-1.0474l0.1434 12.693 1.598 0.19948c11.168 1.394 21.63 8.7647 27.224 19.18 1.4839 2.7626 3.2305 7.9236 3.6632 10.824 0.17541 1.176 0.36089 2.2885 0.41217 2.4722 0.0712 0.25524 1.5868 0.33409 6.4217 0.33409h6.3284z" stop-color="#000000"/>
     </g>
    </g>
   </g>
   <g stroke="#fff" aria-label="9">
    <path d="m125.68 150.88c7.4676 0 9.7197-3.2794 9.7197-8.0998v-12.96c0-4.8204-2.1336-7.9812-11.853-7.9812-9.0876 0-11.379 3.1609-11.379 7.9812v3.7931c0 4.7018 2.1336 7.112 9.2851 7.112 2.0941 0 3.7536-0.19755 5.0179-0.59266v0.86924c0 1.936-0.55315 2.3707-2.4892 2.3707h-7.3886c-0.98778 0-1.4224 0.43462-1.4224 1.4224v4.6623c0 0.98778 0.39511 1.4224 1.4224 1.4224zm0.79022-18.096c0 0.79023-0.3556 1.4224-2.6472 1.4224-2.3707 0-2.7263-0.63217-2.7263-1.4224v-2.3312c0-0.82973 0.3556-1.4619 2.7263-1.4619 2.2916 0 2.6472 0.63218 2.6472 1.4619z"/>
   </g>
  </g>
 </g>
</svg>
