<?xml version="1.0" encoding="UTF-8" standalone="no"?>
<!-- Created with Inkscape (http://www.inkscape.org/) -->

<svg
   width="133.09781mm"
   height="133.09781mm"
   viewBox="0 0 133.09781 133.09781"
   version="1.1"
   id="svg9950"
   inkscape:version="1.3.2 (091e20e, 2023-11-25, custom)"
   sodipodi:docname="41 var 1.svg"
   inkscape:export-filename="41 var 1 exported.png"
   inkscape:export-xdpi="99.235291"
   inkscape:export-ydpi="99.235291"
   xml:space="preserve"
   xmlns:inkscape="http://www.inkscape.org/namespaces/inkscape"
   xmlns:sodipodi="http://sodipodi.sourceforge.net/DTD/sodipodi-0.dtd"
   xmlns="http://www.w3.org/2000/svg"
   xmlns:svg="http://www.w3.org/2000/svg"
   xmlns:rdf="http://www.w3.org/1999/02/22-rdf-syntax-ns#"
   xmlns:cc="http://creativecommons.org/ns#"
   xmlns:dc="http://purl.org/dc/elements/1.1/"><defs
     id="defs9944"><rect
       x="235.35714"
       y="181.96429"
       width="33.928571"
       height="22.5"
       id="rect137" /><rect
       x="208.09142"
       y="176.7767"
       width="89.903576"
       height="55.55839"
       id="rect136" /><inkscape:path-effect
       effect="interpolate_points"
       id="path-effect41"
       is_visible="true"
       lpeversion="1"
       interpolator_type="Linear" /><inkscape:path-effect
       effect="rough_hatches"
       id="path-effect40"
       is_visible="true"
       lpeversion="1.2"
       direction="41.925652,108.24168 , 13.964832,0"
       dist_rdm="0;1"
       growth="0"
       do_bend="false"
       bender="29.363984,111.68279 , 5.9354433,-1.4210855e-14"
       bottom_edge_variation="1.5100727;1"
       top_edge_variation="1.51;1"
       bottom_tgt_variation="0;1"
       top_tgt_variation="0;1"
       scale_bf="1"
       scale_bb="1"
       scale_tf="1"
       scale_tb="1"
       top_smth_variation="0;1"
       bottom_smth_variation="0;1"
       fat_output="true"
       stroke_width_top="3.3"
       stroke_width_bottom="1.8"
       front_thickness="1.6"
       back_thickness="1.1" /></defs><sodipodi:namedview
     id="base"
     pagecolor="#ffffff"
     bordercolor="#666666"
     borderopacity="1.0"
     inkscape:pageopacity="0.0"
     inkscape:pageshadow="2"
     inkscape:zoom="1"
     inkscape:cx="63"
     inkscape:cy="155.5"
     inkscape:document-units="mm"
     inkscape:current-layer="layer2"
     showgrid="false"
     fit-margin-top="0"
     fit-margin-left="0"
     fit-margin-right="0"
     fit-margin-bottom="0"
     inkscape:window-width="1920"
     inkscape:window-height="986"
     inkscape:window-x="-11"
     inkscape:window-y="-11"
     inkscape:window-maximized="1"
     inkscape:pagecheckerboard="0"
     inkscape:showpageshadow="2"
     inkscape:deskcolor="#d1d1d1"
     showguides="true" /><metadata
     id="metadata9947"><rdf:RDF><cc:Work
         rdf:about=""><dc:format>image/svg+xml</dc:format><dc:type
           rdf:resource="http://purl.org/dc/dcmitype/StillImage" /></cc:Work></rdf:RDF></metadata><g
     inkscape:label="Layer 1"
     inkscape:groupmode="layer"
     id="layer1"
     transform="translate(-57.427285,-70.189195)"><path
       style="fill:#ffffff;fill-opacity:0.992157;fill-rule:evenodd;stroke-width:5.39933"
       d="m 225.71429,459.2571 c -43.8651,-6.08836 -84.33307,-25.03594 -116.1937,-54.40325 -9.14045,-8.42515 -10.775607,-10.55168 -8.91441,-11.59326 1.73824,-0.97277 4.76834,0.97876 12.76489,8.22121 30.82041,27.91393 66.48187,45.22546 105.89414,51.40532 19.13798,3.00085 56.72755,2.26021 73.59193,-1.44999 36.42253,-8.01305 68.67785,-24.75315 94.50433,-49.04655 8.9563,-8.42466 11.72173,-10.27783 14.17523,-9.49912 2.89806,0.91981 2.777,1.24956 -2.45856,6.69689 -9.413,9.79373 -27.70791,23.92585 -41.17711,31.80775 -21.7032,12.70026 -43.49113,20.95253 -68.00663,25.75779 -14.07113,2.75808 -50.79207,3.96143 -64.18011,2.10321 z"
       id="path940"
       transform="matrix(0.26458333,0,0,0.26458333,57.427285,70.189195)" /><path
       style="fill:#ffffff;fill-opacity:0.992157;fill-rule:evenodd;stroke-width:5.39933"
       d="m 447.25337,312.9903 c -1.28714,-1.5509 -1.01948,-4.56761 1.17244,-13.21429 6.5933,-26.0092 7.56028,-61.93535 2.33946,-86.91887 -16.02194,-76.67087 -70.56395,-135.233263 -145.3018,-156.012234 -7.10703,-1.975931 -8.32061,-2.800078 -8.32061,-5.65055 0,-4.368681 1.28832,-4.265419 18.94503,1.518489 52.67255,17.254246 97.83719,56.125145 122.72375,105.622055 7.69753,15.30962 16.16245,41.41424 19.0696,58.80796 4.49327,26.88357 2.61782,63.86171 -4.5465,89.64285 -2.3854,8.58396 -3.31745,9.5349 -6.08137,6.20459 z"
       id="path979"
       transform="matrix(0.26458333,0,0,0.26458333,57.427285,70.189195)" /><path
       style="fill:#ffffff;fill-opacity:0.992157;fill-rule:evenodd;stroke-width:5.39933"
       d="m 48.850869,303.21429 c -5.142043,-20.69395 -6.401492,-34.08242 -5.587025,-59.39238 0.592614,-18.41575 1.578907,-27.26207 4.346045,-38.9808 16.975865,-71.8921 69.497841,-129.308841 139.159371,-152.128265 17.67411,-5.789613 18.94503,-5.889991 18.94503,-1.496303 0,2.941916 -1.19835,3.677878 -9.64286,5.922134 C 133.54372,73.756357 80.70944,123.38011 59.374383,185.52919 47.03141,221.4843 45.122289,265.09001 54.324767,300.86611 c 1.942799,7.55293 2.25942,10.94286 1.147239,12.28296 -2.766632,3.33359 -3.655671,1.99962 -6.621137,-9.93478 z"
       id="path1135"
       transform="matrix(0.26458333,0,0,0.26458333,57.427285,70.189195)" /><path
       style="opacity:1;fill:#7b16a5;fill-rule:nonzero;stroke:none;stroke-width:0.767392;stroke-linecap:round;paint-order:stroke fill markers;fill-opacity:1"
       d="m 117.10249,189.1116 c -11.79995,-1.63845 -22.399423,-7.05536 -30.860559,-15.77143 -1.755869,-1.80877 -3.290834,-3.28868 -3.411034,-3.28868 -0.120197,0 -1.486344,0.73095 -3.035879,1.62432 -1.549534,0.89337 -2.873861,1.62431 -2.94295,1.62431 -0.493078,0 -7.518533,-11.89852 -7.518533,-12.73361 0,-0.0926 1.324831,-0.94731 2.944069,-1.89938 1.619238,-0.95207 2.970661,-1.74953 3.003163,-1.77212 0.0325,-0.0226 -0.452996,-1.60566 -1.078883,-3.51794 -1.919069,-5.86335 -2.566714,-10.93193 -2.324421,-18.19131 0.165652,-4.96312 0.433109,-7.19438 1.223732,-10.20898 3.291828,-12.55157 9.813836,-22.31214 20.01244,-29.949797 5.513108,-4.128726 14.015845,-7.879183 20.583975,-9.079346 l 2.74103,-0.500855 V 81.717076 77.98737 l 2.49604,-0.260888 c 3.15569,-0.329835 7.64031,-0.328866 10.39695,0.0022 l 2.13192,0.256073 v 3.801182 c 0,3.45709 0.0695,3.801182 0.7677,3.801182 1.61703,0 8.68223,2.083506 12.1827,3.592643 13.96967,6.022654 24.53855,17.611308 29.26124,32.084618 3.26804,10.01536 3.28022,21.72884 0.0331,31.82616 -0.65932,2.05024 -1.16029,3.75451 -1.11327,3.78726 0.047,0.0327 1.41033,0.82545 3.02957,1.76156 1.61924,0.93611 2.94407,1.78989 2.94407,1.89729 0,0.6027 -3.24528,6.53886 -5.14784,9.41626 l -2.21711,3.35313 -3.1475,-1.70576 -3.1475,-1.70575 -2.99636,3.15439 c -7.13386,7.51011 -16.39898,12.82691 -26.349,15.12041 -4.91519,1.13297 -13.81555,1.58723 -18.46086,0.94222 z"
       id="path1016" /><path
       style="opacity:1;fill:#ffffff;fill-rule:evenodd;stroke:none;stroke-width:2.69966;stroke-linecap:round;paint-order:stroke fill markers"
       d="m 50.053792,307.59263 c -5.392728,-18.15929 -7.105661,-31.76137 -7.072827,-56.16406 0.03617,-26.88073 2.018252,-40.25574 9.413164,-63.51959 10.293671,-32.38315 26.230972,-58.14278 51.799441,-83.724 25.93472,-25.947651 50.55744,-41.143227 84.0378,-51.862792 16.76253,-5.36694 18.1972,-5.459961 18.1972,-1.179871 0,2.935277 -1.48177,3.701657 -13.91236,7.195517 C 164.08313,66.329517 135.12587,82.95862 112.4167,104.33608 58.988454,154.63119 36.531703,229.7498 54.096103,299.4205 c 3.088807,12.25201 3.124176,12.96267 0.709447,14.255 -2.192327,1.1733 -2.845045,0.33773 -4.751758,-6.08287 z"
       id="path1055"
       transform="matrix(0.26458333,0,0,0.26458333,57.427285,70.189195)" /><path
       style="opacity:1;fill:#ffffff;fill-rule:evenodd;stroke:none;stroke-width:2.69966;stroke-linecap:round;paint-order:stroke fill markers"
       d="m 447.65941,313.48917 c -2.05934,-1.15247 -1.9604,-2.59591 1.02428,-14.94181 21.98318,-90.93235 -21.98642,-185.3543 -105.9559,-227.533637 -11.26985,-5.66104 -27.29251,-11.686703 -38.79922,-14.591274 -5.14777,-1.299422 -6.07143,-2.084794 -6.07143,-5.162448 0,-3.350458 0.35739,-3.55197 4.64286,-2.617837 36.5734,7.97216 79.5238,34.289062 106.28222,65.122056 44.96112,51.80746 61.74205,120.06732 46.04434,187.29464 -1.60372,6.86808 -3.35949,12.76161 -3.90172,13.09673 -0.54223,0.33511 -2.01165,0.0353 -3.26543,-0.66642 z"
       id="path1094"
       transform="matrix(0.26458333,0,0,0.26458333,57.427285,70.189195)" /><path
       inkscape:connector-curvature="0"
       style="color:#000000;font-style:normal;font-variant:normal;font-weight:normal;font-stretch:normal;font-size:medium;line-height:normal;font-family:sans-serif;font-variant-ligatures:normal;font-variant-position:normal;font-variant-caps:normal;font-variant-numeric:normal;font-variant-alternates:normal;font-feature-settings:normal;text-indent:0;text-align:start;text-decoration:none;text-decoration-line:none;text-decoration-style:solid;text-decoration-color:#000000;letter-spacing:normal;word-spacing:normal;text-transform:none;writing-mode:lr-tb;direction:ltr;text-orientation:mixed;dominant-baseline:auto;baseline-shift:baseline;text-anchor:start;white-space:normal;shape-padding:0;clip-rule:nonzero;display:inline;overflow:visible;visibility:visible;opacity:1;isolation:auto;mix-blend-mode:normal;color-interpolation:sRGB;color-interpolation-filters:linearRGB;solid-color:#000000;solid-opacity:1;vector-effect:none;fill:#000000;fill-opacity:1;fill-rule:nonzero;stroke:none;stroke-width:10.99190521;stroke-linecap:round;stroke-linejoin:bevel;stroke-miterlimit:4;stroke-dasharray:none;stroke-dashoffset:341.41040039;stroke-opacity:1;paint-order:markers stroke fill;color-rendering:auto;image-rendering:auto;shape-rendering:auto;text-rendering:auto;enable-background:accumulate"
       d="m 123.97619,70.189195 c -36.688665,0 -66.548905,29.860245 -66.548905,66.548905 0,36.68866 29.86024,66.5489 66.548905,66.5489 36.68866,0 66.54891,-29.86024 66.54891,-66.5489 0,-36.68866 -29.86025,-66.548905 -66.54891,-66.548905 z m 0,10.992088 c 2.44856,0 4.85859,0.158935 7.2223,0.464053 V 88.5798 l 1.91048,0.363273 c 5.08542,0.966179 9.95,2.727219 14.49575,5.248275 v -0.0026 c 4.83918,2.68404 9.16414,6.149842 12.85555,10.298592 3.90123,4.38481 6.9459,9.35842 9.05473,14.79703 v 0.003 h 0.003 c 2.18728,5.63467 3.29491,11.57264 3.29491,17.67798 0,5.59517 -0.93308,11.05347 -2.76728,16.25587 l -0.64648,1.83554 5.77072,3.35122 c -1.89585,4.48836 -4.36586,8.67142 -7.31533,12.46177 l -5.73712,-3.32849 -1.27537,1.4609 c -4.15132,4.76486 -9.28479,8.77808 -14.87454,11.6055 l -0.003,0.003 c -3.34703,1.69637 -6.89134,3.00151 -10.5296,3.87522 -3.74782,0.90103 -7.62224,1.36477 -11.5135,1.36477 -3.88673,0 -7.76044,-0.45892 -11.49802,-1.35909 h -0.003 c -3.63763,-0.87357 -7.17537,-2.17768 -10.52545,-3.86902 -5.584398,-2.82155 -10.718452,-6.82218 -14.861113,-11.5781 l -1.273836,-1.46296 -5.663221,3.2887 c -2.949672,-3.79056 -5.418949,-7.97347 -7.314715,-12.46162 l 5.692669,-3.3042 -0.652674,-1.83761 c -1.84703,-5.21475 -2.784819,-10.69321 -2.784819,-16.30082 0,-6.11251 1.107017,-12.05711 3.300571,-17.69761 h 0.0026 v -0.003 c 2.115397,-5.45176 5.165011,-10.42598 9.08005,-14.8182 3.704246,-4.15499 8.03537,-7.611691 12.888618,-10.296524 4.5516,-2.514177 9.42978,-4.266724 14.52936,-5.226553 l 1.9141,-0.361738 v -6.916943 c 2.36373,-0.305117 4.7743,-0.464052 7.22286,-0.464052 z m -11.92176,1.279499 v 2.365242 c -4.88503,1.108922 -9.6126,2.778919 -14.015694,5.211048 l -0.0026,0.0026 c -5.313469,2.93923 -10.068798,6.733249 -14.123168,11.280958 -4.281725,4.80357 -7.63516,10.27152 -9.953387,16.24605 -2.403924,6.18207 -3.623045,12.71728 -3.623045,19.3988 0,5.46135 0.945753,10.79683 2.554896,15.9453 l -1.768898,1.0268 c -1.75305,-5.413 -2.703698,-11.19182 -2.703698,-17.19895 0,-26.65362 18.642753,-48.839966 43.635054,-54.277312 z m 23.84351,0 c 24.99218,5.437425 43.63456,27.623798 43.63456,54.277318 0,6.00749 -0.95046,11.78668 -2.70373,17.19998 l -1.85467,-1.07694 c 1.59697,-5.13302 2.5368,-10.44924 2.5368,-15.89619 0,-6.67496 -1.21674,-13.20287 -3.61321,-19.37711 v -0.003 c -2.31111,-5.95968 -5.65766,-11.42595 -9.9255,-16.22279 -4.04016,-4.5407 -8.78721,-8.342895 -14.08803,-11.283025 -4.39656,-2.43832 -9.11238,-4.11472 -13.98622,-5.230177 z m 27.04487,90.992378 1.81797,1.05524 c -10.1382,10.94574 -24.64144,17.78651 -40.78459,17.78651 -16.14342,0 -30.646905,-6.84096 -40.785103,-17.78701 l 1.657773,-0.96327 c 4.29305,4.57777 9.364107,8.45854 14.927766,11.26961 v 0.003 c 3.669404,1.85256 7.547534,3.28406 11.545044,4.24418 4.10342,0.98827 8.34443,1.48828 12.59975,1.48828 4.26447,0 8.50423,-0.50866 12.6111,-1.49603 3.99692,-0.95983 7.88233,-2.39075 11.55485,-4.25194 5.56435,-2.81456 10.56196,-6.77151 14.85544,-11.34763 z"
       id="circle1064"
       inkscape:export-filename="C:\Users\Jesse\circle1064.png"
       inkscape:export-xdpi="57.251118"
       inkscape:export-ydpi="57.251118" /><ellipse
       style="fill:none;fill-opacity:1;stroke:#9565bd;stroke-width:3.10251;stroke-opacity:0.524193"
       id="path1"
       cx="124.23457"
       cy="136.8075"
       rx="42.314476"
       ry="43.259418" /></g><g
     inkscape:groupmode="layer"
     id="layer2"
     inkscape:label="Layer 2"><path
       style="font-size:43.7557px;font-family:Bungee;-inkscape-font-specification:Bungee;stroke:#ffffff;stroke-width:2.75781"
       d="m 56.335012,63.457511 h -6.822725 q -3.916002,0 -5.65196,-1.899073 -1.695589,-1.946553 -1.695589,-5.982084 V 38.911975 q 0,-0.90206 0.322969,-1.281875 0.363341,-0.427291 1.130394,-0.427291 h 6.257527 q 0.767052,0 1.090022,0.427291 0.36334,0.379815 0.36334,1.281875 v 13.008661 q 0,0.759628 0.32297,1.186922 0.363339,0.427291 0.928536,0.427291 h 3.754516 V 38.911975 q 0,-0.90206 0.322971,-1.281875 0.363339,-0.427291 1.130392,-0.427291 h 6.217158 q 0.767051,0 1.090021,0.427291 0.363339,0.379815 0.363339,1.281875 v 30.765006 q 0,0.90206 -0.363339,1.329351 -0.32297,0.379815 -1.090021,0.379815 h -6.217158 q -0.767053,0 -1.130392,-0.379815 -0.322971,-0.427291 -0.322971,-1.329351 z m 33.144702,7.928636 H 71.635665 q -0.767052,0 -1.130393,-0.379815 -0.322968,-0.427291 -0.322968,-1.329351 V 63.93228 q 0,-0.902059 0.322968,-1.281875 0.363341,-0.427292 1.130393,-0.427292 h 4.52157 v -15.85727 h -3.714146 q -0.767053,0 -1.130395,-0.379816 -0.322967,-0.427291 -0.322967,-1.329351 v -5.744701 q 0,-0.90206 0.322967,-1.281875 0.363342,-0.427291 1.130395,-0.427291 h 11.707634 q 0.767051,0 1.090022,0.427291 0.363339,0.379815 0.363339,1.281875 v 23.311138 h 3.87563 q 0.767054,0 1.090022,0.427292 0.363341,0.379816 0.363341,1.281875 v 5.744701 q 0,0.90206 -0.363341,1.329351 -0.322968,0.379815 -1.090022,0.379815 z"
       id="text3"
       aria-label="41" /><path
       id="path132"
       style="fill:#fffe65;fill-opacity:1;stroke-width:0.265642;stroke-dasharray:none"
       d="m 99.650756,64.88322 -3.901707,-5.64661 -5.788647,8.613354 -7.216097,-3.340881 -6.414595,2.672705 -10.022644,-2.405538 -8.686292,2.272213 -6.414079,-2.272213 -7.617106,3.207556 -5.608738,-8.346187 -4.600458,5.30968 c -0.426107,2.658247 -0.660424,5.204341 -0.660425,7.538558 -1e-6,18.891844 15.145847,34.207213 33.828943,34.207213 18.683097,0 33.828939,-15.315369 33.828939,-34.207213 0,-2.352012 -0.2618,-4.921484 -0.727094,-7.602637 z"
       sodipodi:nodetypes="cccccccccccsssc" /><ellipse
       style="fill:#ff3e3e;fill-opacity:1;fill-rule:nonzero;stroke:none;stroke-width:0.284726;stroke-dasharray:none;stroke-opacity:1;paint-order:normal"
       id="path84-7"
       cx="0.097176693"
       cy="101.4543"
       rx="2.1016278"
       ry="2.8028421"
       transform="matrix(1,0,0.41449175,0.91005307,0,0)" /><ellipse
       style="fill:#ff3e3e;fill-opacity:1;fill-rule:nonzero;stroke:none;stroke-width:0.230607;stroke-dasharray:none;stroke-opacity:1;paint-order:normal"
       id="path84-4"
       cx="87.853073"
       cy="94.617912"
       rx="2.2058461"
       ry="2.6558802"
       transform="matrix(1,0,-0.13636853,0.99065818,0,0)" /><path
       style="fill:none;fill-opacity:1;fill-rule:nonzero;stroke:#04d9ff;stroke-width:5.034;stroke-dasharray:none;stroke-opacity:1;paint-order:normal"
       d="m 33.608653,80.214183 c 3.293554,-0.744976 11.769004,5.615384 18.020917,8.097594 4.957646,-2.32472 8.987252,-7.56793 15.061926,-7.91909 6.285266,0.45358 10.746486,5.52463 16.219817,7.82487 5.934644,-2.41849 12.612448,-8.7901 16.577473,-7.892604"
       id="path76-1-6"
       sodipodi:nodetypes="ccccc" /><ellipse
       style="fill:#ff3e3e;fill-opacity:1;fill-rule:nonzero;stroke:none;stroke-width:0.268272;stroke-dasharray:none;stroke-opacity:1;paint-order:normal"
       id="path84-7-7"
       cx="138.13013"
       cy="-50.605362"
       rx="1.881166"
       ry="2.7798691"
       transform="matrix(0.39544362,0.91849025,-0.71780087,0.69624846,0,0)"
       inkscape:transform-center-x="0.12424496"
       inkscape:transform-center-y="0.12085342" /><path
       style="fill:none;fill-opacity:1;fill-rule:nonzero;stroke:#ff3e3e;stroke-width:5.034;stroke-dasharray:none;stroke-opacity:1;paint-order:normal"
       d="m 33.154998,68.41025 c 4.629901,0.390921 12.16974,5.265088 18.421653,7.747298 4.957646,-2.32472 8.940005,-7.09546 15.014679,-7.44662 6.285266,0.45358 10.793733,5.05216 16.267064,7.3524 5.934644,-2.41849 12.731262,-7.106399 17.267996,-7.68069"
       id="path76-1"
       sodipodi:nodetypes="ccccc" /><ellipse
       style="fill:#ff3e3e;fill-opacity:1;fill-rule:nonzero;stroke:none;stroke-width:0.235026;stroke-dasharray:none;stroke-opacity:1;paint-order:normal"
       id="path84"
       cx="43.814713"
       cy="95.209381"
       rx="2.2038968"
       ry="2.761039"
       transform="matrix(1,0,0.16409033,0.98644532,0,0)" /></g></svg>
