<?xml version="1.0" encoding="UTF-8"?>
<!-- Created with Inkscape (http://www.inkscape.org/) -->
<svg width="133.1mm" height="133.09mm" version="1.1" viewBox="0 0 133.1 133.09" xmlns="http://www.w3.org/2000/svg" xmlns:cc="http://creativecommons.org/ns#" xmlns:dc="http://purl.org/dc/elements/1.1/" xmlns:rdf="http://www.w3.org/1999/02/22-rdf-syntax-ns#">
 <title>Facility-13</title>
 <defs>
  <clipPath id="clipPath1135">
   <ellipse cx="-20.244" cy="189.8" rx="36.705" ry="37.233" fill="none" stroke="#000" stroke-linecap="round" stroke-width=".62174"/>
  </clipPath>
 </defs>
 <g transform="translate(68.068 -.058754)">
  <path d="m-9.2413 116.41c-4.6025-0.83331-10.621-2.8465-14.797-4.9496-3.4515-1.7382-5.9167-3.3977-11.449-7.7076-1.2579-0.97993-1.3783-0.95352-4.802 1.053-1.9314 1.132-3.724 1.8399-3.9834 1.5731-0.59295-0.6098-13.622-23.097-13.607-23.485 6e-3 -0.15704 1.6802-1.2618 3.7205-2.455l3.7096-2.1694-0.45481-2.6581c-0.92131-5.3845-0.46724-16.531 0.8669-21.28 4.0828-14.534 13.303-25.786 26.507-32.348 2.1866-1.0866 4.934-2.2864 6.1054-2.6661l2.1298-0.69043v-7.8631h27.829v7.8519l3.919 1.4975c13.88 5.304 24.563 16.604 29.624 31.336 1.8696 5.4424 1.9246 5.8594 1.9388 14.688 8e-3 4.9979-0.158 9.8539-0.36887 10.791-0.36587 1.6261-0.20727 1.8078 3.4712 3.9756l3.8546 2.2716-6.5995 11.359c-3.6297 6.2474-6.7947 11.663-7.0332 12.034-0.31192 0.48597-1.5083 0.0997-4.2615-1.3759l-3.8278-2.0515-4.2119 3.2543c-5.1057 3.9449-11.885 7.3106-17.955 8.9145-5.0544 1.3354-15.808 1.917-20.325 1.0992z" fill="#0039a6"/>
  <path d="m-9.7699 124.59-8.6944-8.565-1.4789-0.56526c-4.7314-1.8084-9.2399-4.306-13.168-7.2947l-1.4387-1.0946-4.0195 2.3267c-3.0652 1.7744-4.0548 2.289-4.1682 2.1677-0.21618-0.23115-18.719-32.327-18.777-32.57-0.03366-0.14309 0.45186-0.48484 1.6146-1.1365 0.9145-0.51254 1.664-0.97096 1.6655-1.0187 0.0015-0.04775-2.2104-2.2682-4.9155-4.9343l-4.9183-4.8475 17.123-17.382 0.69996-1.8173c4.9683-12.899 14.989-23.424 27.588-28.975 1.0799-0.47584 2.0241-0.86516 2.0983-0.86516 0.08834 0 0.13483-1.5377 0.13483-4.4597v-4.4597h9.5595l8.8916-9.0355 9.2164 9.0355h10.403l0.07014 8.9476 1.5975 0.69548c12.643 5.504 22.654 15.862 27.708 28.667l0.64506 1.6343 2.3309 2.2983c1.282 1.2641 5.1884 5.1181 8.681 8.5645l6.3501 6.2662-5.4684 5.5487c-3.0076 3.0518-5.4458 5.5702-5.4182 5.5966 0.02757 0.02632 1.0087 0.60133 2.1802 1.2778 1.1715 0.67643 2.1504 1.247 2.1753 1.2678 0.03678 0.03084-17.991 31.366-18.732 32.558l-0.21737 0.35001-8.8057-5.1052-0.85565 0.6572c-1.1537 0.8861-4.3008 2.9442-5.8105 3.7999-1.6899 0.9578-4.7312 2.3958-6.5233 3.0844l-1.4937 0.57393-2.306 2.3384c-1.2683 1.2861-5.124 5.1951-8.5682 8.6866l-6.2622 6.3482zm13.775-11.839c9.6937-1.2765 18.36-5.1758 25.294-11.381 0.65898-0.58969 1.2291-1.074 1.267-1.0763 0.03789-3e-3 1.6554 0.91547 3.5944 2.0394s3.5657 2.0076 3.6149 1.9636c0.10659-0.0954 12.988-22.398 13.09-22.664 0.04916-0.1281-1.0077-0.80299-3.4926-2.2304-1.9597-1.1257-3.5815-2.062-3.604-2.0808-0.02249-0.01877 0.11067-0.81157 0.29595-1.7618 0.64632-3.3147 0.7909-4.9084 0.8-8.8184 9e-3 -3.8678-0.10117-5.2376-0.67459-8.3869-3.0294-16.638-14.736-30.254-30.714-35.724l-1.6169-0.55353-0.07074-7.5213h-26.355v7.4435l-1.0651 0.33647c-15.177 4.7945-27.058 17.425-30.938 32.89-0.99501 3.9666-1.3435 6.9461-1.3392 11.449 0.0035 3.8069 0.1648 5.6273 0.77356 8.7394l0.30332 1.5506-3.6387 2.0974c-3.4968 2.0156-3.6317 2.1083-3.4599 2.3766 0.09838 0.15357 3.0441 5.2515 6.546 11.329 3.5019 6.0772 6.4126 11.101 6.4683 11.165 0.05563 0.0634 1.6671-0.78943 3.5811-1.8952l3.48-2.0105 1.5567 1.3654c7.8326 6.87 17.133 10.77 27.649 11.596 1.3812 0.10845 7.2473-0.0529 8.6532-0.23806z" stroke-width=".13313"/>
  <path transform="matrix(1.2571 0 0 1.2571 23.93 -171.46)" d="m-22.978 148.21c-10.247 1.3461-19.481 4.5598-26.984 12.062-16.03 16.03-16.03 43.229 0 59.259 5.3439 5.344 12.056 8.9164 19.311 10.821 5.0131 1.3163 10.207 1.6364 15.346 1.0136 20.25-2.4545 35.876-19.528 36.767-39.877 1.0179-23.243-20.239-46.458-44.44-43.279m-0.79375 3.932c4.059-0.48048 8.2124 0.0726 12.171 0.92726 4.051 0.87469 7.8671 2.5166 11.377 4.706 22.708 14.165 23.533 48.323 1.3229 63.415-5.411 3.6764-11.526 5.7065-17.992 6.472-4.0465 0.4789-8.227-0.0487-12.171-0.92816-4.2304-0.9435-8.283-2.6789-11.906-5.0451-22.171-14.48-22.859-48.082-0.79375-63.075 5.3904-3.6626 11.55-5.7093 17.992-6.4719m3.9688 3.0995c-1.9688 5.2477-3.5237 12.401-3.9688 17.992-5.0731-3.6493-7.3189-10.627-12.171-14.552l1.6613 7.1438 3.1012 11.112-17.462-7.4083 4.7386 5.5523 7.9614 8.4706-19.05 1.3229v0.26458c5.2477 2.3371 12.049 5.247 17.727 6.0854l-5.5562 3.7071-10.583 6.3471v0.26458l19.05-2.3812c-3.4557 4.8392-7.4355 10.684-9.7896 16.14 5.9759-1.4041 10.143-8.41 15.875-10.583l-1.3229 18.521 2.9758-4.7625 5.7555-11.642h0.52917l5.2335 11.906 2.704 5.0271-0.26458-19.05c4.4836 3.9047 9.7875 8.9392 15.081 11.642l-3.175-6.35-5.8208-10.319 18.785 3.175-5.0271-3.755-10.583-7.093 11.377-3.4398 6.6146-2.381-7.4083-0.83873-11.377-1.0134 13.229-13.758c-5.9965 0.60087-12.276 4.9456-17.992 6.8792l3.7108-11.642 1.8455-6.6146-12.7 14.288-3.175-18.256h-0.52917m0.26458 1.5875 3.175 17.727 8.3135-9.525 3.8574-3.9688-5.5562 17.198 17.198-6.6146-12.7 12.965 17.992 1.5875v0.26458c-5.0744 2.2492-11.706 4.4807-17.198 5.2917l5.0271 3.6161 10.054 6.4381v0.26458c-5.7978-0.2495-12.355-1.7862-17.992-3.175l8.7312 15.875-5.0271-3.4922-9.525-7.3557 0.26458 17.992h-0.26458l-7.1438-16.14h-0.52917l-4.9993 10.319-3.2028 5.5562 0.78343-10.848 0.53949-7.1438c-5.2755 2.6244-9.5001 8.4677-15.081 10.319 2.4798-5.3049 6.0817-10.874 9.525-15.61l-18.256 2.6458 5.2917-3.4925 10.319-6.0325-17.198-6.0854v-0.26459l17.992-1.0583-12.171-13.494 16.669 7.1438-4.4979-17.198c4.6082 3.3921 7.4165 9.6173 11.377 13.758l2.5932-11.377 1.6402-6.0854m4.2333 5.5562 0.26458 0.26458-0.26458-0.26458m-13.494 0.52916 1.8521 2.1167-1.8521-2.1167m4.2333 0.26459 0.26458 0.26458-0.26458-0.26458m13.229 1.0583-1.0583 1.3229 1.0583-1.3229m-16.933 0.52917 2.3812 2.9104-2.3812-2.9104m1.3229 0.52916 0.52917 0.52917-0.52917-0.52917m15.61 0-1.0583 1.3229 1.0583-1.3229m-12.171 0.26459-1.0583 4.4979-3.175-3.7042h-0.26458c0.47916 1.8424 2.209 3.8801 3.7042 5.0271l0.79375-5.8208m7.1438 0.26458 0.79375 5.8208c1.6296-0.86995 3.2205-2.8194 3.9688-4.4979l-3.7042 3.4396-1.0583-4.7625m3.7042 0-1.8521 1.3229 0.79375 0.52916 1.0583-1.8521m-11.906 0.26458v0.79375h0.26458l-0.26458-0.79375m-1.0583 0.52917v0.52917h0.52917v-0.52917h-0.52917m-11.377 0.26458 0.26458 1.0583h0.26458l-0.52917-1.0583m16.933 0c-1.6044 3.4367-1.601 3.9791 0 7.4083h0.52917c1.2764-3.0655 2.3299-4.7879-0.52917-7.4083m4.8506 0.1764 0.08837 0.17637-0.08837-0.17637m2.5577-0.1764-2.1167 2.6458h0.26458l1.8521-2.6458m-7.1437 0.79375c1.7886 2.3292 1.3176 3.2914 0.26458 5.8208h-0.52917c-1.334-2.2622-1.7941-3.7902 0.26458-5.8208m-6.0854 0.26459 1.0583 1.0583-1.0583-1.0583m22.49 0-0.52917 2.3812h0.26458l0.26458-2.3812m-32.985 0.44098 0.08837 0.17637-0.08837-0.17637m0.70564 0.0882v0.79375h0.26458l-0.26458-0.79375m5.0271 0.79375c0 3.6425 0.01138 4.7898 3.4396 6.6146 1.0321-3.492-0.5416-5.0072-3.4396-6.6146m-5.4681 0.44098 0.08837 0.17637-0.08837-0.17637m1.4994 0.0882 1.0583 5.0271-4.7625-2.1167c1.0007 1.5145 3.8933 2.2654 5.5562 2.9104l-1.3229-5.8208h-0.52917m21.96 6.35c3.4803-1.3174 3.7042-2.9607 3.7042-6.35-3.5322 0.83-4.3072 3.1022-3.7042 6.35m7.9375-6.35-0.52917 2.1167h0.26458l0.26458-2.1167m-35.454 0.26458 0.26458 0.26459-0.26458-0.26459m12.7 5.0271c-2.7776-0.88504-2.9104-2.4254-2.9104-5.0271 2.6093 0.83132 3.5364 2.3971 2.9104 5.0271m-8.4667-4.7625 0.26458 1.5875-2.6458-1.0583v0.26459l2.9104 1.3229-0.52917-2.1167m26.458 0c0 2.8252-0.10716 4.0822-2.9104 5.2917-0.02381-2.8628 0.07461-3.9502 2.9104-5.2917m-29.369 0.26458 0.26458 0.26458-0.26458-0.26458m32.808 0-1.5875 5.5562 5.5562-2.1167v-0.26458l-4.7625 1.5875 1.3229-4.7625h-0.52917m1.9402 0.17648 0.08837 0.17621-0.08837-0.17621m3.0869 0.61727v0.26458l1.5875-0.52916-1.5875 0.26458m-34.131-0.26458 0.26458 0.26458-0.26458-0.26458m-3.9688 0.26458 0.26458 0.26458-0.26458-0.26458m0.52917 0.26458v0.26459l4.2333 1.8521-0.26458-2.1167h-0.26458l0.26458 1.5875-3.9687-1.5875m34.131 0 0.26458 0.26459-0.26458-0.26459m-0.26458 0.79375c0.30692 1.4026 2.5381-0.177 3.4396-0.52916l-3.4396 0.52916m0.52917 1.0583v0.26458l3.4396-1.3229-3.4396 1.0583m-1.5875 0-0.26458 1.0583 1.0583-0.26458-0.79375-0.79375m1.0583 0.26458 0.26458 0.26458-0.26458-0.26458m-34.396 2.6458c1.0565 3.6952 2.4696 3.6978 5.8208 4.4979l0.26458-0.26458c-1.3671-3.3324-2.3902-4.223-6.0854-4.2333m0.79375 0.26459c2.5972 0.62547 4.0431 0.66913 4.4979 3.7042-2.1558-0.0926-4.9646-0.90223-4.4979-3.7042m-7.6729 0.26458 0.26458 0.26458-0.26458-0.26458m24.342 0.11324c-2.2171 0.31751-4.3336 1.0596-6.1495 2.2228-2.2152 1.419-3.9828 3.4646-4.9392 6.1307-3.0279 8.441 4.5344 17.687 13.47 16.593 6.4577-0.79057 11.64-5.4255 12.122-12.095 0.54266-7.5102-7.3112-13.881-14.503-12.851m14.552 4.3847c3.6782-0.46514 4.658-1.0189 6.0854-4.4979-3.5706 0.0738-5.2329 0.90038-6.0854 4.4979m5.2917-3.9688c-0.6641 2.7961-2.0106 3.4168-4.7625 3.4396 0.78872-2.7591 1.9574-3.4163 4.7625-3.4396m-43.303 0.44106 0.08821 0.17621-0.08821-0.17621m0.70556-0.17648 3.175 3.9688h-3.7042v0.26458h4.2333l-3.7042-4.2333m1.8521 0.52917 2.9104 4.2333-4.7625 0.26458v0.26459l5.8208-0.26459-3.9688-4.4979m20.108 0.0794c4.5233-0.65167 9.2676 0.90117 12.003 4.6831 5.039 6.9667 0.20373 16.58-8.0343 17.651-4.458 0.57918-9.044-0.9607-11.739-4.686-4.9265-6.8114-0.39026-16.472 7.7698-17.648m27.517 0.18521 0.26458 0.26458-0.26458-0.26458m-49.212 0.52917 1.3229 1.8521h-3.175v0.26458h3.7042l-1.8521-2.1167m47.625 0-3.7042 3.9688h1.8521v-0.26459h-1.3229l3.175-3.7042m-1.8521 0.26458-3.9688 4.4979 5.8208 0.52916c-0.91784-1.0909-3.4007-0.95097-4.7625-1.0584 0.79269-1.1245 3.2023-2.531 2.9104-3.9688m1.3229 1.3229-1.5875 1.8521 5.8208 0.52917v-0.26459l-5.0271-0.52916 0.79375-1.5875m-23.784 0.46222c-1.9883 0.81333-0.84164 4.1021 1.2824 3.306 2.2479-0.84217 0.88212-4.1915-1.2824-3.306m-27.016 0.0669v0.26459h1.5875l-1.5875-0.26459m22.49 1.7955c-2.2212 0.29607-2.023 3.7722 0.26114 3.5999 2.1995-0.1659 1.9844-3.8992-0.26114-3.5999m9.5364 0c-2.2746 0.7755-0.99933 4.2447 1.2824 3.2988 1.9833-0.82233 0.7239-3.9828-1.2824-3.2988m17.715 0.0566v0.26458h2.3812l-2.3812-0.26451m2.9104 0.26458v0.26458h0.79375l-0.79375-0.26458m-34.601 1.7955c-1.4208 0.56595-0.39979 2.8358 0.93848 2.1505 1.3279-0.68024 0.48419-2.7173-0.93848-2.1505m18.235 0.0172c-1.3594 0.44503-0.69321 2.7268 0.71755 2.2455 1.3504-0.46091 0.71146-2.7136-0.71755-2.2455m-31.788 1.3623v0.52917c2.8972 1.8042 3.9132 2.3045 7.1437 0.79375-1.6301-3.2176-4.4314-2.5913-7.1437-1.3229m6.6146 1.0583c-2.2426 1.1943-4.471 1.5997-5.8208-1.0583 2.6249-0.85566 3.7814-1.1232 5.8208 1.0583m32.279 0.79375c3.3988 1.6105 4.2196 1.2462 7.4083-0.52916v-0.52917c-3.1644-1.0705-5.012-2.0659-7.4083 1.0583m6.6146-0.79375v0.26459c-2.3691 1.5983-3.225 1.5941-5.8208 0.52916v-0.52916c2.227-1.5933 3.4256-1.6277 5.8208-0.26459m-22.49-0.59028c-3.5756 0.15928-3.3443 5.4499 0.26458 5.3372 3.5414-0.11086 3.2364-5.493-0.26458-5.3372m-7.8983 1.1271c-1.8505 1.0845-0.11033 4.1156 1.7841 3.116 2.1728-1.1464 0.29448-4.3347-1.7841-3.116m14.277-0.0746c-1.991 0.81439-0.83106 4.1047 1.2824 3.3427 2.2545-0.8128 0.90091-4.236-1.2824-3.3427m-31.779 1.919v0.26459l4.4979 1.5875-3.9688 3.175c1.6692-0.71914 4.1335-1.8106 5.0271-3.4396l-5.5562-1.5875m-3.7042 0.26459 0.79375 0.52916v-0.26458l-0.79375-0.26458m1.8521 0v0.26458l1.8521 0.52917v-0.26459l-1.8521-0.52916m-0.61735 0.61727 0.17637 0.0884-0.17637-0.0884m51.947-0.0881-5.2917 1.5875c1.1647 1.5092 3.2097 2.8604 5.0271 3.4396l-3.9687-3.175c0.84296-0.26909 4.5762-0.92975 4.2333-1.8521m-51.065 0.26459v0.26458l2.6458 1.0583-1.8521 1.0583v0.26458l2.3812-1.3229-3.175-1.3229m2.1167 0v0.26458l2.1167 0.52917-1.8521 1.5875v0.26458l2.3812-1.3229v-0.52916l-2.6458-0.79377m48.154 1.0583v0.26458l3.175-0.79375-3.175 0.52917m4.7625-0.52917-1.8521 0.52917v0.26458l2.1167-0.52916-0.26458-0.26459m-37.511 0.47652c-1.3105 0.4818-0.6776 2.6638 0.70935 2.2455 1.4965-0.45165 0.74586-2.7805-0.70935-2.2455m18.256 0.0132c-1.333 0.45111-0.72787 2.7316 0.69638 2.2455 1.3372-0.45614 0.71728-2.7239-0.69638-2.2455m12.112 0.83317 2.3812 1.5875v-0.26458l-1.5875-0.79375v-0.52917l1.3229-0.26458-2.1167 0.26458m1.8521 0.52917 3.175-0.79375-3.175 0.79375m-28.536-0.25692c-1.8478 1.0792-0.18785 4.2648 1.7526 3.1186 1.8701-1.1046 0.26247-4.2955-1.7526-3.1186m10.044-0.0749c-1.9603 0.8128-0.69215 3.9727 1.2824 3.2988 2.3048-0.78687 1.0229-4.2545-1.2824-3.2988m-30.985 0.59637-0.79375 0.52917v0.26458l1.0583-0.52917-0.26458-0.26458m1.5875 0-0.79375 0.52917v0.26458l1.0583-0.52917-0.26458-0.26458m48.683 0 0.52917 0.52917-0.52917-0.52917m-51.594 0.79375 0.26458 0.26458-0.26458-0.26458m1.5875 0 0.26458 0.26458-0.26458-0.26458m4.4979 3.4396c3.2472 0.25638 5.3634 0.66966 6.8792-2.9104-3.2872-0.4244-5.262-0.57812-6.8792 2.9104m-5.0271-3.175 0.26458 0.26459-0.26458-0.26459m11.112 0.52917c-1.0073 2.9628-3.0006 2.5829-5.5562 2.3812 1.5804-2.5268 2.758-2.9239 5.5562-2.3812m15.375-0.32861c-2.0092 0.79348-0.84296 4.3011 1.2824 3.3946 2.1627-0.92234 0.89112-4.2532-1.2824-3.3946m24.313-0.20056 0.52917 0.52917-0.52917-0.52917m1.5875 0.26459 0.52917 0.52916-0.52917-0.52916m-10.583 0.79381c1.6584 3.2486 3.5526 3.528 6.8792 2.9104-1.5441-3.3708-3.6243-3.5237-6.8792-2.9104m9.7896-0.52917 0.26458 0.26458-0.26458-0.26458m-3.7042 3.175c-2.5831 0.32676-4.1439 0.32967-5.2917-2.3812 2.4926-0.7575 4.2979-0.18362 5.2917 2.3812m5.2917-2.9104v0.26459l1.0583 0.52916v-0.26458l-1.0583-0.52917m-0.79375 0.26459 0.26458 0.26458-0.26458-0.26458m-47.625 6.0854 5.0271-0.79375-2.3812 4.4979 3.4396-5.0271c-1.5798 0.0325-5.0547 0.0484-6.0854 1.3229m37.835-1.0583c0.49795 1.7283 1.6058 4.3318 3.175 5.2917l-2.3812-4.4979 5.0271 0.79375c-1.0073-1.3234-4.231-1.2793-5.8208-1.5875m-31.485 6.0854c3.6555-0.53975 4.5678-1.7936 5.2917-5.2917-3.7319 0.3048-4.5754 1.8306-5.2917 5.2917m-5.8208-4.7625v0.26459l2.9104-0.26459-0.26458 0.79375h0.26458l0.52917-1.0583-3.4396 0.26458m32.015-0.26458c0.15319 3.5571 1.4621 5.0739 5.0271 5.5562-1.0279-3.6568-1.3293-4.3738-5.0271-5.5562m-21.431 0.26458c-0.56198 2.7231-1.3777 3.8116-4.2333 4.2333 0.58394-2.8295 1.1906-3.9849 4.2333-4.2333m-12.435 0.26459v0.26458h1.5875l-1.5875-0.26458m38.365 4.4979c-2.9393-0.43418-3.4806-1.561-4.2333-4.2333l0.26458-0.26458c2.7887 0.90699 3.3726 1.6092 3.9687 4.4979m2.6458-4.4979 0.52917 1.3229h0.26458l0.52917-1.0583-1.3229-0.26458m-41.54 0.79375v0.26458l4.2333-0.26458h-4.2333m43.127-0.52917v0.26458l3.9688 0.52917-3.9688-0.79375m-38.365 0.52917 0.26458 0.26458-0.26458-0.26458m-6.0854 0.26458v0.26458h1.0583l-1.0583-0.26458m44.185 0v0.26458h1.0583l-1.0583-0.26458m1.8521 0.26458v0.26459h0.79375l-0.79375-0.26459m1.3229 0.26459v0.26458l2.3812 0.26458-2.3812-0.52916m-3.4396 0.26458 0.26458 0.26458-0.26458-0.26458m-38.629 0.26458 0.26458 0.26459-0.26458-0.26459m-1.0583 0.26459-0.26458 0.52916 0.26458-0.52916m39.952 0 0.26458 0.26458-0.26458-0.26458m-24.871 7.4083c3.2335-1.5756 2.7165-3.9735 2.1167-6.8792-3.5539 1.3769-2.9705 3.8476-2.1167 6.8792m9.525-6.8792c-0.76041 3.6745-0.73898 4.0905 1.5875 7.1438h0.26458c1.1499-3.0477 1.6126-5.5282-1.8521-7.1438m16.404 0 0.26458 0.26459-0.26458-0.26459m-41.54 0.26459-1.0583 1.8521 1.0583-1.8521m0.79375 0.26458-0.26458 0.79375h0.26458v-0.79375m16.669 0c0.74454 2.3289 0.9697 4.3101-1.5875 5.5562-0.89403-2.3696-1.0057-4.346 1.5875-5.5562m8.2021 0c2.0669 2.0741 2.0907 3.0954 1.3229 5.8208h-0.52917c-1.4904-1.9651-2.422-3.5385-0.79375-5.8208m15.61 0.52917 0.52917 0.52916-0.52917-0.52916m-29.104 0.26458-4.4979 3.7042 4.4979-2.6458-0.26458 5.0271h0.26458v-6.0854m30.162 0.26458 0.52917 1.0583h0.26458l-0.79375-1.0583m-11.906 0.26459v5.8208h0.52917l-0.26458-4.7625 4.4979 2.6458-4.7625-3.7042m-20.108 2.3812 1.0583-0.79375-1.0583 0.79375m20.902-0.26459 0.52917 0.79375 0.26458-0.26458-0.26458-0.52917h-0.52917m-21.431 0.26459-2.9104 2.1167v0.26459l2.9104-2.3812m11.377 0-2.6458 5.2917 2.6458-4.2333h0.26458l2.3812 4.2333-2.6458-5.2917m11.112 0.26458 0.79375 0.79375-0.79375-0.79375m-26.458 3.4396v0.26459l4.7625-2.9104c-1.5849-0.36459-3.4716 1.842-4.7625 2.6458m25.665-2.6458v4.2333h0.26458l-0.26458-4.2333m1.8521 0 2.6458 2.1167v-0.26459l-2.6458-1.8521m-1.3229 0.26458 4.4979 3.4396-4.4979-3.4396m-11.112 1.0583v0.52916h0.52917v-0.52916h-0.52917m-10.848 0.52916v2.9104h0.26458l-0.26458-2.9104m0.79375 0.52917v1.3229h0.26458l-0.26458-1.3229m10.054 0.79375v0.52917h0.52917v-0.52917h-0.52917m-1.0583 0.52917-0.26458 0.52916 0.26458-0.52916m0.26458 1.0583-0.52917 1.0583h0.26458l0.26458-1.0583m-1.0583 0.52917-0.52917 1.0583h0.26458l0.26458-1.0583m0.26458 0.79375 0.26458 0.26458-0.26458-0.26458m3.9688 0 0.26458 0.26458-0.26458-0.26458m-4.2333 0.52916 0.26458 0.26459-0.26458-0.26459m-0.26458 0.52917-0.26458 0.79375z" clip-path="url(#clipPath1135)" fill="#fff"/>
  <g stroke="#fff" aria-label="13">
   <path d="m-4.7828 80.829c0.98778 0 1.4224-0.43462 1.4224-1.4224v-4.7808c0-0.98778-0.43462-1.4224-1.4224-1.4224h-3.7931v-19.4c0-0.98778-0.43462-1.4224-1.4224-1.4224h-11.458c-0.98778 0-1.4224 0.43462-1.4224 1.4224v4.7808c0 0.98778 0.43462 1.4224 1.4224 1.4224h3.635v13.197h-4.4252c-0.98778 0-1.4224 0.43462-1.4224 1.4224v4.7808c0 0.98778 0.43462 1.4224 1.4224 1.4224z"/>
   <path d="m1.5389 73.361c-0.98778 0-1.4224 0.43462-1.4224 1.4224v4.6228c0 0.98778 0.43462 1.4224 1.4224 1.4224h12.486c5.0574 0 7.6652-2.4892 7.6652-6.5588v-3.9511c0-3.477-1.2248-5.2945-4.9784-5.7291 1.7385-0.75071 2.3312-2.2521 2.3312-4.2672v-2.2916c0-3.477-2.0941-5.6501-6.4798-5.6501h-11.024c-0.98778 0-1.4224 0.43462-1.4224 1.4224v4.7018c0 0.98778 0.43462 1.4224 1.4224 1.4224h7.3491c1.2644 0 1.5014 0.55316 1.5014 1.1853v0.59267c0 0.63218-0.23707 1.1853-1.5014 1.1853h-4.1487c-0.98778 0-1.4224 0.43462-1.4224 1.4224v4.2277c0 0.98778 0.43462 1.4224 1.4224 1.4224h6.7169c1.2644 0 1.5014 0.51364 1.5014 1.1458v1.0668c0 0.63218-0.23707 1.1853-1.5014 1.1853z"/>
  </g>
 </g>
 <metadata>
  <rdf:RDF>
   <cc:Work rdf:about="">
    <dc:title>Facility-13</dc:title>
   </cc:Work>
  </rdf:RDF>
 </metadata>
</svg>
