<?xml version="1.0" encoding="UTF-8"?>
<!-- Created with Inkscape (http://www.inkscape.org/) -->
<svg width="133.1mm" height="133.09mm" version="1.1" viewBox="0 0 133.1 133.09" xmlns="http://www.w3.org/2000/svg" xmlns:cc="http://creativecommons.org/ns#" xmlns:dc="http://purl.org/dc/elements/1.1/" xmlns:rdf="http://www.w3.org/1999/02/22-rdf-syntax-ns#">
 <title>Facility-57</title>
 <g transform="translate(68.068 -.058754)">
  <path d="m-9.2413 116.41c-4.6025-0.83331-10.621-2.8465-14.797-4.9496-3.4515-1.7382-5.9167-3.3977-11.449-7.7076-1.2579-0.97993-1.3783-0.95352-4.802 1.053-1.9314 1.132-3.724 1.8399-3.9834 1.5731-0.59295-0.6098-13.622-23.097-13.607-23.485 6e-3 -0.15704 1.6802-1.2618 3.7205-2.455l3.7096-2.1694-0.45481-2.6581c-0.92131-5.3845-0.46724-16.531 0.8669-21.28 4.0828-14.534 13.303-25.786 26.507-32.348 2.1866-1.0866 4.934-2.2864 6.1054-2.6661l2.1298-0.69043v-7.8631h27.829v7.8519l3.919 1.4975c13.88 5.304 24.563 16.604 29.624 31.336 1.8696 5.4424 1.9246 5.8594 1.9388 14.688 8e-3 4.9979-0.158 9.8539-0.36887 10.791-0.36587 1.6261-0.20727 1.8078 3.4712 3.9756l3.8546 2.2716-6.5995 11.359c-3.6297 6.2474-6.7947 11.663-7.0332 12.034-0.31192 0.48597-1.5083 0.0997-4.2615-1.3759l-3.8278-2.0515-4.2119 3.2543c-5.1057 3.9449-11.885 7.3106-17.955 8.9145-5.0544 1.3354-15.808 1.917-20.325 1.0992z" fill="#d72b1f" stroke="#d72b1f" stroke-linecap="round" stroke-width="1.0733"/>
  <g fill="#fff">
   <path transform="matrix(1.2316 0 0 1.2582 .80128 -184.3)" d="m-2.0278 224.93c1.2308-0.26247 2.427 1.4346 3.175 2.1823 0.73686 0.7366 2.2659 1.8 2.4022 2.9104 0.18124 1.4737-3.7121 5.3964-5.048 5.7293-1.2163 0.30322-2.7048-1.7968-3.4293-2.5543-0.6858-0.71729-2.0376-1.8616-2.1489-2.9104-0.14711-1.387 3.7544-5.0813 5.049-5.3573z"/>
   <path transform="matrix(1.2316 0 0 1.2582 .80128 -184.3)" d="m2.9992 216.52c3.1768 5.4438 6.7228 12.467 8.4667 18.521l-8.9958 1.8521c1.2171-1.9457 5.0623-4.3431 5.3493-6.6146 0.12965-1.0234-1.2787-2.0143-1.9098-2.6458l-5.2917-5.2914c-0.60193-0.59849-1.4377-1.724-2.3813-1.724-1.8333 0-4.5971 3.9396-5.8208 5.1634-0.92763 0.92762-3.9452 3.048-3.7619 4.4979 0.28708 2.2714 4.1323 4.6688 5.3494 6.6146l-8.9958-1.8521c1.7439-6.0537 5.2898-13.077 8.4667-18.521l4.7625 2.236 4.7625-2.236"/>
   <path transform="matrix(1.2316 0 0 1.2582 .80128 -184.3)" d="m4.0576 212.29 7.2091 14.552 3.1096 7.1438-1.8521 0.52916-8.9958-19.315-5.2917 2.3257-5.2917-2.3257-8.9958 19.315-1.8521-0.52916 3.1096-7.1438 7.2091-14.552 5.8208 3.3192 5.8208-3.3192"/>
   <path transform="matrix(1.2316 0 0 1.2582 .80128 -184.3)" d="m4.8513 207.53 8.0029 16.14 4.168 8.9958-1.3229 0.52917c-3.1832-5.2012-5.6735-10.948-8.4013-16.404-0.6223-1.2443-1.8709-5.3097-3.2967-5.6989-2.122-0.57917-3.7462 3.7962-6.0291 3.411-1.5745-0.26591-4.1439-4.2177-5.7176-3.3128-1.5163 0.8718-2.5755 4.5937-3.3435 6.1299-2.6413 5.2829-5.0535 10.837-8.1367 15.875l-1.3229-0.52917 4.168-8.9958 8.0029-16.14 6.6146 4.7157 6.6146-4.7157"/>
   <path transform="matrix(1.2316 0 0 1.2582 .80128 -184.3)" d="m5.6451 203.56c4.2526 6.4482 7.3287 13.995 10.783 20.902 0.50482 1.0094 3.7976 6.0899 2.3699 6.8326-1.2486 0.64928-3.2737-4.6141-3.7359-5.5097-3.1917-6.1836-7.7542-12.89-9.6811-19.579-1.8971 1.1864-4.8466 5.0641-7.1438 5.0641-2.2971 0-5.2467-3.8777-7.1438-5.0641-1.927 6.6889-6.4894 13.396-9.6811 19.579-0.46223 0.89561-2.4874 6.159-3.7359 5.5097-1.4276-0.74269 1.865-5.8232 2.3698-6.8326 3.4539-6.9075 6.5299-14.454 10.783-20.902 2.2357 1.0364 4.921 5.43 7.4083 5.43s5.1726-4.3937 7.4083-5.43"/>
   <path transform="matrix(1.2316 0 0 1.2582 .80128 -184.3)" d="m26.576 197.95c-3.3401 1.2017 2.444 5.0665 2.6379 6.4066 0.0767 0.53181-0.26088 0.94191-0.57996 1.3229-0.89826 1.0721-2.427 1.9976-2.7607 3.4393-0.24897 1.0755 0.5551 2.2122 1.7325 1.8918 1.742-0.47413 6.0825-4.7273 5.8809-6.654-0.14499-1.3859-1.5288-2.522-2.4418-3.4396-0.99113-0.99589-2.7951-3.5692-4.4688-2.967"/>
   <path transform="matrix(1.2316 0 0 1.2582 .80128 -184.3)" d="m-31.132 197.95c-1.814 0.58261-6.2396 4.8408-5.8627 6.9358 0.29895 1.6616 4.8198 6.6641 6.6412 6.1248 3.4946-1.0345-2.2828-5.2004-2.396-6.3894-0.17256-1.8134 2.9915-3.097 3.5263-4.7622 0.38714-1.2054-0.70337-2.296-1.9088-1.909"/>
   <path transform="matrix(1.2316 0 0 1.2582 .80128 -184.3)" d="m36.337 196.95c-3.7116-4.2717-5.8005-10.681-8.5788-15.61-0.66992-1.1885-1.7888-4.7568-3.1589-5.2002-1.3592-0.43982-3.12 4.2532-3.6449 5.2002-3.2843 5.9246-6.073 12.14-9.4882 17.992h-0.52917c-2.5366-6.0926-6.2037-11.841-9.1959-17.727-0.51884-1.0208-2.2474-5.5415-3.5041-5.5415-1.2568 0-2.9853 4.5208-3.5041 5.5415-2.9922 5.8859-6.6593 11.635-9.1959 17.727h-0.52916c-3.4152-5.8515-6.204-12.067-9.4882-17.992-0.52499-0.94695-2.2858-5.64-3.6448-5.2002-1.3701 0.44341-2.4889 4.0117-3.1589 5.2002-2.7786 4.9297-4.8675 11.339-8.579 15.61-0.98613-5.828 2.8361-13.553 5.9119-18.256 13.742-21.012 45.82-22.709 61.842-3.4396 4.3233 5.1996 9.6501 14.579 8.4458 21.696"/>
  </g>
  <text transform="matrix(.26458 0 0 .26458 -68.068 .058754)" font-family="'MS UI Gothic'" font-size="26.667px" letter-spacing="0px" style="line-height:1.25;shape-inside:url(#rect3664);white-space:pre" xml:space="preserve"/>
  <path d="m42.341 58.89 2.685 4.6145 0.41515-7.2879z" fill="#74acdf"/>
  <path d="m-24.843 52.103c-3.9063-7.6857-7.4223-14.24-7.8133-14.564-1.3787-1.1442-2.5417 0.16065-5.2339 5.8728-4.8543 10.299-7.5572 15.621-8.6072 16.947l-1.0291 1.2996 0.30416-1.8194c1.1912-7.1257 4.4658-15.039 8.4616-20.448 2.8547-3.8643 9.7457-10.158 13.627-12.445 1.8319-1.0798 5.0242-2.6003 7.0939-3.3789l3.7631-1.4157 0.0112-7.5376h25.991v7.5929l4.195 1.7152c13.441 5.4954 23.68 17.357 27.299 31.623 0.70026 2.7605 1.1834 5.2653 1.0737 5.5662-0.1097 0.30095-2.771-4.7186-5.9139-11.154-3.143-6.4359-6.0953-12.018-6.5608-12.404-0.46549-0.38632-1.1817-0.57373-1.5915-0.41646-0.40984 0.15727-3.2483 5.2713-6.3077 11.364-3.0594 6.0932-6.3854 12.563-7.3911 14.377l-1.8286 3.2983-7.1221-13.853c-3.9172-7.6191-7.4923-14.223-7.9447-14.676-0.45243-0.45244-1.1623-0.69226-1.5775-0.53294-0.73466 0.28192-6.2059 10.513-12.212 22.837-1.6325 3.3497-3.1069 6.0983-3.2763 6.108-0.16944 0.0097-3.5041-6.2707-7.4104-13.956z" fill="#74acdf" stroke="#74acdf" stroke-linecap="round" stroke-width=".98"/>
  <path d="m-0.9589 54.995c2.0806 3.5648 3.7774 7.3941 5.6236 11.086 0.60387 1.2077 2.092 3.1615 1.8778 4.5649-0.24846 1.6293-2.4455 2.9978-3.5886 4.0057-1.1194 0.98731-2.8436 3.5212-4.5649 3.1772-2.7406-0.54746-5.5369-4.919-7.8255-6.5307 0.94037-5.275 5.1254-11.677 7.8255-16.303h0.65213" fill="#fff"/>
  <path d="m-1.734 59.757c-1.3463 2.4582-2.5726 4.9946-3.8319 7.4994-0.4679 0.93026-1.3584 2.1729-0.98047 3.2606 0.49822 1.4337 3.7918 5.0025 5.4645 4.6458 1.1611-0.24749 2.1419-1.5667 2.9342-2.3633 0.70853-0.71212 1.7973-1.5498 1.9587-2.6085 0.4203-2.7546-3.6855-7.9621-4.8929-10.434h-0.65213" fill="#d72b1f"/>
  <g stroke="#fff" aria-label="57">
   <path d="m-9.86 80.829c4.7413 0 7.7047-2.5287 7.7047-6.5588v-5.492c0-4.1882-2.6472-6.2823-6.9144-6.2823h-5.413v-2.5682h9.4827c0.98778 0 1.4224-0.43462 1.4224-1.4224v-4.7018c0-0.98778-0.43462-1.4224-1.4224-1.4224h-17.029c-0.98778 0-1.4224 0.43462-1.4224 1.4224v14.777c0 0.98778 0.43462 1.4224 1.4224 1.4224h9.7988c0.63218 0 1.0668 0.27658 1.0668 0.90876v1.5409c0 0.63218-0.43462 0.90876-1.0668 0.90876h-10.194c-0.98778 0-1.4224 0.43462-1.4224 1.4224v4.6228c0 0.98778 0.43462 1.4224 1.4224 1.4224z"/>
   <path d="m20.445 52.381h-18.373c-0.98778 0-1.4224 0.43462-1.4224 1.4224v4.7808c0 0.98778 0.43462 1.4224 1.4224 1.4224h10.826v3.556l-3.2004 0.86924c-4.2277 1.2644-6.1637 2.8053-6.1637 7.8232v7.1515c0 0.98778 0.43462 1.4224 1.4224 1.4224h6.4008c0.98778 0 1.4224-0.43462 1.4224-1.4224v-6.9144l2.9238-0.86924c4.2277-1.2644 6.1637-2.8053 6.1637-7.8232v-9.9963c0-0.98778-0.43462-1.4224-1.4224-1.4224z"/>
  </g>
  <path d="m-45.338 59.52-2.685 4.6145-0.41515-7.2879z" fill="#74acdf"/>
  <path d="m-9.7699 124.59-8.6944-8.565-1.4789-0.56526c-4.7314-1.8084-9.2399-4.306-13.168-7.2947l-1.4387-1.0946-4.0195 2.3267c-3.0652 1.7744-4.0548 2.289-4.1682 2.1677-0.21618-0.23115-18.719-32.327-18.777-32.57-0.03366-0.14309 0.45186-0.48484 1.6146-1.1365 0.9145-0.51254 1.664-0.97096 1.6655-1.0187 0.0015-0.04775-2.2104-2.2682-4.9155-4.9343l-4.9183-4.8475 17.123-17.382 0.69996-1.8173c4.9683-12.899 14.989-23.424 27.588-28.975 1.0799-0.47584 2.0241-0.86516 2.0983-0.86516 0.08834 0 0.13483-1.5377 0.13483-4.4597v-4.4597h9.5595l8.8916-9.0355 9.2164 9.0355h10.403l0.07014 8.9476 1.5975 0.69548c12.643 5.504 22.654 15.862 27.708 28.667l0.64506 1.6343 2.3309 2.2983c1.282 1.2641 5.1884 5.1181 8.681 8.5645l6.3501 6.2662-5.4684 5.5487c-3.0076 3.0518-5.4458 5.5702-5.4182 5.5966 0.02757 0.02632 1.0087 0.60133 2.1802 1.2778 1.1715 0.67643 2.1504 1.247 2.1753 1.2678 0.03678 0.03084-17.991 31.366-18.732 32.558l-0.21737 0.35001-8.8057-5.1052-0.85565 0.6572c-1.1537 0.8861-4.3008 2.9442-5.8105 3.7999-1.6899 0.9578-4.7312 2.3958-6.5233 3.0844l-1.4937 0.57393-2.306 2.3384c-1.2683 1.2861-5.124 5.1951-8.5682 8.6866l-6.2622 6.3482zm13.775-11.839c9.6937-1.2765 18.36-5.1758 25.294-11.381 0.65898-0.58969 1.2291-1.074 1.267-1.0763 0.03789-3e-3 1.6554 0.91547 3.5944 2.0394s3.5657 2.0076 3.6149 1.9636c0.10659-0.0954 12.988-22.398 13.09-22.664 0.04916-0.1281-1.0077-0.80299-3.4926-2.2304-1.9597-1.1257-3.5815-2.062-3.604-2.0808-0.02249-0.01877 0.11067-0.81157 0.29595-1.7618 0.64632-3.3147 0.7909-4.9084 0.8-8.8184 9e-3 -3.8678-0.10117-5.2376-0.67459-8.3869-3.0294-16.638-14.736-30.254-30.714-35.724l-1.6169-0.55353-0.07074-7.5213h-26.355v7.4435l-1.0651 0.33647c-15.177 4.7945-27.058 17.425-30.938 32.89-0.99501 3.9666-1.3435 6.9461-1.3392 11.449 0.0035 3.8069 0.1648 5.6273 0.77356 8.7394l0.30332 1.5506-3.6387 2.0974c-3.4968 2.0156-3.6317 2.1083-3.4599 2.3766 0.09838 0.15357 3.0441 5.2515 6.546 11.329 3.5019 6.0772 6.4126 11.101 6.4683 11.165 0.05563 0.0634 1.6671-0.78943 3.5811-1.8952l3.48-2.0105 1.5567 1.3654c7.8326 6.87 17.133 10.77 27.649 11.596 1.3812 0.10845 7.2473-0.0529 8.6532-0.23806z" stroke-width=".13313"/>
 </g>
 <metadata>
  <rdf:RDF>
   <cc:Work rdf:about="">
    <dc:title>Facility-57</dc:title>
   </cc:Work>
  </rdf:RDF>
 </metadata>
</svg>
