<?xml version="1.0" encoding="UTF-8"?>
<!-- Created with Inkscape (http://www.inkscape.org/) -->
<svg width="133.1mm" height="133.09mm" version="1.1" viewBox="0 0 133.1 133.09" xmlns="http://www.w3.org/2000/svg" xmlns:cc="http://creativecommons.org/ns#" xmlns:dc="http://purl.org/dc/elements/1.1/" xmlns:rdf="http://www.w3.org/1999/02/22-rdf-syntax-ns#">
 <title>Facility-17</title>
 <defs>
  <clipPath id="clipPath3105">
   <rect x="-68.688" y="182.12" width="8.075" height="39.855" fill="none" stroke="#f00" stroke-linecap="round" stroke-width=".67561"/>
  </clipPath>
  <style type="text/css"><![CDATA[
    .str0 {stroke:black;stroke-width:0.15;stroke-miterlimit:22.9256}
    .str1 {stroke:black;stroke-width:0.46;stroke-miterlimit:22.9256}
    .fil1 {fill:#f8d000}
    .fil3 {fill:none}
    .fil4 {fill:black}
    .fil5 {fill:none;fill-rule:nonzero}
   ]]></style>
  <clipPath id="clipPath16566">
   <path d="m-8.5801 116.28c-4.6025-0.83331-10.621-2.8465-14.797-4.9496-3.4515-1.7382-5.9167-3.3977-11.449-7.7076-1.2579-0.97994-1.3783-0.95352-4.802 1.053-1.9314 1.132-3.724 1.8399-3.9834 1.5731-0.59295-0.6098-13.622-23.097-13.607-23.485 6e-3 -0.15704 1.6802-1.2618 3.7205-2.455l3.7096-2.1694-0.45481-2.6581c-0.92131-5.3845-0.46724-16.531 0.8669-21.28 4.0828-14.534 13.303-25.786 26.507-32.348 2.1866-1.0866 4.934-2.2864 6.1054-2.6661l2.1298-0.69043v-7.8631h27.829v7.8519l3.919 1.4975c13.88 5.304 24.563 16.604 29.624 31.336 1.8696 5.4424 1.9246 5.8594 1.9388 14.688 8e-3 4.9979-0.158 9.8539-0.36887 10.791-0.36587 1.6261-0.20727 1.8078 3.4712 3.9756l3.8546 2.2716-6.5995 11.359c-3.6297 6.2474-6.7947 11.663-7.0332 12.034-0.31192 0.48597-1.5083 0.0997-4.2615-1.3759l-3.8279-2.0515-4.2119 3.2543c-5.1057 3.9449-11.885 7.3106-17.955 8.9145-5.0544 1.3354-15.808 1.917-20.325 1.0992z" fill="none" stroke="#f00" stroke-linecap="round" stroke-width="1.0733"/>
  </clipPath>
  <clipPath id="clipPath17219">
   <rect x="-47.834" y="192.98" width="9.2604" height="11.834" fill="none" stroke="#00f" stroke-linecap="round" stroke-width="1.1144"/>
  </clipPath>
 </defs>
 <path d="m58.827 116.35c-4.6025-0.83331-10.621-2.8465-14.797-4.9496-3.4515-1.7382-5.9167-3.3977-11.449-7.7076-1.2579-0.97993-1.3783-0.95352-4.802 1.053-1.9314 1.132-3.724 1.8399-3.9834 1.5731-0.59295-0.6098-13.622-23.097-13.607-23.485 6e-3 -0.15704 1.6802-1.2618 3.7205-2.455l3.7096-2.1694-0.45481-2.6581c-0.92131-5.3845-0.46724-16.531 0.8669-21.28 4.0828-14.534 13.303-25.786 26.507-32.348 2.1866-1.0866 4.934-2.2864 6.1054-2.6661l2.1298-0.69043v-7.8631h27.829v7.8519l3.919 1.4975c13.88 5.304 24.563 16.604 29.624 31.336 1.8696 5.4424 1.9246 5.8594 1.9388 14.688 8e-3 4.9979-0.158 9.8539-0.36887 10.791-0.36587 1.6261-0.20727 1.8078 3.4712 3.9756l3.8546 2.2716-6.5995 11.359c-3.6297 6.2474-6.7947 11.663-7.0332 12.034-0.31192 0.48597-1.5083 0.0997-4.2615-1.3759l-3.8278-2.0515-4.2119 3.2543c-5.1057 3.9449-11.885 7.3106-17.955 8.9145-5.0544 1.3354-15.808 1.917-20.325 1.0992z" fill="#c81010"/>
 <rect transform="translate(68.068 -.058754)" x="-30.115" y="12.892" width="56.91" height="102.3" clip-path="url(#clipPath16566)" fill="#183070"/>
 <g transform="translate(68.068 -.058754)" fill="#fff" stroke="#fff" stroke-width="2">
  <path d="m-29.13 28.24v77.496"/>
  <path d="m26.456 28.78v76.06"/>
  <path d="m-1.5148 115.11v-102.37"/>
 </g>
 <path transform="matrix(1.346 0 0 1.346 -95.232 -170.3)" d="m-40.04 160.5c-8.8995 1.1719-17.126 3.7986-24.077 9.7567-20.258 17.364-18.838 50.468 3.175 65.748 4.085 2.8353 8.6656 4.9548 13.494 6.1674 5.0057 1.2573 10.235 1.6073 15.346 0.95514 19.884-2.5379 35.619-19.189 36.502-39.348 1.0231-23.363-20.099-46.485-44.44-43.279m2.6458 41.956c-3.9166-2.7588-8.6183-7.4605-11.377-11.377 1.828 0 4.4143 0.5342 5.8208-0.79375h-7.4083v7.1438h0.79375v-5.5562c3.1321 2.2064 5.7584 5.4938 8.4667 8.2021 1.1337 1.1337 2.9766 2.4281 3.5446 3.9688 1.1015 2.9877 0.15954 7.9274 0.15954 11.112v25.135c-1.8682-5e-3 -7.5134 0.16325-8.7238-1.4721-1.2102-1.6349-0.27199-6.8276-0.27199-8.8466v-23.812h0.26458l2.1167 2.9104-2.9104-5.2917-2.6458 5.2917 2.1167-2.9104h0.26458v32.544c-2.0418-0.17833-8.2616-1.8052-8.9117-4.0243-0.51435-1.7552-0.08414-4.2042-0.08414-6.0299v-45.244c0-4.2246-1.1002-10.189 0.08414-14.232 0.65008-2.2191 6.8699-3.846 8.9117-4.0243v14.817h-0.26458l-2.1167-2.3812 2.6458 5.0271h0.26458l2.6458-5.0271-1.0583-0.26458-1.0583 2.6458c-1.2189-2.9051-0.26458-7.9523-0.26458-11.112 0-1.0198-0.36671-2.9568 0.27199-3.8195 1.0141-1.3703 4.8117-1.1213 6.3426-1.3198 0.64823-0.0841 1.6264-0.33618 2.1093 0.27194 0.51356 0.64675 0.27199 1.9816 0.27199 2.7508v35.719m10.848-0.26459h-0.26458l-2.1167-2.9104 3.175 5.0271 2.3812-5.0271-2.1167 2.9104h-0.26458v-36.777c2.1815 0.50488 7.6473 1.9995 8.5717 4.2611 0.50615 1.2385 0.15954 3.1497 0.15954 4.4702v55.033c0 1.4621 0.39979 3.6306-0.15954 4.9993-0.92445 2.2617-6.3905 3.7563-8.5717 4.2611v-11.906h0.26458l2.1167 2.9104-2.3812-5.0271-3.175 5.0271h1.0583l1.0583-2.9104h0.26458v8.9958c0 0.88397 0.30903 2.5292-0.42413 3.1914-1.7105 1.5446-6.378 1.2938-8.5717 1.5711v-34.396c3.8312 2.6988 8.4137 7.2816 11.112 11.112h-5.5562v0.79375h7.1437v-7.4083c-1.3279 1.4065-0.79375 3.9928-0.79375 5.8208-2.9382-2.0698-5.3975-5.1329-7.9375-7.6729-1.1867-1.1866-2.9377-2.4506-3.6968-3.9688-1.3036-2.6069-0.27199-7.9438-0.27199-10.848v-20.373c0-3.0535-0.60193-6.8579 0.26458-9.7896 1.9632 0.36446 7.1546 0.0308 8.4593 1.7433 0.50747 0.6659 0.27199 1.9712 0.27199 2.7546v34.131m-31.75-32.015v63.5c-3.8197-1.815-6.9844-5.4158-9.4907-8.7312-9.7991-12.963-10.21-31.707-0.75107-44.979 2.6513-3.7203 6.0304-7.7885 10.242-9.7896m43.656 0.79375c16.351 10.216 19.732 33.712 10.929 49.742-2.4043 4.3773-6.4474 10.162-11.193 12.171v-56.092l0.26458-5.8208m-49.999 11.908c-1.5463 0.0228-1.5202 2.3876-0.0065 2.4998 1.7545 0.12991 1.7009-2.5246 0.0065-2.4998m56.356-0.0236c-1.6656 0.15028-1.3716 2.6562 0.24924 2.4926 1.6357-0.16484 1.4108-2.6427-0.24924-2.4926m-57.129 7.3623c-2.1555 0.91044-0.68114 4.4379 1.5471 3.5745 2.4396-0.94536 0.82994-4.5784-1.5471-3.5745m56.343 0.0757c-2.2003 1.1882-0.3646 4.5723 1.8076 3.3835 2.182-1.1941 0.37835-4.5643-1.8076-3.3835m-56.635 8.6553c-3.4299 1.3274-1.178 6.4498 2.1114 5.0927 3.1591-1.3033 1.2006-6.3743-2.1114-5.0927m56.621 0c-3.4301 1.3274-1.1782 6.4492 2.1114 5.0927 3.3123-1.366 1.1927-6.3712-2.1114-5.0927m-56.088 10.852c-2.3558 0.8636-1.1225 4.5109 1.3127 3.6076 2.3294-0.86413 0.99272-4.4529-1.3127-3.6076m56.363 0c-2.4802 0.92789-0.96679 4.6379 1.547 3.5716 2.1405-0.90805 0.63077-4.3865-1.547-3.5716m-56.329 9.0789c-1.5034 0.78846-0.23524 2.9668 1.2225 2.0892 1.3703-0.82523 0.12906-2.798-1.2225-2.0892m56.377-7e-3c-1.4774 0.83529-0.23654 2.9213 1.2226 2.0928 1.3983-0.79401 0.12012-2.8519-1.2226-2.0928z" clip-path="url(#clipPath3105)" fill="#f00"/>
 <path transform="scale(.26458)" d="m107.54 170.99c-8.4729 0.76452-6.9762 13.512 1.2695 12.68 8.321-0.8386 7.1754-13.443-1.2695-12.68zm1.0059 36.588c-1.5727-0.06132-3.2624 0.31138-5 1.25-11.193 6.045-1.8554 23.261 9.1953 17.213 9.366-5.1253 4.2974-18.132-4.1953-18.463zm0.90625 44.242c-1.8706-0.08737-3.8774 0.22608-5.9785 1.0391-17.45 6.7529-5.9924 32.809 10.742 25.908 14.744-6.0807 8.3304-26.336-4.7637-26.947zm-1.5664 55.629c-0.96641 0.0335-1.975 0.23048-3.0137 0.61915-12.618 4.7202-4.9173 23.592 7.8711 18.168 9.8683-4.1863 4.4846-19.111-4.8574-18.787zm-0.24414 45.953c-0.81766 0.0754-1.6656 0.33371-2.5195 0.81641-7.516 4.2493-1.2026 14.861 6.2207 10.646 6.2243-3.5343 2.0224-11.991-3.7012-11.463zm20.627 14.654c-0.21837 0.37902-0.45505 0.76855-0.67773 1.1504h0.67773v-1.1504z" fill="#f8d000" stroke-width="3.7795"/>
 <path transform="scale(.26458)" d="m395.58 170.99c-8.4729 0.76453-6.9781 13.512 1.2676 12.68 8.321-0.8386 7.1773-13.443-1.2676-12.68zm1.0059 36.588c-1.5727-0.06132-3.2643 0.31138-5.002 1.25-11.193 6.045-1.8535 23.261 9.1973 17.213 9.366-5.1253 4.2974-18.132-4.1953-18.463zm0.90625 44.242c-1.8706-0.08737-3.8774 0.22609-5.9785 1.0391-17.45 6.7529-5.9944 32.809 10.74 25.908 14.744-6.0807 8.3323-26.336-4.7617-26.947zm-1.5664 55.629c-0.96642 0.0335-1.975 0.23047-3.0137 0.61914-12.618 4.7202-4.9193 23.592 7.8691 18.168 9.8683-4.1863 4.4865-19.111-4.8555-18.787zm-0.24415 45.953c-0.81765 0.07541-1.6676 0.33372-2.5215 0.81641-7.516 4.2493-1.2026 14.863 6.2207 10.648 6.2243-3.5343 2.0244-11.993-3.6992-11.465zm20.625 14.656c-0.21795 0.37828-0.45354 0.76737-0.67578 1.1484h0.67578v-1.1484z" fill="#f8d000" stroke-width="3.7795"/>
 <path transform="matrix(1.346 0 0 1.346 117.93 -204.59)" d="m-40.04 160.5c-8.8995 1.1719-17.126 3.7986-24.077 9.7567-20.258 17.364-18.838 50.468 3.175 65.748 4.085 2.8353 8.6656 4.9548 13.494 6.1674 5.0057 1.2573 10.235 1.6073 15.346 0.95514 19.884-2.5379 35.619-19.189 36.502-39.348 1.0231-23.363-20.099-46.485-44.44-43.279m2.6458 41.956c-3.9166-2.7588-8.6183-7.4605-11.377-11.377 1.828 0 4.4143 0.5342 5.8208-0.79375h-7.4083v7.1438h0.79375v-5.5562c3.1321 2.2064 5.7584 5.4938 8.4667 8.2021 1.1337 1.1337 2.9766 2.4281 3.5446 3.9688 1.1015 2.9877 0.15954 7.9274 0.15954 11.112v25.135c-1.8682-5e-3 -7.5134 0.16325-8.7238-1.4721-1.2102-1.6349-0.27199-6.8276-0.27199-8.8466v-23.812h0.26458l2.1167 2.9104-2.9104-5.2917-2.6458 5.2917 2.1167-2.9104h0.26458v32.544c-2.0418-0.17833-8.2616-1.8052-8.9117-4.0243-0.51435-1.7552-0.08414-4.2042-0.08414-6.0299v-45.244c0-4.2246-1.1002-10.189 0.08414-14.232 0.65008-2.2191 6.8699-3.846 8.9117-4.0243v14.817h-0.26458l-2.1167-2.3812 2.6458 5.0271h0.26458l2.6458-5.0271-1.0583-0.26458-1.0583 2.6458c-1.2189-2.9051-0.26458-7.9523-0.26458-11.112 0-1.0198-0.36671-2.9568 0.27199-3.8195 1.0141-1.3703 4.8117-1.1213 6.3426-1.3198 0.64823-0.0841 1.6264-0.33618 2.1093 0.27194 0.51356 0.64675 0.27199 1.9816 0.27199 2.7508v35.719m10.848-0.26459h-0.26458l-2.1167-2.9104 3.175 5.0271 2.3812-5.0271-2.1167 2.9104h-0.26458v-36.777c2.1815 0.50488 7.6473 1.9995 8.5717 4.2611 0.50615 1.2385 0.15954 3.1497 0.15954 4.4702v55.033c0 1.4621 0.39979 3.6306-0.15954 4.9993-0.92445 2.2617-6.3905 3.7563-8.5717 4.2611v-11.906h0.26458l2.1167 2.9104-2.3812-5.0271-3.175 5.0271h1.0583l1.0583-2.9104h0.26458v8.9958c0 0.88397 0.30903 2.5292-0.42413 3.1914-1.7105 1.5446-6.378 1.2938-8.5717 1.5711v-34.396c3.8312 2.6988 8.4137 7.2816 11.112 11.112h-5.5562v0.79375h7.1437v-7.4083c-1.3279 1.4065-0.79375 3.9928-0.79375 5.8208-2.9382-2.0698-5.3975-5.1329-7.9375-7.6729-1.1867-1.1866-2.9377-2.4506-3.6968-3.9688-1.3036-2.6069-0.27199-7.9438-0.27199-10.848v-20.373c0-3.0535-0.60193-6.8579 0.26458-9.7896 1.9632 0.36446 7.1546 0.0308 8.4593 1.7433 0.50747 0.6659 0.27199 1.9712 0.27199 2.7546v34.131m-31.75-32.015v63.5c-3.8197-1.815-6.9844-5.4158-9.4907-8.7312-9.7991-12.963-10.21-31.707-0.75107-44.979 2.6513-3.7203 6.0304-7.7885 10.242-9.7896m43.656 0.79375c16.351 10.216 19.732 33.712 10.929 49.742-2.4043 4.3773-6.4474 10.162-11.193 12.171v-56.092l0.26458-5.8208m-49.999 11.908c-1.5463 0.0228-1.5202 2.3876-0.0065 2.4998 1.7545 0.12991 1.7009-2.5246 0.0065-2.4998m56.356-0.0236c-1.6656 0.15028-1.3716 2.6562 0.24924 2.4926 1.6357-0.16484 1.4108-2.6427-0.24924-2.4926m-57.129 7.3623c-2.1555 0.91044-0.68114 4.4379 1.5471 3.5745 2.4396-0.94536 0.82994-4.5784-1.5471-3.5745m56.343 0.0757c-2.2003 1.1882-0.3646 4.5723 1.8076 3.3835 2.182-1.1941 0.37835-4.5643-1.8076-3.3835m-56.635 8.6553c-3.4299 1.3274-1.178 6.4498 2.1114 5.0927 3.1591-1.3033 1.2006-6.3743-2.1114-5.0927m56.621 0c-3.4301 1.3274-1.1782 6.4492 2.1114 5.0927 3.3123-1.366 1.1927-6.3712-2.1114-5.0927m-56.088 10.852c-2.3558 0.8636-1.1225 4.5109 1.3127 3.6076 2.3294-0.86413 0.99272-4.4529-1.3127-3.6076m56.363 0c-2.4802 0.92789-0.96679 4.6379 1.547 3.5716 2.1405-0.90805 0.63077-4.3865-1.547-3.5716m-56.329 9.0789c-1.5034 0.78846-0.23524 2.9668 1.2225 2.0892 1.3703-0.82523 0.12906-2.798-1.2225-2.0892m56.377-7e-3c-1.4774 0.83529-0.23654 2.9213 1.2226 2.0928 1.3983-0.79401 0.12012-2.8519-1.2226-2.0928z" clip-path="url(#clipPath17219)" fill="#e6e6e6"/>
 <g fill="#fff">
  <g stroke-width="3.7795">
   <path transform="scale(.26458)" d="m253.26 252.1v6.3945c19.338 13.792 42.231 36.748 55.785 55.99h-28.266v4.0371h36.342v-37.688c-6.7555 7.1554-4.0371 20.312-4.0371 29.611-14.947-10.53-27.459-26.113-40.381-39.035-5.8054-5.8054-14.254-11.977-18.328-19.311h-1.1152z"/>
   <path transform="scale(.26458)" d="m307.15 359.77-16.15 25.574h5.3828l5.3848-14.807h1.3457v45.762c0 2.5496 0.47844 6.3317 0.23633 9.7539h3.8027v-55.516h1.3457l10.768 14.807-12.115-25.574z"/>
   <path transform="scale(.26458)" d="m199.06 318.2-13.461 26.92 10.768-14.805h1.3457v97.883h4.0391v-97.883h1.3457l10.768 14.805-14.805-26.92z"/>
   <path transform="scale(.26458)" d="m303.11 72.346v103.46l0.00391 0.0039h-1.3457l-10.768-14.805 16.15 25.574 12.115-25.574-10.768 14.805h-1.3457v-103.46h-4.043z"/>
  </g>
  <path d="m52.312 16.251v18.759h-0.35657l-2.8489-3.205 3.5615 6.7665h0.35605l3.561-6.7665-1.4242-0.35605-1.4247 3.561c-1.6407-3.9103-0.35605-10.704-0.35605-14.957 0-0.96882-0.23765-2.546-0.0801-3.8024z"/>
 </g>
 <path d="m58.298 124.53-8.6944-8.565-1.4789-0.56526c-4.7314-1.8084-9.2399-4.306-13.168-7.2947l-1.4387-1.0946-4.0195 2.3267c-3.0652 1.7744-4.0548 2.289-4.1682 2.1677-0.21618-0.23115-18.719-32.327-18.777-32.57-0.03366-0.14309 0.45186-0.48484 1.6146-1.1365 0.9145-0.51254 1.664-0.97096 1.6655-1.0187 0.0015-0.04775-2.2104-2.2682-4.9155-4.9343l-4.9183-4.8475 17.123-17.382 0.69996-1.8173c4.9683-12.899 14.989-23.424 27.588-28.975 1.0799-0.47584 2.0241-0.86516 2.0983-0.86516 0.08834 0 0.13483-1.5377 0.13483-4.4597v-4.4597h9.5595l8.8916-9.0355 9.2164 9.0355h10.403l0.07014 8.9476 1.5975 0.69548c12.643 5.504 22.654 15.862 27.708 28.667l0.64506 1.6343 2.3309 2.2983c1.282 1.2641 5.1884 5.1181 8.681 8.5645l6.3501 6.2662-5.4684 5.5487c-3.0076 3.0518-5.4458 5.5702-5.4182 5.5966 0.0276 0.02632 1.0087 0.60133 2.1802 1.2778 1.1715 0.67643 2.1504 1.247 2.1753 1.2678 0.0368 0.03084-17.991 31.366-18.732 32.558l-0.21737 0.35001-8.8057-5.1052-0.85565 0.6572c-1.1537 0.8861-4.3008 2.9442-5.8105 3.7999-1.6899 0.9578-4.7312 2.3958-6.5233 3.0844l-1.4937 0.57393-2.306 2.3384c-1.2683 1.2861-5.124 5.1951-8.5682 8.6866l-6.2622 6.3482zm13.775-11.839c9.6937-1.2765 18.36-5.1758 25.294-11.381 0.65898-0.58969 1.2291-1.074 1.267-1.0763 0.03789-3e-3 1.6554 0.91547 3.5944 2.0394s3.5657 2.0076 3.6149 1.9636c0.10659-0.0954 12.988-22.398 13.09-22.664 0.0492-0.1281-1.0077-0.80299-3.4926-2.2304-1.9597-1.1257-3.5815-2.062-3.604-2.0808-0.0225-0.01877 0.11067-0.81157 0.29595-1.7618 0.64632-3.3147 0.7909-4.9084 0.8-8.8184 9e-3 -3.8678-0.10117-5.2376-0.67459-8.3869-3.0294-16.638-14.736-30.254-30.714-35.724l-1.6169-0.55353-0.07074-7.5213h-26.355v7.4435l-1.0651 0.33647c-15.177 4.7945-27.058 17.425-30.938 32.89-0.99501 3.9666-1.3435 6.9461-1.3392 11.449 0.0035 3.8069 0.1648 5.6273 0.77356 8.7394l0.30332 1.5506-3.6387 2.0974c-3.4968 2.0156-3.6317 2.1083-3.4599 2.3766 0.09838 0.15357 3.0441 5.2515 6.546 11.329 3.5019 6.0772 6.4126 11.101 6.4683 11.165 0.05563 0.0634 1.6671-0.78943 3.5811-1.8952l3.48-2.0105 1.5567 1.3654c7.8326 6.87 17.133 10.77 27.649 11.596 1.3812 0.10845 7.2473-0.0529 8.6532-0.23806z" stroke-width=".13313"/>
 <g transform="translate(68.068 -.058754)" stroke="#fff" aria-label="7">
  <path d="m20.693 52.381h-18.373c-0.98778 0-1.4224 0.43462-1.4224 1.4224v4.7808c0 0.98778 0.43462 1.4224 1.4224 1.4224h10.826v3.556l-3.2004 0.86924c-4.2277 1.2644-6.1637 2.8053-6.1637 7.8232v7.1515c0 0.98778 0.43462 1.4224 1.4224 1.4224h6.4008c0.98778 0 1.4224-0.43462 1.4224-1.4224v-6.9144l2.9238-0.86924c4.2277-1.2644 6.1637-2.8053 6.1637-7.8232v-9.9963c0-0.98778-0.43462-1.4224-1.4224-1.4224z"/>
 </g>
 <g transform="translate(68.068 -.058754)" stroke="#fff" aria-label="1">
  <path d="m-5.1861 80.829c0.98778 0 1.4224-0.43462 1.4224-1.4224v-4.7808c0-0.98778-0.43462-1.4224-1.4224-1.4224h-3.7931v-19.4c0-0.98778-0.43462-1.4224-1.4224-1.4224h-11.458c-0.98778 0-1.4224 0.43462-1.4224 1.4224v4.7808c0 0.98778 0.43462 1.4224 1.4224 1.4224h3.635v13.197h-4.4252c-0.98778 0-1.4224 0.43462-1.4224 1.4224v4.7808c0 0.98778 0.43462 1.4224 1.4224 1.4224z"/>
 </g>
 <metadata>
  <rdf:RDF>
   <cc:Work rdf:about="">
    <dc:title>Facility-17</dc:title>
   </cc:Work>
  </rdf:RDF>
 </metadata>
</svg>
