<?xml version="1.0" encoding="UTF-8"?>
<!-- Created with Inkscape (http://www.inkscape.org/) -->
<svg width="133.1mm" height="133.09mm" version="1.1" viewBox="0 0 133.1 133.09" xmlns="http://www.w3.org/2000/svg" xmlns:cc="http://creativecommons.org/ns#" xmlns:dc="http://purl.org/dc/elements/1.1/" xmlns:rdf="http://www.w3.org/1999/02/22-rdf-syntax-ns#">
 <title>Facility-20</title>
 <defs>
  <clipPath id="clipPath1753">
   <ellipse cx="-21.262" cy="199.62" rx="37.9" ry="37.818" fill="none" stroke="#f00" stroke-linecap="round" stroke-width="1.0177"/>
  </clipPath>
  <clipPath id="clipPath2120">
   <rect x="-50.899" y="214.04" width="5.5432" height="10.021" fill="none" stroke="#000" stroke-linecap="round" stroke-width=".37284"/>
  </clipPath>
  <clipPath id="clipPath2120-9">
   <rect x="-50.899" y="214.04" width="5.5432" height="10.021" fill="none" stroke="#000" stroke-linecap="round" stroke-width=".37284"/>
  </clipPath>
  <clipPath id="clipPath10410">
   <path d="m-9.3864 115.63c-4.6025-0.83331-10.621-2.8465-14.797-4.9496-3.4515-1.7382-5.9167-3.3977-11.449-7.7076-1.2579-0.97993-1.3783-0.95352-4.802 1.053-1.9314 1.132-3.724 1.8399-3.9834 1.5731-0.59295-0.6098-13.622-23.097-13.607-23.485 6e-3 -0.15704 1.6802-1.2618 3.7205-2.455l3.7096-2.1694-0.45481-2.6581c-0.92131-5.3845-0.46724-16.531 0.8669-21.28 4.0828-14.534 13.303-25.786 26.507-32.348 2.1866-1.0866 4.934-2.2864 6.1054-2.6661l2.1298-0.69043v-7.8631h27.829v7.8519l3.919 1.4975c13.88 5.304 24.563 16.604 29.624 31.336 1.8696 5.4424 1.9246 5.8594 1.9388 14.688 8e-3 4.9979-0.15801 9.8539-0.36887 10.791-0.36587 1.6261-0.20727 1.8078 3.4712 3.9756l3.8546 2.2716-6.5995 11.359c-3.6297 6.2473-6.7947 11.663-7.0332 12.034-0.31192 0.48597-1.5083 0.0997-4.2615-1.3759l-3.8278-2.0515-4.2119 3.2543c-5.1057 3.9449-11.885 7.3106-17.955 8.9145-5.0544 1.3354-15.808 1.917-20.325 1.0992z" fill="none" stroke="#f0f" stroke-linecap="round" stroke-width="1.0733"/>
  </clipPath>
  <clipPath id="clipPath10414">
   <path d="m-9.3864 115.63c-4.6025-0.83331-10.621-2.8465-14.797-4.9496-3.4515-1.7382-5.9167-3.3977-11.449-7.7076-1.2579-0.97993-1.3783-0.95352-4.802 1.053-1.9314 1.132-3.724 1.8399-3.9834 1.5731-0.59295-0.6098-13.622-23.097-13.607-23.485 6e-3 -0.15704 1.6802-1.2618 3.7205-2.455l3.7096-2.1694-0.45481-2.6581c-0.92131-5.3845-0.46724-16.531 0.8669-21.28 4.0828-14.534 13.303-25.786 26.507-32.348 2.1866-1.0866 4.934-2.2864 6.1054-2.6661l2.1298-0.69043v-7.8631h27.829v7.8519l3.919 1.4975c13.88 5.304 24.563 16.604 29.624 31.336 1.8696 5.4424 1.9246 5.8594 1.9388 14.688 8e-3 4.9979-0.15801 9.8539-0.36887 10.791-0.36587 1.6261-0.20727 1.8078 3.4712 3.9756l3.8546 2.2716-6.5995 11.359c-3.6297 6.2473-6.7947 11.663-7.0332 12.034-0.31192 0.48597-1.5083 0.0997-4.2615-1.3759l-3.8278-2.0515-4.2119 3.2543c-5.1057 3.9449-11.885 7.3106-17.955 8.9145-5.0544 1.3354-15.808 1.917-20.325 1.0992z" fill="none" stroke="#f0f" stroke-linecap="round" stroke-width="1.0733"/>
  </clipPath>
  <clipPath id="clipPath10418">
   <path d="m-9.3864 115.63c-4.6025-0.83331-10.621-2.8465-14.797-4.9496-3.4515-1.7382-5.9167-3.3977-11.449-7.7076-1.2579-0.97993-1.3783-0.95352-4.802 1.053-1.9314 1.132-3.724 1.8399-3.9834 1.5731-0.59295-0.6098-13.622-23.097-13.607-23.485 6e-3 -0.15704 1.6802-1.2618 3.7205-2.455l3.7096-2.1694-0.45481-2.6581c-0.92131-5.3845-0.46724-16.531 0.8669-21.28 4.0828-14.534 13.303-25.786 26.507-32.348 2.1866-1.0866 4.934-2.2864 6.1054-2.6661l2.1298-0.69043v-7.8631h27.829v7.8519l3.919 1.4975c13.88 5.304 24.563 16.604 29.624 31.336 1.8696 5.4424 1.9246 5.8594 1.9388 14.688 8e-3 4.9979-0.15801 9.8539-0.36887 10.791-0.36587 1.6261-0.20727 1.8078 3.4712 3.9756l3.8546 2.2716-6.5995 11.359c-3.6297 6.2473-6.7947 11.663-7.0332 12.034-0.31192 0.48597-1.5083 0.0997-4.2615-1.3759l-3.8278-2.0515-4.2119 3.2543c-5.1057 3.9449-11.885 7.3106-17.955 8.9145-5.0544 1.3354-15.808 1.917-20.325 1.0992z" fill="none" stroke="#f0f" stroke-linecap="round" stroke-width="1.0733"/>
  </clipPath>
  <clipPath id="clipPath10422">
   <path d="m-9.3864 115.63c-4.6025-0.83331-10.621-2.8465-14.797-4.9496-3.4515-1.7382-5.9167-3.3977-11.449-7.7076-1.2579-0.97993-1.3783-0.95352-4.802 1.053-1.9314 1.132-3.724 1.8399-3.9834 1.5731-0.59295-0.6098-13.622-23.097-13.607-23.485 6e-3 -0.15704 1.6802-1.2618 3.7205-2.455l3.7096-2.1694-0.45481-2.6581c-0.92131-5.3845-0.46724-16.531 0.8669-21.28 4.0828-14.534 13.303-25.786 26.507-32.348 2.1866-1.0866 4.934-2.2864 6.1054-2.6661l2.1298-0.69043v-7.8631h27.829v7.8519l3.919 1.4975c13.88 5.304 24.563 16.604 29.624 31.336 1.8696 5.4424 1.9246 5.8594 1.9388 14.688 8e-3 4.9979-0.15801 9.8539-0.36887 10.791-0.36587 1.6261-0.20727 1.8078 3.4712 3.9756l3.8546 2.2716-6.5995 11.359c-3.6297 6.2473-6.7947 11.663-7.0332 12.034-0.31192 0.48597-1.5083 0.0997-4.2615-1.3759l-3.8278-2.0515-4.2119 3.2543c-5.1057 3.9449-11.885 7.3106-17.955 8.9145-5.0544 1.3354-15.808 1.917-20.325 1.0992z" fill="none" stroke="#f0f" stroke-linecap="round" stroke-width="1.0733"/>
  </clipPath>
 </defs>
 <g transform="translate(68.068 -.058754)">
  <path d="m-9.2413 116.41c-4.6025-0.83331-10.621-2.8465-14.797-4.9496-3.4515-1.7382-5.9167-3.3977-11.449-7.7076-1.2579-0.97993-1.3783-0.95352-4.802 1.053-1.9314 1.132-3.724 1.8399-3.9834 1.5731-0.59295-0.6098-13.622-23.097-13.607-23.485 6e-3 -0.15704 1.6802-1.2618 3.7205-2.455l3.7096-2.1694-0.45481-2.6581c-0.92131-5.3845-0.46724-16.531 0.8669-21.28 4.0828-14.534 13.303-25.786 26.507-32.348 2.1866-1.0866 4.934-2.2864 6.1054-2.6661l2.1298-0.69043v-7.8631h27.829v7.8519l3.919 1.4975c13.88 5.304 24.563 16.604 29.624 31.336 1.8696 5.4424 1.9246 5.8594 1.9388 14.688 8e-3 4.9979-0.158 9.8539-0.36887 10.791-0.36587 1.6261-0.20727 1.8078 3.4712 3.9756l3.8546 2.2716-6.5995 11.359c-3.6297 6.2474-6.7947 11.663-7.0332 12.034-0.31192 0.48597-1.5083 0.0997-4.2615-1.3759l-3.8278-2.0515-4.2119 3.2543c-5.1057 3.9449-11.885 7.3106-17.955 8.9145-5.0544 1.3354-15.808 1.917-20.325 1.0992z" fill="#00209f"/>
  <rect x="-21.791" y="46.61" width="38.935" height="40.559" fill="#016a16"/>
  <g fill="#d21034">
   <rect x="-46.504" y="22.393" width="25.224" height="24.459" clip-path="url(#clipPath10422)"/>
   <rect x="18.237" y="22.682" width="25.224" height="24.459" clip-path="url(#clipPath10418)"/>
   <rect x="17.928" y="86.641" width="33.801" height="24.459" clip-path="url(#clipPath10414)"/>
   <rect x="-54.499" y="86.641" width="33.801" height="24.459" clip-path="url(#clipPath10410)"/>
  </g>
  <g fill="#fff">
   <path transform="matrix(1.2263 0 0 1.2263 24.555 -178.2)" d="m-24.035 158.3c-9.1922 1.2069-17.472 3.7597-24.606 10.018-19.767 17.338-18.592 49.661 2.9104 65.123 3.7405 2.6895 7.9931 4.8525 12.435 6.1256 5.5687 1.5957 11.458 2.0675 17.198 1.3602 19.792-2.4384 35.366-19.456 36.238-39.347 1.016-23.201-19.906-46.466-44.175-43.279m18.256 25.023c-5.8738 0-11.789-1.8291-15.346-6.8792h-0.26458c-3.4695 4.9252-9.5927 6.8792-15.346 6.8792v-13.494c0-1.2756-0.52176-4.0475 0.27199-5.1059 0.88159-1.1756 3.9251-1.5796 5.2843-1.9601 5.9539-1.6669 12.79-1.7086 18.785-0.21661 1.5812 0.39346 5.3959 0.94133 6.3426 2.3664 0.77708 1.1697 0.27199 3.8198 0.27199 5.1808v13.229m-25.665-7.6729 6.8792-5.0826 3.175-2.0628 2.9104 1.7282 7.4083 5.4172c0-4.1406-3.6002-5.5689-6.6146-7.9375-0.91625-0.71999-2.4471-2.3956-3.7042-2.3176-1.2128 0.0753-2.5194 1.5863-3.4396 2.2833-3.0797 2.3328-6.6146 3.8128-6.6146 7.9718m-6.35-10.319v17.992h-17.992c0.72509-1.1184 2.23-0.79375 3.4396-0.79375 2.3218 0 6.7287 0.84005 8.7312-0.42412 1.5321-0.96732 4.2333-3.4125 4.8675-5.1321 1.3004-3.5274-0.65061-8.0059 0.42413-11.642h0.52917m33.338 0c1.8283 3.4261-0.62256 8.0846 0.68871 11.642 0.63182 1.7137 2.9665 3.5647 4.3384 4.7233 2.0145 1.7013 6.4807 0.83291 8.9958 0.83291 1.2097 0 2.7146-0.32464 3.4396 0.79375h-17.727v-12.435l0.26458-5.5562m-35.19 0.79375c0 5.204 1.5547 13.122-4.7625 15.451-2.855 1.0525-7.5399 0.15954-10.583 0.15954 0.54805-1.3634 1.8956-1.0583 3.175-1.0583 2.1733 0 5.5592 0.64823 7.4044-0.67964 2.9516-2.1242 3.4435-4.0994 3.4435-7.5224 0-2.045-0.72205-5.2027 1.3229-6.35m51.858 15.61c-2.971 0-7.5311 0.8681-10.319-0.15954-6.3937-2.3574-5.0271-9.9028-5.0271-15.186 2.2752 0.66003 1.5875 3.6585 1.5875 5.5562 0 3.5567 0.30295 6.6264 3.9688 8.4593 2.268 1.134 8.7215-1.327 9.7896 1.3303m-56.621-12.435c0.4091 1.384 1.0333 6.9352-0.1964 7.9301-1.3246 1.0718-5.7943 0.27194-7.4765 0.27194 0.83114-3.1961 4.9095-6.6065 7.6729-8.2021m46.302 0c2.5657 2.0823 6.536 4.8476 7.4083 8.2021-1.6568 0-5.9304 0.77216-7.2488-0.27194-1.103-0.87371-0.66728-6.7199-0.15954-7.9301m-21.431 14.288-1.5875 1.8521h-0.26458l-1.5875-1.8521h3.4396m-3.9688 0.26458c4.4805 4.5342-0.04366 8.2457-3.4396 11.642-1.2031 1.2031-2.6006 3.207-4.2333 3.8092-1.4917 0.54981-6.1172 0.39053-5.3811-2.2217 0.42386-1.5044 2.4606-2.9004 3.529-3.9688l3.9688-3.9688c1.7825-1.7825 3.4928-3.838 5.5562-5.2917m4.7625 0 9.2604 9.2604c1.0684 1.0684 3.1052 2.4643 3.529 3.9688 0.73607 2.6122-3.8894 2.7715-5.3811 2.2217-1.5407-0.56806-2.835-2.4109-3.9688-3.5446-3.0594-3.0594-8.9511-8.01-3.4396-11.906m-19.05 0.52917c0 4.0002-0.87894 7.5105-2.726 11.112-0.67749 1.3211-3.3447 2.7239-3.3447 4.2333s2.6672 2.9123 3.3447 4.2333c1.9024 3.71 2.726 7.261 2.726 11.377h-13.229c-1.361 0-4.0111 0.50509-5.1808-0.27199-1.425-0.94668-1.9729-4.7614-2.3664-6.3426-1.4919-5.9955-1.4503-12.832 0.21661-18.785 0.3805-1.3592 0.78444-4.4027 1.9601-5.2843 1.0583-0.79375 3.8303-0.27199 5.1059-0.27199h13.494m33.073 30.956c0-4.0053 0.44635-7.5189 2.418-11.112 0.74639-1.3605 3.6526-2.9125 3.6526-4.4979s-2.9062-3.1374-3.6526-4.4979c-1.9182-3.4962-2.418-6.9466-2.418-10.848h13.229c1.2756 0 4.0476-0.52176 5.1059 0.27199 1.1755 0.88159 1.5796 3.9251 1.96 5.2843 1.6751 5.9833 1.7156 12.761 0.21669 18.785-0.39344 1.5812-0.94139 5.3959-2.3664 6.3426-1.1697 0.77708-3.8198 0.27199-5.1808 0.27199h-12.965m-51.329-15.61v0.26458c2.9377 3.7044 5.4913 10.054 10.583 10.054l-5.3253-7.1438-1.929-3.0628 1.9656-3.0226 5.2888-7.1438c-5.0404 0-7.5692 6.5207-10.583 10.054m59.002-10.054 5.1528 7.1438 1.8939 2.9104-1.792 3.175-5.2546 7.1438c4.1346 0 5.3409-3.3287 7.6758-6.35 0.74983-0.97049 2.2913-2.4202 2.3831-3.7042 0.08837-1.2398-1.4798-2.7861-2.1836-3.7042-2.2847-2.9805-3.8481-6.6146-7.8753-6.6146m-24.606 2.9104v5.0271l-2.1167-1.5875c1.9021 2.6996 3.103 2.3246 5.0271 0l-2.1167 1.5875v-5.0271l7.4083 7.1438v0.26458c-2.1915 2.1916-3.4507 3.9743-5.5562 0.79375h2.3812v-0.52916h-3.7042v3.4396h0.52917v-2.3812c4.0267 1.8793 0.69585 4.3312-1.3229 6.35h-0.26458l-3.9688-3.9688v-0.26458l2.6458-2.1167v2.3812h0.26458v-3.4396h-3.4396v0.52916h2.3812l-2.1167 2.3812h-0.26458l-3.175-3.175v-0.26458l7.4083-7.1438m-14.817 6.35 0.79375 0.79375v0.26458l-1.0583 0.79375 0.26458-1.8521m30.692 0.26458v1.3229l-1.0583-0.52917 1.0583-0.79375m-17.463 16.669c-2.0635-1.4536-3.7738-3.5092-5.5562-5.2917l-3.9688-3.9688c-1.0774-1.0774-3.4388-2.6829-3.7698-4.2333-0.51382-2.4051 3.9042-2.4503 5.2819-1.9807 1.7481 0.59584 3.3351 2.9297 4.5733 4.2259 3.5676 3.7348 6.9715 6.1489 3.4396 11.248m11.906-15.451c1.3838-0.51012 6.3376-0.36513 5.2689 2.2217-0.50403 1.2197-1.9733 2.2606-2.8877 3.175l-6.35 6.35c-0.8927 0.89271-2.1698 2.7662-3.4396 3.0835-2.3916 0.59743-2.4352-4.168-1.9571-5.4647 0.96308-2.6117 4.7704-5.1956 6.7196-7.1438 0.77655-0.77629 1.5856-1.8307 2.6458-2.2217m-8.7312 15.451h-2.6458c0.90726-1.1864 1.9013-1.4706 2.6458 0m-17.462 0.52917v17.992c-1.1882-0.85698-0.79375-2.6347-0.79375-3.9688 0-3.0713 0.70617-6.3923-1.5888-8.7312-1.3677-1.3938-3.2612-4.1431-5.2903-4.4588-2.8037-0.43604-8.4985 1.2959-10.583-0.83291h18.256m16.14 6.6146h0.26458c3.5795-5.0816 9.2022-6.6146 15.081-6.6146v13.229c0 1.2756 0.52176 4.0476-0.27199 5.1059-0.88159 1.1756-3.9251 1.5796-5.2843 1.96-5.8626 1.6412-12.332 1.6423-18.256 0.33866-1.5558-0.34237-5.3843-0.88318-6.3426-2.2479-0.78661-1.12-0.27199-3.8333-0.27199-5.1567v-13.229c5.7682 0 11.584 1.6502 15.081 6.6146m34.396-6.6146c-2.0849 2.1288-7.7795 0.39687-10.583 0.83291-2.0114 0.313-3.9468 3.0583-5.2866 4.4588-2.0987 2.1937-1.3279 5.8838-1.3279 8.7312 0 1.2544 0.37095 2.949-0.79375 3.7042v-17.727h17.992m-52.123 16.933c-2.5115-0.83344-0.32967-7.1739-1.3264-9.2602-1.6848-3.5261-4.6926-4.4982-8.1986-4.4982-1.9665 0-5.3994 0.77734-6.0854-1.5875l9.7896 0.15954 3.4396 3.0155 2.2217 2.6458 0.15954 9.525m51.065-15.346c-0.86016 2.9649-6.8509 1.252-9.2604 1.6267-1.62 0.25188-3.7573 2.5916-4.603 3.9296-1.5534 2.4582 1.2999 8.2553-1.4825 9.7896 0-2.7532-0.79349-6.9395 0.15954-9.525 0.39105-1.0602 1.4454-1.8693 2.2217-2.6458 0.95647-0.957 1.9479-2.2894 3.175-2.903 2.3839-1.192 7.1379-0.27199 9.7896-0.27199m-55.827 4.7625v7.6729c-3.1171-1.3197-6.267-4.7797-7.9375-7.6729h7.9375m52.917 0c-1.7537 3.0372-4.712 5.8214-7.6729 7.6729v-7.6729h7.6729m-40.481 1.3229c0 4.0635 3.4033 5.4224 6.35 7.7788 0.95832 0.76624 2.4149 2.4604 3.7042 2.5416 1.2713 0.0802 2.7697-1.6063 3.7042-2.3207 2.8908-2.2103 6.6141-3.7891 6.6146-7.7351-2.6175 0.68051-5.03 3.3957-7.1437 5.03-0.78132 0.60405-2.013 1.9751-3.0628 1.9997-1.0091 0.0241-2.2762-1.3354-3.0226-1.9103-2.3289-1.7944-4.5752-3.9486-7.1438-5.384z" clip-path="url(#clipPath1753)"/>
   <path transform="matrix(2.6927 0 0 1.2263 84.786 -178.2)" d="m-24.035 158.3c-9.1922 1.2069-17.472 3.7597-24.606 10.018-19.767 17.338-18.592 49.661 2.9104 65.123 3.7405 2.6895 7.9931 4.8525 12.435 6.1256 5.5687 1.5957 11.458 2.0675 17.198 1.3602 19.792-2.4384 35.366-19.456 36.238-39.347 1.016-23.201-19.906-46.466-44.175-43.279m18.256 25.023c-5.8738 0-11.789-1.8291-15.346-6.8792h-0.26458c-3.4695 4.9252-9.5927 6.8792-15.346 6.8792v-13.494c0-1.2756-0.52176-4.0475 0.27199-5.1059 0.88159-1.1756 3.9251-1.5796 5.2843-1.9601 5.9539-1.6669 12.79-1.7086 18.785-0.21661 1.5812 0.39346 5.3959 0.94133 6.3426 2.3664 0.77708 1.1697 0.27199 3.8198 0.27199 5.1808v13.229m-25.665-7.6729 6.8792-5.0826 3.175-2.0628 2.9104 1.7282 7.4083 5.4172c0-4.1406-3.6002-5.5689-6.6146-7.9375-0.91625-0.71999-2.4471-2.3956-3.7042-2.3176-1.2128 0.0753-2.5194 1.5863-3.4396 2.2833-3.0797 2.3328-6.6146 3.8128-6.6146 7.9718m-6.35-10.319v17.992h-17.992c0.72509-1.1184 2.23-0.79375 3.4396-0.79375 2.3218 0 6.7287 0.84005 8.7312-0.42412 1.5321-0.96732 4.2333-3.4125 4.8675-5.1321 1.3004-3.5274-0.65061-8.0059 0.42413-11.642h0.52917m33.338 0c1.8283 3.4261-0.62256 8.0846 0.68871 11.642 0.63182 1.7137 2.9665 3.5647 4.3384 4.7233 2.0145 1.7013 6.4807 0.83291 8.9958 0.83291 1.2097 0 2.7146-0.32464 3.4396 0.79375h-17.727v-12.435l0.26458-5.5562m-35.19 0.79375c0 5.204 1.5547 13.122-4.7625 15.451-2.855 1.0525-7.5399 0.15954-10.583 0.15954 0.54805-1.3634 1.8956-1.0583 3.175-1.0583 2.1733 0 5.5592 0.64823 7.4044-0.67964 2.9516-2.1242 3.4435-4.0994 3.4435-7.5224 0-2.045-0.72205-5.2027 1.3229-6.35m51.858 15.61c-2.971 0-7.5311 0.8681-10.319-0.15954-6.3937-2.3574-5.0271-9.9028-5.0271-15.186 2.2752 0.66003 1.5875 3.6585 1.5875 5.5562 0 3.5567 0.30295 6.6264 3.9688 8.4593 2.268 1.134 8.7215-1.327 9.7896 1.3303m-56.621-12.435c0.4091 1.384 1.0333 6.9352-0.1964 7.9301-1.3246 1.0718-5.7943 0.27194-7.4765 0.27194 0.83114-3.1961 4.9095-6.6065 7.6729-8.2021m46.302 0c2.5657 2.0823 6.536 4.8476 7.4083 8.2021-1.6568 0-5.9304 0.77216-7.2488-0.27194-1.103-0.87371-0.66728-6.7199-0.15954-7.9301m-21.431 14.288-1.5875 1.8521h-0.26458l-1.5875-1.8521h3.4396m-3.9688 0.26458c4.4805 4.5342-0.04366 8.2457-3.4396 11.642-1.2031 1.2031-2.6006 3.207-4.2333 3.8092-1.4917 0.54981-6.1172 0.39053-5.3811-2.2217 0.42386-1.5044 2.4606-2.9004 3.529-3.9688l3.9688-3.9688c1.7825-1.7825 3.4928-3.838 5.5562-5.2917m4.7625 0 9.2604 9.2604c1.0684 1.0684 3.1052 2.4643 3.529 3.9688 0.73607 2.6122-3.8894 2.7715-5.3811 2.2217-1.5407-0.56806-2.835-2.4109-3.9688-3.5446-3.0594-3.0594-8.9511-8.01-3.4396-11.906m-19.05 0.52917c0 4.0002-0.87894 7.5105-2.726 11.112-0.67749 1.3211-3.3447 2.7239-3.3447 4.2333s2.6672 2.9123 3.3447 4.2333c1.9024 3.71 2.726 7.261 2.726 11.377h-13.229c-1.361 0-4.0111 0.50509-5.1808-0.27199-1.425-0.94668-1.9729-4.7614-2.3664-6.3426-1.4919-5.9955-1.4503-12.832 0.21661-18.785 0.3805-1.3592 0.78444-4.4027 1.9601-5.2843 1.0583-0.79375 3.8303-0.27199 5.1059-0.27199h13.494m33.073 30.956c0-4.0053 0.44635-7.5189 2.418-11.112 0.74639-1.3605 3.6526-2.9125 3.6526-4.4979s-2.9062-3.1374-3.6526-4.4979c-1.9182-3.4962-2.418-6.9466-2.418-10.848h13.229c1.2756 0 4.0476-0.52176 5.1059 0.27199 1.1755 0.88159 1.5796 3.9251 1.96 5.2843 1.6751 5.9833 1.7156 12.761 0.21669 18.785-0.39344 1.5812-0.94139 5.3959-2.3664 6.3426-1.1697 0.77708-3.8198 0.27199-5.1808 0.27199h-12.965m-51.329-15.61v0.26458c2.9377 3.7044 5.4913 10.054 10.583 10.054l-5.3253-7.1438-1.929-3.0628 1.9656-3.0226 5.2888-7.1438c-5.0404 0-7.5692 6.5207-10.583 10.054m59.002-10.054 5.1528 7.1438 1.8939 2.9104-1.792 3.175-5.2546 7.1438c4.1346 0 5.3409-3.3287 7.6758-6.35 0.74983-0.97049 2.2913-2.4202 2.3831-3.7042 0.08837-1.2398-1.4798-2.7861-2.1836-3.7042-2.2847-2.9805-3.8481-6.6146-7.8753-6.6146m-24.606 2.9104v5.0271l-2.1167-1.5875c1.9021 2.6996 3.103 2.3246 5.0271 0l-2.1167 1.5875v-5.0271l7.4083 7.1438v0.26458c-2.1915 2.1916-3.4507 3.9743-5.5562 0.79375h2.3812v-0.52916h-3.7042v3.4396h0.52917v-2.3812c4.0267 1.8793 0.69585 4.3312-1.3229 6.35h-0.26458l-3.9688-3.9688v-0.26458l2.6458-2.1167v2.3812h0.26458v-3.4396h-3.4396v0.52916h2.3812l-2.1167 2.3812h-0.26458l-3.175-3.175v-0.26458l7.4083-7.1438m-14.817 6.35 0.79375 0.79375v0.26458l-1.0583 0.79375 0.26458-1.8521m30.692 0.26458v1.3229l-1.0583-0.52917 1.0583-0.79375m-17.463 16.669c-2.0635-1.4536-3.7738-3.5092-5.5562-5.2917l-3.9688-3.9688c-1.0774-1.0774-3.4388-2.6829-3.7698-4.2333-0.51382-2.4051 3.9042-2.4503 5.2819-1.9807 1.7481 0.59584 3.3351 2.9297 4.5733 4.2259 3.5676 3.7348 6.9715 6.1489 3.4396 11.248m11.906-15.451c1.3838-0.51012 6.3376-0.36513 5.2689 2.2217-0.50403 1.2197-1.9733 2.2606-2.8877 3.175l-6.35 6.35c-0.8927 0.89271-2.1698 2.7662-3.4396 3.0835-2.3916 0.59743-2.4352-4.168-1.9571-5.4647 0.96308-2.6117 4.7704-5.1956 6.7196-7.1438 0.77655-0.77629 1.5856-1.8307 2.6458-2.2217m-8.7312 15.451h-2.6458c0.90726-1.1864 1.9013-1.4706 2.6458 0m-17.462 0.52917v17.992c-1.1882-0.85698-0.79375-2.6347-0.79375-3.9688 0-3.0713 0.70617-6.3923-1.5888-8.7312-1.3677-1.3938-3.2612-4.1431-5.2903-4.4588-2.8037-0.43604-8.4985 1.2959-10.583-0.83291h18.256m16.14 6.6146h0.26458c3.5795-5.0816 9.2022-6.6146 15.081-6.6146v13.229c0 1.2756 0.52176 4.0476-0.27199 5.1059-0.88159 1.1756-3.9251 1.5796-5.2843 1.96-5.8626 1.6412-12.332 1.6423-18.256 0.33866-1.5558-0.34237-5.3843-0.88318-6.3426-2.2479-0.78661-1.12-0.27199-3.8333-0.27199-5.1567v-13.229c5.7682 0 11.584 1.6502 15.081 6.6146m34.396-6.6146c-2.0849 2.1288-7.7795 0.39687-10.583 0.83291-2.0114 0.313-3.9468 3.0583-5.2866 4.4588-2.0987 2.1937-1.3279 5.8838-1.3279 8.7312 0 1.2544 0.37095 2.949-0.79375 3.7042v-17.727h17.992m-52.123 16.933c-2.5115-0.83344-0.32967-7.1739-1.3264-9.2602-1.6848-3.5261-4.6926-4.4982-8.1986-4.4982-1.9665 0-5.3994 0.77734-6.0854-1.5875l9.7896 0.15954 3.4396 3.0155 2.2217 2.6458 0.15954 9.525m51.065-15.346c-0.86016 2.9649-6.8509 1.252-9.2604 1.6267-1.62 0.25188-3.7573 2.5916-4.603 3.9296-1.5534 2.4582 1.2999 8.2553-1.4825 9.7896 0-2.7532-0.79349-6.9395 0.15954-9.525 0.39105-1.0602 1.4454-1.8693 2.2217-2.6458 0.95647-0.957 1.9479-2.2894 3.175-2.903 2.3839-1.192 7.1379-0.27199 9.7896-0.27199m-55.827 4.7625v7.6729c-3.1171-1.3197-6.267-4.7797-7.9375-7.6729h7.9375m52.917 0c-1.7537 3.0372-4.712 5.8214-7.6729 7.6729v-7.6729h7.6729m-40.481 1.3229c0 4.0635 3.4033 5.4224 6.35 7.7788 0.95832 0.76624 2.4149 2.4604 3.7042 2.5416 1.2713 0.0802 2.7697-1.6063 3.7042-2.3207 2.8908-2.2103 6.6141-3.7891 6.6146-7.7351-2.6175 0.68051-5.03 3.3957-7.1437 5.03-0.78132 0.60405-2.013 1.9751-3.0628 1.9997-1.0091 0.0241-2.2762-1.3354-3.0226-1.9103-2.3289-1.7944-4.5752-3.9486-7.1438-5.384z" clip-path="url(#clipPath2120)"/>
   <path transform="matrix(2.6927 0 0 1.2263 172.19 -178.2)" d="m-24.035 158.3c-9.1922 1.2069-17.472 3.7597-24.606 10.018-19.767 17.338-18.592 49.661 2.9104 65.123 3.7405 2.6895 7.9931 4.8525 12.435 6.1256 5.5687 1.5957 11.458 2.0675 17.198 1.3602 19.792-2.4384 35.366-19.456 36.238-39.347 1.016-23.201-19.906-46.466-44.175-43.279m18.256 25.023c-5.8738 0-11.789-1.8291-15.346-6.8792h-0.26458c-3.4695 4.9252-9.5927 6.8792-15.346 6.8792v-13.494c0-1.2756-0.52176-4.0475 0.27199-5.1059 0.88159-1.1756 3.9251-1.5796 5.2843-1.9601 5.9539-1.6669 12.79-1.7086 18.785-0.21661 1.5812 0.39346 5.3959 0.94133 6.3426 2.3664 0.77708 1.1697 0.27199 3.8198 0.27199 5.1808v13.229m-25.665-7.6729 6.8792-5.0826 3.175-2.0628 2.9104 1.7282 7.4083 5.4172c0-4.1406-3.6002-5.5689-6.6146-7.9375-0.91625-0.71999-2.4471-2.3956-3.7042-2.3176-1.2128 0.0753-2.5194 1.5863-3.4396 2.2833-3.0797 2.3328-6.6146 3.8128-6.6146 7.9718m-6.35-10.319v17.992h-17.992c0.72509-1.1184 2.23-0.79375 3.4396-0.79375 2.3218 0 6.7287 0.84005 8.7312-0.42412 1.5321-0.96732 4.2333-3.4125 4.8675-5.1321 1.3004-3.5274-0.65061-8.0059 0.42413-11.642h0.52917m33.338 0c1.8283 3.4261-0.62256 8.0846 0.68871 11.642 0.63182 1.7137 2.9665 3.5647 4.3384 4.7233 2.0145 1.7013 6.4807 0.83291 8.9958 0.83291 1.2097 0 2.7146-0.32464 3.4396 0.79375h-17.727v-12.435l0.26458-5.5562m-35.19 0.79375c0 5.204 1.5547 13.122-4.7625 15.451-2.855 1.0525-7.5399 0.15954-10.583 0.15954 0.54805-1.3634 1.8956-1.0583 3.175-1.0583 2.1733 0 5.5592 0.64823 7.4044-0.67964 2.9516-2.1242 3.4435-4.0994 3.4435-7.5224 0-2.045-0.72205-5.2027 1.3229-6.35m51.858 15.61c-2.971 0-7.5311 0.8681-10.319-0.15954-6.3937-2.3574-5.0271-9.9028-5.0271-15.186 2.2752 0.66003 1.5875 3.6585 1.5875 5.5562 0 3.5567 0.30295 6.6264 3.9688 8.4593 2.268 1.134 8.7215-1.327 9.7896 1.3303m-56.621-12.435c0.4091 1.384 1.0333 6.9352-0.1964 7.9301-1.3246 1.0718-5.7943 0.27194-7.4765 0.27194 0.83114-3.1961 4.9095-6.6065 7.6729-8.2021m46.302 0c2.5657 2.0823 6.536 4.8476 7.4083 8.2021-1.6568 0-5.9304 0.77216-7.2488-0.27194-1.103-0.87371-0.66728-6.7199-0.15954-7.9301m-21.431 14.288-1.5875 1.8521h-0.26458l-1.5875-1.8521h3.4396m-3.9688 0.26458c4.4805 4.5342-0.04366 8.2457-3.4396 11.642-1.2031 1.2031-2.6006 3.207-4.2333 3.8092-1.4917 0.54981-6.1172 0.39053-5.3811-2.2217 0.42386-1.5044 2.4606-2.9004 3.529-3.9688l3.9688-3.9688c1.7825-1.7825 3.4928-3.838 5.5562-5.2917m4.7625 0 9.2604 9.2604c1.0684 1.0684 3.1052 2.4643 3.529 3.9688 0.73607 2.6122-3.8894 2.7715-5.3811 2.2217-1.5407-0.56806-2.835-2.4109-3.9688-3.5446-3.0594-3.0594-8.9511-8.01-3.4396-11.906m-19.05 0.52917c0 4.0002-0.87894 7.5105-2.726 11.112-0.67749 1.3211-3.3447 2.7239-3.3447 4.2333s2.6672 2.9123 3.3447 4.2333c1.9024 3.71 2.726 7.261 2.726 11.377h-13.229c-1.361 0-4.0111 0.50509-5.1808-0.27199-1.425-0.94668-1.9729-4.7614-2.3664-6.3426-1.4919-5.9955-1.4503-12.832 0.21661-18.785 0.3805-1.3592 0.78444-4.4027 1.9601-5.2843 1.0583-0.79375 3.8303-0.27199 5.1059-0.27199h13.494m33.073 30.956c0-4.0053 0.44635-7.5189 2.418-11.112 0.74639-1.3605 3.6526-2.9125 3.6526-4.4979s-2.9062-3.1374-3.6526-4.4979c-1.9182-3.4962-2.418-6.9466-2.418-10.848h13.229c1.2756 0 4.0476-0.52176 5.1059 0.27199 1.1755 0.88159 1.5796 3.9251 1.96 5.2843 1.6751 5.9833 1.7156 12.761 0.21669 18.785-0.39344 1.5812-0.94139 5.3959-2.3664 6.3426-1.1697 0.77708-3.8198 0.27199-5.1808 0.27199h-12.965m-51.329-15.61v0.26458c2.9377 3.7044 5.4913 10.054 10.583 10.054l-5.3253-7.1438-1.929-3.0628 1.9656-3.0226 5.2888-7.1438c-5.0404 0-7.5692 6.5207-10.583 10.054m59.002-10.054 5.1528 7.1438 1.8939 2.9104-1.792 3.175-5.2546 7.1438c4.1346 0 5.3409-3.3287 7.6758-6.35 0.74983-0.97049 2.2913-2.4202 2.3831-3.7042 0.08837-1.2398-1.4798-2.7861-2.1836-3.7042-2.2847-2.9805-3.8481-6.6146-7.8753-6.6146m-24.606 2.9104v5.0271l-2.1167-1.5875c1.9021 2.6996 3.103 2.3246 5.0271 0l-2.1167 1.5875v-5.0271l7.4083 7.1438v0.26458c-2.1915 2.1916-3.4507 3.9743-5.5562 0.79375h2.3812v-0.52916h-3.7042v3.4396h0.52917v-2.3812c4.0267 1.8793 0.69585 4.3312-1.3229 6.35h-0.26458l-3.9688-3.9688v-0.26458l2.6458-2.1167v2.3812h0.26458v-3.4396h-3.4396v0.52916h2.3812l-2.1167 2.3812h-0.26458l-3.175-3.175v-0.26458l7.4083-7.1438m-14.817 6.35 0.79375 0.79375v0.26458l-1.0583 0.79375 0.26458-1.8521m30.692 0.26458v1.3229l-1.0583-0.52917 1.0583-0.79375m-17.463 16.669c-2.0635-1.4536-3.7738-3.5092-5.5562-5.2917l-3.9688-3.9688c-1.0774-1.0774-3.4388-2.6829-3.7698-4.2333-0.51382-2.4051 3.9042-2.4503 5.2819-1.9807 1.7481 0.59584 3.3351 2.9297 4.5733 4.2259 3.5676 3.7348 6.9715 6.1489 3.4396 11.248m11.906-15.451c1.3838-0.51012 6.3376-0.36513 5.2689 2.2217-0.50403 1.2197-1.9733 2.2606-2.8877 3.175l-6.35 6.35c-0.8927 0.89271-2.1698 2.7662-3.4396 3.0835-2.3916 0.59743-2.4352-4.168-1.9571-5.4647 0.96308-2.6117 4.7704-5.1956 6.7196-7.1438 0.77655-0.77629 1.5856-1.8307 2.6458-2.2217m-8.7312 15.451h-2.6458c0.90726-1.1864 1.9013-1.4706 2.6458 0m-17.462 0.52917v17.992c-1.1882-0.85698-0.79375-2.6347-0.79375-3.9688 0-3.0713 0.70617-6.3923-1.5888-8.7312-1.3677-1.3938-3.2612-4.1431-5.2903-4.4588-2.8037-0.43604-8.4985 1.2959-10.583-0.83291h18.256m16.14 6.6146h0.26458c3.5795-5.0816 9.2022-6.6146 15.081-6.6146v13.229c0 1.2756 0.52176 4.0476-0.27199 5.1059-0.88159 1.1756-3.9251 1.5796-5.2843 1.96-5.8626 1.6412-12.332 1.6423-18.256 0.33866-1.5558-0.34237-5.3843-0.88318-6.3426-2.2479-0.78661-1.12-0.27199-3.8333-0.27199-5.1567v-13.229c5.7682 0 11.584 1.6502 15.081 6.6146m34.396-6.6146c-2.0849 2.1288-7.7795 0.39687-10.583 0.83291-2.0114 0.313-3.9468 3.0583-5.2866 4.4588-2.0987 2.1937-1.3279 5.8838-1.3279 8.7312 0 1.2544 0.37095 2.949-0.79375 3.7042v-17.727h17.992m-52.123 16.933c-2.5115-0.83344-0.32967-7.1739-1.3264-9.2602-1.6848-3.5261-4.6926-4.4982-8.1986-4.4982-1.9665 0-5.3994 0.77734-6.0854-1.5875l9.7896 0.15954 3.4396 3.0155 2.2217 2.6458 0.15954 9.525m51.065-15.346c-0.86016 2.9649-6.8509 1.252-9.2604 1.6267-1.62 0.25188-3.7573 2.5916-4.603 3.9296-1.5534 2.4582 1.2999 8.2553-1.4825 9.7896 0-2.7532-0.79349-6.9395 0.15954-9.525 0.39105-1.0602 1.4454-1.8693 2.2217-2.6458 0.95647-0.957 1.9479-2.2894 3.175-2.903 2.3839-1.192 7.1379-0.27199 9.7896-0.27199m-55.827 4.7625v7.6729c-3.1171-1.3197-6.267-4.7797-7.9375-7.6729h7.9375m52.917 0c-1.7537 3.0372-4.712 5.8214-7.6729 7.6729v-7.6729h7.6729m-40.481 1.3229c0 4.0635 3.4033 5.4224 6.35 7.7788 0.95832 0.76624 2.4149 2.4604 3.7042 2.5416 1.2713 0.0802 2.7697-1.6063 3.7042-2.3207 2.8908-2.2103 6.6141-3.7891 6.6146-7.7351-2.6175 0.68051-5.03 3.3957-7.1437 5.03-0.78132 0.60405-2.013 1.9751-3.0628 1.9997-1.0091 0.0241-2.2762-1.3354-3.0226-1.9103-2.3289-1.7944-4.5752-3.9486-7.1438-5.384z" clip-path="url(#clipPath2120-9)"/>
  </g>
  <g stroke="#fff" aria-label="20">
   <path d="m-5.0383 80.829c0.98778 0 1.4224-0.43462 1.4224-1.4224v-4.6228c0-0.98778-0.43462-1.4224-1.4224-1.4224h-11.261v-0.82973c0-0.86924 0.23707-0.94827 1.0273-1.1853l5.3735-1.699c3.8326-1.1853 6.1637-3.0028 6.1637-6.9935v-3.714c0-4.2672-2.4497-6.5588-6.954-6.5588h-11.656c-0.98778 0-1.4224 0.43462-1.4224 1.4224v4.6228c0 0.98778 0.43462 1.4224 1.4224 1.4224h8.5739c0.79022 0 1.0668 0.23707 1.0668 1.0273 0 0.86924-0.23707 1.1853-1.0668 1.4224l-5.2945 1.6595c-3.635 1.1063-6.2032 2.5287-6.2032 8.6529v6.7959c0 0.98778 0.43462 1.4224 1.4224 1.4224z"/>
   <path d="m24.832 73.361v-13.473c0-4.8204-2.3312-8.0998-12.051-8.0998-9.7197 0-12.09 3.2794-12.09 8.0998v13.473c0 4.8204 2.3707 8.0603 12.09 8.0603 9.7197 0 12.051-3.2399 12.051-8.0603zm-15.212-1.4224v-10.628c0-1.0273 0.47413-1.8175 3.1609-1.8175 2.7263 0 3.1609 0.79022 3.1609 1.8175v10.628c0 1.0668-0.43462 1.857-3.1609 1.857-2.6868 0-3.1609-0.79022-3.1609-1.857z"/>
  </g>
  <path d="m-9.7699 124.59-8.6944-8.565-1.4789-0.56526c-4.7314-1.8084-9.2399-4.306-13.168-7.2947l-1.4387-1.0946-4.0195 2.3267c-3.0652 1.7744-4.0548 2.289-4.1682 2.1677-0.21618-0.23115-18.719-32.327-18.777-32.57-0.03366-0.14309 0.45186-0.48484 1.6146-1.1365 0.9145-0.51254 1.664-0.97096 1.6655-1.0187 0.0015-0.04775-2.2104-2.2682-4.9155-4.9343l-4.9183-4.8475 17.123-17.382 0.69996-1.8173c4.9683-12.899 14.989-23.424 27.588-28.975 1.0799-0.47584 2.0241-0.86516 2.0983-0.86516 0.08834 0 0.13483-1.5377 0.13483-4.4597v-4.4597h9.5595l8.8916-9.0355 9.2164 9.0355h10.403l0.07014 8.9476 1.5975 0.69548c12.643 5.504 22.654 15.862 27.708 28.667l0.64506 1.6343 2.3309 2.2983c1.282 1.2641 5.1884 5.1181 8.681 8.5645l6.3501 6.2662-5.4684 5.5487c-3.0076 3.0518-5.4458 5.5702-5.4182 5.5966 0.02757 0.02632 1.0087 0.60133 2.1802 1.2778 1.1715 0.67643 2.1504 1.247 2.1753 1.2678 0.03678 0.03084-17.991 31.366-18.732 32.558l-0.21737 0.35001-8.8057-5.1052-0.85565 0.6572c-1.1537 0.8861-4.3008 2.9442-5.8105 3.7999-1.6899 0.9578-4.7312 2.3958-6.5233 3.0844l-1.4937 0.57393-2.306 2.3384c-1.2683 1.2861-5.124 5.1951-8.5682 8.6866l-6.2622 6.3482zm13.775-11.839c9.6937-1.2765 18.36-5.1758 25.294-11.381 0.65898-0.58969 1.2291-1.074 1.267-1.0763 0.03789-3e-3 1.6554 0.91547 3.5944 2.0394s3.5657 2.0076 3.6149 1.9636c0.10659-0.0954 12.988-22.398 13.09-22.664 0.04916-0.1281-1.0077-0.80299-3.4926-2.2304-1.9597-1.1257-3.5815-2.062-3.604-2.0808-0.02249-0.01877 0.11067-0.81157 0.29595-1.7618 0.64632-3.3147 0.7909-4.9084 0.8-8.8184 9e-3 -3.8678-0.10117-5.2376-0.67459-8.3869-3.0294-16.638-14.736-30.254-30.714-35.724l-1.6169-0.55353-0.07074-7.5213h-26.355v7.4435l-1.0651 0.33647c-15.177 4.7945-27.058 17.425-30.938 32.89-0.99501 3.9666-1.3435 6.9461-1.3392 11.449 0.0035 3.8069 0.1648 5.6273 0.77356 8.7394l0.30332 1.5506-3.6387 2.0974c-3.4968 2.0156-3.6317 2.1083-3.4599 2.3766 0.09838 0.15357 3.0441 5.2515 6.546 11.329 3.5019 6.0772 6.4126 11.101 6.4683 11.165 0.05563 0.0634 1.6671-0.78943 3.5811-1.8952l3.48-2.0105 1.5567 1.3654c7.8326 6.87 17.133 10.77 27.649 11.596 1.3812 0.10845 7.2473-0.0529 8.6532-0.23806z" stroke-width=".13313"/>
 </g>
 <metadata>
  <rdf:RDF>
   <cc:Work rdf:about="">
    <dc:title>Facility-20</dc:title>
   </cc:Work>
  </rdf:RDF>
 </metadata>
</svg>
