<?xml version="1.0" encoding="UTF-8"?>
<!-- Created with Inkscape (http://www.inkscape.org/) -->
<svg width="133.1mm" height="133.09mm" version="1.1" viewBox="0 0 133.1 133.09" xmlns="http://www.w3.org/2000/svg" xmlns:cc="http://creativecommons.org/ns#" xmlns:dc="http://purl.org/dc/elements/1.1/" xmlns:rdf="http://www.w3.org/1999/02/22-rdf-syntax-ns#">
 <title>Facility-96</title>
 <g transform="translate(68.068 -.058754)" fill="#fff">
  <path d="m-9.2413 116.41c-4.6025-0.83331-10.621-2.8465-14.797-4.9496-3.4515-1.7382-5.9167-3.3977-11.449-7.7076-1.2579-0.97993-1.3783-0.95352-4.802 1.053-1.9314 1.132-3.724 1.8399-3.9834 1.5731-0.59295-0.6098-13.622-23.097-13.607-23.485 6e-3 -0.15704 1.6802-1.2618 3.7205-2.455l3.7096-2.1694-0.45481-2.6581c-0.92131-5.3845-0.46724-16.531 0.8669-21.28 4.0828-14.534 13.303-25.786 26.507-32.348 2.1866-1.0866 4.934-2.2864 6.1054-2.6661l2.1298-0.69043v-7.8631h27.829v7.8519l3.919 1.4975c13.88 5.304 24.563 16.604 29.624 31.336 1.8696 5.4424 1.9246 5.8594 1.9388 14.688 8e-3 4.9979-0.158 9.8539-0.36887 10.791-0.36587 1.6261-0.20727 1.8078 3.4712 3.9756l3.8546 2.2716-6.5995 11.359c-3.6297 6.2474-6.7947 11.663-7.0332 12.034-0.31192 0.48597-1.5083 0.0997-4.2615-1.3759l-3.8278-2.0515-4.2119 3.2543c-5.1057 3.9449-11.885 7.3106-17.955 8.9145-5.0544 1.3354-15.808 1.917-20.325 1.0992z"/>
 </g>
 <path transform="scale(.26458)" d="m253.4 54.016c-13.079 18.45-37.106 30.378-49.121 49.412-4.0637 6.438-2.25 16.561-2.25 23.861 0 18.074 2.5697 38.299-0.20703 56.146-1.5062 9.6854-14.57 13.46-15.752 22.459-1.2563 9.5676 17.355 17.222 19.725 26.672 5.1164 20.407 0.44531 47.713 0.44531 68.783 0 8.8238 2.1833 21.133-1.041 29.457-2.9674 7.6657-12.9 15.322-18.617 21.074-13.805 13.892-27.654 27.743-41.545 41.549 1.8524 1.3651 3.6064 2.632 5.2676 3.8027 11.908-12.095 24.974-23.531 36.549-34.564 7.5983-7.2444 21.894-17.663 25.566-27.619 10.528-28.549-9.5312-67.37 2.25-95.451l23.859 22.453 11.23 7.5371 35.092-29.994v65.971l1.4434 29.479 18.209 19.65 43.516 43.516 1.1289 1.2793c1.4953-0.98299 2.9585-1.9853 4.4004-2.998-10.564-11.001-20.319-24.022-30.115-33.375-9.3628-8.94-23.928-19.26-29.914-30.938-3.7086-7.2359-1.6484-18.693-1.6484-26.613v-50.533c0-7.2333-1.6852-16.999 0.8457-23.863 3.3478-9.0779 18.077-14.367 19.324-23.861 1.1959-9.114-15.662-15.676-17.154-25.268-4.0862-26.275-0.20898-56.205-0.20898-82.816 0-14.107-2.5219-31.245 0.74609-45.207h-7.7617c2.3055 7.753-0.00391 22.79-0.00391 28.357v94.047l-37.898-32.803-12.635 8.9394-26.67 25.268c0-33.167-9.922-76.985 26.67-94.047l-0.84571 53.34-14.594 19.65c5.8634-5.8634 15.705-12.694 17.801-21.055 7.2556-28.939-10.586-53.769 18.695-74.396v51.938l0.8457 23.861 17.4 19.652c-3.4952-7.4964-11.754-11.951-14.594-19.652-6.5022-17.637-0.84713-47.151-0.8457-65.971 6e-4 -4.9428 1.7674-11.884 5.0176-17.129h-12.605zm74.004 38.449c-7.0344 6.2345-14.325 12.289-19.645 19.389-4.6532 6.2104-7.306 37.195 0 42.07 6.0359 4.0286 26.327 2.7316 33.242 0.99805 13.522-3.3898 22.151-18.697 31.873-31.023-1.5828-1.5188-3.1897-3.0105-4.8262-4.4668-8.119 9.13-16.916 17.838-25.641 21.055-7.2428 2.6704-17.616 0.84765-25.268 0.84765 0-7.6508-1.8242-18.025 0.8457-25.268 2.675-7.2536 10.348-13.881 17.012-19.752-2.4954-1.3419-5.0251-2.6279-7.5938-3.8496zm-153.16 0.84766c-0.25679 0.12637-0.5382 0.25523-0.79102 0.38086-2.6741 1.3288-5.2961 2.7196-7.877 4.1562 7.7079 6.8729 15.4 14.716 16.6 22.428 0.73977 4.7535 1.9099 16.24-1.2344 20.209-5.0688 6.4009-24.389 2.0976-29.439-2.168-5.4873-4.6332-10.364-10.157-15.439-15.232l-2.5527-2.5527c-2.2704 2.0165-4.4866 4.0867-6.6426 6.2129 8.6039 9.5121 17.489 20.07 27.697 26.305 9.8525 6.0178 29.19 2.3164 40.449 2.3164l-1.4434-40.709-19.326-21.346zm75.516 61.947 12.633 9.9355 28.074 28.074 9.3398 14.037-13.551 15.441-36.494 36.496-37.9-36.496-13.551-15.441 9.3398-14.037 29.477-29.477 12.633-8.5332zm-159.48 23.967c-1.6834 3.6683-3.2599 7.4148-4.7266 11.236h37.869c6.6317 0 15.194-1.4501 21.057 2.25 14.819 9.3554 17.591 24.991-1.4043 31.996-6.4996 2.3962-15.617 0.84766-22.459 0.84766h-43.979c-0.40587 3.5685-0.73961 7.3409-1.0039 11.223h37.963l30.881-0.84766 29.479-25.822v-1.4043l-30.881-28.035-26.67-1.4434h-26.125zm291.43 0.00391-26.67 1.4434-29.479 26.631v1.4043l30.883 27.229 30.881 0.8457h39.072c-0.05242-4.4024-0.14637-8.126-0.33398-11.227h-38.74l-30.883-0.84766-18.248-15.998c18.138-25.751 49.02-18.248 77.203-18.248 0.42584 0 0.97798-0.03775 1.4629-0.05664-1.4764-3.7943-3.0511-7.5251-4.7402-11.176h-30.408zm-133.35 0.00391-26.67 26.67v1.4043l26.67 26.67h1.4043l26.67-26.67v-1.4043l-28.074-26.67zm-25.266 80.014c4.124 5.8534 10.798 10.441 13.998 16.844 4.8231 9.6461 4.8231 46.502 0 56.146-10.038 20.076-37.434 38.877-53.303 54.746l-19.305 19.305c1.4585 0.82517 2.9462 1.6361 4.4531 2.4258 1.2479-1.165 2.4676-2.325 3.623-3.4805l50.533-50.533c5.4321-5.4321 18.231-23.566 26.67-22.57 9.0185 1.064 20.516 17.821 26.67 23.975l50.533 50.533c1.18 1.1801 2.428 2.3632 3.6992 3.5508 1.5143-0.77066 3.017-1.5609 4.5098-2.3691l-20.842-20.84c-15.525-15.525-41.852-33.671-51.686-53.34-5.0238-10.048-5.0238-46.1 0-56.146 3.2032-6.4067 9.6728-11.006 13.787-16.846-24.13 17.128-18.25 42.332-18.25 68.785l-8.4219-8.4238h-1.4023l-7.0195 7.0195c0-13.725 4.7301-38.186-1.4434-50.533-3.5177-7.0354-11.305-12.748-16.805-18.248zm-25.271 2.7969-39.303 1.4434-25.268 23.824-60.318 59.037c1.5955 2.7604 3.1217 5.3932 4.7266 8.1562 5.6354-7.7856 17.165-16.116 21.908-20.859l40.707-40.707c5.6443-5.6443 11.971-14.57 19.652-17.402 7.2428-2.6698 17.614-0.8457 25.266-0.8457l0.00195-0.00391-0.8457 26.672-25.824 28.074-60.135 60.135c0.85596 1.3682 1.5175 2.393 1.709 2.5898 0.75795 0.77988 5.2332-0.81372 10.613-3.6426 0.56418-0.53746 1.1811-1.1129 1.6094-1.5625 9.079-9.5294 18.484-18.844 27.943-27.998 13.318-12.887 26.066-26.359 39.307-39.338 5.8199-5.7048 14.522-11.753 17.404-19.672 3.8377-10.542 0.84571-26.724 0.84571-37.9zm105.28 0.00586c0 11.14-3.0209 27.408 0.84765 37.9 2.6488 7.1813 10.727 12.977 15.998 18.248l65.971 65.973c1.6629 1.6659 4.2478 3.7589 6.3144 6.0879 6.5907 3.2663 9.7188 4.0052 10.635 2.5781 0.21077-0.32835 2.5996-4.417 3.9668-6.7402-7.9757 4.8519-25.512-19.15-30.74-24.377l-42.111-42.111c-5.2737-5.2723-14.52-11.371-17.262-18.506-2.8987-7.5447-0.98633-18.418-0.98633-26.412 8.2148-3.5e-4 20.584-2.3034 28.072 1.4414 8.0545 4.0272 14.761 13.317 21.057 19.613l40.707 40.707c4.9315 4.9315 15.656 12.436 18.674 19.822 1.2797-2.2003 2.1699-3.7188 3.4941-5.998l1.9922-3.4297-22.754-20.227-43.516-43.514-21.055-19.613-39.305-1.4434zm146.03 46.904c-0.98542 3.391-2.0584 6.7366-3.207 10.027l5.1582-8.877-1.9512-1.1504zm-200.08 49.396c-0.23202-9.3e-4 -0.46186 0.01336-0.6875 0.04297-6.9261 0.9096-14.961 12.672-19.652 17.363l-41.254 41.254c12.087 4.6579 25.456 8.6167 36.537 10.623v0.0039c15.974 2.8924 54.002 0.83603 71.877-3.8867 5.3071-1.4022 10.768-3.1885 16.254-5.2891l-41.303-41.303c-4.4644-4.4644-14.579-18.78-21.771-18.809z" fill="#f6b40e" stroke-width="5.3053"/>
 <g transform="translate(68.068 -.058754)" fill="#fff">
  <path d="m-8.9956 112.79c-1.909-0.38329-4.3995-0.99251-5.5343-1.3538l-2.0633-0.65694 6.84-7.066c3.762-3.8863 7.1858-7.066 7.6086-7.066 0.7235 0 14.471 13.58 14.471 14.295 0 0.18314-1.5619 0.72335-3.471 1.2004-4.8288 1.2068-13.499 1.5212-17.851 0.64747z"/>
  <g stroke="#fff" stroke-linecap="round" stroke-width="7.5591">
   <path transform="matrix(.26458 0 0 .26458 -68.068 .058754)" d="m359.29 343.77c-23.229-23.495-41.672-43.762-42.539-46.745-0.84214-2.897-1.009-9.0248-0.37079-13.617l1.1604-8.35 11.177 0.013c7.4971 9e-3 12.794 1.1543 16.088 3.4798 2.7015 1.9068 21.1 19.647 40.886 39.422l35.974 35.956-8.4678 14.94c-4.6573 8.2168-9.4647 15.264-10.683 15.66s-20.669-17.945-43.224-40.758z"/>
   <path transform="matrix(.26458 0 0 .26458 -68.068 .058754)" d="m348.74 216.33-8.8412-7.6341 3.9294-4.3579c9.0139-9.9967 17.917-12.617 45.547-13.404l25.9-0.73812 3.0194 10.167c1.6607 5.592 3.5869 13.192 4.2805 16.89l1.2611 6.7222-66.255-0.01z"/>
   <path transform="matrix(.26458 0 0 .26458 -68.068 .058754)" d="m318.61 140.15c-2.3017-2.3017-1.4043-18.243 1.3953-24.786 1.4878-3.4772 5.4606-8.9135 8.8285-12.081l6.1234-5.7584 13.788 9.4213c7.5837 5.1817 14.322 10.284 14.974 11.339 1.5993 2.5877-12.144 16.417-20.037 20.163-6.3907 3.0326-22.639 4.1354-25.072 1.7018z"/>
   <path transform="matrix(.26458 0 0 .26458 -68.068 .058754)" d="m160.79 141.34c-3.4133-1.0275-10.486-5.8448-15.718-10.705l-9.5117-8.8368 6.8765-6.0306c3.7821-3.3169 10.68-8.2881 15.329-11.047l8.4521-5.0165 4.699 4.4144c9.0603 8.5117 14.022 27.281 9.2132 34.852-2.154 3.3912-11.957 4.5923-19.34 2.3696z"/>
   <path transform="matrix(.26458 0 0 .26458 -68.068 .058754)" d="m104.41 224.53-25.257-0.67038 1.2498-6.662c0.68739-3.6641 2.608-11.235 4.2679-16.825l3.0182-10.163 27.219 0.67662c25.858 0.64278 27.483 0.92221 32.495 5.5884 7.6341 7.1076 9.5586 13.267 5.8932 18.861-5.9511 9.0825-11.785 10.18-48.886 9.195z"/>
   <path transform="matrix(.26458 0 0 .26458 -68.068 .058754)" d="m90.548 369.46c-4.9572-8.5944-9.0131-15.988-9.0131-16.429 0-1.7156 73.14-73.161 77.215-75.427 2.376-1.3209 8.9616-2.4329 14.635-2.4712l10.315-0.0696v25.468l-13.143 14.281c-19.668 21.371-68.15 70.275-69.669 70.275-0.72985 0-5.3829-7.0318-10.34-15.626z"/>
  </g>
 </g>
 <path d="m36.335 101.6-2.1321-1.8298-1.6041 0.94016c-0.88227 0.51709-1.6474 0.89687-1.7003 0.84398-0.05289-0.0529 4.5865-4.7516 10.31-10.442 5.7234-5.6901 10.606-10.71 10.85-11.156 0.37364-0.68235 0.44378-1.5772 0.44378-5.6623 0-2.6686-0.05848-4.905-0.12995-4.9701-0.07148-0.06497-2.4484-0.02297-5.2821 0.09331l-5.1522 0.21143-1.6056 1.418c-0.88309 0.77993-5.8163 5.5223-10.962 10.539-5.1463 5.0164-9.4278 9.1222-9.5148 9.1235-0.08687 0.0016-1.2469-1.8979-2.5778-4.2208-1.3309-2.3229-2.5747-4.4648-2.7638-4.7593-0.32591-0.50765-0.16998-0.63647 2.9678-2.4517 1.8214-1.0537 3.439-2.0101 3.5946-2.1253 0.20125-0.14896 0.14766-0.97969-0.18554-2.8765-0.32252-1.836-0.47143-4.0237-0.47791-7.0206l-0.0094-4.3534h3.0768c1.6923 0 5.7213-0.07696 8.9534-0.17102l5.8763-0.17102 3.8473-3.3549c2.116-1.8452 3.8824-3.5091 3.9256-3.6978 0.04306-0.18854-1.7772-2.033-4.0449-4.0989l-4.1232-3.756-3.5986-0.17259c-1.9792-0.09492-4.9836-0.17258-6.6764-0.17258-1.6928 0-3.0779-0.0614-3.0779-0.13644 0-0.38893 1.956-3.9213 3.3067-5.9716 1.3762-2.089 2.1734-3.1133 4.9535-6.3653l0.77548-0.90706 2.8247 2.8823c4.3793 4.4685 5.5342 4.9297 11.597 4.6299l3.5737-0.17662v-2.7852c0-1.5319-0.07558-4.0206-0.16797-5.5305l-0.16796-2.7453-4.818-5.3768 1.3425-0.60094c0.73834-0.33051 2.3658-0.95921 3.6165-1.3971l2.2742-0.79617v-7.4723h13.025l-0.85938 1.0372c-0.47265 0.57046-2.3799 2.3465-4.2383 3.9467-4.2515 3.661-6.6555 6.0943-7.5884 7.6816l-0.72876 1.2398 0.12996 5.848c0.17414 7.8361 0.14212 12.344-0.09843 13.859-0.17075 1.0754-0.45325 1.5212-1.9883 3.1371-2.9874 3.1448-2.9588 3.8451 0.28733 7.0524 1.1534 1.1397 2.2635 2.3868 2.4668 2.7715 0.79893 1.5114 1.0074 5.2506 0.67314 12.072-0.17419 3.5544-0.28564 8.0411-0.24765 9.971 0.064 3.2525 0.02455 3.5927-0.53998 4.6582-0.38428 0.72516-3.2943 3.7946-7.885 8.3171-4.0018 3.9422-7.3516 7.1929-7.4442 7.2236-0.09264 0.0307-1.1279-0.7676-2.3005-1.774z" fill="#2a7fff" stroke="#2a7fff" stroke-linecap="round" stroke-width=".99998"/>
 <path d="m90.404 101.17c-1.4544-1.679-3.6766-4.0393-4.9384-5.2453-5.8919-5.6313-6.6896-6.4602-7.3895-7.6805l-0.74757-1.3033-0.0024-12.566c-0.0021-10.922 0.05135-12.68 0.40848-13.432 0.22602-0.4763 1.3287-1.6946 2.4504-2.7074 2.1117-1.9068 2.8064-3.1027 2.4516-4.2206-0.10058-0.31689-1.0449-1.4811-2.0984-2.587-1.0535-1.106-2.0339-2.3222-2.1786-2.7027-0.63555-1.6716-0.83248-7.2008-0.51773-14.537 0.18083-4.215 0.23357-9.0444 0.12553-11.494-0.10248-2.3234-0.10383-5.1048-3e-3 -6.1809 0.18237-1.9461 0.18743-1.9566 0.9409-1.9566h0.75755v3.4591c0 2.3657 0.1027 3.5943 0.32488 3.8872 0.17869 0.23544 1.1697 0.72995 2.2022 1.0989 1.0325 0.36893 2.3426 0.87915 2.9114 1.1338l1.0341 0.46296-2.455 2.4448c-3.1641 3.1509-3.3678 3.6795-3.3678 8.7415 0 4.3254 0.2473 4.9294 2.2336 5.4567 2.2909 0.60803 7.1214 0.28292 8.9931-0.60531 1.3427-0.63716 3.0559-2.2863 5.0445-4.8558 1.0132-1.3091 1.9716-2.3803 2.1298-2.3803 0.43989 0 4.428 4.645 6.0121 7.0021 1.3552 2.0167 3.774 6.3057 3.783 6.7082 2e-3 0.10721-2.0132 0.20474-4.4791 0.21673-2.4659 0.01199-5.7774 0.09971-7.3585 0.19494l-2.8752 0.17313-3.9571 3.6107c-2.1763 1.9858-3.9235 3.7081-3.8827 3.8271 0.04075 0.11906 1.9207 1.8384 4.1775 3.8205l4.1031 3.6041 5.8806 0.17114c3.2342 0.09413 7.382 0.17114 9.2174 0.17114h3.3369l0.0161 1.8844c0.04 4.6749-0.087 7.0214-0.52371 9.6818-0.25817 1.5725-0.45426 2.8768-0.43577 2.8982 0.0185 0.02162 1.5834 0.93706 3.4774 2.0343 1.8941 1.0972 3.4438 2.077 3.4438 2.1773 0 0.17235-5.1085 9.1314-5.3371 9.3603-0.23911 0.23912-2.9829-2.2992-10.918-10.101-4.5807-4.5034-9.1045-8.8677-10.053-9.6979l-1.7242-1.5097-5.1522-0.21143c-2.8337-0.11629-5.2056-0.16304-5.2712-0.10391-0.06553 0.05914-0.19952 1.4769-0.29776 3.1506-0.19609 3.3409 0.06814 6.4145 0.6478 7.5355 0.20538 0.39716 5.0604 5.3887 10.789 11.092s10.366 10.42 10.305 10.481c-0.0611 0.0609-0.76739-0.26461-1.5697-0.72363l-1.4587-0.83459-1.4807 1.2699c-2.0956 1.7972-3.598 2.9429-3.8573 2.9413-0.12238-7.9e-4 -1.4125-1.375-2.8667-3.054z" fill="#2a7fff" stroke="#2a7fff" stroke-linecap="round" stroke-width=".99998"/>
 <g transform="translate(68.068 -.058754)" stroke="#fff" aria-label="96">
  <path d="m-13.53 80.829c7.4676 0 9.7197-3.2794 9.7197-8.0998v-12.96c0-4.8204-2.1336-7.9812-11.853-7.9812-9.0876 0-11.379 3.1609-11.379 7.9812v3.7931c0 4.7018 2.1336 7.112 9.2851 7.112 2.0941 0 3.7536-0.19756 5.0179-0.59267v0.86924c0 1.936-0.55316 2.3707-2.4892 2.3707h-7.3886c-0.98778 0-1.4224 0.43462-1.4224 1.4224v4.6623c0 0.98778 0.39511 1.4224 1.4224 1.4224zm0.79022-18.096c0 0.79022-0.3556 1.4224-2.6472 1.4224-2.3707 0-2.7263-0.63218-2.7263-1.4224v-2.3312c0-0.82973 0.3556-1.4619 2.7263-1.4619 2.2916 0 2.6472 0.63218 2.6472 1.4619z"/>
  <path d="m12.626 81.421c9.0876 0 11.379-3.1609 11.379-7.9812v-3.7931c0-4.7018-2.1336-7.112-9.2851-7.112-2.0941 0-3.7536 0.19756-5.0179 0.59267v-0.86924c0-1.936 0.55316-2.3707 2.4892-2.3707h7.3886c0.98778 0 1.4224-0.43462 1.4224-1.4224v-4.6623c0-0.98778-0.39511-1.4224-1.4224-1.4224h-9.0876c-7.4676 0-9.7197 3.2794-9.7197 8.0998v12.96c0 4.8204 2.1336 7.9812 11.853 7.9812zm-2.9238-10.945c0-0.79022 0.3556-1.4224 2.6472-1.4224 2.3707 0 2.7263 0.63218 2.7263 1.4224v2.3312c0 0.82973-0.3556 1.4619-2.7263 1.4619-2.2916 0-2.6472-0.63218-2.6472-1.4619z"/>
 </g>
 <rect transform="rotate(46.514)" x="94.531" y="43.196" width="3.8595" height="7.7191" fill="#2a7fff"/>
 <rect transform="matrix(-.68818 .72554 .72554 .68818 0 0)" x="3.0903" y="139.6" width="3.8595" height="7.7191" fill="#2a7fff"/>
 <path d="m58.298 124.53-8.6944-8.565-1.4789-0.56526c-4.7314-1.8084-9.2399-4.306-13.168-7.2947l-1.4387-1.0946-4.0195 2.3267c-3.0652 1.7744-4.0548 2.289-4.1682 2.1677-0.21618-0.23115-18.719-32.327-18.777-32.57-0.03366-0.14309 0.45186-0.48484 1.6146-1.1365 0.9145-0.51254 1.664-0.97096 1.6655-1.0187 0.0015-0.04775-2.2104-2.2682-4.9155-4.9343l-4.9183-4.8475 17.123-17.382 0.69996-1.8173c4.9683-12.899 14.989-23.424 27.588-28.975 1.0799-0.47584 2.0241-0.86516 2.0983-0.86516 0.08834 0 0.13483-1.5377 0.13483-4.4597v-4.4597h9.5595l8.8916-9.0355 9.2164 9.0355h10.403l0.07014 8.9476 1.5975 0.69548c12.643 5.504 22.654 15.862 27.708 28.667l0.64506 1.6343 2.3309 2.2983c1.282 1.2641 5.1884 5.1181 8.681 8.5645l6.3501 6.2662-5.4684 5.5487c-3.0076 3.0518-5.4458 5.5702-5.4182 5.5966 0.0276 0.02632 1.0087 0.60133 2.1802 1.2778 1.1715 0.67643 2.1504 1.247 2.1753 1.2678 0.0368 0.03084-17.991 31.366-18.732 32.558l-0.21737 0.35001-8.8057-5.1052-0.85565 0.6572c-1.1537 0.8861-4.3008 2.9442-5.8105 3.7999-1.6899 0.9578-4.7312 2.3958-6.5233 3.0844l-1.4937 0.57393-2.306 2.3384c-1.2683 1.2861-5.124 5.1951-8.5682 8.6866l-6.2622 6.3482zm13.775-11.839c9.6937-1.2765 18.36-5.1758 25.294-11.381 0.65898-0.58969 1.2291-1.074 1.267-1.0763 0.03789-3e-3 1.6554 0.91547 3.5944 2.0394s3.5657 2.0076 3.6149 1.9636c0.10659-0.0954 12.988-22.398 13.09-22.664 0.0492-0.1281-1.0077-0.80299-3.4926-2.2304-1.9597-1.1257-3.5815-2.062-3.604-2.0808-0.0225-0.01877 0.11067-0.81157 0.29595-1.7618 0.64632-3.3147 0.7909-4.9084 0.8-8.8184 9e-3 -3.8678-0.10117-5.2376-0.67459-8.3869-3.0294-16.638-14.736-30.254-30.714-35.724l-1.6169-0.55353-0.07074-7.5213h-26.355v7.4435l-1.0651 0.33647c-15.177 4.7945-27.058 17.425-30.938 32.89-0.99501 3.9666-1.3435 6.9461-1.3392 11.449 0.0035 3.8069 0.1648 5.6273 0.77356 8.7394l0.30332 1.5506-3.6387 2.0974c-3.4968 2.0156-3.6317 2.1083-3.4599 2.3766 0.09838 0.15357 3.0441 5.2515 6.546 11.329 3.5019 6.0772 6.4126 11.101 6.4683 11.165 0.05563 0.0634 1.6671-0.78943 3.5811-1.8952l3.48-2.0105 1.5567 1.3654c7.8326 6.87 17.133 10.77 27.649 11.596 1.3812 0.10845 7.2473-0.0529 8.6532-0.23806z" stroke-width=".13313"/>
 <metadata>
  <rdf:RDF>
   <cc:Work rdf:about="">
    <dc:title>Facility-96</dc:title>
   </cc:Work>
  </rdf:RDF>
 </metadata>
</svg>
