<?xml version="1.0" encoding="UTF-8"?>
<!-- Created with Inkscape (http://www.inkscape.org/) -->
<svg width="133.1mm" height="133.09mm" version="1.1" viewBox="0 0 133.1 133.09" xmlns="http://www.w3.org/2000/svg" xmlns:cc="http://creativecommons.org/ns#" xmlns:dc="http://purl.org/dc/elements/1.1/" xmlns:rdf="http://www.w3.org/1999/02/22-rdf-syntax-ns#">
 <title>Facility-33</title>
 <defs>
  <clipPath id="clipPath15826">
   <rect x="-68.803" y="-1.4115" width="133.83" height="67.58" fill="#0039a6" stroke-linecap="round" stroke-width="1.5"/>
  </clipPath>
 </defs>
 <path d="m58.827 116.35c-4.6025-0.83331-10.621-2.8465-14.797-4.9496-3.4515-1.7382-5.9167-3.3977-11.449-7.7076-1.2579-0.97993-1.3783-0.95352-4.802 1.053-1.9314 1.132-3.724 1.8399-3.9834 1.5731-0.59295-0.6098-13.622-23.097-13.607-23.485 6e-3 -0.15704 1.6802-1.2618 3.7205-2.455l3.7096-2.1694-0.45481-2.6581c-0.92131-5.3845-0.46724-16.531 0.8669-21.28 4.0828-14.534 13.303-25.786 26.507-32.348 2.1866-1.0866 4.934-2.2864 6.1054-2.6661l2.1298-0.69043v-7.8631h27.829v7.8519l3.919 1.4975c13.88 5.304 24.563 16.604 29.624 31.336 1.8696 5.4424 1.9246 5.8594 1.9388 14.688 8e-3 4.9979-0.158 9.8539-0.36887 10.791-0.36587 1.6261-0.20727 1.8078 3.4712 3.9756l3.8546 2.2716-6.5995 11.359c-3.6297 6.2474-6.7947 11.663-7.0332 12.034-0.31192 0.48597-1.5083 0.0997-4.2615-1.3759l-3.8278-2.0515-4.2119 3.2543c-5.1057 3.9449-11.885 7.3106-17.955 8.9145-5.0544 1.3354-15.808 1.917-20.325 1.0992z" fill="#d72b1f"/>
 <path transform="translate(68.068 .47042)" d="m-9.2413 116.41c-4.6025-0.83331-10.621-2.8465-14.797-4.9496-3.4515-1.7382-5.9167-3.3977-11.449-7.7076-1.2579-0.97993-1.3783-0.95352-4.802 1.053-1.9314 1.132-3.724 1.8399-3.9834 1.5731-0.59295-0.6098-13.622-23.097-13.607-23.485 6e-3 -0.15704 1.6802-1.2618 3.7205-2.455l3.7096-2.1694-0.45481-2.6581c-0.92131-5.3845-0.46724-16.531 0.8669-21.28 4.0828-14.534 13.303-25.786 26.507-32.348 2.1866-1.0866 4.934-2.2864 6.1054-2.6661l2.1298-0.69043v-7.8631h27.829v7.8519l3.919 1.4975c13.88 5.304 24.563 16.604 29.624 31.336 1.8696 5.4424 1.9246 5.8594 1.9388 14.688 8e-3 4.9979-0.158 9.8538-0.36887 10.791-0.36587 1.6261-0.20727 1.8078 3.4712 3.9756l3.8546 2.2716-6.5995 11.359c-3.6297 6.2474-6.7947 11.663-7.0332 12.034-0.31192 0.48597-1.5083 0.0997-4.2615-1.3759l-3.8278-2.0515-4.2119 3.2543c-5.1057 3.9449-11.885 7.3106-17.955 8.9145-5.0544 1.3354-15.808 1.917-20.325 1.0992z" clip-path="url(#clipPath15826)" fill="#0039a6"/>
 <g fill="#fff">
  <path transform="scale(.26458)" d="m223.57 78.037a175.76 175.76 0 0 0-11.406 2.1797l-39.227 41.604-18.549 22.262 84.098 2.4727c-19.882 28.225-51.005 52.242-75.441 76.674-5.7048 5.7048-25.902 20.087-25.902 28.445 0 3.8844 4.892 7.4228 7.3516 9.8926l21.025 21.023c27.18 27.18 61.978 53.94 84.096 85.332h-46.994c0.43142 52.103 71.291 77.792 95.854 25.971 3.8251-8.0694 5.4837-17.096 5.5566-25.971h-46.994c6.1685-8.098 15.481-6.1836 24.734-6.1836h63.072c-11.909 16.906-29.9 31.136-44.521 45.758-4.9891 4.9891-10.441 12.332-16.701 16.68a175.76 175.76 0 0 0 12.037-2.6719c11.56-15.548 28.139-28.823 41.766-42.449 6.3788-6.3788 15.871-12.92 17.312-22.26h-86.568c19.882-28.225 51.003-52.244 75.439-76.676 5.7048-5.7048 25.902-20.085 25.902-28.443 0-3.8845-4.8916-7.4247-7.3516-9.8945l-21.023-21.023c-27.18-27.18-61.98-53.94-84.098-85.332h46.994c-0.14584-53.075-71.215-79.043-96.062-25.969-3.7992 8.1143-5.2733 17.069-5.3477 25.969h46.994c-5.9422 7.1341-16.216 4.9473-24.734 4.9473h-63.072c11.59-16.453 29.056-30.292 43.285-44.521 5.5196-5.5191 11.471-13.614 18.477-17.814zm30.6 4.8301c12.357 0.19791 24.658 4.9309 33.672 14.27 8.8299 9.1478 11.452 20.074 13.719 32.105h-96.463c2.0529-10.894 4.201-20.889 11.537-29.676 9.4523-11.322 23.53-16.924 37.535-16.699zm97.725 24.367c1.6477 5.0447 0.36523 12.525 0.36523 17.061 0 20.921-5.6076 45.181-29.678 51.938l-24.73-27.203-3.7109 2.4746 34.627 35.863 64.307 64.307v1.2383c-23.259 23.259-52.798 46.095-71.729 72.963h89.355a175.76 175.76 0 0 0 2.2266-5.1055c-4.7641 2.7715-11.88 1.3926-18.613 1.3926h-65.547l34.627-35.863 35.865-34.627c-11.961-10.5-22.462-22.71-33.988-33.688-3.208-3.0547-10.497-8.1655-8.918-13.326 3.8733-12.661 23.123-17.681 26.436-30.898 2.9981-11.957-2.6479-26.446 0.75391-38.291a175.76 175.76 0 0 0-7.3965-7.8906c3.9894 9.8116 2.0879 21.464 2.0879 32.578 0 5.3313 1.1834 12.406-1.2715 17.314-4.891 9.7834-17.008 18.28-24.699 25.971h-1.2363c-3.0534-2.8518-10.461-7.5148-8.459-12.482 4.8466-12.021 21.724-17.252 26.264-29.564 4.473-12.133-2.4292-27.357 1.1621-39.715a175.76 175.76 0 0 0-7.1348-6.1641c6.0192 12.669 6.5724 37.444 1.7363 47.115-5.1126 10.226-17.892 19.164-25.936 27.207h-1.2363l-9.8926-8.6562 28.934-33.391 1.8555-35.869a175.76 175.76 0 0 0-6.4258-4.6875zm-26.838 2.2207c-4.9653 1.5934-6.3968 5.3862-8.6562 9.8926-7.9989 15.947-2.8475 23.11 4.9473 38.338h2.4727l11.268-24.734-10.031-23.496zm-1.2363 6.1816c7.6441 16.129 6.7065 19.758 0 35.863-11.5-10.337-11.5-25.526 0-35.863zm66.234 27.709c-4.0137 2.0717 3.3162 9.0814 8.5195 11.908a175.76 175.76 0 0 0-8.5195-11.908zm-233.12 9.25c-12.691 0.07609-22.978 1.8676-32.215 14.98 19.258 0 33.442 2.6414 45.758-14.842-4.8146 0-9.3126-0.16404-13.543-0.13868zm45.758 0c-12.691 0.07609-22.978 1.8676-32.215 14.98 19.259 0 33.441 2.6414 45.758-14.842-4.8148 0-9.3126-0.16404-13.543-0.13868zm184.2 10.035 11.131 14.84h1.2363l8.1523-7.1328a175.76 175.76 0 0 0-3.5547-6.4941c-0.44951 2.0015-2.005 3.8274-4.5977 6.207h-1.2363l-11.131-7.4199zm-294.15 13.605a175.76 175.76 0 0 0-3.4082 7.8164c4.6042-4.6967 12.826-2.875 20.539-2.875h66.785l-0.00195 0.00196-24.209 25.939-45.047 44.553 45.758 44.52v1.2383c-8.5373 7.6254-23.909 18.442-28.637 28.846-5.1816 11.401-1.2722 32.585-1.0625 45.537a175.76 175.76 0 0 0 6.9394 6.9394c-2.7739-5.9509-1.9805-12.865-1.9805-20.729 0-9.4062-2.4531-22.827 0.63086-31.752 3.2679-9.4581 18.912-21.287 26.576-27.611l8.2305 9.8945-5.7617 9.8926-20.271 22.262-0.7207 44.033a175.76 175.76 0 0 0 6.4609 5.3613c-2.9551-5.3523-1.5449-13.075-1.5449-19.715 0-9.1094-2.4236-22.32 0.7461-30.918 3.5863-9.7269 18.148-21.351 26.461-27.207l8.4023 11.131-27.443 32.154-0.73242 38.9a175.76 175.76 0 0 0 5.5898 3.8496c-3.3868-8.4476-3.4559-38.131 0.50586-45.879 2.5271-4.9429 8.159-9.0479 12.037-12.943 3.1857-3.2006 9.2642-12.189 14.242-11.988 8.3022 0.3328 22.462 19.179 26.98 25.594h1.2363c2.3039-8.8696-15.386-21.275-21.369-27.178-18.131-17.884-36.202-35.872-54.066-54.018-4.7798-4.8541-17.886-13.778-18.975-20.617-1.1842-7.4352 12.112-15.169 16.549-20.023 15.877-17.37 42.336-34.188 53.131-55.01h-92.57zm295.39 4.9414c-1.003 7.0963 5.2114 11.391 9.8926 16.076h1.2383l12.365-12.365v-1.2383c-5.9661-2.2632-8.941 1.384-12.365 6.1836l-11.131-8.6562zm-166.96 4.9434 0.00195 0.00391c0 25.362-26.004 37.752-25.971 65.545 0.01402 12.612 4.0064 24.574 11.785 34.627 3.8572 4.985 11.049 9.1861 13.439 15.051 1.8538 4.551 0.74609 11.028 0.74609 15.867-12.646-0.04674-18.753-8.8603-27.207-17.314l-48.232-48.232c12.547-17.812 31.588-32.825 46.994-48.232 9.0921-9.0921 14.973-17.304 28.443-17.314zm4.9453 0h53.178v12.367c-20.822-5.6814-32.398-4.9219-53.178 0v-12.367zm59.357 0c13.965 0.00935 20.296 9.1651 29.682 18.551l45.758 45.758v1.2363l-48.232 48.232c-8.4541 8.4541-14.561 17.268-27.207 17.312 0-4.9728-1.0348-11.342 0.74609-16.059 2.1568-5.7109 8.8774-10.009 12.562-14.859 7.273-9.5722 12.561-22.43 12.564-34.627 0.00935-27.511-25.873-39.992-25.873-65.545zm-198.45 3.7129a175.76 175.76 0 0 0-8.9785 33.785c0.13244-0.12474 0.26597-0.24881 0.4082-0.35937 8.5742-6.6658 27.448 1.7247 37.598-2.0176 12.233-4.5102 24.251-22.269 33.391-31.408h-62.418zm302.33 9.8906c-6.605 17.412 26.393 17.412 19.787 0h-1.2363c-7.8628 7.6763-10.225 5.8062-18.551 0zm-136.31 9.7539c46.722 0.33399 57.828 75.704 7.6914 82.787-53.547 7.5684-68.709-74.339-14.84-82.275 2.4671-0.36359 4.8506-0.52814 7.1484-0.51171zm136.31 10.033c-6.605 17.412 26.393 17.412 19.787 0h-1.2363c-7.8628 7.6763-10.225 5.8062-18.551 0zm-135.76 2.7715c-0.87936 0.04302-1.7973 0.18313-2.75 0.42969-15.795 4.0873-9.4293 28.383 6.1641 23.965 14.367-4.0707 9.7764-25.04-3.4141-24.395zm-18.381 28.098c-1.6809-0.02806-3.4744 0.31121-5.3398 1.1094-14.274 6.1082-4.3509 28.076 9.8203 22.566 13.517-5.2559 7.286-23.479-4.4805-23.676zm35.785 0.00391c-1.6586-0.0608-3.4364 0.23243-5.2969 0.96289-14.67 5.7604-4.7814 28.715 9.8262 22.566 12.838-5.404 7.081-23.104-4.5293-23.529zm-163.61 16.121-12.367 12.367v1.2363c5.9661 2.2632 8.9434-1.384 12.367-6.1836h1.2363l9.8926 8.6582c1.0342-7.3211-5.576-12.166-11.129-16.078zm297.37 12.52c-4.7237 0.02442-9.2184 0.47061-12.922 1.8359-12.643 4.6611-25.175 23.192-34.627 32.645h58.697a175.76 175.76 0 0 0 8.9707-33.471c-6.0837-0.22909-13.318-1.0449-20.119-1.0098zm-296.8 8.9277c-0.79302-0.0339-1.5964 0.1031-2.4004 0.44922-2.4356 1.0487-11.448 8.7208-8.3184 11.752 2.7461 2.6589 7.1439-3.868 9.8203-4.2402 4.1176-0.5738 8.0201 5.0216 12.703 5.2207v-0.00196c-1.2083-4.3046-6.2536-12.942-11.805-13.18zm120.63 15.654h0.00391c17.984 9.4768 33.632 4.9976 51.938 0l-1.9824 12.332-14.094 1.2715h-37.102l1.2363-13.604zm-123.06 5.6543c-6.1574 0.07627-11.525 3.691-8.0332 12.896h1.2363c7.1496-6.9799 10.165-6.9799 17.314 0 6.6214-7.2429-2.6009-12.995-10.518-12.896zm1.8711 15.375-9.8926 11.129h-0.097656a175.76 175.76 0 0 0 2.2012 4.0801l7.7891-7.7891h1.2363l9.8945 8.6562-9.8945-16.076h-1.2363zm216.18 9.7051c-13.032 0.00463-23.761 1.6819-33.158 15.023 19.567 0 34.463 2.9488 46.992-14.84-4.8917 0-9.49-0.18514-13.834-0.18359zm43.578 1.2793c-12.691 0.07624-22.98 1.8681-32.217 14.98 17.125 0 36.708 3.514 45.758-14.84-4.8148 0-9.3106-0.16604-13.541-0.14063zm-184.33 8.7969c-11.724 20.526-10.527 28.906 0 49.467 15.874-13.609 15.834-35.895 0-49.467zm-75.426 0.00586-3.3379 2.5039a175.76 175.76 0 0 0 3.4082 5.1484c-0.02115-0.07776-0.05007-0.15459-0.07031-0.23242l11.131 8.6562-9.8945-16.076h-1.2363zm76.664 6.1777c8.9388 15.172 7.7549 20.207 1.2363 35.865h-2.4746c-7.0552-13.783-9.5248-22.875 1.2383-35.865zm54.41 22.262h63.074c-4.5647 35.347-42.749 61.894-75.441 38.598-13.564-9.6671-17.274-22.14-21.023-37.361l33.391-1.2363z" stroke-width="4.6741"/>
  <path transform="scale(.26458)" d="m106.26 345.46-10.756 10.754v1.0762c5.1884 1.9682 7.7783-1.203 10.756-5.377h1.0742l8.6055 7.5274c0.89944-6.3668-4.8506-10.579-9.6797-13.98zm0.49024 18.65c-0.68965-0.02949-1.3887 0.08962-2.0879 0.39062-2.1181 0.912-9.9558 7.5846-7.2344 10.221 2.3881 2.3123 6.2135-3.3638 8.541-3.6875 3.5803-0.49893 6.9732 4.3644 11.045 4.5391-1.0508-3.7435-5.4361-11.256-10.264-11.463zm-2.1133 18.531c-5.3548 0.06632-10.021 3.2093-6.9844 11.215h1.0742c6.2176-6.0701 8.841-6.0701 15.059 0 5.7583-6.2988-2.2636-11.3-9.1484-11.215z" stroke-width="4.0649"/>
  <path d="m55.891 21.573 6.6928-7.7974 4.0937 0.12996-10.916 9.6818 0.12996-2.0143"/>
  <rect x="108" y="76.934" width="11.303" height="6.0009"/>
  <path d="m85.016 86.231 31.643 0.01117 1.3469-1.7492-17.056 0.75641 1.6105 0.91669"/>
 </g>
 <path d="m58.298 124.53-8.6944-8.565-1.4789-0.56526c-4.7314-1.8084-9.2399-4.306-13.168-7.2947l-1.4387-1.0946-4.0195 2.3267c-3.0652 1.7744-4.0548 2.289-4.1682 2.1677-0.21618-0.23115-18.719-32.327-18.777-32.57-0.03366-0.14309 0.45186-0.48484 1.6146-1.1365 0.9145-0.51254 1.664-0.97096 1.6655-1.0187 0.0015-0.04775-2.2104-2.2682-4.9155-4.9343l-4.9183-4.8475 17.123-17.382 0.69996-1.8173c4.9683-12.899 14.989-23.424 27.588-28.975 1.0799-0.47584 2.0241-0.86516 2.0983-0.86516 0.08834 0 0.13483-1.5377 0.13483-4.4597v-4.4597h9.5595l8.8916-9.0355 9.2164 9.0355h10.403l0.07014 8.9476 1.5975 0.69548c12.643 5.504 22.654 15.862 27.708 28.667l0.64506 1.6343 2.3309 2.2983c1.282 1.2641 5.1884 5.1181 8.681 8.5645l6.3501 6.2662-5.4684 5.5487c-3.0076 3.0518-5.4458 5.5702-5.4182 5.5966 0.0276 0.02632 1.0087 0.60133 2.1802 1.2778 1.1715 0.67643 2.1504 1.247 2.1753 1.2678 0.0368 0.03084-17.991 31.366-18.732 32.558l-0.21737 0.35001-8.8057-5.1052-0.85565 0.6572c-1.1537 0.8861-4.3008 2.9442-5.8105 3.7999-1.6899 0.9578-4.7312 2.3958-6.5233 3.0844l-1.4937 0.57393-2.306 2.3384c-1.2683 1.2861-5.124 5.1951-8.5682 8.6866l-6.2622 6.3482zm13.775-11.839c9.6937-1.2765 18.36-5.1758 25.294-11.381 0.65898-0.58969 1.2291-1.074 1.267-1.0763 0.03789-3e-3 1.6554 0.91547 3.5944 2.0394s3.5657 2.0076 3.6149 1.9636c0.10659-0.0954 12.988-22.398 13.09-22.664 0.0492-0.1281-1.0077-0.80299-3.4926-2.2304-1.9597-1.1257-3.5815-2.062-3.604-2.0808-0.0225-0.01877 0.11067-0.81157 0.29595-1.7618 0.64632-3.3147 0.7909-4.9084 0.8-8.8184 9e-3 -3.8678-0.10117-5.2376-0.67459-8.3869-3.0294-16.638-14.736-30.254-30.714-35.724l-1.6169-0.55353-0.07074-7.5213h-26.355v7.4435l-1.0651 0.33647c-15.177 4.7945-27.058 17.425-30.938 32.89-0.99501 3.9666-1.3435 6.9461-1.3392 11.449 0.0035 3.8069 0.1648 5.6273 0.77356 8.7394l0.30332 1.5506-3.6387 2.0974c-3.4968 2.0156-3.6317 2.1083-3.4599 2.3766 0.09838 0.15357 3.0441 5.2515 6.546 11.329 3.5019 6.0772 6.4126 11.101 6.4683 11.165 0.05563 0.0634 1.6671-0.78943 3.5811-1.8952l3.48-2.0105 1.5567 1.3654c7.8326 6.87 17.133 10.77 27.649 11.596 1.3812 0.10845 7.2473-0.0529 8.6532-0.23806z" stroke-width=".13313"/>
 <g transform="translate(68.068 -.058754)" stroke="#fff" aria-label="33">
  <path d="m-23.467 73.361c-0.98778 0-1.4224 0.43462-1.4224 1.4224v4.6228c0 0.98778 0.43462 1.4224 1.4224 1.4224h12.486c5.0574 0 7.6652-2.4892 7.6652-6.5588v-3.9511c0-3.477-1.2248-5.2945-4.9784-5.7291 1.7385-0.75071 2.3312-2.2521 2.3312-4.2672v-2.2916c0-3.477-2.0941-5.6501-6.4798-5.6501h-11.024c-0.98778 0-1.4224 0.43462-1.4224 1.4224v4.7018c0 0.98778 0.43462 1.4224 1.4224 1.4224h7.3491c1.2644 0 1.5014 0.55316 1.5014 1.1853v0.59267c0 0.63218-0.23707 1.1853-1.5014 1.1853h-4.1487c-0.98778 0-1.4224 0.43462-1.4224 1.4224v4.2277c0 0.98778 0.43462 1.4224 1.4224 1.4224h6.7169c1.2644 0 1.5014 0.51364 1.5014 1.1458v1.0668c0 0.63218-0.23707 1.1853-1.5014 1.1853z"/>
  <path d="m1.7012 73.361c-0.98778 0-1.4224 0.43462-1.4224 1.4224v4.6228c0 0.98778 0.43462 1.4224 1.4224 1.4224h12.486c5.0574 0 7.6652-2.4892 7.6652-6.5588v-3.9511c0-3.477-1.2248-5.2945-4.9784-5.7291 1.7385-0.75071 2.3312-2.2521 2.3312-4.2672v-2.2916c0-3.477-2.0941-5.6501-6.4798-5.6501h-11.024c-0.98778 0-1.4224 0.43462-1.4224 1.4224v4.7018c0 0.98778 0.43462 1.4224 1.4224 1.4224h7.3491c1.2644 0 1.5014 0.55316 1.5014 1.1853v0.59267c0 0.63218-0.23707 1.1853-1.5014 1.1853h-4.1487c-0.98778 0-1.4224 0.43462-1.4224 1.4224v4.2277c0 0.98778 0.43462 1.4224 1.4224 1.4224h6.7169c1.2644 0 1.5014 0.51364 1.5014 1.1458v1.0668c0 0.63218-0.23707 1.1853-1.5014 1.1853z"/>
 </g>
 <metadata>
  <rdf:RDF>
   <cc:Work rdf:about="">
    <dc:title>Facility-33</dc:title>
   </cc:Work>
  </rdf:RDF>
 </metadata>
</svg>
