<?xml version="1.0" encoding="UTF-8"?>
<!-- Created with Inkscape (http://www.inkscape.org/) -->
<svg width="133.1mm" height="133.09mm" version="1.1" viewBox="0 0 133.1 133.09" xmlns="http://www.w3.org/2000/svg" xmlns:cc="http://creativecommons.org/ns#" xmlns:dc="http://purl.org/dc/elements/1.1/" xmlns:rdf="http://www.w3.org/1999/02/22-rdf-syntax-ns#">
 <title>File name:</title>
 <defs>
  <clipPath id="clipPath4240">
   <circle cx="-14.198" cy="215.99" r="37.086" fill="none" stroke="#f00" stroke-linecap="round" stroke-width=".32816"/>
  </clipPath>
  <g id="s" transform="translate(0,-36)"></g>
  <clipPath id="clipPath1204">
   <path d="m-8.9351 114.37c-4.4238-0.80096-10.209-2.736-14.223-4.7575-3.3175-1.6707-5.687-3.2658-11.005-7.4083-1.2091-0.94188-1.3248-0.91649-4.6155 1.0122-1.8564 1.088-3.5794 1.7684-3.8287 1.512-0.56993-0.58611-13.093-22.2-13.079-22.573 0.0058-0.15094 1.615-1.2128 3.576-2.3597l3.5656-2.0852-0.43715-2.5549c-0.88554-5.1754-0.4491-15.889 0.83325-20.454 3.9242-13.97 12.786-24.785 25.478-31.092 2.1017-1.0444 4.7424-2.1976 5.8683-2.5626l2.0471-0.66363v-7.5578h26.749v7.547l3.7668 1.4394c13.342 5.0981 23.61 15.96 28.474 30.12 1.797 5.2311 1.8499 5.6319 1.8635 14.118 0.0077 4.8038-0.15187 9.4713-0.35455 10.372-0.35167 1.563-0.19922 1.7376 3.3364 3.8212l3.705 2.1834-6.3433 10.918c-3.4888 6.0048-6.5309 11.21-6.7601 11.567-0.29981 0.4671-1.4497 0.0958-4.096-1.3224l-3.6792-1.9719-4.0484 3.1279c-4.9075 3.7918-11.423 7.0268-17.258 8.5684-4.8582 1.2836-15.194 1.8426-19.535 1.0565z" fill="none" stroke="#f00" stroke-linecap="round" stroke-width="1.0316"/>
  </clipPath>
  <clipPath id="clipPath1212">
   <path d="m-8.9351 114.37c-4.4238-0.80096-10.209-2.736-14.223-4.7575-3.3175-1.6707-5.687-3.2658-11.005-7.4083-1.2091-0.94188-1.3248-0.91649-4.6155 1.0122-1.8564 1.088-3.5794 1.7684-3.8287 1.512-0.56993-0.58611-13.093-22.2-13.079-22.573 0.0058-0.15094 1.615-1.2128 3.576-2.3597l3.5656-2.0852-0.43715-2.5549c-0.88554-5.1754-0.4491-15.889 0.83325-20.454 3.9242-13.97 12.786-24.785 25.478-31.092 2.1017-1.0444 4.7424-2.1976 5.8683-2.5626l2.0471-0.66363v-7.5578h26.749v7.547l3.7668 1.4394c13.342 5.0981 23.61 15.96 28.474 30.12 1.797 5.2311 1.8499 5.6319 1.8635 14.118 0.0077 4.8038-0.15187 9.4713-0.35455 10.372-0.35167 1.563-0.19922 1.7376 3.3364 3.8212l3.705 2.1834-6.3433 10.918c-3.4888 6.0048-6.5309 11.21-6.7601 11.567-0.29981 0.4671-1.4497 0.0958-4.096-1.3224l-3.6792-1.9719-4.0484 3.1279c-4.9075 3.7918-11.423 7.0268-17.258 8.5684-4.8582 1.2836-15.194 1.8426-19.535 1.0565z" fill="none" stroke="#f00" stroke-linecap="round" stroke-width="1.0316"/>
  </clipPath>
  <clipPath id="clipPath961">
   <path d="m-8.9351 114.37c-4.4238-0.80096-10.209-2.736-14.223-4.7575-3.3175-1.6707-5.687-3.2658-11.005-7.4083-1.2091-0.94188-1.3248-0.91649-4.6155 1.0122-1.8564 1.088-3.5794 1.7684-3.8287 1.512-0.56993-0.58611-13.093-22.2-13.079-22.573 0.0058-0.15094 1.615-1.2128 3.576-2.3597l3.5656-2.0852-0.43715-2.5549c-0.88554-5.1754-0.4491-15.889 0.83325-20.454 3.9242-13.97 12.786-24.785 25.478-31.092 2.1017-1.0444 4.7424-2.1976 5.8683-2.5626l2.0471-0.66363v-7.5578h26.749v7.547l3.7668 1.4394c13.342 5.0981 23.61 15.96 28.474 30.12 1.797 5.2311 1.8499 5.6319 1.8635 14.118 0.0077 4.8038-0.15187 9.4713-0.35455 10.372-0.35167 1.563-0.19922 1.7376 3.3364 3.8212l3.705 2.1834-6.3433 10.918c-3.4888 6.0048-6.5309 11.21-6.7601 11.567-0.29981 0.4671-1.4497 0.0958-4.096-1.3224l-3.6792-1.9719-4.0484 3.1279c-4.9075 3.7918-11.423 7.0268-17.258 8.5684-4.8582 1.2836-15.194 1.8426-19.535 1.0565z" fill="none" stroke="#f00" stroke-linecap="round" stroke-width="1.0316"/>
  </clipPath>
 </defs>
 <g transform="translate(68.068 -.058754)">
  <path d="m-54.474 10.639h107.26v101.33h-107.26z" clip-path="url(#clipPath1212)" fill="#cf142b" stroke-width=".70935"/>
  <path d="m-54.474 10.639h107.26v75.456h-107.26z" clip-path="url(#clipPath961)" fill="#00247d" stroke-width=".74969"/>
  <path transform="translate(0 1.0583)" d="m-54.474 10.639h107.26v38.004h-107.26z" clip-path="url(#clipPath1204)" fill="#fc0" stroke-width=".75243"/>
  <g fill="#fff">
   <g transform="matrix(.78407 0 0 .78407 -14.698 .012687)">
    <path transform="matrix(1.6046 0 0 1.6046 39.591 -261.64)" d="m-18.567 257.35c-10.553-1.1944-20.21-6.2248-27.005-14.068-7.3345-8.4652-11.087-19.849-10.079-30.574 0.88137-9.3769 4.1737-17.232 10.079-24.048 3.7234-4.2974 7.9348-7.4829 13.379-10.12 4.9973-2.4208 8.7705-3.4498 14.724-4.0153 5.0238-0.47722 11.181 0.24564 16.365 1.9214 2.4033 0.77681 7.6891 3.3791 10.054 4.9498 12.369 8.2148 19.703 23.419 18.296 37.931-0.90441 9.3276-4.2089 17.184-10.076 23.955-8.7966 10.153-22.537 15.562-35.737 14.068zm-3.5266-14.542c3.9042-3.9392 7.3217-7.285 7.5946-7.4353 0.43044-0.23709 1.4817 0.71021 7.9482 7.1621 4.0987 4.0894 7.5425 7.4353 7.653 7.4353 0.46342 0 1.7621-0.83263 1.7621-1.1298 0-0.34954-16.662-17.126-17.009-17.126-0.31093 0-17.122 16.868-17.122 17.18 0 0.28757 1.2602 1.0485 1.765 1.0658 0.1704 6e-3 3.5042-3.2124 7.4083-7.1515zm-1.3682-3.4212c4.9461-4.9477 9.1728-8.9958 9.3927-8.9958s4.3871 3.9886 9.2604 8.8636c4.8733 4.8749 9.0398 8.864 9.2589 8.8647 0.84525 2e-3 5.0215-3.1579 7.6863-5.8166 3.9708-3.9615 7.1172-8.8975 8.8708-13.916 0.80618-2.3072 1.0233-2.2286-6.1503-2.2286h-6.28l-3.1513-3.1513c-2.8347-2.8346-3.435-3.7279-2.5053-3.7279 0.15927 0 1.647 1.3394 3.306 2.9766l3.0164 2.9766 6.005 0.0787c4.6103 0.0604 6.1109-1e-3 6.4609-0.26459 1.0728-0.80782 1.9487-12.051 0.98624-12.66-0.2111-0.13355-2.7491-0.24464-5.64-0.24686l-5.2562-4e-3 -3.0237 2.9517c-2.3209 2.2657-3.0962 2.8792-3.3355 2.6399-0.23932-0.23932 0.40928-1.033 2.7906-3.4147l3.1024-3.103 11.375-0.1614v-0.629c0-1.2141-1.5697-6.7004-2.6024-9.0959-1.1353-2.6333-3.109-6.121-3.4639-6.121-0.40207 0-0.54094 1.1473-0.5446 4.4996l-4e-3 3.3089-8.0698 8.0665c-4.4384 4.4366-8.0698 8.183-8.0698 8.3253 0 0.14234 2.6789 2.947 5.9531 6.2325l5.9531 5.9737v4.7846c0 4.7382-6e-3 4.7862-0.59531 4.9441-0.8778 0.23524-8.7428 0.19336-9.1237-0.0486-0.17945-0.11399-3.6527-3.5054-7.7182-7.5366-7.3615-7.2991-7.3966-7.3293-8.5224-7.3293-1.1274 0-1.1512 0.0206-8.7007 7.5406l-7.5702 7.5406h-4.3953c-2.4174 0-4.5836-0.0723-4.8138-0.16059-0.36029-0.13826-0.41851-0.82658-0.41851-4.9478v-4.7872l5.9531-5.9737c3.2742-3.2856 5.9531-6.0833 5.9531-6.2172s-3.6909-3.9467-8.2021-8.4729l-8.2021-8.2294v-3.911c0-3.0079-0.0764-3.8869-0.33073-3.8068-0.50642 0.15948-2.6798 3.9076-3.765 6.493-0.98563 2.3481-2.5188 7.7829-2.5188 8.9286v0.62926l11.64 0.161 3.1024 3.103c2.3306 2.3311 3.027 3.1783 2.7994 3.406-0.41735 0.41734-1.2599-0.22757-4.1547-3.1802l-2.3557-2.4027-5.3173 4e-3c-2.9245 2e-3 -5.4947 0.11623-5.7115 0.25334-0.96909 0.61268-0.0848 11.839 0.9967 12.654 0.35042 0.26377 1.876 0.32499 6.5932 0.26458l6.1372-0.0786 3.0164-2.9766c1.659-1.6371 3.1339-2.9766 3.2775-2.9766 0.8124 0 0.31736 0.68647-2.6142 3.6251l-3.2463 3.2541h-6.2961c-7.1918 0-6.9728-0.0792-6.1664 2.2286 2.4661 7.0578 8.0333 14.291 14.126 18.353 1.3556 0.90383 2.5469 1.6433 2.6473 1.6433 0.10041 0 4.2294-4.0481 9.1755-8.9958zm-24.298-15.787c-0.097-0.097-0.17639-1.1048-0.17639-2.2396 0-1.8423 0.0611-2.096 0.57053-2.3686 0.63783-0.34135 13.541-0.24235 13.89 0.10657 0.10802 0.10802-0.80673 1.2048-2.0328 2.4372l-2.2292 2.2408h-4.9227c-2.7075 0-5.0021-0.0794-5.0991-0.17639zm55.135-2.059c-1.2291-1.2355-2.1428-2.3382-2.0306-2.4504 0.35576-0.35576 13.244-0.44005 13.897-0.0909 0.53098 0.28417 0.57044 0.47966 0.49988 2.4764l-0.0766 2.1679-10.055 0.1432zm-57.638-3.546c-0.24627-0.15623-0.3204-0.84086-0.26458-2.4433l0.0776-2.2263 10.055-0.1432 2.2152 2.2267c1.2586 1.2652 2.1372 2.3529 2.0345 2.519-0.21507 0.348-13.575 0.41153-14.118 0.0671zm58.269-0.0671c-0.10265-0.16608 0.77589-1.2538 2.0345-2.519l2.2152-2.2267 10.055 0.1432 0.0777 2.0756c0.0488 1.3026-0.0372 2.2141-0.23083 2.4474-0.25045 0.30177-1.5952 0.37179-7.1397 0.37179-4.7004 0-6.8875-0.0912-7.0118-0.29229zm-26.838 27.015c0-1.8918-0.0921-3.4396-0.20464-3.4396-0.11256 0-1.1173 0.92274-2.2328 2.0505-2.0469 2.0695-2.5198 2.9584-2.2164 4.1672 0.16076 0.64051 0.23708 0.66146 2.4099 0.66146h2.2439zm14.023 2.0564c0-1.3711-0.0179-1.4012-2.0443-3.4396-1.1244-1.131-2.1364-2.0564-2.249-2.0564-0.11256 0-0.20465 1.5478-0.20465 3.4396v3.4396h4.4979zm-18.721-13.365c3.7482-3.7461 6.8149-6.947 6.8149-7.113s-0.6648-0.57173-1.4773-0.90151c-2.6442-1.0732-5.1582-3.8362-5.95-6.5395-0.18115-0.61847-0.45854-1.1245-0.61641-1.1245-0.15788 0-3.4728 3.1841-7.3665 7.0758l-7.0794 7.0758v8.338h8.8598zm-2.2647-1.0338c-0.0994-0.0994-0.1808-1.0989-0.1808-2.221 0-1.3491-0.11627-2.1367-0.34326-2.3251-0.1888-0.15669-1.2612-0.3201-2.3832-0.36313-3.0689-0.11771-2.5239-0.60741 0.67593-0.60741h2.712l0.0762 2.6225c0.0705 2.4236-0.1067 3.3443-0.5569 2.8941zm2.6342-2.6574c-0.0931-0.0931-0.16919-1.0873-0.16919-2.2094 0-1.3491-0.11628-2.1367-0.34327-2.3251-0.1888-0.15668-1.2612-0.32009-2.3832-0.36312-1.1318-0.0434-2.0397-0.19603-2.0394-0.34283 8e-4 -0.39028 4.7309-0.49071 5.1894-0.11017 0.26878 0.22306 0.37023 0.98286 0.37023 2.7728 0 2.2619-0.18342 3.0189-0.62456 2.5778zm34.168 6.278 0.0734-4.0921-7.2153-7.2189c-3.9684-3.9704-7.3091-7.2189-7.4238-7.2189s-0.26024 0.14882-0.32344 0.33072c-1.3733 3.9531-2.9963 5.9938-5.8503 7.3559-0.93013 0.44391-1.6912 0.94902-1.6912 1.1224 0 0.17344 3.0659 3.3842 6.813 7.1349l6.813 6.8196 8.7312-0.1417zm-13.834-3.7549c-0.0833-0.21715-0.117-1.517-0.0748-2.8885l0.0767-2.4937h2.712c3.3612 0 3.6488 0.47602 0.39964 0.66146l-2.3179 0.13229-0.0779 2.2475c-0.0748 2.159-0.39138 3.1914-0.71773 2.341zm-2.6458-2.6458c-0.0833-0.21715-0.11699-1.517-0.0748-2.8885l0.0767-2.4937 2.712-0.0754c2.2647-0.063 2.712-0.0101 2.712 0.32043 0 0.3154-0.4704 0.41136-2.3151 0.47227l-2.3151 0.0765-0.0779 2.2475c-0.0748 2.159-0.39137 3.1914-0.71772 2.341zm-7.0096-6.3268c2.7681-0.6282 5.2243-3.1699 5.8406-6.044 1.1119-5.1846-3.8529-10.145-9.0466-9.0388-4.1155 0.87663-6.9274 5.0608-6.0742 9.0388 0.60201 2.8071 2.8752 5.2413 5.5749 5.9698 1.4882 0.4016 2.1999 0.41585 3.7054 0.0742zm-3.8365-2.8628c-4.1097-1.8968-3.9912-7.6607 0.19355-9.4092 4.2357-1.7698 8.5103 2.6893 6.5824 6.8665-1.2086 2.6186-4.1886 3.7368-6.776 2.5426zm-9.4478-3.2803c0.82581-0.84144 1.1134-1.3468 1.1134-1.9565 0-1.6366 1.0439-4.2669 2.3909-6.0243l1.3133-1.7134v-4.1074l-12.051-12.051h-4.5697c-6.2065 0-5.8686-0.34588-5.8686 6.0057v4.7068l8.1343 8.1375c4.4739 4.4756 8.1996 8.1375 8.2793 8.1375s0.64599-0.51053 1.2584-1.1345zm-1.6775-4.7566c-0.0778-0.20265-0.10668-1.4306-0.0643-2.7288l0.0771-2.3603 2.712-0.0754c1.7413-0.0484 2.712 0.0226 2.712 0.19843 0 0.16289-0.75742 0.27384-1.8695 0.27384-2.7564 0-2.893 0.12464-2.893 2.6395 0 1.9252-0.33356 2.9406-0.67429 2.0527zm-2.9168-2.6626c-0.0742-0.19341-0.10025-1.4138-0.0578-2.712l0.0771-2.3603 2.8443-0.0751c1.7968-0.0474 2.8443 0.0238 2.8443 0.19339 0 0.36186-0.83004 0.52777-3.0427 0.60816l-1.8521 0.0673-0.0764 2.3151c-0.0694 2.1017-0.37298 2.9109-0.73656 1.9634zm-2.7589-5.0723v-2.7781h2.7781c1.528 0 2.7781 0.10632 2.7781 0.23627 0 0.40501-0.76572 0.55748-2.7998 0.55748h-1.9627v1.9627c0 2.034-0.15246 2.7998-0.55747 2.7998-0.12995 0-0.23628-1.2502-0.23628-2.7781zm-2.6458-2.8884v-2.8002h2.8002c2.1222 0 2.7736 0.0801 2.6906 0.33073-0.0736 0.22226-0.85849 0.35576-2.3932 0.40703l-2.2836 0.0763-0.0763 2.2836c-0.0513 1.5347-0.18477 2.3195-0.40703 2.3931-0.25065 0.083-0.33073-0.56845-0.33073-2.6906zm-2.5892-2.5765 0.0757-2.7372 2.7372-0.0757c2.138-0.0591 2.7126-1e-3 2.6249 0.26458-0.0748 0.22654-0.85697 0.38448-2.3403 0.47256l-2.228 0.13229-0.13229 2.228c-0.0881 1.4834-0.24602 2.2656-0.47256 2.3403-0.26577 0.0877-0.32369-0.48694-0.26458-2.6249zm-2.7978-0.40725c-0.0931-0.0931-0.1692-1.3377-0.1692-2.7659 0-2.4734 0.0283-2.6038 0.5962-2.7463 1.0855-0.27245 4.7771-0.0175 4.8947 0.33799 0.081 0.24492-0.40556 0.33073-1.8754 0.33073-2.8841 0-2.8218-0.0558-2.8218 2.5262 0 2.0295-0.19368 2.7482-0.62455 2.3173zm48.58 11.106 7.8714-7.8997v-9.1485l-1.5468-1.5468h-8.8779l-12.065 12.023v2.2203c0 2.2192 5.3e-4 2.221 1.1863 3.7984 1.1751 1.5632 2.2533 4.3017 2.2533 5.7231 0 0.95209 2.2845 3.2962 2.8871 2.9624 0.23112-0.12803 3.9623-3.7877 8.2916-8.1325zm-8.7974 0.59661c0-2.6979-0.0972-2.7874-3.0253-2.7874-1.2018 0-2.0018-0.10931-2.0018-0.27353 0-0.17602 1.014-0.24677 2.8443-0.19844l2.8443 0.0751 0.0785 2.1158c0.0843 2.2728-0.0661 3.3082-0.48036 3.3082-0.14923 0-0.25955-0.95194-0.25955-2.2396zm2.9104-2.3689c0-2.8225 0.0183-2.7998-2.2556-2.7998-2.0075 0-2.7714-0.15367-2.7714-0.55747 0-0.12995 1.2502-0.23628 2.7781-0.23628h2.7781v2.7781c0 1.6757-0.105 2.7781-0.26459 2.7781-0.15261 0-0.26458-0.83063-0.26458-1.9627zm2.8222-0.85949c-0.097-0.097-0.17639-1.1639-0.17639-2.371v-2.1946l-2.2938-0.0764c-1.5427-0.0514-2.3296-0.18474-2.4033-0.40717-0.083-0.25065 0.56845-0.33073 2.6906-0.33073h2.8002v2.7781c0 2.5439-0.12949 3.0896-0.61736 2.6017zm2.599-3.0648c-0.0651-0.1819-0.1507-1.2237-0.19013-2.3151l-0.0717-1.9844-2.228-0.13229c-1.4834-0.0881-2.2656-0.24601-2.3403-0.47255-0.0877-0.26577 0.48694-0.3237 2.6249-0.26459l2.7372 0.0757 0.0754 2.712c0.0498 1.7913-0.0204 2.712-0.20674 2.712-0.15518 0-0.33544-0.14883-0.40059-0.33073zm2.4605-4.6302-0.0764-2.3151-2.3151-0.0765c-1.8447-0.0609-2.3151-0.15687-2.3151-0.47227 0-0.33055 0.44731-0.3834 2.712-0.32043l2.712 0.0754 0.0754 2.712c0.063 2.2647 0.0101 2.712-0.32042 2.712-0.31541 0-0.41137-0.47041-0.47228-2.3151zm3.1355-0.77889c-0.0931-0.0931-0.1692-1.1486-0.1692-2.3458 0-2.5498 0.0588-2.4978-2.8218-2.4978-1.4698 0-1.9564-0.0858-1.8754-0.33073 0.11763-0.35553 3.8092-0.61044 4.8947-0.33799 0.56844 0.14266 0.5962 0.27191 0.5962 2.7748 0 2.4046-0.17785 3.1841-0.62455 2.7374zm-30.224 7.195c1.1763-0.39486 2.5727-0.66146 3.4646-0.66146s2.2884 0.2666 3.4646 0.66146c1.0838 0.3638 2.087 0.66146 2.2295 0.66146 0.16439 0 0.25902-3.6474 0.25902-9.9835v-9.9835l-2.7073-2.7165c-1.489-1.4941-2.8901-2.7165-3.1136-2.7165s-1.6246 1.2224-3.1136 2.7165l-2.7072 2.7165v9.9835c0 5.4909 0.057 9.9835 0.12672 9.9835 0.0697 0 1.0134-0.29766 2.0972-0.66146zm1.2428-4.4707c-1.7785-1.7904-2.1504-2.5408-1.2592-2.5408 0.17828 0 0.97086 0.65485 1.7613 1.4552 0.79042 0.80037 1.6239 1.4552 1.8521 1.4552 0.22823 0 1.0617-0.65484 1.8521-1.4552 1.4394-1.4575 1.9287-1.7088 2.2658-1.1634 0.2221 0.35935-3.544 4.2061-4.1179 4.2061-0.22556 0-1.2849-0.88071-2.3542-1.9571zm0.0325-3.4069c-1.0514-1.0584-1.9116-2.0705-1.9116-2.249 0-0.72807 1.0273-0.24027 2.3812 1.1307 0.79042 0.80036 1.6003 1.4552 1.7998 1.4552 0.19947 0 1.1094-0.71709 2.0222-1.5935 1.4312-1.3744 1.7052-1.5385 1.9915-1.1934 0.27972 0.33704 0.0284 0.71325-1.5948 2.3873-1.0598 1.093-2.1181 1.9872-2.3518 1.9872s-1.2852-0.86601-2.3365-1.9245zm-4.6196-4.323 0.0702-7.3942 6.8711-6.8559 6.8792 6.8639v7.4783c0 5.7782 0.0747 7.4783 0.32843 7.4783 0.18063 0 2.8007-2.4705 5.8225-5.4901l5.494-5.4901 4.0994-0.0848c2.2547-0.0466 4.0994-0.18559 4.0994-0.30881 0-0.33955-3.716-3.6286-4.6989-4.1589l-0.86242-0.46536-6.1852 6.1811c-3.6262 3.6237-6.3071 6.1057-6.4798 5.999-0.20677-0.12779-0.29452-2.8086-0.29452-8.9976 0-6.7315-0.0782-8.8796-0.33073-9.0865-0.3576-0.29298-3.1115-0.72499-6.2838-0.98574-2.047-0.16825-7.0478 0.22099-8.7974 0.68475l-0.99218 0.26298v8.97c0 6.3025-0.0876 9.0242-0.29453 9.152-0.17264 0.1067-2.8286-2.3503-6.4182-5.9375-3.665-3.6626-6.3244-6.1195-6.6235-6.1195-0.68602 0-5.4491 3.9474-5.4491 4.5159 0 0.11559 1.905 0.24813 4.2332 0.29452l4.2333 0.0844 5.4896 5.4903c3.0193 3.0197 5.6089 5.4506 5.7548 5.402 0.16649-0.0554 0.29129-2.8402 0.33535-7.4825zm-2.3191-6.2395v-7.6933l-1.1686 0.16017c-2.3726 0.32521-9.5976 3.711-9.8922 4.6357-0.1509 0.47362 10.384 11.009 10.77 10.771 0.20117-0.12433 0.29127-2.5599 0.29127-7.8733zm29.305-2.8588c-0.16123-0.86806-7.2424-4.2637-9.7164-4.6593l-1.0683-0.17083v7.6626c0 4.2144 0.0838 7.7464 0.1862 7.8488 0.27599 0.27599 10.685-10.215 10.598-10.681z" clip-path="url(#clipPath4240)" stroke-width=".26458"/>
    <path d="m-41.863 94.279-1.1191 0.24805 1.7148 7.7012 1.1172-0.24805z" color="#000000" style="-inkscape-stroke:none"/>
    <path d="m75.4 94.279-1.7148 7.7012 1.1191 0.24805 1.7129-7.7012z" color="#000000" style="-inkscape-stroke:none"/>
    <path d="m16.057 25.07c-4.7074 0.08112-9.4027 0.85329-13.883 2.3125l0.49805 1.5293c8.6479-2.8167 18.153-2.98 26.893-0.46289 0.56781 0.16353 1.1323 0.33809 1.6934 0.52344l0.50586-1.5273c-0.58075-0.19186-1.1662-0.3737-1.7539-0.54297-4.5277-1.304-9.2458-1.9132-13.953-1.832z" color="#000000" style="-inkscape-stroke:none"/>
   </g>
  </g>
  <g stroke="#fff" aria-label="9">
   <path d="m0.37758 81.654c7.4676 0 9.7197-3.2794 9.7197-8.0998v-12.96c0-4.8204-2.1336-7.9812-11.853-7.9812-9.0876 0-11.379 3.1609-11.379 7.9812v3.7931c0 4.7018 2.1336 7.112 9.2851 7.112 2.0941 0 3.7536-0.19756 5.0179-0.59267v0.86924c0 1.936-0.55316 2.3707-2.4892 2.3707h-7.3886c-0.98778 0-1.4224 0.43462-1.4224 1.4224v4.6623c0 0.98778 0.39511 1.4224 1.4224 1.4224zm0.79022-18.096c0 0.79022-0.3556 1.4224-2.6472 1.4224-2.3707 0-2.7263-0.63218-2.7263-1.4224v-2.3312c0-0.82973 0.3556-1.4619 2.7263-1.4619 2.2916 0 2.6472 0.63218 2.6472 1.4619z"/>
  </g>
  <path d="m-9.7699 124.59-8.6944-8.565-1.4789-0.56526c-4.7314-1.8084-9.2399-4.306-13.168-7.2947l-1.4387-1.0946-4.0195 2.3268c-3.0652 1.7744-4.0548 2.289-4.1682 2.1677-0.21618-0.23116-18.719-32.327-18.777-32.57-0.03366-0.14308 0.45186-0.48484 1.6146-1.1365 0.9145-0.51254 1.664-0.97096 1.6655-1.0187 0.0015-0.04775-2.2104-2.2682-4.9155-4.9343l-4.9183-4.8475 17.123-17.382 0.69996-1.8173c4.9683-12.899 14.989-23.424 27.588-28.975 1.0799-0.47584 2.0241-0.86516 2.0983-0.86516 0.08834 0 0.13483-1.5377 0.13483-4.4597v-4.4597h9.5595l8.8916-9.0355 9.2164 9.0355h10.403l0.07014 8.9475 1.5975 0.69548c12.643 5.504 22.654 15.862 27.708 28.667l0.64506 1.6343 2.3309 2.2983c1.282 1.2641 5.1884 5.1181 8.681 8.5645l6.3501 6.2662-5.4684 5.5487c-3.0076 3.0518-5.4458 5.5702-5.4182 5.5966 0.02757 0.02631 1.0087 0.60133 2.1802 1.2778 1.1715 0.67643 2.1504 1.247 2.1753 1.2678 0.03678 0.03081-17.991 31.366-18.732 32.558l-0.21737 0.35002-8.8057-5.1052-0.85565 0.65719c-1.1537 0.88611-4.3008 2.9443-5.8105 3.7999-1.6899 0.9578-4.7312 2.3958-6.5233 3.0844l-1.4937 0.57393-2.306 2.3384c-1.2683 1.2861-5.124 5.1951-8.5682 8.6866l-6.2622 6.3482zm13.775-11.839c9.6937-1.2765 18.36-5.1758 25.294-11.381 0.65898-0.58969 1.2291-1.074 1.267-1.0763 0.03789-2e-3 1.6554 0.91548 3.5944 2.0394 1.939 1.124 3.5657 2.0076 3.6149 1.9636 0.10659-0.0954 12.988-22.398 13.09-22.664 0.04916-0.12809-1.0077-0.80299-3.4926-2.2304-1.9597-1.1257-3.5815-2.062-3.604-2.0808-0.02249-0.01877 0.11067-0.81157 0.29595-1.7618 0.64632-3.3147 0.7909-4.9084 0.8-8.8184 9e-3 -3.8678-0.10117-5.2376-0.67459-8.3869-3.0294-16.638-14.736-30.254-30.714-35.724l-1.6169-0.55353-0.07074-7.5213h-26.355v7.4435l-1.0651 0.33647c-15.177 4.7945-27.058 17.425-30.938 32.89-0.99501 3.9666-1.3435 6.9461-1.3392 11.449 0.0035 3.8069 0.1648 5.6273 0.77356 8.7394l0.30332 1.5506-3.6387 2.0974c-3.4968 2.0156-3.6317 2.1083-3.4599 2.3766 0.09838 0.15357 3.0441 5.2515 6.546 11.329 3.5019 6.0772 6.4126 11.101 6.4683 11.165 0.05563 0.0634 1.6671-0.78943 3.5811-1.8952l3.48-2.0105 1.5567 1.3654c7.8326 6.87 17.133 10.77 27.649 11.596 1.3812 0.10845 7.2473-0.0529 8.6532-0.23806z" stroke-width=".13313"/>
 </g>
 <metadata>
  <rdf:RDF>
   <cc:Work rdf:about="">
    <dc:title>File name:</dc:title>
   </cc:Work>
  </rdf:RDF>
 </metadata>
</svg>
