<?xml version="1.0" encoding="UTF-8" standalone="no"?>
<svg
   xmlns:dc="http://purl.org/dc/elements/1.1/"
   xmlns:cc="http://creativecommons.org/ns#"
   xmlns:rdf="http://www.w3.org/1999/02/22-rdf-syntax-ns#"
   xmlns:svg="http://www.w3.org/2000/svg"
   xmlns="http://www.w3.org/2000/svg"
   id="svg1531"
   version="1.1"
   viewBox="0 0 132.99995 124.02455"
   height="124.02455mm"
   width="132.99995mm">
  <title
     id="title2110">Site-PL-101</title>
  <defs
     id="defs1525">
    <clipPath
       id="clipPath8480"
       clipPathUnits="userSpaceOnUse">
      <path
         id="path8482"
         d="m 116.77834,186.74574 c -3.65631,-0.63166 -7.87386,-1.96281 -11.23938,-3.54738 -2.94006,-1.38425 -8.234861,-4.91902 -8.703373,-5.8103 -0.341676,-0.64999 -0.6105,-0.64031 -3.186026,0.11482 -7.088239,2.07821 -6.87651,2.03632 -7.3776,1.45957 -0.261692,-0.3012 -3.072422,-5.38079 -6.246068,-11.28796 -3.173647,-5.90718 -6.11607,-11.37644 -6.53872,-12.15392 l -0.768455,-1.4136 3.409808,-3.65051 3.409809,-3.6505 0.127967,-7.42973 c 0.104283,-6.05478 0.301526,-8.11443 1.065818,-11.12959 3.469766,-13.68834 11.646749,-24.38162 23.64265,-30.918178 l 3.24377,-1.767527 1.16779,-4.822181 c 0.64229,-2.6522 1.17454,-4.970137 1.18279,-5.150969 0.008,-0.180832 6.29354,-0.328785 13.96735,-0.328785 h 13.95236 l 1.2011,5.145213 1.20111,5.145213 3.5988,1.978466 c 9.32932,5.128858 16.17223,12.675598 20.46688,22.572018 3.01842,6.95555 4.18407,13.07465 4.05921,21.30889 l -0.0837,5.51688 3.35592,3.42346 c 1.84576,1.8829 3.35592,3.58037 3.35592,3.77214 0,0.19177 -1.64189,3.36901 -3.64862,7.06054 -2.00674,3.69152 -4.87064,8.98048 -6.3642,11.75323 -4.06979,7.55539 -3.10467,6.92865 -8.19068,5.31897 -4.54726,-1.43916 -5.6793,-1.63398 -5.6793,-0.97738 0,0.2179 -1.49954,1.42025 -3.33231,2.67189 -9.07083,6.19469 -20.30428,8.65377 -31.05067,6.79721 z"
         style="fill:#dc143c;fill-opacity:1;stroke:#dc143c;stroke-width:1.41224003;stroke-miterlimit:4;stroke-dasharray:none;stroke-opacity:1" />
    </clipPath>
  </defs>
  <metadata
     id="metadata1528">
    <rdf:RDF>
      <cc:Work
         rdf:about="">
        <dc:format>image/svg+xml</dc:format>
        <dc:type
           rdf:resource="http://purl.org/dc/dcmitype/StillImage" />
        <dc:title>Site-PL-101</dc:title>
      </cc:Work>
    </rdf:RDF>
  </metadata>
  <g
     transform="translate(-115.68453,-201.72582)"
     id="layer1">
    <path
       id="path3840"
       d="m 177.95076,322.47691 c -7.16287,-0.49948 -13.61818,-2.3119 -20.42805,-5.73546 -3.57239,-1.79595 -6.4434,-3.63674 -8.1941,-5.25375 l -1.17195,-1.08246 -5.7526,1.64701 c -3.52385,1.0089 -5.90158,1.49378 -6.13713,1.25151 -0.44538,-0.45808 -16.13869,-27.62767 -16.49654,-28.56021 -0.15599,-0.40649 1.20398,-1.97927 3.91687,-4.52978 l 4.15582,-3.90708 0.10366,-8.51103 c 0.0921,-7.56383 0.22473,-8.97126 1.19154,-12.64645 4.23674,-16.10535 15.00143,-29.33535 29.52284,-36.28407 l 3.47912,-1.66481 1.11703,-4.49291 c 0.61436,-2.4711 1.30699,-5.21325 1.53919,-6.09366 l 0.16987,-2.01671 17.34647,0.52716 17.52816,0.11121 1.04376,6.00391 1.47777,6.00391 3.43435,1.64336 c 10.55585,5.05102 20.12838,14.40384 25.23053,24.65141 4.34337,8.72359 6.41732,19.16729 5.66077,28.50582 l -0.30964,3.82193 4.1945,3.98827 c 2.30698,2.19355 4.1945,4.22999 4.1945,4.52542 0,0.29543 -2.03201,4.05832 -4.51557,8.362 -2.48356,4.30367 -6.14663,10.66502 -8.14014,14.13632 -1.99349,3.4713 -2.06926,7.31032 -2.3752,7.42772 -0.30594,0.11739 -4.86387,-1.40171 -7.92186,-2.27237 l -5.56001,-1.58301 -1.13906,1.13906 c -1.38709,1.38708 -7.15513,4.90627 -10.35391,6.3171 -8.51996,3.75776 -17.21391,5.23987 -26.81099,4.57064 z m 13.5493,-6.57225 c 6.30377,-1.37779 13.20426,-4.2808 17.97929,-7.56379 l 2.80167,-1.92624 4.85268,1.46938 4.85269,1.46938 0.96163,-1.20166 c 0.52888,-0.66091 0.96258,-1.3636 0.96374,-1.56154 0.001,-0.19794 0.35497,-0.86823 0.78623,-1.48954 0.43127,-0.62132 1.33175,-2.18298 2.00106,-3.47038 0.66931,-1.28739 1.44927,-2.62798 1.73326,-2.97909 0.28398,-0.35111 2.64805,-4.37288 5.2535,-8.93727 l 4.73714,-8.2989 -3.84987,-3.64765 -3.84987,-3.64766 v -5.88553 c 0,-6.38743 -0.65239,-10.69665 -2.41806,-15.97168 -4.02603,-12.0281 -12.62464,-21.95634 -24.0597,-27.78017 -1.80588,-0.91973 -3.37009,-1.98779 -3.47602,-2.37346 -0.10591,-0.38568 -0.71656,-2.83795 -1.35697,-5.4495 l -1.1644,-4.74827 -16.07528,0.055 c -15.76592,0.0539 -16.07975,0.0716 -16.30683,0.91801 -0.12735,0.47467 -0.76858,2.87185 -1.42497,5.32705 l -1.19343,4.46401 -2.33044,1.21988 c -8.97372,4.69731 -17.21499,12.60565 -21.38496,20.52106 -4.23361,8.0362 -5.96755,14.95306 -6.02105,24.01863 l -0.0339,5.74539 -3.70724,3.55802 -3.70724,3.55802 1.09881,2.1684 c 0.60435,1.19263 3.15468,5.62418 5.66739,9.84789 2.51272,4.22372 5.4531,9.30735 6.53418,11.29695 1.08108,1.98961 2.13542,3.87301 2.34298,4.18533 0.30577,0.46009 1.32371,0.30297 5.36412,-0.82792 3.90271,-1.09236 5.14137,-1.29061 5.6981,-0.91199 1.07313,0.72983 7.76553,4.59991 9.24039,5.34354 2.34712,1.18342 8.21523,2.90303 12.64586,3.70577 5.14605,0.93237 12.04073,0.85074 16.84552,-0.19943 z"
       style="fill:#dc143c;fill-opacity:1;stroke:#dc143c;stroke-width:1.41461837;stroke-linecap:round;stroke-linejoin:miter;stroke-miterlimit:4;stroke-dasharray:none;stroke-opacity:1;paint-order:normal" />
    <path
       id="path3842"
       d="m 174.75887,313.33551 c -3.77896,-0.61323 -8.13798,-1.90552 -11.61639,-3.44384 -3.03867,-1.34385 -8.51108,-4.77544 -8.99531,-5.6407 -0.35313,-0.63102 -0.63097,-0.62162 -3.29289,0.11146 -7.326,2.01755 -7.10717,1.97689 -7.62507,1.41697 -0.27047,-0.29241 -3.17548,-5.22373 -6.45558,-10.95848 -3.2801,-5.73475 -6.32122,-11.04437 -6.75805,-11.79915 l -0.79423,-1.37234 3.52418,-3.54395 3.52419,-3.54395 0.13226,-7.21287 c 0.10778,-5.87805 0.31164,-7.87757 1.10157,-10.80472 3.58615,-13.2888 12.03741,-23.66995 24.43569,-30.01571 l 3.35258,-1.71593 1.20696,-4.68143 c 0.66384,-2.57478 1.21394,-4.82506 1.22246,-5.00061 0.008,-0.17556 6.50466,-0.31919 14.43586,-0.31919 h 14.42037 l 1.24139,4.99503 1.2414,4.99503 3.71951,1.92071 c 9.64226,4.97915 16.7147,12.30561 21.1534,21.91316 3.11967,6.75252 4.32442,12.69301 4.19538,20.68691 l -0.0865,5.35584 3.46849,3.32353 c 1.90766,1.82795 3.46848,3.47586 3.46848,3.66204 0,0.18617 -1.69696,3.27067 -3.771,6.85445 -2.07406,3.58377 -5.03402,8.71834 -6.57768,11.41016 -4.2063,7.33486 -3.20881,6.72641 -8.46541,5.16372 -4.69979,-1.39715 -5.86981,-1.58629 -5.86981,-0.94885 0,0.21153 -1.54984,1.37879 -3.44409,2.5939 -9.37509,6.01387 -20.98535,8.40118 -32.0922,6.59881 z"
       style="fill:#dc143c;fill-opacity:1;stroke:#dc143c;stroke-width:1.41461837;stroke-miterlimit:4;stroke-dasharray:none;stroke-opacity:1" />
    <path
       id="path4777"
       d="m 135.56276,273.92276 c 0,-0.21797 0.35589,-2.60295 0.46748,-5.13828 0.43423,-9.86554 1.23891,-13.95593 3.89046,-19.77621 4.71325,-10.34579 11.55513,-17.3242 22.73422,-23.18787 l 2.35668,-1.23613 1.0289,-4.13632 c 0.5659,-2.27498 1.17137,-4.40869 1.34548,-4.74158 0.64947,-1.24172 -0.27394,-1.16863 14.59038,-1.15497 7.47543,0.007 13.82339,0.0717 14.1066,0.144 0.43749,0.11174 0.57856,0.34682 0.93812,1.56326 0.40134,1.35778 2.00788,7.9639 2.01238,8.27496 0.001,0.0805 1.17171,0.72892 2.60122,1.44099 5.35196,2.66594 8.94941,5.22383 12.9754,9.22591 3.86249,3.83954 6.34192,7.2385 8.6937,11.91786 3.42779,6.8203 4.8591,13.52541 4.8591,22.76287 v 4.04344 l -22.24177,9e-5 c -12.23297,5e-5 22.24177,-9e-5 -46.16777,0.13105 -23.88557,0.0458 -24.19058,0.26256 -24.19058,-0.13307 z"
       style="fill:#ffffff;fill-opacity:1;stroke:#ffffff;stroke-width:1.97555459;stroke-linecap:round;stroke-linejoin:miter;stroke-miterlimit:4;stroke-dasharray:none;stroke-opacity:1;paint-order:normal" />
    <path
       id="path3844"
       d="m 175.82283,325.62125 c -8.39923,-1.05762 -18.08578,-4.45062 -23.69661,-8.30045 -0.97845,-0.67136 -1.91794,-1.22066 -2.08775,-1.22066 -0.1698,0 -0.96407,-0.49985 -1.76505,-1.11078 l -1.45631,-1.11079 -2.62691,0.74591 c -1.4448,0.41025 -4.1864,1.17893 -6.09244,1.70819 l -3.46553,0.96227 -3.0987,-5.59802 c -1.70428,-3.0789 -5.09775,-8.94949 -7.54103,-13.04574 -2.44329,-4.09625 -5.31211,-9.05004 -6.37516,-11.00844 l -1.93281,-3.56072 4.4277,-4.38992 4.42769,-4.38991 0.0169,-6.94482 c 0.0173,-7.113 0.39475,-9.74556 2.39891,-16.73326 0.87567,-3.05314 2.71127,-7.61505 4.2811,-10.6396 5.12098,-9.86645 16.20231,-20.60345 25.71318,-24.91419 2.53256,-1.14787 2.64016,-1.26226 3.25206,-3.45752 0.34807,-1.2487 0.75863,-2.8449 0.91237,-3.54712 0.15374,-0.70221 0.6811,-2.63571 1.17191,-4.29665 l 0.89239,-3.0199 19.08955,-0.0224 c 10.49926,-0.0123 19.09854,0.1018 19.1095,0.2536 0.0109,0.1518 0.72912,3.05294 1.59595,6.44697 l 1.57599,6.17098 4.07589,2.12792 c 6.85347,3.57804 14.0062,9.20147 17.74441,13.95055 6.74218,8.56537 10.1378,15.55386 12.26633,25.24524 0.94824,4.31735 1.11455,6.11733 1.12673,12.19438 l 0.0143,7.12939 4.65253,4.49493 c 3.68719,3.56229 4.5529,4.61499 4.17232,5.07355 -0.51717,0.62313 -9.36739,16.00791 -9.36739,16.28377 0,0.0914 -0.54391,0.96667 -1.20868,1.94513 -0.66478,0.97846 -1.93259,3.11961 -2.81736,4.75811 -0.88476,1.6385 -1.84096,3.26636 -2.12487,3.61747 -0.28392,0.3511 -1.14637,1.78745 -1.91656,3.19188 -0.77017,1.40442 -1.4426,2.60342 -1.49426,2.66444 -0.0517,0.061 -0.93773,-0.1901 -1.96905,-0.55806 -2.08902,-0.7453 -5.61861,-1.75509 -8.36717,-2.39377 -1.7019,-0.39546 -1.93186,-0.33202 -3.83025,1.05672 -4.97698,3.64081 -14.69181,7.86721 -21.80933,9.48803 -2.71792,0.61893 -14.87331,1.13121 -17.87454,0.75329 z m 20.06831,-4.33163 c 6.86894,-1.77297 15.05011,-5.72058 18.94772,-9.14273 l 1.43294,-1.25813 5.02256,1.32894 c 2.76241,0.73091 5.4902,1.32894 6.06175,1.32894 0.84166,0 1.45375,-0.66741 3.2201,-3.51107 2.32066,-3.73608 11.27356,-19.2434 12.96088,-22.44958 1.89475,-3.60027 2.04723,-3.12568 -2.4874,-7.74123 l -4.1555,-4.22965 0.14416,-5.39894 c 0.0793,-2.96942 -0.0731,-7.0268 -0.33873,-9.01641 -2.46047,-18.43193 -13.44773,-33.77946 -30.33305,-42.37063 -2.98014,-1.51628 -3.77538,-2.12227 -4.01664,-3.06072 -0.16544,-0.64357 -0.79765,-3.27678 -1.40489,-5.85156 l -1.10408,-4.68143 -6.37007,-0.26424 c -3.50354,-0.14534 -11.35033,-0.28897 -17.43732,-0.31919 l -11.06724,-0.0549 -1.23743,4.78782 c -0.68059,2.6333 -1.40761,5.41301 -1.6156,6.17713 -0.3246,1.19256 -0.87233,1.63721 -3.86753,3.13971 -14.32724,7.18706 -24.36714,19.31052 -29.04616,35.0741 -0.99815,3.36273 -1.17034,4.89317 -1.47711,13.12803 l -0.34724,9.32155 -3.86478,3.73457 c -2.2535,2.17758 -3.86478,4.07822 -3.86478,4.55883 0,0.71508 7.83153,14.73579 14.27286,25.55257 l 2.11214,3.54687 1.7139,-0.18563 c 0.94264,-0.10208 3.60411,-0.72187 5.91436,-1.37728 2.64249,-0.74967 4.39091,-1.04927 4.71392,-0.80775 0.28239,0.21117 1.45118,1.10261 2.59732,1.98099 2.79285,2.14039 10.60603,5.94577 15.03745,7.32393 6.09193,1.89456 9.73233,2.34152 17.6885,2.17177 6.35388,-0.13558 7.83895,-0.31028 12.19499,-1.43464 z"
       style="fill:#000000;fill-opacity:1;stroke:none;stroke-width:0.42558435;stroke-opacity:1" />
    <g
       clip-path="url(#clipPath8480)"
       style="fill:#344a9f;fill-rule:evenodd;stroke-linejoin:round"
       id="g6989"
       transform="matrix(1.0335431,0,0,1.010047,54.063423,126.38339)">
      <rect
         id="rect6985"
         style="stroke-width:0.0752385;paint-order:stroke fill markers"
         stop-color="#000000"
         height="71.608131"
         width="49.962002"
         y="83.248871"
         x="98.945999" />
      <circle
         id="circle6987"
         style="stroke-width:0.066987;paint-order:stroke fill markers"
         stop-color="#000000"
         r="25"
         cy="155.02"
         cx="123.98" />
    </g>
    <path
       id="path3850"
       d="m 177.20465,316.08292 c -7.00126,-0.87493 -13.52006,-3.06587 -19.59827,-6.58688 -5.44643,-3.15502 -5.76729,-3.20306 -11.36166,-1.70085 -3.58311,0.96214 -3.86615,0.98179 -4.38645,0.30449 -0.63223,-0.82299 -13.36447,-22.87834 -14.58805,-25.27005 l -0.80037,-1.56448 3.54783,-3.32975 3.54783,-3.32973 0.29585,-5.95819 c 0.37631,-7.57852 0.9045,-11.00504 2.40464,-15.59955 3.89016,-11.91452 11.33005,-20.79191 23.55849,-28.11035 l 3.79132,-2.26902 1.31891,-4.87961 1.31891,-4.87962 1.69911,-0.30136 c 0.93452,-0.16574 8.05955,-0.31239 15.83339,-0.32588 l 14.13427,-0.0245 0.42009,1.59594 c 0.23105,0.87777 0.74144,2.93653 1.13423,4.57503 0.95668,3.99088 1.39224,4.58114 4.74982,6.43688 6.74679,3.72895 12.54203,8.63263 16.76075,14.18222 2.99137,3.93505 6.54321,11.33999 7.86964,16.40674 0.92854,3.54689 1.14546,5.46107 1.30217,11.49077 l 0.18803,7.23494 3.84377,3.62912 3.84379,3.62912 -4.79858,8.28724 c -2.63923,4.55798 -6.12097,10.5854 -7.73725,13.39426 -1.61625,2.80886 -3.08984,5.26638 -3.27463,5.46116 -0.18477,0.19478 -2.51939,-0.30029 -5.18802,-1.10016 l -4.85206,-1.4543 -2.75222,1.86577 c -4.99368,3.38528 -11.80932,6.2698 -17.87053,7.56318 -3.74769,0.7997 -10.58491,1.09857 -14.35475,0.62745 z m 14.25604,-2.78045 c 6.23519,-1.28108 15.02827,-5.22919 18.20349,-8.17343 l 1.17683,-1.09121 2.81257,0.77855 c 5.91893,1.63844 6.73974,1.73211 7.68463,0.87699 0.47388,-0.42886 3.86571,-6.02974 7.5374,-12.4464 l 6.6758,-11.66665 -3.47806,-3.49622 -3.47806,-3.49621 -0.003,-4.24696 c -0.005,-5.80517 -0.64166,-10.88851 -1.9145,-15.28083 -3.64705,-12.58386 -12.27038,-22.82834 -24.32676,-28.89965 l -3.0501,-1.53592 -1.1412,-4.90743 c -0.62767,-2.69908 -1.27056,-4.98737 -1.42867,-5.08509 -0.53713,-0.33197 -27.49962,-0.43829 -28.42435,-0.11209 -0.76067,0.26834 -1.12484,1.16598 -2.10735,5.19437 l -1.18776,4.86998 -2.99967,1.55586 c -9.80003,5.08306 -16.72023,11.97386 -21.31873,21.22814 -3.29612,6.6333 -4.34223,11.11379 -4.70997,20.17277 l -0.29274,7.21127 -3.34096,3.32137 c -1.83753,1.82675 -3.34097,3.45462 -3.34097,3.61749 0,0.29023 9.71733,17.35238 12.62832,22.17342 1.0452,1.731 1.73868,2.44711 2.36978,2.44711 0.4907,0 2.75816,-0.49217 5.03879,-1.09372 l 4.14661,-1.09373 1.84614,1.34401 c 6.12991,4.46266 13.90347,7.52364 21.63581,8.51951 3.69539,0.47594 10.71906,0.15043 14.78669,-0.6853 z"
       style="fill:#000000;fill-opacity:1;stroke:none;stroke-width:0.42558435;stroke-opacity:1" />
    <path
       style="fill:#ffff00;fill-rule:evenodd;stroke-width:0.98573434"
       id="path6991"
       d="m 168.93994,224.40266 v 5.76389 h 3.81716 v 1.9213 h -3.81716 v 4.80319 h 3.81716 v 2.88189 h -3.81716 v 6.72449 h 3.34007 l 5.72574,-3.36224 1.61039,0.91561 -0.17892,16.48149 c -0.31389,-0.28043 -0.72557,-0.4503 -1.17795,-0.4503 -0.9814,0 -1.77442,0.79824 -1.77442,1.78615 0,0.98791 0.79299,1.78625 1.77442,1.78625 0.42797,0 0.82644,-0.1366 1.1332,-0.39027 -0.0522,0.0817 -0.15778,0.23252 -0.25347,0.33023 l -0.015,0.015 c -0.0163,0.0137 -0.0455,0.0347 -0.0596,0.045 -0.0114,0.009 -0.0326,0.023 -0.0446,0.0301 -0.005,0.002 -0.0247,0.0124 -0.0299,0.0149 -8e-4,0 -0.0133,8e-5 -0.0149,0 -8e-4,1.2e-4 -0.0119,3e-5 -0.0149,0 -2.8332,4.49091 -7.1176,8.3477 -12.91313,11.37735 0.007,0.43854 0.01,0.74893 0.0148,1.09575 -0.68308,-0.69588 -1.63603,-1.12581 -2.68396,-1.12581 -2.07951,0 -3.77241,1.70424 -3.77241,3.79754 0,2.09331 1.6929,3.78256 3.77241,3.78256 1.05602,0 2.01464,-0.43538 2.69884,-1.14079 -0.002,0.27338 7.9e-4,0.5824 0,0.94564 5.79514,3.02995 10.60158,6.88673 13.43458,11.37735 0.34228,-0.002 0.62406,-0.0128 0.86485,-0.0151 -1.53164,0.63695 -2.60944,2.16162 -2.60944,3.93259 0,2.34427 1.89103,4.24782 4.21973,4.24782 2.3287,0 4.21974,-1.90355 4.21974,-4.24782 0,-1.8315 -1.15824,-3.39704 -2.77347,-3.99272 0.18403,-0.002 0.3826,0.002 0.61136,0 2.8332,-4.49091 7.96749,-8.33262 13.76283,-11.36257 -0.007,-0.38332 -0.009,-0.71624 -0.015,-1.00565 0.68982,0.77318 1.69033,1.26086 2.80323,1.26086 2.07951,0 3.77241,-1.68926 3.77241,-3.78256 0,-2.09331 -1.6929,-3.79755 -3.77241,-3.79755 -1.12906,0 -2.1424,0.49796 -2.8331,1.29092 0.005,-0.3621 0.007,-0.72329 0.015,-1.20082 -5.79512,-3.02996 -10.06434,-6.87166 -12.89833,-11.36257 l -0.17894,-0.5854 c 0.3158,0.28895 0.73284,0.46531 1.19284,0.46531 0.98142,0 1.77442,-0.79825 1.77442,-1.78615 0,-0.98791 -0.79298,-1.78616 -1.77442,-1.78616 -0.42936,0 -0.82584,0.14989 -1.1332,0.40529 l 0.11931,-35.60377 h -5.03987 l -0.0299,2.26651 -2.28138,1.57609 -6.20294,-4.32285 z m 10.49709,8.16544 v 6.24413 l -2.86286,-3.84259 z m 2.86287,38.66545 c 2.44995,3.41488 4.3332,5.44747 8.37984,7.24988 0.1811,0.071 0.47898,0.17988 0.8052,0.3002 0.38392,0.12381 0.89516,0.27209 1.55076,0.49534 -5.74279,1.9556 -7.85591,4.03126 -10.85491,8.04537 -2.9992,-4.01411 -5.11222,-6.08977 -10.85492,-8.04537 0.65558,-0.22325 1.16682,-0.37153 1.55076,-0.49534 0.004,-0.002 0.0247,-0.0123 0.0299,-0.015 8e-4,5e-5 0.0136,-1.6e-4 0.0149,0 0.003,-2e-5 0.0142,-8e-5 0.0149,0 0.30578,-0.11265 0.57529,-0.21805 0.74553,-0.28519 4.05128,-1.80242 5.96557,-3.835 8.61848,-7.24989 z" />
    <g
       transform="matrix(0.26458333,0,0,0.26458333,115.68453,201.72582)"
       id="text4803"
       style="font-style:normal;font-variant:normal;font-weight:normal;font-stretch:normal;font-size:158.69099426px;line-height:1.25;font-family:Arial;-inkscape-font-specification:Arial;font-variant-ligatures:normal;font-variant-caps:normal;font-variant-numeric:normal;font-feature-settings:normal;text-align:start;letter-spacing:0px;word-spacing:0px;writing-mode:lr-tb;text-anchor:start;fill:#ffffff;fill-opacity:1;stroke:#000000;stroke-width:8.50131035"
       aria-label="101">
      <path
         id="path6164"
         style="font-style:normal;font-variant:normal;font-weight:900;font-stretch:normal;font-family:Arial;-inkscape-font-specification:'Arial Heavy';fill:#ffffff;stroke:#000000;stroke-width:8.50131035"
         d="m 181.88201,201.28539 v 115.53138 h -31.92417 v -75.70366 q -7.74858,5.88892 -15.03225,9.53076 -7.20618,3.64183 -18.13169,6.97372 v -25.88027 q 16.11706,-5.19155 25.02793,-12.47522 8.91087,-7.28367 13.94745,-17.97671 z" />
      <path
         id="path6166"
         style="font-style:normal;font-variant:normal;font-weight:900;font-stretch:normal;font-family:Arial;-inkscape-font-specification:'Arial Heavy';fill:#ffffff;stroke:#000000;stroke-width:8.50131035"
         d="m 204.3632,259.55474 q 0,-32.38908 11.62288,-45.32922 11.70036,-12.94013 35.566,-12.94013 11.4679,0 18.82906,2.86698 7.36115,2.78949 12.0103,7.36115 4.64915,4.49418 7.28367,9.53076 2.712,4.95909 4.33921,11.62287 3.17692,12.70768 3.17692,26.50016 0,30.91685 -10.46059,45.25173 -10.46059,14.33488 -36.03092,14.33488 -14.33488,0 -23.16826,-4.57167 -8.83339,-4.57166 -14.48985,-13.40505 -4.10675,-6.27635 -6.43133,-17.12437 -2.24709,-10.9255 -2.24709,-24.09809 z m 31.30428,0.0775 q 0,21.69604 3.79681,29.67708 3.87429,7.90356 11.15796,7.90356 4.80412,0 8.29098,-3.3319 3.56435,-3.40937 5.19155,-10.69304 1.70469,-7.28367 1.70469,-22.70335 0,-22.62587 -3.87429,-30.37445 -3.79681,-7.82607 -11.4679,-7.82607 -7.82607,0 -11.31294,7.98104 -3.48686,7.90356 -3.48686,29.36713 z" />
      <path
         id="path6168"
         style="font-style:normal;font-variant:normal;font-weight:900;font-stretch:normal;font-family:Arial;-inkscape-font-specification:'Arial Heavy';fill:#ffffff;stroke:#000000;stroke-width:8.50131035"
         d="m 377.88326,201.28539 v 115.53138 h -31.92417 v -75.70366 q -7.74858,5.88892 -15.03225,9.53076 -7.20618,3.64183 -18.13169,6.97372 v -25.88027 q 16.11706,-5.19155 25.02793,-12.47522 8.91087,-7.28367 13.94745,-17.97671 z" />
    </g>
  </g>
</svg>
