<?xml version="1.0" encoding="UTF-8" standalone="no"?>
<svg
   xmlns:dc="http://purl.org/dc/elements/1.1/"
   xmlns:cc="http://creativecommons.org/ns#"
   xmlns:rdf="http://www.w3.org/1999/02/22-rdf-syntax-ns#"
   xmlns:svg="http://www.w3.org/2000/svg"
   xmlns="http://www.w3.org/2000/svg"
   width="133.1mm"
   height="123.45mm"
   version="1.1"
   viewBox="0 0 133.1 123.45"
   id="svg44">
  <title
     id="title2">site-FR-lamedh</title>
  <defs
     id="defs10">
    <clipPath
       id="clipPath11279">
      <path
         d="m263.75-307.36c29.526 6.7733 60.332 19.98 81.36 34.881 6.4461 4.5676 13.192 8.3047 14.99 8.3047 1.7987 0 12.392-2.6198 23.542-5.8216 11.149-3.2018 21.434-6.0348 22.855-6.2956 1.9847-0.36444 10.56 13.08 37.018 58.038l34.435 58.512-37.291 36.239 1.5151 17.062c8.0202 90.317-43.609 178.27-128.33 218.61l-15.238 7.2557-4.867 20.05c-2.6769 11.027-5.517 22.374-6.3114 25.214l-1.4444 5.164h-137.76l-1.4443-5.164c-0.79441-2.8402-3.6346-14.186-6.3114-25.214l-4.867-20.05-15.238-7.2557c-84.722-40.343-136.35-128.29-128.33-218.61l1.5151-17.062-37.291-36.239 34.435-58.512c26.458-44.958 35.033-58.402 37.018-58.038 1.4207 0.26134 11.705 3.0938 22.855 6.2956 11.149 3.2018 21.743 5.8216 23.542 5.8216 1.7986 0 8.2521-3.5286 14.341-7.8414 25.987-18.407 62.414-32.762 96.429-38.002 15.447-2.3796 64.061-0.74136 78.879 2.658z"
         fill="none"
         stroke="#000"
         stroke-width="9.9782"
         style="paint-order:stroke markers fill"
         id="path4" />
    </clipPath>
    <clipPath
       id="clipPath11283">
      <path
         d="m511.61 590.65c40.129-8.3201 81.998-24.543 110.58-42.846 8.7611-5.6106 17.929-10.201 20.374-10.201 2.4446 0 16.843 3.2181 31.996 7.1511 15.154 3.933 29.132 7.413 31.062 7.7333 2.6975 0.44768 14.352-16.067 50.313-71.292l46.802-71.874-50.683-44.515 2.0592-20.958c10.9-110.94-59.271-218.98-174.42-268.53l-20.71-8.9127-6.6148-24.629c-3.6382-13.546-7.4984-27.483-8.578-30.972l-1.9631-6.3434h-187.24l-1.963 6.3434c-1.0797 3.4888-4.9398 17.426-8.578 30.972l-6.615 24.629-20.71 8.9127c-115.15 49.556-185.32 157.59-174.42 268.53l2.0592 20.958-50.683 44.515 46.802 71.874c35.96 55.225 47.615 71.74 50.313 71.292 1.9309-0.32102 15.909-3.8003 31.062-7.7333 15.154-3.933 29.552-7.1511 31.996-7.1511 2.4446 0 11.216 4.3345 19.491 9.6322 35.32 22.61 84.83 40.244 131.06 46.68 20.995 2.923 87.067 0.91065 107.21-3.265z"
         fill="none"
         stroke="#000"
         stroke-width="12.893"
         style="paint-order:stroke markers fill"
         id="path7" />
    </clipPath>
    <clipPath
       clipPathUnits="userSpaceOnUse"
       id="clipPath5820">
      <path
         style="fill:#fedd00;fill-opacity:1;fill-rule:evenodd;stroke:none;stroke-width:33.4035;stroke-linecap:round;paint-order:fill markers stroke;stop-color:#000000"
         id="path5822"
         d="m 261.77106,-239.61669 -67.46502,-116.85284 134.93003,0 z"
         transform="matrix(0.36439263,0,0,-0.36439263,-28.83744,-5.4069208)" />
    </clipPath>
  </defs>
  <g
     transform="matrix(0.18316,0,0,0.20528,-15.34,0.015)"
     clip-path="url(#clipPath11283)"
     id="g18">
    <rect
       width="900"
       height="600"
       fill="#ed2939"
       id="rect12"
       x="0"
       y="0" />
    <rect
       width="600"
       height="600"
       fill="#ffffff"
       id="rect14"
       x="0"
       y="0" />
    <rect
       width="300"
       height="600"
       fill="#002395"
       id="rect16"
       x="0"
       y="0" />
  </g>
  <path
     d="m 78.36,121.263 c 7.3501,-1.708 15.019,-5.0383 20.254,-8.7956 1.6047,-1.1518 3.2839,-2.0941 3.7317,-2.0941 0.44775,0 3.085,0.66062 5.8604,1.468 2.7755,0.80738 5.3357,1.5218 5.6894,1.5875 0.49407,0.0919 2.6288,-3.2984 9.2152,-14.635 l 8.5722,-14.755 -9.2831,-9.1382 0.37717,-4.3023 c 1.9965,-22.775 -10.856,-44.952 -31.947,-55.125 l -3.7932,-1.8296 -1.2116,-5.0558 C 85.15879,5.8072 84.45177,2.9461 84.25407,2.2299 L 83.89451,0.9277 h -34.295 l -0.35954,1.3022 c -0.19776,0.7162 -0.90478,3.5773 -1.5711,6.358 l -1.2116,5.0558 -3.7932,1.8296 c -21.091,10.173 -33.943,32.35 -31.947,55.125 l 0.37716,4.3023 -9.2831,9.1382 8.5722,14.755 c 6.5864,11.337 8.7212,14.727 9.2152,14.635 0.35366,-0.0659 2.9139,-0.78013 5.6894,-1.5875 2.7755,-0.80737 5.4127,-1.468 5.8604,-1.468 0.44775,0 2.0543,0.88979 3.57,1.9773 6.4692,4.6414 15.537,8.2614 24.005,9.5827 3.8454,0.60004 15.947,0.18694 19.636,-0.67025 z"
     fill="none"
     stroke="#000000"
     stroke-width="2.5"
     style="paint-order:stroke markers fill"
     id="path22" />
  <path
     d="m 78.359996,121.263 c 7.3501,-1.708 15.019004,-5.0383 20.254004,-8.7956 1.6047,-1.1518 3.2839,-2.0941 3.7317,-2.0941 0.44775,0 3.085,0.66062 5.8604,1.468 2.7755,0.80738 5.3357,1.5218 5.6894,1.5875 0.49407,0.0919 2.6288,-3.2984 9.2152,-14.635 l 8.5722,-14.755 -9.2831,-9.1382 0.37717,-4.3023 c 1.9965,-22.775 -10.856,-44.951996 -31.947,-55.124996 l -3.793204,-1.8296 -1.2116,-5.0558 c -0.66638,-2.7807 -1.3734,-5.6418 -1.5711,-6.358 l -0.35956,-1.3022 H 49.599502 l -0.35954,1.3022 c -0.19776,0.7162 -0.90478,3.5773 -1.5711,6.358 l -1.2116,5.0558 -3.7932,1.8296 c -21.091,10.173 -33.943,32.349996 -31.947,55.124996 l 0.37716,4.3023 -9.2831,9.1382 8.5722,14.755 c 6.5864,11.337 8.7212,14.727 9.2152,14.635 0.35366,-0.0659 2.9139,-0.78013 5.6894,-1.5875 2.7755,-0.80737 5.4127,-1.468 5.8604,-1.468 0.44775,0 2.0543,0.88979 3.57,1.9773 6.4692,4.6414 15.537,8.2614 24.005,9.5827 3.8454,0.60004 15.947004,0.18694 19.636004,-0.67025 z"
     style="fill:#fedd00;fill-opacity:1;paint-order:stroke markers fill"
     id="path22-6"
     clip-path="url(#clipPath5820)"
     transform="translate(0,-1.5076356)"
     stroke-width="2.5"
     stroke="#000000"
     fill="none" />
  <path
     d="m 66.17,22.547 c -0.52497,-2.21 -2.1967,-5.9024 -3.8173,-8.4314 -0.79009,-1.233 -1.0045,-1.8355 -0.69048,-1.9402 1.0696,-0.35652 2.6064,-2.0139 2.6064,-2.8108 0,-1.2785 -1.0057,-2.0972 -2.2663,-1.8451 -1.3855,0.2771 -1.1727,-0.49782 0.2948,-1.0738 1.4607,-0.5733 3.3337,-0.02738 3.8586,1.1246 0.22386,0.49132 0.51791,0.89331 0.65344,0.89331 0.13546,0 0.42959,-0.40199 0.65346,-0.89331 0.52487,-1.152 2.398,-1.6979 3.8586,-1.1246 1.4676,0.576 1.6803,1.3509 0.29481,1.0738 -1.2606,-0.25212 -2.2662,0.56664 -2.2662,1.8451 0,0.79696 1.5368,2.4543 2.6063,2.8108 0.31403,0.10468 0.0996,0.70721 -0.69049,1.9402 -1.6206,2.529 -3.2923,6.2215 -3.8173,8.4314 -0.24642,1.0374 -0.53406,1.8861 -0.63921,1.8861 -0.10511,0 -0.39277,-0.84875 -0.63919,-1.8861 z"
     fill="#ffd300"
     fill-rule="evenodd"
     id="path24"
     style="fill:#000000" />
  <path
     d="m 68.02,15.492 1.0034,-2.0458 -0.92776,-0.96836 c -0.51026,-0.5326 -0.92774,-1.1636 -0.92774,-1.4022 0,-0.2386 -0.16324,-0.43382 -0.36295,-0.43382 -0.19961,0 -0.36293,0.19522 -0.36293,0.43382 0,0.2386 -0.4175,0.86958 -0.92776,1.4022 l -0.92774,0.96836 1.0034,2.0458 c 0.55184,1.1252 1.0986,2.0458 1.2151,2.0458 0.11643,0 0.66325,-0.92061 1.2151,-2.0458 z"
     fill="#ffffff"
     fill-rule="evenodd"
     id="path26" />
  <path
     d="m 105.42,88.103 c 2.1764,0.65035 6.21,1.0488 9.2105,0.90986 1.4628,-0.0677 2.0918,0.0478 2.0255,0.37212 -0.22602,1.1045 0.44089,3.2641 1.1311,3.6626 1.1072,0.63924 2.3191,0.1777 2.731,-1.0401 0.45277,-1.3384 1.0175,-0.76671 0.78256,0.79221 -0.23384,1.5516 -1.6432,2.9008 -2.9032,2.7794 -0.53742,-0.0518 -1.0326,0.002 -1.1003,0.11924 -0.0677,0.11731 0.13334,0.57302 0.4469,1.0126 0.73521,1.0306 0.27144,2.9256 -0.95538,3.904 -1.2326,0.98293 -2.0101,0.77971 -1.0774,-0.2816 0.84865,-0.96567 0.6424,-2.246 -0.46479,-2.8852 -0.69019,-0.39848 -2.8939,0.10373 -3.7374,0.85175 -0.24767,0.21961 -0.66227,-0.26733 -1.335,-1.5681 -1.3799,-2.668 -3.7418,-5.962 -5.3932,-7.5216 -0.77517,-0.73209 -1.3664,-1.4056 -1.3138,-1.4966 0.0526,-0.091 0.93143,0.0842 1.953,0.3895 z"
     fill="#ffffff"
     id="path28" />
  <path
     d="m 110.61,93.233 1.27,1.8918 1.3025,-0.31928 c 0.71637,-0.1756 1.4716,-0.22166 1.6782,-0.10236 0.20663,0.1193 0.45732,0.0755 0.55718,-0.0974 0.0998,-0.17287 0.0124,-0.41192 -0.19424,-0.53122 -0.20663,-0.1193 -0.54433,-0.79635 -0.75044,-1.5046 l -0.37476,-1.2876 -2.2734,-0.15396 c -1.2504,-0.0847 -2.321,-0.0715 -2.3792,0.0294 -0.0582,0.10083 0.46565,1.0347 1.1642,2.0752 z"
     fill="#ed2939"
     id="path30" />
  <path
     d="m 28.6,90.143 c -1.6514,1.5596 -4.0133,4.8536 -5.3932,7.5216 -0.67275,1.3007 -1.0873,1.7877 -1.335,1.5681 -0.84354,-0.748 -3.0472,-1.2502 -3.7374,-0.85175 -1.1072,0.63924 -1.3134,1.9195 -0.46479,2.8852 0.93271,1.0613 0.15524,1.2645 -1.0774,0.28162 -1.2268,-0.97833 -1.6906,-2.8734 -0.95539,-3.904 0.31357,-0.43953 0.51468,-0.89518 0.44691,-1.0126 -0.0677,-0.11732 -0.56292,-0.17104 -1.1004,-0.11926 -1.2601,0.12145 -2.6694,-1.2277 -2.9032,-2.7794 -0.23494,-1.5589 0.32978,-2.1306 0.78255,-0.79223 0.41196,1.2178 1.6239,1.6793 2.731,1.0401 0.69019,-0.39848 1.3571,-2.558 1.1311,-3.6626 -0.0664,-0.3243 0.56264,-0.43988 2.0255,-0.3721 3.0005,0.13896 7.0341,-0.25951 9.2105,-0.90987 1.0216,-0.30528 1.9005,-0.48055 1.953,-0.38949 0.0525,0.091 -0.53866,0.76452 -1.3138,1.4966 z"
     fill="#ffffff"
     id="path32" />
  <path
     d="m 21.56,92.063 -2.2734,0.15397 -0.37475,1.2876 c -0.20611,0.7082 -0.54382,1.3852 -0.75045,1.5045 -0.20664,0.11931 -0.29408,0.35829 -0.19423,0.53124 0.0998,0.17287 0.35054,0.2167 0.55717,0.0974 0.20664,-0.1193 0.96183,-0.0732 1.6782,0.10237 l 1.3025,0.31927 1.27,-1.8918 c 0.69852,-1.0405 1.2224,-1.9743 1.1642,-2.0752 -0.0582,-0.10083 -1.1289,-0.11408 -2.3793,-0.0294 z"
     fill="#002395"
     id="path34" />
  <metadata
     id="metadata42">
    <rdf:RDF>
      <cc:Work
         rdf:about="">
        <dc:title>site-FR-lamedh</dc:title>
        <dc:format>image/svg+xml</dc:format>
        <dc:type
           rdf:resource="http://purl.org/dc/dcmitype/StillImage" />
      </cc:Work>
    </rdf:RDF>
  </metadata>
  <path
     id="path1166"
     clip-path="none"
     style="fill:#fedd00;stroke-width:0.11778"
     d="m 31.531409,29.861742 v 7.06727 h 3.533116 v -7.06727 z M 19.753316,41.639836 v 7.066751 h 3.533118 v -7.066751 z m 0,23.556185 v 7.066751 h 3.533118 v -7.066751 z m 11.778093,11.778091 v 7.066753 h 3.533116 v -7.066753 z" />
  <path
     d="m 104.61372,45.355015 a 38.55415,37.933182 0 0 1 -19.277075,32.851099 38.55415,37.933182 0 0 1 -38.554151,-10e-7 38.55415,37.933182 0 0 1 -19.277073,-32.8511 l 38.554149,2e-6 z"
     transform="matrix(0.99994464,-0.01052243,0.01086967,0.99994092,0,0)"
     id="path862"
     style="fill:#fedd00;fill-opacity:1;fill-rule:evenodd;stroke:none;stroke-width:9.56312656;stroke-linecap:round;paint-order:fill markers stroke" />
  <rect
     y="78.096352"
     x="57.892471"
     height="18.557091"
     width="17.315065"
     id="rect5276"
     style="fill:#fedd00;fill-opacity:1;fill-rule:evenodd;stroke:none;stroke-width:6.6968298;stroke-linecap:round;paint-order:fill markers stroke" />
  <rect
     y="27.661581"
     x="63.153252"
     height="7"
     width="7"
     id="rect5276-6"
     style="fill:#fedd00;fill-opacity:1;fill-rule:evenodd;stroke:none;stroke-width:2.61517;stroke-linecap:round;paint-order:fill markers stroke" />
  <rect
     transform="rotate(-45)"
     y="70.747696"
     x="23.973866"
     height="22.070518"
     width="4.1141558"
     id="rect5276-6-8"
     style="fill:#fedd00;fill-opacity:1;fill-rule:evenodd;stroke:none;stroke-width:3.55998993;stroke-linecap:round;paint-order:fill markers stroke" />
  <rect
     transform="matrix(-0.70710678,-0.70710678,-0.70710678,0.70710678,0,0)"
     y="-23.599688"
     x="-70.37352"
     height="22.070518"
     width="4.1141558"
     id="rect5276-6-8-5"
     style="fill:#fedd00;fill-opacity:1;fill-rule:evenodd;stroke:none;stroke-width:3.55998993;stroke-linecap:round;paint-order:fill markers stroke" />
  <g
     id="text2534"
     style="font-size:39.51110077px;line-height:1.25;font-family:'MS UI Gothic';-inkscape-font-specification:'MS UI Gothic';letter-spacing:0px;stroke:#ffffff;stroke-width:1;stroke-miterlimit:4;stroke-dasharray:none"
     aria-label="ל">
    <path
       id="path847"
       style="font-style:normal;font-variant:normal;font-weight:normal;font-stretch:normal;font-size:39.51110077px;font-family:bungee;-inkscape-font-specification:bungee;stroke:#ffffff;stroke-width:1;stroke-miterlimit:4;stroke-dasharray:none"
       d="m 61.630406,55.831133 h 11.344008 v 5.093227 q 0,2.160764 -0.405143,3.511241 -0.405144,1.331184 -1.408355,2.700954 l -1.041797,1.389062 q -1.562695,2.102886 -1.562695,4.49516 v 3.27973 h -3.684873 v -2.758832 q 0,-2.488736 0.482313,-3.742751 0.501606,-1.254014 1.44694,-2.469444 l 1.157552,-1.466232 q 0.848871,-1.080382 1.080382,-1.948545 0.250803,-0.868164 0.250803,-2.237934 V 58.917937 H 57.964826 V 48.017658 h 3.66558 z" />
  </g>
</svg>
