<?xml version="1.0" encoding="UTF-8" standalone="no"?>
<svg
   id="svg1813"
   viewBox="0 0 79.374998 78.440323"
   version="1.1"
   height="78.440323mm"
   width="79.375mm"
   xmlns="http://www.w3.org/2000/svg"
   xmlns:svg="http://www.w3.org/2000/svg"
   xmlns:rdf="http://www.w3.org/1999/02/22-rdf-syntax-ns#"
   xmlns:cc="http://creativecommons.org/ns#"
   xmlns:dc="http://purl.org/dc/elements/1.1/">
  <title
     id="title1316">Site-PT20</title>
  <defs
     id="defs1321">
    <clipPath
       id="clipPath3790">
      <path
         id="path1318"
         stroke-miterlimit="10"
         stop-color="#000000"
         d="m 115.49,189.14 c -7.8576,-1.4145 -16.64,-5.304 -23.049,-10.208 -4.2084,-3.2201 -3.3856,-3.2455 -15.213,0.46942 -4.665,1.4652 -8.714,2.6641 -8.9978,2.6641 -0.28383,0 -2.7779,-3.9776 -5.5424,-8.839 l -5.0263,-8.839 3.0115,-2.8895 c 1.6563,-1.5892 5.1065,-4.8231 7.6671,-7.1865 l 4.6556,-4.297 -0.73391,-6.0316 c -1.6444,-13.514 1.2531,-25.587 8.8748,-36.977 5.4703,-8.1749 17.07,-17.094 25.508,-19.613 0.96882,-0.28922 2.0827,-0.93424 2.4753,-1.4334 0.40792,-0.51858 1.3737,-3.9403 2.2535,-7.9841 0.8468,-3.8921 1.818,-8.3157 2.1583,-9.8302 l 0.61869,-2.7536 h 21.023 l 0.25122,1.3258 c 0.99776,5.2656 4.1181,18.954 4.4054,19.325 0.19463,0.25172 1.4983,0.87219 2.897,1.3788 9.364,3.3918 19.13,10.8 24.738,18.765 4.4402,6.3068 7.9856,14.955 9.1982,22.437 0.82064,5.0639 0.80125,12.611 -0.0455,17.693 l -0.67681,4.0625 1.1867,1.0067 c 3.3522,2.8436 14.122,12.884 14.29,13.322 0.1566,0.4081 -3.6426,7.463 -9.0725,16.847 -0.42214,0.72954 -0.95111,1.2641 -1.1755,1.1879 -0.22439,-0.0762 -5.0166,-1.5692 -10.649,-3.3178 l -10.241,-3.1793 -3.2209,2.4232 c -7.8474,5.9038 -14.754,8.9489 -23.792,10.49 -4.7155,0.80421 -13.249,0.79434 -17.776,-0.0206 z"
         style="fill:none;stroke:#00ff00;stroke-width:0.20397;stroke-miterlimit:10" />
    </clipPath>
  </defs>
  <metadata
     id="metadata1323">
    <rdf:RDF>
      <cc:Work
         rdf:about="">
        <dc:format>image/svg+xml</dc:format>
        <dc:type
           rdf:resource="http://purl.org/dc/dcmitype/StillImage" />
        <dc:title>Site-PT20</dc:title>
      </cc:Work>
    </rdf:RDF>
  </metadata>
  <circle
     style="fill:#ffffff;stroke-width:1"
     cx="39.599884"
     cy="41.187115"
     r="36.074482"
     stop-color="#000000"
     id="circle15" />
  <g
     id="g1811"
     transform="matrix(0.56474918,0,0,0.56474918,-30.648882,-36.333816)"
     style="stroke-width:1.77069759">
    <g
       id="g1329"
       clip-path="url(#clipPath3790)"
       style="stroke-width:1.77069759">
      <rect
         id="rect1325"
         height="124.84"
         width="140.5"
         y="63.362999"
         x="55.543999"
         style="fill:#ffffff;stroke-width:0.19148323" />
      <path
         id="path1327"
         d="m 55.544,90.34 h 140.5 v 32.293 H 55.784 Z m 0,64.586 h 140.5 v 32.293 h -140.5 z"
         style="fill:#c8140a;stroke-width:0.19477673" />
    </g>
    <ellipse
       id="ellipse1331"
       stop-color="#000000"
       ry="35.381001"
       rx="36.241001"
       cy="138.22"
       cx="124.63"
       style="fill:#0a14c8;fill-rule:evenodd;stroke-width:3.13537002" />
    <path
       id="path1333"
       d="m 100.2,154.9 h 48.692 l -24.346,-42.233 z"
       style="fill:#ffffff;stroke-width:0.21993835" />
    <g
       id="g1339"
       aria-label="20"
       style="stroke:#ffffff;stroke-width:3.13537002">
      <path
         id="path1335"
         d="m 119.72,152.44393 c 0.98778,0 1.4224,-0.43462 1.4224,-1.4224 v -4.6228 c 0,-0.98778 -0.43462,-1.4224 -1.4224,-1.4224 h -11.261 v -0.82973 c 0,-0.86925 0.23707,-0.94827 1.0273,-1.1853 l 5.3735,-1.699 c 3.8326,-1.1853 6.1637,-3.0028 6.1637,-6.9935 v -3.714 c 0,-4.2672 -2.4497,-6.5588 -6.954,-6.5588 h -11.656 c -0.98778,0 -1.4224,0.43462 -1.4224,1.4224 v 4.6228 c 0,0.98778 0.43462,1.4224 1.4224,1.4224 h 8.5739 c 0.79022,0 1.0668,0.23707 1.0668,1.0273 0,0.86925 -0.23706,1.1853 -1.0668,1.4224 l -5.2945,1.6595 c -3.635,1.1063 -6.2032,2.5287 -6.2032,8.6529 v 6.7959 c 0,0.98778 0.43462,1.4224 1.4224,1.4224 z"
         style="stroke-width:1.7707" />
      <path
         id="path1337"
         d="m 149.59,144.97625 v -13.473 c 0,-4.8204 -2.3312,-8.0998 -12.051,-8.0998 -9.7198,0 -12.09,3.2794 -12.09,8.0998 v 13.473 c 0,4.8204 2.3707,8.0603 12.09,8.0603 9.7193,0 12.051,-3.2399 12.051,-8.0603 z m -15.212,-1.4224 v -10.628 c 0,-1.0273 0.47414,-1.8175 3.1609,-1.8175 2.7263,0 3.1609,0.79023 3.1609,1.8175 v 10.628 c 0,1.0668 -0.43462,1.857 -3.1609,1.857 -2.6868,0 -3.1609,-0.79022 -3.1609,-1.857 z"
         style="stroke-width:1.7707" />
    </g>
    <g
       id="g1807"
       transform="translate(-0.0396,-0.27813)"
       style="stroke-width:1.77069759">
      <g
         id="g1803"
         transform="matrix(0.31815,0,0,0.31815,-33.292,128.87)"
         style="stroke-width:1.77069759">
        <g
           id="g1515"
           transform="matrix(-1,0,0,1,992.22,0.082356)"
           style="stroke-width:1.77069759">
          <g
             id="g1359"
             transform="matrix(0.27793,0.049016,-0.049016,0.27793,631.78,-160.27)"
             style="stroke-width:1.77069759">
            <path
               id="path1341"
               d="m -521.33,302.44 10.804,-1.763 6.8171,13.971 9.3989,-3.0566 -2.0966,-14.99 13.002,-4.3601 c 5.467,27.331 9.9529,55.826 16.511,83.157 l -7.8258,16.811 -19.28,-8.4536 z"
               style="fill:#e6e6e6;stroke-width:1.77069759" />
            <g
               id="g1357"
               transform="matrix(3.5433,0,0,3.5433,-2361,293.75)"
               style="stroke-width:1.77069759">
              <g
                 id="g1355"
                 transform="rotate(-2.3118,156.05,-8570.7)"
                 style="fill:none;stroke:#808080;stroke-width:1.99894059">
                <path
                   id="path1343"
                   d="m 184.28,12.331 c -3.666,0.81618 -8.0035,1.7189 -9.9461,2.3252"
                   style="stroke-width:1.99894059" />
                <path
                   id="path1345"
                   d="m 172.51,10.533 3.462,-0.87182 c 0.64956,-0.16434 0.84736,0.12811 1.06,0.85782 l 0.71604,2.7473 c 0.23475,0.58498 0.69284,0.33401 1.429,0.20734 l 1.0667,-0.24492 c 0.55029,-0.11951 0.40475,-0.40541 0.29612,-0.95771 l -0.55072,-2.8 c -0.15701,-0.64373 -0.20925,-0.66295 0.41932,-0.77185 l 3.3813,-0.70283"
                   style="stroke-width:1.99894059" />
                <path
                   id="path1347"
                   d="m 175.69,19.352 c 2.0979,-0.64584 5.2207,-1.3905 8.9796,-2.2932"
                   style="stroke-width:1.99894059" />
                <path
                   id="path1349"
                   d="m 177.4,23.845 c 2.0979,-0.64584 3.9976,-1.1209 7.7566,-2.0236"
                   style="stroke-width:1.99894059" />
                <path
                   id="path1351"
                   d="m 178.63,28.413 c 2.0979,-0.64584 3.9976,-1.1209 7.7566,-2.0236"
                   style="stroke-width:1.99894059" />
                <path
                   id="path1353"
                   d="m 179.71,33.117 c 2.0979,-0.64584 3.9976,-1.1209 7.7566,-2.0236"
                   style="stroke-width:1.99894059" />
              </g>
            </g>
          </g>
          <g
             id="g1379"
             transform="matrix(0.28222,0,0,0.28222,582.76,-179.24)"
             style="stroke-width:1.77069759">
            <path
               id="path1361"
               d="m -521.33,302.44 10.804,-1.763 6.8171,13.971 9.3989,-3.0566 -2.0966,-14.99 10.314,-3.1971 c 5.467,27.331 12.641,54.663 19.2,81.994 l -7.8258,16.811 -19.28,-8.4536 z"
               style="fill:#e6e6e6;stroke-width:1.77069759" />
            <g
               id="g1377"
               transform="matrix(3.5433,0,0,3.5433,-2361,293.75)"
               style="stroke-width:1.77069759">
              <g
                 id="g1375"
                 transform="rotate(-2.3118,156.05,-8570.7)"
                 style="fill:none;stroke:#808080;stroke-width:1.99894059">
                <path
                   id="path1363"
                   d="m 184.28,12.331 c -3.666,0.81618 -8.0035,1.7189 -9.9461,2.3252"
                   style="stroke-width:1.99894059" />
                <path
                   id="path1365"
                   d="m 173.26,10.355 2.7133,-0.69343 c 0.64956,-0.16434 0.84736,0.12811 1.06,0.85782 l 0.71604,2.7473 c 0.23475,0.58498 0.69284,0.33401 1.429,0.20734 l 1.0667,-0.24492 c 0.55029,-0.11951 0.40475,-0.40541 0.29612,-0.95771 l -0.55072,-2.8 c -0.15701,-0.64373 -0.20925,-0.66295 0.41932,-0.77185 l 2.8325,-0.47416"
                   style="stroke-width:1.99894059" />
                <path
                   id="path1367"
                   d="m 175.69,19.352 c 2.0979,-0.64584 5.2207,-1.3905 8.9796,-2.2932"
                   style="stroke-width:1.99894059" />
                <path
                   id="path1369"
                   d="m 177.4,23.845 c 2.0979,-0.64584 3.9976,-1.1209 7.7566,-2.0236"
                   style="stroke-width:1.99894059" />
                <path
                   id="path1371"
                   d="m 178.63,28.413 c 2.0979,-0.64584 3.9976,-1.1209 7.7566,-2.0236"
                   style="stroke-width:1.99894059" />
                <path
                   id="path1373"
                   d="m 179.71,33.117 c 2.0979,-0.64584 3.9976,-1.1209 7.7566,-2.0236"
                   style="stroke-width:1.99894059" />
              </g>
            </g>
          </g>
          <g
             id="g1431"
             transform="matrix(0.26553,-0.095627,0.095627,0.26553,309.26,-205.04)"
             style="stroke-width:1.77069759">
            <path
               id="path1381"
               d="m 224.27,466.88 23.09,-4.115 2.4997,16.959 19.548,-1.8869 1.4716,-15.622 22.203,-1.05 -1.6123,18.188 -9.2343,16.353 17.705,126.63 -68.355,4.5723 5.6198,-130.26 -8.6045,-14.697 z"
               style="fill:#e6e6e6;stroke-width:1.77069759" />
            <g
               id="g1429"
               transform="matrix(3.5433,0,0,3.5433,-1301.3,476.87)"
               style="stroke-width:1.77069759">
              <g
                 id="g1423"
                 transform="rotate(-2.3118,156.05,-8570.7)"
                 style="stroke-width:1.77069759">
                <g
                   id="g1405"
                   transform="matrix(-1,0,0,1,189.14,-0.17742)"
                   style="stroke-width:1.77069759">
                  <path
                     id="path1383"
                     d="m 95.671,26.226 2.1012,-1.5452 4.3743,-0.56 2.1631,22.18 -11.06,0.06156 v -17.243 z"
                     style="fill:#4d4d4d;stroke-width:1.77069759" />
                  <g
                     id="g1403"
                     style="fill:none;stroke:#808080;stroke-width:1.77069759">
                    <path
                       id="path1385"
                       d="m 302.84,164.1 c -2.9829,0.52329 -2.6562,0.0118 -2.369,-2.8981 l 12.049,-122.1 c 0.58516,-2.3137 -0.23936,-3.2346 -1.4784,-5.1209 l -5.8576,-8.9174 c -1.0836,-1.4312 -1.4045,-2.8181 -1.6789,-4.5252 l -2.3893,-14.864 c -1.0156,-3.2819 1.3608,-2.4483 4.1028,-2.7005 l 16.21,-1.4911 c 2.7224,-0.37018 2.8501,-0.60603 3.055,2.0355 l 0.97743,12.599 c -0.0505,2.6616 0.49837,2.2754 2.9338,2.2489 l 14.935,0.52518"
                       transform="matrix(0.28222,0,0,0.28222,-3.0216e-6,0)"
                       style="stroke-width:7.08279037" />
                    <g
                       id="g1401"
                       style="stroke-width:1.99894059">
                      <path
                         id="path1387"
                         d="M 101.93,18.664 C 96.5406,18.16681 91.08,18.29147 87.724,18.620726"
                         style="stroke-width:1.99894059" />
                      <path
                         id="path1389"
                         d="M 101.97,22.686 C 98.2233,22.54205 92.7763,22.2579 87.288,22.80197"
                         style="stroke-width:1.99894059" />
                      <path
                         id="path1391"
                         d="m 94.582,27.152 c -2.1945,0.04922 -4.147,0.19791 -7.9988,0.52758"
                         style="stroke-width:1.99894059" />
                      <path
                         id="path1393"
                         d="m 93.504,31.437 c -1.8731,0.06723 -3.7831,0.21696 -7.1103,0.50173"
                         style="stroke-width:1.99894059" />
                      <path
                         id="path1395"
                         d="m 92.676,40.688 c -1.8515,0.06839 -3.7554,0.21792 -7.0424,0.49926"
                         style="stroke-width:1.99894059" />
                      <path
                         id="path1397"
                         d="m 92.988,36.125 c -1.8701,0.06738 -3.7794,0.21709 -7.1012,0.50141"
                         style="stroke-width:1.99894059" />
                      <path
                         id="path1399"
                         d="M 92.233,5.2056 C 90.5531,5.30884 87.8887,5.56242 86.1399,5.7121"
                         style="stroke-width:1.99894059" />
                    </g>
                  </g>
                </g>
                <path
                   id="path1407"
                   d="m 95.103,25.138 c -1.8468,-1.1252 -4.4618,-2.1719 -7.558,-2.6724 0.0194,3.3616 -0.55482,-0.19167 -0.55682,3.2967 2.2111,0.07373 4.4053,0.7725 5.8425,3.1235 2.4627,4.0284 3.35,11.273 2.969,16.714 h 2.5973 l 0.0289,-10.898 z"
                   style="fill:#e6e6e6;stroke-width:1.77069759" />
                <g
                   id="g1421"
                   style="fill:none;stroke:#808080;stroke-width:1.77069759">
                  <path
                     id="path1409"
                     d="m 370.34,163.58 c -67.445,0.86673 -0.22788,0.086 -68.562,0.61878 -2.5755,0.66553 -1.4195,-1.8546 -1.2251,-3.8242 l 11.968,-121.28 c 0.58516,-2.3137 -0.23936,-3.2346 -1.4784,-5.1209 l -5.8576,-8.9174 c -1.0836,-1.4312 -1.4045,-2.8181 -1.6789,-4.5252 l -2.3893,-14.864 c -1.0156,-3.2819 1.3608,-2.4483 4.1028,-2.7005 l 16.21,-1.4911 c 2.7224,-0.37018 2.8501,-0.60603 3.055,2.0355 l 0.97743,12.599 c -0.0505,2.6616 0.49837,2.2754 2.9338,2.2489 l 14.571,-0.59781"
                     transform="matrix(0.28222,0,0,0.28222,-3.0216e-6,0)"
                     style="stroke-width:7.08279037" />
                  <g
                     id="g1419"
                     style="stroke-width:1.99894059">
                    <path
                       id="path1411"
                       d="M 101.13,9.8117 C 96.5724,9.26145 90.699,9.46573 88.262,9.99686"
                       style="stroke-width:1.99894059" />
                    <path
                       id="path1413"
                       d="M 101.4,14.116 C 95.6671,13.82962 94.6455,13.55065 88.239,14.18584"
                       style="stroke-width:1.99894059" />
                    <path
                       id="path1415"
                       d="m 92.34,17.693 c 0.05144,1.444 0.13726,3.0349 0.20396,4.4448"
                       style="stroke-width:1.99894059" />
                    <path
                       id="path1417"
                       d="m 86.815,26.071 c 1.2425,-0.38323 2.7542,-0.09315 3.0766,-0.0048 3.6174,0.99095 6.2677,7.0526 5.1433,20.472"
                       style="stroke-width:1.99894059" />
                  </g>
                </g>
              </g>
              <path
                 id="path1425"
                 d="m 433.82,18.552 c 0.35026,-0.06229 1.8078,-0.08333 2.1578,-0.0764 1.3388,0.0265 2.6363,0.51674 3.5879,1.1448 3.441,2.3067 7.2472,8.4438 6.4841,22.109"
                 style="fill:none;stroke:#808080;stroke-width:1.99894059" />
              <path
                 id="path1427"
                 d="m 438.02,0.76911 c -1.6729,0.1851 -4.3218,0.56841 -6.0612,0.80325"
                 style="fill:none;stroke:#808080;stroke-width:1.99894059" />
            </g>
          </g>
          <g
             id="g1511"
             transform="matrix(0.27713,-0.053355,0.053355,0.27713,575.61,-212.65)"
             style="stroke-width:1.77069759">
            <path
               id="path1433"
               d="m -537.37,255.46 22.834,-1.9511 2.9064,15.694 16.144,-0.2824 1.0326,-15.118 23.953,0.5181 -0.003,15.737 17.512,0.23702 0.99938,-15.574 23.721,0.51307 -2.5903,18.068 -9.1116,15.609 12.606,127.6 -81.317,-2.9364 -30.268,4.0658 13.406,-130.13 -9.4929,-15.032 z"
               style="fill:#e6e6e6;stroke-width:1.77069759" />
            <g
               id="g1507"
               transform="matrix(3.5433,0,0,3.5433,-1928.6,274.75)"
               style="stroke-width:1.77069759">
              <g
                 id="g1505"
                 transform="translate(307.75,-6.3671)"
                 style="stroke-width:1.77069759">
                <g
                   id="g1469"
                   transform="matrix(-1,0,0,1,200.7,0.038567)"
                   style="stroke-width:1.77069759">
                  <path
                     id="path1435"
                     d="m 95.671,26.226 2.1012,-1.5452 2.6987,-0.04735 0.50679,21.032 -7.7285,0.69684 v -17.243 z"
                     style="fill:#4d4d4d;stroke-width:1.77069759" />
                  <g
                     id="g1461"
                     style="fill:none;stroke:#808080;stroke-width:1.77069759">
                    <path
                       id="path1437"
                       d="m 357.69,162.57 c -17.668,-0.10902 -35.17,-0.38323 -54.854,1.5236 -2.9829,0.52329 -2.6562,0.0118 -2.369,-2.8981 l 12.049,-122.1 c 0.58516,-2.3137 -0.23936,-3.2346 -1.4784,-5.1209 L 305.18,25.0572 c -1.0836,-1.4312 -1.4045,-2.8181 -1.6789,-4.5252 L 301.1118,5.668 c -1.0156,-3.2819 1.3608,-2.4483 4.1028,-2.7005 l 16.21,-1.4911 c 2.7224,-0.37018 2.8501,-0.60603 3.055,2.0355 l 0.97743,12.599 c -0.0505,2.6616 0.49837,2.2754 2.9338,2.2489 l 12.135,-0.4967 c 3.0737,0.12314 2.8023,-0.22252 2.816,-3.082 l 0.0506,-10.554 c -0.11128,-2.9878 -0.38318,-3.1894 2.5037,-3.1824 l 19.303,0.046607 c 2.7622,-0.15825 2.7145,-0.1551 2.6872,2.468 l -0.15944,15.345"
                       transform="matrix(0.28222,0,0,0.28222,-3.0216e-6,0)"
                       style="stroke-width:7.08279037" />
                    <g
                       id="g1459"
                       style="stroke-width:1.99894059">
                      <path
                         id="path1439"
                         d="M 101.85,9.4263 C 96.0792,9.4254894 94.6704,9.36164 88.264,9.99682"
                         style="stroke-width:1.99894059" />
                      <path
                         id="path1441"
                         d="m 100.51,13.64 c -0.58987,-8.3e-5 -1.332,0.03738 -1.812,0.0356 -4.2161,-0.01565 -4.7067,-0.06019 -10.459,0.51006"
                         style="stroke-width:1.99894059" />
                      <path
                         id="path1443"
                         d="m 100.57,18.075 c -0.60987,-8.6e-5 -1.3165,0.03729 -1.8221,0.03542 -4.2784,-0.0158 -5.294,-0.05781 -11.024,0.51024"
                         style="stroke-width:1.99894059" />
                      <path
                         id="path1445"
                         d="m 98.906,22.168 c -3.9809,0.02383 -6.1338,0.08939 -11.622,0.63346"
                         style="stroke-width:1.99894059" />
                      <path
                         id="path1447"
                         d="m 94.582,27.152 c -2.1945,0.04922 -4.147,0.19791 -7.9988,0.52758"
                         style="stroke-width:1.99894059" />
                      <path
                         id="path1449"
                         d="m 93.504,31.437 c -1.8731,0.06723 -3.7831,0.21696 -7.1103,0.50173"
                         style="stroke-width:1.99894059" />
                      <path
                         id="path1451"
                         d="m 92.676,40.688 c -1.8515,0.06839 -3.7554,0.21792 -7.0424,0.49926"
                         style="stroke-width:1.99894059" />
                      <path
                         id="path1453"
                         d="m 92.988,36.125 c -1.8701,0.06738 -3.7794,0.21709 -7.1012,0.50141"
                         style="stroke-width:1.99894059" />
                      <path
                         id="path1455"
                         d="M 104.22,5.0043 C 101.7155,4.970293 98.9148,4.956835 96.3303,5.041401 M 92.23,5.205591 c -1.6799,0.10324 -4.3443,0.35682 -6.0931,0.5065"
                         style="stroke-width:1.99894059" />
                      <path
                         id="path1457"
                         d="m 95.935,17.913 c 0.05144,1.444 0.13726,3.0349 0.20396,4.4448"
                         style="stroke-width:1.99894059" />
                    </g>
                  </g>
                  <path
                     id="path1463"
                     d="m 94.39,24.95 c 1.8468,-1.1252 3.1139,-2.5402 6.2101,-3.0407 -0.0194,3.3616 0.32066,-0.02389 0.32266,3.4645 -5.9998,0.20006 -7.8328,11.421 -7.2294,20.038 h -2.5973 l -0.02891,-10.898 z"
                     style="fill:#e6e6e6;stroke-width:1.77069759" />
                  <path
                     id="path1465"
                     d="m 100.99,22.08 c -0.36532,-0.07345 -1.7277,-0.0059 -2.0663,0.07445 -3.629,0.86158 -9.7053,6.4183 -7.8481,23.642"
                     style="fill:none;stroke:#808080;stroke-width:1.99894059" />
                  <path
                     id="path1467"
                     d="m 100.43,24.981 c -4.1033,0.11455 -7.3563,6.0022 -6.1316,20.618"
                     style="fill:none;stroke:#808080;stroke-width:1.99894059" />
                </g>
                <path
                   id="path1471"
                   d="m 94.97,26.736 5.501,-2.1024 0.50679,21.032 -7.7285,0.69684 v -17.205 z"
                   style="fill:#4d4d4d;stroke-width:1.77069759" />
                <g
                   id="g1497"
                   style="fill:none;stroke:#808080;stroke-width:1.77069759">
                  <path
                     id="path1473"
                     d="m 357.69,162.57 c -17.985,-0.11098 -35.799,-0.39314 -55.917,1.6285 -2.5755,0.66553 -1.4195,-1.8546 -1.2251,-3.8242 l 11.968,-121.28 c 0.58516,-2.3137 -0.23936,-3.2346 -1.4784,-5.1209 l -5.8576,-8.9174 c -1.0836,-1.4312 -1.4045,-2.8181 -1.6789,-4.5252 l -2.3893,-14.864 c -1.0156,-3.2819 1.3608,-2.4483 4.1028,-2.7005 l 16.21,-1.4911 c 2.7224,-0.37018 2.8501,-0.60603 3.055,2.0355 l 0.97743,12.599 c -0.0505,2.6616 0.49837,2.2754 2.9338,2.2489 l 12.135,-0.4967 c 3.0737,0.12314 2.8023,-0.22252 2.816,-3.082 l 0.0506,-10.554 c -0.11128,-2.9878 -0.38318,-3.1894 2.5037,-3.1824 l 19.303,0.046607 c 2.7622,-0.15825 2.7145,-0.1551 2.6872,2.468 l -0.29718,14.175"
                     transform="matrix(0.28222,0,0,0.28222,-3.0216e-6,0)"
                     style="stroke-width:7.08279037" />
                  <g
                     id="g1495"
                     style="stroke-width:1.99894059">
                    <path
                       id="path1475"
                       d="m 99.316,9.4682 c -1.2594,-0.0041 -2.4176,0.00781 -3.2556,0.012113 -2.1368,0.010964 -3.5823,0.098823 -7.7953,0.5165"
                       style="stroke-width:1.99894059" />
                    <path
                       id="path1477"
                       d="m 100.29,13.679 c -5.7708,-8.1e-4 -5.65,-0.12839 -12.057,0.50679"
                       style="stroke-width:1.99894059" />
                    <path
                       id="path1479"
                       d="m 100.42,18.114 c -5.7708,-8.1e-4 -6.2835,-0.12839 -12.69,0.50679"
                       style="stroke-width:1.99894059" />
                    <path
                       id="path1481"
                       d="m 98.957,22.132 c -3.7399,0.029 -6.3426,0.14161 -11.673,0.67003"
                       style="stroke-width:1.99894059" />
                    <path
                       id="path1483"
                       d="m 94.582,27.152 c -2.1945,0.04922 -4.147,0.19791 -7.9988,0.52758"
                       style="stroke-width:1.99894059" />
                    <path
                       id="path1485"
                       d="m 93.504,31.437 c -1.8731,0.06723 -3.7831,0.21696 -7.1103,0.50173"
                       style="stroke-width:1.99894059" />
                    <path
                       id="path1487"
                       d="m 92.676,40.688 c -1.8515,0.06839 -3.7554,0.21792 -7.0424,0.49926"
                       style="stroke-width:1.99894059" />
                    <path
                       id="path1489"
                       d="m 92.988,36.125 c -1.8701,0.06738 -3.7794,0.21709 -7.1012,0.50141"
                       style="stroke-width:1.99894059" />
                    <path
                       id="path1491"
                       d="m 93.232,13.231 c -0.04823,1.6824 -0.04141,3.7184 -0.04958,5.4735"
                       style="stroke-width:1.99894059" />
                    <path
                       id="path1493"
                       d="m 95.935,17.913 c 0.05144,1.444 0.13726,3.0349 0.20396,4.4448"
                       style="stroke-width:1.99894059" />
                  </g>
                </g>
                <path
                   id="path1499"
                   d="m 94.39,24.95 5.8914,-3.0407 c -0.0194,3.3616 0.002,-0.15136 0.004,3.337 -4.7889,0.39125 -7.1955,11.549 -6.5921,20.165 H 91.096 l -0.02891,-10.898 z"
                   style="fill:#e6e6e6;stroke-width:1.77069759" />
                <path
                   id="path1501"
                   d="m 100.4,22.089 c -0.42363,0.04318 -1.1455,-0.0145 -1.4841,0.0659 -3.629,0.86158 -9.7053,6.4183 -7.8481,23.642"
                   style="fill:none;stroke:#808080;stroke-width:1.99894059" />
                <path
                   id="path1503"
                   d="m 100.54,25.04 c -4.1033,0.11455 -7.4729,5.9439 -6.2483,20.56"
                   style="fill:none;stroke:#808080;stroke-width:1.99894059" />
              </g>
            </g>
            <path
               id="path1509"
               d="m -511.57,270.27 c -5.9524,0.36582 -15.393,1.2643 -21.59,1.7947"
               style="fill:none;stroke:#808080;stroke-width:7.08279037" />
          </g>
          <g
             id="g1513"
             transform="translate(-10.953,-171.43)"
             style="stroke-width:1.77069759" />
        </g>
        <g
           id="g1535"
           transform="matrix(0.27793,0.049016,-0.049016,0.27793,631.78,-160.27)"
           style="stroke-width:1.77069759">
          <path
             id="path1517"
             d="m -521.33,302.44 10.804,-1.763 6.8171,13.971 9.3989,-3.0566 -2.0966,-14.99 13.002,-4.3601 c 5.467,27.331 9.9529,55.826 16.511,83.157 l -7.8258,16.811 -19.28,-8.4536 z"
             style="fill:#e6e6e6;stroke-width:1.77069759" />
          <g
             id="g1533"
             transform="matrix(3.5433,0,0,3.5433,-2361,293.75)"
             style="stroke-width:1.77069759">
            <g
               id="g1531"
               transform="rotate(-2.3118,156.05,-8570.7)"
               style="fill:none;stroke:#808080;stroke-width:1.99894059">
              <path
                 id="path1519"
                 d="m 184.28,12.331 c -3.666,0.81618 -8.0035,1.7189 -9.9461,2.3252"
                 style="stroke-width:1.99894059" />
              <path
                 id="path1521"
                 d="m 172.51,10.533 3.462,-0.87182 c 0.64956,-0.16434 0.84736,0.12811 1.06,0.85782 l 0.71604,2.7473 c 0.23475,0.58498 0.69284,0.33401 1.429,0.20734 l 1.0667,-0.24492 c 0.55029,-0.11951 0.40475,-0.40541 0.29612,-0.95771 l -0.55072,-2.8 c -0.15701,-0.64373 -0.20925,-0.66295 0.41932,-0.77185 l 3.3813,-0.70283"
                 style="stroke-width:1.99894059" />
              <path
                 id="path1523"
                 d="m 175.69,19.352 c 2.0979,-0.64584 5.2207,-1.3905 8.9796,-2.2932"
                 style="stroke-width:1.99894059" />
              <path
                 id="path1525"
                 d="m 177.4,23.845 c 2.0979,-0.64584 3.9976,-1.1209 7.7566,-2.0236"
                 style="stroke-width:1.99894059" />
              <path
                 id="path1527"
                 d="m 178.63,28.413 c 2.0979,-0.64584 3.9976,-1.1209 7.7566,-2.0236"
                 style="stroke-width:1.99894059" />
              <path
                 id="path1529"
                 d="m 179.71,33.117 c 2.0979,-0.64584 3.9976,-1.1209 7.7566,-2.0236"
                 style="stroke-width:1.99894059" />
            </g>
          </g>
        </g>
        <g
           id="g1555"
           transform="matrix(0.28222,0,0,0.28222,582.76,-179.24)"
           style="stroke-width:1.77069759">
          <path
             id="path1537"
             d="m -521.33,302.44 10.804,-1.763 6.8171,13.971 9.3989,-3.0566 -2.0966,-14.99 10.314,-3.1971 c 5.467,27.331 12.641,54.663 19.2,81.994 l -7.8258,16.811 -19.28,-8.4536 z"
             style="fill:#e6e6e6;stroke-width:1.77069759" />
          <g
             id="g1553"
             transform="matrix(3.5433,0,0,3.5433,-2361,293.75)"
             style="stroke-width:1.77069759">
            <g
               id="g1551"
               transform="rotate(-2.3118,156.05,-8570.7)"
               style="fill:none;stroke:#808080;stroke-width:1.99894059">
              <path
                 id="path1539"
                 d="m 184.28,12.331 c -3.666,0.81618 -8.0035,1.7189 -9.9461,2.3252"
                 style="stroke-width:1.99894059" />
              <path
                 id="path1541"
                 d="m 173.26,10.355 2.7133,-0.69343 c 0.64956,-0.16434 0.84736,0.12811 1.06,0.85782 l 0.71604,2.7473 c 0.23475,0.58498 0.69284,0.33401 1.429,0.20734 l 1.0667,-0.24492 c 0.55029,-0.11951 0.40475,-0.40541 0.29612,-0.95771 l -0.55072,-2.8 c -0.15701,-0.64373 -0.20925,-0.66295 0.41932,-0.77185 l 2.8325,-0.47416"
                 style="stroke-width:1.99894059" />
              <path
                 id="path1543"
                 d="m 175.69,19.352 c 2.0979,-0.64584 5.2207,-1.3905 8.9796,-2.2932"
                 style="stroke-width:1.99894059" />
              <path
                 id="path1545"
                 d="m 177.4,23.845 c 2.0979,-0.64584 3.9976,-1.1209 7.7566,-2.0236"
                 style="stroke-width:1.99894059" />
              <path
                 id="path1547"
                 d="m 178.63,28.413 c 2.0979,-0.64584 3.9976,-1.1209 7.7566,-2.0236"
                 style="stroke-width:1.99894059" />
              <path
                 id="path1549"
                 d="m 179.71,33.117 c 2.0979,-0.64584 3.9976,-1.1209 7.7566,-2.0236"
                 style="stroke-width:1.99894059" />
            </g>
          </g>
        </g>
        <g
           id="g1605"
           transform="matrix(0.26553,-0.095627,0.095627,0.26553,309.26,-205.04)"
           style="stroke-width:1.77069759">
          <path
             id="path1557"
             d="m 224.27,466.88 23.09,-4.115 2.4997,16.959 19.548,-1.8869 1.4716,-15.622 22.203,-1.05 -1.6123,18.188 -9.2343,16.353 17.705,126.63 -68.355,4.5723 5.6198,-130.26 -8.6045,-14.697 z"
             style="fill:#e6e6e6;stroke-width:1.77069759" />
          <g
             id="g1603"
             transform="matrix(3.5433,0,0,3.5433,-1301.3,476.87)"
             style="stroke-width:1.77069759">
            <g
               id="g1597"
               transform="rotate(-2.3118,156.05,-8570.7)"
               style="stroke-width:1.77069759">
              <g
                 id="g1581"
                 transform="matrix(-1,0,0,1,189.14,-0.17742)"
                 style="stroke-width:1.77069759">
                <path
                   id="path1559"
                   d="m 95.671,26.226 2.1012,-1.5452 4.3743,-0.56 2.1631,22.18 -11.06,0.06156 v -17.243 z"
                   style="fill:#4d4d4d;stroke-width:1.77069759" />
                <g
                   id="g1579"
                   style="fill:none;stroke:#808080;stroke-width:1.77069759">
                  <path
                     id="path1561"
                     d="m 302.84,164.1 c -2.9829,0.52329 -2.6562,0.0118 -2.369,-2.8981 l 12.049,-122.1 c 0.58516,-2.3137 -0.23936,-3.2346 -1.4784,-5.1209 l -5.8576,-8.9174 c -1.0836,-1.4312 -1.4045,-2.8181 -1.6789,-4.5252 l -2.3893,-14.864 c -1.0156,-3.2819 1.3608,-2.4483 4.1028,-2.7005 l 16.21,-1.4911 c 2.7224,-0.37018 2.8501,-0.60603 3.055,2.0355 l 0.97743,12.599 c -0.0505,2.6616 0.49837,2.2754 2.9338,2.2489 l 14.935,0.52518"
                     transform="matrix(0.28222,0,0,0.28222,-3.0216e-6,0)"
                     style="stroke-width:7.08279037" />
                  <g
                     id="g1577"
                     style="stroke-width:1.99894059">
                    <path
                       id="path1563"
                       d="M 101.93,18.664 C 96.5406,18.16681 91.08,18.29147 87.724,18.620726"
                       style="stroke-width:1.99894059" />
                    <path
                       id="path1565"
                       d="M 101.97,22.686 C 98.2233,22.54205 92.7763,22.2579 87.288,22.80197"
                       style="stroke-width:1.99894059" />
                    <path
                       id="path1567"
                       d="m 94.582,27.152 c -2.1945,0.04922 -4.147,0.19791 -7.9988,0.52758"
                       style="stroke-width:1.99894059" />
                    <path
                       id="path1569"
                       d="m 93.504,31.437 c -1.8731,0.06723 -3.7831,0.21696 -7.1103,0.50173"
                       style="stroke-width:1.99894059" />
                    <path
                       id="path1571"
                       d="m 92.676,40.688 c -1.8515,0.06839 -3.7554,0.21792 -7.0424,0.49926"
                       style="stroke-width:1.99894059" />
                    <path
                       id="path1573"
                       d="m 92.988,36.125 c -1.8701,0.06738 -3.7794,0.21709 -7.1012,0.50141"
                       style="stroke-width:1.99894059" />
                    <path
                       id="path1575"
                       d="M 92.233,5.2056 C 90.5531,5.30884 87.8887,5.56242 86.1399,5.7121"
                       style="stroke-width:1.99894059" />
                  </g>
                </g>
              </g>
              <path
                 id="path1583"
                 d="m 95.103,25.138 c -1.8468,-1.1252 -4.4618,-2.1719 -7.558,-2.6724 0.0194,3.3616 -0.55482,-0.19167 -0.55682,3.2967 2.2111,0.07373 4.4053,0.7725 5.8425,3.1235 2.4627,4.0284 3.35,11.273 2.969,16.714 h 2.5973 l 0.0289,-10.898 z"
                 style="fill:#ffffff;stroke-width:1.77069759" />
              <g
                 id="g1595"
                 style="fill:none;stroke:#808080;stroke-width:1.77069759">
                <path
                   id="path1585"
                   d="m 370.34,163.58 c -67.445,0.86673 -0.22788,0.086 -68.562,0.61878 -2.5755,0.66553 -1.4195,-1.8546 -1.2251,-3.8242 l 11.968,-121.28 c 0.58516,-2.3137 -0.23936,-3.2346 -1.4784,-5.1209 l -5.8576,-8.9174 c -1.0836,-1.4312 -1.4045,-2.8181 -1.6789,-4.5252 l -2.3893,-14.864 c -1.0156,-3.2819 1.3608,-2.4483 4.1028,-2.7005 l 16.21,-1.4911 c 2.7224,-0.37018 2.8501,-0.60603 3.055,2.0355 l 0.97743,12.599 c -0.0505,2.6616 0.49837,2.2754 2.9338,2.2489 l 14.571,-0.59781"
                   transform="matrix(0.28222,0,0,0.28222,-3.0216e-6,0)"
                   style="stroke-width:7.08279037" />
                <g
                   id="g1593"
                   style="stroke-width:1.99894059">
                  <path
                     id="path1587"
                     d="M 101.13,9.8117 C 96.5724,9.26145 90.699,9.46573 88.262,9.99686"
                     style="stroke-width:1.99894059" />
                  <path
                     id="path1589"
                     d="M 101.4,14.116 C 95.6671,13.82962 94.6455,13.55065 88.239,14.18584"
                     style="stroke-width:1.99894059" />
                  <path
                     id="path1591"
                     d="m 86.815,26.071 c 1.2425,-0.38323 2.7542,-0.09315 3.0766,-0.0048 3.6174,0.99095 6.2677,7.0526 5.1433,20.472"
                     style="stroke-width:1.99894059" />
                </g>
              </g>
            </g>
            <path
               id="path1599"
               d="m 433.82,18.552 c 0.35026,-0.06229 1.8078,-0.08333 2.1578,-0.0764 1.3388,0.0265 2.6363,0.51674 3.5879,1.1448 3.441,2.3067 7.2472,8.4438 6.4841,22.109"
               style="fill:none;stroke:#808080;stroke-width:1.99894059" />
            <path
               id="path1601"
               d="m 438.02,0.76911 c -1.6729,0.1851 -4.3218,0.56841 -6.0612,0.80325"
               style="fill:none;stroke:#808080;stroke-width:1.99894059" />
          </g>
        </g>
        <g
           id="g1685"
           transform="matrix(0.27713,-0.053355,0.053355,0.27713,575.61,-212.65)"
           style="stroke-width:1.77069759">
          <path
             id="path1607"
             d="m -537.37,255.46 22.834,-1.9511 2.9064,15.694 16.144,-0.2824 1.0326,-15.118 23.953,0.5181 -0.003,15.737 17.512,0.23702 0.99938,-15.574 23.721,0.51307 -2.5903,18.068 -9.1116,15.609 12.606,127.6 -81.317,-2.9364 -30.268,4.0658 13.406,-130.13 -9.4929,-15.032 z"
             style="fill:#e6e6e6;stroke-width:1.77069759" />
          <g
             id="g1681"
             transform="matrix(3.5433,0,0,3.5433,-1928.6,274.75)"
             style="stroke-width:1.77069759">
            <g
               id="g1679"
               transform="translate(307.75,-6.3671)"
               style="stroke-width:1.77069759">
              <g
                 id="g1645"
                 transform="matrix(-1,0,0,1,200.7,0.038567)"
                 style="stroke-width:1.77069759">
                <path
                   id="path1609"
                   d="m 95.671,26.226 2.1012,-1.5452 2.6987,-0.04735 0.50679,21.032 -7.7285,0.69684 v -17.243 z"
                   style="fill:#4d4d4d;stroke-width:1.77069759" />
                <g
                   id="g1637"
                   style="fill:none;stroke:#808080;stroke-width:1.77069759">
                  <path
                     id="path1611"
                     d="m 357.69,162.57 c -17.668,-0.10902 -35.17,-0.38323 -54.854,1.5236 -2.9829,0.52329 -2.6562,0.0118 -2.369,-2.8981 l 12.049,-122.1 c 0.58516,-2.3137 -0.23936,-3.2346 -1.4784,-5.1209 L 305.18,25.0572 c -1.0836,-1.4312 -1.4045,-2.8181 -1.6789,-4.5252 L 301.1118,5.668 c -1.0156,-3.2819 1.3608,-2.4483 4.1028,-2.7005 l 16.21,-1.4911 c 2.7224,-0.37018 2.8501,-0.60603 3.055,2.0355 l 0.97743,12.599 c -0.0505,2.6616 0.49837,2.2754 2.9338,2.2489 l 12.135,-0.4967 c 3.0737,0.12314 2.8023,-0.22252 2.816,-3.082 l 0.0506,-10.554 c -0.11128,-2.9878 -0.38318,-3.1894 2.5037,-3.1824 l 19.303,0.046607 c 2.7622,-0.15825 2.7145,-0.1551 2.6872,2.468 l -0.15944,15.345"
                     transform="matrix(0.28222,0,0,0.28222,-3.0216e-6,0)"
                     style="stroke-width:7.08279037" />
                  <g
                     id="g1635"
                     style="stroke-width:1.99894059">
                    <path
                       id="path1613"
                       d="M 101.85,9.4263 C 96.0792,9.4254894 94.6704,9.36164 88.264,9.99682"
                       style="stroke-width:1.99894059" />
                    <path
                       id="path1615"
                       d="m 100.51,13.64 c -0.58987,-8.3e-5 -1.332,0.03738 -1.812,0.0356 -4.2161,-0.01565 -4.7067,-0.06019 -10.459,0.51006"
                       style="stroke-width:1.99894059" />
                    <path
                       id="path1617"
                       d="m 100.57,18.075 c -0.60987,-8.6e-5 -1.3165,0.03729 -1.8221,0.03542 -4.2784,-0.0158 -5.294,-0.05781 -11.024,0.51024"
                       style="stroke-width:1.99894059" />
                    <path
                       id="path1619"
                       d="m 98.906,22.168 c -3.9809,0.02383 -6.1338,0.08939 -11.622,0.63346"
                       style="stroke-width:1.99894059" />
                    <path
                       id="path1621"
                       d="m 94.582,27.152 c -2.1945,0.04922 -4.147,0.19791 -7.9988,0.52758"
                       style="stroke-width:1.99894059" />
                    <path
                       id="path1623"
                       d="m 93.504,31.437 c -1.8731,0.06723 -3.7831,0.21696 -7.1103,0.50173"
                       style="stroke-width:1.99894059" />
                    <path
                       id="path1625"
                       d="m 92.676,40.688 c -1.8515,0.06839 -3.7554,0.21792 -7.0424,0.49926"
                       style="stroke-width:1.99894059" />
                    <path
                       id="path1627"
                       d="m 92.988,36.125 c -1.8701,0.06738 -3.7794,0.21709 -7.1012,0.50141"
                       style="stroke-width:1.99894059" />
                    <path
                       id="path1629"
                       d="M 104.22,5.0043 C 101.7155,4.970293 98.9148,4.956835 96.3303,5.041401 M 92.23,5.205591 c -1.6799,0.10324 -4.3443,0.35682 -6.0931,0.5065"
                       style="stroke-width:1.99894059" />
                    <path
                       id="path1631"
                       d="m 93.232,13.231 c -0.04823,1.6824 -0.04141,3.7184 -0.04958,5.4735"
                       style="stroke-width:1.99894059" />
                    <path
                       id="path1633"
                       d="m 95.935,17.913 c 0.05144,1.444 0.13726,3.0349 0.20396,4.4448"
                       style="stroke-width:1.99894059" />
                  </g>
                </g>
                <path
                   id="path1639"
                   d="m 94.39,24.95 c 1.8468,-1.1252 3.1139,-2.5402 6.2101,-3.0407 -0.0194,3.3616 0.32066,-0.02389 0.32266,3.4645 -5.9998,0.20006 -7.8328,11.421 -7.2294,20.038 h -2.5973 l -0.02891,-10.898 z"
                   style="fill:#ffffff;stroke-width:1.77069759" />
                <path
                   id="path1641"
                   d="m 100.99,22.08 c -0.36532,-0.07345 -1.7277,-0.0059 -2.0663,0.07445 -3.629,0.86158 -9.7053,6.4183 -7.8481,23.642"
                   style="fill:none;stroke:#808080;stroke-width:1.99894059" />
                <path
                   id="path1643"
                   d="m 100.43,24.981 c -4.1033,0.11455 -7.3563,6.0022 -6.1316,20.618"
                   style="fill:none;stroke:#808080;stroke-width:1.99894059" />
              </g>
              <path
                 id="path1647"
                 d="m 94.97,26.736 5.501,-2.1024 0.50679,21.032 -7.7285,0.69684 v -17.205 z"
                 style="fill:#4d4d4d;stroke-width:1.77069759" />
              <g
                 id="g1671"
                 style="fill:none;stroke:#808080;stroke-width:1.77069759">
                <path
                   id="path1649"
                   d="m 357.69,162.57 c -17.985,-0.11098 -35.799,-0.39314 -55.917,1.6285 -2.5755,0.66553 -1.4195,-1.8546 -1.2251,-3.8242 l 11.968,-121.28 c 0.58516,-2.3137 -0.23936,-3.2346 -1.4784,-5.1209 l -5.8576,-8.9174 c -1.0836,-1.4312 -1.4045,-2.8181 -1.6789,-4.5252 l -2.3893,-14.864 c -1.0156,-3.2819 1.3608,-2.4483 4.1028,-2.7005 l 16.21,-1.4911 c 2.7224,-0.37018 2.8501,-0.60603 3.055,2.0355 l 0.97743,12.599 c -0.0505,2.6616 0.49837,2.2754 2.9338,2.2489 l 12.135,-0.4967 c 3.0737,0.12314 2.8023,-0.22252 2.816,-3.082 l 0.0506,-10.554 c -0.11128,-2.9878 -0.38318,-3.1894 2.5037,-3.1824 l 19.303,0.046607 c 2.7622,-0.15825 2.7145,-0.1551 2.6872,2.468 l -0.29718,14.175"
                   transform="matrix(0.28222,0,0,0.28222,-3.0216e-6,0)"
                   style="stroke-width:7.08279037" />
                <g
                   id="g1669"
                   style="stroke-width:1.99894059">
                  <path
                     id="path1651"
                     d="m 99.316,9.4682 c -1.2594,-0.0041 -2.4176,0.00781 -3.2556,0.012113 -2.1368,0.010964 -3.5823,0.098823 -7.7953,0.5165"
                     style="stroke-width:1.99894059" />
                  <path
                     id="path1653"
                     d="m 100.29,13.679 c -5.7708,-8.1e-4 -5.65,-0.12839 -12.057,0.50679"
                     style="stroke-width:1.99894059" />
                  <path
                     id="path1655"
                     d="m 100.42,18.114 c -5.7708,-8.1e-4 -6.2835,-0.12839 -12.69,0.50679"
                     style="stroke-width:1.99894059" />
                  <path
                     id="path1657"
                     d="m 98.957,22.132 c -3.7399,0.029 -6.3426,0.14161 -11.673,0.67003"
                     style="stroke-width:1.99894059" />
                  <path
                     id="path1659"
                     d="m 94.582,27.152 c -2.1945,0.04922 -4.147,0.19791 -7.9988,0.52758"
                     style="stroke-width:1.99894059" />
                  <path
                     id="path1661"
                     d="m 93.504,31.437 c -1.8731,0.06723 -3.7831,0.21696 -7.1103,0.50173"
                     style="stroke-width:1.99894059" />
                  <path
                     id="path1663"
                     d="m 92.676,40.688 c -1.8515,0.06839 -3.7554,0.21792 -7.0424,0.49926"
                     style="stroke-width:1.99894059" />
                  <path
                     id="path1665"
                     d="m 92.988,36.125 c -1.8701,0.06738 -3.7794,0.21709 -7.1012,0.50141"
                     style="stroke-width:1.99894059" />
                  <path
                     id="path1667"
                     d="m 95.935,17.913 c 0.05144,1.444 0.13726,3.0349 0.20396,4.4448"
                     style="stroke-width:1.99894059" />
                </g>
              </g>
              <path
                 id="path1673"
                 d="m 94.39,24.95 5.8914,-3.0407 c -0.0194,3.3616 0.002,-0.15136 0.004,3.337 -4.7889,0.39125 -7.1955,11.549 -6.5921,20.165 H 91.096 l -0.02891,-10.898 z"
                 style="fill:#ffffff;stroke-width:1.77069759" />
              <path
                 id="path1675"
                 d="m 100.4,22.089 c -0.42363,0.04318 -1.1455,-0.0145 -1.4841,0.0659 -3.629,0.86158 -9.7053,6.4183 -7.8481,23.642"
                 style="fill:none;stroke:#808080;stroke-width:1.99894059" />
              <path
                 id="path1677"
                 d="m 100.54,25.04 c -4.1033,0.11455 -7.4729,5.9439 -6.2483,20.56"
                 style="fill:none;stroke:#808080;stroke-width:1.99894059" />
            </g>
          </g>
          <path
             id="path1683"
             d="m -511.57,270.27 c -5.9524,0.36582 -15.393,1.2643 -21.59,1.7947"
             style="fill:none;stroke:#808080;stroke-width:7.08279037" />
        </g>
        <g
           id="g1769"
           transform="matrix(0.28222,-9.6119e-5,9.6119e-5,0.28222,632.24,-192.13)"
           style="stroke-width:1.77069759">
          <path
             id="path1687"
             d="m -537.37,255.46 22.834,-1.9511 2.9064,15.694 16.144,-0.2824 1.0326,-15.118 23.953,0.5181 -0.003,15.737 17.512,0.23702 0.99938,-15.574 23.721,0.51307 -2.5903,18.068 -9.1116,15.609 12.606,127.6 -81.317,-2.9364 -30.268,4.0658 13.406,-130.13 -9.4929,-15.032 z"
             style="fill:#e6e6e6;stroke-width:1.77069759" />
          <g
             id="g1761"
             transform="matrix(3.5433,0,0,3.5433,-1928.6,274.75)"
             style="stroke-width:1.77069759">
            <g
               id="g1759"
               transform="translate(307.75,-6.3671)"
               style="stroke-width:1.77069759">
              <g
                 id="g1725"
                 transform="matrix(-1,0,0,1,200.7,0.038567)"
                 style="stroke-width:1.77069759">
                <path
                   id="path1689"
                   d="m 95.671,26.226 2.1012,-1.5452 2.6987,-0.04735 0.50679,21.032 -7.7285,0.69684 v -17.243 z"
                   style="fill:#4d4d4d;stroke-width:1.77069759" />
                <g
                   id="g1717"
                   style="fill:none;stroke:#808080;stroke-width:1.77069759">
                  <path
                     id="path1691"
                     d="m 357.69,162.57 c -17.668,-0.10902 -35.17,-0.38323 -54.854,1.5236 -2.9829,0.52329 -2.6562,0.0118 -2.369,-2.8981 l 12.049,-122.1 c 0.58516,-2.3137 -0.23936,-3.2346 -1.4784,-5.1209 L 305.18,25.0572 c -1.0836,-1.4312 -1.4045,-2.8181 -1.6789,-4.5252 L 301.1118,5.668 c -1.0156,-3.2819 1.3608,-2.4483 4.1028,-2.7005 l 16.21,-1.4911 c 2.7224,-0.37018 2.8501,-0.60603 3.055,2.0355 l 0.97743,12.599 c -0.0505,2.6616 0.49837,2.2754 2.9338,2.2489 l 12.135,-0.4967 c 3.0737,0.12314 2.8023,-0.22252 2.816,-3.082 l 0.0506,-10.554 c -0.11128,-2.9878 -0.38318,-3.1894 2.5037,-3.1824 l 19.303,0.046607 c 2.7622,-0.15825 2.7145,-0.1551 2.6872,2.468 l -0.15944,15.345"
                     transform="matrix(0.28222,0,0,0.28222,-3.0216e-6,0)"
                     style="stroke-width:7.08279037" />
                  <g
                     id="g1715"
                     style="stroke-width:1.99894059">
                    <path
                       id="path1693"
                       d="M 101.85,9.4263 C 96.0792,9.4254894 94.6704,9.36164 88.264,9.99682"
                       style="stroke-width:1.99894059" />
                    <path
                       id="path1695"
                       d="m 100.51,13.64 c -0.58987,-8.3e-5 -1.332,0.03738 -1.812,0.0356 -4.2161,-0.01565 -4.7067,-0.06019 -10.459,0.51006"
                       style="stroke-width:1.99894059" />
                    <path
                       id="path1697"
                       d="m 100.57,18.075 c -0.60987,-8.6e-5 -1.3165,0.03729 -1.8221,0.03542 -4.2784,-0.0158 -5.294,-0.05781 -11.024,0.51024"
                       style="stroke-width:1.99894059" />
                    <path
                       id="path1699"
                       d="m 98.906,22.168 c -3.9809,0.02383 -6.1338,0.08939 -11.622,0.63346"
                       style="stroke-width:1.99894059" />
                    <path
                       id="path1701"
                       d="m 94.582,27.152 c -2.1945,0.04922 -4.147,0.19791 -7.9988,0.52758"
                       style="stroke-width:1.99894059" />
                    <path
                       id="path1703"
                       d="m 93.504,31.437 c -1.8731,0.06723 -3.7831,0.21696 -7.1103,0.50173"
                       style="stroke-width:1.99894059" />
                    <path
                       id="path1705"
                       d="m 92.676,40.688 c -1.8515,0.06839 -3.7554,0.21792 -7.0424,0.49926"
                       style="stroke-width:1.99894059" />
                    <path
                       id="path1707"
                       d="m 92.988,36.125 c -1.8701,0.06738 -3.7794,0.21709 -7.1012,0.50141"
                       style="stroke-width:1.99894059" />
                    <path
                       id="path1709"
                       d="M 104.22,5.0043 C 101.7155,4.970293 98.9148,4.956835 96.3303,5.041401 M 92.23,5.205591 c -1.6799,0.10324 -4.3443,0.35682 -6.0931,0.5065"
                       style="stroke-width:1.99894059" />
                    <path
                       id="path1711"
                       d="m 93.232,13.231 c -0.04823,1.6824 -0.04141,3.7184 -0.04958,5.4735"
                       style="stroke-width:1.99894059" />
                    <path
                       id="path1713"
                       d="m 95.935,17.913 c 0.05144,1.444 0.13726,3.0349 0.20396,4.4448"
                       style="stroke-width:1.99894059" />
                  </g>
                </g>
                <path
                   id="path1719"
                   d="m 94.39,24.95 c 1.8468,-1.1252 3.1139,-2.5402 6.2101,-3.0407 -0.0194,3.3616 0.32066,-0.02389 0.32266,3.4645 -5.9998,0.20006 -7.8328,11.421 -7.2294,20.038 h -2.5973 l -0.02891,-10.898 z"
                   style="fill:#ffffff;stroke-width:1.77069759" />
                <path
                   id="path1721"
                   d="m 100.99,22.08 c -0.36532,-0.07345 -1.7277,-0.0059 -2.0663,0.07445 -3.629,0.86158 -9.7053,6.4183 -7.8481,23.642"
                   style="fill:none;stroke:#808080;stroke-width:1.99894059" />
                <path
                   id="path1723"
                   d="m 100.43,24.981 c -4.1033,0.11455 -7.3563,6.0022 -6.1316,20.618"
                   style="fill:none;stroke:#808080;stroke-width:1.99894059" />
              </g>
              <path
                 id="path1727"
                 d="m 94.97,26.736 5.501,-2.1024 0.50679,21.032 -7.7285,0.69684 v -17.205 z"
                 style="fill:#4d4d4d;stroke-width:1.77069759" />
              <g
                 id="g1751"
                 style="fill:none;stroke:#808080;stroke-width:1.77069759">
                <path
                   id="path1729"
                   d="m 357.69,162.57 c -17.985,-0.11098 -35.799,-0.39314 -55.917,1.6285 -2.5755,0.66553 -1.4195,-1.8546 -1.2251,-3.8242 l 11.968,-121.28 c 0.58516,-2.3137 -0.23936,-3.2346 -1.4784,-5.1209 l -5.8576,-8.9174 c -1.0836,-1.4312 -1.4045,-2.8181 -1.6789,-4.5252 l -2.3893,-14.864 c -1.0156,-3.2819 1.3608,-2.4483 4.1028,-2.7005 l 16.21,-1.4911 c 2.7224,-0.37018 2.8501,-0.60603 3.055,2.0355 l 0.97743,12.599 c -0.0505,2.6616 0.49837,2.2754 2.9338,2.2489 l 12.135,-0.4967 c 3.0737,0.12314 2.8023,-0.22252 2.816,-3.082 l 0.0506,-10.554 c -0.11128,-2.9878 -0.38318,-3.1894 2.5037,-3.1824 l 19.303,0.046607 c 2.7622,-0.15825 2.7145,-0.1551 2.6872,2.468 l -0.29718,14.175"
                   transform="matrix(0.28222,0,0,0.28222,-3.0216e-6,0)"
                   style="stroke-width:7.08279037" />
                <g
                   id="g1749"
                   style="stroke-width:1.99894059">
                  <path
                     id="path1731"
                     d="m 99.316,9.4682 c -1.2594,-0.0041 -2.4176,0.00781 -3.2556,0.012113 -2.1368,0.010964 -3.5823,0.098823 -7.7953,0.5165"
                     style="stroke-width:1.99894059" />
                  <path
                     id="path1733"
                     d="m 100.29,13.679 c -5.7708,-8.1e-4 -5.65,-0.12839 -12.057,0.50679"
                     style="stroke-width:1.99894059" />
                  <path
                     id="path1735"
                     d="m 100.42,18.114 c -5.7708,-8.1e-4 -6.2835,-0.12839 -12.69,0.50679"
                     style="stroke-width:1.99894059" />
                  <path
                     id="path1737"
                     d="m 98.957,22.132 c -3.7399,0.029 -6.3426,0.14161 -11.673,0.67003"
                     style="stroke-width:1.99894059" />
                  <path
                     id="path1739"
                     d="m 94.582,27.152 c -2.1945,0.04922 -4.147,0.19791 -7.9988,0.52758"
                     style="stroke-width:1.99894059" />
                  <path
                     id="path1741"
                     d="m 93.504,31.437 c -1.8731,0.06723 -3.7831,0.21696 -7.1103,0.50173"
                     style="stroke-width:1.99894059" />
                  <path
                     id="path1743"
                     d="m 92.676,40.688 c -1.8515,0.06839 -3.7554,0.21792 -7.0424,0.49926"
                     style="stroke-width:1.99894059" />
                  <path
                     id="path1745"
                     d="m 92.988,36.125 c -1.8701,0.06738 -3.7794,0.21709 -7.1012,0.50141"
                     style="stroke-width:1.99894059" />
                  <path
                     id="path1747"
                     d="m 95.935,17.913 c 0.05144,1.444 0.13726,3.0349 0.20396,4.4448"
                     style="stroke-width:1.99894059" />
                </g>
              </g>
              <path
                 id="path1753"
                 d="m 94.39,24.95 5.8914,-3.0407 c -0.0194,3.3616 0.002,-0.15136 0.004,3.337 -4.7889,0.39125 -7.1955,11.549 -6.5921,20.165 H 91.096 l -0.02891,-10.898 z"
                 style="fill:#ffffff;stroke-width:1.77069759" />
              <path
                 id="path1755"
                 d="m 100.4,22.089 c -0.42363,0.04318 -1.1455,-0.0145 -1.4841,0.0659 -3.629,0.86158 -9.7053,6.4183 -7.8481,23.642"
                 style="fill:none;stroke:#808080;stroke-width:1.99894059" />
              <path
                 id="path1757"
                 d="m 100.54,25.04 c -4.1033,0.11455 -7.4729,5.9439 -6.2483,20.56"
                 style="fill:none;stroke:#808080;stroke-width:1.99894059" />
            </g>
          </g>
          <path
             id="path1763"
             d="m -511.57,270.27 c -5.9524,0.36582 -15.393,1.2643 -21.59,1.7947"
             style="fill:none;stroke:#808080;stroke-width:7.08279037" />
          <rect
             id="rect1765"
             height="7.6799002"
             width="13.101"
             y="257.94"
             x="-489.70999"
             style="fill:#e6e6e6;stroke-width:1.77069759" />
          <rect
             id="rect1767"
             height="7.6799002"
             width="13.101"
             y="334.54999"
             x="379.23001"
             transform="matrix(-0.98346,-0.18114,-0.18114,0.98346,0,0)"
             style="fill:#e6e6e6;stroke-width:1.77069759" />
        </g>
        <g
           id="g1771"
           transform="translate(-10.953,-171.43)"
           style="stroke-width:1.77069759" />
        <g
           id="g1775"
           transform="matrix(-1,0,0,1,992.45,0.036392)"
           style="stroke-width:1.77069759">
          <g
             id="g1773"
             transform="translate(-10.953,-171.43)"
             style="stroke-width:1.77069759" />
        </g>
        <g
           id="g1801"
           transform="matrix(0.6822,0,0,0.6822,625.28,-646.5)"
           style="fill:#4d4d4d;stroke:#808080;stroke-width:1.77069759">
          <g
             id="g1789"
             transform="translate(-54.886,1.8692)"
             style="stroke-width:3.01018596">
            <g
               id="g1781"
               transform="matrix(0.79691,0.14505,-0.14505,0.79691,106.04,523.22)"
               style="stroke-width:3.01018596">
              <path
                 id="path1777"
                 d="m -174.94,371.27 c 1.8958,-0.029 4.2204,1.068 4.0773,4.9596 l -0.0238,9.5376 h -8.1785 l -0.0237,-9.2753 c 0.009,-4.7397 2.8159,-5.3172 4.1488,-5.2218 z"
                 style="stroke-width:3.01018596" />
              <path
                 id="path1779"
                 d="m -152.94,371.53 c 1.8958,-0.029 4.2204,1.068 4.0773,4.9596 l -0.0238,9.5376 h -8.1785 l -0.0238,-9.2753 c 0.009,-4.7397 2.816,-5.3172 4.1488,-5.2218 z"
                 style="stroke-width:3.01018596" />
            </g>
            <g
               id="g1787"
               transform="matrix(-0.79691,0.14505,0.14505,0.79691,-376.65,523.9)"
               style="stroke-width:3.01018596">
              <path
                 id="path1783"
                 d="m -177.24,370.12 c 1.8958,-0.029 4.2204,1.068 4.0773,4.9596 l -0.0238,9.5376 h -8.1785 l -0.0237,-9.2753 c 0.009,-4.7397 2.8159,-5.3172 4.1488,-5.2218 z"
                 style="stroke-width:3.01018596" />
              <path
                 id="path1785"
                 d="m -155.67,370.27 c 1.8958,-0.029 4.2204,1.068 4.0773,4.9596 l -0.0238,9.5376 h -8.1785 l -0.0238,-9.2753 c 0.009,-4.7397 2.816,-5.3172 4.1488,-5.2218 z"
                 style="stroke-width:3.01018596" />
            </g>
          </g>
          <path
             id="path1791"
             d="m -289.11,809.28 c -1.4433,0.52508 -2.8861,2.0261 -1.6549,4.9302 l 2.77,7.2118 6.19,-2.3598 -2.6584,-7.027 c -1.3744,-3.5847 -3.6655,-3.2119 -4.6468,-2.7551 z"
             style="stroke-width:2.43825054" />
          <path
             id="path1793"
             d="m -88.707,809.44 c 1.4203,0.58436 2.7998,2.1438 1.4494,4.9945 l -3.0661,7.091 -6.087,-2.614 2.9469,-6.911 c 1.5216,-3.5248 3.7953,-3.0574 4.7569,-2.5604 z"
             style="stroke-width:2.43825054" />
          <g
             id="g1799"
             transform="matrix(-0.81,-8.6371e-4,-8.6371e-4,0.81,-323.56,491.08)"
             style="stroke-width:3.01018596">
            <path
               id="path1795"
               d="m -177.11,370.83 c 1.8958,-0.029 4.2204,1.068 4.0773,4.9596 l -0.0238,9.5376 h -8.1785 l -0.0237,-9.2753 c 0.009,-4.7397 2.8159,-5.3172 4.1488,-5.2218 z"
               style="stroke-width:3.01018596" />
            <path
               id="path1797"
               d="m -155.51,370.8 c 1.8958,-0.029 4.2204,1.068 4.0773,4.9596 l -0.0238,9.5376 h -8.1785 l -0.0238,-9.2753 c 0.009,-4.7397 2.816,-5.3172 4.1488,-5.2218 z"
               style="stroke-width:3.01018596" />
          </g>
        </g>
      </g>
      <path
         id="path1805"
         d="m 103.73,109.55 c 1.959,-0.83944 3.918,-1.6788 6.5813,-2.4826 2.6633,-0.8038 6.0308,-1.5718 9.4095,-1.9211 3.3787,-0.34925 6.7682,-0.27968 10.102,0.11749 3.3342,0.39717 6.6125,1.1218 9.2049,1.8798 2.5924,0.75793 4.4984,1.549 6.4042,2.34"
         style="fill:none;stroke:#808080;stroke-width:0.70827901" />
    </g>
    <path
       id="path1809"
       stop-color="#000000"
       d="m 119.46,203.15 c -14.981,-1.3645 -29.233,-7.5952 -39.826,-17.411 l -2.0069,-1.8598 -4.4076,1.4219 c -2.4242,0.78205 -4.4417,1.3366 -4.4834,1.2324 -0.0417,-0.10419 -3.3136,-5.7821 -7.271,-12.617 l -7.1952,-12.428 2.1929,-2.0037 c 1.2061,-1.102 2.7035,-2.4851 3.3275,-3.0736 l 1.1346,-1.0699 -0.52683,-2.0045 c -2.0741,-7.8916 -2.4996,-18.433 -1.0824,-26.816 3.2674,-19.327 14.64,-35.908 31.549,-45.996 4.3075,-2.57 8.1163,-4.2949 13.131,-5.9464 l 3.9128,-1.2886 0.58645,-2.6727 c 0.32255,-1.47 0.76639,-3.4845 0.9863,-4.4768 l 0.39985,-1.8041 h 14.527 c 13.607,0 14.535,0.02962 14.658,0.46772 0.0721,0.25725 0.51906,2.283 0.99321,4.5017 l 0.86209,4.034 2.0316,0.59738 c 10.693,3.1443 21.084,9.44 28.762,17.427 9.479,9.8597 15.352,21.452 17.814,35.157 0.54232,3.0196 0.61648,4.2931 0.61994,10.646 0.004,7.7236 -0.22081,9.8925 -1.6285,15.697 l -0.66549,2.7443 1.1496,1.0691 c 0.63226,0.58799 2.1992,2.0312 3.482,3.2072 l 2.3325,2.1382 -14.542,25.171 -2.813,-0.89417 c -1.5472,-0.49179 -3.6801,-1.151 -4.7399,-1.465 l -1.9269,-0.57081 -2.0821,1.8518 c -6.4279,5.7167 -12.985,9.7551 -20.801,12.811 -3.6889,1.4424 -10.03,3.091 -14.289,3.7153 -2.9406,0.43096 -11.603,0.7419 -14.165,0.50849 z m 14.032,-7.4341 c 8.348,-1.3288 16.584,-4.4716 23.418,-8.9362 2.7191,-1.7763 6.1765,-4.4097 6.3222,-4.8154 0.0405,-0.1128 -1.0776,-0.54508 -2.4847,-0.96062 l -2.5584,-0.75551 -0.85616,0.6424 c -5.2941,3.9723 -12.424,7.4339 -18.971,9.2098 -5.9016,1.6009 -14.447,2.2042 -20.506,1.4476 -8.9341,-1.1156 -17.883,-4.627 -25.299,-9.9271 -1.1989,-0.85681 -2.3414,-1.5554 -2.5391,-1.5524 -0.19762,0.003 -1.4243,0.34008 -2.7259,0.7491 l -2.3666,0.74368 1.9342,1.5628 c 8.6925,7.0232 19.05,11.41 30.327,12.846 3.7472,0.47694 12.577,0.33952 16.304,-0.25372 z m -3.3339,-9.5199 c 6.8518,-0.85133 12.995,-2.8675 18.72,-6.1434 2.5474,-1.4578 6.2161,-4.0485 7.6416,-5.3963 l 0.84426,-0.79822 2.2294,0.66664 c 1.2261,0.36665 5.6996,1.7704 9.941,3.1193 4.2414,1.349 7.7516,2.4127 7.8005,2.3639 0.37637,-0.37637 9.7485,-16.906 9.6881,-17.087 -0.0775,-0.23242 -0.93387,-1.0237 -10.013,-9.2517 l -4.7932,-4.3438 0.47926,-2.3379 c 3.6072,-17.597 -3.1208,-36.526 -16.963,-47.725 -4.6676,-3.7764 -10.38,-6.9896 -15.096,-8.4915 -1.8162,-0.57843 -1.9584,-0.67982 -2.1961,-1.5667 -0.2369,-0.88399 -1.771,-7.8431 -3.4062,-15.451 l -0.70436,-3.2773 -19.815,0.14004 -0.8651,3.8754 c -0.47581,2.1315 -1.3547,6.1606 -1.953,8.9535 -1.5555,7.2607 -1.1821,6.5498 -3.9303,7.4827 -5.0128,1.7017 -10.587,4.9079 -15.168,8.7242 -6.7013,5.5831 -12.045,13.451 -14.842,21.854 -2.661,7.9939 -3.2625,15.975 -1.8365,24.371 0.53622,3.1572 0.53816,3.2713 0.06325,3.7257 -0.26945,0.25783 -1.8776,1.7144 -3.5738,3.2369 -5.1776,4.6475 -10.275,9.3614 -10.357,9.5777 -0.06064,0.15984 9.3401,16.697 9.7021,17.067 0.04826,0.0494 4.327,-1.2537 9.5083,-2.8958 10.572,-3.3504 9.5171,-3.2594 12.138,-1.0475 6.1344,5.1773 15.263,9.2303 23.386,10.383 1.1025,0.15643 2.3052,0.32855 2.6727,0.3825 1.5239,0.22369 8.596,0.15063 10.698,-0.11052 z m 53.351,-41.413 c 0.61376,-4.1704 0.60688,-12.151 -0.014,-16.303 -1.86,-12.44 -7.0749,-23.354 -15.544,-32.531 -4.5313,-4.9099 -11.117,-9.7631 -17.336,-12.776 -3.6556,-1.7709 -8.1692,-3.4817 -8.1692,-3.0965 0,0.35305 1.2839,5.9438 1.3892,6.049 0.0518,0.05177 1.1134,0.52913 2.3592,1.0608 14.989,6.3967 26.748,20.048 30.969,35.952 1.7577,6.6234 2.3036,13.86 1.5219,20.175 l -0.43013,3.4745 4.1478,3.8625 0.32723,-1.3967 c 0.17997,-0.76819 0.53078,-2.7798 0.77956,-4.4703 z m -113.57,2.3546 c 0.56462,-0.60618 0.57942,-0.72881 0.28531,-2.3656 -0.49753,-2.7689 -0.40944,-12.714 0.14078,-15.892 1.9661,-11.355 6.7593,-21.055 14.406,-29.152 5.0378,-5.3344 11.727,-10.004 18.175,-12.687 1.1353,-0.4724 2.1232,-1.0541 2.1955,-1.2926 0.21651,-0.71491 1.2194,-5.3517 1.2194,-5.6378 0,-0.14592 -1.1726,0.15608 -2.6059,0.67111 -8.1523,2.9295 -16.795,8.6256 -22.78,15.013 -12.98,13.853 -18.748,33.481 -15.221,51.794 0.28308,1.47 0.51505,2.7147 0.51549,2.766 0.0012,0.13634 2.9719,-2.4683 3.6699,-3.2177 z"
       style="fill-rule:evenodd;stroke-width:3.13537002" />
  </g>
</svg>
