<?xml version="1.0" encoding="UTF-8"?>
<svg width="131.74" height="123.22" version="1.1" xmlns="http://www.w3.org/2000/svg" xmlns:cc="http://creativecommons.org/ns#" xmlns:dc="http://purl.org/dc/elements/1.1/" xmlns:rdf="http://www.w3.org/1999/02/22-rdf-syntax-ns#">
 <title>Site-ZH-25</title>
 <metadata>
  <rdf:RDF>
   <cc:Work rdf:about="">
    <dc:title>Site-ZH-25</dc:title>
   </cc:Work>
  </rdf:RDF>
 </metadata>
 <g transform="translate(-16.943 -828.05)">
  <g fill-rule="evenodd">
   <path transform="translate(16.943 828.05)" d="m60.375 122.86c-10.652-1.0914-20.686-5.0117-29.571-11.553l-1.5711-1.1567-2.3664 0.86109c-1.3015 0.4736-3.4486 1.2548-4.7712 1.7361-1.3227 0.48125-2.5536 0.875-2.7355 0.875-0.3816 0-0.17029 0.35321-10.975-18.345l-8.217-14.22 1.9787-1.9067c1.0883-1.0487 2.9152-2.7873 4.06-3.8635l2.0813-1.9568-0.30488-3.2919c-1.5433-16.664 4.9467-34.2 17.132-46.292 4.4561-4.4216 9.4593-7.9266 15.635-10.953 2.2688-1.1118 4.193-2.1199 4.2762-2.2403 0.083172-0.12042 0.51434-2.32 0.95816-4.8879s0.86147-4.8658 0.92813-5.1064c0.11406-0.41176 1.238-0.4375 19.104-0.4375 10.441 0 18.983 0.045932 18.983 0.10207 0 0.16068 1.9962 8.9203 2.2616 9.9244 0.22201 0.83985 0.41354 0.98254 2.8009 2.0866 17.153 7.9327 29.344 23.543 32.905 42.137 1.0315 5.3849 1.2463 11.661 0.62519 18.269l-0.15456 1.6444 3.9683 3.3361c2.1826 1.8348 4.0135 3.3713 4.0687 3.4143 0.11214 0.08741-0.14813 0.54412-11.055 19.398-4.2754 7.3906-7.8911 13.438-8.035 13.438s-2.4362-0.675-5.094-1.5-4.9834-1.5-5.1681-1.5-1.8911 1.0407-3.792 2.3128c-7.2058 4.8218-15.373 7.9792-24.081 9.3098-3.1636 0.4834-10.766 0.68325-13.875 0.36472zm11.882-3.2437c9.8214-1.1888 19.494-5.0945 27.263-11.009l2.0346-1.5488 4.7854 1.4404c2.632 0.79224 4.887 1.4535 5.0112 1.4694s0.53185-0.42106 0.9059-0.97106c1.5622-2.297 15.489-26.679 15.359-26.889-0.078-0.12613-1.8235-1.647-3.8789-3.3797-2.0555-1.7327-3.7336-3.281-3.7293-3.4407 4e-3 -0.15967 0.17092-1.4153 0.37014-2.7903 0.5405-3.7305 0.48419-11.221-0.11497-15.294-0.89264-6.0672-2.2706-10.575-4.9057-16.049-2.7197-5.6492-5.6047-9.7553-10.098-14.372-5.5363-5.6881-11.169-9.5348-18.385-12.556-1.2375-0.51807-2.2889-0.97078-2.3365-1.006-0.047564-0.035239-0.58322-2.1812-1.1903-4.7688-0.60712-2.5876-1.1664-4.9018-1.2429-5.1427-0.13054-0.41131-1.1177-0.43797-16.219-0.43797h-16.08l-0.51431 2.8125c-0.28287 1.5469-0.6962 3.8263-0.91851 5.0654l-0.4042 2.2529-2.1725 0.84873c-7.114 2.7793-13.781 7.2421-19.315 12.929-8.3655 8.5969-13.508 19.298-15.096 31.416-0.47245 3.6053-0.48358 10.867-0.02172 14.175l0.33165 2.375-1.1608 1.1169c-0.63842 0.61432-2.3779 2.2667-3.8654 3.6719-2.5381 2.3976-2.686 2.5906-2.4023 3.1331 1.5927 3.0451 15.654 27.035 15.901 27.13 0.17947 0.0689 2.3913-0.63028 4.9151-1.5536l4.5888-1.6789 2.4758 1.8699c5.9063 4.4609 12.22 7.6303 18.98 9.5281 2.0889 0.58638 6.8263 1.512 8.8704 1.7332 1.9663 0.21273 10.282 0.15728 12.257-0.0817z" stop-color="#000000" style="paint-order:stroke fill markers"/>
   <circle cx="82.816" cy="893.66" r="38.529" fill="#fff" stop-color="#000000" style="paint-order:stroke fill markers"/>
   <path d="m76.039 947.38c-9.9391-1.4022-18.604-4.9964-26.652-11.055l-2.6746-2.0136-4.7051 1.685c-2.7893 0.99894-4.7972 1.5917-4.9314 1.4558-0.24852-0.25163-14.482-24.785-15.259-26.302l-0.48245-0.94123 2.3478-2.242c1.2913-1.2331 2.9996-2.8658 3.7963-3.6281l1.4484-1.3861-0.36405-2.6655c-0.74689-5.4685-0.37009-13.345 0.916-19.148 1.1598-5.2334 3.9188-12.022 6.7648-16.645 6.1027-9.9134 15.295-17.662 26.341-22.204l2.5385-1.0437 1.8098-9.8806 31.815-0.1308 0.17725 0.7c0.09749 0.385 0.64275 2.6842 1.2117 5.1092l1.0344 4.4092 3.4028 1.4806c16.425 7.1468 28.354 21.885 31.863 39.368 1.2524 6.2394 1.4449 13.082 0.5346 19-0.29062 1.8895-0.3042 2.4748-0.0628 2.7036 0.16949 0.1606 1.9074 1.631 3.8621 3.2676s3.5301 3.0618 3.5009 3.1672c-0.0464 0.16757-13.81 23.985-15.283 26.447l-0.55886 0.93398-1.3183-0.39105c-0.72504-0.21509-2.9596-0.89079-4.9657-1.5016-2.0061-0.61077-3.7767-1.0318-3.9347-0.93567-0.15799 0.0962-1.3776 0.98485-2.7102 1.9749-6.7573 5.0204-14.911 8.4949-23.588 10.051-3.8568 0.69183-12.187 0.88107-15.875 0.36067zm-31.173-15.157c0.46041-0.44625 0.83711-0.97344 0.83711-1.1715 0-0.1981-0.90265-1.3138-2.0059-2.4793-1.1032-1.1655-2.8218-3.2046-3.819-4.5314l-1.8131-2.4123-1.1311 0.54954c-0.67622 0.32853-1.1311 0.72214-1.1311 0.97873 0 0.46673 1.6167 2.7692 3.6382 5.1813 1.4155 1.689 4.2751 4.6963 4.4657 4.6963 0.0672 0 0.49888-0.36511 0.95928-0.81136zm79.041-2.1528c3.7126-3.8879 6.5482-8.0166 8.9981-13.102 1.3564-2.8153 3.4242-8.3151 3.4242-9.1074 0-0.24403-1.0033-0.67795-2.0568-0.88956-0.6331-0.12716-0.68877-0.0424-1.336 2.0334-2.2462 7.2044-6.4626 14.287-11.433 19.206-1.0582 1.0471-1.9249 2.0427-1.9261 2.2124-1e-3 0.16967 0.35104 0.71071 0.78267 1.2023 0.96838 1.1029 1.0375 1.0726 3.5473-1.5556zm-37.763 1.4343c10.165-0.96394 19.206-5.5036 25.632-12.871 6.3815-7.3156 9.5755-15.914 9.5755-25.779 0-18.606-13.547-34.659-31.853-37.746-4.5254-0.7631-6.7566-0.84988-10.495-0.40822-5.2165 0.61622-8.9919 1.7075-13.346 3.8577-15.908 7.8558-24.427 25.849-20.418 43.125 3.7731 16.26 17.178 28.063 33.846 29.802 2.94 0.30669 3.9934 0.30951 7.0587 0.0188zm-37.73-3.103c0.97536-1.0834 0.95327-1.1483-1.1456-3.3656-1.116-1.179-2.6257-2.946-3.355-3.9266-0.72924-0.98067-1.4925-1.783-1.696-1.783-0.44844 0-1.8447 0.96197-1.8447 1.2709 0 0.78436 6.5477 8.3755 7.2243 8.3755 0.16657 0 0.53424-0.25703 0.81704-0.57117zm71.605-1.808c2.682-2.8234 5.1409-6.056 5.1409-6.7583 0-0.25338-1.4624-1.2677-1.8304-1.2696-0.0992-5.1e-4 -0.79308 0.82724-1.5419 1.8395-0.74883 1.0122-2.2955 2.8268-3.437 4.0325-1.1415 1.2056-2.0755 2.2846-2.0755 2.3977 0 0.32575 1.3324 1.6297 1.6653 1.6297 0.16555 0 1.101-0.84215 2.0787-1.8714zm-67.537-2.7477c0.46041-0.44625 0.83711-0.9087 0.83711-1.0277 0-0.11897-0.97093-1.3068-2.1576-2.6397-1.1867-1.3329-2.7874-3.3699-3.5572-4.5268-1.598-2.4017-3.9145-7.1502-4.585-9.3989-0.63448-2.1278-0.7405-2.2072-2.266-1.6952-1.1807 0.39624-1.2635 0.47869-1.1871 1.182 0.22602 2.0799 3.036 8.1057 5.5071 11.81 1.8617 2.7906 5.6183 7.1079 6.1846 7.1079 0.21282 0 0.76364-0.36512 1.2241-0.81136zm63.314-0.90216c2.5071-2.5974 4.5429-5.2692 4.5388-5.9566-2e-3 -0.31812-1.7612-1.4686-2.2458-1.4686-0.13376 0-0.65661 0.57542-1.1619 1.2787-0.50526 0.70328-1.7726 2.1725-2.8162 3.2648-1.0437 1.0924-1.8976 2.0829-1.8976 2.2011 0 0.24133 1.7983 2.1402 2.0268 2.1402 0.0808 0 0.78083-0.65684 1.5557-1.4597zm-81.656-5.4148c0.67879-0.30027 1.1408-0.65624 1.0708-0.82503-0.06773-0.16329-0.69764-1.6258-1.3998-3.25-0.70215-1.6242-1.4626-3.5926-1.6898-4.3743-0.22724-0.78167-0.51726-1.4856-0.6445-1.5642-0.3122-0.19295-2.3584 0.37185-2.5683 0.7089-0.38637 0.62048 3.3369 9.8327 3.9741 9.8327 0.03496 0 0.60084-0.23766 1.2575-0.52813zm4.8052-2.1407c0.50572-0.2113 0.91949-0.4303 0.91949-0.48666 0-0.12012-0.69056-1.726-1.5904-3.6985-0.35032-0.76791-0.9008-2.2244-1.2233-3.2366-0.54819-1.7208-0.63367-1.8404-1.3146-1.8404-0.93426 0-1.7103 0.41666-1.7103 0.91825 0 1.2888 3.1423 8.7282 3.6867 8.7282 0.17213 0 0.72673-0.17289 1.2325-0.38419zm89.103-0.18699c0.52464-0.82899 2.6145-6.2 2.9696-7.6321 0.35751-1.4416 0.20264-1.6834-1.1944-1.8645l-0.98269-0.12737-0.58447 1.9474c-0.32146 1.071-1.0295 2.9937-1.5734 4.2725-0.54389 1.2788-1.0234 2.478-1.0656 2.6648-0.0676 0.2994 1.3835 1.3104 1.8809 1.3104 0.10367 0 0.35116-0.25703 0.54997-0.57118zm-4.3441-3.9347c1.2004-2.5981 2.3248-6.0174 2.1385-6.5029-0.15713-0.40948-2.0525-1.0355-2.5533-0.84329-0.1618 0.0621-0.55766 1.0084-0.87968 2.103-0.32202 1.0945-0.97593 2.8351-1.4531 3.868-0.47721 1.0328-0.80448 1.98-0.72731 2.1049 0.17348 0.28069 1.9097 1.2112 2.2886 1.2265 0.15251 6e-3 0.68632-0.8741 1.1863-1.9562zm-48.043-58.861c4.5093-0.94585 9.6535-0.9407 14.32 0.0144 1.8043 0.36923 3.4161 0.61929 3.5818 0.55568 0.35071-0.13458 0.96407-2.3564 0.74733-2.7071-0.20557-0.33262-2.3577-0.91902-5.198-1.4164-3.1859-0.55783-9.4493-0.56472-12.693-0.014-2.6491 0.44983-4.9837 1.0835-5.1836 1.407-0.10984 0.17772 0.13696 1.4329 0.49316 2.5081 0.14203 0.42873 0.29452 0.41525 3.9317-0.34768zm-1.7781-6.1203c2.7462-0.65213 3.2682-0.69284 8.8832-0.69284s6.137 0.0407 8.8832 0.69284c1.6047 0.38106 3.1139 0.69284 3.3538 0.69284 0.5176 0 1.1518-1.9441 0.76147-2.3344-0.35978-0.35979-3.6481-1.1396-6.6847-1.5852-4.6824-0.68716-12.334-0.39644-16.242 0.61709-0.54335 0.14093-1.4582 0.37846-2.0329 0.52784l-1.045 0.27161 0.16581 1.0369c0.19378 1.2118 0.32127 1.4661 0.73513 1.4661 0.16723 0 1.617-0.31178 3.2217-0.69284zm-1.9916-4.74c3.9679-0.92162 6.805-1.2405 11.002-1.2366 4.2601 4e-3 6.8454 0.30066 10.844 1.2444 1.4963 0.35315 2.8245 0.57786 2.9516 0.49934 0.12704-0.0785 0.36545-0.67675 0.52979-1.3294 0.36414-1.4461 0.39491-1.4208-2.5747-2.1197-5.5598-1.3086-13.298-1.7413-18.478-1.0334-2.5458 0.34792-7.5612 1.4992-7.7315 1.7748-0.16294 0.26364 0.48955 2.8102 0.72005 2.8102 0.06181 0 1.2934-0.27432 2.7369-0.60959z" fill="#8ab6cb" stop-color="#000000" stroke="#8ab6cb" stroke-width="1.0154" style="paint-order:stroke fill markers"/>
   <path transform="translate(16.943 828.05)" d="m63.249 96.254c-6.6998-1.3366-11.571-6.3274-12.71-13.021-0.36988-2.1742-0.36908-2.5461 0.01027-4.776 0.58031-3.4111 1.9278-6.0645 4.2922-8.4521 3.0821-3.1123 6.2483-4.444 11.553-4.8593 3.5669-0.27928 5.515-0.86512 8.0003-2.4058 3.0511-1.8915 5.5212-5.0241 6.6296-8.4077 0.84208-2.5706 0.86378-7.2497 0.045609-9.8319-1.3886-4.3826-4.9836-8.3108-9.0705-9.9111-1.6158-0.63271-0.74439-0.56161 1.9439 0.1586 10.315 2.7635 18.506 10.529 21.828 20.695 1.9964 6.1092 1.9908 13.422-0.01479 19.432-2.7786 8.327-9.1447 15.389-17.105 18.974-5.1984 2.3416-11.1 3.2627-15.403 2.4043zm5.0067-10.941c0.65022-0.32887 1.425-1.0127 1.8655-1.6465 0.65839-0.9474 0.75334-1.2992 0.75334-2.791s-0.09496-1.8436-0.75334-2.791c-1.0815-1.5562-2.5738-2.2654-4.5295-2.1526-2.7555 0.15903-4.5921 2.0594-4.5921 4.7516 0 1.7059 0.40031 2.7874 1.4025 3.7891 1.5098 1.5091 3.8634 1.847 5.8537 0.84034z" stop-color="#000000" stroke="#2b2200" stroke-width=".5" style="paint-order:stroke fill markers"/>
   <path transform="translate(16.943 828.05)" d="m64.125 53.665c-1.1702-0.55792-2.2338-1.6254-2.6091-2.6186-0.62463-1.6532-0.07999-4.1284 1.145-5.2036 1.3595-1.1933 3.5288-1.5629 5.1635-0.87989 1.0296 0.43018 2.2854 1.855 2.6747 3.0345 1.1925 3.6133-2.9525 7.2988-6.3741 5.6675z" stop-color="#000000" stroke="#2b2200" stroke-width=".5" style="paint-order:stroke fill markers"/>
   <path transform="translate(16.943 828.05)" d="m52.019 12.958c-0.47214-1.7003-0.63954-1.5906 3.9472-2.5855 3.6474-0.79109 7.3281-1.0755 11.659-0.90085 4.1495 0.16731 5.0285 0.27865 9.308 1.1789 3.1994 0.67303 3.3975 0.80447 3.0569 2.0283-0.14212 0.51066-0.34633 0.98281-0.4538 1.0492-0.10747 0.06642-1.0314-0.09502-2.0532-0.35876-3.7952-0.97959-6.9493-1.3442-11.608-1.342-2.475 0.0012-5.4 0.14097-6.5 0.31057-1.9802 0.30532-6.0341 1.1723-6.7298 1.4393-0.25346 0.09726-0.43967-0.14622-0.62655-0.81922z" stop-color="#000000" style="paint-order:stroke fill markers"/>
   <path transform="translate(16.943 828.05)" d="m53.298 17.843c-0.15805-0.5754-0.14298-0.93357 0.04751-1.129 0.35457-0.36368 4.09-1.2099 7.0774-1.6033 4.7941-0.63132 13.413 0.02693 17.202 1.3138 0.89975 0.30558 0.99203 0.41412 0.92053 1.0827-0.04371 0.40866-0.1814 0.84697-0.30599 0.97402-0.13825 0.14098-1.1302 0.02476-2.5455-0.29823-3.9988-0.91256-6.5077-1.1306-11.318-0.98355-3.2458 0.09921-5.1631 0.28503-6.8758 0.66638-4.2085 0.93706-3.9374 0.93853-4.2015-0.02281z" stop-color="#000000" style="paint-order:stroke fill markers"/>
   <path transform="translate(16.943 828.05)" d="m55.041 24.452c-0.13584-0.25382-0.32293-0.86631-0.41575-1.3611l-0.16876-0.89959 2.2091-0.53546c3.2763-0.79414 5.3178-1.0207 9.2467-1.0262 3.6061-5e-3 8.1086 0.57964 10.212 1.3261 0.8672 0.30773 0.99014 0.44405 0.92574 1.0265-0.04084 0.36942-0.18347 0.95893-0.31696 1.31-0.19374 0.50956-0.35527 0.60484-0.80074 0.47226-3.2647-0.97157-5.4581-1.2425-10.058-1.2423-3.9646 1.8e-4 -5.1709 0.09154-7.2952 0.5525-1.3999 0.30376-2.7131 0.61671-2.9183 0.69546-0.21633 0.08301-0.47691-0.05074-0.62011-0.31831z" stop-color="#000000" style="paint-order:stroke fill markers"/>
   <path transform="translate(16.943 828.05)" d="m61.125 103.11c-8.4852-1.1501-16.138-4.9662-22.255-11.098-5.2559-5.2683-8.3443-10.684-10.13-17.762-4.1641-16.51 3.268-33.915 18.134-42.467 6.0533-3.4825 14.353-5.4963 20.888-5.0681 9.8619 0.64629 18.251 4.4097 25.13 11.274 5.5241 5.5118 8.957 11.866 10.656 19.725 0.79474 3.6751 0.78461 10.88-0.0206 14.662-1.7261 8.1064-4.8191 13.812-10.644 19.634-5.704 5.7012-11.731 8.9798-19.51 10.613-2.8932 0.60739-9.4443 0.86845-12.25 0.48816zm8.125-5.3671c7.1873-0.59608 14.052-3.7537 19.426-8.9353 4.3239-4.1692 6.8386-8.1222 8.6046-13.526 1.1135-3.4074 1.5497-6.3082 1.5459-10.281-0.006426-6.8194-1.788-12.671-5.5873-18.351-3.2521-4.8619-7.2137-8.2568-12.864-11.024-5.2849-2.588-10.516-3.7044-16.017-3.4177-11.736 0.61155-22.106 7.2822-27.472 17.672-2.4094 4.665-3.634 9.7225-3.6353 15.014-0.0015 5.7664 1.543 11.841 4.1189 16.2 4.9949 8.4527 12.671 14.102 21.755 16.011 2.7581 0.57962 6.3367 0.99608 7.5 0.8728 0.4125-0.04372 1.5938-0.14946 2.625-0.23499z" stop-color="#000000" style="paint-order:stroke fill markers"/>
   <path transform="translate(16.943 828.05)" d="m104.44 84.358c-0.51562-0.27221-0.9375-0.53293-0.9375-0.57937 0-0.04645 0.32546-0.80313 0.72325-1.6815s1.0298-2.5815 1.4045-3.7846c0.5127-1.6464 0.78838-2.1875 1.1144-2.1875 0.6358 0 2.0078 0.51588 2.0078 0.75494 0 0.87829-2.88 8.0093-3.2245 7.984-0.0828-0.0061-0.57236-0.23376-1.088-0.50597z" stop-color="#000000" style="paint-order:stroke fill markers"/>
   <path transform="translate(16.943 828.05)" d="m96.422 95.174c-0.36948-0.38565-0.67177-0.81358-0.67177-0.95096s0.40489-0.63747 0.89976-1.1113 1.6897-1.8459 2.6552-3.049c0.96547-1.2031 1.8692-2.1875 2.0082-2.1875 0.13907 0 0.63668 0.23722 1.1058 0.52716 0.84402 0.52163 0.84855 0.53408 0.4321 1.1875-1.0736 1.6845-5.1802 6.2853-5.6101 6.2853-0.08109 0-0.44973-0.31553-0.8192-0.70118z" stop-color="#000000" style="paint-order:stroke fill markers"/>
   <path transform="translate(16.943 828.05)" d="m100.19 99.508c-0.24062-0.33092-0.4375-0.67782-0.4375-0.77089s0.89038-1.1098 1.9786-2.2595c1.0882-1.1496 2.5662-2.8805 3.2844-3.8462 0.71817-0.96579 1.3573-1.756 1.4203-1.756 0.21402 0 1.5667 0.85709 1.5647 0.9914-0.0109 0.7139-6.4968 8.2668-7.0852 8.2507-0.15829-4e-3 -0.48468-0.2786-0.7253-0.60952z" stop-color="#000000" style="paint-order:stroke fill markers"/>
   <path transform="translate(16.943 828.05)" d="m109.48 86.961-0.64533-0.40066 0.97191-2.2544c0.53456-1.2399 1.2524-3.1097 1.5953-4.1552s0.66723-2.033 0.72087-2.1945c0.15336-0.46192 1.8776 0.15049 1.8776 0.66688 0 1.1965-3.1032 8.7565-3.5897 8.7452-0.1569-0.0037-0.57568-0.18695-0.93061-0.40732z" stop-color="#000000" style="paint-order:stroke fill markers"/>
   <path transform="translate(16.943 828.05)" d="m103.68 103.43c-0.37221-0.3885-0.67675-0.79753-0.67675-0.90894s0.90324-1.1568 2.0072-2.323c5.296-5.5948 8.9392-11.759 11.155-18.874 0.33-1.0596 0.69219-1.9835 0.80488-2.0531 0.3576-0.22101 2.033 0.36407 2.033 0.70995 0 1.0164-2.198 6.5812-3.9632 10.034-2.3264 4.5503-5.5365 9.0349-8.7175 12.179l-1.9658 1.9427z" stop-color="#000000" style="paint-order:stroke fill markers"/>
   <path transform="translate(16.943 828.05)" d="m32.468 94.438c-2.4871-2.6072-4.6517-5.6641-6.439-9.0936-1.3078-2.5093-3.2791-7.2794-3.2791-7.9344 0-0.21139 2.2493-1.1245 2.3925-0.97119 0.03174 0.03397 0.35362 0.94633 0.7153 2.0275 1.6791 5.019 4.4055 9.6919 8.0304 13.763 1.3134 1.4751 2.0704 2.5208 1.9627 2.7112-0.27987 0.49467-1.1719 1.4348-1.3613 1.4348-0.09529 0-1.005-0.87188-2.0215-1.9375z" stop-color="#000000" style="paint-order:stroke fill markers"/>
   <path transform="translate(16.943 828.05)" d="m19.511 84.995c-0.96475-2.1998-2.2605-5.7173-2.2605-6.1364 0-0.09851 0.2708-0.24708 0.60178-0.33015s0.76923-0.21529 0.9739-0.29383c0.28305-0.10862 0.53669 0.35491 1.0596 1.9364 0.37812 1.1436 1.1211 3.0231 1.6511 4.1767 0.52999 1.1536 0.96361 2.1762 0.96361 2.2724 0 0.2155-1.1502 0.75517-1.6095 0.75517-0.18481 0-0.80578-1.0711-1.3799-2.3803z" stop-color="#000000" style="paint-order:stroke fill markers"/>
   <path transform="translate(16.943 828.05)" d="m30.064 100.2c-0.89182-0.77496-3.5852-3.8746-5.0257-5.7839l-1.3861-1.8371 0.61131-0.46984c0.92135-0.70812 1.2832-0.58325 2.1917 0.75636 0.4567 0.67343 1.8823 2.4017 3.1679 3.8405l2.3376 2.6161-0.69128 0.66229c-0.66959 0.64151-0.70741 0.64827-1.2054 0.21552z" stop-color="#000000" style="paint-order:stroke fill markers"/>
   <path transform="translate(16.943 828.05)" d="m24.352 101.87c-2.2349-2.5104-5.3531-6.4445-5.3494-6.7492 8.13e-4 -0.06875 0.44334-0.3773 0.98339-0.68566l0.98191-0.56066 1.7907 2.3825c0.9849 1.3104 2.6797 3.3216 3.7662 4.4694s1.9754 2.1913 1.9754 2.3189c0 0.24966-1.3051 1.5755-1.5508 1.5755-0.08167 0-1.2505-1.2378-2.5973-2.7508z" stop-color="#000000" style="paint-order:stroke fill markers"/>
   <path transform="translate(16.943 828.05)" d="m15.053 88.033c-0.76443-1.6003-1.5604-3.5615-2.5224-6.215-0.58214-1.6057-0.53198-1.696 1.1416-2.0551l0.79701-0.17104 0.52375 1.7587c0.28806 0.96726 1.0812 3.0197 1.7626 4.5611 0.68135 1.5413 1.212 2.8243 1.1792 2.851-0.23547 0.19215-1.7047 0.8622-1.8906 0.8622-0.12696 0-0.57298-0.71627-0.99115-1.5917z" stop-color="#000000" style="paint-order:stroke fill markers"/>
  </g>
  <g stroke="#fff" stroke-width=".99907" aria-label="25">
   <path d="m79.283 903.87c0.98686 0 1.4211-0.43422 1.4211-1.4211v-4.6185c0-0.98686-0.43422-1.4211-1.4211-1.4211h-11.25v-0.82896c0-0.86844 0.23685-0.94738 1.0263-1.1842l5.3685-1.6974c3.829-1.1842 6.158-3 6.158-6.987v-3.7106c0-4.2632-2.4474-6.5528-6.9475-6.5528h-11.645c-0.98686 0-1.4211 0.43422-1.4211 1.4211v4.6185c0 0.98686 0.43422 1.4211 1.4211 1.4211h8.5659c0.78949 0 1.0658 0.23685 1.0658 1.0263 0 0.86844-0.23685 1.1842-1.0658 1.4211l-5.2896 1.6579c-3.6316 1.1053-6.1975 2.5264-6.1975 8.6449v6.7896c0 0.98686 0.43422 1.4211 1.4211 1.4211z"/>
   <path d="m98.862 903.87c4.7369 0 7.6975-2.5264 7.6975-6.5528v-5.4869c0-4.1843-2.6448-6.2764-6.908-6.2764h-5.408v-2.5658h9.4739c0.98686 0 1.4211-0.43422 1.4211-1.4211v-4.6974c0-0.98686-0.43421-1.4211-1.4211-1.4211h-17.013c-0.98686 0-1.4211 0.43422-1.4211 1.4211v14.763c0 0.98686 0.43422 1.4211 1.4211 1.4211h9.7897c0.63159 0 1.0658 0.27632 1.0658 0.90791v1.5395c0 0.63159-0.43422 0.90791-1.0658 0.90791h-10.184c-0.98686 0-1.4211 0.43422-1.4211 1.4211v4.6185c0 0.98686 0.43422 1.4211 1.4211 1.4211z"/>
  </g>
 </g>
</svg>
