<?xml version="1.0" encoding="UTF-8"?>
<svg width="133.1mm" height="133.1mm" version="1.1" viewBox="0 0 133.1 133.1" xmlns="http://www.w3.org/2000/svg">
 <title>Site-CN-51</title>
 <g transform="rotate(75 141 64.223)">
  <g fill="#fff" fill-rule="evenodd">
   <g transform="rotate(-75 123.98 136.74)" fill-opacity=".99216" stroke-width="5.3993">
    <path transform="matrix(.26458 0 0 .26458 57.427 70.189)" d="m225.71 459.26c-43.865-6.0884-84.333-25.036-116.19-54.403-9.1404-8.4252-10.776-10.552-8.9144-11.593 1.7382-0.97277 4.7683 0.97876 12.765 8.2212 30.82 27.914 66.482 45.225 105.89 51.405 19.138 3.0008 56.728 2.2602 73.592-1.45 36.423-8.013 68.678-24.753 94.504-49.047 8.9563-8.4247 11.722-10.278 14.175-9.4991 2.8981 0.91981 2.777 1.2496-2.4586 6.6969-9.413 9.7937-27.708 23.926-41.177 31.808-21.703 12.7-43.491 20.953-68.007 25.758-14.071 2.7581-50.792 3.9614-64.18 2.1032z"/>
    <path transform="matrix(.26458 0 0 .26458 57.427 70.189)" d="m447.25 312.99c-1.2871-1.5509-1.0195-4.5676 1.1724-13.214 6.5933-26.009 7.5603-61.935 2.3395-86.919-16.022-76.671-70.564-135.23-145.3-156.01-7.107-1.9759-8.3206-2.8001-8.3206-5.6506 0-4.3687 1.2883-4.2654 18.945 1.5185 52.673 17.254 97.837 56.125 122.72 105.62 7.6975 15.31 16.162 41.414 19.07 58.808 4.4933 26.884 2.6178 63.862-4.5465 89.643-2.3854 8.584-3.3174 9.5349-6.0814 6.2046z"/>
    <path transform="matrix(.26458 0 0 .26458 57.427 70.189)" d="m48.851 303.21c-5.142-20.694-6.4015-34.082-5.587-59.392 0.59261-18.416 1.5789-27.262 4.346-38.981 16.976-71.892 69.498-129.31 139.16-152.13 17.674-5.7896 18.945-5.89 18.945-1.4963 0 2.9419-1.1984 3.6779-9.6429 5.9221-62.528 16.618-115.36 66.241-136.7 128.39-12.343 35.955-14.252 79.561-5.0496 115.34 1.9428 7.5529 2.2594 10.943 1.1472 12.283-2.7666 3.3336-3.6557 1.9996-6.6211-9.9348z"/>
   </g>
   <path d="m172.79 156.94c-4.6366 10.974-12.612 19.81-23.221 25.728-2.2016 1.2279-4.0284 2.3275-4.0595 2.4436-0.0311 0.1161 0.32136 1.6248 0.7832 3.3528 0.46189 1.7279 0.82514 3.1964 0.80725 3.2631-0.12762 0.47628-13.439 4.1826-14.246 3.9665-0.0894-0.024-0.57215-1.5248-1.0727-3.3354s-0.92101-3.3223-0.93443-3.3595c-0.0134-0.0372-1.6682 0.022-3.6773 0.13164-6.1603 0.33614-11.224-0.35017-18.173-2.463-4.7511-1.4446-6.8372-2.2804-9.5444-3.8243-11.272-6.4283-19.012-15.254-23.75-27.082-2.5611-6.3938-3.9831-15.578-3.4424-22.233l0.22563-2.7772-7.2052-1.9306 0.39401-2.4785c0.49815-3.1335 1.6598-7.4651 2.6931-10.042l0.79912-1.993 3.6717 0.98382c3.3393 0.89477 3.6897 0.9167 3.8704 0.24229 0.41851-1.5619 4.2596-7.8471 6.6234-10.838 9.4332-11.935 23.362-19.145 38.565-19.96 10.52-0.56457 21.838 2.4554 30.75 8.2052 1.8097 1.1675 3.3263 2.0925 3.3701 2.0556 0.0437-0.03693 1.1623-1.1486 2.4857-2.4704 1.3234-1.3218 2.4909-2.3805 2.5946-2.3527 0.58216 0.15599 5.4762 4.8271 7.7631 7.4095l2.665 3.0094-4.9245 5.1976 2.2714 3.7107c5.4078 8.8346 8.1456 19.16 7.7852 29.365-0.17775 5.041-2.0427 13.756-3.8679 18.076z" style="paint-order:stroke fill markers"/>
   <g transform="rotate(-75 123.98 136.74)">
    <path transform="matrix(.26458 0 0 .26458 57.427 70.189)" d="m50.054 307.59c-5.3927-18.159-7.1057-31.761-7.0728-56.164 0.03617-26.881 2.0183-40.256 9.4132-63.52 10.294-32.383 26.231-58.143 51.799-83.724 25.935-25.948 50.557-41.143 84.038-51.863 16.763-5.3669 18.197-5.46 18.197-1.1799 0 2.9353-1.4818 3.7017-13.912 7.1955-28.433 7.9917-57.39 24.621-80.1 45.998-53.428 50.295-75.885 125.41-58.321 195.08 3.0888 12.252 3.1242 12.963 0.70945 14.255-2.1923 1.1733-2.845 0.33773-4.7518-6.0829z" style="paint-order:stroke fill markers"/>
    <path transform="matrix(.26458 0 0 .26458 57.427 70.189)" d="m447.66 313.49c-2.0593-1.1525-1.9604-2.5959 1.0243-14.942 21.983-90.932-21.986-185.35-105.96-227.53-11.27-5.661-27.293-11.687-38.799-14.591-5.1478-1.2994-6.0714-2.0848-6.0714-5.1624 0-3.3505 0.35739-3.552 4.6429-2.6178 36.573 7.9722 79.524 34.289 106.28 65.122 44.961 51.807 61.742 120.07 46.044 187.29-1.6037 6.8681-3.3595 12.762-3.9017 13.097-0.54223 0.33511-2.0116 0.0353-3.2654-0.66642z" style="paint-order:stroke fill markers"/>
   </g>
  </g>
  <g transform="matrix(.20433 -.76257 .80174 .21482 -48.123 308.79)">
   <g fill="#37abc8">
    <path transform="matrix(.39142 -1.1458 1.2047 .3723 160.71 198.11)" d="m70.323 13.8-7.4576 2.4231-0.4005-1.2326-3.4146 13.01 7.1048-3.19e-4 0.37227 2.11e-4 0.046086-3.04e-4 0.37162-1.2e-4 7.105 1.72e-4 -3.7272-14.2z"/>
    <path transform="matrix(.32784 1.1637 -1.2235 .31182 393.59 -40.286)" d="m142.41 171.41 12.433 9.1302 1.6138-6.0228 3.7247 0.99803-6.1144-13.545-5.5214 4.4713-0.28912 0.23443-0.03609 0.02885-0.28835 0.23357-5.522 4.4717z"/>
    <path transform="matrix(.32784 1.1637 -1.2235 .31182 393.59 -40.286)" d="m157.28 115.92 2.5465 6.6331 0.13317 0.34759 0.01633 0.04289 0.1333 0.34709 2.546 6.6329 12.4-8.9117-4.6042-1.2337 1.4664-5.4727-14.637 1.6146z"/>
    <path transform="matrix(.32784 1.1637 -1.2235 .31182 393.59 -40.286)" d="m117.36 84.664-2.895 13.971 7.0953-0.37202 0.37162-0.019194 0.04604-0.002109 0.37111-0.019329 7.0953-0.37202-3.5815-11.218-0.07757 0.28951-8.4253-2.2575z"/>
    <path d="m263.41 78.503-5.9841 21.686h19l-5.9841-21.686z"/>
   </g>
   <path d="m263.1 125.66h-3.9252c-1.3406 0-2.3379-0.25501-2.9921-0.76504-0.64346-0.51002-0.9652-1.2955-0.9652-2.3563v-4.7586c0-1.0609 0.32174-1.8463 0.9652-2.3563 0.6542-0.52023 1.6516-0.78034 2.9921-0.78034h3.9252c0.20377 0 0.34855 0.0459 0.43434 0.13771 0.0965 0.0816 0.14478 0.21931 0.14478 0.41312v1.8514c0 0.19381-0.0483 0.33661-0.14478 0.42842-0.0857 0.0816-0.23057 0.12241-0.43434 0.12241h-3.2334c-0.33245 0-0.57912 0.0663-0.73999 0.19891-0.16086 0.1224-0.2413 0.31111-0.2413 0.56613v3.6416c0 0.25501 0.0804 0.44372 0.2413 0.56613 0.16087 0.11216 0.40754 0.16831 0.73999 0.16831h3.2334c0.20377 0 0.34855 0.0459 0.43434 0.13771 0.0965 0.0816 0.14478 0.2193 0.14478 0.41312v1.8208c0 0.19382-0.0483 0.33662-0.14478 0.42843-0.0857 0.0816-0.23057 0.12239-0.43434 0.1224zm7.9434 0h-2.413c-0.20376 0-0.35391-0.0408-0.45043-0.1224-0.0858-0.0918-0.12869-0.23461-0.12869-0.42843v-9.915c0-0.19381 0.0429-0.33152 0.12869-0.41312 0.0965-0.0918 0.24667-0.13771 0.45043-0.13771h1.673c0.20377 0 0.37536 0.0306 0.51477 0.0918 0.15015 0.0612 0.29493 0.16831 0.43434 0.32132l3.1208 3.3968v-3.2591c0-0.19381 0.0429-0.33152 0.12869-0.41312 0.0965-0.0918 0.24667-0.13771 0.45043-0.13771h2.413c0.20377 0 0.34855 0.0459 0.43434 0.13771 0.0965 0.0816 0.14478 0.21931 0.14478 0.41312v9.915c0 0.19382-0.0483 0.33662-0.14478 0.42843-0.0858 0.0816-0.23057 0.1224-0.43434 0.1224h-2.413c-0.20376 0-0.35391-0.0408-0.45043-0.1224-0.0858-0.0918-0.12869-0.23461-0.12869-0.42843v-1.882l-2.7508-3.1673v5.0493c0 0.19382-0.0483 0.33662-0.14478 0.42843-0.0858 0.0816-0.23057 0.1224-0.43434 0.1224z" stroke="#fff" stroke-width="1.853" style="paint-order:stroke fill markers;white-space:pre" aria-label="CN"/>
  </g>
  <path d="m85.343 126.39a40 40 0 0 0 28.284 48.99 40 40 0 0 0 48.99-28.284 40 40 0 0 0-28.284-48.99 40 40 0 0 0-48.99 28.284zm3.864 1.0354a36 36 0 0 1 44.091-25.456 36 36 0 0 1 25.456 44.091 36 36 0 0 1-44.091 25.456 36 36 0 0 1-25.456-44.091z" fill="#37abc8"/>
  <path d="m93.071 128.46a32 32 15 0 0 22.627 39.192 32 32 15 0 0 39.192-22.627 32 32 15 0 0-22.627-39.192 32 32 15 0 0-39.192 22.627zm3.0912 0.82827a28.8 28.8 15 0 1 35.272-20.365 28.8 28.8 15 0 1 20.365 35.272 28.8 28.8 15 0 1-35.272 20.365 28.8 28.8 15 0 1-20.365-35.272z" fill="#37abc8"/>
  <g transform="rotate(-75 123.98 136.74)">
   <path d="m115.17 150.96h-12.564q-0.75071 0-1.1063-0.31609-0.31608-0.3556-0.31608-1.1063v-4.6228q0-0.75071 0.31608-1.0668 0.3556-0.3556 1.1063-0.3556h10.194q0.47413 0 0.75071-0.19756 0.31608-0.23706 0.31608-0.7112v-1.5409q0-0.47414-0.31608-0.67169-0.27658-0.23707-0.75071-0.23707h-9.7987q-0.75071 0-1.1063-0.31609-0.31608-0.35559-0.31608-1.1063v-14.777q0-0.75071 0.31608-1.0668 0.3556-0.3556 1.1063-0.3556h17.029q0.75071 0 1.0668 0.3556 0.3556 0.31608 0.3556 1.0668v4.7018q0 0.75071-0.3556 1.1063-0.31609 0.31609-1.0668 0.31609h-9.4826v2.5682h5.413q3.2004 0 5.0574 1.5804 1.857 1.5804 1.857 4.7018v5.492q0 3.0028-2.0941 4.7808-2.0546 1.778-5.6106 1.778zm30.186 0h-17.464q-0.75071 0-1.1063-0.31609-0.31609-0.3556-0.31609-1.1063v-4.7808q0-0.75071 0.31609-1.0668 0.35559-0.3556 1.1063-0.3556h4.4252v-13.197h-3.635q-0.75071 0-1.1063-0.31609-0.31609-0.3556-0.31609-1.1063v-4.7808q0-0.75071 0.31609-1.0668 0.35559-0.3556 1.1063-0.3556h11.458q0.75071 0 1.0668 0.3556 0.3556 0.31608 0.3556 1.0668v19.4h3.7931q0.75071 0 1.0668 0.3556 0.3556 0.31609 0.3556 1.0668v4.7808q0 0.75071-0.3556 1.1063-0.31608 0.31609-1.0668 0.31609z" stroke="#fff" stroke-width="1.5" aria-label="51"/>
  </g>
  <path d="m59.699 119.51c-9.4958 35.439 11.618 72.01 47.057 81.506 35.439 9.4958 72.01-11.618 81.506-47.057s-11.618-72.01-47.057-81.506-72.01 11.618-81.506 47.057zm10.617 2.8449c0.63374-2.3652 1.411-4.6519 2.3175-6.8561l6.6982 1.7948 0.84537-1.7514c2.2495-4.662 5.2095-8.9051 8.8213-12.644l-0.0025-6.7e-4c3.845-3.9796 8.3121-7.2602 13.275-9.7524 5.2451-2.6334 10.837-4.2871 16.636-4.9164l3e-3 7.76e-4 7.8e-4 -0.0029c6.0088-0.6544 12.031-0.18732 17.928 1.3928 5.4045 1.4481 10.435 3.762 14.986 6.8804l1.6056 1.0995 4.7306-4.7067c3.8448 2.9929 7.246 6.4615 10.144 10.291l-4.7 4.6801 1.081 1.61c3.5281 5.2431 6.0759 11.24 7.3606 17.372l2e-3 4e-3c0.77233 3.672 1.1156 7.4333 1.0178 11.174-0.0997 3.8533-0.65447 7.7157-1.6618 11.475-1.006 3.7543-2.4518 7.3772-4.2887 10.754l-7.7e-4 3e-3c-1.7853 3.2876-3.9606 6.3673-6.4612 9.165-4.1708 4.6638-9.3638 8.5871-15.03 11.358l-1.7428 0.85174 1.7109 6.3214c-4.4249 1.8681-9.1043 3.1706-13.931 3.8401l-1.7182-6.3539-1.9439 0.15482c-5.5152 0.43438-11.049-0.0776-16.466-1.5291-5.9042-1.582-11.36-4.1899-16.241-7.7687l6.73e-4 -3e-3 -0.0029-7.8e-4c-4.7185-3.4544-8.7339-7.6874-11.963-12.606-3.0547-4.6534-5.2726-9.7317-6.6102-15.115-1.2505-5.0472-1.6807-10.213-1.2881-15.387l0.14599-1.9425-6.6812-1.7902c0.31705-2.3621 0.78744-4.7317 1.4212-7.0969zm-1.8497 11.847 2.2846 0.61216c-0.19322 5.0056 0.19629 10.004 1.4058 14.887l0.0018 3e-3c1.4638 5.8932 3.8977 11.469 7.2413 16.562 3.5317 5.3791 7.9459 10.034 13.116 13.819 5.3493 3.922 11.346 6.791 17.8 8.5204 5.2753 1.4135 10.674 1.881 16.063 1.659l0.53398 1.9744c-5.6823 0.29228-11.51-0.28513-17.313-1.8399-25.746-6.8986-42.351-30.648-41.134-56.196zm6.1713-23.032c11.721-22.733 37.976-34.999 63.721-28.1 5.8028 1.5549 11.139 3.9688 15.914 7.0633l-1.5202 1.5128c-4.5448-2.8711-9.4364-5.1548-14.698-6.5645-6.4476-1.7276-13.068-2.2419-19.652-1.5251l-3e-3 -7.76e-4c-6.3548 0.68987-12.501 2.5077-18.239 5.3885-5.4317 2.7273-10.333 6.3285-14.545 10.688-3.4931 3.6157-6.333 7.7369-8.6718 12.156zm94.891-2.573 1.4898-1.483c7.9491 12.626 10.803 28.405 6.625 43.999-4.1781 15.593-14.54 27.832-27.737 34.792l-0.50137-1.8506c5.5329-2.9619 10.594-6.8558 14.75-11.502l3e-3 7.7e-4c2.7392-3.0649 5.1256-6.4403 7.0876-10.053 2.0166-3.7078 3.5973-7.6749 4.6987-11.785 1.1037-4.1192 1.7097-8.3461 1.819-12.568 0.10735-4.1091-0.26925-8.2325-1.1164-12.262-1.2785-6.1033-3.8071-11.955-7.1166-17.286z" color="#000000" color-rendering="auto" dominant-baseline="auto" image-rendering="auto" shape-rendering="auto" solid-color="#000000" style="font-feature-settings:normal;font-variant-alternates:normal;font-variant-caps:normal;font-variant-ligatures:normal;font-variant-numeric:normal;font-variant-position:normal;isolation:auto;mix-blend-mode:normal;paint-order:markers stroke fill;shape-padding:0;text-decoration-color:#000000;text-decoration-line:none;text-decoration-style:solid;text-indent:0;text-orientation:mixed;text-transform:none;white-space:normal"/>
 </g>
</svg>
