<?xml version="1.0" encoding="UTF-8"?>
<svg width="133.1mm" height="133.1mm" version="1.1" viewBox="0 0 133.1 133.1" xmlns="http://www.w3.org/2000/svg">
 <title>Site-CN-21</title>
 <g transform="translate(-57.427 -70.189)">
  <g fill="#fff" fill-opacity=".99216" fill-rule="evenodd" stroke-width="5.3993">
   <path transform="matrix(.26458 0 0 .26458 57.427 70.189)" d="m225.71 459.26c-43.865-6.0884-84.333-25.036-116.19-54.403-9.1404-8.4252-10.776-10.552-8.9144-11.593 1.7382-0.97277 4.7683 0.97876 12.765 8.2212 30.82 27.914 66.482 45.225 105.89 51.405 19.138 3.0008 56.728 2.2602 73.592-1.45 36.423-8.013 68.678-24.753 94.504-49.047 8.9563-8.4247 11.722-10.278 14.175-9.4991 2.8981 0.91981 2.777 1.2496-2.4586 6.6969-9.413 9.7937-27.708 23.926-41.177 31.808-21.703 12.7-43.491 20.953-68.007 25.758-14.071 2.7581-50.792 3.9614-64.18 2.1032z"/>
   <path transform="matrix(.26458 0 0 .26458 57.427 70.189)" d="m447.25 312.99c-1.2871-1.5509-1.0195-4.5676 1.1724-13.214 6.5933-26.009 7.5603-61.935 2.3395-86.919-16.022-76.671-70.564-135.23-145.3-156.01-7.107-1.9759-8.3206-2.8001-8.3206-5.6506 0-4.3687 1.2883-4.2654 18.945 1.5185 52.673 17.254 97.837 56.125 122.72 105.62 7.6975 15.31 16.162 41.414 19.07 58.808 4.4933 26.884 2.6178 63.862-4.5465 89.643-2.3854 8.584-3.3174 9.5349-6.0814 6.2046z"/>
   <path transform="matrix(.26458 0 0 .26458 57.427 70.189)" d="m48.851 303.21c-5.142-20.694-6.4015-34.082-5.587-59.392 0.59261-18.416 1.5789-27.262 4.346-38.981 16.976-71.892 69.498-129.31 139.16-152.13 17.674-5.7896 18.945-5.89 18.945-1.4963 0 2.9419-1.1984 3.6779-9.6429 5.9221-62.528 16.618-115.36 66.241-136.7 128.39-12.343 35.955-14.252 79.561-5.0496 115.34 1.9428 7.5529 2.2594 10.943 1.1472 12.283-2.7666 3.3336-3.6557 1.9996-6.6211-9.9348z"/>
  </g>
  <path d="m117.1 189.11c-11.8-1.6384-22.399-7.0554-30.861-15.771-1.7559-1.8088-3.2908-3.2887-3.411-3.2887-0.1202 0-1.4863 0.73095-3.0359 1.6243-1.5495 0.89337-2.8739 1.6243-2.943 1.6243-0.49308 0-7.5185-11.899-7.5185-12.734 0-0.0926 1.3248-0.94731 2.9441-1.8994s2.9707-1.7495 3.0032-1.7721c0.0325-0.0226-0.453-1.6057-1.0789-3.5179-1.9191-5.8634-2.5667-10.932-2.3244-18.191 0.16565-4.9631 0.43311-7.1944 1.2237-10.209 3.2918-12.552 9.8138-22.312 20.012-29.95 5.5131-4.1287 14.016-7.8792 20.584-9.0793l2.741-0.50086v-7.4594l2.496-0.26089c3.1557-0.32984 7.6403-0.32887 10.397 0.0022l2.1319 0.25607v3.8012c0 3.4571 0.0695 3.8012 0.7677 3.8012 1.617 0 8.6822 2.0835 12.183 3.5926 13.97 6.0227 24.539 17.611 29.261 32.085 3.268 10.015 3.2802 21.729 0.0331 31.826-0.65932 2.0502-1.1603 3.7545-1.1133 3.7873 0.047 0.0327 1.4103 0.82545 3.0296 1.7616s2.9441 1.7899 2.9441 1.8973c0 0.6027-3.2453 6.5389-5.1478 9.4163l-2.2171 3.3531-6.295-3.4115-2.9964 3.1544c-7.1339 7.5101-16.399 12.827-26.349 15.12-4.9152 1.133-13.816 1.5872-18.461 0.94222z" fill="#ee1c25" fill-rule="evenodd" style="paint-order:stroke fill markers"/>
  <g fill="#ff0" fill-rule="evenodd">
   <g transform="translate(.00047527 .00019496)">
    <rect x="121.85" y="74.123" width="5.119" height="17.759" stroke-width=".6098"/>
    <path transform="matrix(.099889 0 0 .099889 171.77 83.428)" d="m-405.56 80.842-70.082 121.64-70.299-121.51 70.19-0.06271z" stroke-width="1.7575"/>
   </g>
   <g transform="rotate(121.16 47.715 189.57)">
    <rect x="-40.228" y="87.93" width="5.119" height="17.759" stroke-width=".6098"/>
    <path transform="matrix(.099889 0 0 .099889 9.6994 97.235)" d="m-405.56 80.842-70.082 121.64-70.299-121.51 70.19-0.06271z" stroke-width="1.7575"/>
   </g>
   <g transform="matrix(.51748 .8557 .8557 -.51748 14.313 247.06)">
    <rect x="-40.228" y="87.93" width="5.119" height="17.759" stroke-width=".6098"/>
    <path transform="matrix(.099889 0 0 .099889 9.6994 97.235)" d="m-405.56 80.842-70.082 121.64-70.299-121.51 70.19-0.06271z" stroke-width="1.7575"/>
   </g>
  </g>
  <g fill="none" stroke="#ff0" stroke-width="1.25">
   <path d="m138.35 173.08a9.375 9.375 0 0 1-9.375 9.375 9.375 9.375 0 0 1-9.375-9.375 9.375 9.375 0 0 1 9.375-9.375 9.375 9.375 0 0 1 9.375 9.375zm-10 0a9.375 9.375 0 0 1-9.375 9.375 9.375 9.375 0 0 1-9.375-9.375 9.375 9.375 0 0 1 9.375-9.375 9.375 9.375 0 0 1 9.375 9.375z"/>
   <path d="m148.26 106.12a9.375 9.375 60 0 1 12.806 3.4315 9.375 9.375 60 0 1-3.4315 12.806 9.375 9.375 60 0 1-12.806-3.4315 9.375 9.375 60 0 1 3.4315-12.806zm5 8.6602a9.375 9.375 60 0 1 12.806 3.4315 9.375 9.375 60 0 1-3.4315 12.806 9.375 9.375 60 0 1-12.806-3.4315 9.375 9.375 60 0 1 3.4315-12.806z"/>
   <path d="m85.318 131.02a9.375 9.375 30 0 1-3.4315-12.806 9.375 9.375 30 0 1 12.806-3.4315 9.375 9.375 30 0 1 3.4315 12.806 9.375 9.375 30 0 1-12.806 3.4315zm5-8.6602a9.375 9.375 30 0 1-3.4315-12.806 9.375 9.375 30 0 1 12.806-3.4315 9.375 9.375 30 0 1 3.4315 12.806 9.375 9.375 30 0 1-12.806 3.4315z"/>
  </g>
  <g fill="#fff" fill-rule="evenodd">
   <path transform="matrix(.26458 0 0 .26458 57.427 70.189)" d="m50.054 307.59c-5.3927-18.159-7.1057-31.761-7.0728-56.164 0.03617-26.881 2.0183-40.256 9.4132-63.52 10.294-32.383 26.231-58.143 51.799-83.724 25.935-25.948 50.557-41.143 84.038-51.863 16.763-5.3669 18.197-5.46 18.197-1.1799 0 2.9353-1.4818 3.7017-13.912 7.1955-28.433 7.9917-57.39 24.621-80.1 45.998-53.428 50.295-75.885 125.41-58.321 195.08 3.0888 12.252 3.1242 12.963 0.70945 14.255-2.1923 1.1733-2.845 0.33773-4.7518-6.0829z" style="paint-order:stroke fill markers"/>
   <path transform="matrix(.26458 0 0 .26458 57.427 70.189)" d="m447.66 313.49c-2.0593-1.1525-1.9604-2.5959 1.0243-14.942 21.983-90.932-21.986-185.35-105.96-227.53-11.27-5.661-27.293-11.687-38.799-14.591-5.1478-1.2994-6.0714-2.0848-6.0714-5.1624 0-3.3505 0.35739-3.552 4.6429-2.6178 36.573 7.9722 79.524 34.289 106.28 65.122 44.961 51.807 61.742 120.07 46.044 187.29-1.6037 6.8681-3.3595 12.762-3.9017 13.097-0.54223 0.33511-2.0116 0.0353-3.2654-0.66642z" style="paint-order:stroke fill markers"/>
  </g>
  <path d="m123.98 70.189c-36.689 0-66.549 29.86-66.549 66.549s29.86 66.549 66.549 66.549c36.689 0 66.549-29.86 66.549-66.549s-29.86-66.549-66.549-66.549zm0 10.992c2.4486 0 4.8586 0.15894 7.2223 0.46405v6.9345l1.9105 0.36327c5.0854 0.96618 9.95 2.7272 14.496 5.2483v-0.0026c4.8392 2.684 9.1641 6.1498 12.856 10.299 3.9012 4.3848 6.9459 9.3584 9.0547 14.797v3e-3h3e-3c2.1873 5.6347 3.2949 11.573 3.2949 17.678 0 5.5952-0.93308 11.053-2.7673 16.256l-0.64648 1.8355 5.7707 3.3512c-1.8958 4.4884-4.3659 8.6714-7.3153 12.462l-5.7371-3.3285-1.2754 1.4609c-4.1513 4.7649-9.2848 8.7781-14.875 11.606l-3e-3 3e-3c-3.347 1.6964-6.8913 3.0015-10.53 3.8752-3.7478 0.90103-7.6222 1.3648-11.514 1.3648-3.8867 0-7.7604-0.45892-11.498-1.3591h-3e-3c-3.6376-0.87357-7.1754-2.1777-10.525-3.869-5.5844-2.8216-10.718-6.8222-14.861-11.578l-1.2738-1.463-5.6632 3.2887c-2.9497-3.7906-5.4189-7.9735-7.3147-12.462l5.6927-3.3042-0.65267-1.8376c-1.847-5.2148-2.7848-10.693-2.7848-16.301 0-6.1125 1.107-12.057 3.3006-17.698h0.0026v-3e-3c2.1154-5.4518 5.165-10.426 9.08-14.818 3.7042-4.155 8.0354-7.6117 12.889-10.297 4.5516-2.5142 9.4298-4.2667 14.529-5.2266l1.9141-0.36174v-6.9169c2.3637-0.30512 4.7743-0.46405 7.2229-0.46405zm-11.922 1.2795v2.3652c-4.885 1.1089-9.6126 2.7789-14.016 5.211l-0.0026 0.0026c-5.3135 2.9392-10.069 6.7332-14.123 11.281-4.2817 4.8036-7.6352 10.272-9.9534 16.246-2.4039 6.1821-3.623 12.717-3.623 19.399 0 5.4614 0.94575 10.797 2.5549 15.945l-1.7689 1.0268c-1.753-5.413-2.7037-11.192-2.7037-17.199 0-26.654 18.643-48.84 43.635-54.277zm23.844 0c24.992 5.4374 43.635 27.624 43.635 54.277 0 6.0075-0.95046 11.787-2.7037 17.2l-1.8547-1.0769c1.597-5.133 2.5368-10.449 2.5368-15.896 0-6.675-1.2167-13.203-3.6132-19.377v-3e-3c-2.3111-5.9597-5.6577-11.426-9.9255-16.223-4.0402-4.5407-8.7872-8.3429-14.088-11.283-4.3966-2.4383-9.1124-4.1147-13.986-5.2302zm27.045 90.992 1.818 1.0552c-10.138 10.946-24.641 17.787-40.785 17.787-16.143 0-30.647-6.841-40.785-17.787l1.6578-0.96327c4.293 4.5778 9.3641 8.4585 14.928 11.27v3e-3c3.6694 1.8526 7.5475 3.2841 11.545 4.2442 4.1034 0.98827 8.3444 1.4883 12.6 1.4883 4.2645 0 8.5042-0.50866 12.611-1.496 3.9969-0.95983 7.8823-2.3908 11.555-4.2519 5.5644-2.8146 10.562-6.7715 14.855-11.348z" color="#000000" color-rendering="auto" dominant-baseline="auto" image-rendering="auto" shape-rendering="auto" solid-color="#000000" style="font-feature-settings:normal;font-variant-alternates:normal;font-variant-caps:normal;font-variant-ligatures:normal;font-variant-numeric:normal;font-variant-position:normal;isolation:auto;mix-blend-mode:normal;paint-order:markers stroke fill;shape-padding:0;text-decoration-color:#000000;text-decoration-line:none;text-decoration-style:solid;text-indent:0;text-orientation:mixed;text-transform:none;white-space:normal"/>
  <path d="m121.27 150.96h-18.807q-0.75071 0-1.1063-0.31609-0.31608-0.3556-0.31608-1.1063v-6.7959q0-2.2916 0.43462-3.7535 0.47413-1.5014 1.3039-2.4497 0.82973-0.94827 1.9756-1.5014 1.1458-0.55316 2.4892-0.94827l5.2945-1.6595q0.63217-0.15804 0.82973-0.47413 0.23707-0.31609 0.23707-0.94826 0-0.59267-0.23707-0.79022-0.23707-0.23707-0.82973-0.23707h-8.5739q-0.75071 0-1.1063-0.31609-0.31609-0.3556-0.31609-1.1063v-4.6228q0-0.75071 0.31609-1.0668 0.3556-0.3556 1.1063-0.3556h11.656q3.3584 0 5.1364 1.699 1.8175 1.6595 1.8175 4.8599v3.714q0 2.9633-1.6595 4.5438t-4.5042 2.4497l-5.3735 1.699q-0.59266 0.15804-0.82973 0.3556-0.19756 0.19755-0.19756 0.82973v0.82973h11.261q0.75071 0 1.0668 0.3556 0.3556 0.31609 0.3556 1.0668v4.6228q0 0.7507-0.3556 1.1063-0.31609 0.31609-1.0668 0.31609zm24.22 0h-17.464q-0.75071 0-1.1063-0.31609-0.31609-0.3556-0.31609-1.1063v-4.7808q0-0.75071 0.31609-1.0668 0.3556-0.3556 1.1063-0.3556h4.4252v-13.197h-3.635q-0.75071 0-1.1063-0.31608-0.31609-0.3556-0.31609-1.1063v-4.7808q0-0.75071 0.31609-1.0668 0.3556-0.3556 1.1063-0.3556h11.458q0.75071 0 1.0668 0.3556 0.3556 0.31609 0.3556 1.0668v19.4h3.793q0.75071 0 1.0668 0.3556 0.3556 0.31608 0.3556 1.0668v4.7808q0 0.7507-0.3556 1.1063-0.31609 0.31609-1.0668 0.31609z" stroke="#fff" stroke-width="1.5" aria-label="21"/>
  <path d="m121.06 119.35h-3.0988c-1.0583 0-1.8457-0.21167-2.3622-0.635-0.508-0.42333-0.762-1.0753-0.762-1.9558v-3.9497c0-0.88052 0.254-1.5325 0.762-1.9558 0.51647-0.4318 1.3039-0.6477 2.3622-0.6477h3.0988c0.16087 0 0.27517 0.0381 0.3429 0.1143 0.0762 0.0677 0.1143 0.18203 0.1143 0.3429v1.5367c0 0.16087-0.0381 0.2794-0.1143 0.3556-0.0677 0.0677-0.18203 0.1016-0.3429 0.1016h-2.5527c-0.26246 0-0.4572 0.055-0.5842 0.1651-0.127 0.1016-0.1905 0.25823-0.1905 0.4699v3.0226c0 0.21167 0.0635 0.3683 0.1905 0.4699 0.127 0.0931 0.32174 0.1397 0.5842 0.1397h2.5527c0.16087 0 0.27517 0.0381 0.3429 0.1143 0.0762 0.0677 0.1143 0.18203 0.1143 0.3429v1.5113c0 0.16087-0.0381 0.2794-0.1143 0.3556-0.0677 0.0677-0.18203 0.10159-0.3429 0.10161zm6.2711 0h-1.905c-0.16086 0-0.2794-0.0339-0.3556-0.1016-0.0677-0.0762-0.1016-0.19473-0.1016-0.3556v-8.2296c0-0.16086 0.0339-0.27517 0.1016-0.34289 0.0762-0.0762 0.19474-0.1143 0.3556-0.1143h1.3208c0.16087 0 0.29634 0.0254 0.4064 0.0762 0.11854 0.0508 0.23284 0.1397 0.3429 0.2667l2.4638 2.8194v-2.7051c0-0.16087 0.0339-0.27517 0.1016-0.3429 0.0762-0.0762 0.19474-0.1143 0.3556-0.1143h1.905c0.16087 0 0.27517 0.0381 0.3429 0.1143 0.0762 0.0677 0.1143 0.18203 0.1143 0.3429v8.2296c0 0.16087-0.0381 0.2794-0.1143 0.3556-0.0677 0.0677-0.18203 0.1016-0.3429 0.1016h-1.905c-0.16086 0-0.2794-0.0339-0.3556-0.1016-0.0677-0.0762-0.1016-0.19473-0.1016-0.3556v-1.5621l-2.1717-2.6289v4.191c0 0.16087-0.0381 0.2794-0.1143 0.3556-0.0677 0.0677-0.18203 0.1016-0.3429 0.1016z" stroke="#fff" stroke-width="1.5" style="paint-order:stroke fill markers;white-space:pre" aria-label="CN"/>
 </g>
</svg>
