<?xml version="1.0" encoding="UTF-8"?>
<svg width="133.1" height="131.88" viewBox="183.45 295.37 133.1 131.88" xmlns="http://www.w3.org/2000/svg">
<g transform="matrix(.045042 0 0 .045042 238.74 350.05)">
<title>Site-ZH-50</title>
<circle cx="250" cy="250" r="1200" fill="#8ab6cb"/>
<g transform="matrix(22.202 0 0 22.202 -5300.4 -7771.6)" fill="#005b96">
<path transform="matrix(0 -.40743 -.40743 0 371.01 489.85)" d="m452.67 341.18a44.179 44.179 0 1 1 0-88.358v44.179z"/>
<path transform="matrix(-.35284 .20372 .20372 .35284 300.81 192.24)" d="m452.67 341.18a44.179 44.179 0 1 1 0-88.358v44.179z" bx:origin="-2.103431 0.5" xmlns:bx="https://boxy-svg.com"/>
<path transform="matrix(.35284 .20372 .20372 -.35284 78.186 401.83)" d="m452.67 341.18a44.179 44.179 0 1 1 0-88.358v44.179z" bx:origin="-2.103431 0.5" bx:shape="pie 452.667 297 0 44.179 180 360 1@575fa941" xmlns:bx="https://boxy-svg.com"/>
</g>
<g transform="translate(-1738.6 164.01)">
<path transform="matrix(7.1e-5 -1 1 7.1e-5 158.78 3182.1)" d="m1953 1358.1h1043.2v-79.5l256 112-256 112v-79.5h-1043.2v-65z" fill="#00f"/>
<path transform="matrix(-7.1e-5 -1 -1 7.1e-5 3153.7 2591.8)" d="m1781 1358.1h929.79v-75l255 107.5-255 107.5v-75h-929.79v-65z" fill="#00f"/>
<path transform="matrix(3.8e-5 -1 1 3.8e-5 597.89 2297)" d="m1861.1 1358.1h849.69v-75l255 107.5-255 107.5v-75h-849.69v-65z" bx:shape="arrow 1861.081 1283.079 1104.688 215 65 255 0 1@30c22f7b" xmlns:bx="https://boxy-svg.com"/>
<path transform="matrix(-7.1e-5 -1 -1 7.1e-5 3818.4 3182.2)" d="m1953 1358.1h1043.2v-79.5l256 112-256 112v-79.5h-1043.2v-65z" fill="#f00"/>
<path transform="matrix(7.1e-5 -1 1 7.1e-5 823.46 2591.9)" d="m1781 1358.1h929.79v-75l255 107.5-255 107.5v-75h-929.79v-65z" fill="#f00"/>
</g>
<path transform="matrix(-1 2.3e-5 -2.3e-5 -1 1210.4 704.65)" d="m960.4 71.847 160 39h-320l160-39z" stroke-width="0px"/>
<path d="m209.65 660.72-29.577 192.25 146.18 5.688-35.833-201.35-80.767 3.413z"/>
<path d="m223.78 888.74-205.18-2.889-62.641 196.98 267.82-194.09z"/>
<path d="m263.16 892.49 285.1 192.26-42.203-190.38-242.9-1.875z"/>
<path d="m227.53 912.5-338.56 260.72 29.073 230.71 327.31 47.83-17.819-539.26z"/>
<path d="m250.97 910.62 27.198 513 299.17-7.503 43.141-204.45-369.51-301.05z"/>
<g transform="translate(-1738.6 164.01)">
<path transform="matrix(-1 0 0 -1 3977.1 158.37)" d="m1564.4 1536.4-72.496-289.6c-94.319-39.72-178.99-117.16-269.4-144.32l-255.1 44.9-186.6-201.6 67.3-258.3c-0.472-91.318-137.07-401.17-140.22-601.49-0.933-59.25 2.253-117.6 9.13-174.83l-205.91-199.15 424.18-734.68 267.96 76.576c150.79-117.24 344.49-189.1 527.76-252.52l121.9-193 271.44-0.014 121.89 192.98c195.22 40.071 375.51 134.41 527.57 252.56l268.08-76.576 424.22 734.68-205.91 199.15c5.285 44.175 8.392 89.009 9.13 134.47 3.686 234.3-33.269 451.17-140.18 641.85l67.24 258.32-186.56 201.61-255.16-44.966c-83.785 63.178-171.28 103.05-269.4 144.35l-72.457 289.6h-848.4zm-21.366-345c-10.796 91.764 880.9 87.142 891.13 0.193 454.6-180.08 772.87-627.02 764.71-1144.8-0.701-45.961-10.84-103.23-16.551-147.79l-0.078 0.038c42.864-65.298-370.08-852.04-444.23-769.45l0.155-0.118c-208.63-159.44-485.64-278.45-768.6-273.98-269.28 4.235-531.56 122.27-730.29 274.18l-0.155-0.117c-59.089-39.393-515.75 721.77-444.23 769.45l-0.077 0.195c-7.226 56.8-17.483 126.62-16.551 185.55 7.926 504.37 323.28 931.66 764.75 1106.6z"/>
<path d="m1423.6-1040.8 304.7 343.28 520.43 0.042 304.7-343.3-140.9-56.1-235.5 266-74.1-1.4-44.5-64.8-139.86-0.025-44.472 64.846-74.053 1.351-235.55-265.97-140.89 56.075z"/>
<path transform="matrix(1 5.1e-5 -5.1e-5 1 1397.7 -73.463)" d="m594.76 144.53m-1321.5 0a1321.5 1321.5 0 1 0 2643 0 1321.5 1321.5 0 1 0-2643 0zm1321.5 0m-1150.7 0a1150.7 1150.7 0 0 1 2301.3 0 1150.7 1150.7 0 0 1-2301.3 0z"/>
<path transform="matrix(.5 .86602 -.86602 .5 1068.8 -1679.2)" d="m1423.7 1212.8 304.7-343.28 520.43-0.042 304.7 343.3-140.9 56.1-235.5-266-74.1 1.4-44.5 64.8-139.86 0.025-44.472-64.846-74.053-1.351-235.55 265.97-140.89-56.075z"/>
<path transform="matrix(.5 -.86602 .86602 .5 919.84 1765.1)" d="m1423.7 1212.8 304.7-343.28 520.43-0.042 304.7 343.3-140.9 56.1-235.5-266-74.1 1.4-44.5 64.8-139.86 0.025-44.472-64.846-74.053-1.351-235.55 265.97-140.89-56.075z"/>
</g>
<g transform="matrix(22.202 0 0 22.202 -2197.7 -2287.4)" stroke="#fff" aria-label="50" xmlns="http://www.w3.org/2000/svg">
<path d="m98.843 132.14c4.741 0 7.705-2.529 7.705-6.559v-5.492c0-4.188-2.647-6.282-6.915-6.282h-5.413v-2.569h9.483c0.988 0 1.422-0.434 1.422-1.422v-4.702c0-0.988-0.434-1.422-1.422-1.422h-17.029c-0.988 0-1.422 0.434-1.422 1.422v14.777c0 0.988 0.434 1.423 1.422 1.423h9.799c0.632 0 1.067 0.276 1.067 0.908v1.541c0 0.632-0.435 0.909-1.067 0.909h-10.194c-0.988 0-1.423 0.435-1.423 1.422v4.623c0 0.988 0.435 1.423 1.423 1.423h12.564z"/>
<path d="m135.64 125.25v-13.473c0-4.821-2.331-8.1-12.051-8.1s-12.09 3.279-12.09 8.1v13.473c0 4.82 2.371 8.06 12.09 8.06 9.72 0 12.051-3.24 12.051-8.06zm-15.212-1.423v-10.628c0-1.027 0.474-1.817 3.161-1.817 2.726 0 3.161 0.79 3.161 1.817v10.628c0 1.067-0.435 1.857-3.161 1.857-2.687 0-3.161-0.79-3.161-1.857z"/>
</g>
</g>
</svg>
