<?xml version="1.0" encoding="UTF-8"?>
<svg width="133.1" height="122.82" version="1.1" xmlns="http://www.w3.org/2000/svg" xmlns:cc="http://creativecommons.org/ns#" xmlns:dc="http://purl.org/dc/elements/1.1/" xmlns:rdf="http://www.w3.org/1999/02/22-rdf-syntax-ns#">
 <title>Site-ZH-44</title>
 <metadata>
  <rdf:RDF>
   <cc:Work rdf:about="">
    <dc:title>Site-ZH-44</dc:title>
   </cc:Work>
  </rdf:RDF>
 </metadata>
 <g transform="translate(-5.3333 -14.797)">
  <g transform="matrix(.463 0 0 .463 123 18.425)">
   <path transform="translate(5.3333 14.797)" d="m-125 236.23c-19.776-2.4067-40.696-10.747-57.828-23.054-2.2428-1.6112-4.3755-2.9294-4.7393-2.9294s-6.2528 1.5947-13.087 3.5439c-6.8338 1.9491-12.491 3.4679-12.571 3.375-0.0805-0.0929-8.3141-14.322-18.297-31.619l-18.151-31.45 1.7115-1.4945c0.9413-0.82195 5.2782-5.0005 9.6376-9.2857l7.9262-7.7912-0.80115-7.0974c-0.93332-8.2683-0.99634-12.61-0.28673-19.752 3.5992-36.229 22.264-67.349 52.486-87.514 4.8913-3.2635 19.441-10.914 20.755-10.914 0.34958 0 1.7506-4.7658 3.4755-11.822 1.5894-6.5023 3.0982-12.577 3.353-13.5l0.46321-1.6776h72.914l0.49543 1.875c0.27249 1.0312 1.7685 6.981 3.3244 13.222l2.829 11.347 8.0698 3.973c23.884 11.759 42.099 29.727 53.827 53.098 9.968 19.863 14.259 42.833 11.689 62.565l-0.80394 6.1709 19.187 18.767-18.103 31.366c-9.9565 17.251-18.169 31.442-18.25 31.535-0.08118 0.0929-5.7389-1.4259-12.573-3.375-6.8338-1.9491-12.687-3.5439-13.008-3.5439-0.32056 0-2.7908 1.5514-5.4893 3.4476-15.907 11.178-34.918 19.02-52.907 21.827-6.0468 0.9433-20.086 1.3375-25.25 0.70906z" fill="#8ab6cb" fill-rule="evenodd" stop-color="#000000" stroke="#8ab6cb" stroke-linejoin="round" stroke-miterlimit="10" stroke-width="5" style="paint-order:stroke fill markers"/>
   <path d="m-150.43-9.0348-7.0498 28.17c-44.158 18.595-75.471 61.944-76.273 112.93-0.0907 5.7622 0.21841 11.442 0.88839 17.008l-20.032 19.372 41.267 71.472 26.064-7.4509c20.59 16.007 46.354 25.708 74.439 26.15 29.491 0.464 56.741-9.3591 78.35-26.15l26.079 7.4509 41.267-71.472-20.032-19.372c0.51751-4.2975 0.81881-8.6586 0.8884-13.082 0.8238-52.362-30.78-97.7-76.273-116.85l-7.0498-28.17zm4.5852 6.8778h73.364l6.663 26.666c44.227 17.515 75.188 60.997 74.396 111.36-0.0703 4.4713-1.0577 10.042-1.6113 14.376l-7e-3 -4e-3 19.358 18.728-36.682 63.534-25.892-7.4081 0.0146 0.012c-20.297 15.511-47.243 27.087-74.768 26.654-26.197-0.4122-51.712-11.896-71.043-26.672l-0.0137 0.01-25.892 7.408-36.682-63.534 19.358-18.728-7e-3 -0.0177c-0.70545-5.5276-1.7026-12.317-1.6124-18.051 0.77194-49.065 31.45-90.632 74.396-107.65z"/>
  </g>
 </g>
 <g transform="translate(-16.267 -828.25)">
  <ellipse cx="83.668" cy="895.82" rx="37.22" ry="38.783" fill="#fff" fill-rule="evenodd" stop-color="#000000" style="paint-order:stroke fill markers"/>
  <g fill-rule="evenodd">
   <ellipse cx="82.816" cy="894.56" rx="33" ry="33.002" fill="#daeff0" stop-color="#000000" style="paint-order:stroke fill markers"/>
   <rect x="48.391" y="888.05" width="72.498" height="12.215" fill="#fff" stop-color="#000000" style="paint-order:stroke fill markers"/>
   <rect x="79.428" y="854.95" width="7.0397" height="76.326" fill="#fff" stop-color="#000000" style="paint-order:stroke fill markers"/>
   <path d="m48.391 895.23c0.08903-0.21749 0.16187-0.61124 0.16187-0.875 0-0.47033 0.68189-0.47955 35.469-0.47955 28.199 0 35.468 0.0641 35.465 0.3125-2e-3 0.17187-0.076 0.56562-0.16445 0.875l-0.1608 0.5625h-35.467c-32.231 0-35.452-0.0361-35.305-0.39545zm68.433-0.60455c0-0.1375-0.12001-0.25-0.26669-0.25-0.14667 0-0.26668 0.1125-0.26668 0.25s0.12001 0.25 0.26668 0.25c0.14668 0 0.26669-0.1125 0.26669-0.25zm-65.071-0.11025c0-0.26386-0.5118-0.37472-0.66402-0.14383-0.09213 0.13974 0.01958 0.25408 0.24826 0.25408 0.22867 0 0.41577-0.0496 0.41577-0.11025z" fill="#daeff0" stop-color="#000000" stroke="#daeff0" stroke-linejoin="round" stroke-miterlimit="10" stroke-width="1.291" style="paint-order:stroke fill markers"/>
  </g>
  <g transform="matrix(1.0203 0 0 1.0203 -145.53 -27.201)">
   <g fill="#005b96" fill-rule="evenodd" stroke="#005b96" stroke-width="2">
    <path transform="translate(16.267 828.25)" d="m179.6 63.89c-0.78183-1.6352-0.87885-6.8831-0.1753-9.4822 0.61393-2.268 2.6-5.7475 3.9736-6.9614 0.70449-0.62258 0.72927-0.61095 1.1265 0.52866 0.22341 0.64088 0.50012 2.2797 0.61491 3.6418 0.34096 4.0459-1.063 8.1739-4.0647 11.951l-1.0172 1.28z" stop-color="#000000" style="paint-order:stroke fill markers"/>
    <path transform="translate(16.267 828.25)" d="m166.72 65.33c0.4415-2.0046 2.3663-5.4429 4.1232-7.3652 1.5534-1.6996 4.8241-4.0338 5.6671-4.0443 0.60848-0.0076 0.19302 2.1494-0.79471 4.1261-1.2781 2.5576-4.73 5.9952-7.3569 7.3264l-1.8551 0.94006z" stop-color="#000000" style="paint-order:stroke fill markers"/>
    <path transform="translate(16.267 828.25)" d="m238.69 94.569c0.73159-3.2561 3.1218-6.5182 6.3544-8.6725 3.9502-2.6326 4.1607-2.514 2.5738 1.45-1.3894 3.4708-5.6554 7.7995-8.3537 8.4768-0.90172 0.22632-0.90535 0.21838-0.57448-1.2542z" stop-color="#000000" style="paint-order:stroke fill markers"/>
    <path transform="translate(16.267 828.25)" d="m243.1 81.68c-0.91213-3.6342-0.55289-7.2089 1.093-10.877 1.3172-2.9352 1.6766-2.2583 1.6902 3.1842 0.0106 4.235-0.0478 4.6217-0.98699 6.5343-1.0981 2.2363-1.4661 2.4735-1.7963 1.158z" stop-color="#000000" style="paint-order:stroke fill markers"/>
    <path transform="translate(16.267 828.25)" d="m169.79 80.08c-1.0802-3.5069-0.78365-7.4143 0.82-10.804 1.093-2.3105 1.3491-2.1655 1.9539 1.1062 0.47402 2.5642-0.0791 6.0271-1.4156 8.8623l-0.97716 2.073z" stop-color="#000000" style="paint-order:stroke fill markers"/>
    <path transform="translate(16.267 828.25)" d="m230.85 102.15c-0.63003-1.6369-0.81603-5.7962-0.35779-8.001 0.23115-1.1122 0.88178-2.9418 1.4458-4.0659 1.0537-2.0998 2.9965-4.6954 3.5144-4.6954 0.38387 0 1.0723 4.0108 1.067 6.2161-8e-3 3.5176-1.8796 8.2859-4.0934 10.432l-1.18 1.1437z" stop-color="#000000" style="paint-order:stroke fill markers"/>
   </g>
   <path d="m216.09 957.93c-9.7772-1.4269-18.594-5.099-26.469-11.025-0.76455-0.57526-1.41-0.8914-1.6655-0.81578-0.22946 0.0679-1.3273 0.46266-2.4396 0.87723-1.1123 0.41456-2.986 1.108-4.1638 1.5409-1.1778 0.43291-2.302 0.85246-2.4983 0.93232-0.26488 0.10775-0.84417-0.69754-2.2468-3.1235-13.18-22.794-16.55-28.662-16.55-28.818 0-0.10107 0.88332-0.99571 1.9629-1.9881 1.0796-0.99238 2.855-2.6437 3.9452-3.6695l1.9823-1.8652-0.28997-2.7159c-0.67351-6.308 0.106-14.239 2.0568-20.927 4.7517-16.29 16.345-29.421 31.981-36.222 0.98146-0.42695 1.8138-0.79468 1.8495-0.81718 0.0621-0.039 0.56716-2.7222 1.3866-7.366 0.20783-1.1778 0.42849-2.3288 0.49035-2.5578 0.1059-0.39202 1.1946-0.41638 18.607-0.41638h18.494l0.74941 3.2716c0.41218 1.7994 0.94237 4.1581 1.1782 5.2417l0.42879 1.9702 3.8074 1.8776c9.5264 4.6978 16.995 11.331 22.783 20.236 6.7728 10.42 9.9847 23.893 8.6504 36.284-0.16909 1.5703-0.26459 2.9352-0.21222 3.0331 0.0524 0.0979 1.7218 1.5314 3.7099 3.1857 1.9881 1.6542 3.7543 3.1362 3.9249 3.2933 0.25042 0.23056-1.3054 3.0789-8.0718 14.778-4.6101 7.9709-8.7648 15.161-9.2326 15.977-0.46785 0.81668-0.95771 1.4857-1.0886 1.4867-0.13086 9.5e-4 -2.4829-0.6938-5.2267-1.544l-4.9887-1.5459-1.3164 0.95042c-7.914 5.7136-16.302 9.1019-25.942 10.479-4.2101 0.60148-11.47 0.6023-15.584 2e-3zm11.837-2.8644c4.7994-0.35116 10.333-1.59 15.406-3.4491 3.44-1.2606 9.596-4.7039 12.729-7.12 1.0469-0.80725 2.0329-1.5473 2.1911-1.6446s2.4441 0.47993 5.0797 1.2827c2.6479 0.80647 4.8829 1.3686 4.9952 1.2564 0.11174-0.11173 3.6405-6.145 7.8417-13.407l7.6385-13.204-1.0354-0.95191c-0.56948-0.52355-2.2696-1.9837-3.7779-3.2448l-2.7425-2.2929 0.41905-2.9416c0.53648-3.7658 0.57041-9.8964 0.0764-13.805-2.0395-16.137-11.024-30.119-24.969-38.86-2.2758-1.4266-5.9301-3.2517-8.3935-4.1921-1.3363-0.51013-1.5156-0.65774-1.7039-1.4029-0.11574-0.45802-0.65764-2.7332-1.2042-5.056l-0.99377-4.2233h-31.106l-0.13151 0.77328c-0.7519 4.4213-1.62 8.8929-1.7505 9.0172-0.0891 0.0848-0.91147 0.44664-1.8275 0.80403-10.306 4.0208-19.376 11.445-25.57 20.931-2.9148 4.4641-5.9133 11.681-7.1267 17.154-1.1841 5.3405-1.5471 13.098-0.86671 18.523l0.32666 2.6045-2.2971 2.1541c-1.2634 1.1848-2.9128 2.7325-3.6654 3.4395-0.7526 0.70694-1.3684 1.3794-1.3684 1.4944 0 0.25744 14.941 26.138 15.316 26.529 0.20514 0.2142 1.3535-0.11696 4.8446-1.397l4.5757-1.6778 2.3243 1.7791c9.5784 7.3316 20.308 11.093 32.304 11.324 0.78517 0.0151 2.7927-0.0724 4.4612-0.19446zm-9.1009-11.658c-15.086-1.9923-28.183-13.233-32.348-27.762-0.39826-1.3893-0.72412-2.7064-0.72412-2.9269 0-0.22047-0.25797-1.0357-0.57326-1.8116-2.0641-5.0798-1.6055-11.836 1.0573-15.576 0.57685-0.81011 0.44669-0.88589-0.44733-0.26046-0.66401 0.46451-3.2656 1.5496-4.379 1.8264-0.61669 0.15333-0.65407 0.11674-0.65018-0.63639 7e-3 -1.3026 0.62353-3.8357 1.4157-5.8141 1.5139-3.7808 4.3676-7.0638 7.762-8.9297 1.3669-0.75137 1.9583-1.2773 3.1164-2.7713 4.1421-5.3437 8.8684-9.1944 14.694-11.971 9.1053-4.3408 18.895-4.9408 28.623-1.7543 12.134 3.9748 21.944 14.138 25.251 26.159 0.39594 1.4395 1.0736 3.9021 1.5058 5.4724 0.70558 2.5633 0.78523 3.1714 0.77922 5.9483-5e-3 2.4967-0.10668 3.4142-0.52529 4.7586-0.54389 1.7467-0.92166 3.6879-0.71769 3.6879 0.0659 0 0.70822-0.26025 1.4274-0.57832s1.6962-0.65119 2.171-0.74027c0.80881-0.15174 0.86331-0.12372 0.86331 0.44379 0 0.97462-0.64078 3.7451-1.2621 5.4568-1.3318 3.669-4.2931 7.3189-7.286 8.98-1.805 1.0018-1.9829 1.1674-3.3455 3.1142-1.5676 2.2396-6.4469 7.0069-9.0443 8.8367-4.2693 3.0076-8.8476 5.0586-14.038 6.2887-2.1082 0.49962-3.2228 0.60547-7.1379 0.67786-2.5518 0.0472-5.3356-6e-3 -6.1862-0.11846zm6.6123-19.156-0.0692-15.585 32.228 1.5e-4 -0.1336-0.77328c-0.0735-0.4253-0.17466-0.90748-0.22483-1.0715-0.0727-0.23756-6.9742-0.28596-33.927-0.23793l-33.835 0.0603-0.27769 0.71379c-0.41378 1.0636 0.20011 4.8709 1.3417 8.3209 1.7638 5.3306 4.3833 9.5282 8.5401 13.685 3.9331 3.9331 8.1076 6.611 13.152 8.4371 2.2634 0.81934 6.4215 1.7967 7.6438 1.7967h0.61878l-0.1226-28.909-13.384-0.0615c-11.545-0.053-13.384-0.0142-13.384 0.28265 0 0.90727 0.83223 3.7543 1.5543 5.317 1.0498 2.2721 3.4471 5.8882 5.4353 8.1985 3.8716 4.4989 9.2508 8.0761 14.781 9.8293l2.3793 0.75431 0.0732 0.98551c0.0539 0.72654-0.0155 0.98552-0.26428 0.98552-0.1856 0-1.5034-0.38499-2.9283-0.85553-7.5614-2.4968-13.948-7.4409-18.618-14.414-2.5431-3.7968-4.01-7.1046-4.5553-10.272-0.13859-0.80506-0.31051-1.7582-0.38204-2.118l-0.13006-0.65431h31.445l-1.3e-4 7.7922c-8e-5 4.2857 0.0443 9.1841 0.0986 10.885 0.0543 1.7012 0.10792 5.2077 0.1191 7.7922l0.0203 4.6991h2.8746zm5.1348 14.988c3.9179-0.7497 8.863-2.7998 12.198-5.057 2.952-1.998 2.8075-1.8475 2.4976-2.6016-0.48592-1.1825-0.98398-4.3456-0.98398-6.2492 0-4.5139 2.3257-9.9076 5.6941-13.206 0.66322-0.64939 1.2059-1.265 1.2059-1.3681 0-0.10307-5.3534-0.1874-11.897-0.1874h-11.897v29.028l0.65431-4e-5c0.35987-2e-5 1.4971-0.16132 2.5273-0.35844zm18.795-9.2539c1.9094-2.3302 3.3008-5.7907 3.5969-8.9462 0.16998-1.8111-0.16778-5.0548-0.71496-6.8662l-0.38511-1.2748-0.60375 0.561c-0.8961 0.83266-2.5346 3.2109-3.3956 4.9286-1.0415 2.0778-1.6774 4.7248-1.6774 6.9822 0 1.8482 0.54116 5.133 0.98104 5.955 0.2079 0.38847 0.26975 0.39201 0.79834 0.0457 0.31515-0.20649 0.94534-0.82984 1.4004-1.3852zm7.6112-6.2647c2.0289-1.0589 4.8625-3.7914 6.102-5.8844 0.91542-1.5457 2.4552-5.9125 2.1276-6.0338-0.38958-0.14427-3.9141 1.8549-5.4201 3.0744-2.6456 2.1423-4.8697 5.7416-5.1802 8.383-0.19695 1.6758-0.0224 1.7097 2.3706 0.4608zm-0.026-8.3325c0.49004-0.57046 0.95444-1.3258 1.032-1.6785 0.0776-0.35272 0.22018-0.90679 0.31689-1.2313 0.0967-0.32448 0.0639-0.88659-0.073-1.2491l-0.24882-0.65919h-2.4461c-1.3454 0-2.4461 0.0475-2.4461 0.10543 0 0.058 0.31431 1.0484 0.69848 2.2009s0.77528 2.7871 0.86914 3.6324l0.17065 1.537 0.61793-0.81019c0.33987-0.44561 1.0189-1.2769 1.5089-1.8474zm4.1393-5.8888c1.1274-2.1361 1.3884-3.4085 1.3912-6.781 2e-3 -2.9819-0.38766-5.7938-0.84292-6.0752-0.27382-0.16922-1.8008 2.95-2.3916 4.8855-0.85612 2.8044-0.73684 6.7682 0.2845 9.4545l0.22505 0.59193 0.41576-0.56203c0.22867-0.30911 0.6418-0.9903 0.91805-1.5138zm-73.196-2.4356c0.72137-1.7163 1.0078-2.868 1.303-5.2386 0.17408-1.398-0.22379-4.5127-0.73302-5.7386-0.29532-0.71092-0.37866-0.76517-0.73104-0.47586-0.51496 0.42278-1.834 3.3197-2.2071 4.8472-0.49016 2.0069-0.36251 5.9535 0.25323 7.8291l0.53027 1.6153 0.43046-0.55842c0.23676-0.30714 0.75612-1.3332 1.1542-2.2802zm69.31-2.6204c0.056-0.0982 0.17421-0.57996 0.26276-1.0707l0.161-0.89224h-67.059l-0.1487 0.74353c-0.0818 0.40895-0.14871 0.89076-0.14871 1.0707 0 0.27604 5.2215 0.32716 33.415 0.32716 18.378 0 33.461-0.0803 33.517-0.17845zm1.4441-5.1932c0.51547-1.2533 0.43838-2.5146-0.35437-5.7981-2.0456-8.4728-7.8937-16.382-15.798-21.365-1.468-0.92553-5.2186-2.7063-7.1363-3.3883-1.5145-0.53861-6.5351-1.6651-7.4354-1.6682l-0.53534-2e-3v29.028h13.324c7.3283 0 13.324-0.0494 13.324-0.10975 0-0.0604-0.21658-1.0386-0.48128-2.1738-1.223-5.2452-3.6542-9.2664-8.2822-13.698-3.8713-3.7074-7.7887-6.0794-12.589-7.6225l-2.4369-0.78339-2e-3 -1.0112c-9.5e-4 -0.55616 0.0504-1.0112 0.11425-1.0112 0.55823 0 5.2529 1.7119 7.1839 2.6196 7.8537 3.6918 15.223 11.578 17.546 18.777 0.72031 2.2318 1.564 5.9133 1.564 6.8245 0 0.27883-2.4409 0.33061-15.584 0.33061h-15.584v-31.43l-2.9741 0.1416-0.0764 31.169-32.048 0.1222 0.17 2.138 67.643-0.0019 0.44711-1.0871zm-63.142-3.3356c0-0.0779-0.22192-0.45337-0.49315-0.83429-0.79904-1.1221-1.6017-3.3421-1.7808-4.9254-0.0918-0.81094-0.23329-1.4668-0.31453-1.4574-0.48008 0.0552-2.4592 3.2897-2.8991 4.7379-0.782 2.5746-0.73513 2.621 2.6485 2.621 1.5615 0 2.8391-0.0638 2.8391-0.14172zm24.983-14.399v-14.541l-1.1302 0.16332c-5.1914 0.7502-11.572 3.4044-15.585 6.4833-1.093 0.83853-1.3259 1.131-1.156 1.452 0.117 0.22108 0.39824 1.312 0.62498 2.4244 0.4824 2.3666 0.37473 5.9093-0.24949 8.2086-0.77012 2.8368-2.8096 6.31-5.2152 8.8812-0.52972 0.56621-0.99882 1.1283-1.0424 1.2491-0.0478 0.1324 4.6546 0.21967 11.837 0.21967h11.916zm-35.88 12.395c3.8346-1.9025 7.0588-5.4115 8.2665-8.9965 0.26913-0.79892 0.48933-1.8259 0.48933-2.2823v-0.8297l-1.0034 0.35402c-4.0594 1.4322-7.9289 5.8123-9.3234 10.553-0.65531 2.228-0.59377 2.2751 1.571 1.2011zm14.123-3.6174c2.9527-4.3524 3.6729-9.0244 2.2201-14.401-0.15028-0.55616-0.40628-1.0112-0.5689-1.0112-0.66271 0-3.1489 3.1793-4.0934 5.2345-1.7537 3.8161-1.961 8.9294-0.50074 12.353l0.44837 1.0513 0.7046-0.81333c0.38753-0.44733 1.193-1.5333 1.7899-2.4132z" stroke-width=".23793"/>
  </g>
  <g stroke="#fff" stroke-width=".99907" aria-label="44">
   <path d="m71.289 897.28v5.1712c0 0.98686 0.43422 1.4211 1.4211 1.4211h6.0791c0.98686 0 1.4211-0.43421 1.4211-1.4211v-25.579c0-0.98686-0.43422-1.4211-1.4211-1.4211h-6.0791c-0.98686 0-1.4211 0.43421-1.4211 1.4211v12.158h-3.6711c-0.75001 0-1.2237-0.51317-1.2237-1.3421v-10.816c0-0.98686-0.43422-1.4211-1.4211-1.4211h-6.1185c-0.98686 0-1.4211 0.43421-1.4211 1.4211v13.856c0 4.5001 2.0527 6.5528 7.1843 6.5528z"/>
   <path d="m99.277 897.28v5.1712c0 0.98686 0.43422 1.4211 1.4211 1.4211h6.0791c0.98686 0 1.4211-0.43421 1.4211-1.4211v-25.579c0-0.98686-0.43422-1.4211-1.4211-1.4211h-6.0791c-0.98686 0-1.4211 0.43421-1.4211 1.4211v12.158h-3.6711c-0.75001 0-1.2237-0.51317-1.2237-1.3421v-10.816c0-0.98686-0.43422-1.4211-1.4211-1.4211h-6.1185c-0.98686 0-1.4211 0.43421-1.4211 1.4211v13.856c0 4.5001 2.0527 6.5528 7.1843 6.5528z"/>
  </g>
 </g>
</svg>
