<?xml version="1.0" encoding="UTF-8" standalone="no"?>
<!-- Created with Inkscape (http://www.inkscape.org/) -->

<svg
   width="133.09781mm"
   height="133.09781mm"
   viewBox="0 0 133.09781 133.09781"
   version="1.1"
   id="svg9950"
   inkscape:version="1.3 (0e150ed6c4, 2023-07-21)"
   sodipodi:docname="Site-CN-29.svg"
   inkscape:export-filename="C:\Users\jorda\OneDrive\Documents\Fiction\SCP Foundation\Site Insignia\Site-00.png"
   inkscape:export-xdpi="99.235291"
   inkscape:export-ydpi="99.235291"
   xmlns:inkscape="http://www.inkscape.org/namespaces/inkscape"
   xmlns:sodipodi="http://sodipodi.sourceforge.net/DTD/sodipodi-0.dtd"
   xmlns="http://www.w3.org/2000/svg"
   xmlns:svg="http://www.w3.org/2000/svg"
   xmlns:rdf="http://www.w3.org/1999/02/22-rdf-syntax-ns#"
   xmlns:cc="http://creativecommons.org/ns#"
   xmlns:dc="http://purl.org/dc/elements/1.1/">
  <defs
     id="defs9944">
    <rect
       x="-435.82221"
       y="141.0013"
       width="518.55851"
       height="87.397501"
       id="rect3" />
  </defs>
  <sodipodi:namedview
     id="base"
     pagecolor="#ffffff"
     bordercolor="#666666"
     borderopacity="1.0"
     inkscape:pageopacity="0.0"
     inkscape:pageshadow="2"
     inkscape:zoom="2"
     inkscape:cx="314.25"
     inkscape:cy="159.25"
     inkscape:document-units="mm"
     inkscape:current-layer="layer1"
     showgrid="false"
     fit-margin-top="0"
     fit-margin-left="0"
     fit-margin-right="0"
     fit-margin-bottom="0"
     inkscape:window-width="2560"
     inkscape:window-height="1494"
     inkscape:window-x="-11"
     inkscape:window-y="-11"
     inkscape:window-maximized="1"
     inkscape:pagecheckerboard="0"
     inkscape:showpageshadow="2"
     inkscape:deskcolor="#d1d1d1" />
  <metadata
     id="metadata9947">
    <rdf:RDF>
      <cc:Work
         rdf:about="">
        <dc:format>image/svg+xml</dc:format>
        <dc:type
           rdf:resource="http://purl.org/dc/dcmitype/StillImage" />
      </cc:Work>
    </rdf:RDF>
  </metadata>
  <g
     inkscape:label="Layer 1"
     inkscape:groupmode="layer"
     id="layer1"
     transform="translate(-57.427285,-70.189195)">
    <path
       style="display:inline;opacity:1;fill:#ffffff;fill-opacity:1;stroke-width:0.583886;stroke-dasharray:none"
       d="m 236.68497,436.28708 c -32.58971,-2.58291 -65.2302,-14.4415 -91.81745,-33.35814 -11.80061,-8.39605 -25.83795,-21.25552 -34.6321,-31.72613 -1.41288,-1.68221 -2.86924,-3.05858 -3.23635,-3.05858 -0.36712,0 -5.17944,2.62336 -10.694048,5.82968 -5.514607,3.20632 -10.223134,5.82643 -10.463392,5.82246 -0.766091,-0.0127 -9.59425,-12.77217 -14.290569,-20.65444 -4.700963,-7.89007 -11.715642,-21.65128 -12.370133,-24.26739 -0.356363,-1.42445 0.134771,-1.79312 10.00972,-7.51386 5.711459,-3.30875 10.447036,-6.06388 10.523505,-6.12251 0.07647,-0.0586 -1.174455,-4.02279 -2.779831,-8.80925 -6.933492,-20.67232 -9.874726,-38.54795 -9.886772,-60.08779 -0.0068,-12.18919 0.559301,-19.43603 2.373286,-30.38028 5.004835,-30.1955 17.223859,-57.97927 36.496984,-82.98728 6.0729,-7.87995 22.12448,-24.1627 29.9137,-30.34453 23.52901,-18.673514 49.68771,-30.978216 78.40918,-36.882623 4.16823,-0.856881 8.16884,-1.680815 8.89027,-1.830965 l 1.31167,-0.273001 V 56.613539 43.584627 l 2.47762,-0.343255 c 1.36268,-0.188789 7.50286,-0.658916 13.64482,-1.044725 10.5962,-0.665604 24.72658,-0.246425 35.32448,1.047903 l 2.7691,0.338192 v 13.001676 c 0,11.88252 0.0878,13.026844 1.02019,13.29406 0.56111,0.160811 3.25005,0.720362 5.97542,1.243448 26.92068,5.166932 52.67813,16.404114 74.61989,32.554354 8.17133,6.01451 12.25189,9.53972 20.9131,18.06691 14.7341,14.50611 26.08162,30.2555 35.35261,49.06641 13.33523,27.05729 19.10066,51.86073 19.03884,81.90699 -0.0457,22.19122 -3.06713,39.91796 -10.5762,62.0497 -0.9723,2.86567 -1.7662,5.48903 -1.76424,5.82967 0.002,0.34064 4.72401,3.34221 10.49342,6.67015 5.76942,3.32794 10.48985,6.3978 10.48985,6.82192 0,1.46921 -10.43381,21.5532 -14.68038,28.25818 -5.41392,8.54813 -11.70066,17.45075 -12.3258,17.4545 -0.26463,0.002 -5.23404,-2.77124 -11.04314,-6.16182 l -10.56199,-6.1647 -2.88799,3.3956 c -5.47241,6.43429 -21.10723,21.47877 -27.45965,26.42284 -16.94318,13.18683 -36.49665,23.72626 -56.2896,30.34043 -21.86952,7.30808 -48.71694,10.52214 -72.28802,8.65402 z"
       id="path1"
       transform="matrix(0.26458333,0,0,0.26458333,57.427285,70.189195)" />
    <path
       style="display:inline;opacity:1;fill:#2d6f98;fill-opacity:1;stroke-width:0.291943;stroke-dasharray:none"
       d="m 432.85367,275.59086 c -0.88174,-0.28457 -9.01414,-2.62575 -18.07201,-5.20262 -9.05786,-2.57688 -17.82827,-5.11499 -19.4898,-5.64025 l -3.02095,-0.95501 1.52277,-2.27548 c 0.83752,-1.25151 1.47553,-2.31681 1.41779,-2.36732 -0.38723,-0.33882 -234.95396,-167.186993 -235.04304,-167.186993 -0.16331,0 -15.63127,-11.006385 -16.3211,-11.613438 -1.23127,-1.083521 -5.64726,-4.12718 -6.40733,-4.416159 -0.57142,-0.217251 -0.71792,-0.405052 -0.51697,-0.66269 0.15424,-0.197738 2.66642,-3.72997 5.58263,-7.849405 l 5.3022,-7.48988 3.44451,2.461782 c 1.89448,1.35398 3.58931,2.461782 3.76629,2.461782 0.17698,0 0.44542,0.229544 0.59655,0.510097 0.15112,0.280554 1.60131,1.428272 3.22264,2.550485 5.17449,3.581548 19.66919,13.840917 20.42478,14.456687 1.20121,0.978923 226.72393,161.453882 226.89845,161.453882 0.0886,0 0.82888,-0.91818 1.64511,-2.04039 0.81623,-1.12221 1.5719,-2.03682 1.67928,-2.03246 0.29559,0.012 3.54557,4.53961 14.0903,19.62945 5.27988,7.55564 10.01923,14.32779 10.53189,15.04921 1.4497,2.03998 1.45666,2.03354 -1.25399,1.15872 z"
       id="path10"
       transform="matrix(0.26458333,0,0,0.26458333,57.427285,70.189195)" />
    <g
       id="g18"
       transform="matrix(0.35278433,0,0,0.35278338,73.896795,59.528996)"
       style="display:inline">
      <rect
         style="opacity:1;fill:#f2bd0a;fill-opacity:1;stroke-width:0.264999;stroke-dasharray:none"
         id="rect9"
         width="55.383999"
         height="12"
         x="20.308001"
         y="15"
         transform="matrix(2.8345931,0,0,2.8346007,5.9171818,257.74135)" />
      <path
         style="display:inline;opacity:1;fill:#f2bd0a;fill-opacity:1;stroke-width:0.218953;stroke-dasharray:none"
         d="m 134.76234,327.5805 c -25.112,-1.42219 -47.686808,-8.7799 -68.595325,-22.35697 l -2.68474,-1.74336 0.0696,-35.98663 c 0.07641,-39.50054 -0.01305,-36.72468 1.386222,-43.03049 2.68006,-12.07798 9.81395,-23.39843 19.762801,-31.36071 8.547606,-6.84083 18.849942,-10.87506 30.035812,-11.76152 3.87241,-0.30689 50.69605,-0.29813 54.57678,0.0102 19.58815,1.55634 36.55137,13.14611 45.25308,30.91825 2.78603,5.69011 4.23765,10.27334 5.27123,16.64297 l 0.49197,3.03188 0.0716,35.64153 0.0716,35.64153 -2.3793,1.57614 c -15.53736,10.2926 -32.93284,17.28744 -51.46105,20.69284 -9.68604,1.78026 -22.4731,2.61654 -31.87033,2.08434 z"
         id="path3" />
      <path
         style="opacity:1;fill:#f2bd0a;fill-opacity:1;stroke-width:0.218953;stroke-dasharray:none"
         d="m 137.94958,171.4766 c -16.86854,-1.75971 -30.95386,-14.054 -35.17006,-30.69798 -1.35221,-5.33802 -1.57815,-12.17631 -0.58038,-17.56584 2.96234,-16.00139 15.12479,-28.848181 30.76268,-32.493588 5.87757,-1.370146 12.92081,-1.2925 18.85597,0.207866 10.03073,2.535703 19.12312,9.309772 24.59633,18.324902 7.69526,12.67518 7.95628,28.84132 0.67335,41.70406 -7.9478,14.037 -23.43743,22.15845 -39.13789,20.52058 z"
         id="path4" />
    </g>
    <path
       style="fill:#8d0209;fill-opacity:1;stroke-width:0.0936916;stroke-dasharray:none"
       d="m 80.743299,138.00979 c -0.736445,-1.04972 -2.268633,-3.23333 -3.404864,-4.85245 -1.136224,-1.61913 -2.053768,-2.96108 -2.038974,-2.98213 0.04685,-0.0667 11.417228,3.19158 11.455642,3.28275 0.02021,0.048 -0.144907,0.34235 -0.366878,0.65426 l -0.403584,0.56712 34.182449,24.32593 34.18246,24.32594 -1.46444,2.0578 -1.46444,2.05782 -34.18246,-24.32594 -34.182447,-24.32594 -0.403584,0.56712 c -0.221971,0.31191 -0.440997,0.56468 -0.486738,0.56171 -0.04573,-0.003 -0.685692,-0.86427 -1.422142,-1.91399 z"
       id="path9" />
    <path
       style="display:inline;fill:#ffffff;fill-opacity:0.992157;fill-rule:evenodd;stroke-width:5.39933"
       d="m 447.25337,312.9903 c -1.28714,-1.5509 -1.01948,-4.56761 1.17244,-13.21429 6.5933,-26.0092 7.56028,-61.93535 2.33946,-86.91887 -16.02194,-76.67087 -70.56395,-135.233263 -145.3018,-156.012234 -7.10703,-1.975931 -8.32061,-2.800078 -8.32061,-5.65055 0,-4.368681 1.28832,-4.265419 18.94503,1.518489 52.67255,17.254246 97.83719,56.125145 122.72375,105.622055 7.69753,15.30962 16.16245,41.41424 19.0696,58.80796 4.49327,26.88357 2.61782,63.86171 -4.5465,89.64285 -2.3854,8.58396 -3.31745,9.5349 -6.08137,6.20459 z"
       id="path979"
       transform="matrix(0.26458333,0,0,0.26458333,57.427285,70.189195)" />
    <path
       style="fill:#ffffff;fill-opacity:0.992157;fill-rule:evenodd;stroke-width:5.39933"
       d="m 48.850869,303.21429 c -5.142043,-20.69395 -6.401492,-34.08242 -5.587025,-59.39238 0.592614,-18.41575 1.578907,-27.26207 4.346045,-38.9808 16.975865,-71.8921 69.497841,-129.308841 139.159371,-152.128265 17.67411,-5.789613 18.94503,-5.889991 18.94503,-1.496303 0,2.941916 -1.19835,3.677878 -9.64286,5.922134 C 133.54372,73.756357 80.70944,123.38011 59.374383,185.52919 47.03141,221.4843 45.122289,265.09001 54.324767,300.86611 c 1.942799,7.55293 2.25942,10.94286 1.147239,12.28296 -2.766632,3.33359 -3.655671,1.99962 -6.621137,-9.93478 z"
       id="path1135"
       transform="matrix(0.26458333,0,0,0.26458333,57.427285,70.189195)" />
    <path
       style="display:inline;fill:#ffffff;fill-opacity:0.992157;fill-rule:evenodd;stroke-width:5.39933"
       d=""
       id="path901"
       transform="matrix(0.26458333,0,0,0.26458333,57.427285,70.189195)" />
    <path
       style="display:inline;fill:#ffffff;fill-opacity:0.99215686;fill-rule:evenodd;stroke-width:5.39933"
       d="m 225.71429,459.2571 c -43.8651,-6.08836 -84.33307,-25.03594 -116.1937,-54.40325 -9.14045,-8.42515 -10.775607,-10.55168 -8.91441,-11.59326 1.73824,-0.97277 4.76834,0.97876 12.76489,8.22121 30.82041,27.91393 66.48187,45.22546 105.89414,51.40532 19.13798,3.00085 56.72755,2.26021 73.59193,-1.44999 36.42253,-8.01305 68.67785,-24.75315 94.50433,-49.04655 8.9563,-8.42466 11.72173,-10.27783 14.17523,-9.49912 2.89806,0.91981 2.777,1.24956 -2.45856,6.69689 -9.413,9.79373 -27.70791,23.92585 -41.17711,31.80775 -21.7032,12.70026 -43.49113,20.95253 -68.00663,25.75779 -14.07113,2.75808 -50.79207,3.96143 -64.18011,2.10321 z"
       id="path940"
       transform="matrix(0.26458333,0,0,0.26458333,57.427285,70.189195)" />
    <path
       style="display:inline;opacity:1;fill:#ffffff;fill-rule:evenodd;stroke:none;stroke-width:2.69966;stroke-linecap:round;paint-order:stroke fill markers"
       d="m 50.053792,307.59263 c -5.392728,-18.15929 -7.105661,-31.76137 -7.072827,-56.16406 0.03617,-26.88073 2.018252,-40.25574 9.413164,-63.51959 10.293671,-32.38315 26.230972,-58.14278 51.799441,-83.724 25.93472,-25.947651 50.55744,-41.143227 84.0378,-51.862792 16.76253,-5.36694 18.1972,-5.459961 18.1972,-1.179871 0,2.935277 -1.48177,3.701657 -13.91236,7.195517 C 164.08313,66.329517 135.12587,82.95862 112.4167,104.33608 58.988454,154.63119 36.531703,229.7498 54.096103,299.4205 c 3.088807,12.25201 3.124176,12.96267 0.709447,14.255 -2.192327,1.1733 -2.845045,0.33773 -4.751758,-6.08287 z"
       id="path1055"
       transform="matrix(0.26458333,0,0,0.26458333,57.427285,70.189195)" />
    <path
       style="display:inline;opacity:1;fill:#ffffff;fill-rule:evenodd;stroke:none;stroke-width:2.69966;stroke-linecap:round;paint-order:stroke fill markers"
       d="m 447.65941,313.48917 c -2.05934,-1.15247 -1.9604,-2.59591 1.02428,-14.94181 21.98318,-90.93235 -21.98642,-185.3543 -105.9559,-227.533637 -11.26985,-5.66104 -27.29251,-11.686703 -38.79922,-14.591274 -5.14777,-1.299422 -6.07143,-2.084794 -6.07143,-5.162448 0,-3.350458 0.35739,-3.55197 4.64286,-2.617837 36.5734,7.97216 79.5238,34.289062 106.28222,65.122056 44.96112,51.80746 61.74205,120.06732 46.04434,187.29464 -1.60372,6.86808 -3.35949,12.76161 -3.90172,13.09673 -0.54223,0.33511 -2.01165,0.0353 -3.26543,-0.66642 z"
       id="path1094"
       transform="matrix(0.26458333,0,0,0.26458333,57.427285,70.189195)" />
    <path
       style="display:inline;opacity:1;fill:#ffffff;fill-rule:evenodd;stroke:none;stroke-width:2.69966;stroke-linecap:round;paint-order:stroke fill markers"
       d=""
       id="path1133"
       transform="matrix(0.26458333,0,0,0.26458333,57.427285,70.189195)" />
    <path
       inkscape:connector-curvature="0"
       style="color:#000000;font-style:normal;font-variant:normal;font-weight:normal;font-stretch:normal;font-size:medium;line-height:normal;font-family:sans-serif;font-variant-ligatures:normal;font-variant-position:normal;font-variant-caps:normal;font-variant-numeric:normal;font-variant-alternates:normal;font-feature-settings:normal;text-indent:0;text-align:start;text-decoration:none;text-decoration-line:none;text-decoration-style:solid;text-decoration-color:#000000;letter-spacing:normal;word-spacing:normal;text-transform:none;writing-mode:lr-tb;direction:ltr;text-orientation:mixed;dominant-baseline:auto;baseline-shift:baseline;text-anchor:start;white-space:normal;shape-padding:0;clip-rule:nonzero;display:inline;overflow:visible;visibility:visible;opacity:1;isolation:auto;mix-blend-mode:normal;color-interpolation:sRGB;color-interpolation-filters:linearRGB;solid-color:#000000;solid-opacity:1;vector-effect:none;fill:#000000;fill-opacity:1;fill-rule:nonzero;stroke:none;stroke-width:10.9919;stroke-linecap:round;stroke-linejoin:bevel;stroke-miterlimit:4;stroke-dasharray:none;stroke-dashoffset:341.41;stroke-opacity:1;paint-order:markers stroke fill;color-rendering:auto;image-rendering:auto;shape-rendering:auto;text-rendering:auto;enable-background:accumulate"
       d="m 123.97619,70.189195 c -36.688665,0 -66.548905,29.860245 -66.548905,66.548905 0,36.68866 29.86024,66.5489 66.548905,66.5489 36.68866,0 66.54891,-29.86024 66.54891,-66.5489 0,-36.68866 -29.86025,-66.548905 -66.54891,-66.548905 z m 0,10.992088 c 2.44856,0 4.85859,0.158935 7.2223,0.464053 V 88.5798 l 1.91048,0.363273 c 5.08542,0.966179 9.95,2.727219 14.49575,5.248275 v -0.0026 c 4.83918,2.68404 9.16414,6.149842 12.85555,10.298592 3.90123,4.38481 6.9459,9.35842 9.05473,14.79703 v 0.003 h 0.003 c 2.18728,5.63467 3.29491,11.57264 3.29491,17.67798 0,5.59517 -0.93308,11.05347 -2.76728,16.25587 l -0.64648,1.83554 5.77072,3.35122 c -1.89585,4.48836 -4.36586,8.67142 -7.31533,12.46177 l -5.73712,-3.32849 -1.27537,1.4609 c -4.15132,4.76486 -9.28479,8.77808 -14.87454,11.6055 l -0.003,0.003 c -3.34703,1.69637 -6.89134,3.00151 -10.5296,3.87522 -3.74782,0.90103 -7.62224,1.36477 -11.5135,1.36477 -3.88673,0 -7.76044,-0.45892 -11.49802,-1.35909 h -0.003 c -3.63763,-0.87357 -7.17537,-2.17768 -10.52545,-3.86902 -5.584398,-2.82155 -10.718452,-6.82218 -14.861113,-11.5781 l -1.273836,-1.46296 -5.663221,3.2887 c -2.949672,-3.79056 -5.418949,-7.97347 -7.314715,-12.46162 l 5.692669,-3.3042 -0.652674,-1.83761 c -1.84703,-5.21475 -2.784819,-10.69321 -2.784819,-16.30082 0,-6.11251 1.107017,-12.05711 3.300571,-17.69761 h 0.0026 v -0.003 c 2.115397,-5.45176 5.165011,-10.42598 9.08005,-14.8182 3.704246,-4.15499 8.03537,-7.611691 12.888618,-10.296524 4.5516,-2.514177 9.42978,-4.266724 14.52936,-5.226553 l 1.9141,-0.361738 v -6.916943 c 2.36373,-0.305117 4.7743,-0.464052 7.22286,-0.464052 z m -11.92176,1.279499 v 2.365242 c -4.88503,1.108922 -9.6126,2.778919 -14.015694,5.211048 l -0.0026,0.0026 c -5.313469,2.93923 -10.068798,6.733249 -14.123168,11.280958 -4.281725,4.80357 -7.63516,10.27152 -9.953387,16.24605 -2.403924,6.18207 -3.623045,12.71728 -3.623045,19.3988 0,5.46135 0.945753,10.79683 2.554896,15.9453 l -1.768898,1.0268 c -1.75305,-5.413 -2.703698,-11.19182 -2.703698,-17.19895 0,-26.65362 18.642753,-48.839966 43.635054,-54.277312 z m 23.84351,0 c 24.99218,5.437425 43.63456,27.623798 43.63456,54.277318 0,6.00749 -0.95046,11.78668 -2.70373,17.19998 l -1.85467,-1.07694 c 1.59697,-5.13302 2.5368,-10.44924 2.5368,-15.89619 0,-6.67496 -1.21674,-13.20287 -3.61321,-19.37711 v -0.003 c -2.31111,-5.95968 -5.65766,-11.42595 -9.9255,-16.22279 -4.04016,-4.5407 -8.78721,-8.342895 -14.08803,-11.283025 -4.39656,-2.43832 -9.11238,-4.11472 -13.98622,-5.230177 z m 27.04487,90.992378 1.81797,1.05524 c -10.1382,10.94574 -24.64144,17.78651 -40.78459,17.78651 -16.14342,0 -30.646905,-6.84096 -40.785103,-17.78701 l 1.657773,-0.96327 c 4.29305,4.57777 9.364107,8.45854 14.927766,11.26961 v 0.003 c 3.669404,1.85256 7.547534,3.28406 11.545044,4.24418 4.10342,0.98827 8.34443,1.48828 12.59975,1.48828 4.26447,0 8.50423,-0.50866 12.6111,-1.49603 3.99692,-0.95983 7.88233,-2.39075 11.55485,-4.25194 5.56435,-2.81456 10.56196,-6.77151 14.85544,-11.34763 z"
       id="circle1064"
       inkscape:export-filename="C:\Users\Jesse\circle1064.png"
       inkscape:export-xdpi="57.251118"
       inkscape:export-ydpi="57.251118" />
    <path
       style="display:inline;opacity:1;fill:#f2bd0a;fill-opacity:1;stroke-width:0.264999;stroke-dasharray:none"
       d="m 75.859394,128.41615 96.402246,1.00258"
       id="path8" />
    <path
       style="opacity:1;fill:#ffffff;fill-opacity:0.992157;stroke-width:0.0364929;stroke-dasharray:none"
       d="m 342.00826,433.77397 -0.21212,-0.15168 0.28499,-0.14195 c 0.69751,-0.34741 3.00164,-1.54278 3.96498,-2.05701 4.43492,-2.36735 8.8544,-4.97219 13.16037,-7.75673 0.44482,-0.28764 0.81852,-0.52299 0.83047,-0.52299 0.0268,0 0.41939,0.28831 0.41939,0.308 0,0.0364 -3.19649,2.05321 -4.86414,3.06899 -2.29378,1.39715 -5.29801,3.12858 -7.9065,4.55674 -1.58035,0.86526 -5.37585,2.85343 -5.44026,2.84974 -0.0138,-7.9e-4 -0.12052,-0.0697 -0.23718,-0.15311 z"
       id="path11"
       transform="matrix(0.26458333,0,0,0.26458333,57.427285,70.189195)" />
    <path
       style="opacity:1;fill:#ffffff;fill-opacity:0.992157;stroke-width:0.0364929;stroke-dasharray:none"
       d="m 347.56625,437.72652 -0.4838,-0.3525 0.1741,-0.0873 c 0.98034,-0.4915 4.10171,-2.16681 6.00378,-3.22236 4.3556,-2.41712 7.84473,-4.5141 11.40082,-6.85191 l 0.57905,-0.38068 0.45915,0.32822 c 0.25253,0.18052 0.47349,0.34141 0.49103,0.35753 0.0347,0.0319 -0.23232,0.21005 -2.01762,1.34547 -4.46769,2.84137 -9.03363,5.50608 -13.72194,8.00821 -1.63574,0.87299 -2.29265,1.21112 -2.34949,1.20938 -0.0282,-8.6e-4 -0.26898,-0.1602 -0.53508,-0.35407 z"
       id="path12"
       transform="matrix(0.26458333,0,0,0.26458333,57.427285,70.189195)" />
    <path
       style="opacity:1;fill:#ffffff;fill-opacity:0.992157;stroke-width:0.0110659;stroke-dasharray:none"
       d="m 137.74239,76.089273 c -0.15258,-0.08438 -0.22621,-0.120567 -0.32586,-0.160129 -0.16234,-0.06445 -0.36723,-0.168922 -0.43602,-0.222311 -0.0684,-0.05306 -0.13036,-0.133326 -0.13925,-0.18029 -0.005,-0.02762 -4.6e-4,-0.03544 0.0359,-0.05893 0.0231,-0.0149 0.26814,-0.173481 0.54463,-0.352411 4.0234,-2.603737 8.22092,-5.117537 12.42461,-7.440821 l 0.45351,-0.250646 h 0.33922 0.33923 l -3.7e-4,0.339743 -3.7e-4,0.339743 -0.38909,0.214812 c -3.9251,2.166988 -8.21409,4.772759 -12.14282,7.377351 -0.35138,0.232955 -0.64223,0.423041 -0.64634,0.422413 -0.004,-6.28e-4 -0.0297,-0.01346 -0.057,-0.02852 z"
       id="path14"
       transform="matrix(0.26458333,0,0,0.26458333,57.427285,70.189195)" />
    <path
       style="opacity:1;fill:#ffffff;fill-opacity:0.992157;stroke-width:0.0110659;stroke-dasharray:none"
       d="m 143.95521,80.440533 c -0.073,-0.05862 -0.15075,-0.121626 -0.17274,-0.140023 l -0.04,-0.03345 0.15698,-0.09826 c 3.06642,-1.919457 6.75988,-4.0804 10.04542,-5.877301 l 0.37565,-0.205448 0.003,0.228453 c 0.002,0.12565 -8.4e-4,0.232259 -0.006,0.236911 -0.005,0.0047 -0.19248,0.109882 -0.41731,0.233845 -3.24864,1.791112 -6.94614,3.96082 -9.72353,5.705806 l -0.0892,0.05604 z"
       id="path15"
       transform="matrix(0.26458333,0,0,0.26458333,57.427285,70.189195)" />
    <path
       style="opacity:1;fill:#ffffff;fill-opacity:0.992157;stroke-width:0.0156496;stroke-dasharray:none"
       d="m 150.98437,67.750317 v -0.335621 l -0.32408,-0.0042 -0.32408,-0.0042 0.3983,-0.217152 c 1.38746,-0.756436 2.8434,-1.53146 4.06452,-2.163616 0.27328,-0.141473 0.31144,-0.157104 0.34884,-0.142885 0.12211,0.04642 0.31704,0.231274 0.42571,0.403688 0.0362,0.05739 0.0924,0.135142 0.125,0.172789 0.0326,0.03765 0.0612,0.0735 0.0637,0.07968 0.002,0.0062 -0.089,0.0591 -0.20313,0.11761 -1.09542,0.561454 -2.7305,1.429505 -3.97688,2.1113 -0.32001,0.17505 -0.58544,0.318272 -0.58984,0.318272 -0.004,0 -0.008,-0.151029 -0.008,-0.33562 z"
       id="path16"
       transform="matrix(0.26458333,0,0,0.26458333,57.427285,70.189195)" />
    <path
       style="opacity:1;fill:#ffffff;fill-opacity:0.992157;stroke-width:0.0110659;stroke-dasharray:none"
       d="m 154.32631,74.315917 2.5e-4,-0.235433 0.15719,-0.08422 c 0.0865,-0.04632 0.34115,-0.183623 0.56598,-0.305112 1.93738,-1.046847 4.14606,-2.190276 6.11328,-3.164834 0.45157,-0.223704 0.82729,-0.406735 0.83493,-0.406735 0.008,0 0.0395,0.01864 0.0708,0.04143 0.0313,0.02279 0.0821,0.05883 0.11288,0.0801 0.0308,0.02127 0.0805,0.05607 0.11037,0.07734 0.0299,0.02127 0.0703,0.04963 0.0899,0.06304 l 0.0356,0.02437 -0.20355,0.0979 c -1.46629,0.70523 -3.68943,1.821547 -5.14778,2.584882 -0.857,0.44858 -2.53969,1.346615 -2.73175,1.457909 -0.005,0.0026 -0.008,-0.101143 -0.008,-0.230632 z"
       id="path17"
       transform="matrix(0.26458333,0,0,0.26458333,57.427285,70.189195)" />
    <path
       style="font-size:39.511px;line-height:0;font-family:Bungee;-inkscape-font-specification:Bungee;stroke:#ffffff;stroke-width:0.767"
       d="m 119.82753,151.25839 h -18.80724 q -0.7507,0 -1.106296,-0.31609 -0.31609,-0.3556 -0.31609,-1.1063 v -6.7959 q 0,-2.29163 0.434616,-3.75354 0.47413,-1.50142 1.30386,-2.44968 0.82973,-0.94827 1.97555,-1.50142 1.14582,-0.55316 2.4892,-0.94827 l 5.29447,-1.65946 q 0.63218,-0.15804 0.82973,-0.47413 0.23707,-0.31609 0.23707,-0.94826 0,-0.59267 -0.23707,-0.79022 -0.23707,-0.23707 -0.82973,-0.23707 h -8.57389 q -0.75071,0 -1.10631,-0.31609 -0.31608,-0.3556 -0.31608,-1.10631 v -4.62278 q 0,-0.75071 0.31608,-1.0668 0.3556,-0.3556 1.10631,-0.3556 h 11.65575 q 3.35843,0 5.13643,1.69897 1.8175,1.65947 1.8175,4.85986 v 3.71403 q 0,2.96333 -1.65946,4.54377 -1.65946,1.58044 -4.50425,2.44968 l -5.3735,1.69897 q -0.59266,0.15805 -0.82973,0.3556 -0.19755,0.19756 -0.19755,0.82973 v 0.82973 h 11.26063 q 0.75071,0 1.0668,0.3556 0.3556,0.31609 0.3556,1.0668 v 4.62279 q 0,0.7507 -0.3556,1.1063 -0.31609,0.31609 -1.0668,0.31609 z m 18.80724,0 h -9.08753 q -0.75071,0 -1.10631,-0.31609 -0.31609,-0.3556 -0.31609,-1.1063 v -4.6623 q 0,-0.75071 0.31609,-1.0668 0.3556,-0.3556 1.10631,-0.3556 h 7.38855 q 1.46191,0 1.97555,-0.43462 0.51365,-0.47413 0.51365,-1.93604 v -0.86924 q -0.94827,0.27658 -2.21262,0.43462 -1.22484,0.15804 -2.80528,0.15804 -5.33399,0 -7.30954,-1.77799 -1.97555,-1.81751 -1.97555,-5.33399 v -3.79305 q 0,-1.81751 0.47414,-3.27942 0.51364,-1.4619 1.77799,-2.48919 1.30386,-1.0668 3.51648,-1.61995 2.21262,-0.59266 5.61056,-0.59266 3.63501,0 5.92665,0.59266 2.33115,0.55315 3.63501,1.61995 1.30387,1.02729 1.778,2.48919 0.51364,1.46191 0.51364,3.27942 v 12.95961 q 0,3.5955 -2.09408,5.84762 -2.05457,2.25213 -7.62562,2.25213 z m 0.79022,-18.09604 v -2.33115 q 0,-0.63217 -0.47414,-1.02728 -0.47413,-0.43462 -2.1731,-0.43462 -1.778,0 -2.25213,0.43462 -0.47413,0.39511 -0.47413,1.02728 v 2.33115 q 0,0.59267 0.47413,1.02729 0.47413,0.39511 2.25213,0.39511 1.69897,0 2.1731,-0.39511 0.47414,-0.43462 0.47414,-1.02729 z"
       id="text1"
       aria-label="29" />
    <path
       d="m 122.23629,119.7167 h -3.0988 q -1.5875,0 -2.3622,-0.635 -0.762,-0.635 -0.762,-1.9558 v -3.9497 q 0,-1.3208 0.762,-1.9558 0.7747,-0.6477 2.3622,-0.6477 h 3.0988 q 0.2413,0 0.3429,0.1143 0.1143,0.1016 0.1143,0.3429 v 1.5367 q 0,0.2413 -0.1143,0.3556 -0.1016,0.1016 -0.3429,0.1016 h -2.5527 q -0.3937,0 -0.5842,0.1651 -0.1905,0.1524 -0.1905,0.4699 v 3.0226 q 0,0.3175 0.1905,0.4699 0.1905,0.1397 0.5842,0.1397 h 2.5527 q 0.2413,0 0.3429,0.1143 0.1143,0.1016 0.1143,0.3429 v 1.5113 q 0,0.2413 -0.1143,0.3556 -0.1016,0.1016 -0.3429,0.1016 z m 4.2545,0 h -1.905 q -0.2413,0 -0.3556,-0.1016 -0.1016,-0.1143 -0.1016,-0.3556 v -8.2296 q 0,-0.2413 0.1016,-0.3429 0.1143,-0.1143 0.3556,-0.1143 h 1.3208 q 0.2413,0 0.4064,0.0762 0.1778,0.0762 0.3429,0.2667 l 2.4638,2.8194 v -2.7051 q 0,-0.2413 0.1016,-0.3429 0.1143,-0.1143 0.3556,-0.1143 h 1.905 q 0.2413,0 0.3429,0.1143 0.1143,0.1016 0.1143,0.3429 v 8.2296 q 0,0.2413 -0.1143,0.3556 -0.1016,0.1016 -0.3429,0.1016 h -1.905 q -0.2413,0 -0.3556,-0.1016 -0.1016,-0.1143 -0.1016,-0.3556 v -1.5621 l -2.1717,-2.6289 v 4.191 q 0,0.2413 -0.1143,0.3556 -0.1016,0.1016 -0.3429,0.1016 z"
       id="text3"
       style="font-size:48px;line-height:0;font-family:Bungee;-inkscape-font-specification:Bungee;white-space:pre;stroke:#ffffff;stroke-width:0.767001"
       inkscape:label="CN"
       aria-label="CN" />
  </g>
</svg>
