<?xml version="1.0" encoding="UTF-8"?>
<svg width="133.1" height="122.82" version="1.1" xmlns="http://www.w3.org/2000/svg" xmlns:cc="http://creativecommons.org/ns#" xmlns:dc="http://purl.org/dc/elements/1.1/" xmlns:rdf="http://www.w3.org/1999/02/22-rdf-syntax-ns#">
 <title>Site-ZH-16</title>
 <metadata>
  <rdf:RDF>
   <cc:Work rdf:about="">
    <dc:title>Site-ZH-16</dc:title>
   </cc:Work>
  </rdf:RDF>
 </metadata>
 <g transform="translate(-16.267 -828.25)">
  <g fill="#8ab6cb" fill-rule="evenodd" stroke="#8ab6cb">
   <path transform="translate(16.267 828.25)" d="m8.5882 87.338-2.8478-4.9394 7.222-6.8893-0.14942-8.7633c-0.11811-6.9271 0.15703-9.9485 1.3132-14.42 4.3776-16.931 15.651-30.302 31.345-37.177l3.9126-1.7139 1.9101-9.8995 12.346-0.40861v9.2474h-2.4749c-1.3612 0-2.4749 0.134-2.4749 0.29779 0 0.16378 1.5753 3.0254 3.5006 6.3593 3.3548 5.809 3.4358 6.0732 1.9445 6.3434-0.85584 0.15505-3.4556 0.63232-5.7772 1.0606-13.893 2.5628-26.742 14.757-30.368 28.821-2.0901 8.1064-1.0752 21.055 2.137 27.267l1.0218 1.9759h-7.5184c-6.8831 0-7.4754 0.10457-7.009 1.2374 1.242 3.0169 1.1072 3.4232-1.6496 4.9726-1.5346 0.86249-2.958 1.5682-3.1631 1.5682-0.20511 0-1.6544-2.2227-3.2207-4.9394z" stop-color="#000000" stroke-width="2.8284" style="paint-order:stroke fill markers"/>
   <path transform="translate(16.267 828.25)" d="m118.81 91.17c-1.8219-1.0549-3.3125-2.0507-3.3125-2.213 0-0.16232 0.44557-1.0628 0.99017-2.001l0.99016-1.7059-7.3445-0.125c-4.0395-0.06875-7.411-0.19154-7.4922-0.27288-0.0812-0.08133 0.25482-1.019 0.74674-2.0837 1.1035-2.3885 2.4031-6.3233 3.0199-9.1434 0.38206-1.7469 0.46264-3.1703 0.45291-8-0.0129-6.4281-0.22911-7.899-1.892-12.875-4.9823-14.909-19.321-26.011-34.915-27.033l-2.5307-0.16585 0.40051-0.77574c0.22028-0.42666 1.8459-3.2799 3.6124-6.3406s3.2119-5.6763 3.2119-5.8125c0-0.14522-0.93077-0.24767-2.25-0.24767h-2.25v-9.25h12.678l1.1873 4.9375c0.65301 2.7156 1.3161 5.0702 1.4736 5.2324 0.15746 0.16219 1.7488 0.95447 3.5363 1.7606 9.8614 4.4475 17.685 11.083 23.662 20.069 4.5728 6.875 7.7714 15.825 8.7112 24.375 0.3058 2.7822 0.30674 8.8636 2e-3 11.375-0.12524 1.0312-0.30272 2.5599-0.3944 3.397l-0.16668 1.522 2.0929 1.82c1.1511 1.001 2.8564 2.4927 3.7897 3.3147l1.6968 1.4947-1.0396 1.9133c-1.6648 3.0639-5.0728 8.79-5.2196 8.7698-0.074-0.0102-1.6251-0.8816-3.447-1.9365z" stop-color="#000000" style="paint-order:stroke fill markers"/>
   <path transform="translate(16.267 828.25)" d="m59.75 119.49c-9.2941-1.291-17.911-4.8734-25.823-10.736-3.4322-2.5432-2.6635-2.5125-8.5521-0.3417-3.7051 1.3659-4.0232 1.4427-4.3159 1.0425-0.57136-0.78138-6.0592-10.293-6.0592-10.502 0-0.2847 6.5354-4.333 6.7654-4.1908 0.10294 0.06362 0.71671 1.0189 1.3639 2.1229 0.89872 1.533 1.2518 1.945 1.4943 1.7437 0.17464-0.14494 1.0765-1.5826 2.0042-3.1948 4.1009-7.1273 5.4514-9.3251 5.6128-9.1349 0.09503 0.11197 0.71862 0.99108 1.3858 1.9536 6.3731 9.1948 15.593 15.181 26.355 17.112 3.5111 0.63003 9.7461 0.69791 13.144 0.14311 8.5172-1.3908 15.575-4.9204 21.718-10.861 2.2597-2.1852 5.1956-5.7558 6.1951-7.534 0.30475-0.54223 0.61775-0.9833 0.69556-0.98015 0.0778 0.0031 1.604 2.5494 3.3915 5.6584 3.3125 5.7614 3.9996 6.8358 4.3713 6.8358 0.11549 0 0.69796-0.84237 1.2944-1.8719 0.5964-1.0296 1.1742-1.8733 1.284-1.875 0.36093-0.0055 6.9159 3.8668 6.9207 4.0884 5e-3 0.2209-5.4952 9.6546-6.1203 10.498-0.33002 0.44514-0.53664 0.40669-5.0471-0.9391-2.5866-0.77179-4.8535-1.4025-5.0375-1.4016-0.18401 8.7e-4 -1.4778 0.82879-2.875 1.8398-7.4241 5.3719-14.705 8.5049-23.665 10.183-3.7813 0.70811-12.555 0.88989-16.5 0.34187z" stop-color="#000000" style="paint-order:stroke fill markers"/>
  </g>
  <g fill-rule="evenodd" stroke-linejoin="round" stroke-miterlimit="10">
   <circle cx="82.816" cy="893.66" r="36.59" fill="#fff" stop-color="#000000" stroke-width="13.068" style="paint-order:stroke fill markers"/>
   <ellipse cx="83.166" cy="901.19" rx="28.299" ry="27" fill="#005b96" stop-color="#000000" stroke-width="9.8721" style="paint-order:stroke fill markers"/>
   <circle cx="82.816" cy="911.25" r="19" fill="#daeff0" stop-color="#000000" stroke-width="6.7857" style="paint-order:stroke fill markers"/>
  </g>
  <path d="m79.376 951.6c-0.27699-0.0312-1.2159-0.12615-2.0864-0.21087-9.0653-0.88235-18.437-4.2152-26.128-9.2923-0.99582-0.65735-2.4453-1.6785-3.2211-2.2692l-1.4106-1.074-1.3114 0.47892c-3.228 1.1789-7.8338 2.8581-8.3234 3.0346l-0.53697 0.19359-0.5243-0.89201c-2.8674-4.8783-18.618-32.161-18.618-32.249 0-0.0189 1.8454-1.7365 4.1009-3.8166 2.434-2.2448 4.1008-3.8866 4.1008-4.0394 0-0.14157-0.10459-1.1539-0.23242-2.2496-0.28181-2.4156-0.32055-8.7202-0.06787-11.057 0.20995-1.9423 1.0128-6.5204 1.5015-8.5614 2.9189-12.192 10.207-23.685 20.028-31.585 4.2451-3.4143 9.3056-6.4264 14.281-8.5002 0.956-0.39847 1.3574-0.6405 1.41-0.85023 0.04047-0.16127 0.4751-2.5586 0.96583-5.3274l0.89224-5.0341 19.058-0.0365c10.482-0.0201 19.104 0.0123 19.161 0.072 0.0569 0.0595 0.59817 2.31 1.2026 5.0007 0.60444 2.6907 1.1594 5.1228 1.2333 5.4046 0.11753 0.44837 0.23786 0.55451 0.96346 0.8496 1.4874 0.60495 4.8189 2.2682 6.6536 3.3218 12.182 6.9962 21.566 18.5 26.049 31.936 1.3604 4.0767 2.2801 8.2775 2.7566 12.59 0.28719 2.5997 0.24476 10.561-0.0688 12.902-0.13426 1.0022-0.2441 1.9138-0.2441 2.026s1.8486 1.7462 4.108 3.6313c3.0434 2.5393 4.0855 3.4871 4.0212 3.6577-0.12502 0.33152-18.831 32.779-18.987 32.935-0.0263 0.0263-2.4518-0.70214-5.3898-1.6188l-5.3419-1.6667-1.9344 1.406c-7.8303 5.6916-17.27 9.3494-27.413 10.622-1.695 0.21272-9.4162 0.40722-10.648 0.26826zm7.4128-3.3745c3.7836-0.24563 8.1932-1.0094 11.725-2.0307 6.425-1.8582 13.373-5.3795 18.483-9.3671 0.98876-0.7716 1.8804-1.4027 1.9815-1.4024 0.10104 2.9e-4 2.3093 0.64781 4.9072 1.4389s4.8335 1.4383 4.9679 1.4383c0.23313 0 0.91252-1.1162 5.5402-9.102 1.2244-2.1128 1.2289-2.1244 0.91337-2.3216-0.17441-0.10897-1.6445-0.95684-3.2668-1.8841-1.6224-0.92725-3.1524-1.8094-3.4002-1.9602l-0.45047-0.27434-1.0872 1.9076c-0.59794 1.0492-1.1735 2.0238-1.2789 2.1658-0.17111 0.23035-0.58656-0.42664-3.8563-6.0984-2.0155-3.4961-3.7324-6.4493-3.8153-6.5627-0.1189-0.16261-0.33188 0.0872-1.0091 1.1834-2.4297 3.933-6.0209 7.844-9.8152 10.689-5.6096 4.2066-11.656 6.6957-18.814 7.7446-2.1483 0.31484-7.7508 0.35967-10 0.0801-11.75-1.4607-22.267-7.9437-28.641-17.655-0.62332-0.94966-1.2211-1.8506-1.3285-2.0022-0.20448-0.28872-0.30824-0.11861-6.5177 10.685-1.1176 1.9445-1.2906 2.1775-1.452 1.9566-0.10083-0.13789-0.67347-1.1128-1.2725-2.1665-0.59907-1.0537-1.1525-1.9549-1.2298-2.0027-0.12013-0.0742-1.2293 0.60203-6.4248 3.9171l-0.74975 0.47839 0.98269 1.6899c3.7349 6.4229 5.5147 9.4676 5.5628 9.5167 0.03061 0.0312 0.33229-0.0468 0.67039-0.17339 6.8606-2.5686 8.9359-3.2675 9.1777-3.0905 0.13938 0.10203 1.054 0.80652 2.0325 1.5655 10.889 8.4472 23.977 12.512 37.466 11.637zm8.2339-25.086c2.1834-2.334 3.3807-5.3462 3.5836-9.0151 0.05048-0.91286 0.04555-2.0298-0.01101-2.4821l-0.10274-0.82235h-2.3735c-2.1917 0-2.3681 0.0192-2.3022 0.25181 0.19874 0.702 0.24116 2.1448 0.10023 3.4087-0.26688 2.3934-1.0098 4.154-2.4041 5.6974-0.4547 0.5033-0.49284 0.60147-0.3197 0.82278 0.46731 0.59731 2.775 3.0572 2.8681 3.0572 0.05627 0 0.48887-0.41324 0.96134-0.91831zm-21.337-1.1438c0.79508-0.69887 1.4632-1.3184 1.4848-1.3767 0.02157-0.0582-0.25207-0.54947-0.60809-1.0915-1.4159-2.1557-2.0238-4.3942-1.9213-7.0739l0.06255-1.6337h-4.6609l-0.09666 1.1871c-0.28623 3.5148 0.98437 7.7484 3.2387 10.791 0.51795 0.69912 0.64502 0.79771 0.83321 0.64656 0.12213-0.0981 0.87257-0.75014 1.6677-1.449zm-42.195-2.6347c1.8436-1.1664 3.3762-2.138 3.4057-2.1592 0.02955-0.0211-0.4341-0.88293-1.0304-1.9152l-1.0841-1.8768h7.6133c4.1873 0 7.6133-0.0338 7.6133-0.0752s-0.26833-0.6079-0.59629-1.259c-1.9466-3.8649-3.3332-8.4187-3.9531-12.983-0.34446-2.5363-0.34652-7.6437-0.0041-10.132 1.216-8.8352 4.9302-16.542 10.953-22.729 2.3604-2.4245 4.0691-3.8606 6.622-5.5657 5.3049-3.5431 11.243-5.7186 17.626-6.4576 1.0684-0.1237 2.4189-0.22498 3.0011-0.22507 0.78875-1.3e-4 1.0405-0.046 0.98763-0.18004-0.03903-0.0989-1.7295-3.0515-3.7565-6.5613-2.0271-3.5098-3.6856-6.4074-3.6856-6.439 0-0.0317 1.1008-0.0575 2.4461-0.0575h2.4461v-9.4967h-6.3946c-3.517 0-6.4242 0.0485-6.4604 0.10787-0.03619 0.0594-0.43687 2.2123-0.8904 4.7843s-0.8766 4.8148-0.94016 4.9838c-0.0795 0.2115-0.44419 0.43074-1.1685 0.70249-11.095 4.1627-20.577 11.719-26.933 21.463-6.4663 9.9137-9.4764 21.212-8.8866 33.356 0.08072 1.6619 0.25683 3.7339 0.39137 4.6045 0.13454 0.87053 0.2511 1.6833 0.25904 1.806 0.01013 0.1558-6.5353 6.4902-7.6658 7.4186-0.0297 0.0244 1.3873 2.5435 3.1489 5.598 2.1547 3.736 3.2651 5.5298 3.3929 5.4807 0.10449-0.04 1.6984-1.0272 3.542-2.1937zm110.4-3.1463c1.7152-2.9683 3.0976-5.4857 3.0722-5.5942-0.0255-0.10852-1.5356-1.4416-3.3558-2.9624-4.2008-3.51-4.4176-3.7106-4.33-4.0081 0.0388-0.13222 0.20071-1.1145 0.35954-2.1829 0.81802-5.5029 0.74668-11.537-0.20326-17.195-2.9216-17.4-14.055-32.366-29.856-40.135-1.3058-0.642-3.0864-1.4479-3.957-1.7909-0.87054-0.34299-1.6608-0.69779-1.7561-0.78846-0.0954-0.0907-0.63176-2.1495-1.1921-4.5752-0.56032-2.4256-1.1003-4.6919-1.1999-5.0361l-0.18118-0.62583-13.009-0.0748v9.4927l2.3653 0.0394 2.3653 0.0395-3.7323 6.463c-2.0527 3.5546-3.7323 6.507-3.7323 6.5607 0 0.0538 0.85794 0.13656 1.9065 0.18396 5.3656 0.24255 10.62 1.6362 15.648 4.1508 10.462 5.2317 18.008 14.586 20.935 25.952 0.8987 3.4892 1.1424 5.5671 1.1473 9.7845 3e-3 2.3742-0.0661 4.2406-0.18835 5.1081-0.65715 4.6603-1.8874 8.7493-3.8096 12.662-0.40821 0.83095-0.76464 1.5594-0.79205 1.6188-0.0275 0.0593 3.3835 0.10787 7.5797 0.10787h7.6296l-1.1412 1.9727c-0.62764 1.085-1.0932 2.0194-1.0347 2.0766 0.14981 0.14617 7.1366 4.1438 7.2505 4.1485 0.0513 2e-3 1.4967-2.4247 3.2119-5.393zm-79.012 1.6918c-0.73229-2.3986-0.99115-6.4343-0.57923-9.0304 1.0861-6.845 5.34-12.676 11.512-15.779 1.4942-0.7513 4.1885-1.6372 5.6355-1.853 0.63311-0.0945 1.2321-0.19428 1.331-0.22189 0.14024-0.0391 0.17986-1.3825 0.17986-6.0981v-6.0479h-0.33437c-0.1839 0-0.94472 0.10401-1.6907 0.23118-3.9403 0.67162-8.3625 2.6687-11.405 5.1506-0.46182 0.37671-0.85994 0.6635-0.88472 0.63732-0.11846-0.1253-0.77665-5.0791-0.68403-5.1483 3.3035-2.4691 8.6469-4.6255 12.84-5.1818 0.67268-0.0892 1.4335-0.1947 1.6907-0.23434l0.46764-0.0721v-12.793h-0.52112c-1.8732 0-6.39 1.0418-9.0676 2.0914-10.645 4.1726-18.243 13.438-20.351 24.816-0.44204 2.3863-0.5468 7.1463-0.2147 9.7554 0.28245 2.2191 0.85777 4.6745 1.5796 6.7415 0.5431 1.5552 1.4902 3.7304 1.5822 3.6338 0.03042-0.0319-0.0139-0.44657-0.09849-0.92141-0.25556-1.4343-0.20606-6.3778 0.08234-8.2239 0.29444-1.8847 1.0432-4.6996 1.6678-6.2702 1.1683-2.9377 3.0522-6.0922 5.0343-8.4298 1.1744-1.385 1.0177-1.5439 1.4627 1.4844 0.53424 3.6361 0.5539 3.2233-0.21206 4.4522-2.7294 4.3792-4.0581 9.8191-3.6654 15.007 0.25099 3.3159 0.95283 5.9652 2.3647 8.9262 0.67752 1.4209 2.2539 4.0616 2.4247 4.0616 0.0336 0-0.0328-0.30756-0.14757-0.68347zm41.435-0.72429c1.6057-2.5728 2.8267-5.6508 3.4101-8.5969 0.39707-2.0052 0.53827-5.6558 0.2956-7.6425-0.48601-3.9787-1.9023-7.8323-4.0586-11.043l-0.85897-1.2789 0.53008-2.4622c0.29155-1.3542 0.57471-2.5839 0.62927-2.7328 0.0843-0.22983 0.2276-0.12524 0.9524 0.695 2.092 2.3674 3.8409 5.1202 5.0699 7.98 2.1607 5.0279 2.8553 10.358 2.1113 16.201-0.0649 0.5097-7e-3 0.43557 0.51519-0.64749 1.2034-2.5012 2.1708-5.7834 2.6718-9.065 0.34681-2.272 0.34739-6.7786 1e-3 -9.1298-1.595-10.831-8.2619-19.997-18.006-24.754-2.4129-1.178-4.3055-1.8788-6.547-2.4242-1.6273-0.39592-4.2462-0.81543-5.0906-0.81543h-0.52112v12.801l0.32375 0.0657c0.17806 0.036 0.71225 0.10434 1.1871 0.15168 2.7086 0.2701 6.5362 1.4243 9.283 2.7993 1.9915 0.99691 4.0284 2.266 4.0231 2.5066-7e-3 0.33028-0.95674 4.5558-1.0431 4.6421-0.04873 0.0486-0.36733-0.13785-0.70801-0.4146-1.6178-1.3143-4.1906-2.7661-6.4443-3.6365-1.7792-0.68713-5.2541-1.5042-6.3973-1.5042-0.19951 0-0.22425 0.66642-0.22425 6.0406v6.0406l0.32375 0.0643c0.17806 0.0354 0.90131 0.17164 1.6072 0.30276 6.336 1.1768 12.046 5.5868 14.919 11.523 2.0992 4.3369 2.6606 9.6185 1.5087 14.195-0.17427 0.69247-0.28085 1.2568-0.23683 1.2542 0.044-3e-3 0.39187-0.50448 0.773-1.1151zm-28.691-11.663c2.2249-2.2597 4.9176-3.2961 8.1975-3.155 2.7913 0.12006 4.9246 1.0382 6.962 2.9964l1.0388 0.99847h2.6264c1.4445 0 2.6264-0.0513 2.6264-0.11394 0-0.0626-0.33284-0.66161-0.73964-1.331-0.9956-1.6382-3.4972-4.1196-5.1005-5.0592-1.4244-0.83478-2.9985-1.4744-4.394-1.7853-0.58366-0.13004-1.1421-0.25859-1.2411-0.28566-0.13217-0.0361-0.17986-0.54642-0.17986-1.9243v-1.8751h-4.6045v3.8164l-1.3147 0.32229c-3.2262 0.79083-6.4804 2.9566-8.452 5.625-0.65131 0.88152-1.6005 2.391-1.6005 2.5451 0 0.0361 1.2034 0.0656 2.6743 0.0656h2.6743z" stroke-width=".14389"/>
  <g stroke="#fff" stroke-width=".99907" aria-label="16">
   <path d="m80.02 903.58c0.98686 0 1.4211-0.43421 1.4211-1.4211v-4.7764c0-0.98686-0.43422-1.4211-1.4211-1.4211h-3.7895v-19.382c0-0.98686-0.43422-1.4211-1.4211-1.4211h-11.448c-0.98686 0-1.4211 0.43421-1.4211 1.4211v4.7764c0 0.98686 0.43422 1.4211 1.4211 1.4211h3.6316v13.184h-4.4211c-0.98686 0-1.4211 0.43422-1.4211 1.4211v4.7764c0 0.98686 0.43422 1.4211 1.4211 1.4211z"/>
   <path d="m97.112 904.17c9.0791 0 11.369-3.158 11.369-7.9738v-3.7895c0-4.6975-2.1316-7.1054-9.2765-7.1054-2.0921 0-3.7501 0.19737-5.0132 0.59211v-0.86843c0-1.9342 0.55264-2.3685 2.4869-2.3685h7.3817c0.98686 0 1.4211-0.43422 1.4211-1.4211v-4.658c0-0.98686-0.39474-1.4211-1.4211-1.4211h-9.0791c-7.4607 0-9.7107 3.2764-9.7107 8.0922v12.948c0 4.8159 2.1316 7.9738 11.842 7.9738zm-2.9211-10.934c0-0.78949 0.35527-1.4211 2.6448-1.4211 2.3685 0 2.7237 0.63159 2.7237 1.4211v2.329c0 0.82896-0.35527 1.4606-2.7237 1.4606-2.2895 0-2.6448-0.63159-2.6448-1.4606z"/>
  </g>
 </g>
</svg>
