<?xml version="1.0" encoding="UTF-8"?>
<svg width="133.1" height="123.93" version="1.1" xmlns="http://www.w3.org/2000/svg" xmlns:cc="http://creativecommons.org/ns#" xmlns:dc="http://purl.org/dc/elements/1.1/" xmlns:rdf="http://www.w3.org/1999/02/22-rdf-syntax-ns#">
 <title>Site-ZH-26</title>
 <metadata>
  <rdf:RDF>
   <cc:Work rdf:about="">
    <dc:title>Site-ZH-26</dc:title>
   </cc:Work>
  </rdf:RDF>
 </metadata>
 <g transform="translate(-5.9048 -14.242)">
  <g transform="matrix(.463 0 0 .463 123 18.425)">
   <path transform="translate(5.3333 14.797)" d="m-125 236.23c-19.776-2.4067-40.696-10.747-57.828-23.054-2.2428-1.6112-4.3755-2.9294-4.7393-2.9294s-6.2528 1.5947-13.087 3.5439c-6.8338 1.9491-12.491 3.4679-12.571 3.375-0.0805-0.0929-8.3141-14.322-18.297-31.619l-18.151-31.45 1.7115-1.4945c0.9413-0.82195 5.2782-5.0005 9.6376-9.2857l7.9262-7.7912-0.80115-7.0974c-0.93332-8.2683-0.99634-12.61-0.28673-19.752 3.5992-36.229 22.264-67.349 52.486-87.514 4.8913-3.2635 19.441-10.914 20.755-10.914 0.34958 0 1.7506-4.7658 3.4755-11.822 1.5894-6.5023 3.0982-12.577 3.353-13.5l0.46321-1.6776h72.914l0.49543 1.875c0.27249 1.0312 1.7685 6.981 3.3244 13.222l2.829 11.347 8.0698 3.973c23.884 11.759 42.099 29.727 53.827 53.098 9.968 19.863 14.259 42.833 11.689 62.565l-0.80394 6.1709 19.187 18.767-18.103 31.366c-9.9565 17.251-18.169 31.442-18.25 31.535-0.08118 0.0929-5.7389-1.4259-12.573-3.375-6.8338-1.9491-12.687-3.5439-13.008-3.5439-0.32056 0-2.7908 1.5514-5.4893 3.4476-15.907 11.178-34.918 19.02-52.907 21.827-6.0468 0.9433-20.086 1.3375-25.25 0.70906z" fill="#8ab6cb" fill-rule="evenodd" stop-color="#000000" stroke="#8ab6cb" stroke-linejoin="round" stroke-miterlimit="10" stroke-width="5" style="paint-order:stroke fill markers"/>
   <path d="m-150.43-9.0348-7.0498 28.17c-44.158 18.595-75.471 61.944-76.273 112.93-0.0907 5.7622 0.21841 11.442 0.88839 17.008l-20.032 19.372 41.267 71.472 26.064-7.4509c20.59 16.007 46.354 25.708 74.439 26.15 29.491 0.464 56.741-9.3591 78.35-26.15l26.079 7.4509 41.267-71.472-20.032-19.372c0.51751-4.2975 0.81881-8.6586 0.8884-13.082 0.8238-52.362-30.78-97.7-76.273-116.85l-7.0498-28.17zm4.5852 6.8778h73.364l6.663 26.666c44.227 17.515 75.188 60.997 74.396 111.36-0.0703 4.4713-1.0577 10.042-1.6113 14.376l-7e-3 -4e-3 19.358 18.728-36.682 63.534-25.892-7.4081 0.0146 0.012c-20.297 15.511-47.243 27.087-74.768 26.654-26.197-0.4122-51.712-11.896-71.043-26.672l-0.0137 0.01-25.892 7.408-36.682-63.534 19.358-18.728-7e-3 -0.0177c-0.70545-5.5276-1.7026-12.317-1.6124-18.051 0.77194-49.065 31.45-90.632 74.396-107.65z"/>
  </g>
 </g>
 <g transform="translate(-16.838 -827.7)">
  <g fill-rule="evenodd">
   <g stroke-linejoin="round">
    <ellipse cx="80.477" cy="894.04" rx="48.575" ry="45.461" fill="#8ab6cb" stop-color="#000000" stroke="#8ab6cb" stroke-width=".1" style="paint-order:stroke fill markers"/>
    <path transform="translate(16.267 828.25)" d="m78.518 92.277c-5.3251-2.5448-9.7071-7.5239-11.789-13.395-0.26811-0.75614-0.55189-1.4146-0.63063-1.4633-0.07874-0.04866-0.28642 0.33033-0.46152 0.84221-2.1256 6.2139-7.6345 11.974-13.631 14.252l-0.87865 0.33386-0.94792-0.58469c-0.52136-0.32158-0.92922-0.6311-0.90636-0.68783s0.99066-0.57823 2.1507-1.1589c5.524-2.7651 9.1586-6.8968 11.056-12.568 0.93479-2.7939 1.2153-4.7017 1.2325-8.3813 0.01759-3.7717 0.01895-3.7681-1.8489-4.859-4.3397-2.5345-9.3213-3.8358-13.958-3.646-4.5132 0.18475-8.2826 1.535-12.239 4.3841-0.6548 0.47153-1.2315 0.85733-1.2816 0.85733s-0.0911-0.54672-0.0911-1.2149c0-1.203 0.0074-1.2217 0.7513-1.9064 2.985-2.7475 8.0307-4.6568 13.48-5.101 1.4063-0.11462 4.9424 0.23303 6.2628 0.61572 0.33386 0.09676 0.64199 0.14095 0.68475 0.09819s-0.59231-0.79582-1.4113-1.6735c-2.3236-2.4901-4.1552-5.9346-5.1774-9.7365-0.75733-2.8167-0.95181-6.7852-0.43361-8.8479 0.13925-0.55427 0.34694-0.73931 1.7071-1.521 0.85171-0.48947 1.5689-0.87461 1.5937-0.85588 0.02482 0.01873-0.04915 1.2312-0.16439 2.6944-0.53114 6.7438 1.1008 11.92 5.2819 16.754 1.8754 2.168 5.2145 4.7178 8.2145 6.2726l1.1796 0.61135 1.1185-0.52518c0.61519-0.28885 1.914-1.0578 2.8863-1.7087 5.9637-3.9926 9.5319-9.1225 10.598-15.236 0.28914-1.658 0.3555-6.1585 0.11565-7.8426-0.0727-0.51044-0.08678-0.92498-0.03129-0.9212 0.05549 0.0038 0.53841 0.26644 1.0732 0.58369 1.3588 0.80611 1.6137 1.5757 1.7271 5.2135 0.10052 3.226-0.09095 4.6324-1.0149 7.4543-1.1352 3.4673-2.5219 6.0021-4.6588 8.5163-0.55172 0.64911-1.0031 1.2553-1.0031 1.3472 0 0.10278 0.3229 0.0972 0.83969-0.01451 0.46183-0.09984 2.3909-0.18547 4.2868-0.19029 2.6897-0.0068 3.7763 0.06181 4.945 0.31242 1.6382 0.35128 4.6171 1.3423 5.7437 1.9107 1.2821 0.64696 3.522 2.1794 4.4919 3.0732l0.95011 0.87559-0.2534 1.8425-1.0002-0.76647c-1.5554-1.192-4.0376-2.6227-5.6681-3.267-2.7552-1.0887-3.8716-1.3-7.3529-1.3916-2.7815-0.07319-3.4156-0.03571-5.0381 0.29783-3.1044 0.63815-5.6434 1.5985-8.5474 3.233-2.1346 1.2015-2.1325 1.1956-2.0035 5.5225 0.10389 3.4846 0.30462 4.806 1.1241 7.4001 1.0714 3.3916 2.7884 6.2267 5.2625 8.6891 1.7886 1.7802 3.4603 2.9676 5.9915 4.2555 0.93874 0.47766 1.7072 0.91549 1.7076 0.97296 0.0014 0.17898-1.7087 1.0448-2.056 1.041-0.1813-2e-3 -1.072-0.35839-1.9794-0.792z" fill="#daeff0" stop-color="#000000" stroke="#daeff0" stroke-width="5" style="paint-order:stroke fill markers"/>
    <g fill="#005b96" stroke="#005b96" stroke-width="3">
     <path transform="translate(16.267 828.25)" d="m34.727 58.87c0.20439-1.363 1.4361-5.3812 2.1442-6.995 1.448-3.3001 3.2762-6.0626 5.9803-9.0364 1.1199-1.2316 2.1075-2.2833 2.1946-2.3372 0.08844-0.05466 0.20265 0.89601 0.2584 2.1508 0.16432 3.6986 0.9836 6.9333 2.6702 10.543 0.44997 0.96291 0.78692 1.782 0.74877 1.8201-0.03815 0.03815-0.85405 0.14932-1.8131 0.24704-4.1669 0.42458-8.6776 1.9566-11.534 3.9177l-0.7751 0.53205z" stop-color="#000000" style="paint-order:stroke fill markers"/>
     <path transform="translate(16.267 828.25)" d="m96.608 60.084c-3.2002-2.0726-7.6074-3.5588-11.521-3.8852-0.79232-0.06608-1.53-0.1754-1.6393-0.24295-0.13477-0.08329 0.08674-0.75547 0.68838-2.0889 1.8399-4.0778 2.7818-8.3711 2.6158-11.923l-0.08865-1.8971 0.46556 0.3315c0.68602 0.48849 3.352 3.3011 4.2876 4.5234 3.0877 4.034 5.2104 8.625 6.1632 13.33 0.20493 1.012 0.34864 2.023 0.31936 2.2467-0.05162 0.39436-0.09091 0.38234-1.2907-0.39467z" stop-color="#000000" style="paint-order:stroke fill markers"/>
     <path transform="translate(16.267 828.25)" d="m62.933 96.423c-2.635-0.3287-7.9563-1.6097-7.9542-1.9149 4.17e-4 -0.06032 0.57715-0.40663 1.2816-0.76958 2.7912-1.438 6.1726-4.4949 8.6017-7.7761l1.1336-1.5313 0.87546 1.2714c2.6657 3.8712 5.6782 6.6966 9.1842 8.6139l0.85663 0.46845-1.2906 0.38313c-3.7983 1.1276-9.3266 1.6744-12.688 1.255z" stop-color="#000000" style="paint-order:stroke fill markers"/>
    </g>
   </g>
   <path transform="translate(16.838 827.7)" d="m63.252 61.376c-2.7561-1.6565-4.4398-2.9787-6.2298-4.8922-1.9257-2.0586-2.8612-3.4411-4.0201-5.9409-1.4766-3.1853-1.8326-4.9766-1.8039-9.0784 0.0366-5.2393 0.76701-8.2607 3.2378-13.393 1.0401-2.1606 1.9772-3.8751 2.0824-3.8101 0.10524 0.06504 0.43751 1.1988 0.73838 2.5195 0.45551 1.9995 0.4956 2.5115 0.23965 3.0601-0.16906 0.36235-0.62583 1.592-1.015 2.7326-2.5001 7.3267-1.0785 14.465 4.0911 20.544 1.1522 1.3547 1.0484 0.67219-0.21417-1.4076-3.7693-6.2093-4.5067-12.141-2.3261-18.71 1.1013-3.3176 2.2577-5.0959 6.2894-9.6718l1.473-1.6718 1.3217 1.4813c4.1381 4.6376 5.2731 6.3919 6.5501 10.123 0.91806 2.6825 0.93757 2.8167 0.94336 6.4892 0.0046 2.9256-0.09659 4.1073-0.46034 5.375-0.54572 1.9019-2.2323 5.5975-3.3596 7.3614-0.4346 0.68004-0.79018 1.3444-0.79018 1.4762 0 0.83519 3.5946-4.1419 4.639-6.423 2.1656-4.7303 2.1656-10.928 5.8e-5 -16.362l-0.82584-2.072 0.55971-2.3735c0.30784-1.3054 0.62729-2.4411 0.70989-2.5237 0.13939-0.13939 1.8201 3.1436 3.0928 6.0412 1.5445 3.5164 2.5176 9.0715 2.2344 12.755-0.54645 7.1091-4.2878 13.196-10.785 17.545-1.765 1.1816-3.4653 2.0746-3.9501 2.0746-0.18978 0-1.28-0.56189-2.4226-1.2487z" fill="#fff" stop-color="#000000" style="paint-order:stroke fill markers"/>
   <path d="m80.278 929.41c-4.5994-0.2732-9.9418-1.7025-14.011-3.7484-1.7031-0.8563-4.1695-2.3723-5.8566-3.5998l-0.86408-0.62868 0.51053-0.10262c1.0758-0.21626 2.3309-0.55025 3.7002-0.98467l1.422-0.45111 1.0644 0.62987c0.58544 0.34643 1.1302 0.62988 1.2106 0.62988 0.50952 0 3.4245-1.366 4.9448-2.3172 2.3668-1.4808 4.7845-3.8662 6.7443-6.6542 1.2721-1.8096 2.0804-3.3603 2.776-5.3252 0.21078-0.59541 0.41229-1.0528 0.4478-1.0165 0.03551 0.0364 0.25123 0.58317 0.47937 1.2152 0.50977 1.4121 1.0414 2.6076 1.6396 3.6868 2.0257 3.6547 5.215 7.02 8.5173 8.9871 0.94701 0.56412 2.6405 1.3633 3.4715 1.6382l0.46369 0.1534 0.81794-0.43539c0.44987-0.23946 0.93727-0.50592 1.0831-0.59213 0.26412-0.15613 0.27173-0.15462 1.9354 0.3845 0.91864 0.29769 2.1786 0.66706 2.8 0.82082l1.1297 0.27957s-2.7926 1.9422-3.9648 2.6182c-4.2818 2.4693-9.1864 4.0764-14.142 4.6341-1.1455 0.1289-5.2173 0.24378-6.3198 0.17829zm4.0217-4.543c1.2074-0.0557 2.2313-0.15785 3.0689-0.30616 3.2063-0.5677 5.9467-1.2978 5.9467-1.5844 0-0.0605-0.22389-0.20276-0.49754-0.31618-0.7564-0.31351-3.489-2.1722-4.5971-3.1269-1.7343-1.4943-3.2724-3.2642-4.9505-5.6965-0.75092-1.0884-0.95599-1.332-1.0534-1.2511-0.06656 0.0552-0.63481 0.78275-1.2628 1.6167-2.8197 3.7446-5.6754 6.2658-9.0062 7.9512-0.59531 0.30125-1.0825 0.56991-1.0828 0.59703-6.19e-4 0.0806 2.3566 0.85621 3.355 1.1039 2.7779 0.68912 5.2934 1.0482 7.6047 1.0854 0.3646 6e-3 1.4783-0.0269 2.4749-0.0729z" stop-color="#000000" stroke="#000" stroke-linejoin="round" stroke-width=".2" style="paint-order:stroke fill markers"/>
   <path transform="translate(16.838 827.7)" d="m36.36 92.481c1.0919-1.0288 2.2169-1.9134 2.5-1.9657 5.3387-0.9875 7.7695-1.8363 10.512-3.6707 3.03-2.0266 5.7563-5.4888 7.3649-9.3528 1.1597-2.7858 0.83688-3.1267-0.55256-0.58348-2.5488 4.6653-5.5563 7.6483-9.8097 9.7297-3.6383 1.7803-6.2118 2.3343-10 2.1525-2.7922-0.134-3.9562-0.28388-7.2928-0.939l-1.2928-0.25384 0.46423-1.6739c1.1212-4.0428 2.8759-7.969 4.4533-9.9646 4.5629-5.7724 10.5-8.5843 18.126-8.5843 1.9116 0 2.4474-0.06987 2.2269-0.2904-0.18401-0.18401-1.6932-0.33304-4.1197-0.40678-3.3327-0.10129-4.1028-0.04723-5.9382 0.41692-2.5423 0.64288-4.9285 1.7261-6.6265 3.0082-1.6298 1.2305-4.1847 3.8033-5.398 5.4357-0.90345 1.2156-1.0938 1.334-3.3583 2.0884-1.3203 0.43986-2.4589 0.74132-2.5303 0.66992-0.14863-0.14863 2.3519-3.9542 4.3018-6.5469 3.3856-4.5018 8.037-7.8064 13.033-9.2592 5.4753-1.5922 11.238-0.89961 17.282 2.0771 3.4001 1.6745 3.3789 1.6339 3.222 6.182-0.09369 2.7156-0.28155 4.3362-0.68102 5.875-2.5814 9.9444-10.448 15.894-22.996 17.391-1.5812 0.18872-3.325 0.34136-3.875 0.33922l-1-0.0039 1.9853-1.8705z" fill="#fff" stop-color="#000000" style="paint-order:stroke fill markers"/>
   <path transform="translate(16.838 827.7)" d="m29.453 70.732c-0.32625-1.5987-0.43642-6.8279-0.20109-9.5442 0.39399-4.5476 2.2042-10.08 4.6891-14.332 1.6837-2.8808 3.5134-5.2534 5.8685-7.6097 3.3655-3.3673 7.0515-5.8806 11.378-7.7582 0.825-0.35801 1.5146-0.63708 1.5325-0.62017 0.01786 0.01692-0.15928 0.61615-0.39363 1.3316-0.23435 0.71548-0.55215 1.9336-0.70622 2.707l-0.28012 1.4061-1.4923 0.84388c-1.9366 1.0951-2.0408 1.2034-2.2286 2.3167-0.22865 1.3556-0.0842 5.7036 0.23761 7.1522 0.49396 2.2235 1.225 4.2415 2.3497 6.4861 1.0485 2.0927 1.6927 3.0053 3.2083 4.5451 0.76124 0.77344 1.355 1.4062 1.3195 1.4062-0.03552 0-0.90428-0.14427-1.9306-0.32061-2.9087-0.49976-5.8035-0.42939-8.8035 0.21399-3.7918 0.81317-7.4061 2.5438-9.6973 4.6432l-0.8337 0.76393 0.05999 1.2457 0.05998 1.2457-1.653 1.6353c-0.90916 0.8994-1.8234 1.852-2.0317 2.117l-0.37869 0.48172zm5.4244-10.85c2.0745-1.342 4.3462-2.3578 6.8223-3.0507 1.8024-0.50438 3.0339-0.72465 5.061-0.90529 0.92238-0.08219 1.698-0.167 1.7235-0.18846 0.02556-0.02146-0.34889-0.87123-0.83211-1.8884-1.8678-3.9315-2.6715-7.0802-2.8571-11.193-0.04576-1.0141-0.12114-1.8438-0.16752-1.8438-0.09987 0-2.4417 2.3745-3.3681 3.4151-2.4289 2.7282-4.757 6.7782-5.9273 10.311-0.9191 2.7744-1.6612 5.899-1.401 5.899 0.04838 0 0.47424-0.24988 0.94636-0.5553z" stop-color="#000000" stroke="#000" stroke-linejoin="round" stroke-width=".2" style="paint-order:stroke fill markers"/>
   <path transform="translate(16.838 827.7)" d="m101.19 71.166c-0.275-0.36513-1.1685-1.3531-1.9856-2.1955l-1.4856-1.5316 0.12392-1.7321-0.63886-0.6127c-2.7011-2.5905-6.2685-4.3646-10.659-5.3005-1.2233-0.2608-1.6836-0.28916-4.7302-0.2914-2.2551-0.0017-3.6598 0.05143-4.2334 0.15998-0.47211 0.08935-0.87624 0.14459-0.89807 0.12276s0.4117-0.57306 0.96341-1.225c2.0859-2.4646 3.5311-5.0832 4.5961-8.3274 0.99433-3.0288 1.0709-3.5315 1.0637-6.9829-0.0056-2.6811-0.03563-3.1125-0.28272-4.0582-0.3272-1.2523-0.54119-1.512-1.7991-2.1832-0.50051-0.26704-0.92682-0.49816-0.94736-0.5136s-0.17368-0.69999-0.3403-1.5212c-0.16663-0.82123-0.49723-2.0508-0.73469-2.7323-0.23745-0.68152-0.41478-1.2561-0.39405-1.2768 0.02072-0.02072 0.70002 0.24652 1.5095 0.59387 8.1075 3.4788 15.028 10.348 18.761 18.623 0.83528 1.8513 1.9158 5.0606 2.2958 6.8188 0.97013 4.4886 1.1394 9.6137 0.45967 13.915l-0.14462 0.9151zm-3.6879-10.073c-2.5e-4 -0.25781-0.08808-0.975-0.19524-1.5938-1.0519-6.0734-4.0179-11.918-8.4294-16.611-1.1479-1.2212-2.7591-2.6184-2.8758-2.4939-0.05416 0.0578-0.04484 0.72384 0.02072 1.4801 0.31802 3.6686-0.68282 8.3075-2.7665 12.823-0.48363 1.048-0.86356 1.9212-0.84428 1.9405 0.01927 0.01927 0.6523 0.09653 1.4067 0.17167 4.7927 0.47738 8.4508 1.6696 12.059 3.9302 0.72188 0.45225 1.3828 0.82228 1.4688 0.82231 0.0973 2.4e-5 0.1561-0.17681 0.15585-0.46871z" stop-color="#000000" stroke="#000" stroke-linejoin="round" stroke-width=".2" style="paint-order:stroke fill markers"/>
   <path transform="translate(16.838 827.7)" d="m90.75 94.473c-11.975-1.5997-19.675-7.829-22.137-17.909-0.53789-2.2017-0.77953-8.1827-0.37049-9.1702 0.26043-0.62874 0.84318-1.0204 3.349-2.2507 4.2698-2.0965 5.9886-2.5414 10.424-2.6983 3.1642-0.11194 3.916-0.0592 5.7433 0.40289 2.684 0.67872 5.6084 2.0474 7.9379 3.715 1.0084 0.72188 1.9109 1.3136 2.0057 1.3149 0.23682 0.0033 2.9438 3.0455 4.3358 4.8726 1.6496 2.1653 4.0364 5.8834 3.8782 6.0416-0.0743 0.07435-1.1932-0.21728-2.4863-0.64808l-2.3511-0.78326-1.7272-2.1494c-2.2334-2.7793-4.4282-4.5939-7.2272-5.975-3.1127-1.536-4.8842-1.9458-8.5-1.9663-3.0032-0.01705-6.0451 0.26873-5.7716 0.54223 0.08002 0.08002 1.4676 0.17821 3.0835 0.21819 4.7679 0.11797 8.2891 1.0935 11.763 3.2588 2.0432 1.2735 4.7614 3.8326 6.0243 5.6717 1.9448 2.8323 4.9782 10.73 4.2856 11.158-0.82686 0.51103-6.0598 1.1309-9.51 1.1266-3.4453-0.0044-3.7427-0.04537-6-0.82742-5.7631-1.9967-9.5142-5.2288-12.527-10.794-0.7413-1.3693-1.431-2.4916-1.5327-2.4942-0.10168-0.0025 0.14701 0.90481 0.55265 2.0163 2.8269 7.746 8.4787 12.316 16.979 13.729 1.8175 0.30213 1.8777 0.33659 3.75 2.146l1.9029 1.839-1.625-0.018125c-0.89375-0.01-2.8062-0.17592-4.25-0.36879z" fill="#fff" stop-color="#000000" style="paint-order:stroke fill markers"/>
  </g>
  <g stroke="#fff" stroke-width=".99907" aria-label="26">
   <path d="m79.025 903.58c0.98686 0 1.4211-0.43421 1.4211-1.4211v-4.6185c0-0.98686-0.43422-1.4211-1.4211-1.4211h-11.25v-0.82896c0-0.86844 0.23685-0.94739 1.0263-1.1842l5.3685-1.6974c3.829-1.1842 6.158-3.0001 6.158-6.987v-3.7106c0-4.2632-2.4474-6.5528-6.9475-6.5528h-11.645c-0.98686 0-1.4211 0.43421-1.4211 1.4211v4.6185c0 0.98686 0.43422 1.4211 1.4211 1.4211h8.5659c0.78949 0 1.0658 0.23684 1.0658 1.0263 0 0.86844-0.23685 1.1842-1.0658 1.4211l-5.2896 1.6579c-3.6316 1.1053-6.1975 2.5264-6.1975 8.6449v6.7896c0 0.98686 0.43422 1.4211 1.4211 1.4211z"/>
   <path d="m96.591 904.17c9.0791 0 11.369-3.158 11.369-7.9738v-3.7895c0-4.6975-2.1316-7.1054-9.2765-7.1054-2.0921 0-3.7501 0.19737-5.0132 0.59211v-0.86843c0-1.9342 0.55264-2.3685 2.4869-2.3685h7.3817c0.98686 0 1.4211-0.43422 1.4211-1.4211v-4.658c0-0.98686-0.39474-1.4211-1.4211-1.4211h-9.0791c-7.4607 0-9.7107 3.2764-9.7107 8.0922v12.948c0 4.8159 2.1316 7.9738 11.842 7.9738zm-2.9211-10.934c0-0.78949 0.35527-1.4211 2.6448-1.4211 2.3685 0 2.7237 0.63159 2.7237 1.4211v2.329c0 0.82896-0.35527 1.4606-2.7237 1.4606-2.2895 0-2.6448-0.63159-2.6448-1.4606z"/>
  </g>
 </g>
</svg>
