<?xml version="1.0" encoding="UTF-8" standalone="no"?>
<svg
   xmlns:dc="http://purl.org/dc/elements/1.1/"
   xmlns:cc="http://creativecommons.org/ns#"
   xmlns:rdf="http://www.w3.org/1999/02/22-rdf-syntax-ns#"
   xmlns:svg="http://www.w3.org/2000/svg"
   xmlns="http://www.w3.org/2000/svg"
   id="svg972"
   viewBox="0 0 133.1 123.45"
   version="1.1"
   height="123.45mm"
   width="133.1mm">
  <title
     id="title926">site-FR-ghimel</title>
  <defs
     id="defs934">
    <clipPath
       id="clipPath13837">
      <path
         id="path928"
         stroke-width=".16763"
         fill="#063"
         d="m150.52 73.5h63.559v119.36h-63.559z" />
    </clipPath>
    <clipPath
       id="clipPath15897">
      <path
         id="path931"
         stroke-width=".36294"
         stroke="#000"
         fill-rule="evenodd"
         fill="#fff6d5"
         d="m141.72 106.53 1.0034-2.0458-0.92776-0.96835c-0.51026-0.5326-0.92774-1.1636-0.92774-1.4022 0-0.23861-0.16324-0.43383-0.36295-0.43383-0.19961 0-0.36293 0.19522-0.36293 0.43383 0 0.2386-0.4175 0.86958-0.92776 1.4022l-0.92774 0.96835 1.0034 2.0458c0.55184 1.1252 1.0986 2.0458 1.2151 2.0458 0.11643 0 0.66325-0.92061 1.2151-2.0458z" />
    </clipPath>
  </defs>
  <g
     id="g968"
     transform="translate(-147.34 -71.507)">
    <g
       id="g944"
       stroke-width="2.5"
       stroke="#000">
      <path
         id="path936"
         style="paint-order:stroke fill markers"
         fill="#fff6d5"
         d="m225.7 192.77c7.3501-1.708 15.019-5.0383 20.254-8.7956 1.6047-1.1518 3.2839-2.0941 3.7317-2.0941 0.44776 0 3.085 0.66062 5.8604 1.468 2.7755 0.80738 5.3357 1.5218 5.6894 1.5875 0.49407 0.0919 2.6288-3.2984 9.2152-14.635l8.5722-14.755-9.2831-9.1382 0.37717-4.3023c1.9965-22.775-10.856-44.952-31.947-55.125l-3.7932-1.8296-1.2116-5.0558c-0.66638-2.7807-1.3734-5.6418-1.5711-6.358l-0.35956-1.3022h-34.295l-0.35954 1.3022c-0.19776 0.7162-0.90478 3.5773-1.5711 6.358l-1.2116 5.0558-3.7932 1.8296c-21.091 10.173-33.943 32.35-31.947 55.125l0.37716 4.3023-9.2831 9.1382 8.5722 14.755c6.5864 11.337 8.7212 14.727 9.2152 14.635 0.35366-0.0659 2.9139-0.78013 5.6894-1.5875s5.4127-1.468 5.8604-1.468c0.44775 0 2.0543 0.88979 3.57 1.9773 6.4692 4.6414 15.537 8.2614 24.005 9.5827 3.8454 0.60004 15.947 0.18694 19.636-0.67025z" />
      <path
         id="path940"
         style="paint-order:stroke markers fill"
         fill="none"
         d="m225.7 192.77c7.3501-1.708 15.019-5.0383 20.254-8.7956 1.6047-1.1518 3.2839-2.0941 3.7317-2.0941 0.44776 0 3.085 0.66062 5.8604 1.468 2.7755 0.80738 5.3357 1.5218 5.6894 1.5875 0.49407 0.0919 2.6288-3.2984 9.2152-14.635l8.5722-14.755-9.2831-9.1382 0.37717-4.3023c1.9965-22.775-10.856-44.952-31.947-55.125l-3.7932-1.8296-1.2116-5.0558c-0.66638-2.7807-1.3734-5.6418-1.5711-6.358l-0.35956-1.3022h-34.295l-0.35954 1.3022c-0.19776 0.7162-0.90478 3.5773-1.5711 6.358l-1.2116 5.0558-3.7932 1.8296c-21.091 10.173-33.943 32.35-31.947 55.125l0.37716 4.3023-9.2831 9.1382 8.5722 14.755c6.5864 11.337 8.7212 14.727 9.2152 14.635 0.35366-0.0659 2.9139-0.78013 5.6894-1.5875s5.4127-1.468 5.8604-1.468c0.44775 0 2.0543 0.88979 3.57 1.9773 6.4692 4.6414 15.537 8.2614 24.005 9.5827 3.8454 0.60004 15.947 0.18694 19.636-0.67025z" />
      <path
         id="path942"
         style="paint-order:stroke markers fill"
         fill="none"
         d="m225.7 192.77c7.3501-1.708 15.019-5.0383 20.254-8.7956 1.6047-1.1518 3.2839-2.0942 3.7317-2.0942 0.44776 0 3.085 0.66062 5.8604 1.468 2.7755 0.80738 5.3357 1.5218 5.6894 1.5875 0.49407 0.0919 2.6288-3.2984 9.2152-14.635l8.5722-14.755-9.2831-9.1382 0.37717-4.3023c1.9965-22.775-10.856-44.952-31.947-55.125l-3.7932-1.8296-1.2116-5.0558c-0.66638-2.7807-1.3734-5.6418-1.5711-6.358l-0.35956-1.3022h-34.295l-0.35954 1.3022c-0.19776 0.7162-0.90478 3.5773-1.5711 6.358l-1.2116 5.0558-3.7932 1.8296c-21.091 10.173-33.943 32.35-31.947 55.125l0.37716 4.3023-9.2831 9.1382 8.5722 14.755c6.5864 11.337 8.7212 14.727 9.2152 14.635 0.35366-0.0659 2.9139-0.78013 5.6894-1.5875s5.4127-1.468 5.8604-1.468c0.44775 0 2.0543 0.8898 3.57 1.9773 6.4692 4.6414 15.537 8.2614 24.005 9.5827 3.8454 0.60005 15.947 0.18694 19.636-0.67024z" />
    </g>
    <path
       id="path946"
       stroke-width=".36295"
       stroke="#d21034"
       fill-rule="evenodd"
       fill="#d21034"
       d="m213.51 94.054c-0.52497-2.21-2.1967-5.9024-3.8173-8.4314-0.79009-1.233-1.0045-1.8355-0.69048-1.9402 1.0696-0.35652 2.6064-2.0139 2.6064-2.8108 0-1.2785-1.0057-2.0972-2.2663-1.8451-1.3855 0.2771-1.1727-0.49782 0.2948-1.0738 1.4607-0.5733 3.3337-0.02738 3.8586 1.1246 0.22386 0.49132 0.51791 0.89331 0.65344 0.89331 0.13546 0 0.42959-0.40199 0.65346-0.89331 0.52487-1.152 2.398-1.6979 3.8586-1.1246 1.4676 0.576 1.6803 1.3509 0.29481 1.0738-1.2606-0.25212-2.2662 0.56664-2.2662 1.8451 0 0.79696 1.5368 2.4543 2.6063 2.8108 0.31403 0.10468 0.0996 0.70721-0.69049 1.9402-1.6206 2.529-3.2923 6.2215-3.8173 8.4314-0.24642 1.0374-0.53406 1.8861-0.63921 1.8861-0.10511 0-0.39277-0.84875-0.63919-1.8861z" />
    <path
       id="path948"
       fill-rule="evenodd"
       fill="#fff6d5"
       d="m215.36 86.999 1.0034-2.0458-0.92776-0.96836c-0.51026-0.5326-0.92774-1.1636-0.92774-1.4022s-0.16324-0.43382-0.36295-0.43382c-0.19961 0-0.36293 0.19522-0.36293 0.43382s-0.4175 0.86958-0.92776 1.4022l-0.92774 0.96836 1.0034 2.0458c0.55184 1.1252 1.0986 2.0458 1.2151 2.0458 0.11643 0 0.66325-0.92061 1.2151-2.0458z" />
    <path
       id="path950"
       stroke-width=".36295"
       stroke="#d21034"
       fill="#d21034"
       d="m252.76 159.61c2.1764 0.65035 6.21 1.0488 9.2105 0.90986 1.4628-0.0677 2.0918 0.0478 2.0255 0.37212-0.22602 1.1045 0.44089 3.2641 1.1311 3.6626 1.1072 0.63924 2.3191 0.1777 2.731-1.0401 0.45277-1.3384 1.0175-0.76671 0.78256 0.79221-0.23384 1.5516-1.6432 2.9008-2.9032 2.7794-0.53742-0.0518-1.0326 2e-3 -1.1003 0.11924-0.0677 0.11731 0.13334 0.57302 0.4469 1.0126 0.73521 1.0306 0.27144 2.9256-0.95538 3.904-1.2326 0.98293-2.0101 0.77971-1.0774-0.2816 0.84865-0.96567 0.6424-2.246-0.46479-2.8852-0.69019-0.39848-2.8939 0.10373-3.7374 0.85175-0.24767 0.21961-0.66227-0.26733-1.335-1.5681-1.3799-2.668-3.7418-5.962-5.3932-7.5216-0.77517-0.73209-1.3664-1.4056-1.3138-1.4966s0.93143 0.0842 1.953 0.3895z" />
    <path
       id="path952"
       fill="#fff6d5"
       d="m257.95 164.74 1.27 1.8918 1.3025-0.31928c0.71637-0.1756 1.4716-0.22166 1.6782-0.10236 0.20663 0.1193 0.45732 0.0755 0.55718-0.0974 0.0998-0.17287 0.0124-0.41192-0.19424-0.53122-0.20663-0.1193-0.54433-0.79635-0.75044-1.5046l-0.37476-1.2876-2.2734-0.15396c-1.2504-0.0847-2.321-0.0715-2.3792 0.0294-0.0582 0.10083 0.46565 1.0347 1.1642 2.0752z" />
    <path
       style="fill:#d21034;stroke-width:0.20027"
       id="path960"
       d="m 244.45751,135.35 -27.172,-8.8288 16.793,23.114 v -28.57 l -16.793,23.114 z" />
    <path
       style="fill:#d21034;stroke-width:0.20027"
       id="path962"
       d="m 241.71751,119.8 a 30.041,30.041 0 1 0 0,30.041 24.033,24.033 0 1 1 0,-30.041" />
    <g
       id="g966"
       aria-label="ג‎"
       style="paint-order:stroke fill markers"
       stroke-width="2"
       stroke="#fff">
      <path
         id="path964"
         d="m 220.32541,146.35 h -0.56088 l -3.3653,-8.086 h -0.32718 l -3.1316,7.6186 -6.0996,0.32717 1.0283,-4.8142 q 4.6039,-0.32718 6.3566,-2.337 1.7527,-2.0098 1.7527,-7.1746 0,-2.5707 -0.56087,-3.7158 -0.53751,-1.1685 -2.4538,-1.4723 l -1.893,-0.28044 q -1.0984,-0.18696 -1.8696,-1.0516 -0.74784,-0.88805 -0.77121,-2.0799 0,-2.0098 1.4723,-3.7392 h 0.63099 q 0.28044,1.519 2.1267,1.6826 l 1.706,0.16359 q 3.1549,0.30381 3.1549,3.3419 0,1.1919 -0.18696,3.5756 -0.18696,2.3837 -0.18696,3.5756 0,2.1267 1.9864,5.5387 2.0566,3.5756 2.0566,5.8892 0,1.7294 -0.86469,3.0381 z" />
    </g>
    <path
       id="path952-0"
       d="m 170.0858,165.79834 -1.27,1.8918 -1.3025,-0.31928 c -0.71637,-0.1756 -1.4716,-0.22166 -1.6782,-0.10236 -0.20663,0.1193 -0.45732,0.0755 -0.55718,-0.0974 -0.0998,-0.17287 -0.0124,-0.41192 0.19424,-0.53122 0.20663,-0.1193 0.54433,-0.79635 0.75044,-1.5046 l 0.37476,-1.2876 2.2734,-0.15396 c 1.2504,-0.0847 2.321,-0.0715 2.3792,0.0294 0.0582,0.10083 -0.46565,1.0347 -1.1642,2.0752 z"
       style="fill:#fff6d5;stroke-width:1" />
    <path
       id="path950-5"
       d="m 175.27584,160.66836 c -2.1764,0.65035 -6.21,1.0488 -9.2105,0.90986 -1.4628,-0.0677 -2.0918,0.0478 -2.0255,0.37212 0.22602,1.1045 -0.44089,3.2641 -1.1311,3.6626 -1.1072,0.63924 -2.3191,0.1777 -2.731,-1.0401 -0.45277,-1.3384 -1.0175,-0.76671 -0.78256,0.79221 0.23384,1.5516 1.6432,2.9008 2.9032,2.7794 0.53742,-0.0518 1.0326,0.002 1.1003,0.11924 0.0677,0.11731 -0.13334,0.57302 -0.4469,1.0126 -0.73521,1.0306 -0.27144,2.9256 0.95538,3.904 1.2326,0.98293 2.0101,0.77971 1.0774,-0.2816 -0.84865,-0.96567 -0.6424,-2.246 0.46479,-2.8852 0.69019,-0.39848 2.8939,0.10373 3.7374,0.85175 0.24767,0.21961 0.66227,-0.26733 1.335,-1.5681 1.3799,-2.668 3.7418,-5.962 5.3932,-7.5216 0.77517,-0.73209 1.3664,-1.4056 1.3138,-1.4966 -0.0526,-0.091 -0.93143,0.0842 -1.953,0.3895 z"
       style="fill:#d21034;stroke:#d21034;stroke-width:0.36295" />
    <path
       id="path952-9"
       d="m 170.08584,165.79836 -1.27,1.8918 -1.3025,-0.31928 c -0.71637,-0.1756 -1.4716,-0.22166 -1.6782,-0.10236 -0.20663,0.1193 -0.45732,0.0755 -0.55718,-0.0974 -0.0998,-0.17287 -0.0124,-0.41192 0.19424,-0.53122 0.20663,-0.1193 0.54433,-0.79635 0.75044,-1.5046 l 0.37476,-1.2876 2.2734,-0.15396 c 1.2504,-0.0847 2.321,-0.0715 2.3792,0.0294 0.0582,0.10083 -0.46565,1.0347 -1.1642,2.0752 z"
       style="fill:#fff6d5;stroke-width:1" />
  </g>
  <metadata
     id="metadata970">
    <rdf:RDF>
      <cc:Work
         rdf:about="">
        <dc:title>site-FR-ghimel</dc:title>
        <dc:format>image/svg+xml</dc:format>
        <dc:type
           rdf:resource="http://purl.org/dc/dcmitype/StillImage" />
      </cc:Work>
    </rdf:RDF>
  </metadata>
</svg>
