<?xml version="1.0" encoding="UTF-8"?>
<!-- Created with Inkscape (http://www.inkscape.org/) -->
<svg width="133.1mm" height="123.45mm" version="1.1" viewBox="0 0 133.1 123.45" xmlns="http://www.w3.org/2000/svg" xmlns:cc="http://creativecommons.org/ns#" xmlns:dc="http://purl.org/dc/elements/1.1/" xmlns:rdf="http://www.w3.org/1999/02/22-rdf-syntax-ns#">
 <title>site-FR-yod</title>
 <defs>
  <clipPath id="clipPath5788">
   <path d="m279.99 96.309c2.2092 7.1975 3.1747 15.494 2.55 21.913-0.19152 1.9675-0.16447 3.8927 0.0601 4.2782 0.2246 0.38554 2.119 2.3204 4.2097 4.2997s3.993 3.8205 4.2272 4.0916c0.32734 0.37869-1.5349 3.9409-8.0388 15.378l-8.4648 14.885-12.562-3.346-3.5329 2.5127c-18.702 13.301-44.335 13.513-63.715 0.52606l-3.4856-2.3357-4.9817 1.5279c-2.7399 0.84035-5.5698 1.6866-6.2886 1.8806l-1.3069 0.35263-17.203-29.53 0.94621-0.97182c0.52041-0.53451 2.641-2.5983 4.7124-4.5863l3.7662-3.6144-0.31983-4.1967c-1.7783-23.334 10.961-45.679 31.666-55.542l3.9113-1.8632 3.2494-12.641 17.065-0.12231c13.112-0.09397 17.115 0.02005 17.284 0.49218 0.12038 0.33804 0.78671 2.9058 1.4804 5.7063 0.69374 2.8005 1.445 5.4073 1.6696 5.7928 0.2246 0.38554 1.8002 1.3164 3.5014 2.0685 7.2605 3.21 14.941 9.1773 20.331 15.797 2.448 3.006 8.1609 13.636 9.2697 17.249z" fill="none" stroke="#000" stroke-width="2.5" style="paint-order:stroke markers fill"/>
  </clipPath>
  <clipPath id="clipPath5792">
   <path d="m53.56-292.38c-5.1645-5.4603-11.892-10.37-17.769-12.967-1.8013-0.79599-3.459-1.7627-3.6835-2.1482-0.2246-0.38554-0.97591-2.9923-1.6696-5.7928-0.69372-2.8005-1.3599-5.3683-1.4804-5.7063-0.16832-0.47217-4.1721-0.58615-17.284-0.49219l-17.065 0.12231-3.2493 12.641-3.9113 1.8632c-20.704 9.863-33.444 32.208-31.666 55.542l0.31983 4.1967-3.7662 3.6144c-2.0714 1.9879-4.192 4.0518-4.7124 4.5863l-0.9462 0.97184 17.203 29.53 1.3069-0.35265c0.7188-0.19394 3.5487-1.0402 6.2886-1.8806l4.9817-1.5279 3.4856 2.3357c19.38 12.987 45.013 12.775 63.715-0.52608l3.5329-2.5127 12.562 3.346 8.4648-14.885c6.5039-11.437 8.3661-14.999 8.0388-15.378-0.23441-0.27101-2.1365-2.1123-4.2272-4.0916s-3.9851-3.9141-4.2097-4.2997c-0.22459-0.38554-0.26065-2.2214-0.08012-4.0796 0.77046-7.9309-0.64643-17.58-3.7508-25.543-1.4098-3.6163-7.8375-13.827-10.429-16.567z" fill="none" stroke="#000" stroke-width="2.5" style="paint-order:stroke markers fill"/>
  </clipPath>
 </defs>
 <g transform="translate(-147.34 -71.507)">
  <path d="m225.7 192.77c7.3501-1.708 15.019-5.0383 20.254-8.7956 1.6047-1.1518 3.2839-2.0941 3.7317-2.0941 0.44775 0 3.085 0.66062 5.8604 1.468 2.7755 0.80738 5.3357 1.5218 5.6894 1.5875 0.49407 0.0919 2.6288-3.2984 9.2152-14.635l8.5722-14.755-9.2831-9.1382 0.37717-4.3023c1.9965-22.775-10.856-44.952-31.947-55.125l-3.7932-1.8296-1.2116-5.0558c-0.66638-2.7807-1.3734-5.6418-1.5711-6.358l-0.35956-1.3022h-34.295l-0.35954 1.3022c-0.19776 0.7162-0.90478 3.5773-1.5711 6.358l-1.2116 5.0558-3.7932 1.8296c-21.091 10.173-33.943 32.35-31.947 55.125l0.37716 4.3023-9.2831 9.1382 8.5722 14.755c6.5864 11.337 8.7212 14.727 9.2152 14.635 0.35366-0.0659 2.9139-0.78013 5.6894-1.5875s5.4127-1.468 5.8604-1.468c0.44775 0 2.0543 0.88979 3.57 1.9773 6.4692 4.6414 15.537 8.2614 24.005 9.5827 3.8454 0.60004 15.947 0.18694 19.636-0.67025z" fill="#002395" stroke="#000" stroke-width="2.5" style="paint-order:stroke markers fill"/>
  <rect transform="matrix(-.50854 .86104 -.8651 -.50159 0 0)" x="-4.3514" y="-319.28" width="32.215" height="122.69" clip-path="url(#clipPath5792)" fill="#fff" fill-rule="evenodd" stop-color="#000000" stroke-opacity="0" style="paint-order:stroke fill markers"/>
  <rect transform="matrix(.50854 .86104 .8651 -.50159 0 0)" x="210.57" y="49.244" width="32.215" height="122.69" clip-path="url(#clipPath5788)" fill="#fff" fill-rule="evenodd" stop-color="#000000" stroke-opacity="0" style="paint-order:stroke fill markers"/>
  <path d="m225.7 192.77c7.3501-1.708 15.019-5.0383 20.254-8.7956 1.6047-1.1518 3.2839-2.0941 3.7317-2.0941 0.44775 0 3.085 0.66062 5.8604 1.468 2.7755 0.80738 5.3357 1.5218 5.6894 1.5875 0.49407 0.0919 2.6288-3.2984 9.2152-14.635l8.5722-14.755-9.2831-9.1382 0.37717-4.3023c1.9965-22.775-10.856-44.952-31.947-55.125l-3.7932-1.8296-1.2116-5.0558c-0.66638-2.7807-1.3734-5.6418-1.5711-6.358l-0.35956-1.3022h-34.295l-0.35954 1.3022c-0.19776 0.7162-0.90478 3.5773-1.5711 6.358l-1.2116 5.0558-3.7932 1.8296c-21.091 10.173-33.943 32.35-31.947 55.125l0.37716 4.3023-9.2831 9.1382 8.5722 14.755c6.5864 11.337 8.7212 14.727 9.2152 14.635 0.35366-0.0659 2.9139-0.78013 5.6894-1.5875s5.4127-1.468 5.8604-1.468c0.44775 0 2.0543 0.88979 3.57 1.9773 6.4692 4.6414 15.537 8.2614 24.005 9.5827 3.8454 0.60004 15.947 0.18694 19.636-0.67025z" fill="none" stroke="#000" stroke-width="2.5" style="paint-order:stroke markers fill"/>
  <path d="m213.51 94.054c-0.52497-2.21-2.1967-5.9024-3.8173-8.4314-0.79009-1.233-1.0045-1.8355-0.69048-1.9402 1.0696-0.35652 2.6064-2.0139 2.6064-2.8108 0-1.2785-1.0057-2.0972-2.2663-1.8451-1.3855 0.2771-1.1727-0.49782 0.2948-1.0738 1.4607-0.5733 3.3337-0.02738 3.8586 1.1246 0.22386 0.49132 0.51791 0.89331 0.65344 0.89331 0.13546 0 0.42959-0.40199 0.65346-0.89331 0.52487-1.152 2.398-1.6979 3.8586-1.1246 1.4676 0.576 1.6803 1.3509 0.29481 1.0738-1.2606-0.25212-2.2662 0.56664-2.2662 1.8451 0 0.79696 1.5368 2.4543 2.6063 2.8108 0.31403 0.10468 0.0996 0.70721-0.69049 1.9402-1.6206 2.529-3.2923 6.2215-3.8173 8.4314-0.24642 1.0374-0.53406 1.8861-0.63921 1.8861-0.10511 0-0.39277-0.84875-0.63919-1.8861z" fill="#fff" fill-rule="evenodd" stroke="#fff" stroke-width=".36295"/>
  <path d="m215.36 86.999 1.0034-2.0458-0.92776-0.96836c-0.51026-0.5326-0.92774-1.1636-0.92774-1.4022s-0.16324-0.43382-0.36295-0.43382c-0.19961 0-0.36293 0.19522-0.36293 0.43382s-0.4175 0.86958-0.92776 1.4022l-0.92774 0.96836 1.0034 2.0458c0.55184 1.1252 1.0986 2.0458 1.2151 2.0458 0.11643 0 0.66325-0.92061 1.2151-2.0458z" fill="#002395" fill-rule="evenodd"/>
  <path d="m252.76 159.61c2.1764 0.65035 6.21 1.0488 9.2105 0.90986 1.4628-0.0677 2.0918 0.0478 2.0255 0.37212-0.22602 1.1045 0.44089 3.2641 1.1311 3.6626 1.1072 0.63924 2.3191 0.1777 2.731-1.0401 0.45277-1.3384 1.0175-0.76671 0.78256 0.79221-0.23384 1.5516-1.6432 2.9008-2.9032 2.7794-0.53742-0.0518-1.0326 2e-3 -1.1003 0.11924-0.0677 0.11731 0.13334 0.57302 0.4469 1.0126 0.73521 1.0306 0.27144 2.9256-0.95538 3.904-1.2326 0.98293-2.0101 0.77971-1.0774-0.2816 0.84865-0.96567 0.6424-2.246-0.46479-2.8852-0.69019-0.39848-2.8939 0.10373-3.7374 0.85175-0.24767 0.21961-0.66227-0.26733-1.335-1.5681-1.3799-2.668-3.7418-5.962-5.3932-7.5216-0.77517-0.73209-1.3664-1.4056-1.3138-1.4966s0.93143 0.0842 1.953 0.3895z"/>
  <path d="m257.95 164.74 1.27 1.8918 1.3025-0.31928c0.71637-0.1756 1.4716-0.22166 1.6782-0.10236 0.20663 0.1193 0.45732 0.0755 0.55718-0.0974 0.0998-0.17287 0.0124-0.41192-0.19424-0.53122-0.20663-0.1193-0.54433-0.79635-0.75044-1.5046l-0.37476-1.2876-2.2734-0.15396c-1.2504-0.0847-2.321-0.0715-2.3792 0.0294-0.0582 0.10083 0.46565 1.0347 1.1642 2.0752z" fill="#fff"/>
  <path d="m175.94 161.65c-1.6514 1.5596-4.0133 4.8536-5.3932 7.5216-0.67275 1.3007-1.0873 1.7877-1.335 1.5681-0.84354-0.748-3.0472-1.2502-3.7374-0.85175-1.1072 0.63924-1.3134 1.9195-0.46479 2.8852 0.93271 1.0613 0.15524 1.2645-1.0774 0.28162-1.2268-0.97833-1.6906-2.8734-0.95539-3.904 0.31357-0.43953 0.51468-0.89518 0.44691-1.0126-0.0677-0.11732-0.56292-0.17104-1.1004-0.11926-1.2601 0.12145-2.6694-1.2277-2.9032-2.7794-0.23494-1.5589 0.32978-2.1306 0.78255-0.79223 0.41196 1.2178 1.6239 1.6793 2.731 1.0401 0.69019-0.39848 1.3571-2.558 1.1311-3.6626-0.0664-0.3243 0.56264-0.43988 2.0255-0.3721 3.0005 0.13896 7.0341-0.25951 9.2105-0.90987 1.0216-0.30528 1.9005-0.48055 1.953-0.38949 0.0525 0.091-0.53866 0.76452-1.3138 1.4966z"/>
  <path d="m168.9 163.57-2.2734 0.15397-0.37475 1.2876c-0.20611 0.7082-0.54382 1.3852-0.75045 1.5045-0.20664 0.11931-0.29408 0.35829-0.19423 0.53124 0.0998 0.17287 0.35054 0.2167 0.55717 0.0974 0.20664-0.1193 0.96183-0.0732 1.6782 0.10237l1.3025 0.31927 1.27-1.8918c0.69852-1.0405 1.2224-1.9743 1.1642-2.0752-0.0582-0.10083-1.1289-0.11408-2.3793-0.0294z" fill="#fff"/>
  <g stroke="#fff" stroke-width="2" style="paint-order:stroke fill markers" aria-label="י">
   <path d="m214.99 150.28-1.0844-1.2393q4.1053-3.0596 4.1053-8.5204 0-3.9117-5.7707-4.144-6.4291-0.23238-6.4291-5.4608 0-2.711 1.8203-6.0805h1.0457q0.38729 2.6336 3.5244 2.9047l3.5244 0.23238q5.1897 0.38729 5.1897 7.1649v2.9047q0 9.1788-5.9256 12.238z"/>
  </g>
 </g>
 <metadata>
  <rdf:RDF>
   <cc:Work rdf:about="">
    <dc:title>site-FR-yod</dc:title>
   </cc:Work>
  </rdf:RDF>
 </metadata>
</svg>
