<?xml version="1.0" encoding="UTF-8" standalone="no"?>
<!-- Created with Inkscape (http://www.inkscape.org/) -->

<svg
   xmlns:dc="http://purl.org/dc/elements/1.1/"
   xmlns:cc="http://creativecommons.org/ns#"
   xmlns:rdf="http://www.w3.org/1999/02/22-rdf-syntax-ns#"
   xmlns:svg="http://www.w3.org/2000/svg"
   xmlns="http://www.w3.org/2000/svg"
   xmlns:sodipodi="http://sodipodi.sourceforge.net/DTD/sodipodi-0.dtd"
   xmlns:inkscape="http://www.inkscape.org/namespaces/inkscape"
   width="79.375mm"
   height="78.440331mm"
   version="1.1"
   viewBox="0 0 79.374998 78.440331"
   id="svg61"
   sodipodi:docname="Site-PT1.svg"
   inkscape:version="0.92.4 (5da689c313, 2019-01-14)"
   inkscape:export-filename="C:\Users\2393174\OneDrive\Documents\Fiction\SCP Foundation\Facility Insignia\PT Facilities\Site-PT1.png"
   inkscape:export-xdpi="96"
   inkscape:export-ydpi="96">
  <sodipodi:namedview
     pagecolor="#ffffff"
     bordercolor="#666666"
     borderopacity="1"
     objecttolerance="10"
     gridtolerance="10"
     guidetolerance="10"
     inkscape:pageopacity="0"
     inkscape:pageshadow="2"
     inkscape:window-width="1920"
     inkscape:window-height="1017"
     id="namedview63"
     showgrid="false"
     inkscape:zoom="1.2715941"
     inkscape:cx="143.35412"
     inkscape:cy="225.02034"
     inkscape:window-x="-8"
     inkscape:window-y="-8"
     inkscape:window-maximized="1"
     inkscape:current-layer="svg61" />
  <defs
     id="defs11">
    <g
       id="star"
       transform="scale(168.75)">
      <!-- =3/4 of 225 -->
    </g>
    <g
       transform="scale(168.75)"
       id="g3">
      <!-- =3/4 of 225 -->
    </g>
    <clipPath
       id="clipPath14529">
      <path
         d="m 114.95,190.51 c -7.8576,-1.4145 -16.64,-5.304 -23.049,-10.208 -4.2084,-3.2201 -3.3856,-3.2455 -15.213,0.46941 -4.665,1.4652 -8.714,2.6641 -8.9978,2.6641 -0.2838,0 -2.7779,-3.9776 -5.5424,-8.839 l -5.0263,-8.839 3.0115,-2.8895 c 1.6563,-1.5892 5.1065,-4.8231 7.6671,-7.1865 l 4.6556,-4.297 -0.73391,-6.0316 c -1.6444,-13.514 1.2531,-25.587 8.8748,-36.977 5.4704,-8.1749 17.07,-17.094 25.508,-19.613 0.96882,-0.28922 2.0827,-0.93424 2.4753,-1.4334 0.40792,-0.51858 1.3737,-3.9403 2.2535,-7.9841 0.8468,-3.8921 1.818,-8.3157 2.1583,-9.8302 l 0.61869,-2.7536 h 21.023 l 0.25122,1.3258 c 0.99776,5.2656 4.1181,18.954 4.4054,19.325 0.19463,0.25172 1.4983,0.87219 2.897,1.3788 9.364,3.3918 19.13,10.8 24.738,18.765 4.4402,6.3068 7.9856,14.955 9.1982,22.437 0.82064,5.0639 0.80125,12.611 -0.0455,17.693 l -0.67681,4.0625 1.1867,1.0067 c 3.3522,2.8436 14.122,12.884 14.29,13.322 0.1566,0.40809 -3.6426,7.463 -9.0725,16.847 -0.42214,0.72954 -0.95111,1.2641 -1.1755,1.1879 -0.22439,-0.0762 -5.0166,-1.5692 -10.649,-3.3178 l -10.241,-3.1793 -3.2209,2.4232 c -7.8474,5.9038 -14.754,8.9489 -23.792,10.49 -4.7155,0.80422 -13.249,0.79434 -17.776,-0.0206 z"
         stop-color="#000000"
         stroke-miterlimit="10"
         id="path5"
         inkscape:connector-curvature="0"
         style="fill:#00923f;fill-rule:evenodd;stroke-width:0.20397;stroke-miterlimit:10" />
    </clipPath>
    <clipPath
       id="clipPath14533">
      <path
         d="m 114.95,190.51 c -7.8576,-1.4145 -16.64,-5.304 -23.049,-10.208 -4.2084,-3.2201 -3.3856,-3.2455 -15.213,0.46941 -4.665,1.4652 -8.714,2.6641 -8.9978,2.6641 -0.2838,0 -2.7779,-3.9776 -5.5424,-8.839 l -5.0263,-8.839 3.0115,-2.8895 c 1.6563,-1.5892 5.1065,-4.8231 7.6671,-7.1865 l 4.6556,-4.297 -0.73391,-6.0316 c -1.6444,-13.514 1.2531,-25.587 8.8748,-36.977 5.4704,-8.1749 17.07,-17.094 25.508,-19.613 0.96882,-0.28922 2.0827,-0.93424 2.4753,-1.4334 0.40792,-0.51858 1.3737,-3.9403 2.2535,-7.9841 0.8468,-3.8921 1.818,-8.3157 2.1583,-9.8302 l 0.61869,-2.7536 h 21.023 l 0.25122,1.3258 c 0.99776,5.2656 4.1181,18.954 4.4054,19.325 0.19463,0.25172 1.4983,0.87219 2.897,1.3788 9.364,3.3918 19.13,10.8 24.738,18.765 4.4402,6.3068 7.9856,14.955 9.1982,22.437 0.82064,5.0639 0.80125,12.611 -0.0455,17.693 l -0.67681,4.0625 1.1867,1.0067 c 3.3522,2.8436 14.122,12.884 14.29,13.322 0.1566,0.40809 -3.6426,7.463 -9.0725,16.847 -0.42214,0.72954 -0.95111,1.2641 -1.1755,1.1879 -0.22439,-0.0762 -5.0166,-1.5692 -10.649,-3.3178 l -10.241,-3.1793 -3.2209,2.4232 c -7.8474,5.9038 -14.754,8.9489 -23.792,10.49 -4.7155,0.80422 -13.249,0.79434 -17.776,-0.0206 z"
         stop-color="#000000"
         stroke-miterlimit="10"
         id="path8"
         inkscape:connector-curvature="0"
         style="fill:#00923f;fill-rule:evenodd;stroke-width:0.20397;stroke-miterlimit:10" />
    </clipPath>
  </defs>
  <metadata
     id="metadata13">
    <rdf:RDF>
      <cc:Work
         rdf:about="">
        <dc:format>image/svg+xml</dc:format>
        <dc:type
           rdf:resource="http://purl.org/dc/dcmitype/StillImage" />
      </cc:Work>
    </rdf:RDF>
  </metadata>
  <g
     transform="matrix(0.56474922,0,0,0.56474922,-30.439926,-36.587956)"
     id="g59"
     style="stroke-width:1.77069747">
    <g
       id="g21"
       style="fill-rule:evenodd;stroke-width:3.13536954">
      <circle
         cx="124.37"
         cy="137.67999"
         r="63.876999"
         stop-color="#000000"
         id="circle15"
         style="fill:#ffffff;stroke-width:1.77069747" />
      <rect
         x="123.98"
         y="70.556"
         width="66.524002"
         height="132.37"
         clip-path="url(#clipPath14533)"
         stop-color="#000000"
         stroke-miterlimit="10"
         id="rect17"
         style="fill:#ff0000;fill-opacity:1;stroke:#ff0000;stroke-width:0.22680862;stroke-miterlimit:10" />
      <rect
         x="57.452"
         y="70.556"
         width="66.524002"
         height="132.37"
         clip-path="url(#clipPath14529)"
         stop-color="#000000"
         stroke-miterlimit="10"
         id="rect19"
         style="fill:#009b3a;fill-opacity:1;stroke-width:0.22680862;stroke-miterlimit:10" />
    </g>
    <g
       id="g23"
       style="fill:#ffffff;fill-rule:evenodd;stroke-width:3.13536954" />
    <path
       d="m 119.68,169.33 c -10.855,-1.6449 -20.308,-9.171 -24.475,-19.487 -5.9074,-14.625 0.52562,-31.613 14.779,-39.028 4.5496,-2.367 8.8058,-3.3855 14.148,-3.3855 24.56,0 39.47,27.188 26.247,47.86 -6.423,10.041 -19.034,15.809 -30.699,14.042 z"
       stop-color="#000000"
       stroke-miterlimit="10"
       id="path25"
       style="fill:#fedf00;fill-opacity:1;fill-rule:evenodd;stroke-width:0.37567118;stroke-miterlimit:10"
       inkscape:connector-curvature="0" />
    <path
       d="m 152.15,138.47 a 27.97,27.97 0 0 1 -27.97,27.97 27.97,27.97 0 0 1 -27.97,-27.97 27.97,27.97 0 0 1 27.97,-27.97 27.97,27.97 0 0 1 27.97,27.97 z m 7.1815,0 a 35.152,35.152 0 0 1 -35.152,35.152 35.152,35.152 0 0 1 -35.152,-35.152 35.152,35.152 0 0 1 35.152,-35.152 35.152,35.152 0 0 1 35.152,35.152 z"
       stop-color="#000000"
       id="path27"
       inkscape:connector-curvature="0"
       style="fill-rule:evenodd;stroke-width:3.13536954" />
    <g
       aria-label="1"
       id="g31"
       style="stroke:#ffffff;stroke-width:3.13536954">
      <path
         d="m 132.71,150.96 c 0.98778,0 1.4224,-0.43462 1.4224,-1.4224 v -4.7808 c 0,-0.98777 -0.43462,-1.4224 -1.4224,-1.4224 h -3.7931 v -19.4 c 0,-0.98777 -0.43462,-1.4224 -1.4224,-1.4224 h -11.458 c -0.98778,0 -1.4224,0.43463 -1.4224,1.4224 v 4.7808 c 0,0.98777 0.43462,1.4224 1.4224,1.4224 h 3.635 v 13.197 h -4.4252 c -0.98777,0 -1.4224,0.43463 -1.4224,1.4224 v 4.7808 c 0,0.98778 0.43463,1.4224 1.4224,1.4224 z"
         id="path29"
         inkscape:connector-curvature="0"
         style="stroke-width:1.77069747" />
    </g>
    <g
       transform="translate(0,-2.6458)"
       id="g39"
       style="stroke-width:1.77069747">
      <g
         transform="matrix(1,0,0,1.1792,158.64,-70.328)"
         id="g35"
         style="stroke-width:1.77069747">
        <rect
           x="-37.074001"
           y="119.47"
           width="5.119"
           height="17.759001"
           id="rect33"
           style="fill-rule:evenodd;stroke-width:1.07977128" />
      </g>
      <path
         transform="matrix(0.099889,0,0,0.096036,171.5,82.757)"
         d="m -405.56,80.842 -70.082,121.64 -70.299,-121.51 70.19,-0.06271 z"
         id="path37"
         inkscape:connector-curvature="0"
         style="fill-rule:evenodd;stroke-width:3.11200094" />
    </g>
    <g
       transform="rotate(-120,123.41,140.37)"
       id="g47"
       style="stroke-width:1.77069747">
      <g
         transform="matrix(1,0,0,1.1792,158.64,-70.328)"
         id="g43"
         style="stroke-width:1.77069747">
        <rect
           x="-37.074001"
           y="119.47"
           width="5.119"
           height="17.759001"
           id="rect41"
           style="fill-rule:evenodd;stroke-width:1.07977128" />
      </g>
      <path
         transform="matrix(0.099889,0,0,0.096036,171.5,82.757)"
         d="m -405.56,80.842 -70.082,121.64 -70.299,-121.51 70.19,-0.06271 z"
         id="path45"
         inkscape:connector-curvature="0"
         style="fill-rule:evenodd;stroke-width:3.11200094" />
    </g>
    <g
       transform="matrix(0.5,-0.86603,-0.86603,-0.5,185.83,317.43)"
       id="g55"
       style="stroke-width:1.77069747">
      <g
         transform="matrix(1,0,0,1.1792,158.64,-70.328)"
         id="g51"
         style="stroke-width:1.77069747">
        <rect
           x="-37.074001"
           y="119.47"
           width="5.119"
           height="17.759001"
           id="rect49"
           style="fill-rule:evenodd;stroke-width:1.07977128" />
      </g>
      <path
         transform="matrix(0.099889,0,0,0.096036,171.5,82.757)"
         d="m -405.56,80.842 -70.082,121.64 -70.299,-121.51 70.19,-0.06271 z"
         id="path53"
         inkscape:connector-curvature="0"
         style="fill-rule:evenodd;stroke-width:3.11200094" />
    </g>
    <path
       d="m 119.09,203.6 c -14.981,-1.3645 -29.233,-7.5952 -39.826,-17.411 l -2.0069,-1.8598 -4.4076,1.4219 c -2.4242,0.78205 -4.4417,1.3366 -4.4834,1.2324 -0.0417,-0.10419 -3.3136,-5.7821 -7.271,-12.617 l -7.1952,-12.428 2.1929,-2.0037 c 1.2061,-1.102 2.7035,-2.4851 3.3275,-3.0736 l 1.1346,-1.0699 -0.52684,-2.0045 c -2.0741,-7.8916 -2.4996,-18.433 -1.0824,-26.816 3.2674,-19.327 14.64,-35.908 31.549,-45.996 4.3075,-2.57 8.1163,-4.2949 13.131,-5.9464 l 3.9128,-1.2886 0.58645,-2.6727 c 0.32255,-1.47 0.76639,-3.4845 0.9863,-4.4768 l 0.39985,-1.8041 h 14.527 c 13.607,0 14.535,0.02962 14.658,0.46772 0.0721,0.25725 0.51906,2.283 0.99321,4.5017 l 0.86209,4.034 2.0316,0.59738 c 10.693,3.1443 21.084,9.44 28.762,17.427 9.479,9.8597 15.352,21.452 17.814,35.157 0.54232,3.0196 0.61648,4.2931 0.61994,10.646 0.004,7.7236 -0.22081,9.8925 -1.6285,15.697 l -0.66549,2.7443 1.1496,1.0691 c 0.63226,0.58799 2.1992,2.0312 3.482,3.2072 l 2.3325,2.1382 -14.542,25.171 -2.813,-0.89417 c -1.5472,-0.49179 -3.6801,-1.151 -4.7399,-1.465 l -1.9269,-0.57081 -2.0821,1.8518 c -6.4279,5.7167 -12.985,9.7551 -20.801,12.811 -3.6889,1.4424 -10.03,3.091 -14.289,3.7153 -2.9406,0.43096 -11.603,0.7419 -14.165,0.50849 z m 14.032,-7.4341 c 8.348,-1.3288 16.584,-4.4716 23.418,-8.9362 2.7191,-1.7763 6.1765,-4.4097 6.3222,-4.8154 0.0405,-0.1128 -1.0776,-0.54508 -2.4847,-0.96062 l -2.5584,-0.75551 -0.85616,0.6424 c -5.2941,3.9723 -12.424,7.4339 -18.971,9.2098 -5.9016,1.6009 -14.447,2.2042 -20.506,1.4476 -8.9341,-1.1156 -17.883,-4.627 -25.299,-9.9271 -1.1989,-0.85681 -2.3414,-1.5554 -2.5391,-1.5524 -0.19762,0.003 -1.4243,0.34008 -2.7259,0.7491 l -2.3666,0.74368 1.9342,1.5628 c 8.6925,7.0232 19.05,11.41 30.327,12.846 3.7472,0.47694 12.577,0.33952 16.304,-0.25372 z m -3.3339,-9.5199 c 6.8518,-0.85133 12.995,-2.8675 18.72,-6.1434 2.5474,-1.4578 6.2161,-4.0485 7.6416,-5.3963 l 0.84426,-0.79822 2.2294,0.66664 c 1.2261,0.36665 5.6996,1.7704 9.941,3.1193 4.2414,1.349 7.7516,2.4127 7.8005,2.3639 0.37637,-0.37637 9.7485,-16.906 9.6881,-17.087 -0.0775,-0.23242 -0.93387,-1.0237 -10.013,-9.2517 l -4.7932,-4.3438 0.47926,-2.3379 c 3.6072,-17.597 -3.1208,-36.526 -16.963,-47.725 -4.6676,-3.7764 -10.38,-6.9896 -15.096,-8.4915 -1.8162,-0.57843 -1.9584,-0.67982 -2.1961,-1.5667 -0.2369,-0.88399 -1.771,-7.8431 -3.4062,-15.451 l -0.70436,-3.2773 -19.815,0.14004 -0.8651,3.8754 c -0.47581,2.1315 -1.3547,6.1606 -1.953,8.9535 -1.5555,7.2607 -1.1821,6.5498 -3.9303,7.4827 -5.0128,1.7017 -10.587,4.9079 -15.168,8.7241 -6.7013,5.5831 -12.045,13.451 -14.842,21.854 -2.661,7.9939 -3.2625,15.975 -1.8365,24.371 0.53623,3.1572 0.53816,3.2713 0.0633,3.7257 -0.26945,0.25783 -1.8776,1.7144 -3.5738,3.2369 -5.1776,4.6475 -10.275,9.3614 -10.357,9.5777 -0.0606,0.15984 9.3401,16.697 9.7021,17.067 0.0483,0.0494 4.327,-1.2537 9.5083,-2.8958 10.572,-3.3504 9.517,-3.2594 12.138,-1.0475 6.1344,5.1773 15.263,9.2303 23.386,10.383 1.1025,0.15643 2.3052,0.32855 2.6727,0.3825 1.5239,0.22369 8.596,0.15063 10.698,-0.11052 z m 53.351,-41.413 c 0.61376,-4.1704 0.60688,-12.151 -0.014,-16.303 -1.86,-12.44 -7.0749,-23.354 -15.544,-32.531 -4.5313,-4.9099 -11.117,-9.7631 -17.336,-12.776 -3.6556,-1.7709 -8.1692,-3.4817 -8.1692,-3.0965 0,0.35305 1.2839,5.9438 1.3892,6.049 0.0518,0.05177 1.1134,0.52913 2.3592,1.0608 14.989,6.3967 26.748,20.048 30.969,35.952 1.7577,6.6234 2.3036,13.86 1.5219,20.175 l -0.43013,3.4745 4.1478,3.8625 0.32723,-1.3967 c 0.17997,-0.76819 0.53078,-2.7798 0.77956,-4.4703 z m -113.57,2.3546 c 0.56462,-0.60618 0.57941,-0.72881 0.28531,-2.3656 -0.49753,-2.7689 -0.40944,-12.714 0.14078,-15.892 1.9661,-11.355 6.7593,-21.055 14.406,-29.152 5.0378,-5.3344 11.727,-10.004 18.175,-12.687 1.1353,-0.4724 2.1232,-1.0541 2.1955,-1.2926 0.21651,-0.71491 1.2194,-5.3517 1.2194,-5.6378 0,-0.14592 -1.1726,0.15608 -2.6059,0.67111 -8.1523,2.9295 -16.795,8.6256 -22.78,15.013 -12.98,13.853 -18.748,33.481 -15.221,51.794 0.28307,1.47 0.51505,2.7147 0.51549,2.766 10e-4,0.13634 2.9719,-2.4683 3.6699,-3.2177 z"
       stop-color="#000000"
       id="path57"
       inkscape:connector-curvature="0"
       style="fill-rule:evenodd;stroke-width:3.13536954" />
  </g>
</svg>
