<?xml version="1.0" encoding="UTF-8"?>
<!-- Created with Inkscape (http://www.inkscape.org/) -->
<svg width="133.1mm" height="123.45mm" version="1.1" viewBox="0 0 133.1 123.45" xmlns="http://www.w3.org/2000/svg" xmlns:cc="http://creativecommons.org/ns#" xmlns:dc="http://purl.org/dc/elements/1.1/" xmlns:rdf="http://www.w3.org/1999/02/22-rdf-syntax-ns#">
 <title>site-FR-beth</title>
 <defs>
  <clipPath id="clipPath7817">
   <path d="m225.7 192.77c7.3501-1.708 15.019-5.0383 20.254-8.7956 1.6047-1.1518 3.2839-2.0941 3.7317-2.0941 0.44775 0 3.085 0.66062 5.8604 1.468 2.7755 0.80738 5.3357 1.5218 5.6894 1.5875 0.49407 0.0919 2.6288-3.2984 9.2152-14.635l8.5722-14.755-9.2831-9.1382 0.37717-4.3023c1.9965-22.775-10.856-44.952-31.947-55.125l-3.7932-1.8296-1.2116-5.0558c-0.66638-2.7807-1.3734-5.6418-1.5711-6.358l-0.35956-1.3022h-34.295l-0.35954 1.3022c-0.19776 0.7162-0.90478 3.5773-1.5711 6.358l-1.2116 5.0558-3.7932 1.8296c-21.091 10.173-33.943 32.35-31.947 55.125l0.37716 4.3023-9.2831 9.1382 8.5722 14.755c6.5864 11.337 8.7212 14.727 9.2152 14.635 0.35366-0.0659 2.9139-0.78013 5.6894-1.5875s5.4127-1.468 5.8604-1.468c0.44775 0 2.0543 0.88979 3.57 1.9773 6.4692 4.6414 15.537 8.2614 24.005 9.5827 3.8454 0.60004 15.947 0.18694 19.636-0.67025z" fill="none" stroke="#000" stroke-width="2.5" style="paint-order:stroke markers fill"/>
  </clipPath>
  <clipPath id="clipPath7821">
   <path d="m225.7 192.77c7.3501-1.708 15.019-5.0383 20.254-8.7956 1.6047-1.1518 3.2839-2.0941 3.7317-2.0941 0.44775 0 3.085 0.66062 5.8604 1.468 2.7755 0.80738 5.3357 1.5218 5.6894 1.5875 0.49407 0.0919 2.6288-3.2984 9.2152-14.635l8.5722-14.755-9.2831-9.1382 0.37717-4.3023c1.9965-22.775-10.856-44.952-31.947-55.125l-3.7932-1.8296-1.2116-5.0558c-0.66638-2.7807-1.3734-5.6418-1.5711-6.358l-0.35956-1.3022h-34.295l-0.35954 1.3022c-0.19776 0.7162-0.90478 3.5773-1.5711 6.358l-1.2116 5.0558-3.7932 1.8296c-21.091 10.173-33.943 32.35-31.947 55.125l0.37716 4.3023-9.2831 9.1382 8.5722 14.755c6.5864 11.337 8.7212 14.727 9.2152 14.635 0.35366-0.0659 2.9139-0.78013 5.6894-1.5875s5.4127-1.468 5.8604-1.468c0.44775 0 2.0543 0.88979 3.57 1.9773 6.4692 4.6414 15.537 8.2614 24.005 9.5827 3.8454 0.60004 15.947 0.18694 19.636-0.67025z" fill="none" stroke="#000" stroke-width="2.5" style="paint-order:stroke markers fill"/>
  </clipPath>
 </defs>
 <g transform="translate(-147.34 -71.507)">
  <path d="m147.76 71.365h132.64v123.63h-132.64z" clip-path="url(#clipPath7821)" fill="#ed1c24" stroke-width=".17426"/>
  <path d="m147.76 98.239h132.64v76.987h-132.64z" clip-path="url(#clipPath7817)" fill="#fff" stroke-width=".19448"/>
  <path d="m213.06 102.04c-1.451 3.0553-4.1832 5.1906-6.7948 7.2114-0.42968 0.37515-1.4979 1.1018-0.72304 1.6549 0.66399-0.74195 2.4861 0.24064 1.4271 1.0387-0.94857 0.88775-2.2547 1.2129-3.3081 1.9456-0.9328 0.50695-1.8791 1.036-2.6188 1.8118-0.0503 1.2122 1.5037 0.54121 2.1344 1.0461 0.82128 0.87783-0.34811 2.3582-1.426 2.0195-1.378 0.0425-2.3298 1.255-2.8511 2.4118-1.0779 1.6669-3.1206 2.1608-4.7471 3.1093-0.93055 0.54234-1.8334 1.1426-2.6995 1.7755-1.1169 0.76381-0.14534 2.2757 1.0432 1.9046 1.2827-0.12797 2.4368-1.1358 3.765-0.84537 1.2043 0.42314 1.5423 1.9972 1.132 3.0963-0.30417 0.87986-1.041 1.4997-1.631 2.1869-0.95826 0.97089-2.2115 1.6011-3.5329 1.9016-1.2768 0.42877-2.4248 1.2111-3.2625 2.2673-0.97202 0.97876-1.9404 1.9733-3.058 2.7894-0.35307 0.90081 0.64328 1.668 1.4736 1.6441 1.7502-0.11042 2.9629-1.5425 4.4533-2.2786 1.237-0.55586 2.6925 0.77733 2.3899 2.0657-0.0958 1.2536-1.2694 1.8897-2.3128 2.2754-3.0677 1.542-5.7313 3.7785-8.0962 6.2457-0.48916 0.99792-1.8341 0.70412-2.558 1.3997-0.47159 0.88008 0.71199 1.3442 1.4184 1.2539 3.035-0.36501 5.8672-1.648 8.55-3.0593 0.99769-0.47699 1.9345-1.1047 2.9719-1.4848 0.97425-0.24086 2.3329 0.1825 2.5071 1.2915-2e-3 1.1707-1.161 1.819-2.0794 2.2764-2.8322 1.488-5.9404 2.3106-8.9675 3.2943-1.1333-0.31679-1.9873 1.6996-0.744 2.0621 1.3145 0.45063 2.7121 0.0892 4.0568 0.0303 4.1582-0.63697 7.7947-2.887 11.681-4.3414 1.616-0.52679 3.5232 0.20819 4.3206 1.7223 0.80122 1.3496 0.72776 3.1244-0.11716 4.4358-1.3357 2.8574-3.3662 5.4837-6.092 7.1267-1.711 0.84718-3.7082 1.1712-5.1748 2.4681-1.3564 0.44702 0.68 2.2797 0.97427 0.8251 0.81496-1.1115 2.2525-1.4438 3.5561-1.4898 1.9596-0.21315 4.0406-0.57455 5.563-1.9309 1.3649-1.0601 2.7101-2.5224 4.5635-2.5452 1.0243 0.12144 2.0375 0.94452 3.0778 0.44229 0.91026-0.41684 2.3381-0.17259 2.5758 0.94654 0.43464 1.3093 1.784 1.905 2.8543 2.6055 0.38731 0.54391 1.6743 1.9467 1.971 0.70996-0.2395-0.8821 0.1028-2.232 1.26-1.9372 1.0108 0.045 1.974 0.41796 2.9829 0.47902 1.3433 0.27827 2.464 1.198 3.2269 2.3086 0.52477 0.72484 1.6743 1.9699 2.5285 1.009 0.52994-0.99385-0.48172-1.8228-1.3055-2.1777-1.2009-0.74421-2.2277-1.7354-3.2779-2.6738-1.5479-1.4456-2.8845-3.2842-3.1303-5.4436-0.33301-2.1529-0.15771-4.349 0.12326-6.4962 0.35373-1.3823 2.1215-2.1371 3.3576-1.4026 1.7392 0.79356 3.4665 1.9291 5.4605 1.8061 2.8813 0.062 5.8422-0.48962 8.6579 0.34518 2.7403 0.86318 4.6994 3.1756 7.3685 4.1762 0.59753 0.3632 1.362 0.0175 1.581-0.62074 0.26452-0.57343 0.0777-1.3071-0.47474-1.634-3.0936-3.1226-7.3211-4.6394-10.9-7.0794-1.1268-0.28614-1.3321-2.0992-0.29021-2.6226 1.3695-0.99521 3.3074-0.53173 4.5223 0.49434 1.0261 0.60092 2.1822 1.0513 3.386 1.0522 1.2331-0.38596 0.63538-2.1702-0.46866-2.3045-2.0008-1.1295-3.4336-2.9832-5.1667-4.4522-0.99814-0.84493-2.0902-1.7004-3.4315-1.8642-0.73294-0.13362-1.4826-0.16269-2.2254-0.11289-0.69668-0.75706 0.23161-1.9163 1.1324-1.8214 0.92424 0.0622 1.8431 0.13091 2.7662 2e-3 1.0317-0.0755 2.0623-0.18228 3.0974-0.18927 0.83569 0.56893 2.5055-0.4139 1.7514-1.3952-0.82398-0.72189-2.0152-0.65926-2.9996-1.0297-1.7285-0.56513-3.4889-1.0278-5.2719-1.3857-1.2467-0.0744-1.0928-1.7151 2e-3 -1.8962 0.71718-0.26745 1.3406 0.28344 2.029 0.36884 1.1757 0.2528 2.3894 0.24941 3.5645 0.5056 0.99657-0.49186 0.22622-1.9474-0.67505-2.0323-2.1265-0.76044-3.9644-2.1328-5.7613-3.468-1.9837-1.4918-3.7833-3.217-5.7913-4.6746-0.72867-0.45132-1.9228-0.58133-2.1143-1.5819-0.0677-0.92064 1.0157-1.3397 1.7838-1.1246 1.0898 0.32175 2.1051 0.8821 3.2159 1.1572 0.87129 0.14826 1.7698 0.40601 2.6096 0.29628 1.0662-0.67008-0.45739-1.0982-1.0087-1.3305-1.4213-0.76676-2.6844-1.7881-3.9637-2.7624-1.081-0.92267 0.91704-1.3302 1.6042-0.97493 1.1491 0.4806 1.28-1.1937 0.4211-1.615-1.0121-0.43035-1.8823-1.1446-2.8-1.7678-1.6583-1.1802-3.5361-2.1146-5.5743-2.3742-2.2854-0.2296-4.4184-1.5436-5.6308-3.498-0.75186-1.1137-1.3037-2.3455-1.837-3.5739z" fill="#00a651" stroke-width=".22531"/>
  <path d="m225.7 192.77c7.3501-1.708 15.019-5.0383 20.254-8.7956 1.6047-1.1518 3.2839-2.0941 3.7317-2.0941 0.44776 0 3.085 0.66062 5.8604 1.468 2.7755 0.80738 5.3357 1.5218 5.6894 1.5875 0.49407 0.0919 2.6288-3.2984 9.2152-14.635l8.5722-14.755-9.2831-9.1382 0.37717-4.3023c1.9965-22.775-10.856-44.952-31.947-55.125l-3.7932-1.8296-1.2116-5.0558c-0.66638-2.7807-1.3734-5.6418-1.5711-6.358l-0.35956-1.3022h-34.295l-0.35954 1.3022c-0.19776 0.7162-0.90478 3.5773-1.5711 6.358l-1.2116 5.0558-3.7932 1.8296c-21.091 10.173-33.943 32.35-31.947 55.125l0.37716 4.3023-9.2831 9.1382 8.5722 14.755c6.5864 11.337 8.7212 14.727 9.2152 14.635 0.35366-0.0659 2.9139-0.78013 5.6894-1.5875s5.4127-1.468 5.8604-1.468c0.44775 0 2.0543 0.88979 3.57 1.9773 6.4692 4.6414 15.537 8.2614 24.005 9.5827 3.8454 0.60004 15.947 0.18694 19.636-0.67025z" fill="none" stroke="#000" stroke-width="2.5" style="paint-order:stroke markers fill"/>
  <path d="m225.7 192.77c7.3501-1.708 15.019-5.0383 20.254-8.7956 1.6047-1.1518 3.2839-2.0941 3.7317-2.0941 0.44776 0 3.085 0.66062 5.8604 1.468 2.7755 0.80738 5.3357 1.5218 5.6894 1.5875 0.49407 0.0919 2.6288-3.2984 9.2152-14.635l8.5722-14.755-9.2831-9.1382 0.37717-4.3023c1.9965-22.775-10.856-44.952-31.947-55.125l-3.7932-1.8296-1.2116-5.0558c-0.66638-2.7807-1.3734-5.6418-1.5711-6.358l-0.35956-1.3022h-34.295l-0.35954 1.3022c-0.19776 0.7162-0.90478 3.5773-1.5711 6.358l-1.2116 5.0558-3.7932 1.8296c-21.091 10.173-33.943 32.35-31.947 55.125l0.37716 4.3023-9.2831 9.1382 8.5722 14.755c6.5864 11.337 8.7212 14.727 9.2152 14.635 0.35366-0.0659 2.9139-0.78013 5.6894-1.5875s5.4127-1.468 5.8604-1.468c0.44775 0 2.0543 0.88979 3.57 1.9773 6.4692 4.6414 15.537 8.2614 24.005 9.5827 3.8454 0.60004 15.947 0.18694 19.636-0.67025z" fill="none" stroke="#000" stroke-width="2.5" style="paint-order:stroke markers fill"/>
  <path d="m213.51 94.054c-0.52497-2.21-2.1967-5.9024-3.8173-8.4314-0.79009-1.233-1.0045-1.8355-0.69048-1.9402 1.0696-0.35652 2.6064-2.0139 2.6064-2.8108 0-1.2785-1.0057-2.0972-2.2663-1.8451-1.3855 0.2771-1.1727-0.49782 0.2948-1.0738 1.4607-0.5733 3.3337-0.02738 3.8586 1.1246 0.22386 0.49132 0.51791 0.89331 0.65344 0.89331 0.13546 0 0.42959-0.40199 0.65346-0.89331 0.52487-1.152 2.398-1.6979 3.8586-1.1246 1.4676 0.576 1.6803 1.3509 0.29481 1.0738-1.2606-0.25212-2.2662 0.56664-2.2662 1.8451 0 0.79696 1.5368 2.4543 2.6063 2.8108 0.31403 0.10468 0.0996 0.70721-0.69049 1.9402-1.6206 2.529-3.2923 6.2215-3.8173 8.4314-0.24642 1.0374-0.53406 1.8861-0.63921 1.8861-0.10511 0-0.39277-0.84875-0.63919-1.8861z" fill="#fff" fill-rule="evenodd"/>
  <path d="m215.36 86.999 1.0034-2.0458-0.92776-0.96836c-0.51026-0.5326-0.92774-1.1636-0.92774-1.4022s-0.16324-0.43382-0.36295-0.43382c-0.19961 0-0.36293 0.19522-0.36293 0.43382s-0.4175 0.86958-0.92776 1.4022l-0.92774 0.96836 1.0034 2.0458c0.55184 1.1252 1.0986 2.0458 1.2151 2.0458 0.11643 0 0.66325-0.92061 1.2151-2.0458z" fill="#ed1c24" fill-rule="evenodd"/>
  <path d="m252.76 159.61c2.1764 0.65035 6.21 1.0488 9.2105 0.90986 1.4628-0.0677 2.0918 0.0478 2.0255 0.37212-0.22602 1.1045 0.44089 3.2641 1.1311 3.6626 1.1072 0.63924 2.3191 0.1777 2.731-1.0401 0.45277-1.3384 1.0175-0.76671 0.78256 0.79221-0.23384 1.5516-1.6432 2.9008-2.9032 2.7794-0.53742-0.0518-1.0326 2e-3 -1.1003 0.11924-0.0677 0.11731 0.13334 0.57302 0.4469 1.0126 0.73521 1.0306 0.27144 2.9256-0.95538 3.904-1.2326 0.98293-2.0101 0.77971-1.0774-0.2816 0.84865-0.96567 0.6424-2.246-0.46479-2.8852-0.69019-0.39848-2.8939 0.10373-3.7374 0.85175-0.24767 0.21961-0.66227-0.26733-1.335-1.5681-1.3799-2.668-3.7418-5.962-5.3932-7.5216-0.77517-0.73209-1.3664-1.4056-1.3138-1.4966s0.93143 0.0842 1.953 0.3895z" fill="#00a651"/>
  <path d="m257.95 164.74 1.27 1.8918 1.3025-0.31928c0.71637-0.1756 1.4716-0.22166 1.6782-0.10236 0.20663 0.1193 0.45732 0.0755 0.55718-0.0974 0.0998-0.17287 0.0124-0.41192-0.19424-0.53122-0.20663-0.1193-0.54433-0.79635-0.75044-1.5046l-0.37476-1.2876-2.2734-0.15396c-1.2504-0.0847-2.321-0.0715-2.3792 0.0294-0.0582 0.10083 0.46565 1.0347 1.1642 2.0752z" fill="#fff"/>
  <path d="m175.94 161.65c-1.6514 1.5596-4.0133 4.8536-5.3932 7.5216-0.67275 1.3007-1.0873 1.7877-1.335 1.5681-0.84354-0.748-3.0472-1.2502-3.7374-0.85175-1.1072 0.63924-1.3134 1.9195-0.46479 2.8852 0.93271 1.0613 0.15524 1.2645-1.0774 0.28162-1.2268-0.97833-1.6906-2.8734-0.95539-3.904 0.31357-0.43953 0.51468-0.89518 0.44691-1.0126-0.0677-0.11732-0.56292-0.17104-1.1004-0.11926-1.2601 0.12145-2.6694-1.2277-2.9032-2.7794-0.23494-1.5589 0.32978-2.1306 0.78255-0.79223 0.41196 1.2178 1.6239 1.6793 2.731 1.0401 0.69019-0.39848 1.3571-2.558 1.1311-3.6626-0.0664-0.3243 0.56264-0.43988 2.0255-0.3721 3.0005 0.13896 7.0341-0.25951 9.2105-0.90987 1.0216-0.30528 1.9005-0.48055 1.953-0.38949 0.0525 0.091-0.53866 0.76452-1.3138 1.4966z" fill="#00a651"/>
  <path d="m168.9 163.57-2.2734 0.15397-0.37475 1.2876c-0.20611 0.7082-0.54382 1.3852-0.75045 1.5045-0.20664 0.11931-0.29408 0.35829-0.19423 0.53124 0.0998 0.17287 0.35054 0.2167 0.55717 0.0974 0.20664-0.1193 0.96183-0.0732 1.6782 0.10237l1.3025 0.31927 1.27-1.8918c0.69852-1.0405 1.2224-1.9743 1.1642-2.0752-0.0582-0.10083-1.1289-0.11408-2.3793-0.0294z" fill="#fff"/>
  <g stroke="#fff" stroke-width="2" style="paint-order:stroke fill markers" aria-label="ב‎">
   <path d="m222.78 146.07h-18.673l0.91143-4.7675h13.975q0.58425-3.0381 0.58425-7.5017 0-4.3001-0.74784-5.7724-0.72447-1.4957-4.1598-1.4957h-6.3566q-3.4821 0-3.4821-2.9446 0-2.1734 1.4256-3.8327h0.60762q0.37392 1.6359 2.337 1.6359h4.4637q4.043 0 5.5854 0.88805 1.5658 0.88806 2.0332 2.3837 0.49077 1.4957 0.49077 5.2115v3.2952q0 5.4218-2.0332 8.1327h3.9262z"/>
  </g>
 </g>
 <metadata>
  <rdf:RDF>
   <cc:Work rdf:about="">
    <dc:title>site-FR-beth</dc:title>
   </cc:Work>
  </rdf:RDF>
 </metadata>
</svg>
