<?xml version="1.0" encoding="UTF-8"?>
<!-- Created with Inkscape (http://www.inkscape.org/) -->
<svg width="133.1mm" height="123.45mm" version="1.1" viewBox="0 0 133.1 123.45" xmlns="http://www.w3.org/2000/svg" xmlns:cc="http://creativecommons.org/ns#" xmlns:dc="http://purl.org/dc/elements/1.1/" xmlns:rdf="http://www.w3.org/1999/02/22-rdf-syntax-ns#">
 <title>site-FR-aleph</title>
 <defs>
  <clipPath id="clipPath11279">
   <path d="m263.75-307.36c29.526 6.7733 60.332 19.98 81.36 34.881 6.4461 4.5676 13.192 8.3047 14.99 8.3047 1.7987 0 12.392-2.6198 23.542-5.8216 11.149-3.2018 21.434-6.0348 22.855-6.2956 1.9847-0.36444 10.56 13.08 37.018 58.038l34.435 58.512-37.291 36.239 1.5151 17.062c8.0202 90.317-43.609 178.27-128.33 218.61l-15.238 7.2557-4.867 20.05c-2.6769 11.027-5.517 22.374-6.3114 25.214l-1.4444 5.164h-137.76l-1.4443-5.164c-0.79441-2.8402-3.6346-14.186-6.3114-25.214l-4.867-20.05-15.238-7.2557c-84.722-40.343-136.35-128.29-128.33-218.61l1.5151-17.062-37.291-36.239 34.435-58.512c26.458-44.958 35.033-58.402 37.018-58.038 1.4207 0.26134 11.705 3.0938 22.855 6.2956 11.149 3.2018 21.743 5.8216 23.542 5.8216 1.7986 0 8.2521-3.5286 14.341-7.8414 25.987-18.407 62.414-32.762 96.429-38.002 15.447-2.3796 64.061-0.74136 78.879 2.658z" fill="none" stroke="#000" stroke-width="9.9782" style="paint-order:stroke markers fill"/>
  </clipPath>
  <clipPath id="clipPath11283">
   <path d="m511.61 590.65c40.129-8.3201 81.998-24.543 110.58-42.846 8.7611-5.6106 17.929-10.201 20.374-10.201 2.4446 0 16.843 3.2181 31.996 7.1511 15.154 3.933 29.132 7.413 31.062 7.7333 2.6975 0.44768 14.352-16.067 50.313-71.292l46.802-71.874-50.683-44.515 2.0592-20.958c10.9-110.94-59.271-218.98-174.42-268.53l-20.71-8.9127-6.6148-24.629c-3.6382-13.546-7.4984-27.483-8.578-30.972l-1.9631-6.3434h-187.24l-1.963 6.3434c-1.0797 3.4888-4.9398 17.426-8.578 30.972l-6.615 24.629-20.71 8.9127c-115.15 49.556-185.32 157.59-174.42 268.53l2.0592 20.958-50.683 44.515 46.802 71.874c35.96 55.225 47.615 71.74 50.313 71.292 1.9309-0.32102 15.909-3.8003 31.062-7.7333 15.154-3.933 29.552-7.1511 31.996-7.1511 2.4446 0 11.216 4.3345 19.491 9.6322 35.32 22.61 84.83 40.244 131.06 46.68 20.995 2.923 87.067 0.91065 107.21-3.265z" fill="none" stroke="#000" stroke-width="12.893" style="paint-order:stroke markers fill"/>
  </clipPath>
 </defs>
 <g transform="translate(-147.34 -71.507)">
  <g transform="matrix(.18316 0 0 .20528 132 71.522)" clip-path="url(#clipPath11283)">
   <rect width="900" height="600" fill="#ed2939"/>
   <rect width="600" height="600" fill="#fff"/>
   <rect width="300" height="600" fill="#002395"/>
  </g>
  <path transform="matrix(.24894 0 0 -.25216 160.04 115.27)" d="m216.81 52.33-214.41-371.37 428.82-1e-5z" clip-path="url(#clipPath11279)" fill="#ffd300" fill-rule="evenodd" stop-color="#000000" style="paint-order:normal"/>
  <path d="m225.7 192.77c7.3501-1.708 15.019-5.0383 20.254-8.7956 1.6047-1.1518 3.2839-2.0941 3.7317-2.0941 0.44775 0 3.085 0.66062 5.8604 1.468 2.7755 0.80738 5.3357 1.5218 5.6894 1.5875 0.49407 0.0919 2.6288-3.2984 9.2152-14.635l8.5722-14.755-9.2831-9.1382 0.37717-4.3023c1.9965-22.775-10.856-44.952-31.947-55.125l-3.7932-1.8296-1.2116-5.0558c-0.66638-2.7807-1.3734-5.6418-1.5711-6.358l-0.35956-1.3022h-34.295l-0.35954 1.3022c-0.19776 0.7162-0.90478 3.5773-1.5711 6.358l-1.2116 5.0558-3.7932 1.8296c-21.091 10.173-33.943 32.35-31.947 55.125l0.37716 4.3023-9.2831 9.1382 8.5722 14.755c6.5864 11.337 8.7212 14.727 9.2152 14.635 0.35366-0.0659 2.9139-0.78013 5.6894-1.5875s5.4127-1.468 5.8604-1.468c0.44775 0 2.0543 0.88979 3.57 1.9773 6.4692 4.6414 15.537 8.2614 24.005 9.5827 3.8454 0.60004 15.947 0.18694 19.636-0.67025z" fill="none" stroke="#000" stroke-width="2.5" style="paint-order:stroke markers fill"/>
  <path d="m213.51 94.054c-0.52497-2.21-2.1967-5.9024-3.8173-8.4314-0.79009-1.233-1.0045-1.8355-0.69048-1.9402 1.0696-0.35652 2.6064-2.0139 2.6064-2.8108 0-1.2785-1.0057-2.0972-2.2663-1.8451-1.3855 0.2771-1.1727-0.49782 0.2948-1.0738 1.4607-0.5733 3.3337-0.02738 3.8586 1.1246 0.22386 0.49132 0.51791 0.89331 0.65344 0.89331 0.13546 0 0.42959-0.40199 0.65346-0.89331 0.52487-1.152 2.398-1.6979 3.8586-1.1246 1.4676 0.576 1.6803 1.3509 0.29481 1.0738-1.2606-0.25212-2.2662 0.56664-2.2662 1.8451 0 0.79696 1.5368 2.4543 2.6063 2.8108 0.31403 0.10468 0.0996 0.70721-0.69049 1.9402-1.6206 2.529-3.2923 6.2215-3.8173 8.4314-0.24642 1.0374-0.53406 1.8861-0.63921 1.8861-0.10511 0-0.39277-0.84875-0.63919-1.8861z" fill="#ffd300" fill-rule="evenodd"/>
  <path d="m215.36 86.999 1.0034-2.0458-0.92776-0.96836c-0.51026-0.5326-0.92774-1.1636-0.92774-1.4022s-0.16324-0.43382-0.36295-0.43382c-0.19961 0-0.36293 0.19522-0.36293 0.43382s-0.4175 0.86958-0.92776 1.4022l-0.92774 0.96836 1.0034 2.0458c0.55184 1.1252 1.0986 2.0458 1.2151 2.0458 0.11643 0 0.66325-0.92061 1.2151-2.0458z" fill="#fff" fill-rule="evenodd"/>
  <path d="m252.76 159.61c2.1764 0.65035 6.21 1.0488 9.2105 0.90986 1.4628-0.0677 2.0918 0.0478 2.0255 0.37212-0.22602 1.1045 0.44089 3.2641 1.1311 3.6626 1.1072 0.63924 2.3191 0.1777 2.731-1.0401 0.45277-1.3384 1.0175-0.76671 0.78256 0.79221-0.23384 1.5516-1.6432 2.9008-2.9032 2.7794-0.53742-0.0518-1.0326 2e-3 -1.1003 0.11924-0.0677 0.11731 0.13334 0.57302 0.4469 1.0126 0.73521 1.0306 0.27144 2.9256-0.95538 3.904-1.2326 0.98293-2.0101 0.77971-1.0774-0.2816 0.84865-0.96567 0.6424-2.246-0.46479-2.8852-0.69019-0.39848-2.8939 0.10373-3.7374 0.85175-0.24767 0.21961-0.66227-0.26733-1.335-1.5681-1.3799-2.668-3.7418-5.962-5.3932-7.5216-0.77517-0.73209-1.3664-1.4056-1.3138-1.4966s0.93143 0.0842 1.953 0.3895z" fill="#fff"/>
  <path d="m257.95 164.74 1.27 1.8918 1.3025-0.31928c0.71637-0.1756 1.4716-0.22166 1.6782-0.10236 0.20663 0.1193 0.45732 0.0755 0.55718-0.0974 0.0998-0.17287 0.0124-0.41192-0.19424-0.53122-0.20663-0.1193-0.54433-0.79635-0.75044-1.5046l-0.37476-1.2876-2.2734-0.15396c-1.2504-0.0847-2.321-0.0715-2.3792 0.0294-0.0582 0.10083 0.46565 1.0347 1.1642 2.0752z" fill="#ed2939"/>
  <path d="m175.94 161.65c-1.6514 1.5596-4.0133 4.8536-5.3932 7.5216-0.67275 1.3007-1.0873 1.7877-1.335 1.5681-0.84354-0.748-3.0472-1.2502-3.7374-0.85175-1.1072 0.63924-1.3134 1.9195-0.46479 2.8852 0.93271 1.0613 0.15524 1.2645-1.0774 0.28162-1.2268-0.97833-1.6906-2.8734-0.95539-3.904 0.31357-0.43953 0.51468-0.89518 0.44691-1.0126-0.0677-0.11732-0.56292-0.17104-1.1004-0.11926-1.2601 0.12145-2.6694-1.2277-2.9032-2.7794-0.23494-1.5589 0.32978-2.1306 0.78255-0.79223 0.41196 1.2178 1.6239 1.6793 2.731 1.0401 0.69019-0.39848 1.3571-2.558 1.1311-3.6626-0.0664-0.3243 0.56264-0.43988 2.0255-0.3721 3.0005 0.13896 7.0341-0.25951 9.2105-0.90987 1.0216-0.30528 1.9005-0.48055 1.953-0.38949 0.0525 0.091-0.53866 0.76452-1.3138 1.4966z" fill="#fff"/>
  <path d="m168.9 163.57-2.2734 0.15397-0.37475 1.2876c-0.20611 0.7082-0.54382 1.3852-0.75045 1.5045-0.20664 0.11931-0.29408 0.35829-0.19423 0.53124 0.0998 0.17287 0.35054 0.2167 0.55717 0.0974 0.20664-0.1193 0.96183-0.0732 1.6782 0.10237l1.3025 0.31927 1.27-1.8918c0.69852-1.0405 1.2224-1.9743 1.1642-2.0752-0.0582-0.10083-1.1289-0.11408-2.3793-0.0294z" fill="#002395"/>
  <g stroke="#fff" stroke-width="2" style="paint-order:stroke fill markers" aria-label="א‎">
   <path d="m222.9 146.49h-0.63099q-0.14022-1.7995-1.2152-3.0147l-10.143-11.638q-2.5941 1.3087-2.5941 3.3653 0 1.5892 1.6593 4.0897 1.9163 2.8511 1.9163 4.5338 0 2.2435-1.706 2.2435h-4.4169v-0.63098q1.4022-0.37392 1.4022-1.6125 0-0.77121-0.88806-3.0615-0.88805-2.2669-0.88805-3.5055 0-3.7626 4.6272-6.4034l-2.8745-3.2484q-1.7995-2.0566-1.7995-4.2767 0-2.0098 1.6359-3.7859h0.60762q0.11685 2.0332 1.2152 3.2718l8.7871 9.979q0.67772-3.3653 2.5941-6.2865-3.7158-0.60762-3.7158-3.7392 0-1.8462 0.95817-3.225h0.60761q0.37392 1.4489 1.7995 1.7995l2.0098 0.4674q2.6408 0.63098 2.6408 2.968 0 1.0283-0.21033 1.6593-0.7712 0.2337-2.5473 0.2337-2.4305 3.8327-2.4305 6.2631 0 1.7995 1.2386 3.225l2.1734 2.5006q1.8228 2.0799 1.8228 4.3001 0 2.0098-1.6359 3.5288z"/>
  </g>
 </g>
 <metadata>
  <rdf:RDF>
   <cc:Work rdf:about="">
    <dc:title>site-FR-aleph</dc:title>
   </cc:Work>
  </rdf:RDF>
 </metadata>
</svg>
