<?xml version="1.0" encoding="UTF-8" standalone="no"?>
<!-- Created with Inkscape (http://www.inkscape.org/) -->

<svg
   width="133.1mm"
   height="133.1mm"
   version="1.1"
   viewBox="0 0 133.1 133.1"
   id="svg7"
   sodipodi:docname="Site-CN-77.svg"
   inkscape:version="1.3 (0e150ed6c4, 2023-07-21)"
   xmlns:inkscape="http://www.inkscape.org/namespaces/inkscape"
   xmlns:sodipodi="http://sodipodi.sourceforge.net/DTD/sodipodi-0.dtd"
   xmlns="http://www.w3.org/2000/svg"
   xmlns:svg="http://www.w3.org/2000/svg"
   xmlns:rdf="http://www.w3.org/1999/02/22-rdf-syntax-ns#"
   xmlns:cc="http://creativecommons.org/ns#"
   xmlns:dc="http://purl.org/dc/elements/1.1/">
  <defs
     id="defs7" />
  <sodipodi:namedview
     id="namedview7"
     pagecolor="#ffffff"
     bordercolor="#000000"
     borderopacity="0.25"
     inkscape:showpageshadow="2"
     inkscape:pageopacity="0.0"
     inkscape:pagecheckerboard="0"
     inkscape:deskcolor="#d1d1d1"
     inkscape:document-units="mm"
     inkscape:zoom="1.4142136"
     inkscape:cx="420.72852"
     inkscape:cy="229.45614"
     inkscape:window-width="2560"
     inkscape:window-height="1494"
     inkscape:window-x="-11"
     inkscape:window-y="-11"
     inkscape:window-maximized="1"
     inkscape:current-layer="g7" />
  <metadata
     id="metadata1">
    <rdf:RDF>
      <cc:Work
         rdf:about="">
        <dc:format>image/svg+xml</dc:format>
        <dc:type
           rdf:resource="http://purl.org/dc/dcmitype/StillImage" />
      </cc:Work>
    </rdf:RDF>
  </metadata>
  <g
     transform="translate(-57.427 -70.189)"
     id="g7">
    <g
       fill="#fff"
       fill-opacity=".99216"
       fill-rule="evenodd"
       stroke-width="5.3993"
       id="g3">
      <path
         transform="matrix(.26458 0 0 .26458 57.427 70.189)"
         d="m225.71 459.26c-43.865-6.0884-84.333-25.036-116.19-54.403-9.1404-8.4252-10.776-10.552-8.9144-11.593 1.7382-0.97277 4.7683 0.97876 12.765 8.2212 30.82 27.914 66.482 45.225 105.89 51.405 19.138 3.0008 56.728 2.2602 73.592-1.45 36.423-8.013 68.678-24.753 94.504-49.047 8.9563-8.4247 11.722-10.278 14.175-9.4991 2.8981 0.91981 2.777 1.2496-2.4586 6.6969-9.413 9.7937-27.708 23.926-41.177 31.808-21.703 12.7-43.491 20.953-68.007 25.758-14.071 2.7581-50.792 3.9614-64.18 2.1032z"
         id="path1" />
      <path
         transform="matrix(.26458 0 0 .26458 57.427 70.189)"
         d="m447.25 312.99c-1.2871-1.5509-1.0195-4.5676 1.1724-13.214 6.5933-26.009 7.5603-61.935 2.3395-86.919-16.022-76.671-70.564-135.23-145.3-156.01-7.107-1.9759-8.3206-2.8001-8.3206-5.6506 0-4.3687 1.2883-4.2654 18.945 1.5185 52.673 17.254 97.837 56.125 122.72 105.62 7.6975 15.31 16.162 41.414 19.07 58.808 4.4933 26.884 2.6178 63.862-4.5465 89.643-2.3854 8.584-3.3174 9.5349-6.0814 6.2046z"
         id="path2" />
      <path
         transform="matrix(.26458 0 0 .26458 57.427 70.189)"
         d="m48.851 303.21c-5.142-20.694-6.4015-34.082-5.587-59.392 0.59261-18.416 1.5789-27.262 4.346-38.981 16.976-71.892 69.498-129.31 139.16-152.13 17.674-5.7896 18.945-5.89 18.945-1.4963 0 2.9419-1.1984 3.6779-9.6429 5.9221-62.528 16.618-115.36 66.241-136.7 128.39-12.343 35.955-14.252 79.561-5.0496 115.34 1.9428 7.5529 2.2594 10.943 1.1472 12.283-2.7666 3.3336-3.6557 1.9996-6.6211-9.9348z"
         id="path3" />
    </g>
    <path
       d="m117.1 189.11c-11.8-1.6384-22.399-7.0554-30.861-15.771-1.7559-1.8088-3.2908-3.2887-3.411-3.2887-0.1202 0-1.4863 0.73095-3.0359 1.6243-1.5495 0.89337-2.8739 1.6243-2.943 1.6243-0.49308 0-7.5185-11.899-7.5185-12.734 0-0.0926 1.3248-0.94731 2.9441-1.8994s2.9707-1.7495 3.0032-1.7721c0.0325-0.0226-0.453-1.6057-1.0789-3.5179-1.9191-5.8634-2.5667-10.932-2.3244-18.191 0.16565-4.9631 0.43311-7.1944 1.2237-10.209 3.2918-12.552 9.8138-22.312 20.012-29.95 5.5131-4.1287 14.016-7.8792 20.584-9.0793l2.741-0.50086v-7.4594l2.496-0.26089c3.1557-0.32984 7.6403-0.32887 10.397 0.0022l2.1319 0.25607v3.8012c0 3.4571 0.0695 3.8012 0.7677 3.8012 1.617 0 8.6822 2.0835 12.183 3.5926 13.97 6.0227 24.539 17.611 29.261 32.085 3.268 10.015 3.2802 21.729 0.0331 31.826-0.65932 2.0502-1.1603 3.7545-1.1133 3.7873 0.047 0.0327 1.4103 0.82545 3.0296 1.7616s2.9441 1.7899 2.9441 1.8973c0 0.6027-3.2453 6.5389-5.1478 9.4163l-2.2171 3.3531-6.295-3.4115-2.9964 3.1544c-7.1339 7.5101-16.399 12.827-26.349 15.12-4.9152 1.133-13.816 1.5872-18.461 0.94222z"
       fill="#ccc"
       fill-rule="evenodd"
       style="paint-order:stroke fill markers;fill:#c7cb65;fill-opacity:1"
       id="path4"
       inkscape:label="back" />
    <path
       id="path4-7"
       style="fill:#31353a;fill-opacity:1;paint-order:stroke fill markers"
       inkscape:label="back1"
       d="m 111.59147,86.393 c -6.20069,1.527922 -13.53767,4.910354 -18.48104,8.612389 -10.19819,7.638001 -16.7199,17.397611 -20.0117,29.949601 -0.79059,3.0146 -1.05805,5.2461 -1.2237,10.2092 -0.2423,7.25899 0.40531,12.32774 2.32441,18.19113 0.6259,1.9122 1.1115,3.49502 1.079,3.51762 -0.0325,0.0226 -1.38413,0.81989 -3.00343,1.77198 -1.6193,0.95209 -2.94401,1.80703 -2.94401,1.89963 0,0.835 7.02533,12.73411 7.51841,12.73411 0.0691,0 1.39347,-0.73083 2.94297,-1.62419 1.5496,-0.89335 2.91579,-1.62471 3.03599,-1.62471 0.1202,0 1.65526,1.47989 3.41116,3.28869 0.53438,0.55039 1.07714,1.08782 1.62832,1.61178 z m 24.79125,0.07338 23.67866,88.36877 c 0.62314,-0.59479 1.25357,-1.18192 1.84794,-1.80764 l 2.99672,-3.15433 6.29471,3.41116 2.21744,-3.35277 c 1.90249,-2.87739 5.14749,-8.81378 5.14749,-9.41648 0,-0.1074 -1.32472,-0.96089 -2.944,-1.89704 -1.61931,-0.93615 -2.98279,-1.72895 -3.02979,-1.76165 -0.047,-0.0328 0.4543,-1.73717 1.11362,-3.78736 3.2471,-10.09699 3.23493,-21.81098 -0.0331,-31.82597 -4.72199,-14.47398 -15.29128,-26.062171 -29.26126,-32.084864 -2.07757,-0.895585 -5.32391,-1.947172 -8.02845,-2.691826 z" />
    <g
       fill="#fff"
       fill-rule="evenodd"
       id="g6">
      <path
         transform="matrix(.26458 0 0 .26458 57.427 70.189)"
         d="m50.054 307.59c-5.3927-18.159-7.1057-31.761-7.0728-56.164 0.03617-26.881 2.0183-40.256 9.4132-63.52 10.294-32.383 26.231-58.143 51.799-83.724 25.935-25.948 50.557-41.143 84.038-51.863 16.763-5.3669 18.197-5.46 18.197-1.1799 0 2.9353-1.4818 3.7017-13.912 7.1955-28.433 7.9917-57.39 24.621-80.1 45.998-53.428 50.295-75.885 125.41-58.321 195.08 3.0888 12.252 3.1242 12.963 0.70945 14.255-2.1923 1.1733-2.845 0.33773-4.7518-6.0829z"
         style="paint-order:stroke fill markers"
         id="path5" />
      <path
         transform="matrix(.26458 0 0 .26458 57.427 70.189)"
         d="m447.66 313.49c-2.0593-1.1525-1.9604-2.5959 1.0243-14.942 21.983-90.932-21.986-185.35-105.96-227.53-11.27-5.661-27.293-11.687-38.799-14.591-5.1478-1.2994-6.0714-2.0848-6.0714-5.1624 0-3.3505 0.35739-3.552 4.6429-2.6178 36.573 7.9722 79.524 34.289 106.28 65.122 44.961 51.807 61.742 120.07 46.044 187.29-1.6037 6.8681-3.3595 12.762-3.9017 13.097-0.54223 0.33511-2.0116 0.0353-3.2654-0.66642z"
         style="paint-order:stroke fill markers"
         id="path6" />
    </g>
    <path
       d="m 123.98,70.189 c -36.689,0 -66.549,29.86 -66.549,66.549 0,36.689 29.86,66.549 66.549,66.549 36.689,0 66.549,-29.86 66.549,-66.549 0,-36.689 -29.86,-66.549 -66.549,-66.549 z m 0,10.992 c 2.4486,0 4.8586,0.15894 7.2223,0.46405 v 6.9345 l 1.9105,0.36327 c 5.0854,0.96618 9.95,2.7272 14.496,5.2483 v -0.0026 c 4.8392,2.684 9.1641,6.1498 12.856,10.299 3.9012,4.3848 6.9459,9.3584 9.0547,14.797 v 0.003 h 0.003 c 2.1873,5.6347 3.2949,11.573 3.2949,17.678 0,5.5952 -0.93308,11.053 -2.7673,16.256 l -0.64648,1.8355 5.7707,3.3512 c -1.8958,4.4884 -4.3659,8.6714 -7.3153,12.462 l -5.7371,-3.3285 -1.2754,1.4609 c -4.1513,4.7649 -9.2848,8.7781 -14.875,11.606 l -0.003,0.003 c -3.347,1.6964 -6.8913,3.0015 -10.53,3.8752 -3.7478,0.90103 -7.6222,1.3648 -11.514,1.3648 -3.8867,0 -7.7604,-0.45892 -11.498,-1.3591 h -0.003 c -3.6376,-0.87357 -7.1754,-2.1777 -10.525,-3.869 -5.5844,-2.8216 -10.718,-6.8222 -14.861,-11.578 l -1.2738,-1.463 -5.6632,3.2887 c -2.9497,-3.7906 -5.4189,-7.9735 -7.3147,-12.462 l 5.6927,-3.3042 -0.65267,-1.8376 c -1.847,-5.2148 -2.7848,-10.693 -2.7848,-16.301 0,-6.1125 1.107,-12.057 3.3006,-17.698 h 0.0026 v -0.003 c 2.1154,-5.4518 5.165,-10.426 9.08,-14.818 3.7042,-4.155 8.0354,-7.6117 12.889,-10.297 4.5516,-2.5142 9.4298,-4.2667 14.529,-5.2266 l 1.9141,-0.36174 v -6.9169 c 2.3637,-0.30512 4.7743,-0.46405 7.2229,-0.46405 z m -11.922,1.2795 v 2.3652 c -4.885,1.1089 -9.6126,2.7789 -14.016,5.211 l -0.0026,0.0026 c -5.3135,2.9392 -10.069,6.7332 -14.123,11.281 -4.2817,4.8036 -7.6352,10.272 -9.9534,16.246 -2.4039,6.1821 -3.623,12.717 -3.623,19.399 0,5.4614 0.94575,10.797 2.5549,15.945 l -1.7689,1.0268 c -1.753,-5.413 -2.7037,-11.192 -2.7037,-17.199 0,-26.654 18.643,-48.84 43.635,-54.277 z m 23.844,0 c 24.992,5.4374 43.635,27.624 43.635,54.277 0,6.0075 -0.95046,11.787 -2.7037,17.2 l -1.8547,-1.0769 c 1.597,-5.133 2.5368,-10.449 2.5368,-15.896 0,-6.675 -1.2167,-13.203 -3.6132,-19.377 v -0.003 c -2.3111,-5.9597 -5.6577,-11.426 -9.9255,-16.223 -4.0402,-4.5407 -8.7872,-8.3429 -14.088,-11.283 -4.3966,-2.4383 -9.1124,-4.1147 -13.986,-5.2302 z m 27.045,90.992 1.818,1.0552 c -10.138,10.946 -24.641,17.787 -40.785,17.787 -16.143,0 -30.647,-6.841 -40.785,-17.787 l 1.6578,-0.96327 c 4.293,4.5778 9.3641,8.4585 14.928,11.27 v 0.003 c 3.6694,1.8526 7.5475,3.2841 11.545,4.2442 4.1034,0.98827 8.3444,1.4883 12.6,1.4883 4.2645,0 8.5042,-0.50866 12.611,-1.496 3.9969,-0.95983 7.8823,-2.3908 11.555,-4.2519 5.5644,-2.8146 10.562,-6.7715 14.855,-11.348 z"
       color="#000000"
       color-rendering="auto"
       dominant-baseline="auto"
       image-rendering="auto"
       shape-rendering="auto"
       solid-color="#000000"
       style="font-variant-ligatures:normal;font-variant-position:normal;font-variant-caps:normal;font-variant-numeric:normal;font-variant-alternates:normal;font-feature-settings:normal;text-indent:0;text-decoration-line:none;text-decoration-style:solid;text-decoration-color:#000000;text-transform:none;text-orientation:mixed;white-space:normal;shape-padding:0;display:inline;isolation:auto;mix-blend-mode:normal;paint-order:markers stroke fill"
       id="path7" />
    <g
       id="g2"
       style="display:inline"
       transform="translate(8.1204167e-4,-1.9847917e-4)">
      <rect
         style="opacity:1;fill:#94a4a7;fill-opacity:1;fill-rule:nonzero;stroke:none;stroke-width:3.13582;stroke-dasharray:none;stroke-opacity:1"
         id="rect10"
         width="4.7616577"
         height="0.11323154"
         x="176.98802"
         y="21.087652"
         transform="rotate(30,-7.7885974e-4,-0.00141787)" />
      <rect
         style="opacity:1;fill:#94a4a7;fill-opacity:1;fill-rule:nonzero;stroke:none;stroke-width:0.600001;stroke-dasharray:none;stroke-opacity:1"
         id="rect11"
         width="4.48138"
         height="2.7285156"
         x="144.16899"
         y="107.7681"
         transform="translate(-8.1328093e-4,1.9947172e-4)" />
      <path
         id="path6-5"
         style="fill:#94a4a7;fill-opacity:1;fill-rule:nonzero;stroke:none;stroke-width:0.600001;stroke-dasharray:none;stroke-opacity:1"
         transform="translate(-1.0100933e-6)"
         d="m 115.5767,170.58713 -0.65887,2.45928 a 35,35 0 0 0 18.11723,0 l -0.65886,-2.45928 a 32.5,32.5 0 0 1 -8.40001,1.15186 32.5,32.5 0 0 1 -8.39949,-1.15186 z m 14.22312,-9.6146 a 22.5,22.5 0 0 1 -11.64686,0 l 5.82343,-21.73333 z m -5.82363,-56.73329 a 35,35 0 0 0 -33.80724,25.94105 35,35 0 0 0 16.30753,39.36969 l 1.28674,-2.2288 a 32.5,32.5 0 0 1 -16.286857,-28.08201 32.5,32.5 0 0 1 32.499817,-32.49983 32.5,32.5 0 0 1 32.50034,32.49983 32.5,32.5 0 0 1 -16.28686,28.08201 l 1.28675,2.2288 a 35,35 0 0 0 16.30753,-39.36969 35,35 0 0 0 -33.80775,-25.94105 z m -2.0128,-2.44585 a 37.5,37.5 0 0 0 -0.92811,0.10026 37.5,37.5 0 0 1 1.90686,-0.10026 37.5,37.5 0 0 0 -0.97875,0 z m 3.04684,0 a 37.5,37.5 0 0 1 1.90738,0.10026 37.5,37.5 0 0 0 -1.90738,-0.10026 z m -6.02547,0.32091 a 37.5,37.5 0 0 0 -1.88981,0.29973 37.5,37.5 0 0 1 1.88981,-0.29973 z m -3.90157,0.73846 a 37.5,37.5 0 0 0 -1.85363,0.49661 37.5,37.5 0 0 1 1.85363,-0.49661 z m -3.80235,1.14722 a 37.5,37.5 0 0 0 -1.79317,0.68833 37.5,37.5 0 0 1 1.79317,-0.68833 z m -3.66489,1.54564 a 37.5,37.5 0 0 0 -1.70223,0.86713 37.5,37.5 0 0 1 1.70223,-0.86713 z m -2.3642,1.26142 a 37.5,37.5 0 0 0 -5.380033,3.70572 l 1.629353,1.942 a 35,35 0 0 1 5.0152,-3.45767 z m 37.44939,0 -1.22938,2.12959 a 35,35 0 0 1 4.99762,3.49694 l 1.61179,-1.92081 a 37.5,37.5 0 0 0 -5.38003,-3.70572 z m 15.91634,12.43232 -2.17351,1.25522 a 37.5,37.5 0 0 1 5.03225,18.74459 37.5,37.5 0 0 1 -18.79214,32.40216 l 1.29243,2.23862 a 40,40 0 0 0 18.63711,-24.28792 40,40 0 0 0 -3.99614,-30.35267 z m -69.282071,0 a 40,40 0 0 0 14.640971,54.64059 l 1.29242,-2.23862 a 37.5,37.5 0 0 1 -18.792648,-32.40216 37.5,37.5 0 0 1 5.09788,-18.70739 z M 123.97619,99.23903 a 40,40 0 0 0 -28.284063,11.71608 l 1.835547,1.83554 a 37.5,37.5 0 0 1 26.448516,-11.05152 37.5,37.5 0 0 1 26.51672,10.98331 l 1.76786,-1.76733 A 40,40 0 0 0 123.97619,99.23903 Z m -9.6914,76.17106 -0.66094,2.466 a 40,40 0 0 0 20.70519,0 l -0.66093,-2.466 a 37.5,37.5 0 0 1 -9.69192,1.32912 37.5,37.5 0 0 1 -9.6914,-1.32912 z m 6.48125,-81.05604 a 45,45 0 0 0 -28.609615,13.06536 45,45 0 0 0 0,63.63952 l 1.806092,-1.80609 a 42.5,42.5 0 0 1 -6.792351,-8.7638 l 2.228288,-1.28623 a 40,40 0 0 1 -4.022493,-9.6206 l -2.45153,0.65681 a 42.5,42.5 0 0 1 16.674951,-45.81375 42.5,42.5 0 0 1 48.754138,0 42.5,42.5 0 0 1 16.67494,45.81375 l -2.45204,-0.65681 a 40,40 0 0 1 -4.02199,9.62008 l 2.22829,1.28675 a 42.5,42.5 0 0 1 -6.79287,8.7638 l 1.8061,1.80609 a 45,45 0 0 0 0,-63.63952 45,45 0 0 0 -35.02991,-13.06536 z m -3.25096,68.99889 -1.30328,4.86379 a 30,30 0 0 0 15.52928,0 l -1.30328,-4.86379 a 25,25 0 0 1 -6.46162,0.88625 25,25 0 0 1 -6.4611,-0.88625 z" />
    </g>
    <g
       id="g1"
       transform="translate(8.1305176e-4,-1.9951339e-4)"
       inkscape:label="name">
      <path
         style="font-size:39.511px;line-height:1.25;font-family:bungee;letter-spacing:0px;stroke:#ffffff"
         d="m 120.77578,122.51524 q 0.75071,0 1.0668,0.3556 0.3556,0.31609 0.3556,1.0668 v 9.99628 q 0,1.85702 -0.39511,3.16088 -0.3556,1.30387 -1.10631,2.17311 -0.75071,0.86924 -1.93604,1.46191 -1.14582,0.55315 -2.72626,1.02728 l -2.92381,0.86924 v 6.91443 q 0,0.75071 -0.3556,1.10631 -0.31609,0.31609 -1.0668,0.31609 h -6.40078 q -0.75071,0 -1.10631,-0.31609 -0.31608,-0.3556 -0.31608,-1.10631 v -7.15149 q 0,-1.85702 0.3556,-3.16088 0.39511,-1.30387 1.14581,-2.17311 0.75071,-0.86924 1.89653,-1.42239 1.18533,-0.59267 2.76577,-1.0668 l 3.20039,-0.86924 v -3.55599 h -10.82601 q -0.75071,0 -1.10631,-0.31609 -0.31609,-0.3556 -0.31609,-1.10631 v -4.78083 q 0,-0.75071 0.31609,-1.0668 0.3556,-0.3556 1.10631,-0.3556 z m 24.77343,0 q 0.75071,0 1.0668,0.3556 0.3556,0.31609 0.3556,1.0668 v 9.99628 q 0,1.85702 -0.39511,3.16088 -0.3556,1.30387 -1.10631,2.17311 -0.75071,0.86924 -1.93604,1.46191 -1.14582,0.55315 -2.72626,1.02728 l -2.92381,0.86924 v 6.91443 q 0,0.75071 -0.3556,1.10631 -0.31609,0.31609 -1.0668,0.31609 h -6.40078 q -0.75071,0 -1.10631,-0.31609 -0.31608,-0.3556 -0.31608,-1.10631 v -7.15149 q 0,-1.85702 0.35559,-3.16088 0.39511,-1.30387 1.14582,-2.17311 0.75071,-0.86924 1.89653,-1.42239 1.18533,-0.59267 2.76577,-1.0668 l 3.20039,-0.86924 v -3.55599 H 127.1766 q -0.75071,0 -1.10631,-0.31609 -0.31609,-0.3556 -0.31609,-1.10631 v -4.78083 q 0,-0.75071 0.31609,-1.0668 0.3556,-0.3556 1.10631,-0.3556 z"
         id="text7"
         aria-label="77" />
      <path
         d="m 122.23629,119.7167 h -3.0988 q -1.5875,0 -2.3622,-0.635 -0.762,-0.635 -0.762,-1.9558 v -3.9497 q 0,-1.3208 0.762,-1.9558 0.7747,-0.6477 2.3622,-0.6477 h 3.0988 q 0.2413,0 0.3429,0.1143 0.1143,0.1016 0.1143,0.3429 v 1.5367 q 0,0.2413 -0.1143,0.3556 -0.1016,0.1016 -0.3429,0.1016 h -2.5527 q -0.3937,0 -0.5842,0.1651 -0.1905,0.1524 -0.1905,0.4699 v 3.0226 q 0,0.3175 0.1905,0.4699 0.1905,0.1397 0.5842,0.1397 h 2.5527 q 0.2413,0 0.3429,0.1143 0.1143,0.1016 0.1143,0.3429 v 1.5113 q 0,0.2413 -0.1143,0.3556 -0.1016,0.1016 -0.3429,0.1016 z m 4.2545,0 h -1.905 q -0.2413,0 -0.3556,-0.1016 -0.1016,-0.1143 -0.1016,-0.3556 v -8.2296 q 0,-0.2413 0.1016,-0.3429 0.1143,-0.1143 0.3556,-0.1143 h 1.3208 q 0.2413,0 0.4064,0.0762 0.1778,0.0762 0.3429,0.2667 l 2.4638,2.8194 v -2.7051 q 0,-0.2413 0.1016,-0.3429 0.1143,-0.1143 0.3556,-0.1143 h 1.905 q 0.2413,0 0.3429,0.1143 0.1143,0.1016 0.1143,0.3429 v 8.2296 q 0,0.2413 -0.1143,0.3556 -0.1016,0.1016 -0.3429,0.1016 h -1.905 q -0.2413,0 -0.3556,-0.1016 -0.1016,-0.1143 -0.1016,-0.3556 v -1.5621 l -2.1717,-2.6289 v 4.191 q 0,0.2413 -0.1143,0.3556 -0.1016,0.1016 -0.3429,0.1016 z"
         id="text3"
         style="font-size:48px;line-height:0;font-family:Bungee;-inkscape-font-specification:Bungee;white-space:pre;stroke:#ffffff;stroke-width:0.767001"
         inkscape:label="CN"
         aria-label="CN" />
    </g>
  </g>
</svg>
