<?xml version="1.0" encoding="UTF-8"?>
<!-- Created with Inkscape (http://www.inkscape.org/) -->
<svg width="140.55mm" height="138.89mm" version="1.1" viewBox="0 0 140.55 138.89" xmlns="http://www.w3.org/2000/svg" xmlns:cc="http://creativecommons.org/ns#" xmlns:dc="http://purl.org/dc/elements/1.1/" xmlns:rdf="http://www.w3.org/1999/02/22-rdf-syntax-ns#" xmlns:xlink="http://www.w3.org/1999/xlink">
 <title>Site-PT5</title>
 <metadata>
  <rdf:RDF>
   <cc:Work rdf:about="">
    <dc:format>image/svg+xml</dc:format>
    <dc:type rdf:resource="http://purl.org/dc/dcmitype/StillImage"/>
    <dc:title>Site-PT5</dc:title>
   </cc:Work>
  </rdf:RDF>
 </metadata>
 <g transform="translate(-53.709 -63.818)">
  <g fill="#fff" fill-rule="evenodd">
   <circle cx="124.17" cy="136.72" r="63.877" stop-color="#000000"/>
  </g>
  <path d="m114.76 189.54c-7.8576-1.4145-16.64-5.304-23.049-10.208-4.2084-3.2201-3.3856-3.2455-15.213 0.46942-4.665 1.4652-8.714 2.6641-8.9978 2.6641-0.28383 0-2.7779-3.9776-5.5424-8.839l-5.0263-8.839 3.0115-2.8895c1.6563-1.5892 5.1065-4.8231 7.6671-7.1865l4.6556-4.297-0.73391-6.0316c-1.6444-13.514 1.2531-25.587 8.8748-36.977 5.4703-8.1749 17.07-17.094 25.508-19.613 0.96882-0.28923 2.0827-0.93424 2.4753-1.4334 0.40792-0.51858 1.3737-3.9403 2.2535-7.9841 0.8468-3.8921 1.818-8.3157 2.1583-9.8302l0.61869-2.7536h21.023l0.25122 1.3258c0.99776 5.2656 4.1181 18.954 4.4054 19.325 0.19463 0.25172 1.4983 0.87219 2.897 1.3788 9.364 3.3918 19.13 10.8 24.738 18.765 4.4402 6.3068 7.9856 14.955 9.1982 22.437 0.82064 5.0639 0.80125 12.611-0.0455 17.693l-0.67681 4.0625 1.1867 1.0067c3.3522 2.8436 14.122 12.884 14.29 13.322 0.1566 0.4081-3.6426 7.463-9.0725 16.847-0.42214 0.72955-0.95111 1.2641-1.1755 1.1879s-5.0166-1.5692-10.649-3.3178l-10.241-3.1793-3.2209 2.4232c-7.8474 5.9038-14.754 8.9489-23.792 10.49-4.7155 0.80422-13.249 0.79434-17.776-0.0206z" fill="#28166f" fill-rule="evenodd" stop-color="#000000" stroke-miterlimit="10" stroke-width=".20397"/>
  <path d="m61.137 137.92 62.839 44.264 62.839-44.264-62.839-44.264z" fill="#fff" stroke-width=".079517"/>
  <circle cx="123.98" cy="137.27" r="27.968" fill="#00923f" stroke-width=".079907"/>
  <g transform="matrix(28.015 0 0 28.015 123.98 137.41)">
   <g id="cone">
    <polygon id="triangle" transform="rotate(18 3.1569 -.5)" points="0 1 0.5 1 0 0" fill="#f8c300"/>
    <use transform="scale(-1,1)" width="100%" height="100%" xlink:href="#triangle"/>
   </g>
   <use transform="rotate(72)" width="100%" height="100%" xlink:href="#cone"/>
   <use transform="rotate(-72)" width="100%" height="100%" xlink:href="#cone"/>
   <use transform="rotate(144)" width="100%" height="100%" xlink:href="#cone"/>
   <use transform="rotate(216)" width="100%" height="100%" xlink:href="#cone"/>
  </g>
  <g stroke="#fff" aria-label="5">
   <path d="m126.9 152.14c4.7413 0 7.7047-2.5287 7.7047-6.5588v-5.492c0-4.1882-2.6472-6.2823-6.9144-6.2823h-5.413v-2.5682h9.4827c0.98778 0 1.4224-0.43462 1.4224-1.4224v-4.7018c0-0.98778-0.43462-1.4224-1.4224-1.4224h-17.029c-0.98777 0-1.4224 0.43462-1.4224 1.4224v14.777c0 0.98778 0.43463 1.4224 1.4224 1.4224h9.7988c0.63217 0 1.0668 0.27658 1.0668 0.90876v1.5409c0 0.63218-0.43463 0.90876-1.0668 0.90876h-10.194c-0.98778 0-1.4224 0.43462-1.4224 1.4224v4.6228c0 0.98778 0.43462 1.4224 1.4224 1.4224z"/>
  </g>
  <path d="m118.9 202.63c-14.981-1.3645-29.233-7.5952-39.826-17.411l-2.0069-1.8598-4.4076 1.4219c-2.4242 0.78205-4.4417 1.3366-4.4834 1.2324-0.0417-0.10419-3.3136-5.7821-7.271-12.617l-7.1952-12.428 2.1929-2.0037c1.2061-1.102 2.7035-2.4851 3.3275-3.0736l1.1346-1.0699-0.52683-2.0045c-2.0741-7.8916-2.4996-18.433-1.0824-26.816 3.2674-19.327 14.64-35.908 31.549-45.996 4.3075-2.57 8.1163-4.2949 13.131-5.9464l3.9128-1.2886 0.58645-2.6727c0.32255-1.47 0.76639-3.4845 0.9863-4.4768l0.39985-1.8041h14.527c13.607 0 14.535 0.02962 14.658 0.46772 0.0721 0.25725 0.51906 2.283 0.99321 4.5017l0.86209 4.034 2.0316 0.59738c10.693 3.1443 21.084 9.44 28.762 17.427 9.479 9.8597 15.352 21.452 17.814 35.157 0.54232 3.0196 0.61648 4.2931 0.61994 10.646 4e-3 7.7236-0.22081 9.8925-1.6285 15.697l-0.66549 2.7443 1.1496 1.0691c0.63226 0.58799 2.1992 2.0312 3.482 3.2072l2.3325 2.1382-14.542 25.171-2.813-0.89417c-1.5472-0.49179-3.6801-1.151-4.7399-1.465l-1.9269-0.57081-2.0821 1.8518c-6.4279 5.7167-12.985 9.7551-20.801 12.811-3.6889 1.4424-10.03 3.091-14.289 3.7153-2.9406 0.43096-11.603 0.7419-14.165 0.50849zm14.032-7.4341c8.348-1.3288 16.584-4.4716 23.418-8.9362 2.7191-1.7763 6.1765-4.4097 6.3222-4.8154 0.0405-0.1128-1.0776-0.54508-2.4847-0.96062l-2.5584-0.75551-0.85616 0.6424c-5.2941 3.9723-12.424 7.4339-18.971 9.2098-5.9016 1.6009-14.447 2.2042-20.506 1.4476-8.9341-1.1156-17.883-4.627-25.299-9.9271-1.1989-0.85681-2.3414-1.5554-2.5391-1.5524-0.19762 3e-3 -1.4243 0.34008-2.7259 0.7491l-2.3666 0.74368 1.9342 1.5628c8.6925 7.0232 19.05 11.41 30.327 12.846 3.7472 0.47694 12.577 0.33952 16.304-0.25372zm-3.3339-9.5199c6.8518-0.85133 12.995-2.8675 18.72-6.1434 2.5474-1.4578 6.2161-4.0485 7.6416-5.3963l0.84426-0.79822 2.2294 0.66664c1.2261 0.36665 5.6996 1.7704 9.941 3.1193 4.2414 1.349 7.7516 2.4127 7.8005 2.3639 0.37637-0.37637 9.7485-16.906 9.6881-17.087-0.0775-0.23242-0.93387-1.0237-10.013-9.2517l-4.7932-4.3438 0.47926-2.3379c3.6072-17.597-3.1208-36.526-16.963-47.725-4.6676-3.7764-10.38-6.9896-15.096-8.4915-1.8162-0.57842-1.9584-0.67982-2.1961-1.5667-0.2369-0.88399-1.771-7.8431-3.4062-15.451l-0.70436-3.2773-19.815 0.14004-0.8651 3.8754c-0.47581 2.1315-1.3547 6.1606-1.953 8.9535-1.5555 7.2607-1.1821 6.5498-3.9303 7.4827-5.0128 1.7017-10.587 4.9079-15.168 8.7242-6.7013 5.5831-12.045 13.451-14.842 21.854-2.661 7.9939-3.2625 15.975-1.8365 24.371 0.53622 3.1572 0.53816 3.2713 0.06325 3.7257-0.26945 0.25783-1.8776 1.7144-3.5738 3.2369-5.1776 4.6475-10.275 9.3614-10.357 9.5777-0.06064 0.15984 9.3401 16.697 9.7021 17.067 0.04826 0.0494 4.327-1.2537 9.5083-2.8958 10.572-3.3504 9.5171-3.2594 12.138-1.0475 6.1344 5.1773 15.263 9.2303 23.386 10.383 1.1025 0.15643 2.3052 0.32855 2.6727 0.3825 1.5239 0.22369 8.596 0.15063 10.698-0.11052zm53.351-41.413c0.61376-4.1704 0.60688-12.151-0.014-16.303-1.86-12.44-7.0749-23.354-15.544-32.531-4.5313-4.9099-11.117-9.7631-17.336-12.776-3.6556-1.7709-8.1692-3.4817-8.1692-3.0965 0 0.35305 1.2839 5.9438 1.3892 6.049 0.0518 0.0518 1.1134 0.52913 2.3592 1.0608 14.989 6.3967 26.748 20.048 30.969 35.952 1.7577 6.6234 2.3036 13.86 1.5219 20.175l-0.43013 3.4745 4.1478 3.8625 0.32723-1.3967c0.17997-0.76819 0.53078-2.7798 0.77956-4.4703zm-113.57 2.3546c0.56462-0.60618 0.57942-0.72881 0.28531-2.3656-0.49753-2.7689-0.40944-12.714 0.14078-15.892 1.9661-11.355 6.7593-21.055 14.406-29.152 5.0378-5.3344 11.727-10.004 18.175-12.687 1.1353-0.4724 2.1232-1.0541 2.1955-1.2926 0.21651-0.71491 1.2194-5.3517 1.2194-5.6378 0-0.14592-1.1726 0.15608-2.6059 0.67111-8.1523 2.9295-16.795 8.6256-22.78 15.013-12.98 13.853-18.748 33.481-15.221 51.794 0.28308 1.47 0.51505 2.7147 0.51549 2.766 0.0012 0.13634 2.9719-2.4683 3.6699-3.2177z" fill-rule="evenodd" stop-color="#000000"/>
 </g>
</svg>
