<?xml version="1.0" encoding="UTF-8"?>
<svg version="1.1" viewBox="0 0 133.1 123.93" xmlns="http://www.w3.org/2000/svg" xmlns:cc="http://creativecommons.org/ns#" xmlns:dc="http://purl.org/dc/elements/1.1/" xmlns:rdf="http://www.w3.org/1999/02/22-rdf-syntax-ns#">
 <title>Site-ZH-31</title>
 <metadata>
  <rdf:RDF>
   <cc:Work rdf:about="">
    <dc:title>Site-ZH-31</dc:title>
   </cc:Work>
  </rdf:RDF>
 </metadata>
 <g transform="translate(-5.3333 -14.797)">
  <g transform="matrix(.463 0 0 .463 123 18.425)">
   <path transform="translate(5.3333 14.797)" d="m-125 236.23c-19.776-2.4067-40.696-10.747-57.828-23.054-2.2428-1.6112-4.3755-2.9294-4.7393-2.9294s-6.2528 1.5947-13.087 3.5439c-6.8338 1.9491-12.491 3.4679-12.571 3.375-0.0805-0.0929-8.3141-14.322-18.297-31.619l-18.151-31.45 1.7115-1.4945c0.9413-0.82195 5.2782-5.0005 9.6376-9.2857l7.9262-7.7912-0.80115-7.0974c-0.93332-8.2683-0.99634-12.61-0.28673-19.752 3.5992-36.229 22.264-67.349 52.486-87.514 4.8913-3.2635 19.441-10.914 20.755-10.914 0.34958 0 1.7506-4.7658 3.4755-11.822 1.5894-6.5023 3.0982-12.577 3.353-13.5l0.46321-1.6776h72.914l0.49543 1.875c0.27249 1.0312 1.7685 6.981 3.3244 13.222l2.829 11.347 8.0698 3.973c23.884 11.759 42.099 29.727 53.827 53.098 9.968 19.863 14.259 42.833 11.689 62.565l-0.80394 6.1709 19.187 18.767-18.103 31.366c-9.9565 17.251-18.169 31.442-18.25 31.535-0.08118 0.0929-5.7389-1.4259-12.573-3.375-6.8338-1.9491-12.687-3.5439-13.008-3.5439-0.32056 0-2.7908 1.5514-5.4893 3.4476-15.907 11.178-34.918 19.02-52.907 21.827-6.0468 0.9433-20.086 1.3375-25.25 0.70906z" fill="#8ab6cb" fill-rule="evenodd" stop-color="#000000" stroke="#8ab6cb" stroke-linejoin="round" stroke-miterlimit="10" stroke-width="5" style="paint-order:stroke fill markers"/>
   <path d="m-150.43-9.0348-7.0498 28.17c-44.158 18.595-75.471 61.944-76.273 112.93-0.0907 5.7622 0.21841 11.442 0.88839 17.008l-20.032 19.372 41.267 71.472 26.064-7.4509c20.59 16.007 46.354 25.708 74.439 26.15 29.491 0.464 56.741-9.3591 78.35-26.15l26.079 7.4509 41.267-71.472-20.032-19.372c0.51751-4.2975 0.81881-8.6586 0.8884-13.082 0.8238-52.362-30.78-97.7-76.273-116.85l-7.0498-28.17zm4.5852 6.8778h73.364l6.663 26.666c44.227 17.515 75.188 60.997 74.396 111.36-0.0703 4.4713-1.0577 10.042-1.6113 14.376l-7e-3 -4e-3 19.358 18.728-36.682 63.534-25.892-7.4081 0.0146 0.012c-20.297 15.511-47.243 27.087-74.768 26.654-26.197-0.4122-51.712-11.896-71.043-26.672l-0.0137 0.01-25.892 7.408-36.682-63.534 19.358-18.728-7e-3 -0.0177c-0.70545-5.5276-1.7026-12.317-1.6124-18.051 0.77194-49.065 31.45-90.632 74.396-107.65z"/>
  </g>
  <g transform="translate(-10.902 -812.65)">
   <g fill-rule="evenodd">
    <ellipse cx="83.116" cy="893.25" rx="38.72" ry="39.595" fill="#fff" stop-color="#000000" style="paint-order:stroke fill markers"/>
    <path transform="translate(16.267 828.25)" d="m66.247 110.16c-2e-3 -1.1903-0.06658-2.3994-0.14379-2.6869-0.19748-0.73553-4.0586-1.9948-6.8048-2.2193-2.3209-0.18972-3.8464-0.65004-6.423-1.9381-0.9625-0.48115-2.3688-1.0746-3.125-1.3187-1.9893-0.64214-2.6793-1.0394-4.0648-2.3403-0.67993-0.63842-1.9791-1.6108-2.8871-2.1608-0.96285-0.58326-1.998-1.4688-2.4839-2.125-0.93008-1.256-3.8359-4.2482-4.1265-4.2493-0.10304-3.91e-4 -1.2502 1.0118-2.5492 2.2493s-2.4737 2.25-2.6104 2.25c-0.77416 0-0.25936-0.71329 2.0947-2.9024 1.445-1.3437 2.6272-2.5341 2.6272-2.6453 0-0.11126-0.25312-0.20248-0.5625-0.20273-0.39443-2.5e-4 -0.77478-0.33646-1.273-1.125-0.39075-0.6185-0.80011-1.1246-0.90968-1.1246s-0.27517-0.42188-0.368-0.9375c-0.22782-1.2655-2.2708-5.3663-3.0277-6.0774-0.74699-0.70176-0.77165-0.98515-0.085731-0.98515 0.48735 0 0.51121-0.09054 0.34595-1.3125-0.19224-1.4214-0.98937-3.7321-1.8248-5.2897-0.40052-0.74671-0.4891-1.233-0.37553-2.0615 0.11352-0.8282-0.01438-1.5312-0.54149-2.9765-0.63607-1.744-0.66809-2.0018-0.40885-3.2927 0.1547-0.77028 0.28211-2.2536 0.28315-3.2963 3e-3 -3.0065 0.42529-4.9299 1.651-7.5196 1.0918-2.3068 1.6653-4.5012 1.1765-4.5012-0.13123 0-1.1671 1.0125-2.302 2.25-1.9261 2.1003-2.7774 2.6923-2.7774 1.9316 0-0.17515 1.2305-1.6204 2.7344-3.2117 2.2271-2.3565 2.7311-3.0279 2.7169-3.619-0.02565-1.0632 0.68831-2.568 1.3492-2.8437 1.3702-0.57168 1.6997-1.1148 1.6971-2.7972-0.0014-0.87171 0.24226-2.7373 0.54138-4.1458 0.43835-2.0641 0.65707-2.635 1.1275-2.9433 0.751-0.49208 0.74866-0.33903-0.03828 2.5059-0.60805 2.1982-0.83052 4.6232-0.42414 4.6232 0.11218 0 0.46681-0.47812 0.78806-1.0625 1.7394-3.164 4.3893-6.0079 7.0525-7.5688 0.80615-0.47247 2.1665-1.4424 3.0231-2.1554 1.7335-1.4429 2.9054-2.0299 5.4742-2.7417 0.95736-0.2653 2.6126-0.92077 3.6783-1.4566 2.7708-1.3931 4.4915-1.8284 7.5298-1.9046 1.5372-0.03859 3.1336-0.2305 3.8522-0.46312 1.6048-0.51945 2.411-0.50113 4.5228 0.10277 0.96162 0.275 2.4312 0.5 3.2658 0.5s2.1611 0.119 2.9479 0.26445c1.7642 0.32613 2.2907 0.05259 4.696-2.4397 0.98294-1.0185 1.8058-1.6674 2.0529-1.619 0.7292 0.14293 0.45829 0.63812-1.1354 2.0754l-1.5593 1.4062 0.74004 0.96879c0.40702 0.53284 0.90924 1.3063 1.116 1.7188 0.55429 1.1056 1.2288 1.0566 3.7112-0.26983 1.8052-0.96459 2.341-1.1459 2.9365-0.99391 0.71469 0.18248 0.69788 0.20143-0.89666 1.0108-0.89375 0.45363-1.6267 0.99026-1.6288 1.1925-2e-3 0.20224-0.14902 0.54273-0.32654 0.75664-0.28045 0.33792-0.05045 0.5299 1.7538 1.4639 2.1662 1.1214 2.6031 1.522 7.8143 7.1649 2.1141 2.2893 2.5715 2.9629 4.1215 6.0708 0.95894 1.9227 1.9591 3.8014 2.2226 4.175 0.96805 1.3725 1.8339 3.3939 2.0954 4.8918 0.14762 0.8456 0.59217 2.3491 0.98788 3.341 0.83972 2.105 1.2099 3.8584 1.2099 5.7305 0 0.73748 0.11169 1.3409 0.24821 1.3409s0.8776-0.85105 1.6468-1.8912c1.3197-1.7845 1.9481-2.3489 2.2638-2.0332 0.0755 0.07554-0.78286 1.3482-1.9076 2.8281-1.7697 2.3287-2.0252 2.7896-1.8981 3.4248 0.0807 0.4037 0.1468 0.83244 0.1468 0.95275 0 0.38406 0.84832 0.23839 3.1406-0.5393 2.3014-0.78078 3.4844-0.87368 3.4844-0.27364 0 0.22684-1.1025 0.65176-3.25 1.2526-2.7654 0.77366-3.2613 0.98788-3.3256 1.4366-0.0515 0.35907 0.0881 0.57018 0.4375 0.66154 0.69246 0.18108 0.71288 1.6727 0.0313 2.2895-0.47315 0.4282-0.95833 2.2847-0.67194 2.5711 0.0803 0.08025 1.4133 0.44557 2.9623 0.81182 2.524 0.59676 2.8252 0.72628 2.9009 1.2474 0.0673 0.46322-3e-3 0.54785-0.34689 0.41599-0.81009-0.31086-4.9859-1.2225-5.7314-1.2512-0.64203-0.02473-0.85131 0.15048-1.5301 1.2811-0.43249 0.72035-0.86224 1.7843-0.95499 2.3644-0.22812 1.4266-0.91535 2.9162-2.447 5.3038-0.70645 1.1013-1.5522 2.7943-1.8795 3.7622-0.78614 2.3251-0.99502 2.6252-3.6643 5.2658-1.2542 1.2407-2.8476 2.8871-3.5407 3.6585-0.91038 1.0131-1.8222 1.6851-3.2839 2.42-1.113 0.5596-2.5487 1.4719-3.1904 2.0273-1.4722 1.2742-1.6768 1.3801-3.6462 1.8872-0.89054 0.22931-2.1254 0.72554-2.7442 1.1027-1.3362 0.81455-2.5806 1.2719-3.4748 1.2772-0.35761 2e-3 -0.81171 0.10603-1.0091 0.23095-0.30871 0.19534-0.30977 0.28634-0.0076 0.65047 0.27945 0.33671 0.62154 0.39548 1.6714 0.28712 0.99588-0.10278 1.3201-0.0551 1.3201 0.19395 0 0.36602-0.53661 0.63368-1.2704 0.63368-0.71577 0-0.58313 0.53921 0.39545 1.6076 0.83597 0.91267 1.1266 1.6424 0.65409 1.6424-0.26485 0-1.8805-1.7553-2.2484-2.4427-0.21436-0.40054-0.64363-0.518-2.4196-0.6621-1.9162-0.15548-2.1964-0.1243-2.4915 0.2773-0.3121 0.42478-0.3757 0.42731-1.0385 0.0414-0.50981-0.29682-0.98402-0.36389-1.7061-0.2413l-1 0.16977 0.06417 2.3992c0.05938 2.2198 0.02666 2.409-0.4375 2.5304-0.47352 0.12383-0.50187 0.01-0.50509-2.0329zm8.2534-3.9305c0-0.0778-0.11646-0.35904-0.2588-0.625-0.34269-0.64033-1.4912-0.65977-1.4912-0.02524 0 0.25209 0.075 0.53334 0.16667 0.625 0.20223 0.20224 1.5833 0.22425 1.5833 0.0252zm-7.9009-0.50613c0.08391-0.21866 0.0893-0.49991 0.012-0.625-0.18364-0.29714-2.3793-0.28729-2.8538 0.0128-0.44714 0.28278-0.37354 0.35134 0.74276 0.69183 1.2864 0.39238 1.9273 0.36807 2.0991-0.0796zm3.6509-0.48529c0-0.51411-0.7475-0.77571-1.0087-0.35302-0.27679 0.44786-0.07189 0.73587 0.52349 0.73587 0.26908 0 0.48524-0.17055 0.48524-0.38285zm-6.4544-1.1499c2.1947-0.28145 2.2044-0.28588 2.2044-1 0-0.88275 0.43344-0.94455 0.64734-0.0923 0.13487 0.53737 0.29817 0.625 1.1647 0.625 0.59481 0 1.1216-0.15077 1.2854-0.3679 0.17569-0.23287 0.87398-0.40887 1.9026-0.47951 1.4746-0.10127 1.6867-0.0532 2.2916 0.51961l0.66655 0.6312 1.4804-0.51232c0.81422-0.28178 2.2317-0.64315 3.1499-0.80305 0.99252-0.17284 2.0481-0.55028 2.6031-0.93079 0.51346-0.35203 2.101-1.1932 3.5279-1.8693 1.9481-0.92304 3.0121-1.6215 4.2713-2.8042 0.92234-0.86626 2.5022-2.1226 3.5108-2.7919 1.7419-1.1559 1.9792-1.436 4.7372-5.5919 3.0026-4.5245 3.215-4.9244 3.8678-7.2815 0.21421-0.77357 0.77406-1.9656 1.2441-2.6489 1.01-1.4683 1.3961-2.7131 1.398-4.5071l1e-3 -1.3125h-2.1102c-2.1539 0-3.0034-0.31478-1.6044-0.59456 0.42745-0.08549 1.3854-0.15544 2.1288-0.15544 1.5054 0 1.9488-0.43459 1.2412-1.2165-0.42828-0.47324-0.5265-1.079-0.22401-1.3815 0.0997-0.09972 0.3186-0.85433 0.48639-1.6769 0.18202-0.89235 0.56266-1.8017 0.94369-2.2545 0.94749-1.126 0.92758-2.0386-0.13473-6.175-0.39967-1.5562-0.72776-3.2437-0.7291-3.75-1e-3 -0.50633-0.29425-1.5394-0.65091-2.2956s-1.1932-2.8053-1.8589-4.5534c-1.506-3.9544-1.5269-3.9928-3.1772-5.8394-0.74606-0.8348-1.993-2.6266-2.771-3.9817l-1.4142-2.4639-9.1138-6.6892-1.1231 0.65821c-1.185 0.69446-1.6381 0.65427-1.6381-0.1453 0-0.36479-0.17376-0.48525-0.7-0.48525-0.85308 0-1.3-0.40697-1.3-1.1838 0-0.49971-0.06965-0.54652-0.48356-0.325-0.71572 0.38304-1.0164 0.31684-1.0164-0.22375 0-0.42216-0.09832-0.45435-0.78559-0.25724-0.95341 0.27343-1.2089 0.14765-1.0368-0.51046 0.10442-0.39931 0.0075-0.49975-0.48219-0.49975-0.60684 0-3.7161 1.7592-6.0079 3.3994-1.0001 0.71572-1.1875 0.77836-1.1875 0.397 0-0.60915 0.9876-1.473 3.3064-2.8922 1.0622-0.65012 1.9935-1.2826 2.0695-1.4056 0.39029-0.6315-1.1417-0.85172-6.2284-0.89536-4.8924-0.04197-5.3342-0.0076-6.8924 0.53685-0.91571 0.31993-2.9887 0.80355-4.6067 1.0747-2.7381 0.45889-3.1003 0.58884-5.2326 1.8777-2.2335 1.35-5.8855 3.1575-6.3797 3.1575-0.37324 0-8.1405 7.7339-8.8855 8.8474-0.35785 0.53481-0.65064 1.1559-0.65064 1.3802 0 0.28283 0.86202 0.77041 2.8125 1.5908 3.2518 1.3678 3.5559 1.5378 3.3488 1.8728-0.09121 0.14758-1.2876-0.19005-2.9695-0.83802-1.5492-0.59685-2.9928-1.0892-3.208-1.0942-0.21516-5e-3 -0.58561 0.39866-0.82322 0.89694-0.37385 0.78397-0.38448 0.96071-0.07892 1.3125 0.1942 0.22359 0.39681 0.54987 0.45023 0.72507 0.06686 0.21925 0.52508 0.04835 1.4701-0.54833 0.86225-0.5444 1.4613-0.77913 1.6105-0.63104 0.27298 0.27106 0.34927 0.19352-1.8731 1.9039-1.947 1.4985-2.5343 1.8319-3.2261 1.8319-0.75285 0-2.2286 2.4199-2.5615 4.2003-0.14653 0.78357-0.7156 2.8309-1.2646 4.5497l-0.99818 3.125 0.14005 4.2575c0.13525 4.1114 0.17136 4.343 1.0529 6.75 0.50209 1.3709 1.0034 3.1675 1.1141 3.9925 0.15665 1.1676 0.5736 2.1649 1.8814 4.5 0.92409 1.65 1.7929 3.14 1.9308 3.3111 0.19081 0.23688 0.54184 0.06728 1.4711-0.71078 1.54-1.2894 1.6218-0.7233 0.10998 0.76049l-1.1106 1.0899 0.54806 0.42576c0.30143 0.23417 0.96931 0.56314 1.4842 0.73105 0.91329 0.29784 0.9725 0.27762 2.4284-0.82956 0.89917-0.68382 1.5568-1.0304 1.6546-0.87215 0.18274 0.29568 0.24096 0.23758-1.6944 1.6909-1.2653 0.95009-1.4442 1.1959-1.593 2.1884-0.1493 0.9956-0.08639 1.2193 0.57422 2.0415 0.40804 0.50786 0.92533 1.2782 1.1495 1.7119 0.2242 0.4337 0.76999 1.0524 1.2129 1.375 0.44287 0.32255 1.6051 1.3988 2.5827 2.3916 1.1178 1.1353 2.2361 2.0062 3.0133 2.3468 0.67969 0.29789 1.9904 1.0271 2.9127 1.6204 2.5086 1.6138 3.0442 1.8469 5.7491 2.5019 1.3655 0.33063 2.6942 0.71435 2.9527 0.85269 0.52199 0.27936 2.92 0.95587 3.4794 0.98157 0.19694 9e-3 1.3501-0.11077 2.5625-0.26626zm-32.019-23.284c-0.49294-0.76968-0.51811-0.77948-0.52212-0.20334-0.0023 0.33292 0.18979 0.81968 0.42689 1.0817 0.63495 0.70161 0.7033 0.07111 0.09522-0.87834zm73.599-7.0587c0-0.25208-0.14062-0.50521-0.3125-0.5625-0.19792-0.06597-0.3125 0.14028-0.3125 0.5625s0.11458 0.62847 0.3125 0.5625c0.17188-0.05729 0.3125-0.31042 0.3125-0.5625zm0.875-5.625c0-0.275-0.1125-0.5-0.25-0.5s-0.25 0.225-0.25 0.5 0.1125 0.5 0.25 0.5 0.25-0.225 0.25-0.5zm-24.625-39.25c0.08498-0.1375-0.02088-0.25-0.23524-0.25s-0.38976 0.1125-0.38976 0.25 0.10586 0.25 0.23524 0.25 0.30478-0.1125 0.38976-0.25zm-1.375-3.5c0-0.1375-0.10586-0.25-0.23524-0.25s-0.30478 0.1125-0.38976 0.25 0.02088 0.25 0.23524 0.25 0.38976-0.1125 0.38976-0.25z" stop-color="#000000" style="paint-order:stroke fill markers"/>
    <path d="m79.18 922.59c-1.4685-0.67013-4.9592-3.3798-5.3834-4.179-0.52814-0.99483-0.40475-4.3873 0.22744-6.2534 0.27492-0.81145 1.2772-2.9979 2.2274-4.8588 1.8514-3.6262 2.6853-5.7877 2.4596-6.3758-0.07718-0.20113-0.41134-0.3657-0.74257-0.3657s-0.73806-0.16366-0.90406-0.36368-0.82665-0.66948-1.4681-1.0432c-0.64146-0.37377-1.5841-1.0132-2.0948-1.421-0.89226-0.71243-0.95295-0.72538-1.5537-0.33175-0.34385 0.22529-0.79788 0.40963-1.009 0.40963-0.5786 0-0.46047 0.48775 0.17508 0.72285 0.45523 0.1684 0.20022 0.2913-1.375 0.66266-1.0636 0.25075-1.9339 0.56106-1.9339 0.68957 0 0.13873 0.78716 0.16778 1.9375 0.0715l1.9375-0.16216-1 0.61981c-0.55 0.3409-1.4781 0.90413-2.0625 1.2516-1.7934 1.0664-1.3061 1.5272 0.66798 0.63162 1.4324-0.64983 1.7643-0.36186 1.1508 0.99847-0.55175 1.2236-0.21238 1.8694 0.89683 1.7066 0.38867-0.057 0.91789 0.0782 1.2314 0.31467 0.48781 0.36796 0.51342 0.48254 0.22711 1.0162-0.17748 0.33085-0.47418 1.3229-0.65933 2.2046-0.36737 1.7493-0.72164 2.429-2.7739 5.3218-1.6882 2.3797-2.9683 3.2932-4.6169 3.295-0.85034 1e-3 -1.3838-0.15495-1.875-0.54787-0.37758-0.30204-1.3748-0.8873-2.216-1.3006-1.5849-0.77862-2.9532-2.112-4.4861-4.3714-1.774-2.6148-1.9356-3.1665-2.1725-7.4148l-0.21831-3.9148 0.64948-1.2817c0.75544-1.4908 2.0958-3.0472 3.2186-3.7375 0.62817-0.38618 7.4268-1.7763 8.6874-1.7763 0.12425 0 0.22591-0.21386 0.22591-0.47524 0-0.32461-0.34186-0.61663-1.0786-0.92136-1.0689-0.44211-1.0743-0.45051-0.59178-0.93298 0.33138-0.33138 0.81555-0.4824 1.5161-0.47289 1.4524 0.0197 3.1324 0.3148 3.2956 0.57888 0.076 0.12297 0.38467 0.23072 0.68593 0.23943 0.52064 0.0151 0.51716 0.0281-0.07032 0.2625-0.80181 0.31998-1.6266 1.2093-1.3486 1.4541 0.35329 0.31113 7.8424 2.6001 7.998 2.4445 0.23707-0.23707-0.75753-1.422-1.0938-1.3031-0.17188 0.0607-0.3125-4e-3 -0.3125-0.14447 0-0.1402-0.39375-0.41943-0.875-0.62051-0.58367-0.24388-0.875-0.53096-0.875-0.86225 0-0.55813-0.87366-0.70649-1.0844-0.18414-0.06935 0.17187-0.13498 0.0687-0.14583-0.22917-0.01086-0.29791-0.16036-0.59342-0.33224-0.65667-0.17188-0.0633-0.0031-0.19733 0.375-0.29794 0.61775-0.16437 1.0018-0.87872 0.47239-0.87872-0.11831 0-0.65269-0.29778-1.1875-0.66172-0.9481-0.6452-5.4114-2.0665-6.5349-2.081-0.72666-9e-3 -0.72666 0.40461 0 0.64557 0.51248 0.16995 0.4847 0.20442-0.3125 0.38773-1.0914 0.25096-3.3332 0.0115-3.9218-0.41889-0.37166-0.27176-0.16895-0.30131 1.273-0.18557 1.357 0.10893 1.692 0.0685 1.6047-0.19353-0.11292-0.33876-2.6948-1.3087-4.6978-1.7648-0.61432-0.13988-1.498-0.48982-1.9637-0.77764l-0.84674-0.52331 0.71368-0.32547c1.4636-0.66745 1.6547-0.96161 1.4764-2.2727-0.10463-0.76981-0.0217-1.8124 0.23008-2.8924 0.35342-1.5161 0.35474-1.7641 0.01291-2.4251-0.67893-1.3129-0.49653-1.9268 1.0567-3.5565 1.5321-1.6075 2.8484-2.3976 5.0625-3.039 0.75625-0.21904 2.364-0.90844 3.5727-1.532 2.582-1.332 3.8493-1.47 5.2028-0.56697 1.1026 0.73567 2.7982 3.2706 3.3402 4.9939 0.60604 1.9268 3.2262 6.8143 3.6531 6.8143 0.4368 0 0.94804-1.4207 0.96711-2.6875 0.01658-1.1006 0.21598-1.1621 1.0141-0.3125 0.61153 0.65094 1.7531 0.8553 1.7457 0.3125-0.0022-0.17188-0.33792-0.875-0.74574-1.5625-0.8659-1.4598-1.0014-3.1548-0.32904-4.1148l0.42096-0.60101 0.28376 0.84279c0.39752 1.1806 0.87432 1.2591 0.87432 0.1438 0-0.49271 0.1074-0.89583 0.23867-0.89583s0.31254-0.39375 0.40282-0.875 0.25829-0.875 0.37335-0.875 0.86192-0.5396 1.6597-1.1991c1.2142-1.0038 1.6318-1.2056 2.5634-1.2388 0.61211-0.0218 1.2453 0.0702 1.4071 0.20449 0.19188 0.15924 0.52774 0.15533 0.96585-0.0112 1.098-0.41746 1.4178-0.33162 1.2503 0.33561-0.11822 0.47102-0.03038 0.62257 0.43274 0.74659 1.0228 0.27389 1.5778 0.17518 1.898-0.33758 0.40063-0.64151 1.9187-0.671 2.8522-0.0554 0.88021 0.58051 1.6343 1.5584 1.843 2.39 0.22079 0.87971 0.52162 1.0369 1.1657 0.60926 0.46669-0.30987 0.80722-0.26793 2.9166 0.35919 1.3135 0.39051 2.6436 0.8774 2.9559 1.082 1.2038 0.78876 1.909 2.6512 1.6375 4.3245-0.24964 1.5383-4.0362 4.7314-6.4107 5.4059-0.88889 0.2525-1.2033 0.55607-2.3352 2.2548-1.7058 2.5601-2.1385 2.9972-3.3154 3.3498-0.53933 0.16159-1.0488 0.4042-1.1322 0.53914-0.24794 0.40119 0.13305 1.2409 0.56303 1.2409 0.21928 0 0.88359 0.28418 1.4762 0.6315 0.79683 0.46697 1.2585 0.58622 1.772 0.45772 1.2502-0.31286 2.9368-1.1354 3.3232-1.6206 0.23465-0.29469 0.91129-0.56234 1.7784-0.70347 3.1745-0.51667 4.924 0.7936 5.3207 3.9849 0.17771 1.4295 0.48684 2.5701 1.0605 3.9128 0.18511 0.43328 0.33656 1.4602 0.33656 2.2821v1.4944l2.75 2.3494-1e-3 1.7932c-1e-3 2.0435-0.22348 2.5241-2.1604 4.6682-0.6832 0.75625-1.5146 1.7688-1.8474 2.25-0.78774 1.1388-1.3484 1.6047-2.8528 2.3705-1.7831 0.90769-3.484 0.86808-4.8379-0.11267-1.2571-0.91064-1.5909-1.4992-1.8298-3.226-0.21316-1.5411-0.59531-2.0198-3.4706-4.3482-2.5498-2.0649-4.7079-3.4336-5.4138-3.4336-0.71202 0-0.71434 0.0298-0.08231 1.0565 0.27716 0.45019 0.78764 1.7185 1.1344 2.8185s0.97589 2.837 1.3981 3.86c1.0208 2.4735 0.92595 3.7469-0.4924 6.6092-1.3393 2.7028-2.6752 4.0995-5.1423 5.3761-1.5801 0.81766-2.4758 1.0944-4.5302 1.3994-3.2893 0.48842-4.2694 0.47288-5.4965-0.0871z" fill="#daeff0" stop-color="#000000" stroke="#005b96" stroke-width="2" style="paint-order:stroke fill markers"/>
   </g>
   <g transform="translate(-40.532 756.74)" style="">
    <g stroke="#fff" aria-label="31">
     <path d="m101.79 143.49c-0.98778 0-1.4224 0.43462-1.4224 1.4224v4.6228c0 0.98778 0.43462 1.4224 1.4224 1.4224h12.486c5.0574 0 7.6652-2.4892 7.6652-6.5588v-3.9511c0-3.477-1.2248-5.2945-4.9784-5.7291 1.7385-0.75071 2.3312-2.2521 2.3312-4.2672v-2.2916c0-3.477-2.0941-5.6501-6.4798-5.6501h-11.024c-0.98778 0-1.4224 0.43463-1.4224 1.4224v4.7018c0 0.98777 0.43462 1.4224 1.4224 1.4224h7.3491c1.2644 0 1.5014 0.55316 1.5014 1.1853v0.59266c0 0.63218-0.23707 1.1853-1.5014 1.1853h-4.1487c-0.98778 0-1.4224 0.43462-1.4224 1.4224v4.2277c0 0.98778 0.43462 1.4224 1.4224 1.4224h6.7169c1.2644 0 1.5014 0.51365 1.5014 1.1458v1.0668c0 0.63217-0.23707 1.1853-1.5014 1.1853z"/>
     <path d="m144.3 151.26c0.98777 0 1.4224-0.43462 1.4224-1.4224v-4.7808c0-0.98778-0.43463-1.4224-1.4224-1.4224h-3.7931v-19.4c0-0.98778-0.43462-1.4224-1.4224-1.4224h-11.458c-0.98778 0-1.4224 0.43462-1.4224 1.4224v4.7808c0 0.98778 0.43462 1.4224 1.4224 1.4224h3.635v13.197h-4.4252c-0.98778 0-1.4224 0.43462-1.4224 1.4224v4.7808c0 0.98778 0.43462 1.4224 1.4224 1.4224z"/>
    </g>
   </g>
  </g>
 </g>
</svg>
