<?xml version="1.0" encoding="UTF-8"?>
<svg width="133.1" height="122.57" viewBox="183.45 188.71 133.1 122.57" xmlns="http://www.w3.org/2000/svg">
<title>Site-ZH-13</title>
<g transform="matrix(.85788 0 0 .85788 -1417 599.38)">
<g transform="matrix(.068626 0 0 .068626 1943.2 -403.35)">
<circle r="984"/>
<path d="m-359-913 36-185h646l36 185"/>
<path transform="rotate(120)" d="m-359-913 36-185h646l36 185"/>
<path transform="rotate(240)" d="m-359-913 36-185h646l36 185"/>
<g fill="#8ab6cb">
<circle r="925"/>
<path d="m-306-861 36-185h540l36 185"/>
<path transform="rotate(120)" d="m-306-861 36-185h540l36 185"/>
<path transform="rotate(240)" d="m-306-861 36-185h540l36 185"/>
</g>
</g>
<g transform="translate(.000139)" fill="none" stroke="#000">
<circle cx="1943.2" cy="-403.34" r="35" fill="#daeff0" stroke="#fff" stroke-miterlimit="1" stroke-width="5px" style="paint-order:fill"/>
<g stroke-linecap="round">
<path d="m1943.3-431.44-12.436 17.928c-3.357 0.023-6.795-1.413-9.086 3.743-1.706-5.549-5.734-10.994-8.57-15.725 16.85 23.115 10.877 45.104-3.56 42.004" stroke-width="3.263px" style=""/>
<path d="m1943.3-431.44 12.437 17.928c3.357 0.023 6.795-1.413 9.086 3.743 1.705-5.549 5.733-10.994 8.569-15.725-16.85 23.115-10.877 45.104 3.56 42.004" stroke-width="3.263px" style=""/>
<path d="m1943.4-439.49c-4.122 24.48 6.561 43.361 0.525 75.298" stroke-width="3.0635" style=""/>
<path d="m1923.8-391.86c10.696-15.041 21.025-32.818 38.135 0" stroke-width="3.2633" style=""/>
<path d="m1927.4-397.4c-3.201 7.548-9.496 17.771-0.946 19.816" stroke-width="2.196" style=""/>
<path d="m1958.8-398.1c3.202 7.548 9.496 17.772 0.947 19.816" stroke-width="2.196" style=""/>
</g>
<circle cx="1943.2" cy="-403.35" r="40.524" stroke-width="8.1665" style=""/>
</g>
<g fill="#005b96">
<path d="m1943.5-447.62 9.892-19.191h-6.928v-8.215h-5.928v8.215h-6.928l9.892 19.191z"/>
<path d="m1981.9-381.75 11.674 18.162 3.464-6 7.115 4.107 2.964-5.133-7.115-4.108 3.464-6-21.566-1.028z"/>
<path d="m1904.5-382.38-21.566 1.029 3.464 5.999-7.115 4.108 2.964 5.134 7.115-4.108 3.464 6 11.674-18.162z"/>
</g>
<g transform="matrix(1.1657 0 0 1.1657 1799.8 -562.16)" style="">
<g stroke="#fff" aria-label="13">
<path d="m125.87 143.49c-0.987 0-1.422 0.435-1.422 1.422v4.623c0 0.988 0.435 1.423 1.422 1.423h12.486c5.058 0 7.666-2.49 7.666-6.559v-3.951c0-3.477-1.225-5.295-4.979-5.729 1.739-0.751 2.331-2.252 2.331-4.268v-2.291c0-3.477-2.094-5.65-6.479-5.65h-11.024c-0.988 0-1.423 0.434-1.423 1.422v4.702c0 0.988 0.435 1.422 1.423 1.422h7.349c1.264 0 1.501 0.553 1.501 1.186v0.592c0 0.632-0.237 1.186-1.501 1.186h-4.149c-0.988 0-1.422 0.434-1.422 1.422v4.228c0 0.987 0.434 1.422 1.422 1.422h6.717c1.264 0 1.501 0.514 1.501 1.146v1.067c0 0.632-0.237 1.185-1.501 1.185h-9.918z"/>
<path d="m120.23 151.26c0.988 0 1.422-0.435 1.422-1.422v-4.781c0-0.988-0.434-1.423-1.422-1.423h-3.793v-19.4c0-0.987-0.435-1.422-1.422-1.422h-11.458c-0.988 0-1.423 0.435-1.423 1.422v4.781c0 0.988 0.435 1.423 1.423 1.423h3.635v13.197h-4.426c-0.987 0-1.422 0.434-1.422 1.422v4.781c0 0.988 0.435 1.422 1.422 1.422h17.464z"/>
</g>
</g>
</g>
</svg>
