<?xml version="1.0" encoding="UTF-8" standalone="no"?>
<svg
   id="svg38"
   viewBox="0 0 79.374998 78.440323"
   version="1.1"
   height="78.440323mm"
   width="79.375mm"
   xmlns="http://www.w3.org/2000/svg"
   xmlns:svg="http://www.w3.org/2000/svg"
   xmlns:rdf="http://www.w3.org/1999/02/22-rdf-syntax-ns#"
   xmlns:cc="http://creativecommons.org/ns#"
   xmlns:dc="http://purl.org/dc/elements/1.1/">
  <defs
     id="defs42">
    <path
       d="m -3.95,-2.4 c 0.681,-1.5 1.7,-2.49 3.2,-3.3 0.836,-0.451 1.31,-0.5 1.9,-0.5 0.571,0 1.04,0.387 1.4,0.6 0.293,0.173 0.599,0.216 0.921,0.225 0.322,0.009 0.431,-0.027 0.479,-0.025 0.198,0.008 0.377,0.168 0.5,0.4 0.299,0.565 0.3,0.99 0.3,1.6 0,1.39 -0.632,2.8 -1.3,2.8 -0.316,0 -0.42,-0.103 -0.6,-0.3 -0.35,-0.384 -0.453,-0.901 -0.6,-1.3 -0.124,-0.337 -0.302,-0.697 -0.6,-1 -0.527,-0.536 -1.17,-0.581 -1.7,-0.4 -0.604,0.207 -0.88,1.02 -1.1,2.2 -0.245,1.32 0.118,3.27 0.5,3.8 0.429,0.596 1.06,0.723 1.7,0.8 0.697,0.084 1.31,-0.295 1.8,-0.8 0.203,-0.21 0.306,-0.341 0.5,-0.3 0.443,0.095 0.465,0.474 0.4,0.8 -0.166,0.833 -0.491,1.46 -1.1,2 -1.01,0.893 -2.07,1.3 -3.3,1.3 -0.545,0 -1.39,0 -1.9,-0.4 -1.34,-1.05 -2.2,-2.86 -2.2,-4.6 0,-1.46 0.334,-2.58 0.8,-3.6 z"
       id="C" />
    <path
       d="m 0.05,3.6 c 1,0 1.3,0.653 1.3,1.2 0,0.751 -0.574,1.31 -1.3,1.3 -1.14,-0.01 -1.4,-0.635 -1.4,-1.36 0,-0.78 0.687,-1.14 1.4,-1.14 z"
       id="." />
    <path
       d="m -3.85,-3 c 0,-0.37 0,-0.5 -0.1,-0.7 -0.24,-0.36 -0.5,-0.6 -0.8,-0.82 -0.1,-0.08 -0.1,-0.28 -0.1,-0.48 0,-0.278 0.14,-0.45 0.37,-0.69 0.23,-0.26 0.65,-0.41 1.23,-0.41 h 0.8 c 0.352,0 0.718,0.343 0.99,0.67 l 3.11,3.74 c 0,0 0.29,0.39 0.5,0.388 0.22,0 0.3,-0.18 0.3,-0.53 v -1.7 c 0,-0.4 0,-0.5 -0.3,-0.7 -0.31,-0.2 -0.66,-0.5 -0.66,-1 0,-0.968 1.07,-0.968 1.86,-0.968 0.784,0 1.6,0 1.6,1 0,0.675 -0.318,0.805 -0.6,0.971 -0.282,0.163 -0.3,0.276 -0.3,0.7 v 7.6 c 0,1.06 -0.152,1.92 -0.5,1.92 -0.239,0 -0.59,-0.52 -0.974,-0.982 l -3.49,-4.21 c -0.172,-0.208 -0.44,-0.507 -0.61,-0.508 -0.164,0 -0.33,0.274 -0.33,0.708 v 2.4 c 0,0.48 0.14,0.468 0.5,0.697 0.35,0.222 0.597,0.527 0.6,0.803 0,1.1 -0.988,1.1 -2.1,1.1 -1.112,0 -2.1,0 -2.1,-1.1 0,-0.33 0.57,-0.692 0.7,-0.8 0.37,-0.315 0.4,-0.327 0.4,-0.7 z"
       id="N" />
    <path
       d="m 2.7,-5.8 c 0.5,0.19 0.58,0.2 0.9,0.2 0.32,0 0.47,-0.074 0.6,0.1 0.29,0.39 0.326,0.9 0.5,1.4 0.1,0.29 0.2,0.548 0.2,0.8 0,0.9 -0.5,1.5 -1.1,1.5 C 3.6,-1.8 3.3,-1.9 3.1,-2.2 2.87,-2.486 2.751,-2.721 2.5,-3.1 2.113,-3.682 1.775,-3.818 1.215,-3.894 0.718,-3.961 0.204,-3.675 0.1,-3 0.037,-2.62 0.244,-2.25 0.6,-2.1 2.24,-1.427 3.79,-0.64 4.1,0.5 4.48,1.76 4.269,2.78 3.7,3.8 2.52,5.91 1.06,6.2 -0.9,6.2 -1.92,6.2 -2.745,6 -3.5,5.8 -4,5.7 -4.49,5.325 -4.7,4.806 -4.834,4.482 -4.9,2.8 -4.9,2 c 0,-0.74 0.4,-0.8 0.7,-0.8 0.349,0 0.646,0.288 0.8,0.9 0.336,1.32 1.18,1.76 2.2,2 C -0.317,4.306 -0.05,3.919 0.1,3.4 0.196,3.07 -0.034,2.607 -0.185,2.506 -0.954,1.992 -1.81,1.48 -2.5,0.9 -3.58,0 -4,-1.3 -4,-2.4 c 0,-0.622 0.386,-1.39 1.2,-2.3 0.814,-0.91 2.13,-1.5 3.6,-1.5 0.713,0 1.43,0.211 1.9,0.4 z"
       id="S" />
    <path
       d="m -3.12,-3.4 c 0.027,-0.326 -0.01,-0.506 -0.15,-0.7 -0.109,-0.151 -0.222,-0.149 -0.48,-0.285 -0.26,-0.137 -0.369,-0.271 -0.32,-0.515 0.122,-0.602 0.522,-0.932 1.3,-0.95 l 5.25,-0.1 c 0.474,-0.01 0.955,-0.042 1.35,-0.15 0.43,-0.118 0.65,-0.2 0.75,-0.2 0.231,0 0.453,0.174 0.58,0.4 0.25,0.444 0.293,0.786 0.293,1.2 0,0.578 -0.092,1.12 -0.376,1.52 -0.142,0.198 -0.315,0.334 -0.567,0.334 -0.52,0 -0.638,-0.58 -0.83,-0.85 -0.1,-0.14 -0.263,-0.362 -0.583,-0.475 a 3.744,3.744 0 0 0 -1.44,-0.156 c -0.501,0.051 -0.948,0.154 -1.32,0.346 -0.136,0.07 -0.187,0.256 -0.203,0.388 -0.087,0.723 -0.185,1.55 -0.286,2.31 -0.016,0.152 0.03,0.256 0.123,0.286 0.392,0.128 0.85,0.035 1.14,-0.11 0.308,-0.152 0.328,-0.477 0.406,-0.776 0.087,-0.333 0.185,-0.562 0.252,-0.69 0.09,-0.173 0.275,-0.28 0.547,-0.316 0.32,-0.041 0.576,0.25 0.629,0.77 0.053,0.524 -0.063,1.23 -0.138,1.79 -0.235,1.77 -0.652,2.74 -1.3,2.73 C 1.29,2.397 1.13,2.198 1.109,1.807 1.084,1.349 1.136,1.065 1.025,0.827 0.756,0.25 0.115,0.527 -0.155,0.806 -0.263,0.916 -0.318,1.139 -0.383,1.345 -0.628,2.124 -0.632,2.885 -0.65,3.725 -0.663,4.321 -0.17,4.43 0.65,4.404 1.471,4.378 2.08,4.23 2.4,4.02 3.117,3.556 3.49,2.87 3.91,2.18 4.11,1.846 4.264,1.796 4.544,1.8 5.018,1.808 5.219,2.143 5.102,2.92 4.924,3.95 4.412,4.78 3.902,5.61 3.749,5.86 3.538,6.11 3.432,6.11 3.279,6.11 3.133,6.062 2.875,6.03 0.665,5.816 -1.695,5.952 -3.215,6.01 c -1.26,0.05 -1.64,0.1 -1.91,0.1 -0.236,0.006 -0.314,-0.26 -0.314,-0.5 0,-0.527 0.237,-0.642 0.427,-0.75 0.488,-0.274 0.748,-0.601 0.8,-0.95 z"
       id="E" />
    <path
       d="M 4.1,3.6 C 4.828,2.45 5.1,1.53 5.1,0 5.1,-1.29 4.7,-3.01 3.9,-4.1 2.84,-5.55 1.65,-6.2 0,-6.2 c -1.85,0 -3.25,1.16 -4.1,2.5 -0.654,1.03 -1,2.49 -1,3.7 0,1.41 0.008,2.52 0.7,3.7 0.978,1.67 2.19,2.5 4,2.5 1.97,0 3.54,-1.08 4.5,-2.6 z M -1.8,0 c 0.049,-0.847 0.151,-2.12 0.5,-2.9 0.331,-0.743 0.803,-1 1.4,-1 0.954,0 1.27,1.64 1.4,2.6 0.16,1.2 0.02,2.42 -0.3,3.6 -0.273,1 -0.896,1.89 -1.6,1.9 -1.37,0 -1.47,-2.8 -1.4,-4.2 z"
       id="O" />
    <path
       d="m -5.55,4.62 c -0.076,0.213 0.023,0.468 0.098,0.682 0.051,0.145 0.073,0.315 0.2,0.4 0.242,0.161 0.602,0.084 0.891,0.11 1.44,0.134 2.86,0.388 4.31,0.39 1.63,0 3.04,-0.268 4,-1.07 1.25,-1.04 1.8,-2.9 1.8,-5.13 0,-1.33 -0.38,-2.5 -1.2,-3.7 -0.989,-1.45 -2.34,-2 -3.9,-2.25 -1.12,-0.18 -2.27,-0.25 -3.4,-0.25 -0.886,0 -2.05,0.023 -2.5,0.1 -0.214,0.037 -0.5,0.26 -0.5,0.6 0,0.57 0.204,0.676 0.5,0.9 0.173,0.13 0.29,0.209 0.4,0.4 0.138,0.237 0.165,0.528 0.2,0.8 0.27,2.09 0.427,4.21 0.15,6.3 -0.046,0.349 -0.078,0.76 -0.272,1.05 -0.115,0.173 -0.322,0.262 -0.478,0.398 -0.1,0.088 -0.253,0.142 -0.298,0.269 z m 4.3,-8.22 c 0,-0.206 0.121,-0.401 0.3,-0.5 0.191,-0.106 0.495,-0.074 0.7,0 0.53,0.19 0.98,0.534 1.3,1 0.676,0.985 0.991,2.27 1,3.47 C 2.058,1.52 1.819,2.77 1.15,3.7 0.96,3.965 0.664,4.164 0.35,4.25 0.054,4.332 -0.29,4.364 -0.55,4.2 a 0.909,0.909 0 0 1 -0.4,-0.7 z"
       id="D" />
    <path
       d="m -3.5,6.2 c 0.9,0 1.9,0 1.9,-0.8 C -1.6,5.158 -1.631,4.982 -1.7,4.838 -1.787,4.656 -1.965,4.645 -2.071,4.472 -2.198,4.266 -2.283,4.024 -2.2,3.8 -2.109,3.554 -1.886,3.205 -1.6,3.2 h 2 C 0.9103772,3.2 1.059,3.5412799 1.059,3.749 1.05147,3.9003761 1.002335,4.0467428 0.917,4.172 0.771,4.386 0.6,4.499 0.4,4.699 c -0.2,0.2 -0.2,0.512 -0.2,0.8 0,0.7 1.4,0.699 2.6,0.7 1.4,0 2.6,0 2.6,-1.4 C 5.4,4.499 5.151,4.417 5.028,4.245 4.749,4.084 4.566,3.849 4.5,3.599 l -2.1,-7.9 c -0.142,-0.533 -0.472,-1.01 -0.9,-1.4 -0.338,-0.352 -0.6,-0.5 -1.1,-0.5 -0.3,0 -0.574,0.157 -0.8,0.3 -0.19,0.121 -0.292,0.313 -0.4,0.5 -0.114,0.198 -0.143,0.383 -0.2,0.6 -0.118,0.449 -0.103,0.946 -0.2,1.4 -0.073222,0.3082716 -0.173615,0.6094492 -0.3,0.9 l -2.68,6.55 c -0.05,0.123 -0.095,0.291 -0.223,0.352 -0.698,0.335 -1,0.659 -1,1 0,0.8 1.12,0.767 1.9,0.8 z m 2.6,-5.1 c -0.133,0 -0.26,-0.194 -0.281,-0.313 -0.108,-0.622 0.615,-1.65 0.681,-1.79 0.1,-0.2 0,-0.4 0.2,-0.4 0.3,0 0.411,0.338 0.5,0.5 0.279,0.509 0.292,1.09 0.4,1.6 0.046,0.217 -0.08,0.4 -0.2,0.4 z"
       id="A" />
    <path
       d="m -3.9,3.6 c 0,0.4 -0.22,0.7 -0.45,0.9 -0.241,0.232 -0.55,0.301 -0.55,0.6 0,1.1 1,1.1 2.4,1.1 1.4,0 2.4,0 2.4,-1.1 C -0.1,4.8 -0.4,4.7 -0.6,4.5 -0.862,4.238 -1,4 -1,3.6 V 1.5 c 0,-0.376 0.1,-0.7 0.4,-0.7 0.5,0 0.73,0.6 0.9,1 0.383,0.9 0.182,1.9 0.4,2.7 0.191,0.7 0.305,0.94 0.7,1.3 0.439,0.4 0.8,0.4 1.6,0.4 1.3,0 1.9,0 1.9,-1.1 C 4.9,4.7 4.452,4.7 4.2,4.5 4.074,4.4 3.93,4.3 3.9,4 3.8,3 3.62,1.8 3.3,1 A 1.16,1.16 0 0 0 2.8,0.4 C 2.454,0.2 2.2,0.066 2.2,-0.1 c 0,-0.359 0.606,-0.709 0.9,-1.2 0.3,-0.5 0.403,-1.3 0.4,-1.6 0,-0.9 0,-1.6 -0.6,-2.2 -1.1,-1.1 -2.46,-1.1 -3.86,-1.1 -0.724,0 -1.44,0 -2.14,0.102 -0.478,0.07 -0.9,0.098 -1.3,0.298 -0.269,0.135 -0.297,0.3 -0.3,0.7 -0.002,0.3 0.107,0.296 0.2,0.4 0.266,0.3 0.6,0.6 0.6,0.9 z m 2.96,-4.97 -0.006,-2.44 c 0,-0.49 0.248,-0.636 0.462,-0.635 0.785,0.003 0.854,1.15 0.854,1.75 0,0.898 -0.268,1.68 -0.998,1.68 -0.17,0 -0.31,-0.178 -0.31,-0.348 z"
       id="R" />
    <path
       d="m 1.8,-6 c 0.47,-0.054 0.931,-0.2 1.4,-0.2 0.259,0 0.53,0.204 0.8,0.7 0.424,0.781 0.8,1.86 0.8,2.7 0,0.414 -0.006,0.758 -0.2,1 A 0.779,0.779 0 0 1 4,-1.5 C 3.421,-1.5 2.96,-1.847 2.8,-2.5 2.672,-3.036 2.64,-3.392 2.1,-3.6 1.868,-3.69 1.614,-3.331 1.6,-2.7 V 2.95 C 1.633,3.629 1.727,3.833 2,4.05 2.307,4.295 2.95,4.514 2.95,5.1 2.95,5.667 2.73,5.898 2.3,6 1.607,6.184 0.86,6.2 0,6.2 -0.86,6.2 -1.61,6.184 -2.3,6 -2.73,5.898 -2.95,5.667 -2.95,5.1 -2.95,4.514 -2.307,4.295 -2,4.05 -1.727,3.833 -1.633,3.629 -1.6,2.95 V -2.7 c -0.015,-0.631 -0.268,-0.99 -0.5,-0.9 -0.54,0.208 -0.572,0.564 -0.7,1.1 -0.156,0.653 -0.621,1 -1.2,1 a 0.777,0.777 0 0 1 -0.6,-0.3 c -0.194,-0.242 -0.2,-0.586 -0.2,-1 0,-0.845 0.376,-1.92 0.8,-2.7 0.27,-0.496 0.541,-0.7 0.8,-0.7 0.469,0 0.931,0.146 1.4,0.2 z"
       id="T" />
    <path
       d="m -1.6,-3 c 0,-0.68 -0.127,-0.883 -0.4,-1.1 -0.307,-0.245 -0.9,-0.4 -0.9,-1 0,-1.1 1.4,-1.1 2.9,-1.1 1.5,0 2.9,0 2.9,1.1 0,0.6 -0.593,0.755 -0.9,1 -0.273,0.217 -0.4,0.42 -0.4,1.1 v 6 c 0,0.68 0.127,0.883 0.4,1.1 0.307,0.245 0.9,0.4 0.9,1 0,1.1 -1.89,1.1 -2.9,1.1 -1.5,0 -2.9,0 -2.9,-1.1 0,-0.6 0.593,-0.755 0.9,-1 0.273,-0.217 0.4,-0.42 0.4,-1.1 z"
       id="I" />
    <circle
       r="4"
       id="cafe"
       cx="0"
       cy="0"
       style="fill:#ed1c24;stroke:#231f20" />
    <clipPath
       id="clipPath1614"
       clipPathUnits="userSpaceOnUse">
      <path
         style="fill:none;fill-rule:evenodd;stroke:#ff0000;stroke-width:0.36116919;stroke-miterlimit:10"
         id="path1616"
         stroke-miterlimit="10"
         stop-color="#000000"
         d="m 115.33049,184.46298 c -7.73523,-1.35053 -16.380868,-5.06413 -22.690064,-9.74636 -4.142865,-3.07446 -3.332878,-3.09872 -14.976097,0.4482 -4.592354,1.39893 -8.578302,2.54362 -8.857683,2.54362 -0.27941,0 -2.734644,-3.79772 -5.456094,-8.43927 l -4.94802,-8.43927 2.9646,-2.75883 c 1.63051,-1.51732 5.02698,-4.60498 7.547703,-6.86149 l 4.583101,-4.10267 -0.722481,-5.75882 c -1.618793,-12.90285 1.233586,-24.42985 8.736598,-35.30476 5.385114,-7.805197 16.804178,-16.320947 25.110777,-18.72603 0.95373,-0.276146 2.05027,-0.891987 2.43675,-1.368571 0.40157,-0.495129 1.35231,-3.762103 2.21841,-7.623028 0.83361,-3.716083 1.78969,-7.93963 2.12469,-9.385638 l 0.60906,-2.629071 h 20.69561 l 0.24731,1.265842 c 0.98222,5.027469 4.05397,18.096824 4.3368,18.451047 0.1916,0.240329 1.47496,0.832747 2.85189,1.31644 9.21818,3.238411 18.83209,10.311584 24.35276,17.916389 4.37106,6.02158 7.86125,14.27867 9.05497,21.4223 0.80786,4.83489 0.78877,12.04069 -0.0448,16.89286 l -0.66627,3.87877 1.16822,0.96118 c 3.29999,2.71499 13.90209,12.30133 14.06746,12.71952 0.15417,0.38964 -3.58587,7.12549 -8.93121,16.08512 -0.41557,0.69654 -0.9363,1.20692 -1.15719,1.13417 -0.22091,-0.0727 -4.93848,-1.49824 -10.48318,-3.16776 l -10.08152,-3.03551 -3.17074,2.3136 c -7.7252,5.63682 -14.52425,8.5442 -23.42151,10.01561 -4.64206,0.76784 -13.04267,0.75841 -17.49918,-0.0196 z" />
    </clipPath>
    <defs
       id="defs20">
      <path
         id="path1211"
         d="m -3.95,-2.4 c 0.681,-1.5 1.7,-2.49 3.2,-3.3 0.836,-0.451 1.31,-0.5 1.9,-0.5 0.571,0 1.04,0.387 1.4,0.6 0.293,0.173 0.599,0.216 0.921,0.225 0.322,0.009 0.431,-0.027 0.479,-0.025 0.198,0.008 0.377,0.168 0.5,0.4 0.299,0.565 0.3,0.99 0.3,1.6 0,1.39 -0.632,2.8 -1.3,2.8 -0.316,0 -0.42,-0.103 -0.6,-0.3 -0.35,-0.384 -0.453,-0.901 -0.6,-1.3 -0.124,-0.337 -0.302,-0.697 -0.6,-1 -0.527,-0.536 -1.17,-0.581 -1.7,-0.4 -0.604,0.207 -0.88,1.02 -1.1,2.2 -0.245,1.32 0.118,3.27 0.5,3.8 0.429,0.596 1.06,0.723 1.7,0.8 0.697,0.084 1.31,-0.295 1.8,-0.8 0.203,-0.21 0.306,-0.341 0.5,-0.3 0.443,0.095 0.465,0.474 0.4,0.8 -0.166,0.833 -0.491,1.46 -1.1,2 -1.01,0.893 -2.07,1.3 -3.3,1.3 -0.545,0 -1.39,0 -1.9,-0.4 -1.34,-1.05 -2.2,-2.86 -2.2,-4.6 0,-1.46 0.334,-2.58 0.8,-3.6 z" />
      <path
         id="path1213"
         d="m 0.05,3.6 c 1,0 1.3,0.653 1.3,1.2 0,0.751 -0.574,1.31 -1.3,1.3 -1.14,-0.01 -1.4,-0.635 -1.4,-1.36 0,-0.78 0.687,-1.14 1.4,-1.14 z" />
      <path
         id="path1215"
         d="m -3.85,-3 c 0,-0.37 0,-0.5 -0.1,-0.7 -0.24,-0.36 -0.5,-0.6 -0.8,-0.82 -0.1,-0.08 -0.1,-0.28 -0.1,-0.48 0,-0.278 0.14,-0.45 0.37,-0.69 0.23,-0.26 0.65,-0.41 1.23,-0.41 h 0.8 c 0.352,0 0.718,0.343 0.99,0.67 l 3.11,3.74 c 0,0 0.29,0.39 0.5,0.388 0.22,0 0.3,-0.18 0.3,-0.53 v -1.7 c 0,-0.4 0,-0.5 -0.3,-0.7 -0.31,-0.2 -0.66,-0.5 -0.66,-1 0,-0.968 1.07,-0.968 1.86,-0.968 0.784,0 1.6,0 1.6,1 0,0.675 -0.318,0.805 -0.6,0.971 -0.282,0.163 -0.3,0.276 -0.3,0.7 v 7.6 c 0,1.06 -0.152,1.92 -0.5,1.92 -0.239,0 -0.59,-0.52 -0.974,-0.982 l -3.49,-4.21 c -0.172,-0.208 -0.44,-0.507 -0.61,-0.508 -0.164,0 -0.33,0.274 -0.33,0.708 v 2.4 c 0,0.48 0.14,0.468 0.5,0.697 0.35,0.222 0.597,0.527 0.6,0.803 0,1.1 -0.988,1.1 -2.1,1.1 -1.112,0 -2.1,0 -2.1,-1.1 0,-0.33 0.57,-0.692 0.7,-0.8 0.37,-0.315 0.4,-0.327 0.4,-0.7 z" />
      <path
         id="path1217"
         d="m 2.7,-5.8 c 0.5,0.19 0.58,0.2 0.9,0.2 0.32,0 0.47,-0.074 0.6,0.1 0.29,0.39 0.326,0.9 0.5,1.4 0.1,0.29 0.2,0.548 0.2,0.8 0,0.9 -0.5,1.5 -1.1,1.5 C 3.6,-1.8 3.3,-1.9 3.1,-2.2 2.87,-2.486 2.751,-2.721 2.5,-3.1 2.113,-3.682 1.775,-3.818 1.215,-3.894 0.718,-3.961 0.204,-3.675 0.1,-3 0.037,-2.62 0.244,-2.25 0.6,-2.1 2.24,-1.427 3.79,-0.64 4.1,0.5 4.48,1.76 4.269,2.78 3.7,3.8 2.52,5.91 1.06,6.2 -0.9,6.2 -1.92,6.2 -2.745,6 -3.5,5.8 -4,5.7 -4.49,5.325 -4.7,4.806 -4.834,4.482 -4.9,2.8 -4.9,2 c 0,-0.74 0.4,-0.8 0.7,-0.8 0.349,0 0.646,0.288 0.8,0.9 0.336,1.32 1.18,1.76 2.2,2 C -0.317,4.306 -0.05,3.919 0.1,3.4 0.196,3.07 -0.034,2.607 -0.185,2.506 -0.954,1.992 -1.81,1.48 -2.5,0.9 -3.58,0 -4,-1.3 -4,-2.4 c 0,-0.622 0.386,-1.39 1.2,-2.3 0.814,-0.91 2.13,-1.5 3.6,-1.5 0.713,0 1.43,0.211 1.9,0.4 z" />
      <path
         id="path1219"
         d="m -3.12,-3.4 c 0.027,-0.326 -0.01,-0.506 -0.15,-0.7 -0.109,-0.151 -0.222,-0.149 -0.48,-0.285 -0.26,-0.137 -0.369,-0.271 -0.32,-0.515 0.122,-0.602 0.522,-0.932 1.3,-0.95 l 5.25,-0.1 c 0.474,-0.01 0.955,-0.042 1.35,-0.15 0.43,-0.118 0.65,-0.2 0.75,-0.2 0.231,0 0.453,0.174 0.58,0.4 0.25,0.444 0.293,0.786 0.293,1.2 0,0.578 -0.092,1.12 -0.376,1.52 -0.142,0.198 -0.315,0.334 -0.567,0.334 -0.52,0 -0.638,-0.58 -0.83,-0.85 -0.1,-0.14 -0.263,-0.362 -0.583,-0.475 a 3.744,3.744 0 0 0 -1.44,-0.156 c -0.501,0.051 -0.948,0.154 -1.32,0.346 -0.136,0.07 -0.187,0.256 -0.203,0.388 -0.087,0.723 -0.185,1.55 -0.286,2.31 -0.016,0.152 0.03,0.256 0.123,0.286 0.392,0.128 0.85,0.035 1.14,-0.11 0.308,-0.152 0.328,-0.477 0.406,-0.776 0.087,-0.333 0.185,-0.562 0.252,-0.69 0.09,-0.173 0.275,-0.28 0.547,-0.316 0.32,-0.041 0.576,0.25 0.629,0.77 0.053,0.524 -0.063,1.23 -0.138,1.79 -0.235,1.77 -0.652,2.74 -1.3,2.73 C 1.29,2.397 1.13,2.198 1.109,1.807 1.084,1.349 1.136,1.065 1.025,0.827 0.756,0.25 0.115,0.527 -0.155,0.806 -0.263,0.916 -0.318,1.139 -0.383,1.345 -0.628,2.124 -0.632,2.885 -0.65,3.725 -0.663,4.321 -0.17,4.43 0.65,4.404 1.471,4.378 2.08,4.23 2.4,4.02 3.117,3.556 3.49,2.87 3.91,2.18 4.11,1.846 4.264,1.796 4.544,1.8 5.018,1.808 5.219,2.143 5.102,2.92 4.924,3.95 4.412,4.78 3.902,5.61 3.749,5.86 3.538,6.11 3.432,6.11 3.279,6.11 3.133,6.062 2.875,6.03 0.665,5.816 -1.695,5.952 -3.215,6.01 c -1.26,0.05 -1.64,0.1 -1.91,0.1 -0.236,0.006 -0.314,-0.26 -0.314,-0.5 0,-0.527 0.237,-0.642 0.427,-0.75 0.488,-0.274 0.748,-0.601 0.8,-0.95 z" />
      <path
         id="path1221"
         d="M 4.1,3.6 C 4.828,2.45 5.1,1.53 5.1,0 5.1,-1.29 4.7,-3.01 3.9,-4.1 2.84,-5.55 1.65,-6.2 0,-6.2 c -1.85,0 -3.25,1.16 -4.1,2.5 -0.654,1.03 -1,2.49 -1,3.7 0,1.41 0.008,2.52 0.7,3.7 0.978,1.67 2.19,2.5 4,2.5 1.97,0 3.54,-1.08 4.5,-2.6 z M -1.8,0 c 0.049,-0.847 0.151,-2.12 0.5,-2.9 0.331,-0.743 0.803,-1 1.4,-1 0.954,0 1.27,1.64 1.4,2.6 0.16,1.2 0.02,2.42 -0.3,3.6 -0.273,1 -0.896,1.89 -1.6,1.9 -1.37,0 -1.47,-2.8 -1.4,-4.2 z" />
      <path
         id="path1223"
         d="m -5.55,4.62 c -0.076,0.213 0.023,0.468 0.098,0.682 0.051,0.145 0.073,0.315 0.2,0.4 0.242,0.161 0.602,0.084 0.891,0.11 1.44,0.134 2.86,0.388 4.31,0.39 1.63,0 3.04,-0.268 4,-1.07 1.25,-1.04 1.8,-2.9 1.8,-5.13 0,-1.33 -0.38,-2.5 -1.2,-3.7 -0.989,-1.45 -2.34,-2 -3.9,-2.25 -1.12,-0.18 -2.27,-0.25 -3.4,-0.25 -0.886,0 -2.05,0.023 -2.5,0.1 -0.214,0.037 -0.5,0.26 -0.5,0.6 0,0.57 0.204,0.676 0.5,0.9 0.173,0.13 0.29,0.209 0.4,0.4 0.138,0.237 0.165,0.528 0.2,0.8 0.27,2.09 0.427,4.21 0.15,6.3 -0.046,0.349 -0.078,0.76 -0.272,1.05 -0.115,0.173 -0.322,0.262 -0.478,0.398 -0.1,0.088 -0.253,0.142 -0.298,0.269 z m 4.3,-8.22 c 0,-0.206 0.121,-0.401 0.3,-0.5 0.191,-0.106 0.495,-0.074 0.7,0 0.53,0.19 0.98,0.534 1.3,1 0.676,0.985 0.991,2.27 1,3.47 C 2.058,1.52 1.819,2.77 1.15,3.7 0.96,3.965 0.664,4.164 0.35,4.25 0.054,4.332 -0.29,4.364 -0.55,4.2 a 0.909,0.909 0 0 1 -0.4,-0.7 z" />
      <path
         id="path1225"
         d="m -3.5,6.2 c 0.9,0 1.9,0 1.9,-0.8 C -1.6,5.158 -1.631,4.982 -1.7,4.838 -1.787,4.656 -1.965,4.645 -2.071,4.472 -2.198,4.266 -2.283,4.024 -2.2,3.8 -2.109,3.554 -1.886,3.205 -1.6,3.2 h 2 C 0.9103772,3.2 1.059,3.5412799 1.059,3.749 1.05147,3.9003761 1.002335,4.0467428 0.917,4.172 0.771,4.386 0.6,4.499 0.4,4.699 c -0.2,0.2 -0.2,0.512 -0.2,0.8 0,0.7 1.4,0.699 2.6,0.7 1.4,0 2.6,0 2.6,-1.4 C 5.4,4.499 5.151,4.417 5.028,4.245 4.749,4.084 4.566,3.849 4.5,3.599 l -2.1,-7.9 c -0.142,-0.533 -0.472,-1.01 -0.9,-1.4 -0.338,-0.352 -0.6,-0.5 -1.1,-0.5 -0.3,0 -0.574,0.157 -0.8,0.3 -0.19,0.121 -0.292,0.313 -0.4,0.5 -0.114,0.198 -0.143,0.383 -0.2,0.6 -0.118,0.449 -0.103,0.946 -0.2,1.4 -0.073222,0.3082716 -0.173615,0.6094492 -0.3,0.9 l -2.68,6.55 c -0.05,0.123 -0.095,0.291 -0.223,0.352 -0.698,0.335 -1,0.659 -1,1 0,0.8 1.12,0.767 1.9,0.8 z m 2.6,-5.1 c -0.133,0 -0.26,-0.194 -0.281,-0.313 -0.108,-0.622 0.615,-1.65 0.681,-1.79 0.1,-0.2 0,-0.4 0.2,-0.4 0.3,0 0.411,0.338 0.5,0.5 0.279,0.509 0.292,1.09 0.4,1.6 0.046,0.217 -0.08,0.4 -0.2,0.4 z" />
      <path
         id="path1227"
         d="m -3.9,3.6 c 0,0.4 -0.22,0.7 -0.45,0.9 -0.241,0.232 -0.55,0.301 -0.55,0.6 0,1.1 1,1.1 2.4,1.1 1.4,0 2.4,0 2.4,-1.1 C -0.1,4.8 -0.4,4.7 -0.6,4.5 -0.862,4.238 -1,4 -1,3.6 V 1.5 c 0,-0.376 0.1,-0.7 0.4,-0.7 0.5,0 0.73,0.6 0.9,1 0.383,0.9 0.182,1.9 0.4,2.7 0.191,0.7 0.305,0.94 0.7,1.3 0.439,0.4 0.8,0.4 1.6,0.4 1.3,0 1.9,0 1.9,-1.1 C 4.9,4.7 4.452,4.7 4.2,4.5 4.074,4.4 3.93,4.3 3.9,4 3.8,3 3.62,1.8 3.3,1 A 1.16,1.16 0 0 0 2.8,0.4 C 2.454,0.2 2.2,0.066 2.2,-0.1 c 0,-0.359 0.606,-0.709 0.9,-1.2 0.3,-0.5 0.403,-1.3 0.4,-1.6 0,-0.9 0,-1.6 -0.6,-2.2 -1.1,-1.1 -2.46,-1.1 -3.86,-1.1 -0.724,0 -1.44,0 -2.14,0.102 -0.478,0.07 -0.9,0.098 -1.3,0.298 -0.269,0.135 -0.297,0.3 -0.3,0.7 -0.002,0.3 0.107,0.296 0.2,0.4 0.266,0.3 0.6,0.6 0.6,0.9 z m 2.96,-4.97 -0.006,-2.44 c 0,-0.49 0.248,-0.636 0.462,-0.635 0.785,0.003 0.854,1.15 0.854,1.75 0,0.898 -0.268,1.68 -0.998,1.68 -0.17,0 -0.31,-0.178 -0.31,-0.348 z" />
      <path
         id="path1229"
         d="m 1.8,-6 c 0.47,-0.054 0.931,-0.2 1.4,-0.2 0.259,0 0.53,0.204 0.8,0.7 0.424,0.781 0.8,1.86 0.8,2.7 0,0.414 -0.006,0.758 -0.2,1 A 0.779,0.779 0 0 1 4,-1.5 C 3.421,-1.5 2.96,-1.847 2.8,-2.5 2.672,-3.036 2.64,-3.392 2.1,-3.6 1.868,-3.69 1.614,-3.331 1.6,-2.7 V 2.95 C 1.633,3.629 1.727,3.833 2,4.05 2.307,4.295 2.95,4.514 2.95,5.1 2.95,5.667 2.73,5.898 2.3,6 1.607,6.184 0.86,6.2 0,6.2 -0.86,6.2 -1.61,6.184 -2.3,6 -2.73,5.898 -2.95,5.667 -2.95,5.1 -2.95,4.514 -2.307,4.295 -2,4.05 -1.727,3.833 -1.633,3.629 -1.6,2.95 V -2.7 c -0.015,-0.631 -0.268,-0.99 -0.5,-0.9 -0.54,0.208 -0.572,0.564 -0.7,1.1 -0.156,0.653 -0.621,1 -1.2,1 a 0.777,0.777 0 0 1 -0.6,-0.3 c -0.194,-0.242 -0.2,-0.586 -0.2,-1 0,-0.845 0.376,-1.92 0.8,-2.7 0.27,-0.496 0.541,-0.7 0.8,-0.7 0.469,0 0.931,0.146 1.4,0.2 z" />
      <path
         id="path1231"
         d="m -1.6,-3 c 0,-0.68 -0.127,-0.883 -0.4,-1.1 -0.307,-0.245 -0.9,-0.4 -0.9,-1 0,-1.1 1.4,-1.1 2.9,-1.1 1.5,0 2.9,0 2.9,1.1 0,0.6 -0.593,0.755 -0.9,1 -0.273,0.217 -0.4,0.42 -0.4,1.1 v 6 c 0,0.68 0.127,0.883 0.4,1.1 0.307,0.245 0.9,0.4 0.9,1 0,1.1 -1.89,1.1 -2.9,1.1 -1.5,0 -2.9,0 -2.9,-1.1 0,-0.6 0.593,-0.755 0.9,-1 0.273,-0.217 0.4,-0.42 0.4,-1.1 z" />
      <circle
         style="fill:#ed1c24;stroke:#231f20"
         cy="0"
         cx="0"
         id="circle1233"
         r="4" />
    </defs>
    <clipPath
       id="clipPath2013"
       clipPathUnits="userSpaceOnUse">
      <path
         d="m 115.09299,188.24738 c -7.73523,-1.39246 -16.380871,-5.22135 -22.690067,-10.04894 -4.142865,-3.16991 -3.332878,-3.19492 -14.976096,0.46211 -4.59236,1.44237 -8.5783,2.62259 -8.85768,2.62259 -0.27941,0 -2.73465,-3.91562 -5.4561,-8.70127 l -4.94802,-8.70127 2.9646,-2.84448 c 1.63051,-1.56443 5.02698,-4.74795 7.5477,-7.07451 l 4.58311,-4.23004 -0.72249,-5.93761 c -1.61879,-13.30343 1.23359,-25.18829 8.736603,-36.40082 5.385114,-8.047534 16.804178,-16.827684 25.11078,-19.307434 0.95373,-0.28472 2.05027,-0.91968 2.43675,-1.41106 0.40157,-0.5105 1.35231,-3.8789 2.21841,-7.85969 0.83361,-3.83145 1.78969,-8.18612 2.12469,-9.67702 l 0.60906,-2.7107 h 20.69561 l 0.24731,1.30514 c 0.98222,5.18355 4.05397,18.65866 4.3368,19.02388 0.1916,0.24779 1.47496,0.8586 2.85189,1.35731 9.21818,3.33895 18.83209,10.631736 24.35276,18.472654 4.37106,6.20853 7.86125,14.72196 9.05497,22.08737 0.80786,4.985 0.78877,12.4145 -0.0448,17.41731 l -0.66627,3.99919 1.16822,0.99102 c 3.29999,2.79928 13.90209,12.68324 14.06746,13.11441 0.15417,0.40174 -3.58587,7.34671 -8.93121,16.58449 -0.41557,0.71817 -0.9363,1.24439 -1.15719,1.16938 -0.22091,-0.075 -4.93848,-1.54475 -10.48318,-3.2661 l -10.08152,-3.12975 -3.17074,2.38543 c -7.7252,5.81182 -14.52425,8.80946 -23.42151,10.32655 -4.64206,0.79168 -13.04267,0.78195 -17.49918,-0.0202 z"
         stop-color="#000000"
         stroke-miterlimit="10"
         id="path2015"
         style="fill:none;fill-rule:evenodd;stroke:#ff0000;stroke-width:0.36116919;stroke-miterlimit:10" />
    </clipPath>
    <path
       d="m -3.95,-2.4 c 0.681,-1.5 1.7,-2.49 3.2,-3.3 0.836,-0.451 1.31,-0.5 1.9,-0.5 0.571,0 1.04,0.387 1.4,0.6 0.293,0.173 0.599,0.216 0.921,0.225 0.322,0.009 0.431,-0.027 0.479,-0.025 0.198,0.008 0.377,0.168 0.5,0.4 0.299,0.565 0.3,0.99 0.3,1.6 0,1.39 -0.632,2.8 -1.3,2.8 -0.316,0 -0.42,-0.103 -0.6,-0.3 -0.35,-0.384 -0.453,-0.901 -0.6,-1.3 -0.124,-0.337 -0.302,-0.697 -0.6,-1 -0.527,-0.536 -1.17,-0.581 -1.7,-0.4 -0.604,0.207 -0.88,1.02 -1.1,2.2 -0.245,1.32 0.118,3.27 0.5,3.8 0.429,0.596 1.06,0.723 1.7,0.8 0.697,0.084 1.31,-0.295 1.8,-0.8 0.203,-0.21 0.306,-0.341 0.5,-0.3 0.443,0.095 0.465,0.474 0.4,0.8 -0.166,0.833 -0.491,1.46 -1.1,2 -1.01,0.893 -2.07,1.3 -3.3,1.3 -0.545,0 -1.39,0 -1.9,-0.4 -1.34,-1.05 -2.2,-2.86 -2.2,-4.6 0,-1.46 0.334,-2.58 0.8,-3.6 z"
       id="C-4" />
    <path
       d="m 0.05,3.6 c 1,0 1.3,0.653 1.3,1.2 0,0.751 -0.574,1.31 -1.3,1.3 -1.14,-0.01 -1.4,-0.635 -1.4,-1.36 0,-0.78 0.687,-1.14 1.4,-1.14 z"
       id=".-7" />
    <path
       d="m -3.85,-3 c 0,-0.37 0,-0.5 -0.1,-0.7 -0.24,-0.36 -0.5,-0.6 -0.8,-0.82 -0.1,-0.08 -0.1,-0.28 -0.1,-0.48 0,-0.278 0.14,-0.45 0.37,-0.69 0.23,-0.26 0.65,-0.41 1.23,-0.41 h 0.8 c 0.352,0 0.718,0.343 0.99,0.67 l 3.11,3.74 c 0,0 0.29,0.39 0.5,0.388 0.22,0 0.3,-0.18 0.3,-0.53 v -1.7 c 0,-0.4 0,-0.5 -0.3,-0.7 -0.31,-0.2 -0.66,-0.5 -0.66,-1 0,-0.968 1.07,-0.968 1.86,-0.968 0.784,0 1.6,0 1.6,1 0,0.675 -0.318,0.805 -0.6,0.971 -0.282,0.163 -0.3,0.276 -0.3,0.7 v 7.6 c 0,1.06 -0.152,1.92 -0.5,1.92 -0.239,0 -0.59,-0.52 -0.974,-0.982 l -3.49,-4.21 c -0.172,-0.208 -0.44,-0.507 -0.61,-0.508 -0.164,0 -0.33,0.274 -0.33,0.708 v 2.4 c 0,0.48 0.14,0.468 0.5,0.697 0.35,0.222 0.597,0.527 0.6,0.803 0,1.1 -0.988,1.1 -2.1,1.1 -1.112,0 -2.1,0 -2.1,-1.1 0,-0.33 0.57,-0.692 0.7,-0.8 0.37,-0.315 0.4,-0.327 0.4,-0.7 z"
       id="N-8" />
    <path
       d="m 2.7,-5.8 c 0.5,0.19 0.58,0.2 0.9,0.2 0.32,0 0.47,-0.074 0.6,0.1 0.29,0.39 0.326,0.9 0.5,1.4 0.1,0.29 0.2,0.548 0.2,0.8 0,0.9 -0.5,1.5 -1.1,1.5 C 3.6,-1.8 3.3,-1.9 3.1,-2.2 2.87,-2.486 2.751,-2.721 2.5,-3.1 2.113,-3.682 1.775,-3.818 1.215,-3.894 0.718,-3.961 0.204,-3.675 0.1,-3 0.037,-2.62 0.244,-2.25 0.6,-2.1 2.24,-1.427 3.79,-0.64 4.1,0.5 4.48,1.76 4.269,2.78 3.7,3.8 2.52,5.91 1.06,6.2 -0.9,6.2 -1.92,6.2 -2.745,6 -3.5,5.8 -4,5.7 -4.49,5.325 -4.7,4.806 -4.834,4.482 -4.9,2.8 -4.9,2 c 0,-0.74 0.4,-0.8 0.7,-0.8 0.349,0 0.646,0.288 0.8,0.9 0.336,1.32 1.18,1.76 2.2,2 C -0.317,4.306 -0.05,3.919 0.1,3.4 0.196,3.07 -0.034,2.607 -0.185,2.506 -0.954,1.992 -1.81,1.48 -2.5,0.9 -3.58,0 -4,-1.3 -4,-2.4 c 0,-0.622 0.386,-1.39 1.2,-2.3 0.814,-0.91 2.13,-1.5 3.6,-1.5 0.713,0 1.43,0.211 1.9,0.4 z"
       id="S-1" />
    <path
       d="m -3.12,-3.4 c 0.027,-0.326 -0.01,-0.506 -0.15,-0.7 -0.109,-0.151 -0.222,-0.149 -0.48,-0.285 -0.26,-0.137 -0.369,-0.271 -0.32,-0.515 0.122,-0.602 0.522,-0.932 1.3,-0.95 l 5.25,-0.1 c 0.474,-0.01 0.955,-0.042 1.35,-0.15 0.43,-0.118 0.65,-0.2 0.75,-0.2 0.231,0 0.453,0.174 0.58,0.4 0.25,0.444 0.293,0.786 0.293,1.2 0,0.578 -0.092,1.12 -0.376,1.52 -0.142,0.198 -0.315,0.334 -0.567,0.334 -0.52,0 -0.638,-0.58 -0.83,-0.85 -0.1,-0.14 -0.263,-0.362 -0.583,-0.475 a 3.744,3.744 0 0 0 -1.44,-0.156 c -0.501,0.051 -0.948,0.154 -1.32,0.346 -0.136,0.07 -0.187,0.256 -0.203,0.388 -0.087,0.723 -0.185,1.55 -0.286,2.31 -0.016,0.152 0.03,0.256 0.123,0.286 0.392,0.128 0.85,0.035 1.14,-0.11 0.308,-0.152 0.328,-0.477 0.406,-0.776 0.087,-0.333 0.185,-0.562 0.252,-0.69 0.09,-0.173 0.275,-0.28 0.547,-0.316 0.32,-0.041 0.576,0.25 0.629,0.77 0.053,0.524 -0.063,1.23 -0.138,1.79 -0.235,1.77 -0.652,2.74 -1.3,2.73 C 1.29,2.397 1.13,2.198 1.109,1.807 1.084,1.349 1.136,1.065 1.025,0.827 0.756,0.25 0.115,0.527 -0.155,0.806 -0.263,0.916 -0.318,1.139 -0.383,1.345 -0.628,2.124 -0.632,2.885 -0.65,3.725 -0.663,4.321 -0.17,4.43 0.65,4.404 1.471,4.378 2.08,4.23 2.4,4.02 3.117,3.556 3.49,2.87 3.91,2.18 4.11,1.846 4.264,1.796 4.544,1.8 5.018,1.808 5.219,2.143 5.102,2.92 4.924,3.95 4.412,4.78 3.902,5.61 3.749,5.86 3.538,6.11 3.432,6.11 3.279,6.11 3.133,6.062 2.875,6.03 0.665,5.816 -1.695,5.952 -3.215,6.01 c -1.26,0.05 -1.64,0.1 -1.91,0.1 -0.236,0.006 -0.314,-0.26 -0.314,-0.5 0,-0.527 0.237,-0.642 0.427,-0.75 0.488,-0.274 0.748,-0.601 0.8,-0.95 z"
       id="E-6" />
    <path
       d="M 4.1,3.6 C 4.828,2.45 5.1,1.53 5.1,0 5.1,-1.29 4.7,-3.01 3.9,-4.1 2.84,-5.55 1.65,-6.2 0,-6.2 c -1.85,0 -3.25,1.16 -4.1,2.5 -0.654,1.03 -1,2.49 -1,3.7 0,1.41 0.008,2.52 0.7,3.7 0.978,1.67 2.19,2.5 4,2.5 1.97,0 3.54,-1.08 4.5,-2.6 z M -1.8,0 c 0.049,-0.847 0.151,-2.12 0.5,-2.9 0.331,-0.743 0.803,-1 1.4,-1 0.954,0 1.27,1.64 1.4,2.6 0.16,1.2 0.02,2.42 -0.3,3.6 -0.273,1 -0.896,1.89 -1.6,1.9 -1.37,0 -1.47,-2.8 -1.4,-4.2 z"
       id="O-1" />
    <path
       d="m -5.55,4.62 c -0.076,0.213 0.023,0.468 0.098,0.682 0.051,0.145 0.073,0.315 0.2,0.4 0.242,0.161 0.602,0.084 0.891,0.11 1.44,0.134 2.86,0.388 4.31,0.39 1.63,0 3.04,-0.268 4,-1.07 1.25,-1.04 1.8,-2.9 1.8,-5.13 0,-1.33 -0.38,-2.5 -1.2,-3.7 -0.989,-1.45 -2.34,-2 -3.9,-2.25 -1.12,-0.18 -2.27,-0.25 -3.4,-0.25 -0.886,0 -2.05,0.023 -2.5,0.1 -0.214,0.037 -0.5,0.26 -0.5,0.6 0,0.57 0.204,0.676 0.5,0.9 0.173,0.13 0.29,0.209 0.4,0.4 0.138,0.237 0.165,0.528 0.2,0.8 0.27,2.09 0.427,4.21 0.15,6.3 -0.046,0.349 -0.078,0.76 -0.272,1.05 -0.115,0.173 -0.322,0.262 -0.478,0.398 -0.1,0.088 -0.253,0.142 -0.298,0.269 z m 4.3,-8.22 c 0,-0.206 0.121,-0.401 0.3,-0.5 0.191,-0.106 0.495,-0.074 0.7,0 0.53,0.19 0.98,0.534 1.3,1 0.676,0.985 0.991,2.27 1,3.47 C 2.058,1.52 1.819,2.77 1.15,3.7 0.96,3.965 0.664,4.164 0.35,4.25 0.054,4.332 -0.29,4.364 -0.55,4.2 a 0.909,0.909 0 0 1 -0.4,-0.7 z"
       id="D-0" />
    <path
       d="m -3.5,6.2 c 0.9,0 1.9,0 1.9,-0.8 C -1.6,5.158 -1.631,4.982 -1.7,4.838 -1.787,4.656 -1.965,4.645 -2.071,4.472 -2.198,4.266 -2.283,4.024 -2.2,3.8 -2.109,3.554 -1.886,3.205 -1.6,3.2 h 2 C 0.9103772,3.2 1.059,3.5412799 1.059,3.749 1.05147,3.9003761 1.002335,4.0467428 0.917,4.172 0.771,4.386 0.6,4.499 0.4,4.699 c -0.2,0.2 -0.2,0.512 -0.2,0.8 0,0.7 1.4,0.699 2.6,0.7 1.4,0 2.6,0 2.6,-1.4 C 5.4,4.499 5.151,4.417 5.028,4.245 4.749,4.084 4.566,3.849 4.5,3.599 l -2.1,-7.9 c -0.142,-0.533 -0.472,-1.01 -0.9,-1.4 -0.338,-0.352 -0.6,-0.5 -1.1,-0.5 -0.3,0 -0.574,0.157 -0.8,0.3 -0.19,0.121 -0.292,0.313 -0.4,0.5 -0.114,0.198 -0.143,0.383 -0.2,0.6 -0.118,0.449 -0.103,0.946 -0.2,1.4 -0.073222,0.3082716 -0.173615,0.6094492 -0.3,0.9 l -2.68,6.55 c -0.05,0.123 -0.095,0.291 -0.223,0.352 -0.698,0.335 -1,0.659 -1,1 0,0.8 1.12,0.767 1.9,0.8 z m 2.6,-5.1 c -0.133,0 -0.26,-0.194 -0.281,-0.313 -0.108,-0.622 0.615,-1.65 0.681,-1.79 0.1,-0.2 0,-0.4 0.2,-0.4 0.3,0 0.411,0.338 0.5,0.5 0.279,0.509 0.292,1.09 0.4,1.6 0.046,0.217 -0.08,0.4 -0.2,0.4 z"
       id="A-1" />
    <path
       d="m -3.9,3.6 c 0,0.4 -0.22,0.7 -0.45,0.9 -0.241,0.232 -0.55,0.301 -0.55,0.6 0,1.1 1,1.1 2.4,1.1 1.4,0 2.4,0 2.4,-1.1 C -0.1,4.8 -0.4,4.7 -0.6,4.5 -0.862,4.238 -1,4 -1,3.6 V 1.5 c 0,-0.376 0.1,-0.7 0.4,-0.7 0.5,0 0.73,0.6 0.9,1 0.383,0.9 0.182,1.9 0.4,2.7 0.191,0.7 0.305,0.94 0.7,1.3 0.439,0.4 0.8,0.4 1.6,0.4 1.3,0 1.9,0 1.9,-1.1 C 4.9,4.7 4.452,4.7 4.2,4.5 4.074,4.4 3.93,4.3 3.9,4 3.8,3 3.62,1.8 3.3,1 A 1.16,1.16 0 0 0 2.8,0.4 C 2.454,0.2 2.2,0.066 2.2,-0.1 c 0,-0.359 0.606,-0.709 0.9,-1.2 0.3,-0.5 0.403,-1.3 0.4,-1.6 0,-0.9 0,-1.6 -0.6,-2.2 -1.1,-1.1 -2.46,-1.1 -3.86,-1.1 -0.724,0 -1.44,0 -2.14,0.102 -0.478,0.07 -0.9,0.098 -1.3,0.298 -0.269,0.135 -0.297,0.3 -0.3,0.7 -0.002,0.3 0.107,0.296 0.2,0.4 0.266,0.3 0.6,0.6 0.6,0.9 z m 2.96,-4.97 -0.006,-2.44 c 0,-0.49 0.248,-0.636 0.462,-0.635 0.785,0.003 0.854,1.15 0.854,1.75 0,0.898 -0.268,1.68 -0.998,1.68 -0.17,0 -0.31,-0.178 -0.31,-0.348 z"
       id="R-1" />
    <path
       d="m 1.8,-6 c 0.47,-0.054 0.931,-0.2 1.4,-0.2 0.259,0 0.53,0.204 0.8,0.7 0.424,0.781 0.8,1.86 0.8,2.7 0,0.414 -0.006,0.758 -0.2,1 A 0.779,0.779 0 0 1 4,-1.5 C 3.421,-1.5 2.96,-1.847 2.8,-2.5 2.672,-3.036 2.64,-3.392 2.1,-3.6 1.868,-3.69 1.614,-3.331 1.6,-2.7 V 2.95 C 1.633,3.629 1.727,3.833 2,4.05 2.307,4.295 2.95,4.514 2.95,5.1 2.95,5.667 2.73,5.898 2.3,6 1.607,6.184 0.86,6.2 0,6.2 -0.86,6.2 -1.61,6.184 -2.3,6 -2.73,5.898 -2.95,5.667 -2.95,5.1 -2.95,4.514 -2.307,4.295 -2,4.05 -1.727,3.833 -1.633,3.629 -1.6,2.95 V -2.7 c -0.015,-0.631 -0.268,-0.99 -0.5,-0.9 -0.54,0.208 -0.572,0.564 -0.7,1.1 -0.156,0.653 -0.621,1 -1.2,1 a 0.777,0.777 0 0 1 -0.6,-0.3 c -0.194,-0.242 -0.2,-0.586 -0.2,-1 0,-0.845 0.376,-1.92 0.8,-2.7 0.27,-0.496 0.541,-0.7 0.8,-0.7 0.469,0 0.931,0.146 1.4,0.2 z"
       id="T-9" />
    <path
       d="m -1.6,-3 c 0,-0.68 -0.127,-0.883 -0.4,-1.1 -0.307,-0.245 -0.9,-0.4 -0.9,-1 0,-1.1 1.4,-1.1 2.9,-1.1 1.5,0 2.9,0 2.9,1.1 0,0.6 -0.593,0.755 -0.9,1 -0.273,0.217 -0.4,0.42 -0.4,1.1 v 6 c 0,0.68 0.127,0.883 0.4,1.1 0.307,0.245 0.9,0.4 0.9,1 0,1.1 -1.89,1.1 -2.9,1.1 -1.5,0 -2.9,0 -2.9,-1.1 0,-0.6 0.593,-0.755 0.9,-1 0.273,-0.217 0.4,-0.42 0.4,-1.1 z"
       id="I-0" />
    <circle
       r="4"
       id="cafe-7"
       cx="0"
       cy="0"
       style="fill:#ed1c24;stroke:#231f20" />
  </defs>
  <title
     id="title2">Site-PT25</title>
  <metadata
     id="metadata4">
    <rdf:RDF>
      <cc:Work
         rdf:about="">
        <dc:format>image/svg+xml</dc:format>
        <dc:type
           rdf:resource="http://purl.org/dc/dcmitype/StillImage" />
        <dc:title>Site-PT25</dc:title>
      </cc:Work>
    </rdf:RDF>
  </metadata>
  <g
     style="fill:#ffffff;fill-rule:evenodd;stroke-width:3.13537"
     id="g8"
     transform="matrix(0.56474918,0,0,0.56474918,-30.332622,-36.040147)">
    <circle
       style="stroke-width:1.7707"
       id="circle6"
       stop-color="#000000"
       r="63.876999"
       cy="136.72"
       cx="124.17" />
  </g>
  <g
     clip-path="url(#clipPath1614)"
     style="stroke-width:1.74384"
     transform="matrix(0.56474918,0,0,0.58228221,-30.332622,-37.26092)"
     id="g1612">
    <rect
       style="fill:#ed1c24;stroke-width:0.816982"
       x="60.901901"
       y="69.627068"
       width="125.80144"
       height="113.79801"
       id="rect2" />
    <rect
       style="fill:#ffffff;stroke-width:0.816982"
       x="53.867825"
       y="114.38201"
       width="140.3912"
       height="45.175533"
       id="rect4" />
  </g>
  <path
     clip-path="url(#clipPath2013)"
     id="path6"
     d="M 58.588246,137.0112 123.98446,93.413743 189.38067,137.0112 123.98446,180.60868 Z"
     style="fill:#a6ce39;stroke-width:0.829567"
     transform="matrix(0.56474918,0,0,0.56474918,-30.332622,-36.040147)" />
  <path
     id="path529"
     d="M 39.687494,22.164903 43.80416,34.857742 H 57.148878 L 46.359854,42.696986 50.476519,55.38982 39.687494,47.550588 28.898475,55.38982 33.01513,42.696986 22.226116,34.857742 h 13.344718 z"
     style="fill:#ffffff;stroke:#231f20;stroke-width:0.887052;stroke-linecap:round;stroke-miterlimit:4;stroke-dasharray:none" />
  <path
     style="fill-rule:evenodd;stroke-width:1.7707"
     id="path34"
     stop-color="#000000"
     d="m 36.816056,78.394979 c -8.460508,-0.7706 -16.509313,-4.289383 -22.491701,-9.832848 l -1.133395,-1.05032 -2.489189,0.803017 C 9.3327061,68.75649 8.1933246,69.069671 8.1697746,69.010825 8.1462245,68.951983 6.2984217,65.745388 4.0634833,61.885384 L -1.7118001e-8,54.866681 1.2384385,53.735093 C 1.9195824,53.11274 2.7652379,52.331635 3.1176414,51.99928 L 3.7584058,51.395055 3.460879,50.263015 C 2.2895327,45.806241 2.0492319,39.852994 2.8495945,35.118701 4.6948559,24.203794 11.117522,14.839688 20.666866,9.1424982 23.099523,7.6910928 25.25054,6.7169569 28.082588,5.7842737 l 2.20975,-0.7277358 0.331198,-1.5094052 C 30.805695,2.7169515 31.056354,1.5792642 31.180548,1.0188636 L 31.406363,-3.79284e-7 h 8.204111 c 7.684542,0 8.208629,0.016727869284 8.278093,0.264144489284 0.04072,0.14528172 0.293139,1.28932239 0.560915,2.54233139 l 0.486865,2.2781982 1.147344,0.3373698 c 6.038863,1.7757409 11.907172,5.3312325 16.243316,9.8418845 5.353257,5.568257 8.670029,12.114999 10.060442,19.854886 0.306275,1.705317 0.348156,2.424525 0.35011,6.01232 0.0023,4.361897 -0.124702,5.586781 -0.919694,8.864868 l -0.375835,1.549841 0.649236,0.603774 c 0.357068,0.332066 1.241997,1.147118 1.966457,1.811263 l 1.317277,1.207547 -8.212582,14.215301 -1.58864,-0.504981 c -0.87378,-0.277738 -2.078333,-0.650027 -2.676854,-0.827358 l -1.088216,-0.322364 -1.175864,1.045802 c -3.630151,3.228502 -7.333268,5.509185 -11.747348,7.235002 -2.083303,0.814594 -5.664434,1.74564 -8.069701,2.098213 -1.660701,0.243384 -6.552784,0.418987 -7.999672,0.287169 z m 7.92456,-4.198402 c 4.714526,-0.750438 9.3658,-2.525332 13.225296,-5.046711 1.53561,-1.003164 3.488174,-2.490375 3.570458,-2.719493 0.02287,-0.0637 -0.608574,-0.307834 -1.403233,-0.54251 l -1.444854,-0.426673 -0.483516,0.362795 c -2.989838,2.243353 -7.016444,4.198288 -10.713856,5.201227 -3.332924,0.904106 -8.158932,1.24482 -11.580747,0.81753 -5.045526,-0.630034 -10.09941,-2.613094 -14.28759,-5.606321 -0.677077,-0.483883 -1.322303,-0.878411 -1.433954,-0.876717 -0.111606,0.0017 -0.804372,0.19206 -1.53945,0.423054 l -1.336535,0.419992 1.092337,0.882591 c 4.909083,3.966346 10.758472,6.443788 17.127149,7.254767 2.116228,0.269352 7.10285,0.191744 9.20767,-0.143288 z m -1.882817,-5.376355 c 3.869548,-0.480788 7.338915,-1.619419 10.572104,-3.46948 1.438642,-0.823292 3.510538,-2.286387 4.315588,-3.047556 l 0.476795,-0.450794 1.259052,0.376484 c 0.692439,0.207065 3.218844,0.999832 5.614171,1.761622 2.395327,0.761847 4.37771,1.36257 4.405326,1.335011 0.212555,-0.212555 5.505458,-9.54765 5.471347,-9.64987 -0.04377,-0.131259 -0.527403,-0.578133 -5.654834,-5.22489 l -2.706956,-2.453157 0.270662,-1.320327 C 68.918217,36.739373 65.118585,26.049236 57.301214,19.72461 54.665191,17.591891 51.439117,15.777239 48.77576,14.929043 47.750063,14.60238 47.669755,14.545115 47.535515,14.04425 47.401725,13.545017 46.535344,9.6148657 45.611866,5.3183104 L 45.214079,3.4674579 34.023574,3.5465454 33.53501,5.7351744 c -0.268714,1.2037629 -0.765066,3.4791938 -1.102956,5.0564816 -0.878467,4.100475 -0.66759,3.698994 -2.219633,4.225849 -2.830975,0.961034 -5.979,2.771732 -8.566116,4.926985 -3.784553,3.153051 -6.802404,7.596441 -8.382007,12.342028 -1.502798,4.514549 -1.842494,9.021868 -1.037162,13.763502 0.30283,1.783027 0.303925,1.847464 0.03572,2.104087 -0.152171,0.145609 -1.060373,0.968206 -2.0183,1.828036 -2.9240456,2.624672 -5.796487,5.547475 -5.8427964,5.66963 -0.034246,0.09027 5.2685027,9.168985 5.4729419,9.377943 0.027255,0.0279 2.4436695,-0.708026 5.3698045,-1.635401 5.970528,-1.892136 5.374775,-1.840744 6.854926,-0.591575 3.464397,2.923876 8.619766,5.212805 13.207224,5.863791 0.622636,0.08834 1.30186,0.185548 1.509405,0.216016 0.860621,0.126329 4.854584,0.08507 6.041687,-0.06242 z M 72.987732,45.432264 c 0.346621,-2.35523 0.342735,-6.862267 -0.0079,-9.207106 -1.05044,-7.02548 -3.99555,-13.189152 -8.778468,-18.371856 C 61.642317,15.08044 57.923048,12.3396 54.410873,10.638067 52.346376,9.6379527 49.797324,8.6717798 49.797324,8.8893211 c 0,0.1993847 0.725081,3.3567559 0.784549,3.4161679 0.02925,0.02925 0.628792,0.298826 1.332357,0.599086 8.465025,3.612531 15.105911,11.322091 17.489717,20.303862 0.992659,3.74056 1.300956,7.827424 0.859492,11.393815 l -0.242916,1.962221 2.342467,2.181344 0.184803,-0.788785 c 0.101638,-0.433835 0.299757,-1.56989 0.440255,-2.524599 z M 8.8491678,46.762022 c 0.3188687,-0.342339 0.327227,-0.411594 0.1611286,-1.33597 -0.2809796,-1.563734 -0.2312309,-7.180221 0.079505,-8.974994 1.1103536,-6.412727 3.8173096,-11.890794 8.1357766,-16.463568 2.845094,-3.012598 6.622814,-5.649751 10.264317,-7.164973 0.64116,-0.266788 1.199075,-0.595302 1.239907,-0.729995 0.122274,-0.403745 0.688655,-3.0223682 0.688655,-3.1839429 0,-0.082408 -0.662225,0.088146 -1.47168,0.3790088 -4.604005,1.6544331 -9.484963,4.8713001 -12.864986,8.4785791 -7.3304451,7.823471 -10.5879184,18.908368 -8.5960481,29.250619 0.1598692,0.830182 0.2908741,1.533125 0.2911226,1.562097 6.777e-4,0.077 1.6783781,-1.393971 2.072573,-1.817194 z" />
  <rect
     y="37.479042"
     x="30.308619"
     height="7.6507206"
     width="19.126801"
     id="rect59"
     style="fill:#ffffff;fill-opacity:1;stroke:none;stroke-width:1.5;stroke-linecap:round;stroke-linejoin:bevel;stroke-miterlimit:4;stroke-dasharray:none;stroke-opacity:1;paint-order:markers fill stroke" />
  <g
     id="text26"
     style="font-style:normal;font-variant:normal;font-weight:normal;font-stretch:normal;font-size:39.5385px;line-height:1.25;font-family:BUNGEE;-inkscape-font-specification:BUNGEE;font-variant-ligatures:normal;font-variant-caps:normal;font-variant-numeric:normal;font-feature-settings:normal;text-align:start;letter-spacing:0px;word-spacing:0px;writing-mode:lr-tb;text-anchor:start;fill:#000000;fill-opacity:1;stroke:#ffffff;stroke-width:1.77092;stroke-miterlimit:4;stroke-dasharray:none"
     transform="matrix(0.56513948,0,0,0.56435915,-30.227835,-35.501515)"
     aria-label="25">
    <path
       id="path61"
       style="stroke:#ffffff;stroke-width:1.77092;stroke-miterlimit:4;stroke-dasharray:none"
       d="m 120.36662,150.09394 h -18.82034 q -0.75123,0 -1.10708,-0.31631 -0.31631,-0.35584 -0.31631,-1.10707 v -6.80063 q 0,-2.29323 0.43493,-3.75616 0.47446,-1.50246 1.30477,-2.45139 0.83031,-0.94892 1.97692,-1.50246 1.14662,-0.55354 2.49093,-0.94893 l 5.29816,-1.66062 q 0.63262,-0.15815 0.83031,-0.47446 0.23723,-0.31631 0.23723,-0.94892 0,-0.59308 -0.23723,-0.79077 -0.23723,-0.23723 -0.83031,-0.23723 h -8.57986 q -0.75123,0 -1.10708,-0.31631 -0.3163,-0.35585 -0.3163,-1.10708 v -4.62601 q 0,-0.75123 0.3163,-1.06754 0.35585,-0.35584 1.10708,-0.35584 h 11.66387 q 3.36077,0 5.14001,1.70015 1.81877,1.66062 1.81877,4.86324 v 3.71662 q 0,2.96539 -1.66062,4.54693 -1.66062,1.58154 -4.50739,2.45139 l -5.37724,1.70016 q -0.59308,0.15815 -0.83031,0.35584 -0.19769,0.1977 -0.19769,0.83031 v 0.83031 h 11.26848 q 0.75123,0 1.06754,0.35585 0.35584,0.31631 0.35584,1.06754 v 4.62601 q 0,0.75123 -0.35584,1.10707 -0.31631,0.31631 -1.06754,0.31631 z" />
    <path
       id="path63"
       style="stroke:#ffffff;stroke-width:1.77092;stroke-miterlimit:4;stroke-dasharray:none"
       d="M 139.96475,150.09394 H 127.3915 q -0.75123,0 -1.10708,-0.31631 -0.31631,-0.35584 -0.31631,-1.10707 v -4.62601 q 0,-0.75123 0.31631,-1.06754 0.35585,-0.35585 1.10708,-0.35585 h 10.20094 q 0.47446,0 0.75123,-0.19769 0.31631,-0.23723 0.31631,-0.71169 v -1.54201 q 0,-0.47446 -0.31631,-0.67215 -0.27677,-0.23723 -0.75123,-0.23723 h -9.80555 q -0.75124,0 -1.10708,-0.31631 -0.31631,-0.35585 -0.31631,-1.10708 v -14.78741 q 0,-0.75123 0.31631,-1.06754 0.35584,-0.35584 1.10708,-0.35584 h 17.0411 q 0.75123,0 1.06754,0.35584 0.35585,0.31631 0.35585,1.06754 v 4.70509 q 0,0.75123 -0.35585,1.10708 -0.31631,0.3163 -1.06754,0.3163 h -9.48925 v 2.57001 h 5.41678 q 3.20262,0 5.06093,1.58154 1.85831,1.58154 1.85831,4.70508 v 5.49586 q 0,3.00493 -2.09554,4.78416 -2.056,1.77923 -5.61447,1.77923 z" />
  </g>
</svg>
