<?xml version="1.0" encoding="UTF-8"?>
<!-- Created with Inkscape (http://www.inkscape.org/) -->
<svg width="133.1mm" height="133.09mm" version="1.1" viewBox="0 0 133.1 133.09" xmlns="http://www.w3.org/2000/svg">
 <g transform="translate(68.068 -.058754)">
  <g transform="matrix(.50315 0 0 .50315 -38.6 -7.1036)">
   <path d="m58.35 245.48c-9.1472-1.6562-21.109-5.6573-29.409-9.8372-6.8598-3.4545-11.759-6.7529-22.755-15.319-2.5-1.9476-2.7393-1.8951-9.5438 2.0929-3.8387 2.2498-7.4013 3.6567-7.9169 3.1264-1.1785-1.2119-27.073-45.905-27.044-46.676 0.01189-0.31211 3.3393-2.5077 7.3943-4.8792l7.3727-4.3117-0.90391-5.2828c-1.8311-10.701-0.92863-32.854 1.7229-42.293 8.1144-28.887 26.439-51.249 52.683-64.291 4.3457-2.1596 9.8061-4.5441 12.134-5.2988l4.2329-1.3722v-15.628h55.309v15.605l7.7888 2.9763c27.587 10.542 48.819 33.001 58.877 62.28 3.7158 10.817 3.8252 11.645 3.8532 29.193 0.0159 9.9331-0.31403 19.584-0.73312 21.447-0.72716 3.2318-0.41194 3.5928 6.8989 7.9014l7.6609 4.5148-13.116 22.575c-7.214 12.416-13.504 23.18-13.978 23.918-0.61992 0.96584-2.9977 0.19815-8.4696-2.7345l-7.6077-4.0773-8.371 6.4678c-10.147 7.8404-23.621 14.53-35.686 17.717-10.045 2.6541-31.417 3.8099-40.394 2.1846z" fill="#fff"/>
   <path d="m57.299 261.73-17.28-17.023-2.9393-1.1234c-9.4036-3.5942-18.364-8.5579-26.172-14.498l-2.8594-2.1754-7.9885 4.6243c-6.092 3.5265-8.0587 4.5493-8.2841 4.3083-0.42966-0.45942-37.204-64.249-37.318-64.732-0.0669-0.28438 0.89805-0.96361 3.2089-2.2588 1.8175-1.0186 3.3071-1.9297 3.3102-2.0247 3e-3 -0.0949-4.3931-4.508-9.7693-9.8068l-9.7749-9.6342 34.032-34.546 1.3912-3.6117c9.8744-25.636 29.791-46.554 54.83-57.587 2.1462-0.94571 4.0229-1.7195 4.1703-1.7195 0.17558 0 0.26797-3.0561 0.26797-8.8635v-8.8635h18.999l17.672-17.958 18.317 17.958h20.676l0.0697 8.8914 0.0697 8.8914 3.175 1.3822c25.127 10.939 45.024 31.524 55.07 56.976l1.282 3.2481 4.6326 4.5678c2.5479 2.5123 10.312 10.172 17.253 17.022l12.621 12.454-10.868 11.028c-5.9775 6.0653-10.823 11.071-10.769 11.123 0.0548 0.0523 2.0047 1.1951 4.333 2.5395 2.3283 1.3444 4.2738 2.4783 4.3233 2.5198 0.0731 0.0613-35.757 62.339-37.229 64.709l-0.43202 0.69564-17.501-10.146-1.7006 1.3062c-2.2929 1.7611-8.5478 5.8516-11.548 7.5521-3.3586 1.9036-9.4031 4.7615-12.965 6.1301l-2.9687 1.1407-4.5832 4.6474c-2.5207 2.5561-10.184 10.325-17.029 17.264l-12.446 12.617zm27.377-23.53c19.266-2.537 36.49-10.287 50.271-22.618 1.3097-1.172 2.4429-2.1346 2.5182-2.1391 0.0753-5e-3 3.29 1.8195 7.1438 4.0534s7.0868 3.99 7.1844 3.9026c0.21184-0.18965 25.814-44.515 26.016-45.043 0.0977-0.25459-2.0027-1.5959-6.9415-4.4328-3.8949-2.2372-7.1182-4.0982-7.1629-4.1355-0.0447-0.0373 0.21995-1.613 0.58819-3.5015 1.2845-6.5879 1.5719-9.7553 1.59-17.526 0.0179-7.6871-0.20107-10.409-1.3407-16.669-6.0208-33.068-29.287-60.128-61.043-70.999l-3.2136-1.1001-0.1406-14.948h-52.379v14.794l-2.1169 0.66872c-30.164 9.5289-53.777 34.632-61.487 65.368-1.9776 7.8835-2.6702 13.805-2.6616 22.754 7e-3 7.5661 0.32753 11.184 1.5374 17.369l0.60283 3.0818-7.2318 4.1685c-6.9497 4.0059-7.218 4.1902-6.8763 4.7235 0.19552 0.30521 6.05 10.437 13.01 22.515 6.9599 12.078 12.745 22.064 12.855 22.19 0.11056 0.12604 3.3134-1.569 7.1174-3.7667l6.9164-3.9958 3.0939 2.7136c15.567 13.654 34.05 21.406 54.952 23.047 2.7451 0.21554 14.404-0.10521 17.198-0.47314z" stroke-width=".26458"/>
  </g>
 </g>
</svg>
