<?xml version="1.0" encoding="UTF-8"?>
<!-- Created with Inkscape (http://www.inkscape.org/) -->
<svg width="133.1mm" height="123.45mm" version="1.1" viewBox="0 0 133.1 123.45" xmlns="http://www.w3.org/2000/svg">
 <g transform="translate(-147.34 -71.507)">
  <g transform="matrix(1.7147 0 0 1.7147 -105.3 -51.106)" stroke="#000">
   <path d="m192.73 141.3c4.165-0.96785 8.5106-2.855 11.477-4.9841 0.9093-0.65266 1.8609-1.1867 2.1146-1.1867s1.7481 0.37434 3.3209 0.83185 3.0235 0.86232 3.224 0.89958c0.27997 0.0521 1.4896-1.869 5.2219-8.2931l4.8575-8.3608-5.2604-5.1783 0.21373-2.438c1.1314-12.905-6.1517-25.473-18.103-31.237l-2.1495-1.0368-0.68655-2.8649c-0.37761-1.5757-0.77825-3.197-0.8903-3.6028l-0.20375-0.7379h-19.434l-0.20374 0.7379c-0.11206 0.40584-0.5127 2.0271-0.8903 3.6028l-0.68656 2.8649-2.1495 1.0368c-11.951 5.7646-19.234 18.332-18.103 31.237l0.21372 2.438-5.2604 5.1783 4.8575 8.3608c3.7323 6.424 4.9419 8.3451 5.2219 8.2931 0.20041-0.0373 1.6512-0.44207 3.224-0.89958 1.5728-0.45751 3.0672-0.83185 3.3209-0.83185s1.1641 0.50421 2.023 1.1205c3.6658 2.6301 8.8044 4.6814 13.603 5.4301 2.179 0.34002 9.0366 0.10594 11.127-0.3798z" fill="#fff" stroke-width="3.212" style="paint-order:stroke fill markers"/>
   <g transform="translate(101.83 -5.2071)" stroke-width=".21167">
    <path d="m84.099 89.863c-0.30616-1.2888-1.2811-3.4423-2.2262-4.9172-0.46077-0.71906-0.58582-1.0704-0.40268-1.1315 0.62376-0.20792 1.52-1.1745 1.52-1.6393 0-0.74559-0.58649-1.2231-1.3217-1.0761-0.808 0.1616-0.68393-0.29033 0.17192-0.62624 0.85185-0.33434 1.9442-0.01597 2.2503 0.65586 0.13055 0.28653 0.30204 0.52097 0.38108 0.52097 0.079 0 0.25053-0.23444 0.38109-0.52097 0.3061-0.67183 1.3985-0.9902 2.2503-0.65586 0.85586 0.33592 0.97993 0.78784 0.17193 0.62624-0.73518-0.14704-1.3217 0.33046-1.3217 1.0761 0 0.46478 0.89623 1.4313 1.52 1.6393 0.18314 0.06105 0.0581 0.41244-0.40269 1.1315-0.94511 1.4749-1.92 3.6283-2.2262 4.9172-0.14371 0.60498-0.31146 1.1-0.37278 1.1-0.0613 0-0.22906-0.49498-0.37277-1.1z"/>
    <path d="m85.18 85.749 0.58515-1.1931-0.54106-0.56474c-0.29758-0.31061-0.54105-0.67859-0.54105-0.81774 0-0.13915-0.0952-0.253-0.21167-0.253-0.11641 0-0.21166 0.11385-0.21166 0.253 0 0.13915-0.24348 0.50713-0.54106 0.81774l-0.54105 0.56474 0.58515 1.1931c0.32183 0.6562 0.64071 1.1931 0.70862 1.1931 0.0679 0 0.3868-0.53689 0.70863-1.1931z" fill="#fff"/>
   </g>
   <g transform="rotate(120 136.93 142.38)" stroke-width=".21167">
    <path d="m84.099 89.863c-0.30616-1.2888-1.2811-3.4423-2.2262-4.9172-0.46077-0.71906-0.58582-1.0704-0.40268-1.1315 0.62376-0.20792 1.52-1.1745 1.52-1.6393 0-0.74559-0.58649-1.2231-1.3217-1.0761-0.808 0.1616-0.68393-0.29033 0.17192-0.62624 0.85185-0.33434 1.9442-0.01597 2.2503 0.65586 0.13055 0.28653 0.30204 0.52097 0.38108 0.52097 0.079 0 0.25053-0.23444 0.38109-0.52097 0.3061-0.67183 1.3985-0.9902 2.2503-0.65586 0.85586 0.33592 0.97993 0.78784 0.17193 0.62624-0.73518-0.14704-1.3217 0.33046-1.3217 1.0761 0 0.46478 0.89623 1.4313 1.52 1.6393 0.18314 0.06105 0.0581 0.41244-0.40269 1.1315-0.94511 1.4749-1.92 3.6283-2.2262 4.9172-0.14371 0.60498-0.31146 1.1-0.37278 1.1-0.0613 0-0.22906-0.49498-0.37277-1.1z"/>
    <path d="m85.18 85.749 0.58515-1.1931-0.54106-0.56474c-0.29758-0.31061-0.54105-0.67859-0.54105-0.81774 0-0.13915-0.0952-0.253-0.21167-0.253-0.11641 0-0.21166 0.11385-0.21166 0.253 0 0.13915-0.24348 0.50713-0.54106 0.81774l-0.54105 0.56474 0.58515 1.1931c0.32183 0.6562 0.64071 1.1931 0.70862 1.1931 0.0679 0 0.3868-0.53689 0.70863-1.1931z" fill="#fff"/>
   </g>
   <g transform="rotate(240 133.93 83.899)" stroke-width=".21167">
    <path d="m84.099 89.863c-0.30616-1.2888-1.2811-3.4423-2.2262-4.9172-0.46077-0.71906-0.58582-1.0704-0.40268-1.1315 0.62376-0.20792 1.52-1.1745 1.52-1.6393 0-0.74559-0.58649-1.2231-1.3217-1.0761-0.808 0.1616-0.68393-0.29033 0.17192-0.62624 0.85185-0.33434 1.9442-0.01597 2.2503 0.65586 0.13055 0.28653 0.30204 0.52097 0.38108 0.52097 0.079 0 0.25053-0.23444 0.38109-0.52097 0.3061-0.67183 1.3985-0.9902 2.2503-0.65586 0.85586 0.33592 0.97993 0.78784 0.17193 0.62624-0.73518-0.14704-1.3217 0.33046-1.3217 1.0761 0 0.46478 0.89623 1.4313 1.52 1.6393 0.18314 0.06105 0.0581 0.41244-0.40269 1.1315-0.94511 1.4749-1.92 3.6283-2.2262 4.9172-0.14371 0.60498-0.31146 1.1-0.37278 1.1-0.0613 0-0.22906-0.49498-0.37277-1.1z"/>
    <path d="m85.18 85.749 0.58515-1.1931-0.54106-0.56474c-0.29758-0.31061-0.54105-0.67859-0.54105-0.81774 0-0.13915-0.0952-0.253-0.21167-0.253-0.11641 0-0.21166 0.11385-0.21166 0.253 0 0.13915-0.24348 0.50713-0.54106 0.81774l-0.54105 0.56474 0.58515 1.1931c0.32183 0.6562 0.64071 1.1931 0.70862 1.1931 0.0679 0 0.3868-0.53689 0.70863-1.1931z" fill="#fff"/>
   </g>
  </g>
 </g>
</svg>
