<?xml version="1.0" encoding="UTF-8"?>
<!-- Created with Inkscape (http://www.inkscape.org/) -->
<svg width="79.375mm" height="79.375mm" version="1.1" viewBox="0 0 79.375 79.375" xmlns="http://www.w3.org/2000/svg">
 <a transform="translate(-52.554 -78.615)">
  <g transform="matrix(.61872 0 0 .61773 20.038 30.052)">
   <circle cx="116.7" cy="142.86" r="63.636" fill="#fff" fill-rule="evenodd" stop-color="#000000" style="paint-order:stroke fill markers"/>
   <path d="m110.1 206.85c-14.677-1.5095-28.455-8.0549-38.902-18.48-8.1796-8.163-14.317-19.054-17.017-30.197-1.3683-5.6468-1.6272-8.083-1.6272-15.313 0-7.0214 0.23815-9.3909 1.4891-14.816 1.5009-6.5093 5.125-14.913 8.8431-20.505 6.4816-9.7486 15.048-17.295 25.386-22.361 4.6165-2.2627 7.9705-3.5019 12.562-4.6415 4.9795-1.2359 8.3856-1.7019 13.764-1.883 18.366-0.61841 35.503 6.3114 48.287 19.526 9.6743 10.001 15.686 22.534 17.626 36.744 0.44222 3.24 0.44222 12.635 0 15.875-2.0246 14.834-8.6058 28.044-18.986 38.109-10.651 10.328-24.006 16.533-38.687 17.977-3.199 0.31468-9.5212 0.29875-12.738-0.0321zm14.994-4.3294c7.869-1.1358 16.619-4.2819 23.082-8.2996 5.4377-3.3802 11.247-8.4986 15.143-13.342 2.225-2.7661 4.0837-5.4211 3.9045-5.577-0.39799-0.34614-4.3814-2.5438-4.5986-2.537-0.14857 5e-3 -1.6988 2.518-3.4451 5.5852-1.7462 3.0673-3.3233 5.6359-3.5045 5.708-0.18126 0.0721-2.1958-0.58975-4.4768-1.4708l-4.1473-1.6018-0.94705 0.74633c-2.0202 1.592-5.7255 3.8316-8.5635 5.1759-3.7349 1.7692-6.9961 2.8593-11.261 3.7642-3.0474 0.64655-3.8796 0.71132-9.2999 0.72376-6.2429 0.0143-7.7047-0.14317-12.565-1.3538-5.1836-1.2911-11.456-4.1988-15.854-7.3488-1.8814-1.3478-2.4694-1.6452-2.9104-1.4724-0.30393 0.11912-2.2475 0.86681-4.319 1.6615l-3.7664 1.4449-3.3354-5.7853c-1.8345-3.1819-3.4616-5.7853-3.6158-5.7853-0.22324 0-4.2768 2.2053-4.6638 2.5373-0.05393 0.0463 0.46071 0.86718 1.1437 1.8242 8.7236 12.225 20.6 20.479 34.648 24.079 3.1907 0.81777 7.5047 1.5397 10.872 1.8194 2.457 0.20409 9.596-0.0795 12.48-0.49584zm-0.5491-14.688c6.2931-1.0758 13.548-4.1035 18.363-7.6638 1.3824-1.0221 2.7758-2.0466 3.0965-2.2768 0.54895-0.39403 0.80909-0.33137 4.4605 1.0744 2.1327 0.82104 3.9082 1.4562 3.9456 1.4114 0.0374-0.0448 1.2692-2.1625 2.7372-4.7061l2.6692-4.6247-1.1124-0.68392c-0.61184-0.37616-1.7919-1.069-2.6223-1.5397l-1.5099-0.85577-0.62841 1.005c-0.34562 0.55277-0.74796 1.2232-0.89408 1.4899-0.22722 0.41469-8.811-10.724-8.811-10.724s13.443 1.774 13.632 1.9629c0.0931 0.0931-0.16638 0.76626-0.57657 1.496s-0.68961 1.3818-0.62094 1.4491c0.26757 0.26231 4.8088 2.8172 5.0074 2.8172 0.11588 0 1.2539-1.8157 2.529-4.0348 1.2751-2.2192 2.6018-4.5253 2.9482-5.1247l0.62991-1.0898-3.1862-2.584c-2.2134-1.795-3.1488-2.7144-3.0636-3.0112 0.8813-3.0698 1.0457-11.305 0.31484-15.773-1.9487-11.913-8.5162-22.618-18.416-30.016-2.502-1.8699-8.6981-5.2215-10.838-5.8627-0.61777-0.18509-1.1613-0.46279-1.2078-0.61712-0.0465-0.15432-0.34954-2.0367-0.67339-4.1832l-0.58882-3.9026h-11.563v6.0612l3.4132 0.1564-5.2528 13.052s-4.4355-10.62-5.1884-12.708c-0.14002-0.38833 0.0669-0.46063 1.5147-0.52916l1.6769-0.0794v-5.8208l-5.7546-0.07131c-3.165-0.03922-5.7577 0.02031-5.7614 0.13229-0.0337 1.0095-1.2902 7.8198-1.4741 7.9894-0.13139 0.12118-1.4929 0.74691-3.0256 1.3905-9.6072 4.0341-17.992 11.93-22.778 21.448-3.946 7.8482-5.6776 16.954-4.7423 24.938 0.13638 1.1642 0.31921 2.7715 0.40629 3.5718l0.15833 1.4552-3.039 2.3812c-1.6715 1.3097-3.0458 2.4869-3.0541 2.616-0.01817 0.28271 5.2122 9.3987 5.693 9.9222 0.28449 0.30978 0.68359 0.16752 2.5402-0.90546 3.1075-1.7959 2.9454-1.5498 2.0361-3.092-0.52594-0.89201-0.69518-1.4056-0.5024-1.5248 0.15989-0.0988 13.624-1.909 13.624-1.909l-8.6508 11.211-0.79805-1.412c-0.43893-0.77663-0.82964-1.4494-0.86826-1.4949-0.10268-0.12121-4.8697 2.6184-5.0424 2.8978-0.08053 0.13031 1.0663 2.3258 2.5486 4.879 2.1134 3.6404 2.7883 4.6071 3.1273 4.48 0.23776-0.0891 1.9994-0.76766 3.9147-1.5078l3.4824-1.3457 2.4707 1.842c5.7273 4.2698 11.316 6.8204 18.152 8.284 5.3729 1.1504 11.41 1.2421 17.152 0.26051zm-13.519-13.118c-11.655-2.0645-21.35-10.415-25.094-21.615-1.7097-5.1141-2.0872-11.573-0.98514-16.856 2.9237-14.017 14.762-24.508 28.94-25.648 12.633-1.0155 24.216 4.9429 30.656 15.769 4.4315 7.4503 5.6484 16.996 3.2418 25.431-1.3684 4.7957-4.1125 9.5536-7.6494 13.263-4.904 5.1429-11.113 8.4736-18.052 9.6837-2.8022 0.48867-8.2178 0.47504-11.057-0.0278zm-44.617-4.1593 2.4058-1.4068-3.5887-6.1999c-1.9738-3.4099-3.6085-6.2718-3.6328-6.3598-0.02426-0.0879 1.5389-1.4454 3.4738-3.0167 3.2684-2.6542 3.5065-2.9086 3.3573-3.5878-0.35403-1.6119-0.54722-7.2973-0.35639-10.488 0.63098-10.551 4.7118-20.464 11.845-28.774 4.3338-5.0484 10.841-9.8497 16.906-12.474l2.381-1.0301 0.43107-2.7781c0.23708-1.528 0.55825-3.5203 0.7137-4.4274l0.28264-1.6494 14.102-0.14084v-5.5562l-1.7198 0.07917c-3.1365 0.1444-7.7335 0.86824-11.269 1.7745-21.9 5.6128-39.059 23.282-43.856 45.158-1.1268 5.139-1.3625 7.4616-1.3509 13.313 0.01495 7.509 0.8525 12.718 3.1052 19.314 1.1833 3.4647 3.9185 9.6572 4.2656 9.6572 0.05428 0 1.1813-0.63305 2.5045-1.4068zm104.37-1.1947c4.2004-8.9299 6.0512-17.036 6.0512-26.502 0-16.644-6.5274-31.935-18.55-43.455-10.393-9.9594-23.068-15.544-37.923-16.709l-1.7859-0.14008v5.8008h14.221l0.43842 2.8442c0.24113 1.5643 0.56279 3.5702 0.71478 4.4575l0.27636 1.6133 1.5012 0.60274c5.3247 2.1379 10.488 5.6722 15.268 10.45 4.189 4.1876 6.4645 7.2265 8.839 11.804 4.2337 8.1618 5.773 15.005 5.4703 24.319-0.0875 2.6921-0.22085 5.2519-0.29637 5.6885-0.12797 0.73973 0.0294 0.92426 2.3131 2.7122 1.3477 1.0551 2.9115 2.3102 3.4751 2.7891l1.0247 0.8707-3.4841 6.0181c-1.9163 3.3099-3.5456 6.1783-3.6208 6.3742-0.0896 0.2335 0.66634 0.82018 2.1949 1.7034 1.2824 0.74099 2.4029 1.3502 2.4901 1.3537 0.0872 4e-3 0.70917-1.1642 1.3822-2.595z" stroke-width=".26458"/>
   <circle cx="116.7" cy="142.86" r="27.959" fill="#fff" fill-rule="evenodd" stop-color="#000000" style="paint-order:stroke fill markers"/>
  </g>
 </a>
</svg>
