<?xml version="1.0" encoding="UTF-8"?>
<!-- Created with Inkscape (http://www.inkscape.org/) -->
<svg width="79.375mm" height="73.622mm" version="1.1" viewBox="0 0 79.375 73.622" xmlns="http://www.w3.org/2000/svg">
 <g transform="translate(-54.406 -79.119)">
  <path d="m91.014 151.14c-4.8874-0.50842-10.39-2.5807-14.95-5.6302-1.1164-0.74661-2.1699-1.353-2.3411-1.3475-0.17124 5e-3 -1.7822 0.43337-3.58 0.95087-3.2251 0.92837-3.2731 0.93554-3.5998 0.53819-0.45826-0.55737-9.9997-17.132-9.9997-17.371 0-0.10619 1.1837-1.3334 2.6305-2.7273l2.6305-2.5342-0.19718-1.4256c-0.2897-2.0944-0.04952-7.1938 0.44927-9.5386 2.1394-10.057 8.9366-18.639 18.138-22.9l1.6597-0.76858 1.8181-7.2916h20.609l1.8705 7.257 2.4548 1.2307c8.8454 4.4343 15.212 12.706 17.298 22.472 0.49431 2.3144 0.74674 7.8684 0.44223 9.7295l-0.19755 1.2073 2.6333 2.5513c1.4483 1.4032 2.6333 2.6366 2.6333 2.7409 0 0.2364-9.5456 16.815-9.9997 17.368-0.32671 0.39735-0.37468 0.39018-3.5998-0.53819-1.7978-0.5175-3.4088-0.9486-3.58-0.95801-0.17124-9e-3 -1.0478 0.49276-1.9479 1.1159-4.619 3.1977-10.33 5.3277-15.736 5.8697-2.4751 0.24807-3.1484 0.24799-5.539-6.2e-4z" fill="#fff" stroke-width=".20457"/>
  <path d="m88.848 152.5c-5.0463-0.83408-9.8021-2.7073-13.928-5.4859-0.99681-0.67131-1.9309-1.2206-2.0758-1.2206-0.14489 0-1.73 0.42097-3.5225 0.9355-1.7925 0.51452-3.34 0.90809-3.4389 0.87459-0.0989-0.0336-2.7215-4.4596-5.828-9.8357l-5.6482-9.7748 5.3791-5.1446 0.0387-4.3215c0.0318-3.5527 0.11999-4.7168 0.49571-6.5438 1.0956-5.3277 3.3093-10.22 6.5833-14.549 1.3339-1.7637 4.4727-4.8354 6.5107-6.3714 1.9417-1.4634 4.8763-3.2295 6.4085-3.8568 0.68804-0.2817 0.94356-0.51672 1.0732-0.98709 0.0935-0.33954 0.529-2.0759 0.96767-3.8585l0.79757-3.2411h22.869l0.79758 3.2411c0.43866 1.7826 0.87412 3.5189 0.96767 3.8585 0.12958 0.47037 0.38509 0.70539 1.0732 0.98709 4.5717 1.8717 10.539 6.8439 13.889 11.573 1.5668 2.2118 3.6999 6.4781 4.5442 9.0887 1.2068 3.7318 1.5249 5.9039 1.5604 10.656l0.0323 4.3177 5.3874 5.1522-5.628 9.7418c-3.0954 5.358-5.6757 9.7895-5.734 9.8478-0.0583 0.0583-1.6256-0.3204-3.4828-0.84157-1.8573-0.52119-3.48-0.9476-3.606-0.9476s-0.98287 0.51319-1.904 1.1404c-3.4963 2.3807-8.0761 4.3162-12.459 5.2654-2.5793 0.55857-9.5179 0.73071-12.12 0.30067zm11.234-2.1497c4.0498-0.93643 8.5924-2.9168 12.202-5.3195l2.0338-1.3539 3.3703 0.97181c1.8537 0.5345 3.4702 0.93853 3.5922 0.89786 0.12203-0.0407 2.4791-3.9606 5.238-8.7108l5.0161-8.6368-5.3838-5.2096 0.2586-1.8196c0.50631-3.5627-0.0872-8.7831-1.4701-12.932-2.7633-8.2898-8.9048-15.257-16.795-19.053-1.7496-0.84174-2.1298-1.1085-2.2484-1.5779-0.0785-0.31071-0.47956-1.9077-0.89114-3.5488l-0.74832-2.9839h-20.324l-1.7972 7.2077-0.96514 0.38246c-3.9819 1.578-9.0546 5.4029-12.177 9.1813-5.3128 6.43-8.1119 15.36-7.2187 23.031l0.24962 2.1437-5.3675 5.1788 5.0134 8.6359c2.7573 4.7498 5.1127 8.669 5.2342 8.7095 0.12143 0.0404 1.7479-0.36178 3.6144-0.89392l3.3936-0.96752 1.8964 1.262c4.4194 2.9411 9.0216 4.8477 13.759 5.7 2.2621 0.40699 8.1986 0.24061 10.513-0.29463zm-14.115-8.0521c-0.59967-0.25478-2.5106-0.82621-2.763-0.82621-0.32421 0-0.97718-0.55096-2.7612-2.3299-0.88785-0.88532-1.6682-1.5557-1.7342-1.4898-0.066 0.0659 0.12803 0.37863 0.43104 0.6949 0.75479 0.78783 0.71812 1.2373-0.0508 0.62223-0.33092-0.26472-0.97835-0.75313-1.4388-1.0854-0.46039-0.33224-0.8904-0.7721-0.95559-0.97748-0.0652-0.20539-0.19104-0.37342-0.27968-0.37342-0.27483 0-1.4545-2.055-1.6352-2.8483-0.0943-0.41409-0.37031-1.077-0.61341-1.4731-0.41657-0.67884-0.44198-0.69067-0.44198-0.20579 0 0.28296 0.18969 0.8256 0.42153 1.2059 0.76267 1.251 0.3411 1.3976-0.47657 0.16573-0.89042-1.3414-1.7144-3.6946-1.9842-5.6664-0.10263-0.75038-0.338-1.7347-0.52295-2.1875l-0.33628-0.82314 0.0847 0.96937c0.0466 0.53316 0.0347 1.0193-0.0263 1.0804-0.061 0.061-0.32353-0.49671-0.58327-1.2395-0.53305-1.5243-0.69572-4.3319-0.44638-7.7041 0.14077-1.9037 0.13807-1.9216-0.10284-0.68305-0.13609 0.69955-0.31239 1.3356-0.39176 1.4133-0.25677 0.25161-0.47323-0.99776-0.46524-2.6852 7e-3 -1.4957 0.0683-1.7404 0.66861-2.6752 0.9219-1.4354 1.3123-2.3339 1.2387-2.8506-0.0495-0.3477-0.16198-0.23349-0.52708 0.5355-0.25523 0.53762-0.49161 0.97749-0.5253 0.97749-0.0336 0-8e-5 -0.48617 0.0746-1.0804 0.14858-1.1812 1.0836-3.7694 1.5485-4.2862 0.16072-0.17868 0.29221-0.42466 0.29221-0.54663s0.6595-0.83235 1.4655-1.5786c0.80606-0.74627 1.3921-1.3569 1.3024-1.3569-0.0898 0-0.30939 0.13169-0.48807 0.29265-0.17869 0.16095-0.60269 0.36152-0.94224 0.44571-0.58356 0.14467-0.60046 0.13184-0.30868-0.23454 0.54111-0.67945 1.3158-1.326 2.0716-1.7288 0.4037-0.21517 0.84747-0.52792 0.98613-0.695 0.21924-0.26417 0.14008-0.27862-0.60683-0.1108-0.73599 0.16536-1.2738 0.11649-0.99327-0.0903 0.15942-0.1175 2.9757-1.1715 3.1302-1.1715 0.0843 0 0.52007-0.2315 0.96829-0.51446 0.44824-0.28295 0.95571-0.51446 1.1277-0.51446 0.17202 0 0.31276-0.10315 0.31276-0.22914 0-0.2236-0.50432-0.18546-1.6463 0.12453l-0.51445 0.13965 0.51445-0.43563c0.92867-0.78637 1.7252-1.1052 3.4615-1.3854 1.7956-0.28981 3.3446-0.9024 2.6539-1.0496-0.20174-0.043-0.6932 0.1144-1.0921 0.34976-1.0445 0.61625-1.4223 0.5464-0.7463-0.13796 0.92154-0.93297 1.6354-1.1545 4.1111-1.2756 1.3897-0.068 2.2959-0.19579 2.2636-0.3192-0.0296-0.11318-0.37826-0.17893-0.77488-0.14611-0.39661 0.0328-0.88934-0.0633-1.095-0.21369-0.33054-0.24169-0.19549-0.30505 1.166-0.54696 1.2156-0.21599 1.8287-0.22331 2.9115-0.0347 1.5705 0.27348 2.327 0.15256 1.9427-0.31051-0.13301-0.16026-0.57775-0.29264-0.98832-0.29419-0.91524-3e-3 -1.6725-0.19353-1.6725-0.41982 0-0.0928 0.31234-0.11815 0.69408-0.0562 0.40638 0.066 0.75262 0.018 0.83529-0.11583 0.26687-0.43181 3.181-0.27063 4.6956 0.2597 0.76398 0.26751 1.389 0.46362 1.389 0.43581 0-0.56072-1.4279-2.5871-2.7658-3.925-0.17653-0.17652-0.32095-0.4882-0.32095-0.69262 0-0.20442-0.1389-0.48696-0.30868-0.62785-0.16977-0.1409-0.30868-0.36708-0.30868-0.50262 0-0.13554-0.33168-0.63394-0.73708-1.1076-1.1574-1.3522-0.7157-1.4427 0.5097-0.10441 1.7233 1.882 1.8737 2.067 1.8737 2.3056 0 0.12337 0.20835 0.27912 0.46301 0.34613 0.25465 0.06699 0.72493 0.53178 1.045 1.0328 0.35747 0.55953 0.7346 0.91103 0.97748 0.91103 0.21749 0 0.3966 0.0695 0.39801 0.15433 4e-3 0.24752 1.6059 1.9035 1.8412 1.9035 0.35635 0 0.24287-0.65323-0.32124-1.8491-0.2944-0.62412-0.68307-1.4589-0.86371-1.855-0.18063-0.39614-0.36193-0.7897-0.40289-0.87458-0.22562-0.46766 0.1788-0.03554 0.67398 0.72025 0.31518 0.48102 0.69791 0.94864 0.85049 1.0391 0.15258 0.09051 0.27742 0.28273 0.27742 0.42714s0.2315 0.48007 0.51446 0.74589c0.28295 0.26583 0.51447 0.64566 0.51447 0.84408 0 0.19842 0.2315 0.54287 0.51445 0.76544 0.28296 0.22257 0.51446 0.4656 0.51446 0.54006 0 0.22973 4.1963 4.3461 4.5787 4.4915 0.25021 0.0951 0.36012 0.36126 0.36012 0.87205 0 0.8003 1.0781 3.0836 1.5396 3.2606 0.15476 0.0594 0.43093 0.42314 0.61373 0.80835 0.18279 0.3852 1.1067 1.487 2.0531 2.4484l1.7208 1.7481 6e-3 1.6239c9e-3 2.2643-0.36929 2.6345-1.5706 1.5372-0.3672-0.3354-0.98636-0.76105-1.3759-0.9459-0.38953-0.18484-0.76523-0.51562-0.83488-0.73507-0.17208-0.54214-2.2846-2.6481-2.6563-2.6481-0.16417 0-0.37533-0.1373-0.46925-0.30511-0.15701-0.28057-2.407-1.7443-2.7042-1.7592-0.19186-9e-3 -1.2612-0.97979-1.2612-1.1442 0-0.27527-0.7271-0.68845-1.2347-0.70166-0.28294-7e-3 -0.88486-0.28819-1.3376-0.6241-1.4232-1.0559-2.455-1.4466-3.8851-1.471-1.2903-0.022-1.3462-4.2e-4 -2.2941 0.88207-0.92113 0.85759-1.7265 1.9376-2.0008 2.6832-0.20367 0.55359 0.61592 1.9351 1.3978 2.3562 0.39269 0.21147 0.76606 0.54862 0.82973 0.74921 0.0702 0.22129 0.47538 0.45526 1.0303 0.59499 0.66594 0.16768 1.086 0.44675 1.5452 1.0266 0.34686 0.43796 0.88986 0.86654 1.2066 0.95239l0.57596 0.15611-0.95198 1.2816c-0.52359 0.7049-1.0677 1.2837-1.2092 1.2862-0.33408 6e-3 -0.3164-0.20864 0.058-0.70362 0.50511-0.66781 0.37524-1.2831-0.34684-1.6433-0.69631-0.34738-1.2931-0.43013-1.1236-0.15581 0.24971 0.40405-0.83756 2.5073-1.2962 2.5073-0.0681 0-0.0908-0.41607-0.0504-0.92459 0.06-0.75363 3e-3 -0.94966-0.30719-1.0602-0.20941-0.0746-0.53508-0.26782-0.72373-0.42942-0.26509-0.22705-0.44039-0.24169-0.77169-0.0644-0.48707 0.26067-0.53288 0.58426-0.18949 1.338 0.13157 0.28876 0.19746 0.56679 0.14641 0.61783-0.051 0.051-0.58261-0.1416-1.1812-0.42811-0.77783-0.37225-1.0545-0.60933-0.96954-0.83075 0.0654-0.17041 0.1189-0.38372 0.1189-0.47399 0-0.0903 0.36294-0.53813 0.80654-0.99523 0.78821-0.8122 0.79756-0.83919 0.41157-1.1885-0.27377-0.24775-0.39498-0.63128-0.39498-1.2498 0-0.66953-0.10273-0.95659-0.41157-1.1494-0.22635-0.14137-0.41156-0.36595-0.41156-0.49905 0-0.13311-0.24516-0.42059-0.54478-0.63885-0.70068-0.51041-0.54692-1.3082 0.35438-1.8387 0.63766-0.37535 1.4251-1.4346 1.4251-1.917 0-0.40183-2.7487-0.12108-4.1157 0.42036-1.9586 0.77581-3.9933 1.6997-4.5273 2.0558-0.28295 0.18867-0.93117 0.61217-1.4405 0.94113-1.1245 0.72627-2.2637 1.7886-2.2637 2.1108 0 0.13004-0.083 0.23644-0.18433 0.23644-0.24834 0-1.7447 2.3344-2.5063 3.9099-0.93888 1.9423-1.2784 3.1214-1.8665 6.4822-0.57472 3.2845 0.78045 9.5829 2.5478 11.841 0.52206 0.66715 0.63708 0.71356 1.8489 0.74604 2.3068 0.0618 4.0928-0.16093 4.2274-0.52725 0.0668-0.18178 0.21832-0.39503 0.33666-0.47387 0.11834-0.0788 0.24513-0.49556 0.28175-0.92603 0.0366-0.43047 0.12106-1.3383 0.18765-2.0174 0.0666-0.67909 0.14993-1.7903 0.18521-2.4694 0.0353-0.6791 0.0691-1.2941 0.0752-1.3667 0.0145-0.17301 1.5721-0.79404 1.9915-0.79404 0.23608 0 0.14349 0.20768-0.33619 0.75399-0.59784 0.68091-0.64977 0.84329-0.53577 1.675 0.0694 0.50655 0.12765 1.0701 0.12939 1.2524 3e-3 0.28912 0.0286 0.29203 0.20263 0.0227 0.10971-0.16977 0.2009-0.552 0.20264-0.84939 4e-3 -0.6595 0.37377-0.99037 1.3546-1.2116l0.74576-0.16819-0.48218 0.51326c-0.37114 0.39505-0.47413 0.72143-0.44721 1.4171 0.0448 1.1576 0.1334 1.283 1.0248 1.4502 0.65919 0.12367 0.79142 0.0698 1.2424-0.50649 0.61769-0.78925 0.95054-0.84026 0.67012-0.10273-0.11338 0.29819-0.18054 0.87406-0.14924 1.2797 0.0517 0.66993 4e-4 0.75002-0.56046 0.87396-0.33955 0.075-1.0501 0.14741-1.579 0.1608-1.3999 0.0354-2.2079 0.90193-2.8558 3.0626-0.14473 0.48264-0.36364 0.95677-0.48646 1.0536-0.12283 0.0969-0.82525 0.22549-1.5609 0.28591-1.3222 0.10858-2.6752 0.61159-2.6752 0.99457 0 0.23942 1.3588 1.6243 1.5937 1.6243 0.0918 0 0.31786 0.17631 0.50237 0.39179 0.1845 0.21549 0.78385 0.64403 1.3319 0.95232 0.54804 0.3083 1.2279 0.71269 1.5109 0.89865 0.83935 0.55165 3.6914 1.5929 5.3774 1.9632 3.2205 0.70735 4.993 0.65459 9.4724-0.28198 0.89241-0.18659 2.3994-0.77126 3.3622-1.3045 0.22637-0.12536 0.7952-0.43402 1.2641-0.68591 1.301-0.69893 2.5429-1.5561 2.5429-1.7551 0-0.0981 0.10656-0.17844 0.23679-0.17844 0.30384 0 2.4384-2.1967 2.4384-2.5094 0-0.12996-0.12244-0.38248-0.27211-0.56117-0.14966-0.17868-0.39316-0.74159-0.54112-1.2509-0.56725-1.9527-0.89455-2.6756-1.2211-2.697-1.4607-0.0959-4.6173 0.043-4.9433 0.21743-0.22193 0.11877-0.50424 0.21595-0.62736 0.21595-0.36684 0-1.4495-1.8855-1.4495-2.5244v-0.59172l0.7119 0.75484c0.73147 0.77559 1.058 0.83426 1.423 0.25568 0.20893-0.33123 0.0934-0.69603-0.53858-1.7015-0.36746-0.58454-0.59198-0.71352-1.2484-0.71709-0.79554-4e-3 -0.51031-0.35515 0.51273-0.63062 0.82286-0.22158 0.86137-0.20846 1.5862 0.54013l0.7428 0.76722 0.068-0.69593c0.0549-0.5617-0.0443-0.78587-0.51445-1.1621-0.32037-0.25636-0.7037-0.46658-0.85186-0.46714-0.14815-6.2e-4 -0.21864-0.0831-0.15661-0.18348 0.17973-0.29081 1.3985-0.44585 2.0723-0.26361 0.49783 0.13467 0.62229 0.28366 0.64287 0.76955 0.0326 0.77134 0.25909 2.1463 0.38772 2.3544 0.0546 0.0882 0.48373 0.36089 0.95374 0.60588 0.6887 0.35897 1.1558 0.43663 2.4065 0.40011 1.7522-0.0511 1.7564-0.0476 1.9877 1.7148 0.13444 1.0241 0.78394 1.7694 1.2214 1.4014 0.69188-0.5819 1.8552-3.847 2.1859-6.135 0.31401-2.1728 0.63905-2.3821 0.84714-0.54563 0.12701 1.1209-0.0107 2.3336-0.3718 3.2747-0.10012 0.26081-0.0704 0.33147 0.096 0.22865 0.13241-0.0818 0.24075-0.32854 0.24075-0.54822 0-0.21969 0.0926-0.39943 0.20579-0.39943 0.11317 0 0.20578-0.15434 0.20578-0.34297 0-0.18864 0.0528-0.29019 0.1173-0.22567 0.16084 0.16084-0.65607 2.7534-1.0406 3.3023-0.48991 0.69944-0.4066 1.1192 0.12747 0.6422 0.43696-0.39026 0.43822-0.38972 0.28449 0.12244-0.085 0.28295-0.46928 1.0932-0.85408 1.8006-0.72543 1.3335-0.64582 1.7928 0.107 0.61735 0.23557-0.36783 0.42987-0.59401 0.43177-0.50261 4e-3 0.20012-0.96497 1.972-1.316 2.4061-0.1373 0.16977-0.40621 0.56056-0.59758 0.8684-0.29029 0.46697-0.29669 0.54004-0.0386 0.44099 0.66933-0.25684 0.24352 0.34024-1.1311 1.5861-0.79228 0.71807-1.4405 1.3832-1.4405 1.478 0 0.0948 0.34726 0.11061 0.77169 0.035l0.7717-0.13736-0.45442 0.43672c-0.24992 0.24019-0.59719 0.4367-0.77169 0.4367-0.17451 0-0.31728 0.0716-0.31728 0.159 0 0.19333-1.0462 0.71589-2.151 1.0744-0.44741 0.14517-1.0956 0.44017-1.4405 0.65555l-0.62704 0.39159 2.646-0.28418-0.49985 0.52424c-0.61818 0.64833-2.8102 1.1773-4.9648 1.198-1.5809 0.0152-2.9236 0.33306-1.7086 0.40444 0.33955 0.02 0.87201 0.0196 1.1833-1e-3 0.31125-0.0205 0.56591 0.059 0.56591 0.17673 0 0.60559-1.6876 0.81547-3.6246 0.45079-0.69496-0.13083-1.3529-0.11063-2.1302 0.0654l-1.1246 0.2547 1.285 0.27269c0.70675 0.14998 1.334 0.35206 1.394 0.44908 0.06 0.097-0.77849 0.17639-1.8632 0.17639-1.5093 0-2.2488-0.10315-3.1504-0.43958-1.2483-0.46578-2.9424-0.75849-2.653-0.45838 0.0943 0.0977 0.55729 0.33459 1.0289 0.52633l0.85751 0.34863-1.6257 0.0115c-1.3109 9e-3 -1.8289-0.0852-2.6752-0.48755-3.2383-1.5399-4.098-1.7147-2.6296-0.53465 1.1042 0.88739 1.1682 1.268 0.13961 0.83099zm6.2603-21.049c-1.5182-1.0231-2.0562-2.847-1.3433-4.5533 0.96412-2.3075 4.4715-2.6465 6.0445-0.58421 0.79434 1.0414 0.8983 2.9491 0.21548 3.9542-0.78896 1.1614-1.6932 1.6512-3.0485 1.6512-0.8802 0-1.3475-0.11705-1.8682-0.46791zm22.666 0.36502c0-0.11319 0.13596-0.38554 0.30212-0.60525 0.16618-0.21969 0.30214-0.30685 0.30214-0.19366 0 0.11318-0.13596 0.38554-0.30214 0.60524-0.16616 0.21969-0.30212 0.30684-0.30212 0.19367z" stroke-width=".20578"/>
 </g>
</svg>
