<?xml version="1.0" encoding="UTF-8"?>
<!-- Created with Inkscape (http://www.inkscape.org/) -->
<svg width="133.1mm" height="123.45mm" version="1.1" viewBox="0 0 133.1 123.45" xmlns="http://www.w3.org/2000/svg">
 <title>template-site-UA</title>
 <g transform="matrix(1.7055 0 0 1.7055 -112.55 -13.197)">
  <path d="m95.054 9.3885h19.917l1.8089 7.2395c12.007 4.7552 20.413 16.56 20.198 30.234-0.0191 1.2139-0.43745 3.9028-0.43745 3.9028l5.2537 5.0833-9.9587 17.249-7.0255-2.0079c-5.5104 4.2111-12.826 7.3537-20.299 7.2361-7.1122-0.11192-14.039-3.2295-19.287-7.2411l-7.0332 2.0139-9.9587-17.249 5.2537-5.0892c-0.19152-1.5007-0.46224-3.3438-0.43774-4.9006 0.20957-13.321 8.5384-24.605 20.198-29.226z" fill="#06c"/>
  <path d="m103.44 46.964 29.356-16.949c3.8934 5.9426 4.6317 13.047 3.7489 20.75l5.2537 5.0833-9.9587 17.249-7.0255-2.0079c-17.794 12.368-28.976 6.9488-39.586-5e-3l-7.0332 2.0139-5.1962-8.5587z" fill="#fc0"/>
 </g>
 <path d="m77.83 119.67c7.1417-1.6596 14.593-4.8955 19.679-8.5463 1.5592-1.1191 3.1908-2.0348 3.6259-2.0348 0.43506 0 2.9975 0.64189 5.6943 1.4264s5.1845 1.4786 5.5281 1.5425c0.48007 0.0893 2.5543-3.2049 8.954-14.22l8.3292-14.336-9.0199-8.8792 0.36648-4.1804c1.9399-22.129-10.548-43.678-31.041-53.562l-3.6857-1.7778-1.1772-4.9125c-0.64749-2.7019-1.3345-5.4819-1.5266-6.1778l-0.34937-1.2653h-33.323l-0.34935 1.2653c-0.19215 0.6959-0.87913 3.4759-1.5266 6.1778l-1.1772 4.9125-3.6857 1.7778c-20.493 9.8846-32.981 31.433-31.041 53.562l0.36647 4.1804-9.0199 8.8792 8.3292 14.336c6.3998 11.015 8.474 14.309 8.954 14.22 0.34364-0.064 2.8313-0.75802 5.5281-1.5425 2.6968-0.78449 5.2593-1.4264 5.6943-1.4264 0.43506 0 1.996 0.86457 3.4688 1.9213 6.2858 4.5099 15.097 8.0272 23.325 9.3111 3.7364 0.58303 15.495 0.18165 19.079-0.65125z" fill="none" stroke="#000" stroke-width="5.5076" style="paint-order:stroke fill markers"/>
</svg>
