<?xml version="1.0" encoding="UTF-8"?>
<svg width="79.375mm" height="78.078mm" version="1.1" viewBox="0 0 79.375 78.078" xmlns="http://www.w3.org/2000/svg">
 <g transform="translate(-167.63 -120.75)">
  <g transform="matrix(42.12 0 0 42.12 -6893.2 -4965.2)">
   <path d="m167.85 122.33-0.16537-0.28919 0.19677-0.19674c-0.0419-0.35548 0.11845-0.61328 0.45684-0.78514l0.0725-0.2704h0.33181l0.0725 0.27037c0.28006 0.15572 0.54826 0.32126 0.45593 0.78517l0.19745 0.19748-0.1653 0.28866-0.27013-0.0724c-0.29779 0.24671-0.60195 0.25151-0.91287 0z" fill="#fbffff" stroke="#000" stroke-width=".03148"/>
   <path d="m168.58 121.24a0.47104 0.47104 0 0 0-0.47019 0.47104 0.47104 0.47104 0 0 0 0.47105 0.47105 0.47104 0.47104 0 0 0 0.47104-0.47105 0.47104 0.47104 0 0 0-0.47104-0.47104 0.47104 0.47104 0 0 0-9.4e-4 0zm8.5e-4 0.0891a0.38199 0.38199 0 0 1 5e-5 0 0.38199 0.38199 0 0 1 0.38198 0.38198 0.38199 0.38199 0 0 1-0.38198 0.382 0.38199 0.38199 0 0 1-0.38199-0.382 0.38199 0.38199 0 0 1 0.38192-0.38198z" fill="#121212" fill-rule="evenodd" stroke="#121212" stroke-miterlimit="3.4286" stroke-width=".0032697"/>
   <g fill="#fff" stroke="#121212" stroke-miterlimit="3.8857" stroke-width=".080796">
    <path d="m168.38 120.91c-0.37708 0.0911-0.64277 0.4285-0.64278 0.81643 1e-5 0.0792 0.0112 0.15794 0.0333 0.23397l0.11145-0.11142c-8e-3 -0.0419-9e-3 -0.0799-9e-3 -0.12255 1e-5 -0.297 0.18638-0.56206 0.46584-0.66259zm0.39428 0 0.0412 0.15381c0.27947 0.10053 0.46584 0.3656 0.46584 0.66262-1e-5 0.0418-3e-3 0.0814-0.01 0.12255l0.11214 0.11215c0.0222-0.0762 0.0335-0.15528 0.0335-0.2347-1e-5 -0.38793-0.26569-0.72538-0.64278-0.81643zm-0.65369 1.3526-0.1535 0.0411c0.15863 0.16765 0.37925 0.26265 0.61006 0.26267 0.23071-2e-5 0.45126-0.0949 0.60988-0.26247l-0.15357-0.0411c-0.12735 0.10835-0.2891 0.16786-0.45631 0.16786-0.16732 0-0.32917-0.0596-0.45656-0.16806z" fill-rule="evenodd" stroke-linecap="square" style="paint-order:fill markers stroke"/>
    <g>
     <path d="m168.38 120.91 0.0312-0.11656h0.33181l0.0312 0.11656" image-rendering="optimizeSpeed"/>
     <path d="m169.38 121.96 0.0853 0.0853-0.1653 0.28866-0.11656-0.0312" image-rendering="optimizeSpeed"/>
     <path d="m167.97 122.3-0.11656 0.0312-0.16537-0.28919 0.0853-0.0853" image-rendering="optimizeSpeed"/>
    </g>
   </g>
  </g>
 </g>
</svg>
