<?xml version="1.0" encoding="UTF-8"?>
<svg width="123.8mm" height="124.02mm" version="1.1" viewBox="0 0 123.8 124.02" xmlns="http://www.w3.org/2000/svg">
 <title>template-area-PL</title>
 <g transform="translate(236.53 -9.7137)">
  <g>
   <text x="-209.61075" y="93.203674" fill="#ffffff" font-family="Arial" font-size="41.987px" letter-spacing="0px" stroke="#000000" stroke-width="2.2493" word-spacing="0px" style="font-feature-settings:normal;font-variant-caps:normal;font-variant-ligatures:normal;font-variant-numeric:normal;line-height:1.25" xml:space="preserve"><tspan x="-209.61075" y="93.203674" fill="#ffffff" font-family="Arial" font-weight="900" stroke="#000000" stroke-width="2.2493">OO</tspan></text>
   <path d="m-187.74 123.14-0.8489-0.0671-0.34181-1.1129c-0.188-0.61208-0.73546-2.7532-1.2166-4.758l-0.87476-3.6451-2.2451-1.1817c-7.7083-4.0574-12.046-7.5977-16.644-13.585-1.6654-2.1684-2.9918-4.2661-4.9091-7.7634-0.81082-1.479-1.498-2.7146-1.5271-2.7458-0.0291-0.03117-1.6314-0.45278-3.5606-0.9369-4.0821-1.0243-5.5116-1.4945-5.8232-1.9151-0.16473-0.2224-0.2349-1.6448-0.26355-5.3427-0.0532-6.8628 0.0506-21.492 0.15518-21.873 0.11037-0.40299 2.3021-1.035 8.2821-2.3881l1.3038-0.29502 1.3442-2.6537c2.8578-5.642 5.9212-9.7686 9.9678-13.427 3.5736-3.2311 6.8283-5.4641 11.963-8.208l1.9827-1.0595 0.59702-2.4429c1.0525-4.3067 1.729-6.4918 2.1358-6.8985 0.37993-0.37993 0.49556-0.3864 8.1409-0.45583 4.2656-0.03873 10.368-0.01106 13.56 0.06149l5.8045 0.13192 0.43947 1.461c0.24172 0.80355 0.7289 2.6734 1.0826 4.1551s0.72167 2.9863 0.81763 3.3435c0.16353 0.60859 0.3351 0.73348 2.7335 1.9898 3.1265 1.6377 5.2722 2.9573 7.4372 4.5739 6.0722 4.5341 9.8294 9.0523 13.981 16.813l1.227 2.2937 0.91283 0.25547c0.50205 0.1405 2.3582 0.62466 4.1248 1.0759 1.7666 0.45123 3.5166 0.99163 3.889 1.2009l0.67694 0.38046 0.13226 2.626c0.0727 1.4443 0.0911 7.5429 0.0407 13.552-0.0785 9.3674-0.12979 10.965-0.35976 11.195-0.14754 0.14754-2.32 0.77617-4.8277 1.397l-4.5595 1.1287-0.51308 0.96757c-3.9941 7.532-5.8627 10.209-10.084 14.446-3.3686 3.3816-6.8326 5.8792-12.034 8.6763l-2.6941 1.4489-0.97291 3.8801c-0.53509 2.134-1.1521 4.2668-1.371 4.7394-0.3763 0.8122-0.44502 0.86578-1.2524 0.97644-0.87444 0.11985-24.276 0.10647-25.81-0.0148z" fill="#dc143c" style="paint-order:stroke fill markers"/>
   <path d="m-187.64 131.6c-1.7361-0.0614-3.1698-0.12489-3.186-0.14114-0.2106-0.21055-1.7402-6.0861-2.7781-10.671-0.064-0.28281-0.71816-0.71434-2.4975-1.6475-6.7534-3.5419-10.454-6.1279-14.48-10.118-4.3869-4.3484-7.1609-8.1636-10.866-14.944l-1.6767-3.0688-4.5548-1.1711c-5.0922-1.3093-6.2035-1.7123-6.4969-2.3562-0.21286-0.46717-0.29474-29.885-0.0867-31.143 0.0973-0.5884 0.18532-0.67606 0.91872-0.91476 0.94923-0.30895 5.6792-1.5011 8.3586-2.1067 1.0261-0.23192 1.8891-0.4475 1.9177-0.47906 0.0286-0.03156 0.54425-1.0438 1.1459-2.2494 3.1632-6.3389 6.0602-10.483 10.242-14.649 4.683-4.6659 8.5291-7.4597 15.184-11.029 1.3985-0.75018 2.6057-1.4226 2.6826-1.4943 0.0769-0.07168 0.61045-1.9771 1.1856-4.2342 1.1997-4.7081 1.6153-6.0311 2.0879-6.6466l0.33664-0.4384 11.452-0.06074c6.2988-0.03341 13.445-0.0048 15.881 0.06365l4.4283 0.1244 0.43285 1.4269c0.23806 0.7848 0.86734 3.2419 1.3984 5.4602 0.7395 3.089 1.0497 4.1023 1.3249 4.3281 0.19763 0.16216 1.5639 0.91948 3.0362 1.6829 3.373 1.7491 5.7098 3.201 8.4207 5.2317 7.0992 5.318 11.586 10.764 16.421 19.93 0.59842 1.1345 1.2264 2.1368 1.3956 2.2274s1.8894 0.56152 3.8229 1.0467c4.569 1.1464 6.2467 1.685 6.8404 2.1958l0.48367 0.4161-7e-3 14.702c-4e-3 8.0859-0.0687 15.227-0.1437 15.869l-0.13645 1.1671-1.9606 0.54141c-1.0783 0.29778-3.5711 0.92462-5.5395 1.393l-3.5788 0.85156-0.51599 1.0348c-2.9737 5.9638-5.5299 9.9456-8.8779 13.829-4.8935 5.676-10.017 9.621-17.526 13.495-1.5391 0.79399-2.3862 1.3337-2.4798 1.5802-0.0783 0.20584-0.55143 1.9848-1.0515 3.9533-1.1478 4.5185-1.6629 6.1489-2.086 6.603-0.31385 0.33688-0.60609 0.36718-4.592 0.47605-4.9788 0.13599-19.724 0.0973-24.279-0.0638zm26.477-7.732c0.90399-0.25096 1.6823-1.0886 2.152-2.3158 0.20596-0.53821 0.74854-2.4626 1.2057-4.2764l0.83126-3.2978 2.2817-1.2261c2.9771-1.5997 6.9359-4.2429 9.1554-6.1128 4.4953-3.7873 8.6332-9.0534 11.6-14.763l1.2709-2.4456 3.4639-0.84104c1.9051-0.46257 3.9766-1.015 4.6034-1.2275 1.0166-0.3448 1.1869-0.47161 1.5782-1.1756l0.43868-0.78912v-27.655l-0.70145-0.59387c-0.38579-0.32662-1.0461-0.75744-1.4673-0.95736-0.90124-0.42774-7.3217-2.1099-7.6213-1.9968-0.11865 0.0448-0.56924-0.63787-1.0662-1.6153-1.9954-3.9249-4.7036-7.9758-7.2952-10.912-3.4094-3.8628-9.1166-8.181-14.115-10.68-0.77159-0.38571-1.5716-0.84836-1.7779-1.0281-0.2858-0.2491-0.58468-1.1819-1.2566-3.9217-0.89044-3.6308-1.4067-5.2629-1.8616-5.8851-0.24267-0.33193-0.59834-0.34023-14.574-0.34023h-14.325l-0.52011 0.61376c-0.28606 0.33757-0.67001 0.90261-0.85323 1.2556-0.28028 0.54007-1.7666 5.7634-2.1747 7.6421-0.10724 0.49379-0.32237 0.67509-1.6443 1.3858-5.5296 2.9728-9.3461 5.724-13.094 9.4388-3.3444 3.3152-5.6449 6.4793-8.3493 11.484-1.0314 1.9085-1.5318 2.6661-1.8008 2.7262-3.0524 0.68166-7.7204 1.9514-8.2638 2.2479-0.44567 0.24313-0.82933 0.63843-1.0522 1.0841-0.3415 0.68298-0.35072 1.0522-0.35072 14.029v13.327l0.41849 0.8501c0.23271 0.47271 0.66089 0.99932 0.96449 1.1862 0.71404 0.43957 3.1208 1.1964 6.0698 1.9088 1.302 0.31451 2.4613 0.66031 2.576 0.76844 0.11476 0.10813 0.81822 1.3011 1.5632 2.651 1.7158 3.1088 2.5633 4.4345 4.3726 6.8397 4.4954 5.9759 9.4472 10.069 16.74 13.837l1.6658 0.8607 0.98357 3.9708c0.54096 2.1839 1.1199 4.258 1.2865 4.6091 0.34934 0.73617 0.9756 1.2011 1.8509 1.374 1.0837 0.21414 26.311 0.18201 27.091-0.0345z" fill="#dc143c" stroke="#dc143c" stroke-linecap="round" stroke-width="2.6304" style="paint-order:stroke fill markers"/>
  </g>
  <path d="m-224.69 79.414c-0.10054-1.4598-0.0988-6.764 4e-3 -11.787 0.1717-8.4016 0.22463-9.153 0.66129-9.3867 0.26106-0.13971 2.3341-0.71754 4.6068-1.2841 2.2727-0.56651 4.1636-1.0714 4.202-1.1221 0.0384-0.05062 0.69931-1.2827 1.4686-2.7379 2.3327-4.4126 4.6819-7.7123 7.7322-10.861 3.3625-3.471 6.7448-6.0575 11.778-9.0068l3.6534-2.1408 0.73476-2.754c1.3034-4.8854 1.5262-5.5442 2.0538-6.0717 0.50128-0.50128 0.95908-0.51875 13.595-0.51875h13.076l0.26804 0.8599c0.14742 0.47294 0.52306 1.8124 0.83476 2.9766 0.3117 1.1642 0.79317 2.8952 1.0699 3.8466l0.5032 1.73 3.3789 1.9183c4.8619 2.7602 8.0057 5.0816 11.178 8.254 3.1701 3.1702 5.3004 6.0573 8.0288 10.881l1.8992 3.3577 3.5719 0.98673c4.6971 1.2976 5.4708 1.6141 5.6589 2.3152 0.0851 0.31736 0.15638 5.6669 0.15836 11.888l4e-3 11.311h-99.937z" fill="none" style="paint-order:stroke fill markers"/>
  <path d="m-226.12 80.08c-0.10341-1.5232-0.10164-7.0576 4e-3 -12.299 0.17659-8.7664 0.23103-9.5504 0.68013-9.7943 0.26849-0.14578 2.4006-0.74869 4.738-1.3398 2.3374-0.59111 4.2822-1.118 4.3217-1.1708 0.0395-0.05281 0.71923-1.3383 1.5104-2.8567 2.3992-4.6041 4.8152-8.0472 7.9524-11.333 3.4582-3.6217 6.9369-6.3205 12.114-9.3979l3.7574-2.2337 0.75569-2.8736c1.3405-5.0975 1.5697-5.7849 2.1123-6.3354 0.51555-0.52304 0.9864-0.54127 13.982-0.54127h13.449l0.27567 0.89723c0.15162 0.49348 0.53796 1.8911 0.85854 3.1058 0.32058 1.2147 0.81576 3.0209 1.1004 4.0136l0.51754 1.8051 3.4751 2.0016c5.0004 2.8801 8.2337 5.3023 11.496 8.6124 3.2604 3.3078 5.4513 6.3203 8.2575 11.354l1.9532 3.5035 3.6736 1.0296c4.8308 1.3539 5.6266 1.6842 5.82 2.4157 0.0875 0.33114 0.16084 5.913 0.16288 12.404l4e-3 11.802h-102.78z" fill="#fff" style="paint-order:stroke fill markers"/>
  <path d="m-181.7 9.714c-2.699 0.00265-4.8311 0.020024-5.7936 0.056671l-3.7461 0.14241-0.59578 0.69943c-0.9876 1.159-1.4461 2.3773-2.5938 6.8936l-1.0971 4.3162-1.9142 1.0254c-6.656 3.5651-11.125 6.8035-15.78 11.435-4.0514 4.0306-7.4074 8.7973-10.4 14.772-0.66377 1.3253-1.0017 1.8185-1.2933 1.8866-3.2938 0.77008-9.0246 2.247-9.5779 2.4684-0.90577 0.36242-1.7171 1.2739-1.8992 2.1332-0.0771 0.36375-0.14047 7.6452-0.14047 16.181 0 16.745-0.0263 16.255 0.93193 17.394 0.80616 0.95806 2.6929 1.6202 9.1764 3.2215l1.8668 0.46112 1.1034 2.0436c6.7859 12.564 13.777 19.58 25.727 25.819 1.4772 0.77132 2.1796 1.236 2.2325 1.4764 0.59881 2.7257 2.2474 9.0152 2.5439 9.7044 0.48361 1.1242 1.2264 1.6178 2.6931 1.7898 0.58987 0.0691 7.9381 0.11536 16.329 0.10269 17.035-0.0257 15.79 0.0673 16.89-1.2666 0.71631-0.86902 1.1333-2.033 2.1608-6.0338 0.48302-1.8808 0.95348-3.711 1.0453-4.0673 0.15563-0.60398 0.3028-0.71867 2.1772-1.6914 7.142-3.7064 12.862-8.1377 17.579-13.619 3.3558-3.8995 5.3354-6.8361 7.95-11.794l1.4618-2.7716 2.8999-0.67328c4.6202-1.0727 7.5077-1.9361 7.9887-2.3879 0.23455-0.22035 0.56648-0.76346 0.73769-1.207 0.2901-0.75159 0.31097-1.9099 0.31097-17.003v-16.197l-0.78904-0.70621-6.0271-2.0585c-4.2604-1.1582-3.9924-1.0955-4.2604-1.1582-0.27332-0.06542-0.54753-0.14659-0.60934-0.18067-0.0618-0.03408-0.76613-1.266-1.565-2.7377-3.6229-6.6739-6.1322-10.17-10.233-14.255-4.5436-4.5262-9.8916-8.3304-15.9-11.311l-1.5059-0.74642-1.0903-4.4029c-0.59976-2.4215-1.3424-5.0735-1.6502-5.8933l-0.55945-1.4904-1.4909-0.10753c-1.9996-0.14451-15.195-0.27045-23.292-0.26253zm-8.5952 2.2112h14.69c8.0792 0 15.286 0.05073 16.015 0.11237 1.157 0.0978 1.3372 0.15893 1.4134 0.48195 0.3926 1.6641 2.5774 9.9393 2.7207 10.304 0.14046 0.35804 0.83822 0.81728 3.0428 2.0034 5.3136 2.8587 8.62 5.1084 12.448 8.4692 4.6267 4.0617 7.9468 8.3765 11.902 15.469 2.2095 3.9618 1.7819 3.5415 4.2508 4.1791 4.7634 1.2302 7.7864 2.1526 8.4106 2.5657l0.65777 0.43497v12.859c0 13.636-0.1094 18.546-0.42237 18.969-0.11415 0.1543-2.3742 0.80168-5.5964 1.6028l-5.4056 1.3441-0.88592 1.7684c-3.2941 6.5755-6.6752 11.372-11.271 15.99-4.2221 4.2425-7.9163 6.9096-14.297 10.321-1.2056 0.64469-2.3659 1.3441-2.5783 1.5543-0.2834 0.28041-0.64236 1.363-1.3475 4.0648-1.4164 5.4272-1.7883 6.5205-2.3434 6.8844-0.43308 0.28387-1.456 0.30665-14.328 0.31872-7.6238 7e-3 -14.708-0.0154-15.743-0.0499l-1.8813-0.063-0.43642-1.4405c-0.23997-0.79246-0.87403-3.2116-1.409-5.3756-0.535-2.1639-1.0932-4.0677-1.241-4.231-0.14774-0.16325-1.2716-0.83448-2.4969-1.4914-6.8346-3.6638-10.35-6.1653-14.511-10.326-4.1314-4.1314-6.858-7.914-10.586-14.686-0.88668-1.6106-1.7461-2.9684-1.9099-3.0176-0.16376-0.04925-1.9946-0.53254-4.0682-1.0739-4.2825-1.1179-6.0761-1.6993-6.4751-2.0983-0.24656-0.24653-0.28101-1.965-0.32259-16.015-0.0369-12.481-7.4e-4 -15.8 0.17535-16.032 0.26673-0.35156 1.9155-0.83415 7.1212-2.0847l3.9181-0.94162 1.2894-2.5425c2.9655-5.8478 5.6572-9.7352 9.436-13.627 5.1331-5.2871 8.8671-8.0129 16.982-12.396 1.7472-0.94389 1.493-0.46866 2.6863-5.0152 1.1254-4.2878 1.6417-5.9593 2.046-6.6199zm1.7505 7.8914-0.5362 0.65099c-0.87502 1.0615-1.081 1.6539-2.928 8.4179-0.23826 0.87251-0.30831 0.94881-1.518 1.6507-5.8908 3.4181-8.2397 5.0309-11.45 7.8613-3.8378 3.3842-6.6995 7.0116-9.6307 12.208-2.2099 3.9176-1.931 3.6248-3.9011 4.0954-2.9742 0.7104-6.5374 1.7587-6.9929 2.0571-1.075 0.7044-1.0294 0.08439-1.0835 14.79l-0.0494 13.415 0.57543 0.96051c0.5301 0.88471 0.674 0.99841 1.8309 1.4425 0.69071 0.2651 2.6241 0.84186 4.2964 1.2816 1.7431 0.45841 3.1646 0.92807 3.3315 1.1005 0.1601 0.16542 1.0572 1.642 1.9932 3.2816 5.1483 9.0185 10.978 14.724 19.961 19.533 2.6626 1.4255 2.39 1.0824 3.0142 3.7902 0.52444 2.2748 1.5131 5.7748 1.7738 6.2789 0.14837 0.28691 0.57177 0.64211 0.99247 0.83312 0.69999 0.31779 1.3492 0.33342 14.151 0.33712 15.3 4e-3 14.179 0.11819 15.185-1.5403 0.48175-0.79442 1.1134-2.8705 2.3661-7.779 0.15207-0.59584 0.32046-0.72905 2.2983-1.8106 2.8102-1.5366 6.6395-4.0639 8.8199-5.8212 4.5421-3.6606 9.1762-9.5009 12.188-15.36l1.1397-2.2174 1.9292-0.46112c3.0503-0.72895 6.439-1.6682 6.9241-1.9191 0.24454-0.12646 0.62151-0.54427 0.83748-0.92854l0.39234-0.69846v-27.535l-0.61612-0.54056c-0.33886-0.29754-0.87116-0.67396-1.1833-0.83602-0.65038-0.33767-4.5076-1.4616-6.5521-1.9094-0.75937-0.16632-1.4722-0.3751-1.5839-0.46354-0.11165-0.08844-0.81632-1.2815-1.566-2.6514-1.586-2.8985-3.6912-6.0792-5.5683-8.413-3.3247-4.1336-9.1004-8.7294-14.736-11.726-1.1453-0.60893-2.2031-1.2911-2.3502-1.5156-0.14709-0.22449-0.6925-2.0338-1.2119-4.0208-1.2339-4.7201-1.5566-5.5363-2.2475-5.6841-0.28919-0.06184-6.7735-0.12179-14.41-0.1332zm14.617 1.7805c6.4657 0.0068 12.863 0.06383 12.964 0.16469 0.0571 0.05717 0.61282 2.1031 1.2347 4.5468 0.7311 2.873 1.2416 4.5502 1.4449 4.7463 0.17294 0.16685 1.4982 0.94791 2.945 1.7355 5.1144 2.7842 8.6874 5.4383 12.193 9.0568 2.9538 3.0488 5.0493 6.0191 7.8395 11.112 0.71328 1.302 1.3522 2.4241 1.4197 2.4931 0.0674 0.06899 1.5022 0.48587 3.1886 0.9266 3.8766 1.0131 5.6948 1.6099 5.9902 1.9661 0.18834 0.22703 0.2325 2.7658 0.2325 13.399 0 11.434-0.0338 13.151-0.26301 13.367-0.35718 0.33754-1.4092 0.65962-5.5116 1.6871-1.9221 0.48138-3.5516 0.93601-3.6212 1.0104-0.0695 0.07439-0.81538 1.3979-1.658 2.9411-3.0856 5.6509-5.3474 8.7014-9.2418 12.466-3.3485 3.2367-6.2102 5.2718-11.313 8.0459-2.3374 1.2706-2.505 1.3967-2.6592 1.9961-1.8805 7.3126-2.1883 8.2475-2.8205 8.5671-0.34241 0.1731-3.2605 0.21779-13.327 0.20392-7.089-0.01-13.012-0.0506-13.162-0.0911-0.27084-0.0731-1.0763-2.7831-1.921-6.462-0.7166-3.121-0.38966-2.6924-3.2007-4.1917-5.2574-2.8041-8.4588-5.0833-11.711-8.337-3.5887-3.5902-5.631-6.3658-8.7526-11.896l-1.7665-3.1295-3.2797-0.84377c-1.8036-0.46403-3.7552-0.9979-4.337-1.1862-1.8336-0.59346-1.707-0.09731-1.8067-7.0955-0.0479-3.3598-0.0281-9.3322 0.0446-13.272l0.13224-7.1634 0.58027-0.24267c0.82863-0.34622 2.9081-0.90929 6.0416-1.6362l2.7183-0.63065 0.67473-1.3141c3.0355-5.9112 5.1562-9.0246 8.5259-12.516 3.3742-3.4957 7.4986-6.5505 12.72-9.4215 1.4467-0.79557 2.6554-1.464 2.6858-1.4856 0.0305-0.02162 0.40389-1.4044 0.83021-3.0724 0.88573-3.4654 1.022-3.9323 1.5146-5.1992 0.32012-0.82336 0.43094-0.93874 1.0622-1.1087 0.37268-0.10035 6.9064-0.14391 13.372-0.13708z" style="paint-order:stroke fill markers"/>
 </g>
</svg>
