<?xml version="1.0" encoding="UTF-8"?>
<!-- Created with Inkscape (http://www.inkscape.org/) -->
<svg width="77.639mm" height="76.835mm" version="1.1" viewBox="0 0 77.639 76.835" xmlns="http://www.w3.org/2000/svg">
 <g transform="translate(-59.923 -87.732)">
  <path d="m87.43 160.93-1.0909-3.6183-3.1494-1.6295c-5.899-3.0522-10.874-7.997-13.926-13.841l-1.3606-2.6057-7.9807-2.5973v-19.952l7.9251-2.5856 1.5184-2.9422c2.9454-5.7076 7.9844-10.741 13.81-13.793l3.0454-1.5959 2.6143-7.9192 19.992 0.21574 1.2869 3.8336 1.2869 3.8336 2.9087 1.6253c6.1199 3.4195 11.706 9.1469 14.262 14.623l0.98186 2.1033 8.0072 2.606-0.10851 9.8656-0.10851 9.8656-7.5704 2.5066-1.3023 2.4123c-3.5526 6.5806-7.9949 11.05-14.355 14.443l-3.167 1.6894-1.0624 3.43-1.0624 3.43-20.304 0.21533z" fill="#fff" fill-rule="evenodd" stop-color="#000000" style="paint-order:stroke fill markers"/>
  <g transform="translate(14.271 10.809)" stroke="#000" stroke-width=".21167">
   <path d="m84.099 89.863c-0.30616-1.2888-1.2811-3.4423-2.2262-4.9172-0.46077-0.71906-0.58582-1.0704-0.40268-1.1315 0.62376-0.20792 1.52-1.1745 1.52-1.6393 0-0.74559-0.58649-1.2231-1.3217-1.0761-0.808 0.1616-0.68393-0.29033 0.17192-0.62624 0.85185-0.33434 1.9442-0.01597 2.2503 0.65586 0.13055 0.28653 0.30204 0.52097 0.38108 0.52097 0.079 0 0.25053-0.23444 0.38109-0.52097 0.3061-0.67183 1.3985-0.9902 2.2503-0.65586 0.85586 0.33592 0.97993 0.78784 0.17193 0.62624-0.73518-0.14704-1.3217 0.33046-1.3217 1.0761 0 0.46478 0.89623 1.4313 1.52 1.6393 0.18314 0.06105 0.0581 0.41244-0.40269 1.1315-0.94511 1.4749-1.92 3.6283-2.2262 4.9172-0.14371 0.60498-0.31146 1.1-0.37278 1.1-0.0613 0-0.22906-0.49498-0.37277-1.1z"/>
   <path d="m85.18 85.749 0.58515-1.1931-0.54106-0.56474c-0.29758-0.31061-0.54105-0.67859-0.54105-0.81774 0-0.13915-0.0952-0.253-0.21167-0.253-0.11641 0-0.21166 0.11385-0.21166 0.253 0 0.13915-0.24348 0.50713-0.54106 0.81774l-0.54105 0.56474 0.58515 1.1931c0.32183 0.6562 0.64071 1.1931 0.70862 1.1931 0.0679 0 0.3868-0.53689 0.70863-1.1931z" fill="#fff"/>
  </g>
  <g transform="rotate(90 86.118 127.8)" stroke="#000" stroke-width=".21167">
   <path d="m84.099 89.863c-0.30616-1.2888-1.2811-3.4423-2.2262-4.9172-0.46077-0.71906-0.58582-1.0704-0.40268-1.1315 0.62376-0.20792 1.52-1.1745 1.52-1.6393 0-0.74559-0.58649-1.2231-1.3217-1.0761-0.808 0.1616-0.68393-0.29033 0.17192-0.62624 0.85185-0.33434 1.9442-0.01597 2.2503 0.65586 0.13055 0.28653 0.30204 0.52097 0.38108 0.52097 0.079 0 0.25053-0.23444 0.38109-0.52097 0.3061-0.67183 1.3985-0.9902 2.2503-0.65586 0.85586 0.33592 0.97993 0.78784 0.17193 0.62624-0.73518-0.14704-1.3217 0.33046-1.3217 1.0761 0 0.46478 0.89623 1.4313 1.52 1.6393 0.18314 0.06105 0.0581 0.41244-0.40269 1.1315-0.94511 1.4749-1.92 3.6283-2.2262 4.9172-0.14371 0.60498-0.31146 1.1-0.37278 1.1-0.0613 0-0.22906-0.49498-0.37277-1.1z"/>
   <path d="m85.18 85.749 0.58515-1.1931-0.54106-0.56474c-0.29758-0.31061-0.54105-0.67859-0.54105-0.81774 0-0.13915-0.0952-0.253-0.21167-0.253-0.11641 0-0.21166 0.11385-0.21166 0.253 0 0.13915-0.24348 0.50713-0.54106 0.81774l-0.54105 0.56474 0.58515 1.1931c0.32183 0.6562 0.64071 1.1931 0.70862 1.1931 0.0679 0 0.3868-0.53689 0.70863-1.1931z" fill="#fff"/>
  </g>
  <g transform="rotate(-90 96.952 113.67)" stroke="#000" stroke-width=".21167">
   <path d="m84.099 89.863c-0.30616-1.2888-1.2811-3.4423-2.2262-4.9172-0.46077-0.71906-0.58582-1.0704-0.40268-1.1315 0.62376-0.20792 1.52-1.1745 1.52-1.6393 0-0.74559-0.58649-1.2231-1.3217-1.0761-0.808 0.1616-0.68393-0.29033 0.17192-0.62624 0.85185-0.33434 1.9442-0.01597 2.2503 0.65586 0.13055 0.28653 0.30204 0.52097 0.38108 0.52097 0.079 0 0.25053-0.23444 0.38109-0.52097 0.3061-0.67183 1.3985-0.9902 2.2503-0.65586 0.85586 0.33592 0.97993 0.78784 0.17193 0.62624-0.73518-0.14704-1.3217 0.33046-1.3217 1.0761 0 0.46478 0.89623 1.4313 1.52 1.6393 0.18314 0.06105 0.0581 0.41244-0.40269 1.1315-0.94511 1.4749-1.92 3.6283-2.2262 4.9172-0.14371 0.60498-0.31146 1.1-0.37278 1.1-0.0613 0-0.22906-0.49498-0.37277-1.1z"/>
   <path d="m85.18 85.749 0.58515-1.1931-0.54106-0.56474c-0.29758-0.31061-0.54105-0.67859-0.54105-0.81774 0-0.13915-0.0952-0.253-0.21167-0.253-0.11641 0-0.21166 0.11385-0.21166 0.253 0 0.13915-0.24348 0.50713-0.54106 0.81774l-0.54105 0.56474 0.58515 1.1931c0.32183 0.6562 0.64071 1.1931 0.70862 1.1931 0.0679 0 0.3868-0.53689 0.70863-1.1931z" fill="#fff"/>
  </g>
  <g transform="matrix(1 0 0 -1 14.271 242.18)" stroke="#000" stroke-width=".21167">
   <path d="m84.099 89.863c-0.30616-1.2888-1.2811-3.4423-2.2262-4.9172-0.46077-0.71906-0.58582-1.0704-0.40268-1.1315 0.62376-0.20792 1.52-1.1745 1.52-1.6393 0-0.74559-0.58649-1.2231-1.3217-1.0761-0.808 0.1616-0.68393-0.29033 0.17192-0.62624 0.85185-0.33434 1.9442-0.01597 2.2503 0.65586 0.13055 0.28653 0.30204 0.52097 0.38108 0.52097 0.079 0 0.25053-0.23444 0.38109-0.52097 0.3061-0.67183 1.3985-0.9902 2.2503-0.65586 0.85586 0.33592 0.97993 0.78784 0.17193 0.62624-0.73518-0.14704-1.3217 0.33046-1.3217 1.0761 0 0.46478 0.89623 1.4313 1.52 1.6393 0.18314 0.06105 0.0581 0.41244-0.40269 1.1315-0.94511 1.4749-1.92 3.6283-2.2262 4.9172-0.14371 0.60498-0.31146 1.1-0.37278 1.1-0.0613 0-0.22906-0.49498-0.37277-1.1z"/>
   <path d="m85.18 85.749 0.58515-1.1931-0.54106-0.56474c-0.29758-0.31061-0.54105-0.67859-0.54105-0.81774 0-0.13915-0.0952-0.253-0.21167-0.253-0.11641 0-0.21166 0.11385-0.21166 0.253 0 0.13915-0.24348 0.50713-0.54106 0.81774l-0.54105 0.56474 0.58515 1.1931c0.32183 0.6562 0.64071 1.1931 0.70862 1.1931 0.0679 0 0.3868-0.53689 0.70863-1.1931z" fill="#fff"/>
  </g>
  <path d="m86.8 161.24-1.058-3.3232-0.29418-0.14457c-0.1618-0.0795-0.96093-0.46953-1.7758-0.86669-7.0412-3.4316-12.712-9.2945-15.974-16.515l-0.34423-0.762-7.3887-2.3567 6.35e-4 -10.887 6.35e-4 -10.887 7.4625-2.3707 0.18087-0.42334c1.5836-3.7065 4.373-7.7107 7.4156-10.645 2.8265-2.7259 5.7428-4.7228 9.4461-6.4681 0.60507-0.28516 1.1315-0.57091 1.1698-0.635 0.03831-0.06409 0.57879-1.7167 1.2011-3.6725l1.1314-3.556h21.791l2.3972 7.5041 1.4393 0.70288c2.2864 1.1165 4.3627 2.4342 6.4441 4.0895 1.2803 1.0182 4.0546 3.8136 5.148 5.1872 1.6271 2.0441 3.2256 4.6138 4.2368 6.8114 0.25165 0.54687 0.47302 1.0098 0.49192 1.0287 0.0292 0.0292 5.6402 1.8328 7.1106 2.2856l0.48683 0.14992v10.907c0 5.9986-0.0167 10.907-0.037 10.907-0.11978 0-7.4521 2.3765-7.5008 2.4311-0.0327 0.0366-0.26456 0.50469-0.51528 1.0402-2.3952 5.1159-5.8695 9.4243-10.294 12.765-1.9268 1.455-3.7886 2.5794-6.0606 3.66l-1.335 0.63498-0.58439 1.8204c-0.32141 1.0012-0.80484 2.5157-1.0743 3.3655l-0.4899 1.5452h-21.771zm22.647-1.7076c0.5984-1.8822 1.1112-3.4572 1.1396-3.5 0.0284-0.0428 0.62309-0.33387 1.3216-0.64671 3.5627-1.5957 6.65-3.7693 9.5294-6.7094 2.726-2.7835 4.826-5.8804 6.36-9.3795 0.18533-0.42273 0.36267-0.79475 0.39409-0.82671 0.0314-0.032 1.6383-0.56245 3.5708-1.1789 1.9325-0.61642 3.6376-1.1616 3.7892-1.2116l0.27552-0.0908-0.0215-9.61-0.0215-9.61-7.6288-2.4393-0.15697-0.38901c-0.36288-0.89927-1.3515-2.8385-1.9897-3.9027-3.3137-5.526-8.177-9.8991-13.987-12.578-0.57448-0.26481-1.0579-0.4935-1.0743-0.50819-0.0164-0.01469-0.57442-1.7341-1.24-3.821l-1.2102-3.7943h-19.509l-1.1718 3.683c-0.6445 2.0256-1.2024 3.733-1.2398 3.7941-0.0374 0.06112-0.35375 0.23553-0.703 0.38758-5.903 2.57-11.071 7.0891-14.436 12.625-0.58422 0.96085-1.7255 3.1838-2.0765 4.0448l-0.1993 0.48876-1.1478 0.36408c-0.63128 0.20024-2.3384 0.7423-3.7935 1.2046l-2.6457 0.84049-2.78e-4 19.488 2.7305 0.87127c1.5018 0.47919 3.225 1.0296 3.8294 1.2231 0.89832 0.28764 1.1179 0.39002 1.2031 0.56086 0.0573 0.11494 0.3872 0.79953 0.73311 1.5213 1.028 2.1451 2.3261 4.1745 3.9633 6.1958 1.0266 1.2676 3.334 3.5594 4.6009 4.57 2.2776 1.8167 4.9099 3.4051 7.3568 4.4393 0.45666 0.19302 0.6065 0.30178 0.6896 0.50059 0.05839 0.1397 0.57476 1.7304 1.1475 3.5348l1.0413 3.2808h19.49z"/>
 </g>
</svg>
