<?xml version="1.0" encoding="UTF-8"?>
<svg width="155.67" height="181.02" version="1.1" viewBox="172.3 160 155.67 183.57" xmlns="http://www.w3.org/2000/svg">
 <g transform="translate(460.21 156.7)" fill="#fff" stroke="#000" stroke-width="2">
  <path d="m-162.01 20.855-20.262 0.01-4.211-16.561h-47.2l-3.738 16.59-21.262 0.01c-2.3 14.3-12 17.299-18.9 19.77 0.251 18.456 1.981 35.849 4.2 52.13l-14.4 8.4 15.7 43.5 17-1.4c1 3.1 2.871 6.545 4.558 8.831 15.57 21.089 40.214 33.615 40.214 33.615s25.128-12.546 40.628-33.646c1.7-2.3 3.6-5.7 4.6-8.8l16.985 1.384 15.728-43.451-14.418-8.397c2.205-16.336 3.98-36.402 4.205-52.166-6.88-2.438-16.588-5.441-19.427-19.819z"/>
  <path d="m-253.33 28.153c-4.532 9.364-11.755 14.651-17.355 17.751 0.6 44.2 10.649 81.615 24.302 100.11 13.984 18.941 36.117 30.191 36.117 30.191s22.481-11.298 36.49-30.178c13.7-18.9 23.706-55.885 24.339-100.11-5.648-3.1-12.848-8.4-17.448-17.8l-82.389 0.049z"/>
 </g>
</svg>
