<?xml version="1.0" encoding="UTF-8"?>
<svg width="133mm" height="124.02mm" version="1.1" viewBox="0 0 133 124.02" xmlns="http://www.w3.org/2000/svg">
 <title>template-site-PL</title>
 <g transform="translate(222.98 46.227)">
  <text x="-184.47688" y="37.597878" fill="#ffffff" font-family="Arial" font-size="41.987px" letter-spacing="0px" stroke="#000000" stroke-width="2.2493" word-spacing="0px" style="font-feature-settings:normal;font-variant-caps:normal;font-variant-ligatures:normal;font-variant-numeric:normal;line-height:1.25" xml:space="preserve"><tspan x="-184.47688" y="37.597878" fill="#ffffff" font-family="Arial" font-weight="900" stroke="#000000" stroke-width="2.2493">00</tspan></text>
  <path d="m-160.72 74.525c-7.1629-0.49948-13.618-2.3119-20.428-5.7355-3.5724-1.796-6.4434-3.6367-8.1941-5.2538l-1.172-1.0825-5.7526 1.647c-3.5239 1.0089-5.9016 1.4938-6.1371 1.2515-0.44538-0.45808-16.139-27.628-16.497-28.56-0.15599-0.4065 1.204-1.9793 3.9169-4.5298l4.1558-3.9071 0.10366-8.511c0.0921-7.5638 0.22473-8.9713 1.1915-12.646 4.2367-16.105 15.001-29.335 29.523-36.284l3.4791-1.6648 1.117-4.4929c0.61436-2.4711 1.307-5.2132 1.5392-6.0937l0.16987-2.0167 17.346 0.52717 17.528 0.11121 1.0438 6.0039 1.4778 6.0039 3.4344 1.6434c10.556 5.051 20.128 14.404 25.231 24.651 4.3434 8.7236 6.4173 19.167 5.6608 28.506l-0.30964 3.8219 4.1945 3.9883c2.307 2.1935 4.1945 4.23 4.1945 4.5254 0 0.29543-2.032 4.0583-4.5156 8.362-2.4836 4.3037-6.1466 10.665-8.1401 14.136-1.9935 3.4713-2.0693 7.3103-2.3752 7.4277-0.30594 0.11739-4.8639-1.4017-7.9219-2.2724l-5.56-1.583-1.1391 1.1391c-1.3871 1.3871-7.1551 4.9063-10.354 6.3171-8.52 3.7578-17.214 5.2399-26.811 4.5706zm13.549-6.5722c6.3038-1.3778 13.204-4.2808 17.979-7.5638l2.8017-1.9262 9.7054 2.9388 0.96163-1.2017c0.52888-0.66091 0.96258-1.3636 0.96374-1.5615 1e-3 -0.19794 0.35497-0.86823 0.78623-1.4895 0.43127-0.62132 1.3318-2.183 2.0011-3.4704 0.66931-1.2874 1.4493-2.628 1.7333-2.9791 0.28398-0.35111 2.648-4.3729 5.2535-8.9373l4.7371-8.2989-7.6997-7.2953v-5.8855c0-6.3874-0.65239-10.697-2.4181-15.972-4.026-12.028-12.625-21.956-24.06-27.78-1.8059-0.91973-3.3701-1.9878-3.476-2.3735-0.10592-0.38568-0.71656-2.8379-1.357-5.4495l-1.1644-4.7483-16.075 0.05496c-15.766 0.0539-16.08 0.07157-16.307 0.91801-0.12734 0.47467-0.76858 2.8718-1.425 5.3271l-1.1934 4.464-2.3304 1.2199c-8.9737 4.6973-17.215 12.606-21.385 20.521-4.2336 8.0362-5.9675 14.953-6.021 24.019l-0.0339 5.7454-7.4145 7.116 1.0988 2.1684c0.60434 1.1926 3.1547 5.6242 5.6674 9.8479 2.5127 4.2237 5.4531 9.3073 6.5342 11.297 1.0811 1.9896 2.1354 3.873 2.343 4.1853 0.30576 0.46009 1.3237 0.30297 5.3641-0.82792 3.9027-1.0924 5.1414-1.2906 5.6981-0.91199 1.0731 0.72983 7.7655 4.5999 9.2404 5.3435 2.3471 1.1834 8.2152 2.903 12.646 3.7058 5.146 0.93237 12.041 0.85074 16.846-0.19943z" fill="#dc143c" stroke="#dc143c" stroke-linecap="round" stroke-width="1.4146" style="paint-order:normal"/>
  <path d="m-163.91 65.383c-3.779-0.61323-8.138-1.9055-11.616-3.4438-3.0387-1.3438-8.5111-4.7754-8.9953-5.6407-0.35314-0.63102-0.63098-0.62162-3.2929 0.11146-7.326 2.0176-7.1072 1.9769-7.6251 1.417-0.27047-0.29241-3.1755-5.2237-6.4556-10.958-3.2801-5.7348-6.3212-11.044-6.758-11.799l-0.79424-1.3723 7.0484-7.0879 0.13226-7.2129c0.10778-5.878 0.31164-7.8776 1.1016-10.805 3.5862-13.289 12.037-23.67 24.436-30.016l3.3526-1.7159 1.207-4.6814c0.66383-2.5748 1.2139-4.8251 1.2225-5.0006 9e-3 -0.17555 6.5046-0.31919 14.436-0.31919h14.42l2.4828 9.9901 3.7195 1.9207c9.6422 4.9792 16.715 12.306 21.153 21.913 3.1197 6.7525 4.3244 12.693 4.1954 20.687l-0.0865 5.3558 3.4685 3.3235c1.9077 1.8279 3.4685 3.4759 3.4685 3.662 0 0.18618-1.697 3.2707-3.771 6.8544-2.0741 3.5838-5.034 8.7183-6.5777 11.41-4.2063 7.3349-3.2088 6.7264-8.4654 5.1637-4.6998-1.3972-5.8698-1.5863-5.8698-0.94885 0 0.21153-1.5498 1.3788-3.4441 2.5939-9.3751 6.0139-20.985 8.4012-32.092 6.5988z" fill="#dc143c" stroke="#dc143c" stroke-width="1.4146"/>
  <path d="m-162.84 77.669c-8.3992-1.0576-18.086-4.4506-23.697-8.3004-0.97846-0.67136-1.918-1.2207-2.0878-1.2207-0.16981 0-0.96408-0.49985-1.765-1.1108l-1.4563-1.1108-2.6269 0.74591c-1.4448 0.41025-4.1864 1.1789-6.0924 1.7082l-3.4655 0.96227-3.0987-5.598c-1.7043-3.0789-5.0978-8.9495-7.541-13.046-2.4433-4.0962-5.3121-9.05-6.3752-11.008l-1.9328-3.5607 8.8554-8.7798 0.0169-6.9448c0.0174-7.113 0.39475-9.7456 2.3989-16.733 0.87568-3.0531 2.7113-7.6151 4.2811-10.64 5.121-9.8664 16.202-20.603 25.713-24.914 2.5326-1.1479 2.6402-1.2623 3.2521-3.4575 0.34807-1.2487 0.75863-2.8449 0.91237-3.5471 0.15373-0.70221 0.68109-2.6357 1.1719-4.2966l0.89239-3.0199 19.09-0.0224c10.499-0.01232 19.099 0.1018 19.11 0.2536 0.0109 0.1518 0.72912 3.0529 1.5959 6.447l1.576 6.171 4.0759 2.1279c6.8535 3.578 14.006 9.2015 17.744 13.951 6.7422 8.5654 10.138 15.554 12.266 25.245 0.94824 4.3174 1.1146 6.1173 1.1267 12.194l0.0143 7.1294 4.6525 4.4949c3.6872 3.5623 4.5529 4.615 4.1723 5.0735-0.51717 0.62314-9.3674 16.008-9.3674 16.284 0 0.09136-0.54391 0.96666-1.2087 1.9451-0.66478 0.97846-1.9326 3.1196-2.8174 4.7581-0.88476 1.6385-1.841 3.2664-2.1249 3.6175-0.28392 0.3511-1.1464 1.7874-1.9166 3.1919-0.77017 1.4044-1.4426 2.6034-1.4943 2.6644-0.0517 0.061-0.93773-0.1901-1.969-0.55806-2.089-0.7453-5.6186-1.7551-8.3672-2.3938-1.7019-0.39546-1.9319-0.33202-3.8302 1.0567-4.977 3.6408-14.692 7.8672-21.809 9.488-2.7179 0.61893-14.873 1.1312-17.875 0.75329zm20.068-4.3316c6.869-1.773 15.05-5.7206 18.948-9.1427l1.4329-1.2581 5.0226 1.3289c2.7624 0.73091 5.4902 1.3289 6.0618 1.3289 0.84166 0 1.4538-0.66741 3.2201-3.5111 2.3207-3.7361 11.274-19.243 12.961-22.45 1.8948-3.6003 2.0472-3.1257-2.4874-7.7412l-4.1555-4.2296 0.14416-5.3989c0.0793-2.9694-0.0731-7.0268-0.33873-9.0164-2.4605-18.432-13.448-33.779-30.333-42.371-2.9801-1.5163-3.7754-2.1223-4.0166-3.0607-0.16544-0.64357-0.79764-3.2768-1.4049-5.8516l-1.1041-4.6814-6.3701-0.26424c-3.5036-0.14533-11.35-0.28897-17.437-0.31919l-11.067-0.05494-1.2374 4.7878c-0.68059 2.6333-1.4076 5.413-1.6156 6.1771-0.32461 1.1926-0.87234 1.6372-3.8675 3.1397-14.327 7.1871-24.367 19.311-29.046 35.074-0.99814 3.3627-1.1703 4.8932-1.4771 13.128l-0.34724 9.3215-3.8648 3.7346c-2.2535 2.1776-3.8648 4.0782-3.8648 4.5588 0 0.71507 7.8315 14.736 14.273 25.553l2.1121 3.5469 1.7139-0.18563c0.94265-0.10208 3.6041-0.72187 5.9144-1.3773 2.6425-0.74967 4.3909-1.0493 4.7139-0.80775 0.28239 0.21117 1.4512 1.1026 2.5973 1.981 2.7928 2.1404 10.606 5.9458 15.037 7.3239 6.0919 1.8946 9.7323 2.3415 17.688 2.1718 6.3539-0.13558 7.839-0.31028 12.195-1.4346z"/>
  <path d="m-203.35 25.66c0-0.21797 0.35589-2.603 0.46748-5.1383 0.43423-9.8655 1.2389-13.956 3.8905-19.776 4.7132-10.346 11.555-17.324 22.734-23.188l2.3567-1.2361 1.0289-4.1363c0.5659-2.275 1.1714-4.4087 1.3455-4.7416 0.64947-1.2417-0.27394-1.1686 14.59-1.155 7.4754 0.0069 13.823 0.07167 14.107 0.144 0.43749 0.11174 0.57856 0.34682 0.93812 1.5633 0.40134 1.3578 2.0079 7.9639 2.0124 8.275 1e-3 0.08047 1.1717 0.72892 2.6012 1.441 5.352 2.6659 8.9494 5.2238 12.975 9.2259 3.8625 3.8395 6.3419 7.2385 8.6937 11.918 3.4278 6.8203 4.8591 13.525 4.8591 22.763v4.0434l-22.242 9e-5c-12.233 5.1e-5 22.242-9e-5 -46.168 0.13104-23.886 0.04579-24.191 0.26257-24.191-0.13307z" fill="#fff" stroke="#fff" stroke-linecap="round" stroke-width="1.9756" style="paint-order:normal"/>
  <path d="m-161.46 68.131c-7.0013-0.87493-13.52-3.0659-19.598-6.5869-5.4464-3.155-5.7673-3.2031-11.362-1.7008-3.5831 0.96214-3.8662 0.98179-4.3865 0.30449-0.63222-0.82299-13.364-22.878-14.588-25.27l-0.80037-1.5645 7.0957-6.6595 0.29585-5.9582c0.37631-7.5785 0.90449-11.005 2.4046-15.6 3.8902-11.915 11.33-20.792 23.558-28.11l3.7913-2.269 1.3189-4.8796 1.3189-4.8796 1.6991-0.30136c0.93451-0.16575 8.0595-0.3124 15.833-0.32588l14.134-0.02453 0.42009 1.5959c0.23104 0.87777 0.74144 2.9365 1.1342 4.575 0.95668 3.9909 1.3922 4.5811 4.7498 6.4369 6.7468 3.729 12.542 8.6326 16.761 14.182 2.9914 3.9351 6.5432 11.34 7.8696 16.407 0.92854 3.5469 1.1455 5.4611 1.3022 11.491l0.18803 7.2349 7.6876 7.2582-4.7986 8.2872c-2.6392 4.558-6.121 10.585-7.7372 13.394-1.6162 2.8089-3.0898 5.2664-3.2746 5.4612-0.18477 0.19478-2.5194-0.30029-5.188-1.1002l-4.8521-1.4543-2.7522 1.8658c-4.9937 3.3853-11.809 6.2698-17.871 7.5632-3.7477 0.7997-10.585 1.0986-14.355 0.62745zm14.256-2.7804c6.2352-1.2811 15.028-5.2292 18.203-8.1734l1.1768-1.0912 2.8126 0.77855c5.9189 1.6384 6.7397 1.7321 7.6846 0.87699 0.47388-0.42886 3.8657-6.0297 7.5374-12.446l6.6758-11.667-6.9561-6.9924-3e-3 -4.247c-5e-3 -5.8052-0.64166-10.889-1.9145-15.281-3.647-12.584-12.27-22.828-24.327-28.9l-3.0501-1.5359-1.1412-4.9074c-0.62767-2.6991-1.2706-4.9874-1.4287-5.0851-0.53713-0.33197-27.5-0.4383-28.424-0.11209-0.76066 0.26833-1.1248 1.166-2.1073 5.1944l-1.1878 4.87-2.9997 1.5559c-9.8 5.0831-16.72 11.974-21.319 21.228-3.2961 6.6333-4.3422 11.114-4.71 20.173l-0.29273 7.2113-3.341 3.3214c-1.8375 1.8268-3.341 3.4546-3.341 3.6175 0 0.29023 9.7173 17.352 12.628 22.173 1.0452 1.731 1.7387 2.4471 2.3698 2.4471 0.4907 0 2.7582-0.49217 5.0388-1.0937l4.1466-1.0937 1.8462 1.344c6.1299 4.4627 13.903 7.5236 21.636 8.5195 3.6954 0.47594 10.719 0.15043 14.787-0.6853z"/>
 </g>
</svg>
