<?xml version="1.0" encoding="UTF-8"?>
<!-- Created with Inkscape (http://www.inkscape.org/) -->
<svg width="133.1mm" height="123.45mm" version="1.1" viewBox="0 0 133.1 123.45" xmlns="http://www.w3.org/2000/svg">
 <title>template-site-CS</title>
 <defs>
  <clipPath id="clipPath12001">
   <path d="m225.55 193.3c7.1417-1.6596 14.593-4.8955 19.679-8.5463 1.5592-1.1191 3.1908-2.0348 3.6259-2.0348 0.43506 0 2.9975 0.64189 5.6943 1.4264s5.1845 1.4786 5.5281 1.5425c0.48007 0.0893 2.5543-3.2049 8.954-14.22l8.3292-14.336-9.0199-8.8792 0.36648-4.1804c1.9399-22.129-10.548-43.678-31.041-53.562l-3.6857-1.7778-1.1772-4.9125c-0.64749-2.7019-1.3345-5.4819-1.5266-6.1778l-0.34937-1.2653h-33.323l-0.34935 1.2653c-0.19215 0.6959-0.87913 3.4759-1.5266 6.1778l-1.1772 4.9125-3.6857 1.7778c-20.493 9.8845-32.981 31.433-31.041 53.562l0.36647 4.1804-9.0199 8.8792 8.3292 14.336c6.3998 11.015 8.474 14.309 8.954 14.22 0.34364-0.064 2.8313-0.75802 5.5281-1.5425 2.6968-0.78449 5.2593-1.4264 5.6943-1.4264 0.43506 0 1.996 0.86457 3.4688 1.9213 6.2858 4.5099 15.097 8.0272 23.325 9.3111 3.7364 0.58303 15.495 0.18165 19.079-0.65125z" fill="none" stroke="#000" stroke-width="5.5076" style="paint-order:stroke fill markers"/>
  </clipPath>
 </defs>
 <g transform="translate(-147.34 -71.507)">
  <g transform="translate(-.37311 -2.1167)" clip-path="url(#clipPath12001)" fill-rule="evenodd" stroke-linejoin="round" stroke-width=".29957">
   <path transform="rotate(-90)" d="m-106.77 156.91a66.223 66.223 0 0 1 33.111 57.351 66.223 66.223 0 0 1-33.111 57.351l-33.111-57.351z" fill="#fff" stop-color="#000000" stroke="#fff" style="paint-order:stroke fill markers"/>
   <path transform="rotate(-30.048)" d="m181.65 228.37a66.223 66.223 0 0 1-33.111 57.351 66.223 66.223 0 0 1-66.223 0l33.111-57.351z" fill="#d7141a" stop-color="#000000" stroke="#d7141a" style="paint-order:stroke fill markers"/>
   <path transform="matrix(-.86561 -.50073 -.50073 .86561 0 0)" d="m-189.29 13.799a66.223 66.223 0 0 1-33.111 57.351 66.223 66.223 0 0 1-66.223 0l33.111-57.351z" fill="#11457e" stop-color="#000000" stroke="#11457e" style="paint-order:stroke fill markers"/>
  </g>
  <path d="m225.17 191.18c7.1417-1.6596 14.593-4.8955 19.679-8.5463 1.5592-1.1191 3.1908-2.0348 3.6259-2.0348 0.43506 0 2.9975 0.64189 5.6943 1.4264s5.1845 1.4786 5.5281 1.5425c0.48007 0.0893 2.5543-3.2049 8.954-14.22l8.3292-14.336-9.0199-8.8792 0.36648-4.1804c1.9399-22.129-10.548-43.678-31.041-53.562l-3.6857-1.7778-1.1772-4.9125c-0.64749-2.7019-1.3345-5.4819-1.5266-6.1778l-0.34937-1.2653h-33.323l-0.34935 1.2653c-0.19215 0.6959-0.87913 3.4759-1.5266 6.1778l-1.1772 4.9125-3.6857 1.7778c-20.493 9.8846-32.981 31.433-31.041 53.562l0.36647 4.1804-9.0199 8.8792 8.3292 14.336c6.3998 11.015 8.474 14.309 8.954 14.22 0.34364-0.064 2.8313-0.75802 5.5281-1.5425 2.6968-0.78449 5.2593-1.4264 5.6943-1.4264 0.43506 0 1.996 0.86457 3.4688 1.9213 6.2858 4.5099 15.097 8.0272 23.325 9.3111 3.7364 0.58303 15.495 0.18165 19.079-0.65125z" fill="none" stroke="#000" stroke-width="5.5076" style="paint-order:stroke fill markers"/>
 </g>
</svg>
