<?xml version="1.0" encoding="UTF-8"?>
<!-- Created with Inkscape (http://www.inkscape.org/) -->
<svg width="133.1mm" height="123.45mm" version="1.1" viewBox="0 0 133.1 123.45" xmlns="http://www.w3.org/2000/svg">
 <title>template-site-TH</title>
 <g transform="translate(-147.34 -71.507)">
  <g fill-rule="evenodd" stroke-miterlimit="10">
   <path transform="matrix(.26458 0 0 .26458 147.34 71.507)" d="m79.374 158.63c0-0.34648 2.336-4.4972 5.191-9.2239 15.551-25.746 40.151-50.346 66.452-66.454 3.9687-2.4306 13.704-7.5939 21.635-11.474l14.419-7.0547h129.15l14.448 7.139c7.9464 3.9264 18.304 9.5308 23.018 12.454 25.582 15.866 49.399 39.903 64.794 65.39 2.855 4.7267 5.191 8.8774 5.191 9.2239 0 0.34649-77.467 0.62997-172.15 0.62997-94.682 0-172.15-0.28348-172.15-0.62997z" fill="#fff" stop-color="#000000" stroke="#fff" stroke-width="11.688" style="paint-order:stroke fill markers"/>
   <path transform="matrix(.26458 0 0 .26458 147.34 71.507)" d="m138.24 409.12c-13.471-9.0718-16.01-9.2282-40.079-2.4688-8.0917 2.2724-15.067 4.1316-15.5 4.1316-1.0647 0-9.1183-13.261-34.421-56.677l-21.338-36.613 112.31-0.26227c61.77-0.14425 162.86-0.14425 224.64 0l112.33 0.26227-21.954 37.625c-19.157 32.832-31.965 54.256-33.203 55.539-0.20671 0.21427-7.4679-1.6088-16.136-4.0512-10.259-2.8907-17.951-4.466-22.037-4.5129-5.8174-0.0669-6.9264 0.32431-15.138 5.3397l-8.8608 5.4119h-215.09z" fill="#fff" stop-color="#000000" stroke="#fff" stroke-width="11.688" style="paint-order:stroke fill markers"/>
   <path d="m193.03 86.657c0.0697-0.19278 0.83319-2.7796 1.6968-5.7484l1.5701-5.3979h35.192l1.5701 5.3979c0.86357 2.9688 1.6271 5.5556 1.6968 5.7484 0.10039 0.27782-4.2261 0.35051-20.863 0.35051-16.637 0-20.963-0.07269-20.863-0.35051z" fill="#a51931" stop-color="#000000" stroke="#a51931" stroke-width="3.4674" style="paint-order:stroke fill markers"/>
   <path d="m206.8 189.56c-0.37502-0.0721-1.6637-0.32219-2.8638-0.55569-4.8383-0.94138-12.381-3.8714-16.637-6.4629l-1.6364-0.99638 56.457 0.012-2.3183 1.3596c-4.5249 2.6536-12.461 5.5854-16.921 6.2515-2.1001 0.31358-14.871 0.62552-16.081 0.39279z" fill="#a51931" stop-color="#000000" stroke="#a51931" stroke-width="3.0925" style="paint-order:stroke fill markers"/>
   <path d="m151.01 155.15c0-0.11085 1.9808-2.1851 4.4018-4.6094l4.4018-4.4079-0.31602-4.5956c-0.61821-8.9899 0.69569-16.818 4.2161-25.119l1.0697-2.5222 97.991-0.00159 1.0958 2.5229c3.6659 8.4398 5.0198 17.207 4.117 26.66l-0.29953 3.1365 4.5284 4.3862c2.4906 2.4124 4.4464 4.4682 4.3461 4.5684-0.25092 0.25093-125.55 0.23169-125.55-0.0193z" fill="#2d2a4a" stop-color="#000000" stroke-width="3.0925" style="paint-order:stroke fill markers"/>
  </g>
  <path transform="matrix(.26458 0 0 .26458 147.34 71.507)" d="m138.24 409.12c-13.471-9.0718-16.01-9.2282-40.079-2.4688-8.0917 2.2724-15.067 4.1316-15.5 4.1316-1.0465 0-8.7834-12.712-34.495-56.677l-21.412-36.613 31.797-31.009-1.5513-17.482c-3.3298-37.524 2.5928-70.113 18.726-103.04 14.526-29.647 34.544-53.763 60.657-73.074 10.952-8.099 20.088-13.492 36.267-21.408l14.419-7.0547h129.15l14.448 7.139c25.42 12.561 41.561 23.802 58.512 40.753 41.967 41.967 62.119 97.459 56.871 156.6l-1.544 17.398 31.792 31.178-22.007 37.625c-19.283 32.968-32.05 54.288-33.256 55.539-0.20671 0.21428-7.4679-1.6087-16.136-4.0512-10.259-2.8907-17.951-4.466-22.037-4.5129-5.8174-0.0669-6.9264 0.32431-15.138 5.3397l-8.8608 5.4119h-215.09z" fill-opacity="0" stop-color="#000000" stroke-miterlimit="10" stroke-width="11.688" style="paint-order:stroke fill markers"/>
  <path d="m225.17 191.18c7.1417-1.6596 14.593-4.8955 19.679-8.5463 1.5592-1.1191 3.1908-2.0348 3.6259-2.0348 0.43503 0 2.9975 0.64189 5.6943 1.4264 2.6968 0.78448 5.1845 1.4786 5.5281 1.5425 0.48008 0.0893 2.5543-3.2048 8.954-14.22l8.3292-14.336-9.0199-8.8792 0.36648-4.1804c1.9399-22.129-10.548-43.678-31.041-53.562l-3.6857-1.7778-1.1772-4.9125c-0.64752-2.7019-1.3345-5.4819-1.5266-6.1778l-0.34938-1.2653h-33.323l-0.34939 1.2653c-0.19232 0.6959-0.87911 3.4759-1.5266 6.1778l-1.1772 4.9125-3.6857 1.7778c-20.493 9.8846-32.981 31.433-31.041 53.562l0.36668 4.1804-9.0199 8.8792 8.3292 14.336c6.3998 11.015 8.474 14.309 8.954 14.22 0.34339-0.0642 2.8313-0.75802 5.5281-1.5425s5.2593-1.4264 5.6943-1.4264c0.43523 0 1.9961 0.86455 3.4689 1.9212 6.2858 4.5099 15.097 8.0272 23.325 9.3111 3.7364 0.58304 15.495 0.18148 19.079-0.65127z" fill="none" stroke="#000" stroke-width="5.5076" style="paint-order:stroke fill markers"/>
 </g>
</svg>
